<svg width="30" height="30" viewBox="0 0 30 30" fill="none" xmlns="http://www.w3.org/2000/svg">
<g clip-path="url(#clip0_75_34)">
<path d="M25.6066 4.39342C22.7735 1.56023 19.0066 0 15 0C10.9934 0 7.22648 1.56023 4.39342 4.39336C1.56023 7.22648 0 10.9934 0 15C0 19.0066 1.56023 22.7735 4.39342 25.6066C7.22648 28.4397 10.9934 29.9999 15 29.9999C19.0067 29.9999 22.7735 28.4397 25.6066 25.6065C28.4397 22.7735 30 19.0066 30 14.9999C30 10.9933 28.4397 7.22648 25.6066 4.39342ZM5.63766 5.63766C6.95666 4.31865 8.50512 3.3126 10.1929 2.65594C9.74332 3.21715 9.32268 3.86221 8.93719 4.58771C8.48947 5.43029 8.10316 6.35566 7.78143 7.34408C6.66686 7.1591 5.63414 6.93164 4.71152 6.66469C5.00249 6.30675 5.3116 5.96395 5.63766 5.63766ZM3.64623 8.17881C4.72535 8.52434 5.95945 8.81572 7.30606 9.04652C6.93105 10.6383 6.71033 12.3512 6.65766 14.1202H1.78922C1.9275 11.9972 2.56512 9.97102 3.64623 8.17881ZM3.55043 21.6585C2.52768 19.9066 1.92334 17.9389 1.78916 15.8798H6.661C6.71853 17.5983 6.93486 19.2625 7.29721 20.8126C5.92295 21.0353 4.65785 21.3193 3.55043 21.6585ZM5.63766 24.3623C5.26681 23.9913 4.91796 23.599 4.59287 23.1872C5.5493 22.9221 6.61852 22.6975 7.76947 22.5173C8.0935 23.5195 8.48396 24.4571 8.93713 25.31C9.35725 26.1006 9.81914 26.7953 10.3147 27.3904C8.57971 26.7352 6.98836 25.7129 5.63766 24.3623ZM14.1202 28.0145C12.7837 27.6402 11.5195 26.4198 10.4911 24.4843C10.1314 23.8075 9.81545 23.069 9.5448 22.282C10.9938 22.1225 12.5357 22.0282 14.1202 22.0061V28.0145ZM14.1202 20.2463C12.363 20.2703 10.6504 20.3806 9.04652 20.569C8.69273 19.1064 8.47986 17.5234 8.42144 15.8798H14.1202V20.2463H14.1202ZM14.1202 14.1202H8.41811C8.47149 12.4307 8.68775 10.8035 9.05256 9.30369C10.6462 9.50291 12.3553 9.62408 14.1202 9.65877V14.1202ZM14.1202 7.89891C12.5296 7.86686 10.9911 7.76314 9.55231 7.59393C9.82131 6.8151 10.1348 6.08408 10.4911 5.41336C11.5195 3.47789 12.7837 2.2575 14.1202 1.88314V7.89891ZM26.4092 8.27227C27.4565 10.0414 28.0748 12.0339 28.2109 14.1202H23.3425C23.2904 12.3715 23.0739 10.6778 22.7067 9.10178C24.0622 8.88287 25.3116 8.60437 26.4092 8.27227ZM24.3623 5.63766C24.7128 5.98849 25.0436 6.35838 25.3533 6.74566C24.4116 7.00283 23.3628 7.22109 22.2359 7.39676C21.9108 6.38848 21.5186 5.44529 21.0629 4.58771C20.6774 3.86221 20.2567 3.21715 19.8072 2.65594C21.4948 3.3126 23.0433 4.31865 24.3623 5.63766ZM15.8798 15.8798H21.5786C21.5198 17.5362 21.304 19.1312 20.9452 20.6032C19.3518 20.4051 17.6435 20.285 15.8798 20.2513V15.8798ZM15.8798 14.1202V9.66463C17.6379 9.64154 19.3519 9.53215 20.9573 9.34447C21.3162 10.8329 21.529 12.446 21.5819 14.1202H15.8798ZM15.8797 1.88314H15.8798C17.2162 2.2575 18.4804 3.47789 19.5088 5.41336C19.8708 6.09463 20.1886 6.83824 20.4604 7.63102C19.0095 7.78992 17.4658 7.8835 15.8797 7.90488V1.88314ZM15.8798 28.0145V22.0112C17.4689 22.0423 19.0062 22.1451 20.4445 22.3133C20.1762 23.0886 19.8638 23.8164 19.5089 24.4843C18.4805 26.4198 17.2162 27.6402 15.8798 28.0145ZM24.3623 24.3623C23.0116 25.713 21.4203 26.7352 19.6853 27.3904C20.1808 26.7953 20.6427 26.1006 21.0628 25.31C21.5093 24.4697 21.8947 23.5471 22.2159 22.5616C23.3565 22.7499 24.4116 22.9827 25.3516 23.2565C25.0423 23.643 24.7121 24.0122 24.3623 24.3623ZM26.4027 21.7388C25.3108 21.3878 24.0589 21.0924 22.6922 20.8593C23.0611 19.296 23.2809 17.6156 23.3391 15.8798H28.211C28.0746 17.9704 27.454 19.9669 26.4027 21.7388Z" fill="#3D32CF"/>
</g>
<defs>
<clipPath id="clip0_75_34">
<rect width="30" height="30" fill="white"/>
</clipPath>
</defs>
</svg>
