<svg width="25" height="25" viewBox="0 0 25 25" fill="none" xmlns="http://www.w3.org/2000/svg">
<path d="M1.1726 7.20952C1.00098 7.57636 0.847398 7.95137 0.712402 8.3332H2.77793L1.1726 7.20952ZM8.33339 0.712158C6.51194 1.35604 4.88451 2.40985 3.56161 3.76308L8.33339 6.94426V0.712158ZM21.4385 3.76314C20.1156 2.40985 18.4882 1.35604 16.6667 0.712224V6.94439L21.4385 3.76314ZM23.8275 17.7902C23.9992 17.4233 24.1527 17.0483 24.2877 16.6665H22.2222L23.8275 17.7902ZM24.2877 8.3332C24.1528 7.95136 23.9992 7.57635 23.8275 7.20952L22.2222 8.3332H24.2877ZM3.56161 21.2365C4.88451 22.5898 6.51194 23.6437 8.33339 24.2875V18.0553L3.56161 21.2365ZM0.712402 16.6665C0.847375 17.0483 1.00096 17.4233 1.1726 17.7902L2.77793 16.6665H0.712402ZM16.6667 24.2875C18.4881 23.6437 20.1156 22.5898 21.4385 21.2366L16.6667 18.0554V24.2875Z" fill="#0053B5"/>
<path d="M8.33358 6.94451L3.5618 3.76333C3.28972 4.04161 3.03071 4.33239 2.78561 4.63471L8.33364 8.33339H4.8614L1.72502 6.16207C1.52444 6.50233 1.34015 6.85194 1.17278 7.2097L2.77811 8.33339H0.712586C0.551696 8.78814 0.417455 9.25189 0.310547 9.72227H8.33358V15.2778H0.310547C0.417425 15.7482 0.551666 16.2119 0.712586 16.6667H2.77811L1.17278 17.7904C1.34017 18.1481 1.52445 18.4977 1.72502 18.838L4.8614 16.6667H8.33364L2.78561 20.3654C3.03071 20.6677 3.28972 20.9584 3.5618 21.2367L8.33358 18.0555V24.2877C8.78833 24.4486 9.25208 24.5828 9.72246 24.6898V0.310368C9.25207 0.417246 8.78832 0.551488 8.33358 0.712408V6.94451ZM16.6669 9.72227H24.6899C24.583 9.25188 24.4488 8.78813 24.2879 8.33339H22.2223L23.8277 7.2097C23.6603 6.85195 23.476 6.50234 23.2754 6.16207L20.139 8.33339H16.6668L22.2148 4.63471C21.9697 4.33239 21.7107 4.04161 21.4386 3.76333L16.6669 6.94451V0.712342C16.2121 0.551452 15.7484 0.417211 15.278 0.310303V24.6897C15.7484 24.5828 16.2121 24.4486 16.6669 24.2876V18.0555L21.4386 21.2367C21.7107 20.9584 21.9697 20.6676 22.2148 20.3653L16.6668 16.6666H20.139L23.2754 18.8379C23.476 18.4977 23.6603 18.1481 23.8277 17.7903L22.2223 16.6666H24.2879C24.4487 16.2119 24.583 15.7481 24.6899 15.2777H16.6669V9.72227Z" fill="white"/>
<path d="M0.310307 15.2777H8.33333V9.72221H0.310307C-0.0910084 11.4908 -0.115679 13.4006 0.310307 15.2777ZM24.6897 9.72221H16.6667V15.2777H24.6897C25.091 13.5092 25.1156 11.5994 24.6897 9.72221ZM9.72222 0.310307V24.6897C11.4908 25.091 13.4006 25.1157 15.2777 24.6897V0.310307C13.5093 -0.0910083 11.5994 -0.115679 9.72222 0.310307ZM23.2752 6.16201C22.96 5.62732 22.6055 5.11679 22.2147 4.63465L16.6666 8.33333H20.1389L23.2752 6.16201ZM1.72478 6.16201L4.86116 8.33333H8.3334L2.78537 4.63465C2.39449 5.11679 2.03999 5.62732 1.72478 6.16201ZM1.72478 18.8379C2.03999 19.3726 2.39449 19.8831 2.78537 20.3653L8.3334 16.6666H4.86116L1.72478 18.8379ZM16.6666 16.6666L22.2147 20.3653C22.6055 19.8831 22.96 19.3726 23.2752 18.8379L20.1389 16.6666H16.6666Z" fill="#D80027"/>
</svg>
