<svg width="25" height="25" viewBox="0 0 25 25" fill="none" xmlns="http://www.w3.org/2000/svg">
<path d="M12.4961 5.29359e-07C9.18316 0.000964727 6.00615 1.31804 3.66352 3.6617C1.32089 6.00535 0.00438175 9.18375 0.00341797 12.4982C0.0034179 14.1402 0.326766 15.7662 0.954994 17.2833C1.58322 18.8003 2.50402 20.1786 3.6648 21.3396C4.82558 22.5005 6.2036 23.4213 7.72015 24.0494C9.2367 24.6775 10.8621 25.0005 12.5034 25C14.1445 25 15.7694 24.6766 17.2856 24.0484C18.8017 23.4201 20.1793 22.4992 21.3397 21.3383C22.5001 20.1774 23.4205 18.7992 24.0485 17.2824C24.6766 15.7656 24.9998 14.1399 24.9998 12.4982C24.9993 10.8564 24.6756 9.23083 24.0472 7.71422C23.4187 6.19761 22.4978 4.81969 21.3371 3.65913C20.1764 2.49856 18.7985 1.57809 17.2822 0.950253C15.7659 0.322419 14.1372 -0.000477213 12.4961 5.29359e-07Z" fill="#D40000"/>
<path d="M0.723531 8.33689C0.248198 9.67287 0.00353018 11.08 0 12.4981C0.00387207 13.9188 0.249783 15.3285 0.727167 16.6666H24.2728C24.7502 15.3285 24.9961 13.9188 25 12.4981C24.9992 11.0792 24.757 9.67081 24.2837 8.33325L0.723531 8.33689Z" fill="#FFCC00"/>
<path d="M6.40625 11.1414H10.5257L10.5293 14.124C10.5293 15.2589 9.54761 16.1792 8.32961 16.1792C7.19523 16.1064 6.33353 15.1862 6.41352 14.124L6.40625 11.1414Z" fill="white"/>
<path d="M6.40625 11.1414H8.46777V13.2511H6.40625V11.1414Z" fill="#D40000"/>
<path d="M8.46777 11.1414H10.5257V13.2511H8.46777V11.1414Z" fill="white"/>
<path d="M6.41016 13.2549V14.3934C6.43878 14.7152 6.54807 15.0245 6.72793 15.2929C6.90778 15.5612 7.15239 15.7798 7.4391 15.9284C7.72649 15.7802 7.97182 15.5618 8.15233 15.2935C8.33284 15.0251 8.44269 14.7155 8.47167 14.3934L8.4644 13.2549H6.41016ZM8.4644 13.2549L8.47167 14.3934C8.4992 14.7039 8.602 15.003 8.77116 15.2648C8.94032 15.5265 9.17074 15.7431 9.44244 15.8957C9.75946 15.7302 10.0272 15.484 10.2188 15.1819C10.4103 14.8799 10.5187 14.5326 10.5332 14.1751L10.5259 13.2549H8.4644Z" fill="#D40000"/>
<path d="M6.8028 11.5818H8.07534C8.11762 11.583 8.1579 11.6057 8.18773 11.645C8.21755 11.6843 8.23461 11.7373 8.23532 11.7928V12.6003C8.23568 12.6288 8.23172 12.6571 8.22367 12.6835C8.21561 12.71 8.20362 12.7341 8.18839 12.7544C8.17316 12.7747 8.155 12.7908 8.13496 12.8018C8.11493 12.8128 8.09342 12.8185 8.0717 12.8185H6.79916C6.75592 12.8173 6.71481 12.7936 6.68483 12.7527C6.65485 12.7118 6.63844 12.657 6.63918 12.6003V11.7928C6.63991 11.7365 6.65747 11.6828 6.68807 11.6434C6.71868 11.6039 6.75988 11.5818 6.8028 11.5818Z" fill="#FFCC00"/>
<path d="M7.10793 12.8149H7.76601V12.3384C7.76601 12.1565 7.60967 12.011 7.41334 12.011C7.23154 12.0219 7.09702 12.1674 7.10793 12.3384V12.8149ZM3.91566 15.663H5.65723C5.6878 15.6639 5.71686 15.6764 5.73849 15.6981C5.76011 15.7197 5.77266 15.7488 5.77357 15.7794V16.0885C5.77266 16.1191 5.76011 16.1482 5.73849 16.1698C5.71686 16.1915 5.6878 16.204 5.65723 16.2049H3.91566C3.88509 16.204 3.85603 16.1915 3.8344 16.1698C3.81278 16.1482 3.80023 16.1191 3.79932 16.0885V15.7794C3.80023 15.7488 3.81278 15.7197 3.8344 15.6981C3.85603 15.6764 3.88509 15.6639 3.91566 15.663Z" fill="#0044AA"/>
<path d="M4.21406 15.3064H5.35934C5.38827 15.3064 5.41602 15.3179 5.43647 15.3384C5.45693 15.3588 5.46842 15.3866 5.46842 15.4155V15.6629H4.10498V15.4155C4.10498 15.3866 4.11647 15.3588 4.13693 15.3384C4.15738 15.3179 4.18513 15.3064 4.21406 15.3064Z" fill="#FFE680"/>
<path d="M5.28648 11.145H4.28662V15.3062H5.28648V11.145Z" fill="white"/>
<path d="M4.77382 10.4139C4.64362 10.4168 4.5197 10.4706 4.42864 10.5637C4.33757 10.6568 4.28659 10.782 4.28662 10.9123V11.1451H5.28648V10.9123C5.25739 10.5122 4.98107 10.3958 4.77382 10.4139ZM9.3986 11.4688H9.5913C9.82036 11.4688 10.0022 11.6398 10.0022 11.8507V12.5418C10.0022 12.7564 9.82036 12.9274 9.5913 12.9274H9.3986C9.17318 12.9274 8.98776 12.7564 8.98776 12.5455V11.8544C8.98776 11.6361 9.16955 11.4688 9.3986 11.4688ZM6.8717 10.7413H10.1549L10.6457 8.81348L9.5804 9.63917L8.48601 8.81348L7.40253 9.63917L6.2936 8.81348L6.8717 10.7413Z" fill="#D40000"/>
<path d="M8.92219 13.4365H10.1656V14.4586C10.1656 14.8478 9.8675 15.1643 9.50028 15.1643C9.15851 15.1425 8.90037 14.826 8.92219 14.4586V13.4365Z" fill="#FFCC00"/>
<path d="M11.2816 15.6628H13.0195C13.0507 15.6628 13.0807 15.675 13.1031 15.6967C13.1255 15.7184 13.1386 15.748 13.1395 15.7792V16.0884C13.1386 16.1196 13.1255 16.1492 13.1031 16.171C13.0807 16.1927 13.0507 16.2048 13.0195 16.2048H11.2816C11.2504 16.2048 11.2204 16.1927 11.198 16.171C11.1756 16.1492 11.1626 16.1196 11.1616 16.0884V15.7792C11.1626 15.748 11.1756 15.7184 11.198 15.6967C11.2204 15.675 11.2504 15.6628 11.2816 15.6628Z" fill="#0044AA"/>
<path d="M11.5764 15.3064H12.7216C12.7506 15.3064 12.7783 15.3179 12.7988 15.3384C12.8192 15.3588 12.8307 15.3866 12.8307 15.4155V15.6629H11.4673V15.4155C11.4673 15.3866 11.4788 15.3588 11.4992 15.3384C11.5197 15.3179 11.5474 15.3064 11.5764 15.3064Z" fill="#FFE680"/>
<path d="M12.6488 11.145H11.6489V15.3062H12.6488V11.145Z" fill="white"/>
<path d="M6.40625 13.2549L6.41352 14.1242V14.3934C6.43534 14.6953 6.52987 14.9754 6.68621 15.2264V13.2549H6.40625ZM8.18781 13.2549V15.2373C8.33848 14.9998 8.43299 14.7311 8.46413 14.4516V13.2549H8.18781ZM7.59517 13.2549V15.8375C7.69357 15.7717 7.78603 15.6974 7.87149 15.6156V13.2549H7.59517ZM7.00253 13.2549V15.6083C7.08615 15.6883 7.18068 15.7611 7.27885 15.8265V13.2549H7.00253Z" fill="#FFE680"/>
<path d="M7.89737 12.9529H9.0463V13.7859C9.0463 14.1023 8.77361 14.3606 8.43184 14.3606C8.11552 14.3387 7.87556 14.0841 7.89737 13.7859V12.9529Z" fill="#D40000"/>
<path d="M8.01709 13.1021H8.92241V13.7568C8.92241 14.0078 8.70426 14.2078 8.44248 14.2078C8.18797 14.1933 8.00255 13.9896 8.02073 13.7568L8.01709 13.1021Z" fill="#0044AA"/>
<path d="M12.1325 10.4139C12.0029 10.4177 11.8799 10.4719 11.7896 10.5649C11.6993 10.658 11.6489 10.7826 11.6489 10.9122V11.145H12.6488V10.9122C12.6197 10.5121 12.3397 10.3957 12.1325 10.4139Z" fill="#D40000"/>
</svg>
