<svg width="25" height="25" viewBox="0 0 25 25" fill="none" xmlns="http://www.w3.org/2000/svg">
<g clip-path="url(#clip0_18_799)">
<path d="M14.711 12.5002L24.5419 2.66929C25.1527 2.05902 25.1527 1.06884 24.5419 0.458578C23.9311 -0.152208 22.942 -0.152208 22.3312 0.458578L12.5003 10.2895L2.6688 0.458578C2.05801 -0.152208 1.06888 -0.152208 0.458089 0.458578C-0.152696 1.06884 -0.152696 2.05902 0.458089 2.66929L10.2895 12.5002L0.458089 22.3312C-0.152696 22.9414 -0.152696 23.9316 0.458089 24.5419C0.763482 24.8468 1.16372 24.9994 1.56344 24.9994C1.96317 24.9994 2.36341 24.8468 2.6688 24.5414L12.5003 14.7104L22.3312 24.5414C22.6366 24.8468 23.0368 24.9994 23.4366 24.9994C23.8363 24.9994 24.2365 24.8468 24.5419 24.5414C25.1527 23.9311 25.1527 22.9409 24.5419 22.3306L14.711 12.5002Z" fill="black"/>
</g>
<defs>
<clipPath id="clip0_18_799">
<rect width="25" height="25" fill="white"/>
</clipPath>
</defs>
</svg>
