<svg width="13" height="24" viewBox="0 0 13 24" fill="none" xmlns="http://www.w3.org/2000/svg">
<path d="M7.53546 21.9056L7.54333 3.61817L10.9685 7.03549C11.0654 7.13483 11.1811 7.21385 11.3088 7.26793C11.4366 7.32201 11.5739 7.35007 11.7126 7.35045C11.918 7.34756 12.118 7.2841 12.2874 7.16804C12.4569 7.05198 12.5883 6.88848 12.6653 6.69804C12.7422 6.50759 12.7612 6.29867 12.7199 6.09747C12.6786 5.89626 12.5788 5.71173 12.4331 5.56699L7.22837 0.354393C7.13147 0.257376 7.0164 0.180408 6.88974 0.127895C6.76307 0.0753822 6.6273 0.0483532 6.49018 0.0483532C6.35306 0.0483532 6.21729 0.0753822 6.09062 0.127895C5.96396 0.180408 5.84889 0.257376 5.75199 0.354393L0.547267 5.56699C-0.472418 6.55124 1.04727 8.05911 2.02365 7.03549L5.46065 3.59848L5.45278 21.9056C5.44403 22.0477 5.46448 22.1901 5.51286 22.3241C5.56124 22.458 5.63652 22.5806 5.73408 22.6844C5.83163 22.7881 5.94939 22.8708 6.0801 22.9273C6.21081 22.9838 6.35171 23.0129 6.49412 23.0129C6.63652 23.0129 6.77742 22.9838 6.90813 22.9273C7.03884 22.8708 7.1566 22.7881 7.25416 22.6844C7.35171 22.5806 7.427 22.458 7.47537 22.3241C7.52375 22.1901 7.5442 22.0477 7.53546 21.9056Z" fill="white"/>
</svg>
