<svg width="88" height="88" viewBox="0 0 88 88" fill="none" xmlns="http://www.w3.org/2000/svg">
<path d="M44 0.25C19.875 0.25 0.25 19.875 0.25 44C0.25 68.125 19.875 87.75 44 87.75C68.125 87.75 87.75 68.125 87.75 44C87.75 19.875 68.125 0.25 44 0.25ZM65.0875 30.4531L40.0875 58.5781C39.8076 58.9008 39.4629 59.1608 39.0757 59.3412C38.6885 59.5216 38.2677 59.6183 37.8406 59.625H37.75C37.3396 59.6251 36.9333 59.5443 36.5542 59.3871C36.1751 59.23 35.8306 58.9997 35.5406 58.7094L23.0406 46.2094C22.7422 45.9211 22.5041 45.5763 22.3403 45.195C22.1765 44.8138 22.0903 44.4037 22.0867 43.9888C22.0831 43.5738 22.1622 43.1623 22.3193 42.7783C22.4764 42.3942 22.7085 42.0453 23.0019 41.7519C23.2953 41.4585 23.6442 41.2264 24.0283 41.0693C24.4123 40.9122 24.8238 40.8331 25.2388 40.8367C25.6537 40.8403 26.0638 40.9265 26.445 41.0903C26.8263 41.2541 27.1711 41.4922 27.4594 41.7906L37.6156 51.9469L60.4125 26.2969C60.6854 25.9899 61.0161 25.7397 61.3857 25.5605C61.7553 25.3814 62.1566 25.2768 62.5666 25.2527C62.9766 25.2286 63.3874 25.2855 63.7754 25.4202C64.1634 25.5548 64.5212 25.7646 64.8281 26.0375C65.1351 26.3104 65.3853 26.6411 65.5645 27.0107C65.7436 27.3803 65.8482 27.7816 65.8723 28.1916C65.8964 28.6016 65.8395 29.0124 65.7048 29.4004C65.5702 29.7884 65.3604 30.1462 65.0875 30.4531Z" fill="#9E9E9E"/>
</svg>
