<svg width="30" height="30" viewBox="0 0 30 30" fill="none" xmlns="http://www.w3.org/2000/svg">
<path d="M29.1421 4.10138C28.7008 3.65929 27.9847 3.65852 27.5434 4.0995L13.9794 17.6277L9.08548 12.3125C8.66261 11.8535 7.94765 11.8237 7.48787 12.2466C7.02843 12.6694 6.99902 13.3847 7.42189 13.8442L13.1129 20.0247C13.216 20.1368 13.3407 20.2268 13.4795 20.2894C13.6183 20.3521 13.7683 20.386 13.9205 20.3891C13.9288 20.3895 13.9368 20.3895 13.9447 20.3895C14.2439 20.3894 14.5309 20.2708 14.7429 20.0597L29.1399 5.70046C29.5823 5.25954 29.5831 4.54347 29.1421 4.10138Z" fill="#3D32CF"/>
<path d="M28.8693 13.8693C28.2448 13.8693 27.7387 14.3754 27.7387 15C27.7387 22.0244 22.0244 27.7387 15 27.7387C7.97602 27.7387 2.26131 22.0244 2.26131 15C2.26131 7.97602 7.97602 2.26131 15 2.26131C15.6245 2.26131 16.1307 1.75518 16.1307 1.13068C16.1307 0.506133 15.6245 0 15 0C6.72891 0 0 6.72891 0 15C0 23.2707 6.72891 30 15 30C23.2707 30 30 23.2707 30 15C30 14.3755 29.4939 13.8693 28.8693 13.8693Z" fill="#3D32CF"/>
</svg>
