<svg width="25" height="25" viewBox="0 0 25 25" fill="none" xmlns="http://www.w3.org/2000/svg">
<path d="M0.777344 16.8479C2.54351 21.6079 7.12529 25.0001 12.4999 25.0001C17.8744 25.0001 22.4562 21.6079 24.2224 16.8479L12.4999 15.761L0.777344 16.8479Z" fill="#FFDA44"/>
<path d="M12.4999 0C7.12529 0 2.54351 3.39219 0.777344 8.1522L12.4999 9.23911L24.2224 8.15215C22.4562 3.39219 17.8744 0 12.4999 0Z" fill="black"/>
<path d="M0.77749 8.1521C0.275049 9.50625 0 10.9709 0 12.4999C0 14.0289 0.275049 15.4936 0.77749 16.8477H24.2226C24.725 15.4936 25 14.0289 25 12.4999C25 10.9709 24.725 9.50625 24.2225 8.1521H0.77749Z" fill="#D80027"/>
</svg>
