<svg width="25" height="25" viewBox="0 0 25 25" fill="none" xmlns="http://www.w3.org/2000/svg">
<path d="M0.682773 10.605C0.241109 9.41201 -0.0787164 8.19363 0.0177389 6.89909C0.078658 6.10207 0.378177 5.4218 0.961986 4.86338C1.59656 4.26434 2.1956 3.63484 2.82002 3.02565C3.63227 2.22355 4.65267 2.22863 5.46493 3.02565C5.96751 3.51808 6.46501 4.02066 6.96252 4.52325C7.4448 5.00552 7.93215 5.4878 8.41443 5.97515C9.26222 6.8331 9.2673 7.83319 8.4195 8.68606C7.81031 9.29525 7.2062 9.90952 6.58685 10.5086C6.4244 10.6659 6.40917 10.7979 6.49547 10.9959C6.9016 11.9706 7.49049 12.8387 8.15044 13.651C9.48051 15.2856 10.9832 16.7375 12.7752 17.8595C13.161 18.0981 13.5824 18.2757 13.9835 18.494C14.1916 18.6057 14.3287 18.5702 14.4962 18.3976C15.1003 17.7732 15.7196 17.1589 16.339 16.5446C17.1512 15.7425 18.1666 15.7374 18.9788 16.5446C19.9738 17.5295 20.9638 18.5194 21.9486 19.5144C22.7761 20.347 22.771 21.3674 21.9385 22.205C21.375 22.7736 20.781 23.3117 20.253 23.9057C19.4814 24.7687 18.5067 25.053 17.4 24.9921C15.7856 24.9058 14.2982 24.3677 12.8615 23.6722C9.67342 22.1238 6.95237 19.9764 4.67298 17.2655C2.98755 15.2552 1.59656 13.0722 0.682773 10.605ZM24.9997 12.4224C24.9997 5.5741 19.4256 0 12.5772 0V2.36569C18.1209 2.36569 22.634 6.87879 22.634 12.4224H24.9997ZM18.197 12.4224H20.5627C20.5627 8.02102 16.9786 4.43694 12.5772 4.43694V6.80264C14.0799 6.80264 15.4912 7.38645 16.5522 8.44746C17.6132 9.50846 18.197 10.9198 18.197 12.4224Z" fill="#3D32CF"/>
</svg>
