<svg width="25" height="25" viewBox="0 0 25 25" fill="none" xmlns="http://www.w3.org/2000/svg">
<path d="M12.5 25C19.4036 25 25 19.4036 25 12.5C25 5.59644 19.4036 0 12.5 0C5.59644 0 0 5.59644 0 12.5C0 19.4036 5.59644 25 12.5 25Z" fill="#F0F0F0"/>
<path d="M24.2225 16.8477C24.725 15.4936 25 14.0289 25 12.4999C25 10.9709 24.725 9.50625 24.2225 8.1521H0.77749C0.275049 9.50625 0 10.9709 0 12.4999C0 14.0289 0.275049 15.4936 0.77749 16.8477L12.5 17.9347L24.2225 16.8477Z" fill="#0052B4"/>
<path d="M12.4999 25.0001C17.8744 25.0001 22.4562 21.6079 24.2224 16.8479H0.777344C2.54351 21.6079 7.12529 25.0001 12.4999 25.0001Z" fill="#D80027"/>
</svg>
