<svg width="80" height="80" viewBox="0 0 80 80" fill="none" xmlns="http://www.w3.org/2000/svg">
<g clip-path="url(#clip0_32_184)">
<path d="M34.5313 6.40625H11.0938C8.50906 6.40625 6.40625 8.50906 6.40625 11.0938C6.40625 13.6784 8.50906 15.7812 11.0938 15.7812H34.5313C37.1159 15.7812 39.2188 13.6784 39.2188 11.0938C39.2188 8.50906 37.1159 6.40625 34.5313 6.40625ZM47.0313 6.40625C44.4466 6.40625 42.3438 8.50906 42.3438 11.0938C42.3438 13.6784 44.4466 15.7812 47.0313 15.7812C49.6159 15.7812 51.7188 13.6784 51.7188 11.0938C51.7188 8.50906 49.6159 6.40625 47.0313 6.40625ZM47.0313 12.6562C46.1697 12.6562 45.4688 11.9553 45.4688 11.0938C45.4688 10.2322 46.1697 9.53125 47.0313 9.53125C47.8928 9.53125 48.5938 10.2322 48.5938 11.0938C48.5938 11.9553 47.8928 12.6562 47.0313 12.6562ZM59.5313 6.40625C56.9466 6.40625 54.8438 8.50906 54.8438 11.0938C54.8438 13.6784 56.9466 15.7812 59.5313 15.7812C62.1159 15.7812 64.2188 13.6784 64.2188 11.0938C64.2188 8.50906 62.1159 6.40625 59.5313 6.40625ZM59.5313 12.6562C58.6697 12.6562 57.9688 11.9553 57.9688 11.0938C57.9688 10.2322 58.6697 9.53125 59.5313 9.53125C60.3928 9.53125 61.0938 10.2322 61.0938 11.0938C61.0938 11.9553 60.3928 12.6562 59.5313 12.6562Z" fill="#3D32CF"/>
<path d="M78.2812 56.4062H76.7188V50.1562C76.7188 45.802 74.1605 42.035 70.4688 40.2763V1.71875C70.4688 0.855938 69.7691 0.15625 68.9062 0.15625H1.71875C0.855938 0.15625 0.15625 0.855938 0.15625 1.71875V68.9062C0.15625 69.7691 0.855938 70.4688 1.71875 70.4688H51.7188V78.2812C51.7188 79.1441 52.4184 79.8438 53.2812 79.8438H78.2812C79.1441 79.8438 79.8438 79.1441 79.8438 78.2812V57.9688C79.8438 57.1059 79.1441 56.4062 78.2812 56.4062ZM3.28125 3.28125H67.3438V18.9062H3.28125V3.28125ZM67.3438 22.0312V39.3322C66.3076 39.1811 65.2549 39.1811 64.2188 39.3322V22.0312H67.3438ZM51.7188 67.3438H3.28125V22.0312H6.40625V62.6562C6.40625 63.5191 7.10594 64.2188 7.96875 64.2188H51.7188V67.3438ZM67.3438 69.6875C67.3438 70.5503 66.6441 71.25 65.7812 71.25C64.9184 71.25 64.2188 70.5503 64.2188 69.6875V66.5625C64.2188 65.6997 64.9184 65 65.7812 65C66.6441 65 67.3438 65.6997 67.3438 66.5625V69.6875ZM73.5938 56.4062H53.2812C52.4184 56.4062 51.7188 57.1059 51.7188 57.9688V61.0938H9.53125V22.0312H61.0938V40.2763C57.402 42.0348 54.8438 45.802 54.8438 50.1562C54.8438 51.0191 55.5434 51.7188 56.4062 51.7188C57.2691 51.7188 57.9688 51.0191 57.9688 50.1562C57.9688 45.8484 61.4734 42.3438 65.7812 42.3438C70.0891 42.3438 73.5938 45.8484 73.5938 50.1562V56.4062Z" fill="#3D32CF"/>
<path d="M57.9688 37.6562V26.7188C57.9688 25.8559 57.2691 25.1562 56.4062 25.1562H14.2188C13.3559 25.1562 12.6562 25.8559 12.6562 26.7188V37.6562C12.6562 38.5191 13.3559 39.2188 14.2188 39.2188H56.4062C57.2691 39.2188 57.9688 38.5191 57.9688 37.6562ZM50.1562 42.3438H14.2188C13.3559 42.3438 12.6562 43.0434 12.6562 43.9062C12.6562 44.7691 13.3559 45.4688 14.2188 45.4688H50.1562C51.0191 45.4688 51.7188 44.7691 51.7188 43.9062C51.7188 43.0434 51.0191 42.3438 50.1562 42.3438ZM50.1562 48.5938H14.2188C13.3559 48.5938 12.6562 49.2934 12.6562 50.1562C12.6562 51.0191 13.3559 51.7188 14.2188 51.7188H50.1562C51.0191 51.7188 51.7188 51.0191 51.7188 50.1562C51.7188 49.2934 51.0191 48.5938 50.1562 48.5938ZM36.0938 54.8438H14.2188C13.3559 54.8438 12.6562 55.5434 12.6562 56.4062C12.6562 57.2691 13.3559 57.9688 14.2188 57.9688H36.0938C36.9566 57.9688 37.6562 57.2691 37.6562 56.4062C37.6562 55.5434 36.9566 54.8438 36.0938 54.8438Z" fill="#3D32CF"/>
</g>
<defs>
<clipPath id="clip0_32_184">
<rect width="80" height="80" fill="white"/>
</clipPath>
</defs>
</svg>
