<svg width="80" height="80" viewBox="0 0 80 80" fill="none" xmlns="http://www.w3.org/2000/svg">
<g clip-path="url(#clip0_32_206)">
<path d="M0 5.51724H16.5517V19.3103H0V5.51724ZM16.5517 1.37931C16.5517 0.618276 15.9334 0 15.1724 0H1.37931C0.618276 0 0 0.618276 0 1.37931V2.75862H16.5517V1.37931ZM78.6207 0H59.3103C58.5493 0 57.931 0.618276 57.931 1.37931V11.0345H80V1.37931C80 0.619655 79.3817 0 78.6207 0ZM57.931 15.1724C57.931 15.9334 58.5493 16.5517 59.3103 16.5517H78.6207C79.3817 16.5517 80 15.9334 80 15.1724V13.7931H57.931V15.1724ZM0 78.6207C0 79.3817 0.618276 80 1.37931 80H23.4483C24.2093 80 24.8276 79.3817 24.8276 78.6207V77.2414H0V78.6207ZM63.4483 80H80V71.7241H63.4483V80ZM74.4828 74.4828H77.2414V77.2414H74.4828V74.4828ZM66.2069 74.4828H71.7241V77.2414H66.2069V74.4828ZM73.1034 44.1379H63.3217C63.1591 43.1659 62.8221 42.2314 62.3269 41.3793H70.3448V22.069H74.4828V19.3103H63.4483V22.069H67.5862V38.6207H59.6802C58.7116 37.9876 57.6191 37.5283 56.4264 37.3466C56.5005 36.8621 56.5517 36.3685 56.5517 35.8621C56.5517 30.5293 52.2293 26.2069 46.8966 26.2069C43.0233 26.2069 39.6936 28.4928 38.1547 31.7834C36.6845 30.8776 34.9576 30.3448 33.1034 30.3448C28.731 30.3448 25.05 33.255 23.8603 37.2414H9.65517V30.3448H15.1724C15.9334 30.3448 16.5517 29.7266 16.5517 28.9655V22.069H0V28.9655C0 29.7266 0.618276 30.3448 1.37931 30.3448H6.89655V40H18.6631C17.9519 40.7948 17.4071 41.7322 17.0428 42.7586H9.65517V60.6897H4.13793C3.3769 60.6897 2.75862 61.3079 2.75862 62.069V74.4828H22.069V62.069C22.069 61.3079 21.4507 60.6897 20.6897 60.6897H12.4138V45.5172H16.5517C16.5517 50.0883 20.2566 53.7931 24.8276 53.7931H55.1724C59.2719 53.7931 62.6664 50.8095 63.3243 46.8966H70.3448V60.6897H63.4483V68.9655H80V60.6897H73.1034V44.1379ZM5.51724 24.8276H11.0345V27.5862H5.51724V24.8276ZM68.9655 66.2069H66.2069V63.4483H68.9655V66.2069ZM77.2414 66.2069H71.7241V63.4483H77.2414V66.2069Z" fill="#3D32CF"/>
</g>
<defs>
<clipPath id="clip0_32_206">
<rect width="80" height="80" fill="white"/>
</clipPath>
</defs>
</svg>
