<svg width="80" height="80" viewBox="0 0 80 80" fill="none" xmlns="http://www.w3.org/2000/svg">
<path d="M60.2563 55.9892L60.2563 36.4079C60.2561 36.1672 60.1604 35.9364 59.9901 35.7662C59.8199 35.5959 59.5891 35.5002 59.3484 35.4999L5.97307 35.4999C5.73231 35.5001 5.50147 35.5959 5.33121 35.7661C5.16095 35.9363 5.06519 36.1672 5.06494 36.4079L5.06494 55.989C5.06519 56.2298 5.16095 56.4606 5.33121 56.6308C5.50147 56.801 5.73231 56.8968 5.97307 56.897L59.3485 56.897C59.5892 56.8967 59.82 56.801 59.9902 56.6308C60.1604 56.4606 60.2561 56.2299 60.2563 55.9892ZM24.8488 52.2587C24.9626 52.4481 25.0241 52.6644 25.0271 52.8854C25.03 53.1064 24.9743 53.3242 24.8656 53.5166C24.7568 53.709 24.599 53.8691 24.4082 53.9806C24.2174 54.0921 24.0005 54.1511 23.7795 54.1513C23.5637 54.1516 23.3515 54.0959 23.1636 53.9897C22.9758 53.8835 22.8187 53.7304 22.7076 53.5454L19.7523 48.6264L16.7967 53.5453C16.7122 53.6859 16.6009 53.8085 16.469 53.9061C16.3372 54.0037 16.1874 54.0743 16.0282 54.114C15.8691 54.1537 15.7037 54.1616 15.5414 54.1374C15.3792 54.1131 15.2233 54.0571 15.0828 53.9726C14.7988 53.8019 14.5943 53.5255 14.5141 53.2041C14.434 52.8826 14.4848 52.5425 14.6554 52.2585L18.2949 46.2006L14.6554 40.1426C14.4848 39.8586 14.4341 39.5185 14.5142 39.1971C14.5943 38.8757 14.7988 38.5992 15.0828 38.4285C15.3667 38.258 15.7068 38.2072 16.0282 38.2874C16.3497 38.3675 16.6261 38.572 16.7968 38.8559L19.7521 43.7749L22.7074 38.8559C22.8782 38.5721 23.1547 38.3677 23.4761 38.2876C23.7974 38.2074 24.1375 38.2581 24.4215 38.4285C24.7055 38.5992 24.91 38.8756 24.9901 39.1971C25.0703 39.5185 25.0195 39.8586 24.8488 40.1426L21.2093 46.2006L24.8488 52.2587ZM37.4067 54.151L29.3545 54.151C29.0232 54.151 28.7055 54.0194 28.4713 53.7852C28.237 53.5509 28.1054 53.2332 28.1054 52.902L28.1054 39.4996C28.1054 39.1684 28.237 38.8507 28.4713 38.6164C28.7055 38.3822 29.0232 38.2506 29.3545 38.2506C29.6857 38.2506 30.0035 38.3822 30.2377 38.6164C30.4719 38.8507 30.6035 39.1684 30.6035 39.4996L30.6035 51.6529L37.4067 51.6529C37.7379 51.6529 38.0556 51.7845 38.2899 52.0188C38.5241 52.253 38.6557 52.5707 38.6557 52.902C38.6557 53.2332 38.5241 53.5509 38.2899 53.7852C38.0556 54.0194 37.7379 54.151 37.4067 54.151ZM46.2471 44.9517C48.7823 44.9517 50.8448 47.014 50.8448 49.5492C50.8448 52.0865 48.7823 54.151 46.2471 54.151L44.254 54.151C42.0706 54.151 40.2943 52.3748 40.2943 50.1913C40.2943 49.8601 40.4259 49.5424 40.6602 49.3081C40.8944 49.0739 41.2121 48.9423 41.5434 48.9423C41.8747 48.9423 42.1924 49.0739 42.4266 49.3081C42.6608 49.5424 42.7924 49.8601 42.7924 50.1913C42.7924 50.9835 43.4617 51.6529 44.254 51.6529L46.2471 51.6529C47.4048 51.6529 48.3467 50.7092 48.3467 49.5492C48.3467 48.3917 47.4049 47.4498 46.2471 47.4498C45.1895 47.4498 43.6413 47.3729 42.4142 46.7092C41.4473 46.186 40.2945 45.0917 40.2945 42.8479C40.2945 40.3129 42.359 38.2504 44.8964 38.2504L46.8895 38.2504C49.0704 38.2504 50.8448 40.0246 50.8448 42.2056C50.8448 42.5368 50.7132 42.8545 50.4789 43.0888C50.2447 43.323 49.927 43.4546 49.5957 43.4546C49.2645 43.4546 48.9467 43.323 48.7125 43.0888C48.4783 42.8545 48.3467 42.5368 48.3467 42.2056C48.3467 41.402 47.6929 40.7485 46.8895 40.7485L44.8964 40.7485C43.7364 40.7485 42.7926 41.6903 42.7926 42.8479C42.7926 43.9988 43.0524 44.9517 46.2471 44.9517ZM74.9346 25.6717L74.9346 68.9221C74.9346 73.6528 71.086 77.5014 66.3554 77.5014L26.7721 77.5014C22.0417 77.5014 18.1931 73.6528 18.1931 68.9221L18.1931 59.3951L59.3485 59.3951C61.2267 59.3951 62.7546 57.8671 62.7546 55.989L62.7546 36.4079C62.7546 34.5298 61.2267 33.0018 59.3485 33.0018L18.1931 33.0018L18.1931 11.0778C18.1931 6.34713 22.0417 2.49854 26.7721 2.49854L51.7657 2.49854L51.7657 21.9203C51.7657 23.9888 53.4467 25.6718 55.5128 25.6718L74.9346 25.6718V25.6717ZM54.264 21.9203L54.264 4.26525L73.1685 23.1735L55.5129 23.1735C54.8242 23.1735 54.264 22.6112 54.264 21.9203Z" fill="#3D32CF"/>
</svg>
