<svg width="80" height="80" viewBox="0 0 80 80" fill="none" xmlns="http://www.w3.org/2000/svg">
<path d="M20 14.6667H54.6667V18.6667H20V14.6667ZM25.3333 29.3333H33.3333V32H25.3333V29.3333ZM57.792 38.4667C57.5053 38.1853 57.348 37.8054 57.348 37.4C57.3476 37.2018 57.3864 37.0056 57.4622 36.8225C57.5379 36.6395 57.6491 36.4732 57.7894 36.3333L58.8214 35.3012L49.9987 32.6545L51.6867 38.2825L52.6453 41.4772L53.608 40.5145C53.7694 40.3527 53.9613 40.2245 54.1725 40.1371C54.3837 40.0497 54.61 40.0048 54.8386 40.0051C55.0672 40.0047 55.2936 40.0496 55.5047 40.137C55.7159 40.2244 55.9078 40.3527 56.0692 40.5145L58.9998 43.4465L60.8852 41.5598L57.792 38.4667Z" fill="#3D32CF"/>
<path d="M20.0014 21.3333V37.3333H48.6173C48.2053 35.9586 47.792 34.5826 47.38 33.2079C47.2253 32.6947 47.072 32.1812 46.9173 31.6693C46.7214 31.0147 46.4987 30.3426 47.028 29.7667C47.0413 29.752 47.0547 29.7387 47.068 29.7253C47.7373 29.052 48.6533 29.4679 49.4294 29.7C50.2908 29.9586 51.1508 30.2159 52.0108 30.4747C52.8961 30.74 53.7828 31.0067 54.6681 31.272V21.3334L20.0014 21.3333ZM36 33.3333C35.9999 33.6868 35.8594 34.0259 35.6094 34.2759C35.3593 34.5259 35.0203 34.6664 34.6667 34.6665H24C23.6464 34.6664 23.3074 34.5259 23.0574 34.2759C22.8074 34.0259 22.6668 33.6868 22.6667 33.3333V28C22.6668 27.6464 22.8074 27.3073 23.0574 27.0573C23.3074 26.8073 23.6464 26.6668 24 26.6667H34.6667C35.0203 26.6668 35.3593 26.8073 35.6094 27.0573C35.8594 27.3073 35.9999 27.6464 36 28V33.3333ZM73.3333 52H0V57.332C0 60.2734 2.39328 62.6667 5.33469 62.6667H31.9359C31.62 67.9547 29.4186 70.6667 25.3333 70.6667H22.6666C20.4612 70.6667 18.6666 72.4614 18.6666 74.6667C18.6666 76.872 20.4612 78.6667 22.6666 78.6667H57.3333C59.5386 78.6667 61.3333 76.872 61.3333 74.6667C61.3333 72.4614 59.5386 70.6667 57.3333 70.6667H54.6666C50.5812 70.6667 48.3813 67.9547 48.0639 62.6667H74.6653C77.6067 62.6667 80 60.2734 80 57.332V52H73.3333ZM36 54.6667H44C44.7359 54.6667 45.3333 55.264 45.3333 56C45.3333 56.7359 44.7359 57.3333 44 57.3333H36C35.2641 57.3333 34.6667 56.7359 34.6667 56C34.6667 55.264 35.2641 54.6667 36 54.6667ZM48.172 70.6667H31.8267C33.4694 68.8481 34.4361 66.14 34.6294 62.6667H45.3694C45.5641 66.14 46.5294 68.8479 48.172 70.6667Z" fill="#3D32CF"/>
<path d="M8 9.33325V49.3333H72V9.33325H8ZM63.712 42.504L59.9414 46.2761C59.8177 46.3999 59.6707 46.4982 59.5089 46.5652C59.3472 46.6322 59.1738 46.6667 58.9987 46.6667C58.8236 46.6668 58.6502 46.6324 58.4885 46.5654C58.3267 46.4983 58.1798 46.4 58.0561 46.2761L54.8375 43.0561L52.9522 44.9428C52.7885 45.1053 52.5858 45.223 52.3634 45.2844C52.1411 45.3458 51.9067 45.3489 51.6828 45.2934C51.459 45.237 51.2538 45.1234 51.0871 44.9637C50.9205 44.8041 50.7982 44.6039 50.7322 44.3828L49.4173 40H18.668C18.3144 39.9998 17.9753 39.8593 17.7253 39.6093C17.4753 39.3593 17.3348 39.0203 17.3347 38.6667V13.3333C17.3348 12.9797 17.4753 12.6406 17.7253 12.3906C17.9753 12.1406 18.3144 12.0001 18.668 12H56.0012C56.3548 12.0001 56.6939 12.1406 56.9439 12.3906C57.1939 12.6406 57.3344 12.9797 57.3345 13.3333V32.072L61.7266 33.3893C61.9473 33.4558 62.1471 33.5783 62.3065 33.7449C62.4658 33.9114 62.5793 34.1165 62.6359 34.34C62.6922 34.5638 62.6895 34.7984 62.628 35.0209C62.5666 35.2434 62.4485 35.4461 62.2853 35.6093L60.4947 37.4L63.7133 40.6186C64.2333 41.14 64.2333 41.984 63.712 42.504Z" fill="#3D32CF"/>
<path d="M74.6653 1.33325H5.33469C2.39328 1.33325 0 3.72669 0 6.66794V49.3333H5.33328V7.99997C5.33341 7.6464 5.47392 7.30735 5.72393 7.05734C5.97394 6.80732 6.31299 6.66681 6.66656 6.66669H73.3333C73.6869 6.66681 74.0259 6.80732 74.2759 7.05734C74.5259 7.30735 74.6664 7.6464 74.6666 7.99997V49.3333H80V6.66794C80 3.72669 77.6067 1.33325 74.6653 1.33325Z" fill="#3D32CF"/>
</svg>
