<svg width="80" height="80" viewBox="0 0 80 80" fill="none" xmlns="http://www.w3.org/2000/svg">
<g clip-path="url(#clip0_32_191)">
<path d="M34.4346 57.8307C31.3616 60.904 31.3616 65.8894 34.4346 68.9629C37.5092 72.0357 42.4938 72.0357 45.5683 68.9629C48.6411 65.8894 48.6411 60.904 45.5683 57.8307C42.4938 54.7572 37.5092 54.7572 34.4346 57.8307ZM40.0015 39.1105C33.5161 39.1105 27.4148 41.6366 22.8314 46.2246C21.0308 48.0244 21.0308 50.9415 22.8314 52.7402C24.6306 54.5399 27.5464 54.5399 29.347 52.7402C32.1899 49.8932 35.975 48.3259 40.0015 48.3259C44.0281 48.3259 47.8133 49.8932 50.6562 52.7402C51.0839 53.1684 51.5919 53.508 52.1511 53.7396C52.7102 53.9712 53.3095 54.0902 53.9148 54.0898C55.0966 54.0898 56.2722 53.64 57.1718 52.7402C58.9724 50.9415 58.9724 48.0245 57.1718 46.2246C52.5882 41.6366 46.487 39.1105 40.0015 39.1105Z" fill="#3D32CF"/>
<path d="M40.0016 23.9383C29.4613 23.9383 19.5524 28.0432 12.1008 35.4958C10.3017 37.2956 10.3017 40.2131 12.1008 42.0114C13.9013 43.8112 16.8187 43.8112 18.6162 42.0114C24.3274 36.2987 31.9233 33.1531 40.0015 33.1531C48.0764 33.1531 55.6724 36.2987 61.3836 42.0114C61.8109 42.4398 62.3186 42.7795 62.8776 43.0112C63.4365 43.2429 64.0357 43.3619 64.6407 43.3614C65.8225 43.3614 66.9998 42.9114 67.8992 42.0114C69.6984 40.2131 69.6984 37.2956 67.8992 35.4958C60.4476 28.0432 50.542 23.9383 40.0016 23.9383Z" fill="#3D32CF"/>
<path d="M78.6536 24.7449C68.3307 14.4184 54.6048 8.7326 40.0015 8.7326C25.3982 8.7326 11.6722 14.4184 1.34936 24.7449C-0.449786 26.5448 -0.449786 29.4623 1.34936 31.2606C1.7769 31.689 2.28484 32.0288 2.84403 32.2604C3.40321 32.492 4.00263 32.6108 4.60788 32.6101C5.78662 32.6101 6.9686 32.1605 7.86493 31.2606C16.4475 22.675 27.8621 17.9475 40.0015 17.9475C52.141 17.9475 63.5522 22.675 72.1351 31.2606C73.9339 33.0604 76.8497 33.0588 78.6506 31.2622C80.4495 29.4623 80.4495 26.5448 78.6536 24.7449Z" fill="#3D32CF"/>
</g>
<defs>
<clipPath id="clip0_32_191">
<rect width="80" height="80" fill="white"/>
</clipPath>
</defs>
</svg>
