<svg width="70" height="70" viewBox="0 0 70 70" fill="none" xmlns="http://www.w3.org/2000/svg">
<g clip-path="url(#clip0_34_132)">
<path d="M34.9998 1.12147e-06C15.6699 5.02101e-07 -5.02101e-07 15.6699 -1.12147e-06 34.9998C-1.74085e-06 54.3296 15.6699 70.0002 34.9998 70.0002C54.3296 70.0002 70.0002 54.3296 70.0002 34.9998C69.9783 15.6788 54.3214 0.021658 34.9998 1.12147e-06ZM34.9998 66.4997C17.6027 66.4997 3.49978 52.3969 3.49978 34.9998C3.49978 17.6027 17.6027 3.49978 34.9998 3.49978C52.3969 3.49978 66.4997 17.6027 66.4997 34.9998C66.4799 52.3884 52.3884 66.4799 34.9998 66.4997Z" fill="#3D32CF"/>
<path d="M30.9018 21.4326C30.1739 20.7961 29.0684 20.8706 28.4321 21.598C27.7963 22.326 27.8706 23.4314 28.5981 24.0678L41.0924 34.9998L28.5974 45.9324C27.8693 46.5688 27.7957 47.6743 28.4314 48.4016C29.0678 49.1297 30.1732 49.204 30.9014 48.5676L44.9011 36.3174C45.089 36.1531 45.2395 35.9505 45.3427 35.7232C45.4458 35.496 45.4992 35.2493 45.4992 34.9997C45.4992 34.7501 45.4458 34.5034 45.3427 34.2762C45.2395 34.0489 45.089 33.8463 44.9011 33.682L30.9018 21.4326Z" fill="#3D32CF"/>
</g>
<defs>
<clipPath id="clip0_34_132">
<rect width="70" height="70" fill="white"/>
</clipPath>
</defs>
</svg>
