<svg width="1148" height="423" viewBox="0 0 1148 423" fill="none" xmlns="http://www.w3.org/2000/svg">
<path fill-rule="evenodd" clip-rule="evenodd" d="M828.507 218.927H862.646C865.105 218.927 865.236 222.149 865.799 224.161L877.461 271.883H811.115C812.395 269.209 814.042 261.683 814.98 258.321L824.91 224.361C825.713 222.239 826.306 218.927 828.507 218.927ZM1060.4 259.612H979.236V223.447H1062.33C1065.59 223.447 1070.89 227.436 1072.67 229.222C1086.37 242.918 1073.33 259.612 1060.4 259.612ZM1061.69 196.324H979.236V160.158H1061.04C1065.13 160.158 1070.07 163.454 1072.47 165.492C1085.63 176.671 1074.79 196.324 1061.69 196.324ZM842.678 131.743V128.515C842.678 124.481 847.673 119.473 851.696 119.473H854.917C858.939 119.473 863.934 124.481 863.934 128.515V131.743C863.934 135.776 858.939 140.784 854.917 140.784H851.696C847.673 140.784 842.678 135.776 842.678 131.743ZM935.434 11.6245C935.434 21.2832 939.745 27.1237 950.25 27.1237C950.572 31.0122 958.933 49.4267 960.474 53.6836L971.069 80.5174C973.176 84.6463 974.486 88.8536 976.283 93.3722C978.422 98.7504 991.832 130.226 992.118 133.681H952.826V162.096L869.055 134.425C869.087 127.673 869.347 124.313 866.04 120.591C853.841 106.857 837.525 117.93 837.525 128.515V131.743C837.525 138.934 844.988 145.951 852.34 145.951C849.696 157.329 848.587 169.588 846.814 181.097C846.439 183.534 846.229 185.249 845.949 187.333C845.54 190.38 845.186 190.615 844.61 193.094C838.998 193.094 822.721 192.135 818.629 193.524C813.899 195.129 805.452 201.159 803.155 205.134C800.381 209.935 781.723 278.014 778.832 287.952C777.114 293.855 767.314 324.912 767.314 330.651C767.314 334.48 766.484 336.979 769.012 339.926C771.388 342.695 773.769 344.605 777.62 345.504C777.517 350.156 775.339 358.663 774.576 363.117L769.887 389.415C768.472 398.304 769.036 394.179 763.068 398.078L760.268 400.437C752.432 409.322 759.795 423 768.602 423C773.209 423 776.759 422.359 780.163 419.092L782.587 415.71C786.449 408.492 782.681 398.457 774.399 396.522C774.399 389.32 780.781 358.973 782.453 349.058C783.417 343.346 785.17 346.911 790.694 341.175C795.604 336.078 799.933 306.919 804.03 298.36H884.547L893.946 337.372C894.493 338.972 895.949 340.999 896.952 342.108C898.262 343.557 900.097 344.506 902.345 345.096C905.264 345.861 906.7 345.187 907.584 347.594C907.901 348.454 908.522 353.464 908.749 354.822C909.58 359.809 910.245 363.817 911.048 368.662C911.787 373.127 912.703 377.94 913.442 382.405C914.164 386.756 915.466 392.024 915.466 396.522C914.612 397.096 913.671 397.683 912.775 398.345C901.185 406.901 909.163 423 918.687 423C923.293 423 926.844 422.359 930.248 419.092C937.505 412.127 934.166 399.376 924.646 396.36C919.345 394.68 921.07 396.706 920.15 390.534C919.657 387.231 919.194 384.734 918.687 381.668C917.31 373.359 912.889 353.322 912.889 345.504C912.889 343.648 919.975 342.326 919.975 333.233C919.975 323.755 901.977 259.508 899.225 248.771L891.26 218.008C889.638 212.283 889.591 206.082 885.289 202.038L882.885 199.927C880.267 197.732 877.959 195.599 874.759 194.512C867.762 192.136 857.537 193.094 849.763 193.094C849.166 190.266 850.389 185.192 850.859 181.922L854.461 158.41C854.945 155.491 856.205 149.162 856.205 145.951C873.9 141.818 851.858 134.267 888.011 146.353L931.007 160.722C937.995 163.057 945.668 166.236 952.826 167.908V286.09H1062.33C1085.55 286.09 1105.49 264.17 1105.49 241.529C1105.49 229.578 1099.47 214.496 1092.6 209.886C1095.42 205.665 1098.65 202.303 1100.99 197.623C1106.2 187.19 1107.01 172.684 1102.05 161.663C1096.42 149.153 1087.24 138.383 1072.64 134.972C1074.39 127.416 1080.05 115.74 1083.13 108.034C1087.04 98.2249 1113.53 34.0716 1115.15 27.1237C1121.74 27.1237 1123.36 27.5806 1127.51 24.6615C1129.12 23.5303 1129.92 22.8118 1131.01 21.0696C1137.01 11.5054 1129.6 0 1121.59 0C1116.46 0 1111.95 1.01295 1108.82 5.27524C1103.75 12.1599 1106.26 17.9774 1110.64 24.5402C1109.54 29.2594 1107.15 33.6186 1105.39 38.0097L1078.16 106.281C1075.16 113.8 1069.18 126.38 1067.48 133.681H997.916C996.282 126.653 979.785 87.5981 976.751 79.9866C973.129 70.8998 969.75 62.437 966.077 53.2321C964.181 48.4801 962.622 44.5671 960.74 39.8541C959.045 35.6063 956.385 30.0626 955.403 25.8316C969.141 16.6083 960.504 0 950.893 0C944.655 0 939.897 1.70858 936.909 7.29044C936.135 8.73587 935.434 9.80222 935.434 11.6245Z" fill="#3D32CF"/>
<path fill-rule="evenodd" clip-rule="evenodd" d="M657.808 300.944V297.715C657.808 293.681 662.805 288.673 666.827 288.673H670.047C674.07 288.673 679.065 293.681 679.065 297.715V300.944C679.065 304.976 674.07 309.985 670.047 309.985H666.827C662.805 309.985 657.808 304.976 657.808 300.944ZM558.612 11.6244C558.612 15.7563 559.474 20.3634 562.414 23.3106C566.95 27.8582 572.373 26.9414 577.936 26.4776C582.362 33.1052 586.972 38.9372 591.734 45.5793C601.932 59.8002 613.339 73.2888 623.166 87.6874C625.519 91.1343 624.314 106.998 624.314 111.723C624.314 129.323 622.716 162.367 625.422 176.484C627.145 185.479 631.414 192.635 637.554 197.257C644.711 202.643 653.801 207.302 664.25 207.302C664.25 233.166 665.538 257.422 665.538 283.507C661.969 284.341 656.252 286.781 655.232 290.611C651.248 290.278 623.519 276.905 617.406 274.287C610.886 271.494 605.079 268.622 598.641 265.977C592.607 263.497 585.584 259.161 579.224 257.675C579.224 249.186 578.327 233.17 579.5 225.653C580.274 220.694 578.576 201.192 576.849 196.768C573.516 188.238 569.317 183.898 562.227 179.137C557.657 176.066 545.059 170.492 537.999 170.492H433.648C415.744 170.492 403.11 180.265 396.058 194.156C394.227 197.765 391.135 204.956 391.135 209.886V313.859C391.135 318.991 395.896 321.906 400.152 322.901C399.914 325.768 398.659 329.401 397.855 332.221L385.932 375.161C384.184 381.825 383.935 377.569 378.634 380.115C370.313 384.109 367.345 395.399 374.325 402.397C379.597 407.683 388.49 407.28 393.677 402.301C398.668 397.511 398.63 389.889 394.909 384.343C393.468 382.196 392.075 381.559 389.847 380.377C391.82 376.253 392.566 371.151 393.94 366.399L405.95 322.901C421.889 322.901 417.544 309.407 417.544 295.131C417.544 277.708 416.42 229.765 418.349 215.859C419.897 204.711 428.429 195.678 440.09 195.678C451.388 195.678 460.394 196.324 471.652 196.324V294.485C471.652 304.399 494.538 306.011 497.651 297.948C498.84 294.865 498.258 215.366 498.039 202.113C497.992 199.238 497.279 196.324 499.995 196.324H532.846C537.525 196.324 543.189 200.36 545.589 202.922C548.483 206.011 551.4 211.008 552.462 216.051C554.487 225.67 551.901 294.88 552.784 313.89C553.049 319.598 557.702 323.095 563.12 323.546C563.275 330.515 581.631 386.969 581.801 394.585C573.177 396.893 573.004 410.432 578.517 415.959C585.015 422.473 596.135 420.25 600.294 412.48C603.075 407.283 601.933 399.594 597.28 395.856C594.317 393.477 592.306 392.648 586.953 392.648C586.511 387.324 579.291 363.48 577.707 358.003C575.917 351.814 570.674 328.563 568.274 323.546C581.742 323.246 579.224 312.307 579.224 299.006C579.224 287.167 579.224 275.326 579.224 263.487C584.237 264.658 592.843 269.119 597.688 271.452C612.752 278.707 628.062 284.584 643.21 291.685C646.441 293.2 649.759 294.24 652.656 295.777C652.656 302.547 652.579 305.535 656.018 309.197C660.168 313.618 663.431 315.151 670.047 315.151C676.848 315.151 684.219 307.762 684.219 300.944V297.715C684.219 290.829 677.087 284.04 670.692 283.507C670.692 257.445 669.403 232.986 669.403 207.302H768.601C778.868 207.302 778.776 189.306 772.021 183.207C768.78 180.28 761.49 181.47 757.006 181.47C745.132 181.47 735.463 180.825 723.511 180.825H672.623C662.379 180.838 655.661 178.654 651.74 167.534C649.572 161.384 650.723 94.1319 650.723 82.6623C650.723 77.0553 650.722 71.4513 650.75 65.845C650.779 60.1297 648.776 55.9429 644.282 54.8926C646.508 51.5601 655.801 46.0622 659.745 43.2728L686.151 24.5402C687.819 24.5402 700.891 32.8649 707.865 19.8325C712.497 11.1782 705.721 0 697.746 0C691.507 0 686.748 1.70858 683.761 7.29044C681.752 11.044 681.782 16.2742 683.574 20.0193C677.664 23.9879 671.963 28.1938 666.178 32.2852L640.146 50.7463C635.745 53.9948 633.746 52.9865 629.65 55.0764C626.127 56.8743 624.387 59.5058 624.283 64.5491C624.178 69.652 624.314 74.9516 624.314 80.0788C621.675 78.1407 606.65 56.4425 603.333 52.0323L587.691 30.9054C586.741 29.6377 582.444 24.4952 582.444 23.2489C582.444 22.1253 590.306 12.2781 581.862 3.81226C576.233 -1.83214 565.976 -1.08921 561.296 5.27524C560.014 7.02043 558.612 9.3049 558.612 11.6244Z" fill="#3D32CF"/>
<path fill-rule="evenodd" clip-rule="evenodd" d="M308.041 400.399V397.169C308.041 393.136 313.037 388.128 317.059 388.128H320.279C324.302 388.128 329.298 393.136 329.298 397.169V400.399C329.298 404.431 324.302 409.44 320.279 409.44H317.059C313.037 409.44 308.041 404.431 308.041 400.399ZM361.505 88.476C361.505 92.7047 362.091 95.038 364.081 98.8091C361.524 102.637 356.84 105.72 353.321 108.687L342.012 118.66C337.314 123.246 322.303 134.855 319.636 138.848C315.673 137.923 311.059 136.528 305.991 138.083C301.699 139.399 298.379 142.448 298.379 147.89V282.217C298.379 288.903 305.245 291.904 311.262 291.904C311.262 300.137 311.777 306.205 311.88 314.533L314.468 371.352C314.448 375.91 315.126 378.058 315.126 382.962C312.475 384.237 311.561 383.946 309.177 386.038L307.426 387.511C305.283 388.927 305.079 387.603 304.82 390.712C302.769 390.162 290.26 378.312 287.898 376.032L279.528 368.279C278.086 366.826 277.126 365.811 275.685 364.382C268.027 356.785 242.259 335.027 238.474 329.36C241.978 327.008 241.695 325.841 241.695 321.61C241.695 316.344 239.042 312.308 234.999 309.595C232.289 307.776 231.046 308.005 226.889 308.039C223.667 308.066 220.44 308.049 217.218 308.049C206.68 292.272 189.854 270.819 178.018 255C175.728 251.939 173.68 249.206 171.39 246.145C169.438 243.536 165.894 240.208 165.042 237.011C181.148 228.466 195.955 217.773 212.029 209.206C218.708 205.646 232.832 210.055 239.895 207.436C249.28 203.957 247.115 180.826 235.897 180.826H207.556C204.744 180.826 123.177 232.427 117.376 233.781C117.376 223.449 117.376 213.116 117.376 202.783C117.376 198.211 118.244 191.516 116.574 188.087C113.297 181.362 107.673 181.471 101.272 181.471C89.6643 181.471 103.979 188.1 78.6458 178.97L41.9184 165.42C39.7692 164.615 36.2155 163.195 34.2816 162.743C34.2816 155.995 34.6719 155.421 31.863 150.961C27.4976 144.031 16.6502 143.485 11.0302 149.119C3.41765 156.751 6.68298 172.43 22.0427 172.43C25.8405 172.43 30.2402 169.457 31.7047 167.264C36.8561 169.996 54.683 175.944 61.2533 178.325C70.627 181.72 82.0572 184.936 90.9661 189.221V293.841C90.9661 303.396 89.78 320.195 91.6097 328.069C88.8358 328.716 86.3344 330.493 83.6685 331.731C80.4854 333.21 78.3673 334.058 75.2914 335.603C72.2612 337.126 69.9872 337.988 66.9097 339.47L50.822 347.235C46.7403 349.283 28.4889 358.349 25.2639 358.421C22.9617 349.778 9.47966 349.58 3.94488 355.13C-3.66762 362.762 -0.402295 378.441 14.9574 378.441C22.9488 378.441 27.1963 371.14 27.1963 364.233C30.3034 362.585 33.0582 361.563 36.4369 359.937C40.0202 358.212 42.2509 357.01 46.0625 355.379C57.8053 350.354 82.4657 337.21 92.9068 333.167C96.7801 331.668 102.868 338.587 112.131 333.143C119.545 328.786 116.751 315.611 116.73 306.757C116.714 299.725 117.376 294.282 117.376 286.737C117.376 279.634 117.376 272.53 117.376 265.426C121.427 263.277 125.223 261.134 129.34 258.693C133.37 256.302 137.276 253.951 141.209 251.864C144.36 253.98 154.202 268.133 157.13 272.067C162.413 279.165 167.284 285.65 172.588 292.733L199.732 328.808C201.199 330.775 203.071 332.201 203.691 334.527L228.842 334.557C232.92 334.528 232.849 333.947 235.897 333.235C238.391 336.968 259.493 355.307 264.735 360.507L285.496 380.379C288.546 382.712 290.896 385.475 293.7 388.299C295.412 390.024 296.235 390.358 297.888 391.849C299.871 393.635 299.89 394.982 302.888 395.232C302.888 402.002 302.812 404.99 306.25 408.652C310.4 413.073 313.663 414.606 320.279 414.606C327.08 414.606 334.451 407.217 334.451 400.399V397.169C334.451 390.224 327.127 383.115 320.279 382.962L317.677 326.802C317.527 314.473 316.415 304.23 316.415 291.904C320.743 289.821 324.144 288.08 324.144 282.217V146.598C324.144 144.628 323.526 143.992 322.856 142.723C328.269 139.089 334.397 132.221 339.699 127.966L345.556 122.859C346.614 121.916 347.057 121.248 348.169 120.311L353.619 115.443C355.004 114.217 355.443 114.172 356.84 112.861C357.913 111.854 358.336 111.253 359.476 110.337C360.93 109.171 361.199 109.124 362.635 107.692C364.225 106.106 366.861 103.845 368.591 102.684C373.006 103.715 371.817 103.975 376.964 103.975C380.382 103.975 384.163 101.025 385.874 98.7C392.794 89.2876 385.318 76.8516 376.964 76.8516C372.357 76.8516 368.807 77.4938 365.403 80.7599C363.553 82.5356 361.505 85.7438 361.505 88.476Z" fill="#3D32CF"/>
<path fill-rule="evenodd" clip-rule="evenodd" d="M1120.95 344.214C1120.95 348.834 1121.22 352.367 1124.75 355.9C1133.94 365.118 1148 356.415 1148 348.089C1148 343.468 1147.72 339.936 1144.2 336.402C1134.9 327.077 1120.95 336.127 1120.95 344.214Z" fill="#3D32CF"/>
<path fill-rule="evenodd" clip-rule="evenodd" d="M802.741 71.038C802.741 75.658 803.019 79.1911 806.544 82.725C812.091 88.287 823.175 88.4365 828.093 79.6655C833.869 69.366 824.673 59.4136 818.201 59.4136C813.464 59.4136 809.093 59.7019 805.426 64.6888C804.838 65.4889 804.725 65.7528 804.216 66.7048C803.442 68.1502 802.741 69.2158 802.741 71.038Z" fill="#3D32CF"/>
<path fill-rule="evenodd" clip-rule="evenodd" d="M162.464 120.765C162.464 125.385 162.742 128.917 166.267 132.451C171.296 137.493 179.93 137.815 185.62 132.355C186.284 131.717 186.084 132.006 186.833 130.988C187.421 130.188 187.534 129.924 188.043 128.973C193.308 119.135 184.519 109.14 177.924 109.14C171.81 109.14 167.298 110.154 163.939 116.431C163.166 117.876 162.464 118.942 162.464 120.765Z" fill="#3D32CF"/>
</svg>
