<svg width="300" height="320" viewBox="0 0 300 320" fill="none" xmlns="http://www.w3.org/2000/svg">
<line x1="23.378" y1="72.16" x2="5.47346" y2="125.16" stroke="#3D32CF"/>
<line x1="99.4685" y1="189.113" x2="83.4866" y2="258.113" stroke="#3D32CF"/>
<line x1="118.438" y1="30.7589" x2="149.361" y2="86.9354" stroke="#3D32CF"/>
<line x1="201.486" y1="191.884" x2="218.486" y2="262.884" stroke="#3D32CF"/>
<line x1="248.166" y1="86.8749" x2="247.5" y2="21.005" stroke="#3D32CF"/>
<path fill-rule="evenodd" clip-rule="evenodd" d="M216.508 141.38H225.43C226.072 141.38 226.106 142.217 226.254 142.741L229.301 155.151H211.963C212.298 154.455 212.728 152.498 212.973 151.624L215.568 142.793C215.778 142.241 215.933 141.38 216.508 141.38ZM277.107 151.96H255.897V142.555H277.612C278.463 142.555 279.848 143.592 280.315 144.057C283.893 147.618 280.487 151.96 277.107 151.96ZM277.443 135.502H255.897V126.097H277.275C278.343 126.097 279.634 126.954 280.261 127.484C283.7 130.391 280.867 135.502 277.443 135.502ZM220.211 118.708V117.868C220.211 116.819 221.517 115.517 222.568 115.517H223.41C224.461 115.517 225.766 116.819 225.766 117.868V118.708C225.766 119.756 224.461 121.059 223.41 121.059H222.568C221.517 121.059 220.211 119.756 220.211 118.708ZM244.451 87.4711C244.451 89.9829 245.577 91.5017 248.323 91.5017C248.407 92.5129 250.592 97.3015 250.994 98.4085L253.763 105.387C254.314 106.46 254.656 107.554 255.126 108.729C255.685 110.128 259.189 118.313 259.264 119.212H248.996V126.601L227.105 119.405C227.113 117.649 227.181 116.776 226.317 115.808C223.129 112.236 218.865 115.116 218.865 117.868V118.708C218.865 120.578 220.815 122.402 222.736 122.402C222.046 125.361 221.756 128.549 221.292 131.542C221.194 132.176 221.139 132.622 221.066 133.164C220.959 133.956 220.867 134.017 220.716 134.662C219.25 134.662 214.996 134.412 213.927 134.774C212.691 135.191 210.483 136.759 209.883 137.793C209.158 139.041 204.282 156.745 203.527 159.329C203.078 160.864 200.517 168.941 200.517 170.433C200.517 171.429 200.3 172.079 200.961 172.845C201.582 173.565 202.204 174.062 203.21 174.296C203.183 175.505 202.614 177.718 202.415 178.876L201.189 185.715C200.82 188.026 200.967 186.953 199.407 187.967L198.676 188.581C196.628 190.891 198.552 194.448 200.854 194.448C202.058 194.448 202.985 194.281 203.875 193.432L204.508 192.552C205.518 190.675 204.533 188.066 202.369 187.563C202.369 185.69 204.036 177.798 204.473 175.22C204.725 173.734 205.183 174.662 206.627 173.17C207.91 171.845 209.041 164.262 210.112 162.036H231.153L233.609 172.181C233.752 172.597 234.133 173.124 234.395 173.413C234.737 173.789 235.217 174.036 235.804 174.189C236.567 174.388 236.942 174.213 237.173 174.839C237.256 175.063 237.418 176.366 237.477 176.719C237.695 178.016 237.868 179.058 238.078 180.318C238.271 181.479 238.511 182.731 238.704 183.892C238.892 185.023 239.233 186.393 239.233 187.563C239.009 187.712 238.764 187.865 238.53 188.037C235.501 190.262 237.586 194.448 240.074 194.448C241.278 194.448 242.206 194.281 243.096 193.432C244.992 191.621 244.119 188.305 241.632 187.521C240.246 187.084 240.697 187.61 240.457 186.006C240.328 185.146 240.207 184.497 240.074 183.7C239.715 181.539 238.559 176.329 238.559 174.296C238.559 173.813 240.411 173.469 240.411 171.105C240.411 168.64 235.708 151.933 234.988 149.14L232.907 141.141C232.483 139.652 232.471 138.039 231.347 136.988L230.719 136.439C230.034 135.868 229.431 135.313 228.595 135.031C226.767 134.413 224.094 134.662 222.063 134.662C221.907 133.926 222.227 132.607 222.349 131.757L223.291 125.642C223.417 124.883 223.746 123.237 223.746 122.402C228.371 121.328 222.611 119.364 232.058 122.507L243.294 126.244C245.12 126.851 247.125 127.677 248.996 128.112V158.845H277.612C283.68 158.845 288.89 153.145 288.89 147.257C288.89 144.149 287.318 140.227 285.523 139.028C286.26 137.931 287.102 137.057 287.714 135.84C289.075 133.126 289.289 129.354 287.993 126.488C286.522 123.235 284.121 120.434 280.305 119.547C280.764 117.582 282.243 114.546 283.047 112.542C284.07 109.991 290.993 93.3085 291.415 91.5017C293.138 91.5017 293.56 91.6205 294.645 90.8614C295.065 90.5672 295.274 90.3804 295.56 89.9273C297.128 87.4402 295.19 84.4482 293.098 84.4482C291.758 84.4482 290.579 84.7117 289.76 85.8201C288.437 87.6104 289.091 89.1232 290.236 90.8299C289.95 92.0571 289.323 93.1907 288.866 94.3326L281.748 112.086C280.964 114.042 279.402 117.313 278.958 119.212H260.779C260.352 117.384 256.041 107.228 255.248 105.249C254.301 102.886 253.418 100.685 252.459 98.2911C251.963 97.0554 251.556 96.0378 251.064 94.8122C250.621 93.7076 249.926 92.2659 249.669 91.1657C253.259 88.7672 251.002 84.4482 248.491 84.4482C246.86 84.4482 245.617 84.8926 244.836 86.3441C244.634 86.72 244.451 86.9973 244.451 87.4711Z" fill="#3D32CF"/>
<path fill-rule="evenodd" clip-rule="evenodd" d="M171.901 162.708V161.868C171.901 160.819 173.207 159.517 174.258 159.517H175.099C176.151 159.517 177.456 160.819 177.456 161.868V162.708C177.456 163.756 176.151 165.059 175.099 165.059H174.258C173.207 165.059 171.901 163.756 171.901 162.708ZM145.979 87.4711C145.979 88.5456 146.204 89.7437 146.972 90.5101C148.158 91.6927 149.575 91.4543 151.028 91.3337C152.185 93.0572 153.39 94.5738 154.634 96.301C157.299 99.9991 160.28 103.507 162.848 107.251C163.463 108.147 163.148 112.273 163.148 113.502C163.148 118.078 162.731 126.671 163.438 130.342C163.888 132.682 165.004 134.542 166.608 135.744C168.478 137.145 170.854 138.357 173.585 138.357C173.585 145.083 173.921 151.39 173.921 158.173C172.988 158.39 171.494 159.025 171.228 160.021C170.187 159.934 162.941 156.457 161.343 155.776C159.639 155.05 158.122 154.303 156.439 153.615C154.862 152.97 153.027 151.842 151.365 151.456C151.365 149.248 151.131 145.084 151.437 143.129C151.639 141.839 151.196 136.768 150.744 135.617C149.874 133.399 148.776 132.271 146.923 131.032C145.729 130.234 142.437 128.784 140.592 128.784H113.323C108.644 128.784 105.342 131.326 103.499 134.938C103.021 135.876 102.213 137.746 102.213 139.028V166.067C102.213 167.401 103.457 168.159 104.569 168.418C104.507 169.163 104.179 170.108 103.969 170.841L100.853 182.008C100.397 183.741 100.332 182.634 98.9462 183.296C96.7716 184.335 95.996 187.271 97.8201 189.091C99.1979 190.465 101.522 190.36 102.877 189.066C104.182 187.82 104.172 185.838 103.199 184.396C102.823 183.837 102.459 183.672 101.876 183.364C102.392 182.292 102.587 180.965 102.946 179.729L106.084 168.418C110.25 168.418 109.114 164.909 109.114 161.196C109.114 156.666 108.821 144.198 109.325 140.582C109.729 137.683 111.959 135.334 115.006 135.334C117.959 135.334 120.312 135.502 123.254 135.502V161.028C123.254 163.606 129.235 164.026 130.048 161.929C130.359 161.127 130.207 140.454 130.15 137.007C130.137 136.26 129.951 135.502 130.661 135.502H139.245C140.468 135.502 141.948 136.551 142.576 137.217C143.332 138.021 144.094 139.32 144.372 140.632C144.901 143.133 144.225 161.131 144.456 166.074C144.525 167.559 145.741 168.468 147.157 168.586C147.197 170.398 151.994 185.078 152.038 187.059C149.785 187.659 149.74 191.18 151.18 192.617C152.878 194.311 155.785 193.733 156.871 191.713C157.598 190.361 157.299 188.362 156.084 187.389C155.309 186.771 154.784 186.555 153.385 186.555C153.27 185.171 151.383 178.97 150.969 177.546C150.501 175.937 149.131 169.89 148.504 168.586C152.023 168.507 151.365 165.663 151.365 162.204C151.365 159.125 151.365 156.046 151.365 152.967C152.675 153.272 154.924 154.432 156.19 155.039C160.127 156.925 164.128 158.454 168.086 160.3C168.93 160.694 169.798 160.964 170.555 161.364C170.555 163.125 170.535 163.902 171.433 164.854C172.518 166.004 173.371 166.403 175.099 166.403C176.877 166.403 178.803 164.481 178.803 162.708V161.868C178.803 160.077 176.939 158.312 175.268 158.173C175.268 151.396 174.931 145.036 174.931 138.357H200.854C203.537 138.357 203.513 133.677 201.748 132.091C200.901 131.33 198.996 131.639 197.824 131.639C194.721 131.639 192.194 131.471 189.071 131.471H175.773C173.096 131.475 171.34 130.907 170.315 128.015C169.749 126.416 170.05 108.927 170.05 105.944C170.05 104.486 170.049 103.029 170.057 101.571C170.064 100.085 169.541 98.996 168.366 98.7229C168.948 97.8563 171.377 96.4266 172.407 95.7012L179.308 90.8299C179.744 90.8299 183.16 92.9947 184.982 89.6056C186.193 87.3551 184.422 84.4482 182.338 84.4482C180.707 84.4482 179.464 84.8926 178.683 86.3441C178.158 87.3202 178.166 88.6803 178.634 89.6542C177.09 90.6862 175.6 91.78 174.088 92.8439L167.285 97.6447C166.135 98.4895 165.613 98.2272 164.543 98.7707C163.622 99.2382 163.167 99.9226 163.14 101.234C163.113 102.561 163.148 103.939 163.148 105.273C162.458 104.769 158.532 99.126 157.665 97.9791L153.578 92.4851C153.33 92.1554 152.207 90.8182 152.207 90.494C152.207 90.2019 154.261 87.6411 152.055 85.4396C150.584 83.9718 147.903 84.165 146.68 85.8201C146.345 86.2739 145.979 86.868 145.979 87.4711Z" fill="#3D32CF"/>
<path fill-rule="evenodd" clip-rule="evenodd" d="M80.4986 188.57V187.73C80.4986 186.682 81.804 185.379 82.8551 185.379H83.6967C84.748 185.379 86.0534 186.682 86.0534 187.73V188.57C86.0534 189.619 84.748 190.921 83.6967 190.921H82.8551C81.804 190.921 80.4986 189.619 80.4986 188.57ZM94.4698 107.456C94.4698 108.555 94.6231 109.162 95.1432 110.143C94.475 111.138 93.2509 111.94 92.3314 112.711L89.376 115.305C88.1481 116.497 84.2255 119.516 83.5285 120.555C82.4931 120.314 81.2873 119.951 79.9628 120.356C78.8413 120.698 77.9736 121.491 77.9736 122.906V157.837C77.9736 159.576 79.7679 160.357 81.3402 160.357C81.3402 162.497 81.4749 164.075 81.5018 166.241L82.178 181.017C82.1728 182.202 82.3501 182.761 82.3501 184.036C81.6573 184.368 81.4183 184.292 80.7954 184.836L80.3377 185.219C79.7779 185.587 79.7244 185.243 79.6568 186.051C79.1208 185.908 75.8519 182.827 75.2348 182.234L73.0474 180.218C72.6707 179.84 72.4196 179.576 72.0432 179.204C70.042 177.229 63.3081 171.571 62.319 170.097C63.2346 169.485 63.1606 169.182 63.1606 168.082C63.1606 166.712 62.4674 165.663 61.4109 164.957C60.7027 164.484 60.3778 164.544 59.2915 164.553C58.4495 164.559 57.6062 164.555 56.7642 164.555C54.0104 160.452 49.6134 154.873 46.5203 150.76C45.9219 149.964 45.3869 149.253 44.7884 148.457C44.2783 147.779 43.352 146.913 43.1293 146.082C47.3384 143.86 51.2077 141.079 55.4083 138.851C57.1537 137.925 60.8446 139.072 62.6902 138.391C65.1428 137.486 64.577 131.471 61.6457 131.471H54.2392C53.5044 131.471 32.189 144.89 30.673 145.242C30.673 142.555 30.673 139.868 30.673 137.181C30.673 135.992 30.9001 134.251 30.4635 133.359C29.6072 131.61 28.1376 131.639 26.4647 131.639C23.4314 131.639 27.1721 133.363 20.552 130.988L10.9543 127.465C10.3926 127.255 9.46398 126.886 8.9586 126.769C8.9586 125.014 9.06059 124.864 8.32657 123.705C7.18577 121.902 4.35108 121.76 2.88245 123.226C0.893115 125.21 1.74642 129.288 5.76028 129.288C6.75276 129.288 7.9025 128.515 8.28521 127.944C9.63138 128.655 14.29 130.202 16.0069 130.821C18.4565 131.703 21.4435 132.54 23.7716 133.654V160.86C23.7716 163.345 23.4617 167.713 23.9398 169.761C23.2149 169.929 22.5612 170.391 21.8646 170.714C21.0328 171.098 20.4793 171.319 19.6755 171.72C18.8836 172.116 18.2893 172.341 17.4851 172.726L13.281 174.745C12.2144 175.278 7.44483 177.635 6.60205 177.654C6.00044 175.406 2.47726 175.355 1.03089 176.798C-0.958438 178.783 -0.105129 182.86 3.90872 182.86C5.99706 182.86 7.10704 180.962 7.10704 179.166C7.919 178.737 8.6389 178.471 9.52183 178.048C10.4582 177.6 11.0412 177.287 12.0372 176.863C15.1059 175.556 21.5503 172.138 24.2788 171.087C25.291 170.697 26.8819 172.496 29.3024 171.081C31.2399 169.948 30.5098 166.522 30.5045 164.219C30.5003 162.39 30.673 160.975 30.673 159.013C30.673 157.166 30.673 155.318 30.673 153.471C31.7317 152.912 32.7238 152.355 33.7996 151.72C34.8529 151.098 35.8734 150.487 36.9013 149.944C37.7248 150.494 40.2966 154.175 41.0619 155.198C42.4424 157.044 43.7154 158.73 45.1014 160.572L52.1948 169.953C52.5782 170.465 53.0674 170.836 53.2293 171.441L59.8019 171.448C60.8677 171.441 60.849 171.29 61.6457 171.105C62.2972 172.075 67.8117 176.844 69.1817 178.197L74.6069 183.364C75.404 183.971 76.0181 184.689 76.7507 185.424C77.1983 185.872 77.4134 185.959 77.8454 186.347C78.3635 186.811 78.3685 187.162 79.1518 187.227C79.1518 188.987 79.1319 189.764 80.0306 190.717C81.1151 191.866 81.9678 192.265 83.6967 192.265C85.4739 192.265 87.4 190.343 87.4 188.57V187.73C87.4 185.924 85.4862 184.076 83.6967 184.036L83.0167 169.432C82.9774 166.226 82.6867 163.562 82.6867 160.357C83.818 159.815 84.7067 159.362 84.7067 157.837V122.57C84.7067 122.058 84.545 121.893 84.3701 121.562C85.7846 120.618 87.3861 118.831 88.7716 117.725L90.3021 116.397C90.5786 116.152 90.6943 115.978 90.9848 115.734L92.4091 114.468C92.7711 114.149 92.8857 114.138 93.2509 113.797C93.5312 113.535 93.6418 113.379 93.9398 113.141C94.3197 112.837 94.3901 112.825 94.7653 112.453C95.1808 112.04 95.8697 111.452 96.3216 111.15C97.4755 111.419 97.1647 111.486 98.5097 111.486C99.403 111.486 100.391 110.719 100.838 110.114C102.646 107.667 100.693 104.433 98.5097 104.433C97.3059 104.433 96.378 104.6 95.4885 105.449C95.0052 105.911 94.4698 106.745 94.4698 107.456Z" fill="#3D32CF"/>
<path fill-rule="evenodd" clip-rule="evenodd" d="M292.93 173.96C292.93 175.161 293.003 176.08 293.924 176.999C296.326 179.396 300 177.133 300 174.967C300 173.766 299.927 172.847 299.006 171.928C296.576 169.503 292.93 171.857 292.93 173.96Z" fill="#3D32CF"/>
<path fill-rule="evenodd" clip-rule="evenodd" d="M209.775 102.921C209.775 104.122 209.848 105.041 210.769 105.96C212.219 107.407 215.115 107.445 216.4 105.165C217.91 102.486 215.507 99.8981 213.815 99.8981C212.577 99.8981 211.435 99.9731 210.477 101.27C210.323 101.478 210.294 101.547 210.161 101.794C209.959 102.17 209.775 102.447 209.775 102.921Z" fill="#3D32CF"/>
<path fill-rule="evenodd" clip-rule="evenodd" d="M42.4561 115.853C42.4561 117.054 42.5286 117.973 43.4497 118.892C44.7639 120.203 47.0202 120.287 48.5072 118.867C48.6807 118.701 48.6284 118.776 48.8241 118.511C48.9777 118.304 49.0074 118.235 49.1404 117.987C50.5162 115.429 48.2195 112.83 46.496 112.83C44.8983 112.83 43.7193 113.094 42.8414 114.726C42.6394 115.102 42.4561 115.379 42.4561 115.853Z" fill="#3D32CF"/>
<path d="M19.8715 54.216V65H17.6475V56.456L15.2795 57.912L14.2875 56.376L17.8715 54.216H19.8715ZM26.8324 53.672C27.5257 53.672 28.1284 53.7733 28.6404 53.976C29.1524 54.168 29.6537 54.4667 30.1444 54.872L28.9764 56.232C28.3364 55.7093 27.6644 55.448 26.9604 55.448C26.1711 55.448 25.5417 55.7733 25.0724 56.424C24.6137 57.064 24.3844 58.072 24.3844 59.448C24.3844 60.792 24.6137 61.7893 25.0724 62.44C25.5417 63.08 26.1764 63.4 26.9764 63.4C27.3924 63.4 27.7711 63.3253 28.1124 63.176C28.4537 63.016 28.8111 62.792 29.1844 62.504L30.2724 63.864C29.8777 64.2693 29.3871 64.6053 28.8004 64.872C28.2244 65.128 27.5844 65.256 26.8804 65.256C25.8884 65.256 25.0191 65.032 24.2724 64.584C23.5257 64.136 22.9444 63.48 22.5284 62.616C22.1124 61.7413 21.9044 60.6853 21.9044 59.448C21.9044 58.2427 22.1177 57.208 22.5444 56.344C22.9711 55.4693 23.5577 54.808 24.3044 54.36C25.0511 53.9013 25.8937 53.672 26.8324 53.672Z" fill="#3D32CF"/>
<path d="M40.5356 274H38.2156V269.552C38.2156 268.037 38.3276 266.618 38.5516 265.296L35.0636 274H32.1836V262.928H34.5036V267.424C34.5036 268.32 34.4716 269.066 34.4076 269.664C34.3543 270.25 34.2743 270.901 34.1676 271.616L37.7196 262.928H40.5356V274ZM47.7191 274V270.544H45.0951V274H42.8231V265.52H45.0951V268.832H47.7191V265.52H49.9911V274H47.7191ZM58.6614 265.52L58.3734 267.232H55.9734V274H53.7014V267.232H51.1574V265.52H58.6614ZM66.4599 269.568C66.4599 269.674 66.4439 269.968 66.4119 270.448H61.1159C61.1905 271.216 61.3985 271.76 61.7399 272.08C62.0812 272.4 62.5452 272.56 63.1319 272.56C63.4945 272.56 63.8359 272.501 64.1559 272.384C64.4759 272.266 64.8225 272.08 65.1959 271.824L66.1399 273.104C65.1905 273.872 64.1185 274.256 62.9239 274.256C61.5905 274.256 60.5665 273.856 59.8519 273.056C59.1372 272.256 58.7799 271.173 58.7799 269.808C58.7799 268.944 58.9292 268.17 59.2279 267.488C59.5372 266.794 59.9799 266.25 60.5559 265.856C61.1425 265.461 61.8359 265.264 62.6359 265.264C63.8412 265.264 64.7799 265.642 65.4519 266.4C66.1239 267.157 66.4599 268.213 66.4599 269.568ZM64.2039 268.928C64.2039 267.52 63.6972 266.816 62.6839 266.816C62.2145 266.816 61.8465 266.992 61.5799 267.344C61.3239 267.685 61.1692 268.245 61.1159 269.024H64.2039V268.928ZM72.6804 265.264C73.747 265.264 74.5364 265.658 75.0484 266.448C75.571 267.226 75.8324 268.325 75.8324 269.744C75.8324 270.608 75.699 271.381 75.4324 272.064C75.1657 272.746 74.7764 273.285 74.2644 273.68C73.763 274.064 73.1657 274.256 72.4724 274.256C71.6084 274.256 70.9097 273.952 70.3764 273.344V277.264L68.1044 277.52V265.52H70.1044L70.2164 266.512C70.5364 266.096 70.9097 265.786 71.3364 265.584C71.7737 265.37 72.2217 265.264 72.6804 265.264ZM71.8004 272.56C72.9097 272.56 73.4644 271.626 73.4644 269.76C73.4644 268.736 73.3417 268.01 73.0964 267.584C72.851 267.157 72.4777 266.944 71.9764 266.944C71.6564 266.944 71.3577 267.045 71.0804 267.248C70.8137 267.44 70.579 267.701 70.3764 268.032V271.728C70.739 272.282 71.2137 272.56 71.8004 272.56ZM82.5316 274V270.544H79.9076V274H77.6356V265.52H79.9076V268.832H82.5316V265.52H84.8036V274H82.5316ZM94.2099 269.568C94.2099 269.674 94.1939 269.968 94.1619 270.448H88.8659C88.9405 271.216 89.1485 271.76 89.4899 272.08C89.8312 272.4 90.2952 272.56 90.8819 272.56C91.2445 272.56 91.5859 272.501 91.9059 272.384C92.2259 272.266 92.5725 272.08 92.9459 271.824L93.8899 273.104C92.9405 273.872 91.8685 274.256 90.6739 274.256C89.3405 274.256 88.3165 273.856 87.6019 273.056C86.8872 272.256 86.5299 271.173 86.5299 269.808C86.5299 268.944 86.6792 268.17 86.9779 267.488C87.2872 266.794 87.7299 266.25 88.3059 265.856C88.8925 265.461 89.5859 265.264 90.3859 265.264C91.5912 265.264 92.5299 265.642 93.2019 266.4C93.8739 267.157 94.2099 268.213 94.2099 269.568ZM91.9539 268.928C91.9539 267.52 91.4472 266.816 90.4339 266.816C89.9645 266.816 89.5965 266.992 89.3299 267.344C89.0739 267.685 88.9192 268.245 88.8659 269.024H91.9539V268.928ZM101.88 265.52L101.592 267.232H99.1921V274H96.9201V267.232H94.3761V265.52H101.88ZM102.252 269.888V268.096H107.212V269.888H102.252ZM42.2576 284.264C42.8229 284.264 43.3296 284.349 43.7776 284.52C44.2362 284.68 44.6682 284.936 45.0736 285.288L44.0816 286.632C43.8042 286.418 43.5322 286.264 43.2656 286.168C43.0096 286.072 42.7269 286.024 42.4176 286.024C41.2122 286.024 40.6096 286.952 40.6096 288.808C40.6096 289.746 40.7642 290.418 41.0736 290.824C41.3829 291.229 41.8256 291.432 42.4016 291.432C42.7002 291.432 42.9722 291.389 43.2176 291.304C43.4629 291.208 43.7509 291.053 44.0816 290.84L45.0736 292.264C44.2629 292.925 43.3349 293.256 42.2896 293.256C41.4576 293.256 40.7322 293.074 40.1136 292.712C39.5056 292.349 39.0362 291.837 38.7056 291.176C38.3749 290.504 38.2096 289.72 38.2096 288.824C38.2096 287.928 38.3749 287.138 38.7056 286.456C39.0362 285.762 39.5056 285.224 40.1136 284.84C40.7322 284.456 41.4469 284.264 42.2576 284.264ZM53.2177 288.568C53.2177 288.674 53.2017 288.968 53.1697 289.448H47.8737C47.9484 290.216 48.1564 290.76 48.4977 291.08C48.839 291.4 49.303 291.56 49.8897 291.56C50.2524 291.56 50.5937 291.501 50.9137 291.384C51.2337 291.266 51.5804 291.08 51.9537 290.824L52.8977 292.104C51.9484 292.872 50.8764 293.256 49.6817 293.256C48.3484 293.256 47.3244 292.856 46.6097 292.056C45.895 291.256 45.5377 290.173 45.5377 288.808C45.5377 287.944 45.687 287.17 45.9857 286.488C46.295 285.794 46.7377 285.25 47.3137 284.856C47.9004 284.461 48.5937 284.264 49.3937 284.264C50.599 284.264 51.5377 284.642 52.2097 285.4C52.8817 286.157 53.2177 287.213 53.2177 288.568ZM50.9617 287.928C50.9617 286.52 50.455 285.816 49.4417 285.816C48.9724 285.816 48.6044 285.992 48.3377 286.344C48.0817 286.685 47.927 287.245 47.8737 288.024H50.9617V287.928ZM59.4382 284.264C60.5049 284.264 61.2942 284.658 61.8062 285.448C62.3289 286.226 62.5902 287.325 62.5902 288.744C62.5902 289.608 62.4569 290.381 62.1902 291.064C61.9235 291.746 61.5342 292.285 61.0222 292.68C60.5209 293.064 59.9235 293.256 59.2302 293.256C58.3662 293.256 57.6675 292.952 57.1342 292.344V296.264L54.8622 296.52V284.52H56.8622L56.9742 285.512C57.2942 285.096 57.6675 284.786 58.0942 284.584C58.5315 284.37 58.9795 284.264 59.4382 284.264ZM58.5582 291.56C59.6675 291.56 60.2222 290.626 60.2222 288.76C60.2222 287.736 60.0995 287.01 59.8542 286.584C59.6089 286.157 59.2355 285.944 58.7342 285.944C58.4142 285.944 58.1155 286.045 57.8382 286.248C57.5715 286.44 57.3369 286.701 57.1342 287.032V290.728C57.4969 291.282 57.9715 291.56 58.5582 291.56ZM69.4334 288.36C70.8734 288.52 71.5934 289.202 71.5934 290.408C71.5934 291.282 71.2574 291.933 70.5854 292.36C69.9134 292.786 69.0014 293 67.8494 293H64.3934V284.616C65.5881 284.381 66.6601 284.264 67.6094 284.264C68.7294 284.264 69.6094 284.461 70.2494 284.856C70.8894 285.24 71.2094 285.81 71.2094 286.568C71.2094 287.048 71.0548 287.442 70.7454 287.752C70.4468 288.05 70.0094 288.253 69.4334 288.36ZM67.5774 285.768C67.2894 285.768 66.9854 285.784 66.6654 285.816V287.864H67.7214C68.1054 287.864 68.4041 287.778 68.6174 287.608C68.8414 287.437 68.9534 287.17 68.9534 286.808C68.9534 286.456 68.8361 286.194 68.6014 286.024C68.3774 285.853 68.0361 285.768 67.5774 285.768ZM67.8014 291.464C68.7721 291.464 69.2574 291.058 69.2574 290.248C69.2574 289.874 69.1401 289.597 68.9054 289.416C68.6814 289.234 68.3188 289.144 67.8174 289.144H66.6654V291.464H67.8014ZM80.5633 293H78.3873V289.784C78.3873 289.176 78.4193 288.6 78.4833 288.056C78.5473 287.512 78.6166 287.08 78.6913 286.76L75.6833 293H73.3153V284.52H75.4913V287.768C75.4913 288.344 75.4593 288.914 75.3953 289.48C75.342 290.034 75.278 290.461 75.2033 290.76L78.1633 284.52H80.5633V293ZM86.3357 284.264C86.901 284.264 87.4077 284.349 87.8557 284.52C88.3144 284.68 88.7464 284.936 89.1517 285.288L88.1597 286.632C87.8824 286.418 87.6104 286.264 87.3437 286.168C87.0877 286.072 86.805 286.024 86.4957 286.024C85.2904 286.024 84.6877 286.952 84.6877 288.808C84.6877 289.746 84.8424 290.418 85.1517 290.824C85.461 291.229 85.9037 291.432 86.4797 291.432C86.7784 291.432 87.0504 291.389 87.2957 291.304C87.541 291.208 87.829 291.053 88.1597 290.84L89.1517 292.264C88.341 292.925 87.413 293.256 86.3677 293.256C85.5357 293.256 84.8104 293.074 84.1917 292.712C83.5837 292.349 83.1144 291.837 82.7837 291.176C82.453 290.504 82.2877 289.72 82.2877 288.824C82.2877 287.928 82.453 287.138 82.7837 286.456C83.1144 285.762 83.5837 285.224 84.1917 284.84C84.8104 284.456 85.525 284.264 86.3357 284.264ZM93.2723 287.176C94.6163 287.176 95.5976 287.426 96.2163 287.928C96.8456 288.418 97.1603 289.138 97.1603 290.088C97.1603 291.037 96.8296 291.762 96.1683 292.264C95.5176 292.754 94.6696 293 93.6243 293H90.4403V284.52H92.7123V287.176H93.2723ZM98.0083 284.52H100.28V293H98.0083V284.52ZM93.4003 291.464C94.3496 291.464 94.8243 290.994 94.8243 290.056C94.8243 289.586 94.707 289.24 94.4723 289.016C94.2376 288.792 93.8323 288.68 93.2563 288.68H92.7123V291.464H93.4003Z" fill="#3D32CF"/>
<path d="M98.024 24L97.4 21.52H93.928L93.304 24H90.856L94.264 12.928H97.128L100.52 24H98.024ZM94.376 19.776H96.952L95.656 14.672L94.376 19.776ZM105.755 12.672C106.448 12.672 107.051 12.7733 107.563 12.976C108.075 13.168 108.576 13.4667 109.067 13.872L107.899 15.232C107.259 14.7093 106.587 14.448 105.883 14.448C105.093 14.448 104.464 14.7733 103.995 15.424C103.536 16.064 103.307 17.072 103.307 18.448C103.307 19.792 103.536 20.7893 103.995 21.44C104.464 22.08 105.099 22.4 105.899 22.4C106.315 22.4 106.693 22.3253 107.035 22.176C107.376 22.016 107.733 21.792 108.107 21.504L109.195 22.864C108.8 23.2693 108.309 23.6053 107.723 23.872C107.147 24.128 106.507 24.256 105.803 24.256C104.811 24.256 103.941 24.032 103.195 23.584C102.448 23.136 101.867 22.48 101.451 21.616C101.035 20.7413 100.827 19.6853 100.827 18.448C100.827 17.2427 101.04 16.208 101.467 15.344C101.893 14.4693 102.48 13.808 103.227 13.36C103.973 12.9013 104.816 12.672 105.755 12.672ZM115.538 20.768C115.218 21.6 114.861 22.256 114.466 22.736C114.082 23.2053 113.618 23.5573 113.074 23.792C112.541 24.016 111.864 24.1707 111.042 24.256L110.722 22.656C111.437 22.5493 111.981 22.384 112.354 22.16C112.728 21.9253 113.037 21.552 113.282 21.04H112.514L109.09 12.928H111.506L113.986 19.696L116.162 12.928H118.546L115.538 20.768ZM130.746 12.928L130.49 14.768H127.69V24H125.338V14.768H122.394V12.928H130.746ZM140.269 12.928V24H137.917V14.768H134.301V24H131.949V12.928H140.269Z" fill="#3D32CF"/>
<path d="M198.161 266.672C198.854 266.672 199.457 266.773 199.969 266.976C200.481 267.168 200.982 267.467 201.473 267.872L200.305 269.232C199.665 268.709 198.993 268.448 198.289 268.448C197.5 268.448 196.87 268.773 196.401 269.424C195.942 270.064 195.713 271.072 195.713 272.448C195.713 273.792 195.942 274.789 196.401 275.44C196.87 276.08 197.505 276.4 198.305 276.4C198.721 276.4 199.1 276.325 199.441 276.176C199.782 276.016 200.14 275.792 200.513 275.504L201.601 276.864C201.206 277.269 200.716 277.605 200.129 277.872C199.553 278.128 198.913 278.256 198.209 278.256C197.217 278.256 196.348 278.032 195.601 277.584C194.854 277.136 194.273 276.48 193.857 275.616C193.441 274.741 193.233 273.685 193.233 272.448C193.233 271.243 193.446 270.208 193.873 269.344C194.3 268.469 194.886 267.808 195.633 267.36C196.38 266.901 197.222 266.672 198.161 266.672ZM209.931 278H207.755V274.784C207.755 274.176 207.787 273.6 207.851 273.056C207.915 272.512 207.984 272.08 208.059 271.76L205.051 278H202.683V269.52H204.859V272.768C204.859 273.344 204.827 273.915 204.763 274.48C204.709 275.035 204.645 275.461 204.571 275.76L207.531 269.52H209.931V278ZM215.703 269.264C216.268 269.264 216.775 269.349 217.223 269.52C217.682 269.68 218.114 269.936 218.519 270.288L217.527 271.632C217.25 271.419 216.978 271.264 216.711 271.168C216.455 271.072 216.172 271.024 215.863 271.024C214.658 271.024 214.055 271.952 214.055 273.808C214.055 274.747 214.21 275.419 214.519 275.824C214.828 276.229 215.271 276.432 215.847 276.432C216.146 276.432 216.418 276.389 216.663 276.304C216.908 276.208 217.196 276.053 217.527 275.84L218.519 277.264C217.708 277.925 216.78 278.256 215.735 278.256C214.903 278.256 214.178 278.075 213.559 277.712C212.951 277.349 212.482 276.837 212.151 276.176C211.82 275.504 211.655 274.72 211.655 273.824C211.655 272.928 211.82 272.139 212.151 271.456C212.482 270.763 212.951 270.224 213.559 269.84C214.178 269.456 214.892 269.264 215.703 269.264ZM226.24 269.52L225.952 271.232H223.552V278H221.28V271.232H218.736V269.52H226.24ZM234.038 273.568C234.038 273.675 234.022 273.968 233.99 274.448H228.694C228.769 275.216 228.977 275.76 229.318 276.08C229.659 276.4 230.123 276.56 230.71 276.56C231.073 276.56 231.414 276.501 231.734 276.384C232.054 276.267 232.401 276.08 232.774 275.824L233.718 277.104C232.769 277.872 231.697 278.256 230.502 278.256C229.169 278.256 228.145 277.856 227.43 277.056C226.715 276.256 226.358 275.173 226.358 273.808C226.358 272.944 226.507 272.171 226.806 271.488C227.115 270.795 227.558 270.251 228.134 269.856C228.721 269.461 229.414 269.264 230.214 269.264C231.419 269.264 232.358 269.643 233.03 270.4C233.702 271.157 234.038 272.213 234.038 273.568ZM231.782 272.928C231.782 271.52 231.275 270.816 230.262 270.816C229.793 270.816 229.425 270.992 229.158 271.344C228.902 271.685 228.747 272.245 228.694 273.024H231.782V272.928ZM244.723 278H242.562L242.323 274.736C242.291 274.267 242.275 273.819 242.275 273.392C242.275 273.093 242.296 272.475 242.339 271.536L240.835 277.12H238.899L237.459 271.552C237.501 272.107 237.523 272.709 237.523 273.36C237.523 273.669 237.512 274.123 237.491 274.72L237.299 278H235.139L235.875 269.52H238.595L239.875 275.136L241.235 269.52H243.97L244.723 278ZM249.249 272.176C250.593 272.176 251.574 272.427 252.193 272.928C252.822 273.419 253.137 274.139 253.137 275.088C253.137 276.037 252.806 276.763 252.145 277.264C251.494 277.755 250.646 278 249.601 278H246.417V269.52H248.689V272.176H249.249ZM253.985 269.52H256.257V278H253.985V269.52ZM249.377 276.464C250.326 276.464 250.801 275.995 250.801 275.056C250.801 274.587 250.684 274.24 250.449 274.016C250.214 273.792 249.809 273.68 249.233 273.68H248.689V276.464H249.377ZM185.754 297H183.594L183.354 293.736C183.322 293.267 183.306 292.819 183.306 292.392C183.306 292.093 183.327 291.475 183.37 290.536L181.866 296.12H179.93L178.49 290.552C178.532 291.107 178.554 291.709 178.554 292.36C178.554 292.669 178.543 293.123 178.522 293.72L178.33 297H176.17L176.906 288.52H179.626L180.906 294.136L182.266 288.52H185.002L185.754 297ZM191.016 288.264C192.285 288.264 193.277 288.664 193.992 289.464C194.707 290.253 195.064 291.352 195.064 292.76C195.064 293.656 194.899 294.445 194.568 295.128C194.248 295.8 193.779 296.323 193.16 296.696C192.552 297.069 191.832 297.256 191 297.256C189.731 297.256 188.733 296.861 188.008 296.072C187.293 295.272 186.936 294.168 186.936 292.76C186.936 291.864 187.096 291.08 187.416 290.408C187.747 289.725 188.216 289.197 188.824 288.824C189.443 288.451 190.173 288.264 191.016 288.264ZM191.016 289.96C190.44 289.96 190.008 290.189 189.72 290.648C189.443 291.096 189.304 291.8 189.304 292.76C189.304 293.72 189.443 294.429 189.72 294.888C190.008 295.336 190.435 295.56 191 295.56C191.565 295.56 191.987 295.336 192.264 294.888C192.552 294.429 192.696 293.72 192.696 292.76C192.696 291.8 192.557 291.096 192.28 290.648C192.003 290.189 191.581 289.96 191.016 289.96ZM201.688 297V293.544H199.064V297H196.792V288.52H199.064V291.832H201.688V288.52H203.96V297H201.688ZM213.446 297H211.27V293.784C211.27 293.176 211.302 292.6 211.366 292.056C211.43 291.512 211.499 291.08 211.574 290.76L208.566 297H206.198V288.52H208.374V291.768C208.374 292.344 208.342 292.915 208.278 293.48C208.225 294.035 208.161 294.461 208.086 294.76L211.046 288.52H213.446V297ZM222.115 288.52L221.827 290.232H219.427V297H217.155V290.232H214.611V288.52H222.115ZM226.313 288.264C227.582 288.264 228.574 288.664 229.289 289.464C230.004 290.253 230.361 291.352 230.361 292.76C230.361 293.656 230.196 294.445 229.865 295.128C229.545 295.8 229.076 296.323 228.457 296.696C227.849 297.069 227.129 297.256 226.297 297.256C225.028 297.256 224.03 296.861 223.305 296.072C222.59 295.272 222.233 294.168 222.233 292.76C222.233 291.864 222.393 291.08 222.713 290.408C223.044 289.725 223.513 289.197 224.121 288.824C224.74 288.451 225.47 288.264 226.313 288.264ZM226.313 289.96C225.737 289.96 225.305 290.189 225.017 290.648C224.74 291.096 224.601 291.8 224.601 292.76C224.601 293.72 224.74 294.429 225.017 294.888C225.305 295.336 225.732 295.56 226.297 295.56C226.862 295.56 227.284 295.336 227.561 294.888C227.849 294.429 227.993 293.72 227.993 292.76C227.993 291.8 227.854 291.096 227.577 290.648C227.3 290.189 226.878 289.96 226.313 289.96ZM236.665 288.264C237.731 288.264 238.521 288.659 239.033 289.448C239.555 290.227 239.817 291.325 239.817 292.744C239.817 293.608 239.683 294.381 239.417 295.064C239.15 295.747 238.761 296.285 238.249 296.68C237.747 297.064 237.15 297.256 236.457 297.256C235.593 297.256 234.894 296.952 234.361 296.344V300.264L232.089 300.52V288.52H234.089L234.201 289.512C234.521 289.096 234.894 288.787 235.321 288.584C235.758 288.371 236.206 288.264 236.665 288.264ZM235.785 295.56C236.894 295.56 237.449 294.627 237.449 292.76C237.449 291.736 237.326 291.011 237.081 290.584C236.835 290.157 236.462 289.944 235.961 289.944C235.641 289.944 235.342 290.045 235.065 290.248C234.798 290.44 234.563 290.701 234.361 291.032V294.728C234.723 295.283 235.198 295.56 235.785 295.56ZM248.868 297H246.692V293.784C246.692 293.176 246.724 292.6 246.788 292.056C246.852 291.512 246.921 291.08 246.996 290.76L243.988 297H241.62V288.52H243.796V291.768C243.796 292.344 243.764 292.915 243.7 293.48C243.647 294.035 243.583 294.461 243.508 294.76L246.468 288.52H248.868V297ZM256 297V293.544H253.376V297H251.104V288.52H253.376V291.832H256V288.52H258.272V297H256ZM262.783 297H260.511V288.52H266.335L266.063 290.264H262.783V297ZM273.256 294.648C273.256 294.979 273.304 295.224 273.4 295.384C273.496 295.533 273.656 295.645 273.88 295.72L273.4 297.224C272.899 297.181 272.488 297.064 272.168 296.872C271.859 296.68 271.619 296.381 271.448 295.976C270.894 296.829 270.046 297.256 268.904 297.256C268.062 297.256 267.39 297.016 266.888 296.536C266.398 296.045 266.152 295.411 266.152 294.632C266.152 293.704 266.488 292.995 267.16 292.504C267.832 292.013 268.798 291.768 270.056 291.768H271.032V291.352C271.032 290.829 270.915 290.467 270.68 290.264C270.446 290.061 270.056 289.96 269.512 289.96C268.915 289.96 268.168 290.109 267.272 290.408L266.76 288.888C267.816 288.472 268.862 288.264 269.896 288.264C271.048 288.264 271.896 288.515 272.44 289.016C272.984 289.507 273.256 290.243 273.256 291.224V294.648ZM269.528 295.624C270.168 295.624 270.67 295.309 271.032 294.68V293.064H270.28C269.054 293.064 268.44 293.523 268.44 294.44C268.44 294.813 268.531 295.107 268.712 295.32C268.904 295.523 269.176 295.624 269.528 295.624ZM175.321 307.264C176.59 307.264 177.582 307.664 178.297 308.464C179.011 309.253 179.369 310.352 179.369 311.76C179.369 312.656 179.203 313.445 178.873 314.128C178.553 314.8 178.083 315.323 177.465 315.696C176.857 316.069 176.137 316.256 175.305 316.256C174.035 316.256 173.038 315.861 172.313 315.072C171.598 314.272 171.241 313.168 171.241 311.76C171.241 310.864 171.401 310.08 171.721 309.408C172.051 308.725 172.521 308.197 173.129 307.824C173.747 307.451 174.478 307.264 175.321 307.264ZM175.321 308.96C174.745 308.96 174.313 309.189 174.025 309.648C173.747 310.096 173.609 310.8 173.609 311.76C173.609 312.72 173.747 313.429 174.025 313.888C174.313 314.336 174.739 314.56 175.305 314.56C175.87 314.56 176.291 314.336 176.569 313.888C176.857 313.429 177.001 312.72 177.001 311.76C177.001 310.8 176.862 310.096 176.585 309.648C176.307 309.189 175.886 308.96 175.321 308.96ZM185.385 308.096C185.993 308.096 186.537 308.251 187.017 308.56C187.497 308.869 187.875 309.323 188.153 309.92C188.43 310.507 188.569 311.205 188.569 312.016C188.569 312.891 188.403 313.648 188.073 314.288C187.742 314.917 187.278 315.403 186.681 315.744C186.083 316.085 185.39 316.256 184.601 316.256C183.363 316.256 182.382 315.845 181.657 315.024C180.942 314.192 180.585 312.939 180.585 311.264C180.585 310.037 180.686 309.029 180.889 308.24C181.091 307.451 181.438 306.805 181.929 306.304C182.43 305.792 183.129 305.392 184.025 305.104C184.675 304.901 185.187 304.72 185.561 304.56C185.945 304.389 186.361 304.165 186.809 303.888L187.657 305.376C187.283 305.611 186.889 305.824 186.473 306.016C186.057 306.208 185.55 306.395 184.953 306.576C184.473 306.736 184.089 306.923 183.801 307.136C183.523 307.339 183.299 307.627 183.129 308C182.969 308.363 182.857 308.859 182.793 309.488C183.411 308.56 184.275 308.096 185.385 308.096ZM184.585 314.56C185.086 314.56 185.481 314.379 185.769 314.016C186.057 313.643 186.201 313.003 186.201 312.096C186.201 311.253 186.078 310.661 185.833 310.32C185.598 309.968 185.246 309.792 184.777 309.792C184.414 309.792 184.073 309.893 183.753 310.096C183.433 310.288 183.166 310.581 182.953 310.976V312.048C182.953 312.88 183.097 313.509 183.385 313.936C183.673 314.352 184.073 314.56 184.585 314.56ZM193.868 307.264C195.137 307.264 196.129 307.664 196.844 308.464C197.558 309.253 197.916 310.352 197.916 311.76C197.916 312.656 197.75 313.445 197.42 314.128C197.1 314.8 196.63 315.323 196.012 315.696C195.404 316.069 194.684 316.256 193.852 316.256C192.582 316.256 191.585 315.861 190.86 315.072C190.145 314.272 189.788 313.168 189.788 311.76C189.788 310.864 189.948 310.08 190.268 309.408C190.598 308.725 191.068 308.197 191.676 307.824C192.294 307.451 193.025 307.264 193.868 307.264ZM193.868 308.96C193.292 308.96 192.86 309.189 192.572 309.648C192.294 310.096 192.156 310.8 192.156 311.76C192.156 312.72 192.294 313.429 192.572 313.888C192.86 314.336 193.286 314.56 193.852 314.56C194.417 314.56 194.838 314.336 195.116 313.888C195.404 313.429 195.548 312.72 195.548 311.76C195.548 310.8 195.409 310.096 195.132 309.648C194.854 309.189 194.433 308.96 193.868 308.96ZM204.219 307.264C205.286 307.264 206.075 307.659 206.587 308.448C207.11 309.227 207.371 310.325 207.371 311.744C207.371 312.608 207.238 313.381 206.971 314.064C206.705 314.747 206.315 315.285 205.803 315.68C205.302 316.064 204.705 316.256 204.011 316.256C203.147 316.256 202.449 315.952 201.915 315.344V319.264L199.643 319.52V307.52H201.643L201.755 308.512C202.075 308.096 202.449 307.787 202.875 307.584C203.313 307.371 203.761 307.264 204.219 307.264ZM203.339 314.56C204.449 314.56 205.003 313.627 205.003 311.76C205.003 310.736 204.881 310.011 204.635 309.584C204.39 309.157 204.017 308.944 203.515 308.944C203.195 308.944 202.897 309.045 202.619 309.248C202.353 309.44 202.118 309.701 201.915 310.032V313.728C202.278 314.283 202.753 314.56 203.339 314.56ZM213.433 316.016C213.092 317.093 212.553 317.925 211.817 318.512C211.092 319.099 210.105 319.435 208.857 319.52L208.617 317.888C209.428 317.781 210.02 317.589 210.393 317.312C210.777 317.035 211.092 316.597 211.337 316H210.553L207.913 307.52H210.329L212.025 314.528L213.817 307.52H216.169L213.433 316.016ZM224.522 314.304V318.592H222.906L222.634 316H217.786L217.514 318.592H215.898V314.304H216.442C216.645 314.155 216.81 313.973 216.938 313.76C217.077 313.547 217.2 313.184 217.306 312.672C217.413 312.16 217.504 311.424 217.578 310.464L217.802 307.52H223.626V314.304H224.522ZM221.482 309.072H219.77L219.674 310.24C219.6 311.136 219.504 311.845 219.386 312.368C219.28 312.88 219.13 313.285 218.938 313.584C218.757 313.872 218.506 314.112 218.186 314.304H221.482V309.072ZM229.43 307.264C230.7 307.264 231.692 307.664 232.406 308.464C233.121 309.253 233.478 310.352 233.478 311.76C233.478 312.656 233.313 313.445 232.982 314.128C232.662 314.8 232.193 315.323 231.574 315.696C230.966 316.069 230.246 316.256 229.414 316.256C228.145 316.256 227.148 315.861 226.422 315.072C225.708 314.272 225.35 313.168 225.35 311.76C225.35 310.864 225.51 310.08 225.83 309.408C226.161 308.725 226.63 308.197 227.238 307.824C227.857 307.451 228.588 307.264 229.43 307.264ZM229.43 308.96C228.854 308.96 228.422 309.189 228.134 309.648C227.857 310.096 227.718 310.8 227.718 311.76C227.718 312.72 227.857 313.429 228.134 313.888C228.422 314.336 228.849 314.56 229.414 314.56C229.98 314.56 230.401 314.336 230.678 313.888C230.966 313.429 231.11 312.72 231.11 311.76C231.11 310.8 230.972 310.096 230.694 309.648C230.417 309.189 229.996 308.96 229.43 308.96ZM240.246 311.36C241.686 311.52 242.406 312.203 242.406 313.408C242.406 314.283 242.07 314.933 241.398 315.36C240.726 315.787 239.814 316 238.662 316H235.206V307.616C236.401 307.381 237.473 307.264 238.422 307.264C239.542 307.264 240.422 307.461 241.062 307.856C241.702 308.24 242.022 308.811 242.022 309.568C242.022 310.048 241.867 310.443 241.558 310.752C241.259 311.051 240.822 311.253 240.246 311.36ZM238.39 308.768C238.102 308.768 237.798 308.784 237.478 308.816V310.864H238.534C238.918 310.864 239.217 310.779 239.43 310.608C239.654 310.437 239.766 310.171 239.766 309.808C239.766 309.456 239.649 309.195 239.414 309.024C239.19 308.853 238.849 308.768 238.39 308.768ZM238.614 314.464C239.585 314.464 240.07 314.059 240.07 313.248C240.07 312.875 239.953 312.597 239.718 312.416C239.494 312.235 239.131 312.144 238.63 312.144H237.478V314.464H238.614ZM250.452 313.648C250.452 313.979 250.5 314.224 250.596 314.384C250.692 314.533 250.852 314.645 251.076 314.72L250.596 316.224C250.094 316.181 249.684 316.064 249.364 315.872C249.054 315.68 248.814 315.381 248.644 314.976C248.089 315.829 247.241 316.256 246.1 316.256C245.257 316.256 244.585 316.016 244.084 315.536C243.593 315.045 243.348 314.411 243.348 313.632C243.348 312.704 243.684 311.995 244.356 311.504C245.028 311.013 245.993 310.768 247.252 310.768H248.228V310.352C248.228 309.829 248.11 309.467 247.876 309.264C247.641 309.061 247.252 308.96 246.708 308.96C246.11 308.96 245.364 309.109 244.468 309.408L243.956 307.888C245.012 307.472 246.057 307.264 247.092 307.264C248.244 307.264 249.092 307.515 249.636 308.016C250.18 308.507 250.452 309.243 250.452 310.224V313.648ZM246.724 314.624C247.364 314.624 247.865 314.309 248.228 313.68V312.064H247.476C246.249 312.064 245.636 312.523 245.636 313.44C245.636 313.813 245.726 314.107 245.908 314.32C246.1 314.523 246.372 314.624 246.724 314.624ZM257.618 316V312.544H254.994V316H252.722V307.52H254.994V310.832H257.618V307.52H259.89V316H257.618ZM269.376 316H267.2V312.784C267.2 312.176 267.232 311.6 267.296 311.056C267.36 310.512 267.429 310.08 267.504 309.76L264.496 316H262.128V307.52H264.304V310.768C264.304 311.344 264.272 311.915 264.208 312.48C264.154 313.035 264.09 313.461 264.016 313.76L266.976 307.52H269.376V316ZM278.252 307.52V316H275.98V312.976H274.732L273.116 316H270.668L272.652 312.448C271.746 311.989 271.292 311.253 271.292 310.24C271.292 309.344 271.618 308.667 272.268 308.208C272.93 307.749 273.879 307.52 275.116 307.52H278.252ZM275.98 311.568V309.024H275.1C274.119 309.024 273.628 309.435 273.628 310.256C273.628 311.131 274.103 311.568 275.052 311.568H275.98Z" fill="#3D32CF"/>
<path d="M212.512 3.928L212.256 5.768H209.456V15H207.104V5.768H204.16V3.928H212.512ZM219.96 10.568C219.96 10.6747 219.944 10.968 219.912 11.448H214.616C214.691 12.216 214.899 12.76 215.24 13.08C215.581 13.4 216.045 13.56 216.632 13.56C216.995 13.56 217.336 13.5013 217.656 13.384C217.976 13.2667 218.323 13.08 218.696 12.824L219.64 14.104C218.691 14.872 217.619 15.256 216.424 15.256C215.091 15.256 214.067 14.856 213.352 14.056C212.637 13.256 212.28 12.1733 212.28 10.808C212.28 9.944 212.429 9.17067 212.728 8.488C213.037 7.79467 213.48 7.25067 214.056 6.856C214.643 6.46133 215.336 6.264 216.136 6.264C217.341 6.264 218.28 6.64267 218.952 7.4C219.624 8.15733 219.96 9.21333 219.96 10.568ZM217.704 9.928C217.704 8.52 217.197 7.816 216.184 7.816C215.715 7.816 215.347 7.992 215.08 8.344C214.824 8.68533 214.669 9.24533 214.616 10.024H217.704V9.928ZM228.36 6.52V15H226.088V8.216H224.216L224.04 10.28C223.933 11.496 223.8 12.408 223.64 13.016C223.491 13.6133 223.229 14.0827 222.856 14.424C222.493 14.7547 221.939 15.0107 221.192 15.192L220.648 13.528C221 13.3787 221.251 13.2133 221.4 13.032C221.549 12.84 221.656 12.5467 221.72 12.152C221.795 11.7573 221.864 11.0853 221.928 10.136L222.2 6.52H228.36ZM237.772 10.568C237.772 10.6747 237.756 10.968 237.724 11.448H232.428C232.503 12.216 232.711 12.76 233.052 13.08C233.394 13.4 233.858 13.56 234.444 13.56C234.807 13.56 235.148 13.5013 235.468 13.384C235.788 13.2667 236.135 13.08 236.508 12.824L237.452 14.104C236.503 14.872 235.431 15.256 234.236 15.256C232.903 15.256 231.879 14.856 231.164 14.056C230.45 13.256 230.092 12.1733 230.092 10.808C230.092 9.944 230.242 9.17067 230.54 8.488C230.85 7.79467 231.292 7.25067 231.868 6.856C232.455 6.46133 233.148 6.264 233.948 6.264C235.154 6.264 236.092 6.64267 236.764 7.4C237.436 8.15733 237.772 9.21333 237.772 10.568ZM235.516 9.928C235.516 8.52 235.01 7.816 233.996 7.816C233.527 7.816 233.159 7.992 232.892 8.344C232.636 8.68533 232.482 9.24533 232.428 10.024H235.516V9.928ZM248.457 15H246.297L246.057 11.736C246.025 11.2667 246.009 10.8187 246.009 10.392C246.009 10.0933 246.03 9.47467 246.073 8.536L244.569 14.12H242.633L241.193 8.552C241.236 9.10667 241.257 9.70933 241.257 10.36C241.257 10.6693 241.246 11.1227 241.225 11.72L241.033 15H238.873L239.609 6.52H242.329L243.609 12.136L244.969 6.52H247.705L248.457 15ZM257.319 10.568C257.319 10.6747 257.303 10.968 257.271 11.448H251.975C252.05 12.216 252.258 12.76 252.599 13.08C252.941 13.4 253.405 13.56 253.991 13.56C254.354 13.56 254.695 13.5013 255.015 13.384C255.335 13.2667 255.682 13.08 256.055 12.824L256.999 14.104C256.05 14.872 254.978 15.256 253.783 15.256C252.45 15.256 251.426 14.856 250.711 14.056C249.997 13.256 249.639 12.1733 249.639 10.808C249.639 9.944 249.789 9.17067 250.087 8.488C250.397 7.79467 250.839 7.25067 251.415 6.856C252.002 6.46133 252.695 6.264 253.495 6.264C254.701 6.264 255.639 6.64267 256.311 7.4C256.983 8.15733 257.319 9.21333 257.319 10.568ZM255.063 9.928C255.063 8.52 254.557 7.816 253.543 7.816C253.074 7.816 252.706 7.992 252.439 8.344C252.183 8.68533 252.029 9.24533 251.975 10.024H255.063V9.928ZM264.99 6.52L264.702 8.232H262.302V15H260.03V8.232H257.486V6.52H264.99ZM270.602 6.264C271.669 6.264 272.458 6.65867 272.97 7.448C273.493 8.22667 273.754 9.32533 273.754 10.744C273.754 11.608 273.621 12.3813 273.354 13.064C273.088 13.7467 272.698 14.2853 272.186 14.68C271.685 15.064 271.088 15.256 270.394 15.256C269.53 15.256 268.832 14.952 268.298 14.344V18.264L266.026 18.52V6.52H268.026L268.138 7.512C268.458 7.096 268.832 6.78667 269.258 6.584C269.696 6.37067 270.144 6.264 270.602 6.264ZM269.722 13.56C270.832 13.56 271.386 12.6267 271.386 10.76C271.386 9.736 271.264 9.01067 271.018 8.584C270.773 8.15733 270.4 7.944 269.898 7.944C269.578 7.944 269.28 8.04533 269.002 8.248C268.736 8.44 268.501 8.70133 268.298 9.032V12.728C268.661 13.2827 269.136 13.56 269.722 13.56ZM282.806 15H280.63V11.784C280.63 11.176 280.662 10.6 280.726 10.056C280.79 9.512 280.859 9.08 280.934 8.76L277.926 15H275.558V6.52H277.734V9.768C277.734 10.344 277.702 10.9147 277.638 11.48C277.584 12.0347 277.52 12.4613 277.446 12.76L280.406 6.52H282.806V15ZM291.682 6.52V15H289.41V11.976H288.162L286.546 15H284.098L286.082 11.448C285.175 10.9893 284.722 10.2533 284.722 9.24C284.722 8.344 285.047 7.66667 285.698 7.208C286.359 6.74933 287.309 6.52 288.546 6.52H291.682ZM289.41 10.568V8.024H288.53C287.549 8.024 287.058 8.43467 287.058 9.256C287.058 10.1307 287.533 10.568 288.482 10.568H289.41Z" fill="#3D32CF"/>
</svg>
