<svg width="1920" height="176" viewBox="0 0 1920 176" fill="none" xmlns="http://www.w3.org/2000/svg">
<path d="M0 0H1920V144H0V0Z" fill="white"/>
<path fill-rule="evenodd" clip-rule="evenodd" d="M212.122 73.7817H217.772C218.179 73.7817 218.201 74.3377 218.294 74.6849L220.224 82.9206H209.243C209.455 82.4592 209.728 81.1604 209.883 80.5802L211.526 74.7196C211.659 74.3533 211.758 73.7817 212.122 73.7817ZM250.501 80.803H237.068V74.5619H250.821C251.36 74.5619 252.237 75.2502 252.533 75.5583C254.799 77.9219 252.642 80.803 250.501 80.803ZM250.714 69.8809H237.068V63.6396H250.607C251.284 63.6396 252.102 64.2083 252.499 64.5602C254.677 66.4893 252.882 69.8809 250.714 69.8809ZM214.467 58.7359V58.1787C214.467 57.4826 215.294 56.6183 215.96 56.6183H216.493C217.158 56.6183 217.985 57.4826 217.985 58.1787V58.7359C217.985 59.4318 217.158 60.2961 216.493 60.2961H215.96C215.294 60.2961 214.467 59.4318 214.467 58.7359ZM229.819 38.0061C229.819 39.673 230.532 40.6809 232.271 40.6809C232.324 41.352 233.708 44.5299 233.963 45.2645L235.717 49.8954C236.065 50.608 236.282 51.3341 236.58 52.1139C236.934 53.042 239.153 58.4739 239.2 59.0702H232.697V63.974L218.833 59.1986C218.838 58.0333 218.881 57.4536 218.334 56.8112C216.315 54.441 213.614 56.352 213.614 58.1787V58.7359C213.614 59.9768 214.849 61.1878 216.066 61.1878C215.629 63.1513 215.445 65.2669 215.152 67.2531C215.09 67.6737 215.055 67.9697 215.009 68.3294C214.941 68.8551 214.882 68.8957 214.787 69.3236C213.858 69.3236 211.164 69.158 210.487 69.3977C209.704 69.6748 208.306 70.7154 207.926 71.4013C207.467 72.23 204.379 83.9787 203.9 85.6938C203.616 86.7125 201.994 92.0722 201.994 93.0627C201.994 93.7235 201.857 94.1547 202.275 94.6633C202.668 95.1413 203.062 95.4708 203.7 95.626C203.683 96.4288 203.322 97.8969 203.196 98.6657L202.42 103.204C202.186 104.738 202.279 104.026 201.291 104.699L200.828 105.106C199.531 106.639 200.75 109 202.207 109C202.97 109 203.557 108.889 204.121 108.326L204.522 107.742C205.161 106.496 204.537 104.764 203.167 104.431C203.167 103.188 204.223 97.9504 204.5 96.2394C204.659 95.2536 204.949 95.8688 205.864 94.8789C206.676 93.9994 207.393 88.9671 208.071 87.4901H221.397L222.952 94.2226C223.043 94.4987 223.284 94.8485 223.45 95.0399C223.667 95.29 223.97 95.4538 224.342 95.5555C224.825 95.6876 225.063 95.5713 225.21 95.9866C225.262 96.1351 225.365 96.9997 225.402 97.234C225.54 98.0948 225.65 98.7864 225.783 99.6225C225.905 100.393 226.057 101.224 226.179 101.994C226.298 102.745 226.514 103.654 226.514 104.431C226.373 104.53 226.217 104.631 226.069 104.745C224.15 106.222 225.471 109 227.047 109C227.809 109 228.397 108.889 228.96 108.326C230.162 107.124 229.609 104.923 228.033 104.403C227.156 104.113 227.441 104.462 227.289 103.397C227.208 102.827 227.131 102.396 227.047 101.867C226.819 100.433 226.088 96.9752 226.088 95.626C226.088 95.3057 227.26 95.0776 227.26 93.5084C227.26 91.8727 224.282 80.7851 223.826 78.9321L222.508 73.6232C222.239 72.6351 222.231 71.5649 221.519 70.867L221.122 70.5028C220.688 70.1239 220.306 69.7559 219.777 69.5683C218.619 69.1581 216.926 69.3236 215.64 69.3236C215.541 68.8355 215.743 67.9599 215.821 67.3956L216.417 63.3379C216.497 62.8342 216.706 61.7419 216.706 61.1878C219.635 60.4745 215.987 59.1714 221.97 61.2572L229.086 63.7369C230.243 64.1398 231.513 64.6885 232.697 64.977V85.3726H250.821C254.664 85.3726 257.964 81.5895 257.964 77.6824C257.964 75.6198 256.968 73.017 255.831 72.2214C256.298 71.4929 256.831 70.9128 257.219 70.1051C258.081 68.3046 258.216 65.8013 257.395 63.8992C256.464 61.7403 254.943 59.8817 252.526 59.2931C252.817 57.989 253.754 55.9741 254.263 54.6441C254.911 52.9513 259.295 41.88 259.563 40.6809C260.654 40.6809 260.921 40.7598 261.608 40.256C261.874 40.0608 262.007 39.9368 262.188 39.6361C263.181 37.9856 261.954 36 260.629 36C259.78 36 259.033 36.1748 258.515 36.9104C257.677 38.0985 258.091 39.1025 258.816 40.2351C258.635 41.0495 258.238 41.8018 257.948 42.5596L253.44 54.3416C252.944 55.6393 251.954 57.8102 251.674 59.0702H240.16C239.89 57.8573 237.159 51.1174 236.657 49.8038C236.058 48.2357 235.498 46.7752 234.89 45.1866C234.577 44.3665 234.319 43.6913 234.007 42.8779C233.727 42.1448 233.286 41.1881 233.124 40.4579C235.397 38.8662 233.968 36 232.377 36C231.345 36 230.557 36.2949 230.063 37.2582C229.935 37.5076 229.819 37.6916 229.819 38.0061Z" fill="#3D32CF"/>
<path fill-rule="evenodd" clip-rule="evenodd" d="M183.871 87.9359V87.3787C183.871 86.6826 184.698 85.8183 185.363 85.8183H185.896C186.562 85.8183 187.389 86.6826 187.389 87.3787V87.9359C187.389 88.6318 186.562 89.4961 185.896 89.4961H185.363C184.698 89.4961 183.871 88.6318 183.871 87.9359ZM167.453 38.0061C167.453 38.7192 167.596 39.5142 168.082 40.0229C168.833 40.8077 169.731 40.6495 170.651 40.5694C171.384 41.7132 172.147 42.7197 172.935 43.8659C174.623 46.3201 176.511 48.6479 178.137 51.1328C178.527 51.7277 178.327 54.4654 178.327 55.2809C178.327 58.3182 178.063 64.0207 178.511 66.457C178.796 68.0094 179.502 69.2444 180.519 70.0419C181.703 70.9715 183.207 71.7755 184.937 71.7755C184.937 76.2391 185.15 80.4251 185.15 84.9267C184.559 85.0706 183.613 85.4917 183.444 86.1526C182.785 86.0952 178.196 83.7874 177.184 83.3355C176.105 82.8536 175.144 82.358 174.078 81.9015C173.08 81.4736 171.917 80.7251 170.865 80.4687C170.865 79.0037 170.716 76.2398 170.91 74.9424C171.038 74.0866 170.757 70.721 170.471 69.9576C169.92 68.4855 169.225 67.7366 168.052 66.9148C167.295 66.385 165.21 65.4229 164.042 65.4229H146.771C143.808 65.4229 141.717 67.1096 140.55 69.5068C140.247 70.1296 139.735 71.3706 139.735 72.2214V90.1648C139.735 91.0505 140.523 91.5536 141.227 91.7252C141.188 92.22 140.98 92.8469 140.847 93.3337L138.874 100.744C138.584 101.894 138.543 101.16 137.666 101.599C136.289 102.288 135.797 104.237 136.953 105.444C137.825 106.357 139.297 106.287 140.156 105.428C140.982 104.601 140.975 103.286 140.359 102.329C140.121 101.958 139.89 101.848 139.522 101.644C139.848 100.933 139.972 100.052 140.199 99.2319L142.187 91.7252C144.825 91.7252 144.106 89.3965 144.106 86.9328C144.106 83.926 143.92 75.652 144.239 73.2522C144.495 71.3284 145.907 69.7694 147.837 69.7694C149.707 69.7694 151.198 69.8809 153.061 69.8809V86.8213C153.061 88.5322 156.849 88.8105 157.364 87.419C157.561 86.8869 157.464 73.1672 157.428 70.88C157.42 70.3839 157.302 69.8809 157.752 69.8809H163.189C163.963 69.8809 164.901 70.5775 165.298 71.0196C165.777 71.5527 166.26 72.415 166.435 73.2854C166.77 74.9454 166.343 86.8894 166.489 90.1701C166.532 91.1551 167.303 91.7587 168.199 91.8366C168.225 93.0392 171.263 102.782 171.291 104.096C169.864 104.495 169.835 106.831 170.748 107.785C171.823 108.909 173.664 108.525 174.352 107.184C174.812 106.288 174.623 104.961 173.853 104.316C173.363 103.905 173.03 103.762 172.144 103.762C172.071 102.843 170.876 98.7282 170.614 97.783C170.317 96.715 169.45 92.7024 169.052 91.8366C171.281 91.7847 170.865 89.897 170.865 87.6015C170.865 85.5583 170.865 83.515 170.865 81.4717C171.694 81.6738 173.119 82.4437 173.921 82.8464C176.414 84.0984 178.948 85.1126 181.455 86.3381C181.989 86.5995 182.538 86.779 183.018 87.0443C183.018 88.2126 183.005 88.7283 183.574 89.3603C184.261 90.1231 184.801 90.3878 185.896 90.3878C187.022 90.3878 188.242 89.1126 188.242 87.9359V87.3787C188.242 86.1903 187.061 85.0187 186.003 84.9267C186.003 80.429 185.79 76.2079 185.79 71.7755H202.208C203.907 71.7755 203.892 68.6699 202.774 67.6174C202.237 67.1121 201.031 67.3175 200.289 67.3175C198.323 67.3175 196.723 67.2061 194.745 67.2061H186.323C184.627 67.2085 183.515 66.8316 182.866 64.9125C182.508 63.8512 182.698 52.245 182.698 50.2656C182.698 49.298 182.698 48.3308 182.703 47.3633C182.707 46.377 182.376 45.6545 181.632 45.4732C182.001 44.8981 183.539 43.9493 184.191 43.4679L188.562 40.2351C188.838 40.2351 191.001 41.6717 192.155 39.4226C192.922 37.9291 191.801 36 190.481 36C189.448 36 188.661 36.2949 188.166 37.2582C187.834 37.9059 187.839 38.8085 188.135 39.4549C187.157 40.1398 186.213 40.8656 185.256 41.5717L180.948 44.7576C180.219 45.3183 179.888 45.1442 179.21 45.5049C178.627 45.8152 178.339 46.2693 178.322 47.1397C178.305 48.0203 178.327 48.9349 178.327 49.8198C177.89 49.4853 175.404 45.7407 174.855 44.9796L172.266 41.3336C172.109 41.1148 171.398 40.2273 171.398 40.0122C171.398 39.8183 172.699 38.1189 171.301 36.6579C170.37 35.6838 168.672 35.812 167.898 36.9104C167.685 37.2116 167.453 37.6058 167.453 38.0061Z" fill="#3D32CF"/>
<path fill-rule="evenodd" clip-rule="evenodd" d="M125.983 105.1V104.543C125.983 103.847 126.809 102.982 127.475 102.982H128.008C128.674 102.982 129.501 103.847 129.501 104.543V105.1C129.501 105.796 128.674 106.66 128.008 106.66H127.475C126.809 106.66 125.983 105.796 125.983 105.1ZM134.831 51.2693C134.831 51.9991 134.928 52.4017 135.257 53.0525C134.834 53.7132 134.059 54.2453 133.477 54.7572L131.605 56.4783C130.827 57.2697 128.343 59.2733 127.901 59.9624C127.246 59.8027 126.482 59.562 125.643 59.8302C124.933 60.0574 124.383 60.5836 124.383 61.5228V84.7045C124.383 85.8583 125.52 86.3763 126.516 86.3763C126.516 87.797 126.601 88.8443 126.618 90.2815L127.046 100.087C127.043 100.874 127.155 101.244 127.155 102.091C126.716 102.311 126.565 102.261 126.171 102.622L125.881 102.876C125.526 103.12 125.492 102.892 125.449 103.428C125.11 103.333 123.04 101.288 122.649 100.895L121.263 99.5568C121.025 99.306 120.866 99.1308 120.627 98.8843C119.36 97.5732 115.095 93.8183 114.469 92.8403C115.049 92.4343 115.002 92.2329 115.002 91.5029C115.002 90.594 114.563 89.8975 113.894 89.4293C113.445 89.1154 113.239 89.1549 112.551 89.1609C112.018 89.1655 111.484 89.1624 110.951 89.1624C109.207 86.4397 106.422 82.7375 104.463 80.0074C104.084 79.4793 103.745 79.0075 103.366 78.4793C103.043 78.0291 102.456 77.4548 102.315 76.9029C104.981 75.4284 107.432 73.583 110.092 72.1045C111.197 71.4901 113.535 72.251 114.704 71.7991C116.257 71.1986 115.899 67.2068 114.042 67.2068H109.352C108.886 67.2068 95.3864 76.1118 94.4263 76.3456C94.4263 74.5625 94.4263 72.7792 94.4263 70.996C94.4263 70.207 94.5701 69.0516 94.2936 68.4599C93.7513 67.2993 92.8205 67.3181 91.761 67.3181C89.8399 67.3181 92.209 68.462 88.0163 66.8865L81.9377 64.548C81.582 64.4092 80.9939 64.164 80.6738 64.0861C80.6738 62.9214 80.7384 62.8224 80.2735 62.0528C79.551 60.8567 77.7557 60.7625 76.8256 61.7349C75.5656 63.052 76.1061 65.7579 78.6482 65.7579C79.2768 65.7579 80.0049 65.2448 80.2473 64.8663C81.0999 65.3378 84.0503 66.3643 85.1378 66.7751C86.6892 67.361 88.5809 67.916 90.0554 68.6555V86.7106C90.0554 88.3595 89.8591 91.2586 90.1619 92.6174C89.7028 92.7292 89.2888 93.0358 88.8476 93.2495C88.3208 93.5048 87.9702 93.651 87.4611 93.9177C86.9596 94.1805 86.5833 94.3293 86.0739 94.585L83.4113 95.9251C82.7358 96.2786 79.7151 97.8432 79.1813 97.8556C78.8003 96.3639 76.5689 96.3298 75.6529 97.2876C74.393 98.6047 74.9334 101.311 77.4755 101.311C78.7981 101.311 79.5011 100.051 79.5011 98.8586C80.0154 98.5742 80.4713 98.3978 81.0305 98.1171C81.6236 97.8195 81.9928 97.612 82.6236 97.3306C84.5671 96.4634 88.6485 94.1949 90.3766 93.4973C91.0176 93.2386 92.0252 94.4327 93.5582 93.4932C94.7853 92.7413 94.3229 90.4676 94.3195 88.9394C94.3169 87.7259 94.4263 86.7867 94.4263 85.4846C94.4263 84.2587 94.4263 83.0327 94.4263 81.8067C95.0968 81.4359 95.7251 81.0661 96.4064 80.6448C97.0735 80.2322 97.7199 79.8264 98.3709 79.4663C98.8924 79.8314 100.521 82.2739 101.006 82.9529C101.88 84.1778 102.686 85.2969 103.564 86.5194L108.057 92.745C108.3 93.0845 108.609 93.3306 108.712 93.732L112.875 93.7371C113.55 93.7322 113.538 93.6319 114.042 93.509C114.455 94.1532 117.947 97.3181 118.815 98.2156L122.251 101.645C122.756 102.048 123.145 102.524 123.609 103.012C123.892 103.31 124.029 103.367 124.302 103.624C124.63 103.933 124.633 104.165 125.13 104.208C125.13 105.377 125.117 105.892 125.686 106.524C126.373 107.287 126.913 107.552 128.008 107.552C129.134 107.552 130.353 106.277 130.353 105.1V104.543C130.353 103.344 129.141 102.117 128.008 102.091L127.577 92.3989C127.552 90.2712 127.368 88.5035 127.368 86.3763C128.085 86.0168 128.648 85.7163 128.648 84.7045V61.2998C128.648 60.9598 128.545 60.8501 128.434 60.6311C129.33 60.004 130.345 58.8186 131.222 58.0844L132.191 57.203C132.367 57.0403 132.44 56.9249 132.624 56.7633L133.526 55.9232C133.755 55.7116 133.828 55.7038 134.059 55.4775C134.237 55.3037 134.307 55.2 134.495 55.0421C134.736 54.8408 134.78 54.8326 135.018 54.5856C135.281 54.3119 135.718 53.9216 136.004 53.7212C136.735 53.8992 136.538 53.9441 137.39 53.9441C137.955 53.9441 138.581 53.4349 138.864 53.0337C140.01 51.4093 138.772 49.2632 137.39 49.2632C136.627 49.2632 136.04 49.374 135.476 49.9377C135.17 50.2441 134.831 50.7978 134.831 51.2693Z" fill="#3D32CF"/>
<path fill-rule="evenodd" clip-rule="evenodd" d="M260.522 95.4035C260.522 96.2008 260.568 96.8104 261.152 97.4203C262.673 99.0109 265 97.509 265 96.0722C265 95.2748 264.954 94.6652 264.371 94.0553C262.831 92.4461 260.522 94.0078 260.522 95.4035Z" fill="#3D32CF"/>
<path fill-rule="evenodd" clip-rule="evenodd" d="M207.858 48.26C207.858 49.0573 207.904 49.6671 208.487 50.2769C209.405 51.2368 211.24 51.2626 212.054 49.7489C213.01 47.9715 211.488 46.2539 210.417 46.2539C209.633 46.2539 208.909 46.3037 208.302 47.1643C208.205 47.3024 208.186 47.3479 208.102 47.5122C207.974 47.7616 207.858 47.9455 207.858 48.26Z" fill="#3D32CF"/>
<path fill-rule="evenodd" clip-rule="evenodd" d="M101.889 56.8416C101.889 57.6389 101.935 58.2485 102.518 58.8583C103.35 59.7284 104.779 59.7841 105.721 58.8417C105.831 58.7317 105.798 58.7816 105.922 58.6058C106.019 58.4679 106.038 58.4223 106.122 58.2581C106.993 56.5604 105.539 54.8354 104.447 54.8354C103.435 54.8354 102.689 55.0104 102.133 56.0936C102.005 56.3431 101.889 56.527 101.889 56.8416Z" fill="#3D32CF"/>
<g filter="url(#filter0_d_204_10)">
<rect x="1645" y="47" width="200" height="50" rx="10" fill="#3D32CF"/>
</g>
<path d="M1681.23 65.256C1682.37 65.256 1683.35 65.514 1684.18 66.03C1685.01 66.534 1685.64 67.272 1686.09 68.244C1686.53 69.216 1686.75 70.392 1686.75 71.772C1686.75 73.128 1686.53 74.298 1686.09 75.282C1685.64 76.254 1685.01 76.998 1684.18 77.514C1683.35 78.03 1682.37 78.288 1681.23 78.288C1680.09 78.288 1679.1 78.036 1678.26 77.532C1677.43 77.016 1676.79 76.272 1676.35 75.3C1675.91 74.316 1675.68 73.14 1675.68 71.772C1675.68 70.428 1675.91 69.27 1676.35 68.298C1676.81 67.314 1677.45 66.564 1678.28 66.048C1679.12 65.52 1680.1 65.256 1681.23 65.256ZM1681.23 67.236C1680.32 67.236 1679.63 67.596 1679.16 68.316C1678.7 69.036 1678.47 70.188 1678.47 71.772C1678.47 73.356 1678.71 74.508 1679.18 75.228C1679.64 75.948 1680.33 76.308 1681.23 76.308C1682.14 76.308 1682.82 75.954 1683.28 75.246C1683.74 74.526 1683.96 73.368 1683.96 71.772C1683.96 70.176 1683.74 69.024 1683.28 68.316C1682.82 67.596 1682.14 67.236 1681.23 67.236ZM1692.68 68.172C1693.32 68.172 1693.89 68.268 1694.39 68.46C1694.91 68.64 1695.4 68.928 1695.85 69.324L1694.74 70.836C1694.42 70.596 1694.12 70.422 1693.82 70.314C1693.53 70.206 1693.21 70.152 1692.86 70.152C1691.51 70.152 1690.83 71.196 1690.83 73.284C1690.83 74.34 1691 75.096 1691.35 75.552C1691.7 76.008 1692.2 76.236 1692.85 76.236C1693.18 76.236 1693.49 76.188 1693.76 76.092C1694.04 75.984 1694.36 75.81 1694.74 75.57L1695.85 77.172C1694.94 77.916 1693.9 78.288 1692.72 78.288C1691.78 78.288 1690.97 78.084 1690.27 77.676C1689.59 77.268 1689.06 76.692 1688.69 75.948C1688.32 75.192 1688.13 74.31 1688.13 73.302C1688.13 72.294 1688.32 71.406 1688.69 70.638C1689.06 69.858 1689.59 69.252 1690.27 68.82C1690.97 68.388 1691.77 68.172 1692.68 68.172ZM1704.54 68.46L1704.21 70.386H1701.51V78H1698.96V70.386H1696.1V68.46H1704.54ZM1712.27 75.354C1712.27 75.726 1712.33 76.002 1712.43 76.182C1712.54 76.35 1712.72 76.476 1712.97 76.56L1712.43 78.252C1711.87 78.204 1711.41 78.072 1711.05 77.856C1710.7 77.64 1710.43 77.304 1710.24 76.848C1709.61 77.808 1708.66 78.288 1707.38 78.288C1706.43 78.288 1705.67 78.018 1705.11 77.478C1704.56 76.926 1704.28 76.212 1704.28 75.336C1704.28 74.292 1704.66 73.494 1705.41 72.942C1706.17 72.39 1707.26 72.114 1708.67 72.114H1709.77V71.646C1709.77 71.058 1709.64 70.65 1709.37 70.422C1709.11 70.194 1708.67 70.08 1708.06 70.08C1707.39 70.08 1706.55 70.248 1705.54 70.584L1704.96 68.874C1706.15 68.406 1707.33 68.172 1708.49 68.172C1709.79 68.172 1710.74 68.454 1711.35 69.018C1711.97 69.57 1712.27 70.398 1712.27 71.502V75.354ZM1708.08 76.452C1708.8 76.452 1709.36 76.098 1709.77 75.39V73.572H1708.92C1707.54 73.572 1706.85 74.088 1706.85 75.12C1706.85 75.54 1706.96 75.87 1707.16 76.11C1707.38 76.338 1707.68 76.452 1708.08 76.452ZM1720.5 72.78C1722.12 72.96 1722.93 73.728 1722.93 75.084C1722.93 76.068 1722.55 76.8 1721.79 77.28C1721.04 77.76 1720.01 78 1718.71 78H1714.83V68.568C1716.17 68.304 1717.38 68.172 1718.44 68.172C1719.7 68.172 1720.69 68.394 1721.41 68.838C1722.13 69.27 1722.49 69.912 1722.49 70.764C1722.49 71.304 1722.32 71.748 1721.97 72.096C1721.64 72.432 1721.14 72.66 1720.5 72.78ZM1718.41 69.864C1718.08 69.864 1717.74 69.882 1717.38 69.918V72.222H1718.57C1719 72.222 1719.34 72.126 1719.58 71.934C1719.83 71.742 1719.96 71.442 1719.96 71.034C1719.96 70.638 1719.82 70.344 1719.56 70.152C1719.31 69.96 1718.92 69.864 1718.41 69.864ZM1718.66 76.272C1719.75 76.272 1720.3 75.816 1720.3 74.904C1720.3 74.484 1720.17 74.172 1719.9 73.968C1719.65 73.764 1719.24 73.662 1718.68 73.662H1717.38V76.272H1718.66ZM1733.02 78H1730.57V74.382C1730.57 73.698 1730.61 73.05 1730.68 72.438C1730.75 71.826 1730.83 71.34 1730.91 70.98L1727.53 78H1724.86V68.46H1727.31V72.114C1727.31 72.762 1727.28 73.404 1727.2 74.04C1727.14 74.664 1727.07 75.144 1726.99 75.48L1730.32 68.46H1733.02V78ZM1742.77 68.46L1742.45 70.386H1739.75V78H1737.19V70.386H1734.33V68.46H1742.77ZM1747.3 71.448C1748.81 71.448 1749.92 71.73 1750.61 72.294C1751.32 72.846 1751.68 73.656 1751.68 74.724C1751.68 75.792 1751.3 76.608 1750.56 77.172C1749.83 77.724 1748.87 78 1747.7 78H1743.94V68.46H1746.49V71.448H1747.3ZM1747.45 76.272C1748.51 76.272 1749.05 75.744 1749.05 74.688C1749.05 74.16 1748.92 73.77 1748.65 73.518C1748.39 73.266 1747.93 73.14 1747.28 73.14H1746.49V76.272H1747.45ZM1760.6 68.172C1761.63 68.172 1762.49 68.412 1763.19 68.892C1763.9 69.36 1764.25 69.996 1764.25 70.8C1764.25 71.34 1764.08 71.784 1763.75 72.132C1763.41 72.48 1762.9 72.738 1762.2 72.906C1763.05 73.038 1763.69 73.29 1764.11 73.662C1764.53 74.022 1764.74 74.544 1764.74 75.228C1764.74 76.224 1764.34 76.986 1763.53 77.514C1762.74 78.03 1761.7 78.288 1760.4 78.288C1758.88 78.288 1757.6 77.898 1756.57 77.118L1757.79 75.678C1758.22 75.954 1758.62 76.152 1759 76.272C1759.38 76.38 1759.82 76.434 1760.31 76.434C1761.49 76.434 1762.07 75.996 1762.07 75.12C1762.07 74.7 1761.91 74.4 1761.59 74.22C1761.28 74.028 1760.82 73.932 1760.22 73.932H1758.78L1758.94 72.222H1760.02C1760.54 72.222 1760.94 72.126 1761.23 71.934C1761.52 71.73 1761.66 71.43 1761.66 71.034C1761.66 70.674 1761.53 70.41 1761.26 70.242C1761.01 70.062 1760.67 69.972 1760.24 69.972C1759.81 69.972 1759.42 70.032 1759.09 70.152C1758.76 70.26 1758.42 70.428 1758.06 70.656L1756.87 69.27C1757.4 68.898 1757.96 68.622 1758.56 68.442C1759.16 68.262 1759.84 68.172 1760.6 68.172ZM1773.8 75.354C1773.8 75.726 1773.85 76.002 1773.96 76.182C1774.07 76.35 1774.25 76.476 1774.5 76.56L1773.96 78.252C1773.39 78.204 1772.93 78.072 1772.57 77.856C1772.22 77.64 1771.95 77.304 1771.76 76.848C1771.14 77.808 1770.18 78.288 1768.9 78.288C1767.95 78.288 1767.2 78.018 1766.63 77.478C1766.08 76.926 1765.8 76.212 1765.8 75.336C1765.8 74.292 1766.18 73.494 1766.94 72.942C1767.69 72.39 1768.78 72.114 1770.2 72.114H1771.29V71.646C1771.29 71.058 1771.16 70.65 1770.9 70.422C1770.63 70.194 1770.2 70.08 1769.58 70.08C1768.91 70.08 1768.07 70.248 1767.06 70.584L1766.49 68.874C1767.68 68.406 1768.85 68.172 1770.02 68.172C1771.31 68.172 1772.27 68.454 1772.88 69.018C1773.49 69.57 1773.8 70.398 1773.8 71.502V75.354ZM1769.6 76.452C1770.32 76.452 1770.89 76.098 1771.29 75.39V73.572H1770.45C1769.07 73.572 1768.38 74.088 1768.38 75.12C1768.38 75.54 1768.48 75.87 1768.68 76.11C1768.9 76.338 1769.21 76.452 1769.6 76.452ZM1783.82 68.46V78H1781.26V74.598H1779.86L1778.04 78H1775.29L1777.52 74.004C1776.5 73.488 1775.99 72.66 1775.99 71.52C1775.99 70.512 1776.36 69.75 1777.09 69.234C1777.83 68.718 1778.9 68.46 1780.29 68.46H1783.82ZM1781.26 73.014V70.152H1780.27C1779.17 70.152 1778.62 70.614 1778.62 71.538C1778.62 72.522 1779.15 73.014 1780.22 73.014H1781.26ZM1792 72.78C1793.62 72.96 1794.43 73.728 1794.43 75.084C1794.43 76.068 1794.06 76.8 1793.3 77.28C1792.54 77.76 1791.52 78 1790.22 78H1786.33V68.568C1787.68 68.304 1788.88 68.172 1789.95 68.172C1791.21 68.172 1792.2 68.394 1792.92 68.838C1793.64 69.27 1794 69.912 1794 70.764C1794 71.304 1793.83 71.748 1793.48 72.096C1793.14 72.432 1792.65 72.66 1792 72.78ZM1789.92 69.864C1789.59 69.864 1789.25 69.882 1788.89 69.918V72.222H1790.08C1790.51 72.222 1790.85 72.126 1791.09 71.934C1791.34 71.742 1791.46 71.442 1791.46 71.034C1791.46 70.638 1791.33 70.344 1791.07 70.152C1790.82 69.96 1790.43 69.864 1789.92 69.864ZM1790.17 76.272C1791.26 76.272 1791.81 75.816 1791.81 74.904C1791.81 74.484 1791.67 74.172 1791.41 73.968C1791.16 73.764 1790.75 73.662 1790.19 73.662H1788.89V76.272H1790.17ZM1804.6 68.46L1801.97 72.888L1804.85 78H1802.1L1799.88 73.824H1798.93V78H1796.37V68.46H1798.93V72.204H1799.94L1802.08 68.46H1804.6ZM1811.02 78.018C1810.64 79.23 1810.03 80.166 1809.21 80.826C1808.39 81.486 1807.28 81.864 1805.88 81.96L1805.61 80.124C1806.52 80.004 1807.18 79.788 1807.6 79.476C1808.04 79.164 1808.39 78.672 1808.67 78H1807.78L1804.81 68.46H1807.53L1809.44 76.344L1811.46 68.46H1814.1L1811.02 78.018Z" fill="white"/>
<path d="M1407.03 66.45V70.325H1410.78V73.1H1407.03V76.95H1404.03V73.1H1400.3V70.325H1404.03V66.45H1407.03ZM1421.62 63.15V65.6L1415.42 80.375L1412.2 79.3L1417.95 65.85H1411V63.15H1421.62ZM1435.9 60.15C1434.7 61.8833 1433.82 63.5917 1433.27 65.275C1432.72 66.9417 1432.45 68.9333 1432.45 71.25C1432.45 73.5667 1432.72 75.5667 1433.27 77.25C1433.82 78.9167 1434.7 80.6167 1435.9 82.35L1433.62 83.875C1432.54 82.375 1431.68 81.0833 1431.05 80C1430.41 78.9333 1429.88 77.675 1429.45 76.225C1429.03 74.7583 1428.82 73.1 1428.82 71.25C1428.82 69.4 1429.03 67.75 1429.45 66.3C1429.88 64.8333 1430.41 63.5667 1431.05 62.5C1431.68 61.4167 1432.54 60.125 1433.62 58.625L1435.9 60.15ZM1443.18 62.825C1445.15 62.825 1446.65 63.4167 1447.68 64.6C1448.73 65.7833 1449.25 67.3667 1449.25 69.35C1449.25 71.6333 1448.9 73.5167 1448.18 75C1447.48 76.4667 1446.4 77.65 1444.93 78.55C1443.46 79.4333 1441.53 80.1417 1439.13 80.675L1438.38 78.15C1440.58 77.6 1442.24 76.8917 1443.35 76.025C1444.49 75.1417 1445.19 73.925 1445.45 72.375C1444.55 73.525 1443.37 74.1 1441.9 74.1C1441.02 74.1 1440.21 73.875 1439.48 73.425C1438.76 72.975 1438.19 72.3333 1437.75 71.5C1437.34 70.6667 1437.13 69.6917 1437.13 68.575C1437.13 67.425 1437.4 66.4167 1437.93 65.55C1438.46 64.6833 1439.19 64.0167 1440.1 63.55C1441.02 63.0667 1442.05 62.825 1443.18 62.825ZM1442.93 71.55C1444 71.55 1444.9 71.0167 1445.63 69.95C1445.65 68.3 1445.46 67.1333 1445.08 66.45C1444.71 65.75 1444.08 65.4 1443.18 65.4C1442.4 65.4 1441.78 65.6667 1441.33 66.2C1440.9 66.7167 1440.68 67.475 1440.68 68.475C1440.68 69.5417 1440.88 70.325 1441.28 70.825C1441.7 71.3083 1442.25 71.55 1442.93 71.55ZM1455.51 62.825C1456.68 62.825 1457.69 63.0417 1458.54 63.475C1459.39 63.8917 1460.03 64.4667 1460.46 65.2C1460.91 65.9167 1461.14 66.7167 1461.14 67.6C1461.14 68.5167 1460.94 69.4 1460.54 70.25C1460.15 71.1 1459.49 72.0583 1458.54 73.125C1457.6 74.1917 1456.24 75.5667 1454.44 77.25H1461.51L1461.11 80H1450.39V77.425C1452.49 75.325 1454 73.7583 1454.94 72.725C1455.87 71.6917 1456.53 70.8167 1456.91 70.1C1457.29 69.3833 1457.49 68.65 1457.49 67.9C1457.49 67.1833 1457.28 66.6167 1456.86 66.2C1456.44 65.7833 1455.89 65.575 1455.19 65.575C1454.57 65.575 1454.02 65.7167 1453.54 66C1453.05 66.2667 1452.54 66.7167 1452.01 67.35L1449.89 65.65C1451.32 63.7667 1453.19 62.825 1455.51 62.825ZM1468.3 62.825C1469.47 62.825 1470.48 63.0417 1471.33 63.475C1472.18 63.8917 1472.82 64.4667 1473.25 65.2C1473.7 65.9167 1473.93 66.7167 1473.93 67.6C1473.93 68.5167 1473.73 69.4 1473.33 70.25C1472.94 71.1 1472.28 72.0583 1471.33 73.125C1470.39 74.1917 1469.03 75.5667 1467.23 77.25H1474.3L1473.9 80H1463.18V77.425C1465.28 75.325 1466.79 73.7583 1467.73 72.725C1468.66 71.6917 1469.32 70.8167 1469.7 70.1C1470.09 69.3833 1470.28 68.65 1470.28 67.9C1470.28 67.1833 1470.07 66.6167 1469.65 66.2C1469.24 65.7833 1468.68 65.575 1467.98 65.575C1467.36 65.575 1466.81 65.7167 1466.33 66C1465.84 66.2667 1465.34 66.7167 1464.8 67.35L1462.68 65.65C1464.11 63.7667 1465.99 62.825 1468.3 62.825ZM1477.92 58.625C1479 60.125 1479.86 61.4167 1480.5 62.5C1481.13 63.5667 1481.65 64.8333 1482.07 66.3C1482.5 67.75 1482.72 69.4 1482.72 71.25C1482.72 73.1 1482.5 74.7583 1482.07 76.225C1481.65 77.675 1481.13 78.9333 1480.5 80C1479.86 81.0833 1479 82.375 1477.92 83.875L1475.67 82.35C1476.87 80.6167 1477.75 78.9167 1478.3 77.25C1478.85 75.5667 1479.12 73.5667 1479.12 71.25C1479.12 68.9333 1478.85 66.9417 1478.3 65.275C1477.75 63.5917 1476.87 61.8833 1475.67 60.15L1477.92 58.625ZM1495.31 62.825C1496.47 62.825 1497.48 63.0417 1498.33 63.475C1499.18 63.8917 1499.82 64.4667 1500.26 65.2C1500.71 65.9167 1500.93 66.7167 1500.93 67.6C1500.93 68.5167 1500.73 69.4 1500.33 70.25C1499.95 71.1 1499.28 72.0583 1498.33 73.125C1497.4 74.1917 1496.03 75.5667 1494.23 77.25H1501.31L1500.91 80H1490.18V77.425C1492.28 75.325 1493.8 73.7583 1494.73 72.725C1495.66 71.6917 1496.32 70.8167 1496.71 70.1C1497.09 69.3833 1497.28 68.65 1497.28 67.9C1497.28 67.1833 1497.07 66.6167 1496.66 66.2C1496.24 65.7833 1495.68 65.575 1494.98 65.575C1494.36 65.575 1493.81 65.7167 1493.33 66C1492.85 66.2667 1492.34 66.7167 1491.81 67.35L1489.68 65.65C1491.11 63.7667 1492.99 62.825 1495.31 62.825ZM1514.84 73.55V76.25H1512.87V80H1509.42L1509.39 76.25H1502.27V73.85L1507.12 62.775L1510.12 63.9L1505.94 73.55H1509.44L1509.82 69.425H1512.87V73.55H1514.84ZM1526.31 65.725H1520.09V69.6C1520.9 69.2167 1521.75 69.025 1522.64 69.025C1523.57 69.025 1524.4 69.2417 1525.11 69.675C1525.85 70.1083 1526.42 70.7417 1526.84 71.575C1527.25 72.3917 1527.46 73.3583 1527.46 74.475C1527.46 75.6417 1527.2 76.675 1526.66 77.575C1526.13 78.4583 1525.37 79.15 1524.39 79.65C1523.42 80.15 1522.3 80.4 1521.01 80.4C1518.85 80.4 1517.03 79.5833 1515.56 77.95L1517.56 76.075C1518.5 77.1417 1519.61 77.675 1520.91 77.675C1521.83 77.675 1522.54 77.4 1523.04 76.85C1523.55 76.3 1523.81 75.5083 1523.81 74.475C1523.81 72.4917 1522.96 71.5 1521.26 71.5C1520.9 71.5 1520.55 71.55 1520.21 71.65C1519.9 71.7333 1519.55 71.8833 1519.16 72.1H1516.69V63.15H1526.74L1526.31 65.725ZM1529.55 73.575V70.775H1537.3V73.575H1529.55ZM1543.13 62.825C1544.3 62.825 1545.31 63.0417 1546.16 63.475C1547.01 63.8917 1547.65 64.4667 1548.08 65.2C1548.53 65.9167 1548.76 66.7167 1548.76 67.6C1548.76 68.5167 1548.56 69.4 1548.16 70.25C1547.77 71.1 1547.11 72.0583 1546.16 73.125C1545.22 74.1917 1543.86 75.5667 1542.06 77.25H1549.13L1548.73 80H1538.01V77.425C1540.11 75.325 1541.62 73.7583 1542.56 72.725C1543.49 71.6917 1544.15 70.8167 1544.53 70.1C1544.92 69.3833 1545.11 68.65 1545.11 67.9C1545.11 67.1833 1544.9 66.6167 1544.48 66.2C1544.07 65.7833 1543.51 65.575 1542.81 65.575C1542.19 65.575 1541.64 65.7167 1541.16 66C1540.67 66.2667 1540.17 66.7167 1539.63 67.35L1537.51 65.65C1538.94 63.7667 1540.82 62.825 1543.13 62.825ZM1555.93 62.825C1557.09 62.825 1558.1 63.0417 1558.95 63.475C1559.8 63.8917 1560.44 64.4667 1560.88 65.2C1561.33 65.9167 1561.55 66.7167 1561.55 67.6C1561.55 68.5167 1561.35 69.4 1560.95 70.25C1560.57 71.1 1559.9 72.0583 1558.95 73.125C1558.02 74.1917 1556.65 75.5667 1554.85 77.25H1561.93L1561.53 80H1550.8V77.425C1552.9 75.325 1554.42 73.7583 1555.35 72.725C1556.28 71.6917 1556.94 70.8167 1557.33 70.1C1557.71 69.3833 1557.9 68.65 1557.9 67.9C1557.9 67.1833 1557.69 66.6167 1557.28 66.2C1556.86 65.7833 1556.3 65.575 1555.6 65.575C1554.98 65.575 1554.43 65.7167 1553.95 66C1553.47 66.2667 1552.96 66.7167 1552.43 67.35L1550.3 65.65C1551.73 63.7667 1553.61 62.825 1555.93 62.825ZM1564.02 73.575V70.775H1571.77V73.575H1564.02ZM1577.61 62.825C1578.77 62.825 1579.78 63.0417 1580.63 63.475C1581.48 63.8917 1582.12 64.4667 1582.56 65.2C1583.01 65.9167 1583.23 66.7167 1583.23 67.6C1583.23 68.5167 1583.03 69.4 1582.63 70.25C1582.25 71.1 1581.58 72.0583 1580.63 73.125C1579.7 74.1917 1578.33 75.5667 1576.53 77.25H1583.61L1583.21 80H1572.48V77.425C1574.58 75.325 1576.1 73.7583 1577.03 72.725C1577.96 71.6917 1578.62 70.8167 1579.01 70.1C1579.39 69.3833 1579.58 68.65 1579.58 67.9C1579.58 67.1833 1579.37 66.6167 1578.96 66.2C1578.54 65.7833 1577.98 65.575 1577.28 65.575C1576.66 65.575 1576.11 65.7167 1575.63 66C1575.15 66.2667 1574.64 66.7167 1574.11 67.35L1571.98 65.65C1573.41 63.7667 1575.29 62.825 1577.61 62.825ZM1590.4 62.825C1591.56 62.825 1592.57 63.0417 1593.42 63.475C1594.27 63.8917 1594.91 64.4667 1595.35 65.2C1595.8 65.9167 1596.02 66.7167 1596.02 67.6C1596.02 68.5167 1595.82 69.4 1595.42 70.25C1595.04 71.1 1594.37 72.0583 1593.42 73.125C1592.49 74.1917 1591.12 75.5667 1589.32 77.25H1596.4L1596 80H1585.27V77.425C1587.37 75.325 1588.89 73.7583 1589.82 72.725C1590.76 71.6917 1591.41 70.8167 1591.8 70.1C1592.18 69.3833 1592.37 68.65 1592.37 67.9C1592.37 67.1833 1592.16 66.6167 1591.75 66.2C1591.33 65.7833 1590.77 65.575 1590.07 65.575C1589.46 65.575 1588.91 65.7167 1588.42 66C1587.94 66.2667 1587.43 66.7167 1586.9 67.35L1584.77 65.65C1586.21 63.7667 1588.08 62.825 1590.4 62.825Z" fill="black"/>
<g clip-path="url(#clip0_204_10)">
<path d="M1364.68 69.605C1364.24 68.412 1363.92 67.1936 1364.02 65.8991C1364.08 65.1021 1364.38 64.4218 1364.96 63.8634C1365.6 63.2643 1366.2 62.6348 1366.82 62.0257C1367.63 61.2235 1368.65 61.2286 1369.46 62.0257C1369.97 62.5181 1370.47 63.0207 1370.96 63.5232C1371.44 64.0055 1371.93 64.4878 1372.41 64.9752C1373.26 65.8331 1373.27 66.8332 1372.42 67.6861C1371.81 68.2952 1371.21 68.9095 1370.59 69.5086C1370.42 69.6659 1370.41 69.7979 1370.5 69.9959C1370.9 70.9706 1371.49 71.8387 1372.15 72.651C1373.48 74.2856 1374.98 75.7375 1376.78 76.8595C1377.16 77.0981 1377.58 77.2757 1377.98 77.494C1378.19 77.6057 1378.33 77.5702 1378.5 77.3976C1379.1 76.7732 1379.72 76.1589 1380.34 75.5446C1381.15 74.7425 1382.17 74.7374 1382.98 75.5446C1383.97 76.5295 1384.96 77.5194 1385.95 78.5144C1386.78 79.347 1386.77 80.3674 1385.94 81.205C1385.37 81.7736 1384.78 82.3117 1384.25 82.9057C1383.48 83.7687 1382.51 84.053 1381.4 83.9921C1379.79 83.9058 1378.3 83.3677 1376.86 82.6722C1373.67 81.1238 1370.95 78.9764 1368.67 76.2655C1366.99 74.2552 1365.6 72.0722 1364.68 69.605ZM1389 71.4224C1389 64.5741 1383.43 59 1376.58 59V61.3657C1382.12 61.3657 1386.63 65.8788 1386.63 71.4224H1389ZM1382.2 71.4224H1384.56C1384.56 67.021 1380.98 63.4369 1376.58 63.4369V65.8026C1378.08 65.8026 1379.49 66.3864 1380.55 67.4475C1381.61 68.5085 1382.2 69.9198 1382.2 71.4224Z" fill="#3D32CF"/>
</g>
<g filter="url(#filter1_d_204_10)">
<rect x="1259" y="92" width="75" height="74" rx="10" fill="#EEEDFF"/>
</g>
<g filter="url(#filter2_d_204_10)">
<path d="M1303.17 106.21C1303 106.577 1302.85 106.952 1302.71 107.333H1304.78L1303.17 106.21ZM1310.33 99.7124C1308.51 100.356 1306.88 101.41 1305.56 102.763L1310.33 105.945V99.7124ZM1323.44 102.763C1322.12 101.41 1320.49 100.356 1318.67 99.7125V105.945L1323.44 102.763ZM1325.83 116.79C1326 116.424 1326.15 116.049 1326.29 115.667H1324.22L1325.83 116.79ZM1326.29 107.333C1326.15 106.952 1326 106.577 1325.83 106.21L1324.22 107.333H1326.29ZM1305.56 120.237C1306.88 121.59 1308.51 122.644 1310.33 123.288V117.056L1305.56 120.237ZM1302.71 115.667C1302.85 116.049 1303 116.424 1303.17 116.79L1304.78 115.667H1302.71ZM1318.67 123.288C1320.49 122.644 1322.12 121.59 1323.44 120.237L1318.67 117.056V123.288Z" fill="#0053B5"/>
<path d="M1310.33 105.944L1305.56 102.763C1305.29 103.041 1305.03 103.332 1304.79 103.634L1310.33 107.333H1306.86L1303.73 105.162C1303.52 105.502 1303.34 105.852 1303.17 106.209L1304.78 107.333H1302.71C1302.55 107.788 1302.42 108.252 1302.31 108.722H1310.33V114.278H1302.31C1302.42 114.748 1302.55 115.212 1302.71 115.666H1304.78L1303.17 116.79C1303.34 117.148 1303.52 117.497 1303.73 117.838L1306.86 115.666H1310.33L1304.79 119.365C1305.03 119.667 1305.29 119.958 1305.56 120.236L1310.33 117.055V123.287C1310.79 123.448 1311.25 123.583 1311.72 123.69V99.3101C1311.25 99.417 1310.79 99.5512 1310.33 99.7122V105.944ZM1318.67 108.722H1326.69C1326.58 108.252 1326.45 107.788 1326.29 107.333H1324.22L1325.83 106.209C1325.66 105.852 1325.48 105.502 1325.28 105.162L1322.14 107.333H1318.67L1324.21 103.634C1323.97 103.332 1323.71 103.041 1323.44 102.763L1318.67 105.944V99.7121C1318.21 99.5512 1317.75 99.417 1317.28 99.3101V123.689C1317.75 123.583 1318.21 123.448 1318.67 123.287V117.055L1323.44 120.236C1323.71 119.958 1323.97 119.667 1324.21 119.365L1318.67 115.666H1322.14L1325.28 117.838C1325.48 117.497 1325.66 117.148 1325.83 116.79L1324.22 115.666H1326.29C1326.45 115.212 1326.58 114.748 1326.69 114.277H1318.67V108.722Z" fill="white"/>
<path d="M1302.31 114.278H1310.33V108.722H1302.31C1301.91 110.491 1301.88 112.401 1302.31 114.278ZM1326.69 108.722H1318.67V114.278H1326.69C1327.09 112.509 1327.12 110.599 1326.69 108.722ZM1311.72 99.3103V123.69C1313.49 124.091 1315.4 124.116 1317.28 123.69V99.3103C1315.51 98.909 1313.6 98.8843 1311.72 99.3103ZM1325.28 105.162C1324.96 104.627 1324.61 104.117 1324.21 103.635L1318.67 107.333H1322.14L1325.28 105.162ZM1303.72 105.162L1306.86 107.333H1310.33L1304.79 103.635C1304.39 104.117 1304.04 104.627 1303.72 105.162ZM1303.72 117.838C1304.04 118.373 1304.39 118.883 1304.79 119.365L1310.33 115.667H1306.86L1303.72 117.838ZM1318.67 115.667L1324.21 119.365C1324.61 118.883 1324.96 118.373 1325.28 117.838L1322.14 115.667H1318.67Z" fill="#D80027"/>
</g>
<g filter="url(#filter3_d_204_10)">
<path d="M1279.5 124C1286.4 124 1292 118.404 1292 111.5C1292 104.596 1286.4 99 1279.5 99C1272.6 99 1267 104.596 1267 111.5C1267 118.404 1272.6 124 1279.5 124Z" fill="#F0F0F0"/>
<path d="M1291.22 115.848C1291.73 114.494 1292 113.029 1292 111.5C1292 109.971 1291.73 108.506 1291.22 107.152H1267.78C1267.28 108.506 1267 109.971 1267 111.5C1267 113.029 1267.28 114.494 1267.78 115.848L1279.5 116.935L1291.22 115.848Z" fill="#0052B4"/>
<path d="M1279.5 124C1284.87 124 1289.46 120.608 1291.22 115.848H1267.78C1269.54 120.608 1274.13 124 1279.5 124Z" fill="#D80027"/>
</g>
<g filter="url(#filter4_d_204_10)">
<path d="M1279.5 134C1276.18 134.001 1273.01 135.318 1270.66 137.662C1268.32 140.005 1267 143.184 1267 146.498C1267 148.14 1267.33 149.766 1267.95 151.283C1268.58 152.8 1269.5 154.179 1270.66 155.34C1271.83 156.501 1273.2 157.421 1274.72 158.049C1276.24 158.677 1277.86 159 1279.5 159C1281.14 159 1282.77 158.677 1284.29 158.048C1285.8 157.42 1287.18 156.499 1288.34 155.338C1289.5 154.177 1290.42 152.799 1291.05 151.282C1291.68 149.766 1292 148.14 1292 146.498C1292 144.856 1291.68 143.231 1291.05 141.714C1290.42 140.198 1289.5 138.82 1288.34 137.659C1287.18 136.499 1285.8 135.578 1284.28 134.95C1282.77 134.322 1281.14 134 1279.5 134Z" fill="#D40000"/>
<path d="M1267.72 142.337C1267.25 143.673 1267 145.08 1267 146.498C1267 147.919 1267.25 149.328 1267.73 150.666H1291.27C1291.75 149.328 1292 147.919 1292 146.498C1292 145.079 1291.76 143.671 1291.28 142.333L1267.72 142.337Z" fill="#FFCC00"/>
<path d="M1273.41 145.142H1277.53L1277.53 148.124C1277.53 149.259 1276.55 150.179 1275.33 150.179C1274.2 150.107 1273.33 149.186 1273.41 148.124L1273.41 145.142Z" fill="white"/>
<path d="M1273.41 145.142H1275.47V147.251H1273.41V145.142Z" fill="#D40000"/>
<path d="M1275.47 145.142H1277.53V147.251H1275.47V145.142Z" fill="white"/>
<path d="M1273.41 147.255V148.393C1273.44 148.715 1273.55 149.025 1273.73 149.293C1273.91 149.561 1274.15 149.78 1274.44 149.928C1274.73 149.78 1274.97 149.562 1275.15 149.293C1275.33 149.025 1275.44 148.716 1275.47 148.393L1275.46 147.255H1273.41ZM1275.46 147.255L1275.47 148.393C1275.5 148.704 1275.6 149.003 1275.77 149.265C1275.94 149.527 1276.17 149.743 1276.44 149.896C1276.76 149.73 1277.03 149.484 1277.22 149.182C1277.41 148.88 1277.52 148.533 1277.53 148.175L1277.53 147.255H1275.46Z" fill="#D40000"/>
<path d="M1273.8 145.582H1275.08C1275.12 145.583 1275.16 145.605 1275.19 145.645C1275.22 145.684 1275.23 145.737 1275.24 145.793V146.6C1275.24 146.629 1275.23 146.657 1275.22 146.683C1275.22 146.71 1275.2 146.734 1275.19 146.754C1275.17 146.774 1275.15 146.791 1275.13 146.802C1275.11 146.813 1275.09 146.818 1275.07 146.818H1273.8C1273.76 146.817 1273.71 146.793 1273.68 146.752C1273.65 146.712 1273.64 146.657 1273.64 146.6V145.793C1273.64 145.736 1273.66 145.683 1273.69 145.643C1273.72 145.604 1273.76 145.582 1273.8 145.582Z" fill="#FFCC00"/>
<path d="M1274.11 146.815H1274.77V146.338C1274.77 146.156 1274.61 146.011 1274.41 146.011C1274.23 146.022 1274.1 146.167 1274.11 146.338V146.815ZM1270.92 149.663H1272.66C1272.69 149.664 1272.72 149.676 1272.74 149.698C1272.76 149.719 1272.77 149.749 1272.77 149.779V150.088C1272.77 150.119 1272.76 150.148 1272.74 150.17C1272.72 150.191 1272.69 150.204 1272.66 150.205H1270.92C1270.89 150.204 1270.86 150.191 1270.83 150.17C1270.81 150.148 1270.8 150.119 1270.8 150.088V149.779C1270.8 149.749 1270.81 149.719 1270.83 149.698C1270.86 149.676 1270.89 149.664 1270.92 149.663Z" fill="#0044AA"/>
<path d="M1271.21 149.306H1272.36C1272.39 149.306 1272.42 149.318 1272.44 149.338C1272.46 149.359 1272.47 149.386 1272.47 149.415V149.663H1271.1V149.415C1271.1 149.386 1271.12 149.359 1271.14 149.338C1271.16 149.318 1271.19 149.306 1271.21 149.306Z" fill="#FFE680"/>
<path d="M1272.29 145.145H1271.29V149.306H1272.29V145.145Z" fill="white"/>
<path d="M1271.77 144.414C1271.64 144.417 1271.52 144.471 1271.43 144.564C1271.34 144.657 1271.29 144.782 1271.29 144.912V145.145H1272.29V144.912C1272.26 144.512 1271.98 144.396 1271.77 144.414ZM1276.4 145.469H1276.59C1276.82 145.469 1277 145.64 1277 145.851V146.542C1277 146.756 1276.82 146.927 1276.59 146.927H1276.4C1276.17 146.927 1275.99 146.756 1275.99 146.545V145.854C1275.99 145.636 1276.17 145.469 1276.4 145.469ZM1273.87 144.741H1277.15L1277.65 142.813L1276.58 143.639L1275.49 142.813L1274.4 143.639L1273.29 142.813L1273.87 144.741Z" fill="#D40000"/>
<path d="M1275.92 147.437H1277.17V148.459C1277.17 148.848 1276.87 149.164 1276.5 149.164C1276.16 149.142 1275.9 148.826 1275.92 148.459V147.437Z" fill="#FFCC00"/>
<path d="M1278.28 149.663H1280.02C1280.05 149.663 1280.08 149.675 1280.1 149.696C1280.13 149.718 1280.14 149.748 1280.14 149.779V150.088C1280.14 150.119 1280.13 150.149 1280.1 150.171C1280.08 150.192 1280.05 150.205 1280.02 150.205H1278.28C1278.25 150.205 1278.22 150.192 1278.2 150.171C1278.18 150.149 1278.16 150.119 1278.16 150.088V149.779C1278.16 149.748 1278.18 149.718 1278.2 149.696C1278.22 149.675 1278.25 149.663 1278.28 149.663Z" fill="#0044AA"/>
<path d="M1278.58 149.306H1279.72C1279.75 149.306 1279.78 149.318 1279.8 149.338C1279.82 149.359 1279.83 149.386 1279.83 149.415V149.663H1278.47V149.415C1278.47 149.386 1278.48 149.359 1278.5 149.338C1278.52 149.318 1278.55 149.306 1278.58 149.306Z" fill="#FFE680"/>
<path d="M1279.65 145.145H1278.65V149.306H1279.65V145.145Z" fill="white"/>
<path d="M1273.41 147.255L1273.41 148.124V148.393C1273.44 148.695 1273.53 148.975 1273.69 149.226V147.255H1273.41ZM1275.19 147.255V149.237C1275.34 149 1275.43 148.731 1275.46 148.452V147.255H1275.19ZM1274.6 147.255V149.837C1274.69 149.772 1274.79 149.697 1274.87 149.616V147.255H1274.6ZM1274 147.255V149.608C1274.09 149.688 1274.18 149.761 1274.28 149.827V147.255H1274Z" fill="#FFE680"/>
<path d="M1274.9 146.953H1276.05V147.786C1276.05 148.103 1275.77 148.361 1275.43 148.361C1275.12 148.339 1274.88 148.084 1274.9 147.786V146.953Z" fill="#D40000"/>
<path d="M1275.02 147.103H1275.92V147.757C1275.92 148.008 1275.7 148.208 1275.44 148.208C1275.19 148.194 1275 147.99 1275.02 147.757L1275.02 147.103Z" fill="#0044AA"/>
<path d="M1279.13 144.414C1279 144.418 1278.88 144.472 1278.79 144.565C1278.7 144.658 1278.65 144.783 1278.65 144.912V145.145H1279.65V144.912C1279.62 144.512 1279.34 144.396 1279.13 144.414Z" fill="#D40000"/>
</g>
<g filter="url(#filter5_d_204_10)">
<path d="M1302.78 150.848C1304.54 155.608 1309.13 159 1314.5 159C1319.87 159 1324.46 155.608 1326.22 150.848L1314.5 149.761L1302.78 150.848Z" fill="#FFDA44"/>
<path d="M1314.5 134C1309.13 134 1304.54 137.392 1302.78 142.152L1314.5 143.239L1326.22 142.152C1324.46 137.392 1319.87 134 1314.5 134Z" fill="black"/>
<path d="M1302.78 142.152C1302.28 143.506 1302 144.971 1302 146.5C1302 148.029 1302.28 149.494 1302.78 150.848H1326.22C1326.73 149.494 1327 148.029 1327 146.5C1327 144.971 1326.73 143.506 1326.22 142.152H1302.78Z" fill="#D80027"/>
</g>
<g clip-path="url(#clip1_204_10)">
<path d="M1329.61 61.3934C1326.77 58.5602 1323.01 57 1319 57C1314.99 57 1311.23 58.5602 1308.39 61.3934C1305.56 64.2265 1304 67.9934 1304 72C1304 76.0066 1305.56 79.7735 1308.39 82.6066C1311.23 85.4397 1314.99 86.9999 1319 86.9999C1323.01 86.9999 1326.77 85.4397 1329.61 82.6065C1332.44 79.7735 1334 76.0066 1334 71.9999C1334 67.9933 1332.44 64.2265 1329.61 61.3934ZM1309.64 62.6377C1310.96 61.3187 1312.51 60.3126 1314.19 59.6559C1313.74 60.2171 1313.32 60.8622 1312.94 61.5877C1312.49 62.4303 1312.1 63.3557 1311.78 64.3441C1310.67 64.1591 1309.63 63.9316 1308.71 63.6647C1309 63.3067 1309.31 62.964 1309.64 62.6377ZM1307.65 65.1788C1308.73 65.5243 1309.96 65.8157 1311.31 66.0465C1310.93 67.6383 1310.71 69.3512 1310.66 71.1202H1305.79C1305.93 68.9972 1306.57 66.971 1307.65 65.1788ZM1307.55 78.6585C1306.53 76.9066 1305.92 74.9389 1305.79 72.8798H1310.66C1310.72 74.5983 1310.93 76.2625 1311.3 77.8126C1309.92 78.0353 1308.66 78.3193 1307.55 78.6585ZM1309.64 81.3623C1309.27 80.9913 1308.92 80.599 1308.59 80.1872C1309.55 79.9221 1310.62 79.6975 1311.77 79.5173C1312.09 80.5195 1312.48 81.4571 1312.94 82.31C1313.36 83.1006 1313.82 83.7953 1314.31 84.3904C1312.58 83.7352 1310.99 82.7129 1309.64 81.3623ZM1318.12 85.0145C1316.78 84.6402 1315.52 83.4198 1314.49 81.4843C1314.13 80.8075 1313.82 80.069 1313.54 79.282C1314.99 79.1225 1316.54 79.0282 1318.12 79.0061V85.0145ZM1318.12 77.2463C1316.36 77.2703 1314.65 77.3806 1313.05 77.569C1312.69 76.1064 1312.48 74.5234 1312.42 72.8798H1318.12V77.2463H1318.12ZM1318.12 71.1202H1312.42C1312.47 69.4307 1312.69 67.8035 1313.05 66.3037C1314.65 66.5029 1316.36 66.6241 1318.12 66.6588V71.1202ZM1318.12 64.8989C1316.53 64.8669 1314.99 64.7631 1313.55 64.5939C1313.82 63.8151 1314.13 63.0841 1314.49 62.4134C1315.52 60.4779 1316.78 59.2575 1318.12 58.8831V64.8989ZM1330.41 65.2723C1331.46 67.0414 1332.07 69.0339 1332.21 71.1202H1327.34C1327.29 69.3715 1327.07 67.6778 1326.71 66.1018C1328.06 65.8829 1329.31 65.6044 1330.41 65.2723ZM1328.36 62.6377C1328.71 62.9885 1329.04 63.3584 1329.35 63.7457C1328.41 64.0028 1327.36 64.2211 1326.24 64.3968C1325.91 63.3885 1325.52 62.4453 1325.06 61.5877C1324.68 60.8622 1324.26 60.2171 1323.81 59.6559C1325.49 60.3126 1327.04 61.3187 1328.36 62.6377ZM1319.88 72.8798H1325.58C1325.52 74.5362 1325.3 76.1312 1324.95 77.6032C1323.35 77.4051 1321.64 77.285 1319.88 77.2513V72.8798ZM1319.88 71.1202V66.6646C1321.64 66.6415 1323.35 66.5321 1324.96 66.3445C1325.32 67.8329 1325.53 69.446 1325.58 71.1202H1319.88ZM1319.88 58.8831H1319.88C1321.22 59.2575 1322.48 60.4779 1323.51 62.4134C1323.87 63.0946 1324.19 63.8382 1324.46 64.631C1323.01 64.7899 1321.47 64.8835 1319.88 64.9049V58.8831ZM1319.88 85.0145V79.0112C1321.47 79.0423 1323.01 79.1451 1324.44 79.3133C1324.18 80.0886 1323.86 80.8164 1323.51 81.4843C1322.48 83.4198 1321.22 84.6402 1319.88 85.0145ZM1328.36 81.3623C1327.01 82.713 1325.42 83.7352 1323.69 84.3904C1324.18 83.7953 1324.64 83.1006 1325.06 82.31C1325.51 81.4697 1325.89 80.5471 1326.22 79.5616C1327.36 79.7499 1328.41 79.9827 1329.35 80.2565C1329.04 80.643 1328.71 81.0122 1328.36 81.3623ZM1330.4 78.7388C1329.31 78.3878 1328.06 78.0924 1326.69 77.8593C1327.06 76.296 1327.28 74.6156 1327.34 72.8798H1332.21C1332.07 74.9704 1331.45 76.9669 1330.4 78.7388Z" fill="#3D32CF"/>
</g>
<path d="M890.65 62.475C892.1 62.475 893.367 62.825 894.45 63.525C895.55 64.2083 896.4 65.2167 897 66.55C897.617 67.8833 897.925 69.5 897.925 71.4C897.925 73.2667 897.617 74.8667 897 76.2C896.4 77.5333 895.55 78.55 894.45 79.25C893.367 79.95 892.1 80.3 890.65 80.3C889.2 80.3 887.925 79.9583 886.825 79.275C885.742 78.5917 884.892 77.5833 884.275 76.25C883.675 74.9167 883.375 73.3083 883.375 71.425C883.375 69.575 883.675 67.975 884.275 66.625C884.892 65.275 885.75 64.25 886.85 63.55C887.95 62.8333 889.217 62.475 890.65 62.475ZM890.65 64.425C889.15 64.425 887.983 64.9917 887.15 66.125C886.317 67.2583 885.9 69.025 885.9 71.425C885.9 73.8083 886.317 75.5583 887.15 76.675C888 77.7917 889.167 78.35 890.65 78.35C893.817 78.35 895.4 76.0333 895.4 71.4C895.4 66.75 893.817 64.425 890.65 64.425ZM919.926 62.775L915.151 70.85L920.401 80H917.651L913.151 71.925H910.801V80H908.426V62.775H910.801V69.975H913.176L917.426 62.775H919.926ZM935.222 80H932.847V71.6C932.847 69.65 932.956 67.5917 933.172 65.425L926.197 80H923.147V62.775H925.522V71.175C925.522 73.5083 925.414 75.5917 925.197 77.425L932.247 62.775H935.222V80ZM955.613 80H953.313L952.713 72.225C952.463 69.175 952.321 66.8333 952.288 65.2L948.563 78.05H946.338L942.413 65.175C942.413 67.2583 942.305 69.6667 942.088 72.4L941.513 80H939.263L940.688 62.775H943.888L947.513 75.3L950.963 62.775H954.188L955.613 80ZM971.146 62.775V80H968.771V64.775H963.371L962.546 72.2C962.313 74.2667 962.038 75.8167 961.721 76.85C961.404 77.8667 960.979 78.6167 960.446 79.1C959.913 79.5667 959.129 79.9667 958.096 80.3L957.521 78.45C958.154 78.2167 958.621 77.9167 958.921 77.55C959.238 77.1833 959.479 76.6333 959.646 75.9C959.813 75.1667 959.988 73.9917 960.171 72.375L961.296 62.775H971.146ZM985.325 80L984.025 75.675H977.5L976.2 80H973.8L979.325 62.775H982.325L987.825 80H985.325ZM978.075 73.75H983.45L980.775 64.75L978.075 73.75ZM995.131 69.25C997.198 69.25 998.806 69.6917 999.956 70.575C1001.12 71.4583 1001.71 72.7667 1001.71 74.5C1001.71 76.4 1001.11 77.7917 999.906 78.675C998.723 79.5583 997.098 80 995.031 80H990.481V62.775H999.856L999.556 64.725H992.856V69.25H995.131ZM995.231 78.1C996.498 78.1 997.473 77.8417 998.156 77.325C998.84 76.8083 999.181 75.8833 999.181 74.55C999.181 73.3167 998.84 72.4333 998.156 71.9C997.473 71.3667 996.473 71.1 995.156 71.1H992.856V78.1H995.231Z" fill="#3D32CF"/>
<path d="M325.154 61.842L324.934 63.624H320.732V77H318.642V63.624H314.33V61.842H325.154ZM335.809 77H333.807V71.764C333.807 70.884 333.837 70.048 333.895 69.256C333.954 68.464 334.005 67.9433 334.049 67.694L329.187 77H326.789V65.406H328.791V70.642C328.791 71.4193 328.762 72.226 328.703 73.062C328.645 73.8833 328.601 74.4113 328.571 74.646L333.367 65.406H335.809V77ZM346.757 77V67.056H342.005V77H339.981V65.406H348.781V77H346.757ZM357.313 65.142C358.941 65.142 360.203 65.6847 361.097 66.77C362.007 67.8553 362.461 69.3293 362.461 71.192C362.461 72.3947 362.256 73.458 361.845 74.382C361.435 75.2913 360.841 76.0027 360.063 76.516C359.286 77.0147 358.362 77.264 357.291 77.264C355.663 77.264 354.395 76.7213 353.485 75.636C352.576 74.5507 352.121 73.0767 352.121 71.214C352.121 70.0113 352.327 68.9553 352.737 68.046C353.148 67.122 353.742 66.4107 354.519 65.912C355.297 65.3987 356.228 65.142 357.313 65.142ZM357.313 66.77C355.304 66.77 354.299 68.2513 354.299 71.214C354.299 74.162 355.297 75.636 357.291 75.636C359.286 75.636 360.283 74.1547 360.283 71.192C360.283 68.244 359.293 66.77 357.313 66.77ZM371.921 70.708C373.886 70.8987 374.869 71.808 374.869 73.436C374.869 74.6533 374.422 75.5553 373.527 76.142C372.647 76.714 371.466 77 369.985 77H365.805V65.56C367.169 65.2813 368.438 65.142 369.611 65.142C371.048 65.142 372.185 65.4133 373.021 65.956C373.857 66.4987 374.275 67.276 374.275 68.288C374.275 68.948 374.077 69.4833 373.681 69.894C373.285 70.3047 372.698 70.576 371.921 70.708ZM369.633 66.704C369.017 66.704 368.416 66.748 367.829 66.836V70.114H370.007C370.711 70.114 371.254 69.982 371.635 69.718C372.016 69.454 372.207 69.0067 372.207 68.376C372.207 67.7893 371.994 67.364 371.569 67.1C371.144 66.836 370.498 66.704 369.633 66.704ZM369.985 75.416C370.85 75.416 371.525 75.2693 372.009 74.976C372.493 74.6827 372.735 74.1547 372.735 73.392C372.735 72.7613 372.53 72.3067 372.119 72.028C371.708 71.7493 371.012 71.61 370.029 71.61H367.829V75.416H369.985ZM381.567 69.146C383.297 69.146 384.551 69.4833 385.329 70.158C386.106 70.8327 386.495 71.7933 386.495 73.04C386.495 74.3453 386.055 75.3353 385.175 76.01C384.309 76.67 383.231 77 381.941 77H378.223V65.406H380.247V69.146H381.567ZM388.167 65.406H390.191V77H388.167V65.406ZM381.765 75.416C382.586 75.416 383.217 75.2327 383.657 74.866C384.111 74.4993 384.339 73.8907 384.339 73.04C384.339 72.2333 384.126 71.6393 383.701 71.258C383.29 70.8767 382.571 70.686 381.545 70.686H380.247V75.416H381.765ZM403.135 70.862C403.135 71.1993 403.12 71.544 403.091 71.896H395.699C395.787 73.172 396.11 74.1107 396.667 74.712C397.224 75.3133 397.943 75.614 398.823 75.614C399.38 75.614 399.894 75.5333 400.363 75.372C400.832 75.2107 401.324 74.954 401.837 74.602L402.717 75.812C401.485 76.78 400.136 77.264 398.669 77.264C397.056 77.264 395.794 76.736 394.885 75.68C393.99 74.624 393.543 73.172 393.543 71.324C393.543 70.1213 393.734 69.058 394.115 68.134C394.511 67.1953 395.068 66.462 395.787 65.934C396.52 65.406 397.378 65.142 398.361 65.142C399.901 65.142 401.082 65.648 401.903 66.66C402.724 67.672 403.135 69.0727 403.135 70.862ZM401.133 70.268C401.133 69.124 400.906 68.2513 400.451 67.65C399.996 67.0487 399.314 66.748 398.405 66.748C396.748 66.748 395.846 67.9653 395.699 70.4H401.133V70.268ZM417.514 65.142C418.995 65.142 420.08 65.67 420.77 66.726C421.459 67.782 421.804 69.2707 421.804 71.192C421.804 73.0107 421.408 74.4773 420.616 75.592C419.824 76.7067 418.702 77.264 417.25 77.264C415.959 77.264 414.947 76.824 414.214 75.944V81.444L412.19 81.686V65.406H413.928L414.082 66.968C414.507 66.3813 415.02 65.934 415.622 65.626C416.223 65.3033 416.854 65.142 417.514 65.142ZM416.766 75.614C418.672 75.614 419.626 74.14 419.626 71.192C419.626 68.2293 418.753 66.748 417.008 66.748C416.436 66.748 415.915 66.9167 415.446 67.254C414.976 67.5913 414.566 68.024 414.214 68.552V74.206C414.507 74.6607 414.874 75.0127 415.314 75.262C415.754 75.4967 416.238 75.614 416.766 75.614ZM434.008 70.862C434.008 71.1993 433.993 71.544 433.964 71.896H426.572C426.66 73.172 426.983 74.1107 427.54 74.712C428.097 75.3133 428.816 75.614 429.696 75.614C430.253 75.614 430.767 75.5333 431.236 75.372C431.705 75.2107 432.197 74.954 432.71 74.602L433.59 75.812C432.358 76.78 431.009 77.264 429.542 77.264C427.929 77.264 426.667 76.736 425.758 75.68C424.863 74.624 424.416 73.172 424.416 71.324C424.416 70.1213 424.607 69.058 424.988 68.134C425.384 67.1953 425.941 66.462 426.66 65.934C427.393 65.406 428.251 65.142 429.234 65.142C430.774 65.142 431.955 65.648 432.776 66.66C433.597 67.672 434.008 69.0727 434.008 70.862ZM432.006 70.268C432.006 69.124 431.779 68.2513 431.324 67.65C430.869 67.0487 430.187 66.748 429.278 66.748C427.621 66.748 426.719 67.9653 426.572 70.4H432.006V70.268ZM450.572 65.406V77H437.24V65.406H439.22V75.372H442.938V65.406H444.874V75.372H448.592V65.406H450.572ZM463.506 70.862C463.506 71.1993 463.491 71.544 463.462 71.896H456.07C456.158 73.172 456.481 74.1107 457.038 74.712C457.595 75.3133 458.314 75.614 459.194 75.614C459.751 75.614 460.265 75.5333 460.734 75.372C461.203 75.2107 461.695 74.954 462.208 74.602L463.088 75.812C461.856 76.78 460.507 77.264 459.04 77.264C457.427 77.264 456.165 76.736 455.256 75.68C454.361 74.624 453.914 73.172 453.914 71.324C453.914 70.1213 454.105 69.058 454.486 68.134C454.882 67.1953 455.439 66.462 456.158 65.934C456.891 65.406 457.749 65.142 458.732 65.142C460.272 65.142 461.453 65.648 462.274 66.66C463.095 67.672 463.506 69.0727 463.506 70.862ZM461.504 70.268C461.504 69.124 461.277 68.2513 460.822 67.65C460.367 67.0487 459.685 66.748 458.776 66.748C457.119 66.748 456.217 67.9653 456.07 70.4H461.504V70.268ZM473.58 77V71.896H468.762V77H466.738V65.406H468.762V70.268H473.58V65.406H475.604V77H473.58ZM488.799 77H486.797V71.764C486.797 70.884 486.827 70.048 486.885 69.256C486.944 68.464 486.995 67.9433 487.039 67.694L482.177 77H479.779V65.406H481.781V70.642C481.781 71.4193 481.752 72.226 481.693 73.062C481.635 73.8833 481.591 74.4113 481.561 74.646L486.357 65.406H488.799V77ZM500.913 65.406V77H498.889V72.556H496.359L493.917 77H491.651L494.423 72.094C493.059 71.4487 492.377 70.4 492.377 68.948C492.377 67.804 492.788 66.9313 493.609 66.33C494.43 65.714 495.582 65.406 497.063 65.406H500.913ZM498.889 71.016V66.968H497.019C496.183 66.968 495.552 67.1293 495.127 67.452C494.716 67.76 494.511 68.2587 494.511 68.948C494.511 69.6813 494.702 70.2093 495.083 70.532C495.479 70.8547 496.11 71.016 496.975 71.016H498.889Z" fill="#CFCBFF"/>
<path d="M314 79.2H503.003V80.3H314V79.2Z" fill="#CFCBFF"/>
<path d="M569.182 61.842C571.059 61.842 572.511 62.238 573.538 63.03C574.565 63.8073 575.078 64.9733 575.078 66.528C575.078 68.1853 574.543 69.4173 573.472 70.224C572.401 71.0307 570.979 71.434 569.204 71.434H567.29V77H565.2V61.842H569.182ZM569.116 69.784C570.333 69.784 571.257 69.5493 571.888 69.08C572.533 68.6107 572.856 67.7673 572.856 66.55C572.856 65.4647 572.533 64.68 571.888 64.196C571.257 63.712 570.348 63.47 569.16 63.47H567.29V69.784H569.116ZM585.963 70.862C585.963 71.1993 585.949 71.544 585.919 71.896H578.527C578.615 73.172 578.938 74.1107 579.495 74.712C580.053 75.3133 580.771 75.614 581.651 75.614C582.209 75.614 582.722 75.5333 583.191 75.372C583.661 75.2107 584.152 74.954 584.665 74.602L585.545 75.812C584.313 76.78 582.964 77.264 581.497 77.264C579.884 77.264 578.623 76.736 577.713 75.68C576.819 74.624 576.371 73.172 576.371 71.324C576.371 70.1213 576.562 69.058 576.943 68.134C577.339 67.1953 577.897 66.462 578.615 65.934C579.349 65.406 580.207 65.142 581.189 65.142C582.729 65.142 583.91 65.648 584.731 66.66C585.553 67.672 585.963 69.0727 585.963 70.862ZM583.961 70.268C583.961 69.124 583.734 68.2513 583.279 67.65C582.825 67.0487 582.143 66.748 581.233 66.748C579.576 66.748 578.674 67.9653 578.527 70.4H583.961V70.268ZM596.791 74.294C596.791 74.7633 596.871 75.1153 597.033 75.35C597.194 75.57 597.436 75.7387 597.759 75.856L597.297 77.264C596.695 77.1907 596.211 77.022 595.845 76.758C595.478 76.494 595.207 76.0833 595.031 75.526C594.253 76.6847 593.102 77.264 591.577 77.264C590.433 77.264 589.531 76.9413 588.871 76.296C588.211 75.6507 587.881 74.8073 587.881 73.766C587.881 72.534 588.321 71.588 589.201 70.928C590.095 70.268 591.357 69.938 592.985 69.938H594.767V69.08C594.767 68.2587 594.569 67.672 594.173 67.32C593.777 66.968 593.168 66.792 592.347 66.792C591.496 66.792 590.455 66.9973 589.223 67.408L588.717 65.934C590.154 65.406 591.489 65.142 592.721 65.142C594.085 65.142 595.104 65.4793 595.779 66.154C596.453 66.814 596.791 67.76 596.791 68.992V74.294ZM592.039 75.746C593.197 75.746 594.107 75.1447 594.767 73.942V71.28H593.249C591.107 71.28 590.037 72.072 590.037 73.656C590.037 74.3453 590.205 74.866 590.543 75.218C590.88 75.57 591.379 75.746 592.039 75.746ZM609.439 65.406V77H607.415V67.056H603.829L603.499 70.928C603.367 72.4973 603.199 73.6707 602.993 74.448C602.803 75.2253 602.495 75.8267 602.069 76.252C601.659 76.6627 601.028 77 600.177 77.264L599.671 75.658C600.17 75.482 600.522 75.2547 600.727 74.976C600.933 74.6973 601.087 74.272 601.189 73.7C601.292 73.128 601.402 72.1307 601.519 70.708L601.981 65.406H609.439ZM622.643 77H620.641V71.764C620.641 70.884 620.671 70.048 620.729 69.256C620.788 68.464 620.839 67.9433 620.883 67.694L616.021 77H613.623V65.406H615.625V70.642C615.625 71.4193 615.596 72.226 615.537 73.062C615.479 73.8833 615.435 74.4113 615.405 74.646L620.201 65.406H622.643V77ZM629.675 65.142C630.408 65.142 631.09 65.2667 631.721 65.516C632.366 65.7507 632.879 66.1027 633.261 66.572C633.657 67.0413 633.855 67.606 633.855 68.266C633.855 68.9113 633.664 69.4393 633.283 69.85C632.916 70.2607 632.329 70.576 631.523 70.796C632.491 70.9573 633.224 71.258 633.723 71.698C634.221 72.138 634.471 72.7687 634.471 73.59C634.471 74.7927 634.001 75.7093 633.063 76.34C632.139 76.956 630.958 77.264 629.521 77.264C627.775 77.264 626.287 76.78 625.055 75.812L626.111 74.558C626.624 74.9247 627.137 75.196 627.651 75.372C628.179 75.548 628.78 75.636 629.455 75.636C631.347 75.636 632.293 74.9467 632.293 73.568C632.293 72.8933 632.021 72.424 631.479 72.16C630.951 71.8813 630.21 71.742 629.257 71.742H627.717L627.849 70.158H629.037C629.858 70.158 630.518 70.0113 631.017 69.718C631.515 69.4247 631.765 68.97 631.765 68.354C631.765 67.782 631.552 67.3713 631.127 67.122C630.701 66.858 630.144 66.726 629.455 66.726C628.853 66.726 628.318 66.8067 627.849 66.968C627.394 67.1147 626.932 67.3493 626.463 67.672L625.495 66.462C626.081 66.022 626.712 65.692 627.387 65.472C628.061 65.252 628.824 65.142 629.675 65.142ZM642.085 65.142C643.713 65.142 644.974 65.6847 645.869 66.77C646.778 67.8553 647.233 69.3293 647.233 71.192C647.233 72.3947 647.027 73.458 646.617 74.382C646.206 75.2913 645.612 76.0027 644.835 76.516C644.057 77.0147 643.133 77.264 642.063 77.264C640.435 77.264 639.166 76.7213 638.257 75.636C637.347 74.5507 636.893 73.0767 636.893 71.214C636.893 70.0113 637.098 68.9553 637.509 68.046C637.919 67.122 638.513 66.4107 639.291 65.912C640.068 65.3987 640.999 65.142 642.085 65.142ZM642.085 66.77C640.075 66.77 639.071 68.2513 639.071 71.214C639.071 74.162 640.068 75.636 642.063 75.636C644.057 75.636 645.055 74.1547 645.055 71.192C645.055 68.244 644.065 66.77 642.085 66.77ZM656.692 70.708C658.658 70.8987 659.64 71.808 659.64 73.436C659.64 74.6533 659.193 75.5553 658.298 76.142C657.418 76.714 656.238 77 654.756 77H650.576V65.56C651.94 65.2813 653.209 65.142 654.382 65.142C655.82 65.142 656.956 65.4133 657.792 65.956C658.628 66.4987 659.046 67.276 659.046 68.288C659.046 68.948 658.848 69.4833 658.452 69.894C658.056 70.3047 657.47 70.576 656.692 70.708ZM654.404 66.704C653.788 66.704 653.187 66.748 652.6 66.836V70.114H654.778C655.482 70.114 656.025 69.982 656.406 69.718C656.788 69.454 656.978 69.0067 656.978 68.376C656.978 67.7893 656.766 67.364 656.34 67.1C655.915 66.836 655.27 66.704 654.404 66.704ZM654.756 75.416C655.622 75.416 656.296 75.2693 656.78 74.976C657.264 74.6827 657.506 74.1547 657.506 73.392C657.506 72.7613 657.301 72.3067 656.89 72.028C656.48 71.7493 655.783 71.61 654.8 71.61H652.6V75.416H654.756ZM670.589 74.294C670.589 74.7633 670.67 75.1153 670.831 75.35C670.993 75.57 671.235 75.7387 671.557 75.856L671.095 77.264C670.494 77.1907 670.01 77.022 669.643 76.758C669.277 76.494 669.005 76.0833 668.829 75.526C668.052 76.6847 666.901 77.264 665.375 77.264C664.231 77.264 663.329 76.9413 662.669 76.296C662.009 75.6507 661.679 74.8073 661.679 73.766C661.679 72.534 662.119 71.588 662.999 70.928C663.894 70.268 665.155 69.938 666.783 69.938H668.565V69.08C668.565 68.2587 668.367 67.672 667.971 67.32C667.575 66.968 666.967 66.792 666.145 66.792C665.295 66.792 664.253 66.9973 663.021 67.408L662.515 65.934C663.953 65.406 665.287 65.142 666.519 65.142C667.883 65.142 668.903 65.4793 669.577 66.154C670.252 66.814 670.589 67.76 670.589 68.992V74.294ZM665.837 75.746C666.996 75.746 667.905 75.1447 668.565 73.942V71.28H667.047C664.906 71.28 663.835 72.072 663.835 73.656C663.835 74.3453 664.004 74.866 664.341 75.218C664.679 75.57 665.177 75.746 665.837 75.746ZM681.588 77V71.896H676.77V77H674.746V65.406H676.77V70.268H681.588V65.406H683.612V77H681.588ZM694.629 77V71.896H689.811V77H687.787V65.406H689.811V70.268H694.629V65.406H696.653V77H694.629ZM704.172 69.146C705.903 69.146 707.157 69.4833 707.934 70.158C708.712 70.8327 709.1 71.7933 709.1 73.04C709.1 74.3453 708.66 75.3353 707.78 76.01C706.915 76.67 705.837 77 704.546 77H700.828V65.406H702.852V69.146H704.172ZM710.772 65.406H712.796V77H710.772V65.406ZM704.37 75.416C705.192 75.416 705.822 75.2327 706.262 74.866C706.717 74.4993 706.944 73.8907 706.944 73.04C706.944 72.2333 706.732 71.6393 706.306 71.258C705.896 70.8767 705.177 70.686 704.15 70.686H702.852V75.416H704.37ZM725.741 70.862C725.741 71.1993 725.726 71.544 725.697 71.896H718.305C718.393 73.172 718.715 74.1107 719.273 74.712C719.83 75.3133 720.549 75.614 721.429 75.614C721.986 75.614 722.499 75.5333 722.969 75.372C723.438 75.2107 723.929 74.954 724.443 74.602L725.323 75.812C724.091 76.78 722.741 77.264 721.275 77.264C719.661 77.264 718.4 76.736 717.491 75.68C716.596 74.624 716.149 73.172 716.149 71.324C716.149 70.1213 716.339 69.058 716.721 68.134C717.117 67.1953 717.674 66.462 718.393 65.934C719.126 65.406 719.984 65.142 720.967 65.142C722.507 65.142 723.687 65.648 724.509 66.66C725.33 67.672 725.741 69.0727 725.741 70.862ZM723.739 70.268C723.739 69.124 723.511 68.2513 723.057 67.65C722.602 67.0487 721.92 66.748 721.011 66.748C719.353 66.748 718.451 67.9653 718.305 70.4H723.739V70.268ZM741.571 77V67.056H736.819V77H734.795V65.406H743.595V77H741.571ZM753.096 65.142C754.577 65.142 755.662 65.67 756.352 66.726C757.041 67.782 757.386 69.2707 757.386 71.192C757.386 73.0107 756.99 74.4773 756.198 75.592C755.406 76.7067 754.284 77.264 752.832 77.264C751.541 77.264 750.529 76.824 749.796 75.944V81.444L747.772 81.686V65.406H749.51L749.664 66.968C750.089 66.3813 750.602 65.934 751.204 65.626C751.805 65.3033 752.436 65.142 753.096 65.142ZM752.348 75.614C754.254 75.614 755.208 74.14 755.208 71.192C755.208 68.2293 754.335 66.748 752.59 66.748C752.018 66.748 751.497 66.9167 751.028 67.254C750.558 67.5913 750.148 68.024 749.796 68.552V74.206C750.089 74.6607 750.456 75.0127 750.896 75.262C751.336 75.4967 751.82 75.614 752.348 75.614ZM765.19 65.142C766.818 65.142 768.079 65.6847 768.974 66.77C769.883 67.8553 770.338 69.3293 770.338 71.192C770.338 72.3947 770.133 73.458 769.722 74.382C769.311 75.2913 768.717 76.0027 767.94 76.516C767.163 77.0147 766.239 77.264 765.168 77.264C763.54 77.264 762.271 76.7213 761.362 75.636C760.453 74.5507 759.998 73.0767 759.998 71.214C759.998 70.0113 760.203 68.9553 760.614 68.046C761.025 67.122 761.619 66.4107 762.396 65.912C763.173 65.3987 764.105 65.142 765.19 65.142ZM765.19 66.77C763.181 66.77 762.176 68.2513 762.176 71.214C762.176 74.162 763.173 75.636 765.168 75.636C767.163 75.636 768.16 74.1547 768.16 71.192C768.16 68.244 767.17 66.77 765.19 66.77ZM782.438 70.862C782.438 71.1993 782.423 71.544 782.394 71.896H775.002C775.09 73.172 775.412 74.1107 775.97 74.712C776.527 75.3133 777.246 75.614 778.126 75.614C778.683 75.614 779.196 75.5333 779.666 75.372C780.135 75.2107 780.626 74.954 781.14 74.602L782.02 75.812C780.788 76.78 779.438 77.264 777.972 77.264C776.358 77.264 775.097 76.736 774.188 75.68C773.293 74.624 772.846 73.172 772.846 71.324C772.846 70.1213 773.036 69.058 773.418 68.134C773.814 67.1953 774.371 66.462 775.09 65.934C775.823 65.406 776.681 65.142 777.664 65.142C779.204 65.142 780.384 65.648 781.206 66.66C782.027 67.672 782.438 69.0727 782.438 70.862ZM780.436 70.268C780.436 69.124 780.208 68.2513 779.754 67.65C779.299 67.0487 778.617 66.748 777.708 66.748C776.05 66.748 775.148 67.9653 775.002 70.4H780.436V70.268ZM794.36 65.406L790.84 70.774L794.778 77H792.38L789.168 71.654H787.694V77H785.67V65.406H787.694V70.07H789.212L792.138 65.406H794.36ZM804.91 65.406L804.668 67.056H800.95V77H798.926V67.056H795.098V65.406H804.91ZM810.348 69.146C812.079 69.146 813.333 69.4833 814.11 70.158C814.887 70.8327 815.276 71.7933 815.276 73.04C815.276 74.3453 814.836 75.3353 813.956 76.01C813.091 76.67 812.013 77 810.722 77H807.004V65.406H809.028V69.146H810.348ZM816.948 65.406H818.972V77H816.948V65.406ZM810.546 75.416C811.367 75.416 811.998 75.2327 812.438 74.866C812.893 74.4993 813.12 73.8907 813.12 73.04C813.12 72.2333 812.907 71.6393 812.482 71.258C812.071 70.8767 811.353 70.686 810.326 70.686H809.028V75.416H810.546Z" fill="#3D32CF"/>
<path d="M1067.99 61.578C1069.71 61.578 1071.07 62.2087 1072.09 63.47C1073.1 64.7167 1073.6 66.6967 1073.6 69.41C1073.6 71.9327 1073.08 73.876 1072.04 75.24C1071.02 76.5893 1069.57 77.264 1067.71 77.264C1066.77 77.264 1065.96 77.1173 1065.27 76.824C1064.59 76.5307 1063.98 76.1347 1063.44 75.636L1064.5 74.338C1064.99 74.7193 1065.48 75.0127 1065.95 75.218C1066.42 75.4087 1066.98 75.504 1067.64 75.504C1070.05 75.504 1071.29 73.6853 1071.38 70.048H1065.51V68.332H1071.38C1071.32 66.5427 1070.99 65.2593 1070.37 64.482C1069.75 63.69 1068.95 63.294 1067.97 63.294C1067.3 63.294 1066.71 63.382 1066.21 63.558C1065.73 63.734 1065.21 64.02 1064.67 64.416L1063.59 63.14C1064.21 62.6267 1064.87 62.238 1065.57 61.974C1066.28 61.71 1067.08 61.578 1067.99 61.578ZM1084.74 65.406L1084.5 67.056H1080.78V77H1078.75V67.056H1074.93V65.406H1084.74ZM1093.76 74.294C1093.76 74.7633 1093.84 75.1153 1094 75.35C1094.16 75.57 1094.41 75.7387 1094.73 75.856L1094.27 77.264C1093.67 77.1907 1093.18 77.022 1092.82 76.758C1092.45 76.494 1092.18 76.0833 1092 75.526C1091.22 76.6847 1090.07 77.264 1088.55 77.264C1087.4 77.264 1086.5 76.9413 1085.84 76.296C1085.18 75.6507 1084.85 74.8073 1084.85 73.766C1084.85 72.534 1085.29 71.588 1086.17 70.928C1087.07 70.268 1088.33 69.938 1089.96 69.938H1091.74V69.08C1091.74 68.2587 1091.54 67.672 1091.14 67.32C1090.75 66.968 1090.14 66.792 1089.32 66.792C1088.47 66.792 1087.43 66.9973 1086.19 67.408L1085.69 65.934C1087.12 65.406 1088.46 65.142 1089.69 65.142C1091.06 65.142 1092.07 65.4793 1092.75 66.154C1093.42 66.814 1093.76 67.76 1093.76 68.992V74.294ZM1089.01 75.746C1090.17 75.746 1091.08 75.1447 1091.74 73.942V71.28H1090.22C1088.08 71.28 1087.01 72.072 1087.01 73.656C1087.01 74.3453 1087.18 74.866 1087.51 75.218C1087.85 75.57 1088.35 75.746 1089.01 75.746ZM1104.69 77V67.056H1099.94V77H1097.92V65.406H1106.72V77H1104.69ZM1114.24 69.146C1115.97 69.146 1117.22 69.4833 1118 70.158C1118.78 70.8327 1119.17 71.7933 1119.17 73.04C1119.17 74.3453 1118.73 75.3353 1117.85 76.01C1116.98 76.67 1115.9 77 1114.61 77H1110.89V65.406H1112.92V69.146H1114.24ZM1120.84 65.406H1122.86V77H1120.84V65.406ZM1114.44 75.416C1115.26 75.416 1115.89 75.2327 1116.33 74.866C1116.78 74.4993 1117.01 73.8907 1117.01 73.04C1117.01 72.2333 1116.8 71.6393 1116.37 71.258C1115.96 70.8767 1115.24 70.686 1114.22 70.686H1112.92V75.416H1114.44ZM1138.99 70.708C1140.95 70.8987 1141.94 71.808 1141.94 73.436C1141.94 74.6533 1141.49 75.5553 1140.6 76.142C1139.72 76.714 1138.53 77 1137.05 77H1132.87V65.56C1134.24 65.2813 1135.51 65.142 1136.68 65.142C1138.12 65.142 1139.25 65.4133 1140.09 65.956C1140.93 66.4987 1141.34 67.276 1141.34 68.288C1141.34 68.948 1141.15 69.4833 1140.75 69.894C1140.35 70.3047 1139.77 70.576 1138.99 70.708ZM1136.7 66.704C1136.09 66.704 1135.48 66.748 1134.9 66.836V70.114H1137.08C1137.78 70.114 1138.32 69.982 1138.7 69.718C1139.08 69.454 1139.28 69.0067 1139.28 68.376C1139.28 67.7893 1139.06 67.364 1138.64 67.1C1138.21 66.836 1137.57 66.704 1136.7 66.704ZM1137.05 75.416C1137.92 75.416 1138.59 75.2693 1139.08 74.976C1139.56 74.6827 1139.8 74.1547 1139.8 73.392C1139.8 72.7613 1139.6 72.3067 1139.19 72.028C1138.78 71.7493 1138.08 71.61 1137.1 71.61H1134.9V75.416H1137.05ZM1152.13 77V71.896H1147.32V77H1145.29V65.406H1147.32V70.268H1152.13V65.406H1154.16V77H1152.13ZM1167.09 70.862C1167.09 71.1993 1167.07 71.544 1167.04 71.896H1159.65C1159.74 73.172 1160.06 74.1107 1160.62 74.712C1161.18 75.3133 1161.9 75.614 1162.78 75.614C1163.33 75.614 1163.85 75.5333 1164.32 75.372C1164.79 75.2107 1165.28 74.954 1165.79 74.602L1166.67 75.812C1165.44 76.78 1164.09 77.264 1162.62 77.264C1161.01 77.264 1159.75 76.736 1158.84 75.68C1157.94 74.624 1157.5 73.172 1157.5 71.324C1157.5 70.1213 1157.69 69.058 1158.07 68.134C1158.46 67.1953 1159.02 66.462 1159.74 65.934C1160.47 65.406 1161.33 65.142 1162.31 65.142C1163.85 65.142 1165.03 65.648 1165.86 66.66C1166.68 67.672 1167.09 69.0727 1167.09 70.862ZM1165.09 70.268C1165.09 69.124 1164.86 68.2513 1164.4 67.65C1163.95 67.0487 1163.27 66.748 1162.36 66.748C1160.7 66.748 1159.8 67.9653 1159.65 70.4H1165.09V70.268ZM1179.41 75.372V80.3H1177.76L1177.43 77H1170L1169.67 80.3H1168.02V75.372H1168.83C1169.18 75.1373 1169.46 74.8733 1169.67 74.58C1169.87 74.272 1170.05 73.744 1170.22 72.996C1170.39 72.248 1170.53 71.1553 1170.63 69.718L1170.94 65.406H1178.2V75.372H1179.41ZM1176.18 67.012H1172.77L1172.59 69.454C1172.49 70.818 1172.37 71.8667 1172.24 72.6C1172.11 73.3333 1171.92 73.898 1171.67 74.294C1171.43 74.69 1171.09 75.0493 1170.63 75.372H1176.18V67.012ZM1187.7 65.142C1189.18 65.142 1190.26 65.67 1190.95 66.726C1191.64 67.782 1191.99 69.2707 1191.99 71.192C1191.99 73.0107 1191.59 74.4773 1190.8 75.592C1190.01 76.7067 1188.89 77.264 1187.43 77.264C1186.14 77.264 1185.13 76.824 1184.4 75.944V81.444L1182.37 81.686V65.406H1184.11L1184.27 66.968C1184.69 66.3813 1185.2 65.934 1185.81 65.626C1186.41 65.3033 1187.04 65.142 1187.7 65.142ZM1186.95 75.614C1188.86 75.614 1189.81 74.14 1189.81 71.192C1189.81 68.2293 1188.94 66.748 1187.19 66.748C1186.62 66.748 1186.1 66.9167 1185.63 67.254C1185.16 67.5913 1184.75 68.024 1184.4 68.552V74.206C1184.69 74.6607 1185.06 75.0127 1185.5 75.262C1185.94 75.4967 1186.42 75.614 1186.95 75.614ZM1204.19 70.862C1204.19 71.1993 1204.18 71.544 1204.15 71.896H1196.76C1196.84 73.172 1197.17 74.1107 1197.72 74.712C1198.28 75.3133 1199 75.614 1199.88 75.614C1200.44 75.614 1200.95 75.5333 1201.42 75.372C1201.89 75.2107 1202.38 74.954 1202.89 74.602L1203.77 75.812C1202.54 76.78 1201.19 77.264 1199.73 77.264C1198.11 77.264 1196.85 76.736 1195.94 75.68C1195.05 74.624 1194.6 73.172 1194.6 71.324C1194.6 70.1213 1194.79 69.058 1195.17 68.134C1195.57 67.1953 1196.13 66.462 1196.84 65.934C1197.58 65.406 1198.44 65.142 1199.42 65.142C1200.96 65.142 1202.14 65.648 1202.96 66.66C1203.78 67.672 1204.19 69.0727 1204.19 70.862ZM1202.19 70.268C1202.19 69.124 1201.96 68.2513 1201.51 67.65C1201.05 67.0487 1200.37 66.748 1199.46 66.748C1197.8 66.748 1196.9 67.9653 1196.76 70.4H1202.19V70.268ZM1214.27 77V71.896H1209.45V77H1207.42V65.406H1209.45V70.268H1214.27V65.406H1216.29V77H1214.27ZM1229.48 77H1227.48V71.764C1227.48 70.884 1227.51 70.048 1227.57 69.256C1227.63 68.464 1227.68 67.9433 1227.73 67.694L1222.86 77H1220.47V65.406H1222.47V70.642C1222.47 71.4193 1222.44 72.226 1222.38 73.062C1222.32 73.8833 1222.28 74.4113 1222.25 74.646L1227.04 65.406H1229.48V77ZM1241.6 65.406V77H1239.57V72.556H1237.04L1234.6 77H1232.34L1235.11 72.094C1233.74 71.4487 1233.06 70.4 1233.06 68.948C1233.06 67.804 1233.47 66.9313 1234.29 66.33C1235.12 65.714 1236.27 65.406 1237.75 65.406H1241.6ZM1239.57 71.016V66.968H1237.7C1236.87 66.968 1236.24 67.1293 1235.81 67.452C1235.4 67.76 1235.2 68.2587 1235.2 68.948C1235.2 69.6813 1235.39 70.2093 1235.77 70.532C1236.16 70.8547 1236.8 71.016 1237.66 71.016H1239.57Z" fill="#3D32CF"/>
<defs>
<filter id="filter0_d_204_10" x="1640" y="44" width="210" height="60" filterUnits="userSpaceOnUse" color-interpolation-filters="sRGB">
<feFlood flood-opacity="0" result="BackgroundImageFix"/>
<feColorMatrix in="SourceAlpha" type="matrix" values="0 0 0 0 0 0 0 0 0 0 0 0 0 0 0 0 0 0 127 0" result="hardAlpha"/>
<feOffset dy="2"/>
<feGaussianBlur stdDeviation="2.5"/>
<feComposite in2="hardAlpha" operator="out"/>
<feColorMatrix type="matrix" values="0 0 0 0 0 0 0 0 0 0 0 0 0 0 0 0 0 0 0.25 0"/>
<feBlend mode="normal" in2="BackgroundImageFix" result="effect1_dropShadow_204_10"/>
<feBlend mode="normal" in="SourceGraphic" in2="effect1_dropShadow_204_10" result="shape"/>
</filter>
<filter id="filter1_d_204_10" x="1254" y="92" width="85" height="84" filterUnits="userSpaceOnUse" color-interpolation-filters="sRGB">
<feFlood flood-opacity="0" result="BackgroundImageFix"/>
<feColorMatrix in="SourceAlpha" type="matrix" values="0 0 0 0 0 0 0 0 0 0 0 0 0 0 0 0 0 0 127 0" result="hardAlpha"/>
<feOffset dy="5"/>
<feGaussianBlur stdDeviation="2.5"/>
<feComposite in2="hardAlpha" operator="out"/>
<feColorMatrix type="matrix" values="0 0 0 0 0 0 0 0 0 0 0 0 0 0 0 0 0 0 0.25 0"/>
<feBlend mode="normal" in2="BackgroundImageFix" result="effect1_dropShadow_204_10"/>
<feBlend mode="normal" in="SourceGraphic" in2="effect1_dropShadow_204_10" result="shape"/>
</filter>
<filter id="filter2_d_204_10" x="1297" y="94" width="35" height="35" filterUnits="userSpaceOnUse" color-interpolation-filters="sRGB">
<feFlood flood-opacity="0" result="BackgroundImageFix"/>
<feColorMatrix in="SourceAlpha" type="matrix" values="0 0 0 0 0 0 0 0 0 0 0 0 0 0 0 0 0 0 127 0" result="hardAlpha"/>
<feOffset/>
<feGaussianBlur stdDeviation="2.5"/>
<feComposite in2="hardAlpha" operator="out"/>
<feColorMatrix type="matrix" values="0 0 0 0 0.239216 0 0 0 0 0.196078 0 0 0 0 0.811765 0 0 0 1 0"/>
<feBlend mode="normal" in2="BackgroundImageFix" result="effect1_dropShadow_204_10"/>
<feBlend mode="normal" in="SourceGraphic" in2="effect1_dropShadow_204_10" result="shape"/>
</filter>
<filter id="filter3_d_204_10" x="1264" y="96" width="31" height="31" filterUnits="userSpaceOnUse" color-interpolation-filters="sRGB">
<feFlood flood-opacity="0" result="BackgroundImageFix"/>
<feColorMatrix in="SourceAlpha" type="matrix" values="0 0 0 0 0 0 0 0 0 0 0 0 0 0 0 0 0 0 127 0" result="hardAlpha"/>
<feOffset/>
<feGaussianBlur stdDeviation="1.5"/>
<feComposite in2="hardAlpha" operator="out"/>
<feColorMatrix type="matrix" values="0 0 0 0 0 0 0 0 0 0 0 0 0 0 0 0 0 0 0.5 0"/>
<feBlend mode="normal" in2="BackgroundImageFix" result="effect1_dropShadow_204_10"/>
<feBlend mode="normal" in="SourceGraphic" in2="effect1_dropShadow_204_10" result="shape"/>
</filter>
<filter id="filter4_d_204_10" x="1264" y="131" width="31" height="31" filterUnits="userSpaceOnUse" color-interpolation-filters="sRGB">
<feFlood flood-opacity="0" result="BackgroundImageFix"/>
<feColorMatrix in="SourceAlpha" type="matrix" values="0 0 0 0 0 0 0 0 0 0 0 0 0 0 0 0 0 0 127 0" result="hardAlpha"/>
<feOffset/>
<feGaussianBlur stdDeviation="1.5"/>
<feComposite in2="hardAlpha" operator="out"/>
<feColorMatrix type="matrix" values="0 0 0 0 0 0 0 0 0 0 0 0 0 0 0 0 0 0 0.5 0"/>
<feBlend mode="normal" in2="BackgroundImageFix" result="effect1_dropShadow_204_10"/>
<feBlend mode="normal" in="SourceGraphic" in2="effect1_dropShadow_204_10" result="shape"/>
</filter>
<filter id="filter5_d_204_10" x="1299" y="131" width="31" height="31" filterUnits="userSpaceOnUse" color-interpolation-filters="sRGB">
<feFlood flood-opacity="0" result="BackgroundImageFix"/>
<feColorMatrix in="SourceAlpha" type="matrix" values="0 0 0 0 0 0 0 0 0 0 0 0 0 0 0 0 0 0 127 0" result="hardAlpha"/>
<feOffset/>
<feGaussianBlur stdDeviation="1.5"/>
<feComposite in2="hardAlpha" operator="out"/>
<feColorMatrix type="matrix" values="0 0 0 0 0 0 0 0 0 0 0 0 0 0 0 0 0 0 0.5 0"/>
<feBlend mode="normal" in2="BackgroundImageFix" result="effect1_dropShadow_204_10"/>
<feBlend mode="normal" in="SourceGraphic" in2="effect1_dropShadow_204_10" result="shape"/>
</filter>
<clipPath id="clip0_204_10">
<rect width="25" height="25" fill="white" transform="translate(1364 59)"/>
</clipPath>
<clipPath id="clip1_204_10">
<rect width="30" height="30" fill="white" transform="translate(1304 57)"/>
</clipPath>
</defs>
</svg>
