<svg width="554" height="460" viewBox="0 0 554 460" fill="none" xmlns="http://www.w3.org/2000/svg">
<rect width="554" height="460" fill="white"/>
<path d="M52.125 62.725C54.3417 62.725 56.0583 63.1833 57.275 64.1C58.5083 65.0167 59.125 66.3917 59.125 68.225C59.125 70.1417 58.5083 71.5833 57.275 72.55C56.0417 73.5 54.4 73.975 52.35 73.975H50.325V80H47.025V62.725H52.125ZM52.1 71.5C53.2833 71.5 54.175 71.2583 54.775 70.775C55.375 70.275 55.675 69.425 55.675 68.225C55.675 66.175 54.4833 65.15 52.1 65.15H50.325V71.5H52.1ZM68.2549 63.175V80H65.1049V66.4L61.3549 68.675L59.9549 66.525L65.4299 63.175H68.2549ZM78.2598 70.475V67.925H88.2848V70.475H78.2598ZM78.2598 75.525V72.975H88.2848V75.525H78.2598ZM101.704 62.875C102.837 62.875 103.812 63.0833 104.629 63.5C105.462 63.9167 106.096 64.4833 106.529 65.2C106.962 65.9167 107.179 66.7167 107.179 67.6C107.179 68.55 106.971 69.4667 106.554 70.35C106.154 71.2167 105.479 72.1833 104.529 73.25C103.579 74.3167 102.187 75.725 100.354 77.475H107.554L107.204 80H96.7289V77.65C98.8622 75.4833 100.387 73.8833 101.304 72.85C102.237 71.8 102.896 70.9083 103.279 70.175C103.679 69.425 103.879 68.65 103.879 67.85C103.879 67.0833 103.654 66.4833 103.204 66.05C102.771 65.6167 102.187 65.4 101.454 65.4C100.804 65.4 100.229 65.5417 99.7289 65.825C99.2456 66.0917 98.7372 66.5417 98.2039 67.175L96.2539 65.625C97.6706 63.7917 99.4872 62.875 101.704 62.875ZM119.525 65.55H113.225V69.725C114.058 69.3083 114.908 69.1 115.775 69.1C116.708 69.1 117.541 69.3167 118.275 69.75C119.008 70.1833 119.575 70.8083 119.975 71.625C120.391 72.4417 120.6 73.4083 120.6 74.525C120.6 75.675 120.341 76.6917 119.825 77.575C119.308 78.4583 118.575 79.15 117.625 79.65C116.675 80.1333 115.575 80.375 114.325 80.375C113.208 80.375 112.216 80.175 111.35 79.775C110.5 79.3583 109.725 78.7667 109.025 78L110.85 76.3C111.816 77.3667 112.95 77.9 114.25 77.9C115.2 77.9 115.941 77.6083 116.475 77.025C117.025 76.4417 117.3 75.6083 117.3 74.525C117.3 72.4417 116.4 71.4 114.6 71.4C114.216 71.4 113.858 71.45 113.525 71.55C113.191 71.6333 112.825 71.775 112.425 71.975H110.15V63.175H119.9L119.525 65.55ZM130.313 66.4C131.98 66.4 133.213 67.0083 134.013 68.225C134.813 69.4417 135.213 71.15 135.213 73.35C135.213 74.7167 135.005 75.9333 134.588 77C134.188 78.05 133.588 78.875 132.788 79.475C132.005 80.075 131.071 80.375 129.988 80.375C128.588 80.375 127.48 79.8917 126.663 78.925V85.1L123.463 85.45V66.775H126.263L126.438 68.4C126.955 67.7333 127.546 67.2333 128.213 66.9C128.88 66.5667 129.58 66.4 130.313 66.4ZM129.088 77.925C130.938 77.925 131.863 76.4083 131.863 73.375C131.863 71.7583 131.655 70.5917 131.238 69.875C130.821 69.1583 130.196 68.8 129.363 68.8C128.83 68.8 128.33 68.9667 127.863 69.3C127.396 69.6167 126.996 70.05 126.663 70.6V76.55C127.28 77.4667 128.088 77.925 129.088 77.925ZM144.312 72.925L148.737 80H145.037L142.312 74.75L139.612 80H136.087L140.487 73.025L136.537 66.775H140.187L142.437 71.275L144.662 66.775H148.137L144.312 72.925Z" fill="black"/>
<path d="M59.25 139.45C63.6833 139.45 67.1167 140.367 69.55 142.2C72.0167 144.033 73.25 146.783 73.25 150.45C73.25 154.283 72.0167 157.167 69.55 159.1C67.0833 161 63.8 161.95 59.7 161.95H55.65V174H49.05V139.45H59.25ZM59.2 157C61.5667 157 63.35 156.517 64.55 155.55C65.75 154.55 66.35 152.85 66.35 150.45C66.35 146.35 63.9667 144.3 59.2 144.3H55.65V157H59.2ZM85.0191 139.75C87.2858 139.75 89.2358 140.167 90.8691 141C92.5358 141.833 93.8025 142.967 94.6691 144.4C95.5358 145.833 95.9691 147.433 95.9691 149.2C95.9691 151.1 95.5525 152.933 94.7191 154.7C93.9191 156.433 92.5691 158.367 90.6691 160.5C88.7691 162.633 85.9858 165.45 82.3191 168.95H96.7191L96.0191 174H75.0691V169.3C79.3358 164.967 82.3858 161.767 84.2191 159.7C86.0858 157.6 87.4025 155.817 88.1691 154.35C88.9691 152.85 89.3691 151.3 89.3691 149.7C89.3691 148.167 88.9191 146.967 88.0191 146.1C87.1525 145.233 85.9858 144.8 84.5191 144.8C83.2191 144.8 82.0691 145.083 81.0691 145.65C80.1025 146.183 79.0858 147.083 78.0191 148.35L74.1191 145.25C76.9525 141.583 80.5858 139.75 85.0191 139.75ZM113.961 154.95V149.85H134.011V154.95H113.961ZM113.961 165.05V159.95H134.011V165.05H113.961ZM171.149 145.1H158.549V153.45C160.216 152.617 161.916 152.2 163.649 152.2C165.516 152.2 167.183 152.633 168.649 153.5C170.116 154.367 171.249 155.617 172.049 157.25C172.883 158.883 173.299 160.817 173.299 163.05C173.299 165.35 172.783 167.383 171.749 169.15C170.716 170.917 169.249 172.3 167.349 173.3C165.449 174.267 163.249 174.75 160.749 174.75C158.516 174.75 156.533 174.35 154.799 173.55C153.099 172.717 151.549 171.533 150.149 170L153.799 166.6C155.733 168.733 157.999 169.8 160.599 169.8C162.499 169.8 163.983 169.217 165.049 168.05C166.149 166.883 166.699 165.217 166.699 163.05C166.699 158.883 164.899 156.8 161.299 156.8C160.533 156.8 159.816 156.9 159.149 157.1C158.483 157.267 157.749 157.55 156.949 157.95H152.399V140.35H171.899L171.149 145.1ZM189.476 139.75C193.409 139.75 196.392 141.25 198.426 144.25C200.492 147.25 201.526 151.567 201.526 157.2C201.526 162.867 200.492 167.217 198.426 170.25C196.392 173.25 193.409 174.75 189.476 174.75C185.542 174.75 182.542 173.25 180.476 170.25C178.442 167.217 177.426 162.867 177.426 157.2C177.426 151.567 178.442 147.25 180.476 144.25C182.542 141.25 185.542 139.75 189.476 139.75ZM189.476 144.6C187.576 144.6 186.192 145.567 185.326 147.5C184.459 149.4 184.026 152.633 184.026 157.2C184.026 161.8 184.459 165.067 185.326 167C186.192 168.933 187.576 169.9 189.476 169.9C191.376 169.9 192.759 168.95 193.626 167.05C194.492 165.117 194.926 161.833 194.926 157.2C194.926 152.6 194.492 149.35 193.626 147.45C192.759 145.55 191.376 144.6 189.476 144.6ZM221.388 146.8C224.721 146.8 227.188 148.017 228.788 150.45C230.388 152.883 231.188 156.3 231.188 160.7C231.188 163.433 230.771 165.867 229.938 168C229.138 170.1 227.938 171.75 226.338 172.95C224.771 174.15 222.905 174.75 220.738 174.75C217.938 174.75 215.721 173.783 214.088 171.85V184.2L207.688 184.9V147.55H213.288L213.638 150.8C214.671 149.467 215.855 148.467 217.188 147.8C218.521 147.133 219.921 146.8 221.388 146.8ZM218.938 169.85C222.638 169.85 224.488 166.817 224.488 160.75C224.488 157.517 224.071 155.183 223.238 153.75C222.405 152.317 221.155 151.6 219.488 151.6C218.421 151.6 217.421 151.933 216.488 152.6C215.555 153.233 214.755 154.1 214.088 155.2V167.1C215.321 168.933 216.938 169.85 218.938 169.85ZM249.386 159.85L258.236 174H250.836L245.386 163.5L239.986 174H232.936L241.736 160.05L233.836 147.55H241.136L245.636 156.55L250.086 147.55H257.036L249.386 159.85Z" fill="black"/>
<path d="M54.975 235.815C58.0783 235.815 60.4817 236.457 62.185 237.74C63.9117 239.023 64.775 240.948 64.775 243.515C64.775 246.198 63.9117 248.217 62.185 249.57C60.4583 250.9 58.16 251.565 55.29 251.565H52.455V260H47.835V235.815H54.975ZM54.94 248.1C56.5967 248.1 57.845 247.762 58.685 247.085C59.525 246.385 59.945 245.195 59.945 243.515C59.945 240.645 58.2767 239.21 54.94 239.21H52.455V248.1H54.94ZM73.1151 236.025C74.6785 236.025 76.0201 236.293 77.1401 236.83C78.2835 237.367 79.1351 238.09 79.6951 239C80.2785 239.91 80.5701 240.913 80.5701 242.01C80.5701 243.433 80.1618 244.623 79.3451 245.58C78.5285 246.513 77.4085 247.167 75.9851 247.54C77.5485 247.68 78.8318 248.24 79.8351 249.22C80.8385 250.2 81.3401 251.553 81.3401 253.28C81.3401 254.633 80.9901 255.858 80.2901 256.955C79.6135 258.052 78.6335 258.927 77.3501 259.58C76.0668 260.21 74.5501 260.525 72.8001 260.525C69.5801 260.525 67.0368 259.393 65.1701 257.13L67.6551 254.75C68.4485 255.543 69.2301 256.127 70.0001 256.5C70.7701 256.85 71.6218 257.025 72.5551 257.025C73.8151 257.025 74.8185 256.675 75.5651 255.975C76.3351 255.252 76.7201 254.283 76.7201 253.07C76.7201 251.717 76.3585 250.748 75.6351 250.165C74.9351 249.582 73.8851 249.29 72.4851 249.29H70.6301L71.1551 246.105H72.4151C73.5585 246.105 74.4685 245.79 75.1451 245.16C75.8451 244.53 76.1951 243.655 76.1951 242.535C76.1951 241.578 75.8801 240.832 75.2501 240.295C74.6201 239.735 73.7801 239.455 72.7301 239.455C71.8201 239.455 70.9918 239.63 70.2451 239.98C69.4985 240.307 68.7518 240.82 68.0051 241.52L65.7301 239.035C67.8535 237.028 70.3151 236.025 73.1151 236.025ZM93.5119 246.665V243.095H107.547V246.665H93.5119ZM93.5119 253.735V250.165H107.547V253.735H93.5119ZM126.299 236.025C127.862 236.025 129.204 236.293 130.324 236.83C131.467 237.367 132.319 238.09 132.879 239C133.462 239.91 133.754 240.913 133.754 242.01C133.754 243.433 133.345 244.623 132.529 245.58C131.712 246.513 130.592 247.167 129.169 247.54C130.732 247.68 132.015 248.24 133.019 249.22C134.022 250.2 134.524 251.553 134.524 253.28C134.524 254.633 134.174 255.858 133.474 256.955C132.797 258.052 131.817 258.927 130.534 259.58C129.25 260.21 127.734 260.525 125.984 260.525C122.764 260.525 120.22 259.393 118.354 257.13L120.839 254.75C121.632 255.543 122.414 256.127 123.184 256.5C123.954 256.85 124.805 257.025 125.739 257.025C126.999 257.025 128.002 256.675 128.749 255.975C129.519 255.252 129.904 254.283 129.904 253.07C129.904 251.717 129.542 250.748 128.819 250.165C128.119 249.582 127.069 249.29 125.669 249.29H123.814L124.339 246.105H125.599C126.742 246.105 127.652 245.79 128.329 245.16C129.029 244.53 129.379 243.655 129.379 242.535C129.379 241.578 129.064 240.832 128.434 240.295C127.804 239.735 126.964 239.455 125.914 239.455C125.004 239.455 124.175 239.63 123.429 239.98C122.682 240.307 121.935 240.82 121.189 241.52L118.914 239.035C121.037 237.028 123.499 236.025 126.299 236.025ZM151.386 239.77H142.566V245.615C143.732 245.032 144.922 244.74 146.136 244.74C147.442 244.74 148.609 245.043 149.636 245.65C150.662 246.257 151.456 247.132 152.016 248.275C152.599 249.418 152.891 250.772 152.891 252.335C152.891 253.945 152.529 255.368 151.806 256.605C151.082 257.842 150.056 258.81 148.726 259.51C147.396 260.187 145.856 260.525 144.106 260.525C142.542 260.525 141.154 260.245 139.941 259.685C138.751 259.102 137.666 258.273 136.686 257.2L139.241 254.82C140.594 256.313 142.181 257.06 144.001 257.06C145.331 257.06 146.369 256.652 147.116 255.835C147.886 255.018 148.271 253.852 148.271 252.335C148.271 249.418 147.011 247.96 144.491 247.96C143.954 247.96 143.452 248.03 142.986 248.17C142.519 248.287 142.006 248.485 141.446 248.765H138.261V236.445H151.911L151.386 239.77ZM166.489 240.96C168.822 240.96 170.549 241.812 171.669 243.515C172.789 245.218 173.349 247.61 173.349 250.69C173.349 252.603 173.057 254.307 172.474 255.8C171.914 257.27 171.074 258.425 169.954 259.265C168.857 260.105 167.551 260.525 166.034 260.525C164.074 260.525 162.522 259.848 161.379 258.495V267.14L156.899 267.63V241.485H160.819L161.064 243.76C161.787 242.827 162.616 242.127 163.549 241.66C164.482 241.193 165.462 240.96 166.489 240.96ZM164.774 257.095C167.364 257.095 168.659 254.972 168.659 250.725C168.659 248.462 168.367 246.828 167.784 245.825C167.201 244.822 166.326 244.32 165.159 244.32C164.412 244.32 163.712 244.553 163.059 245.02C162.406 245.463 161.846 246.07 161.379 246.84V255.17C162.242 256.453 163.374 257.095 164.774 257.095ZM186.088 250.095L192.283 260H187.103L183.288 252.65L179.508 260H174.573L180.733 250.235L175.203 241.485H180.313L183.463 247.785L186.578 241.485H191.443L186.088 250.095Z" fill="black"/>
<path d="M51.27 313.798C53.2207 313.798 54.7313 314.201 55.802 315.008C56.8873 315.815 57.43 317.025 57.43 318.638C57.43 320.325 56.8873 321.593 55.802 322.444C54.7167 323.28 53.272 323.698 51.468 323.698H49.686V329H46.782V313.798H51.27ZM51.248 321.52C52.2893 321.52 53.074 321.307 53.602 320.882C54.13 320.442 54.394 319.694 54.394 318.638C54.394 316.834 53.3453 315.932 51.248 315.932H49.686V321.52H51.248ZM68.6027 323.456V325.612H66.8207V329H64.0707V325.612H57.7787V323.676L62.0907 313.908L64.4887 314.81L60.7047 323.456H64.0927L64.3787 319.738H66.8207V323.456H68.6027ZM75.8584 320.618V318.374H84.6804V320.618H75.8584ZM75.8584 325.062V322.818H84.6804V325.062H75.8584ZM96.4893 313.93C97.4866 313.93 98.3446 314.113 99.0633 314.48C99.7966 314.847 100.354 315.345 100.735 315.976C101.117 316.607 101.307 317.311 101.307 318.088C101.307 318.924 101.124 319.731 100.757 320.508C100.405 321.271 99.8113 322.121 98.9753 323.06C98.1393 323.999 96.9146 325.238 95.3013 326.778H101.637L101.329 329H92.1113V326.932C93.9886 325.025 95.3306 323.617 96.1373 322.708C96.9586 321.784 97.5379 320.999 97.8753 320.354C98.2273 319.694 98.4033 319.012 98.4033 318.308C98.4033 317.633 98.2053 317.105 97.8093 316.724C97.4279 316.343 96.9146 316.152 96.2693 316.152C95.6973 316.152 95.1913 316.277 94.7513 316.526C94.3259 316.761 93.8786 317.157 93.4093 317.714L91.6933 316.35C92.9399 314.737 94.5386 313.93 96.4893 313.93ZM107.64 313.93C108.637 313.93 109.495 314.113 110.214 314.48C110.947 314.847 111.504 315.345 111.886 315.976C112.267 316.607 112.458 317.311 112.458 318.088C112.458 318.924 112.274 319.731 111.908 320.508C111.556 321.271 110.962 322.121 110.126 323.06C109.29 323.999 108.065 325.238 106.452 326.778H112.788L112.48 329H103.262V326.932C105.139 325.025 106.481 323.617 107.288 322.708C108.109 321.784 108.688 320.999 109.026 320.354C109.378 319.694 109.554 319.012 109.554 318.308C109.554 317.633 109.356 317.105 108.96 316.724C108.578 316.343 108.065 316.152 107.42 316.152C106.848 316.152 106.342 316.277 105.902 316.526C105.476 316.761 105.029 317.157 104.56 317.714L102.844 316.35C104.09 314.737 105.689 313.93 107.64 313.93ZM121.386 317.032C122.853 317.032 123.938 317.567 124.642 318.638C125.346 319.709 125.698 321.212 125.698 323.148C125.698 324.351 125.515 325.421 125.148 326.36C124.796 327.284 124.268 328.01 123.564 328.538C122.875 329.066 122.053 329.33 121.1 329.33C119.868 329.33 118.893 328.905 118.174 328.054V333.488L115.358 333.796V317.362H117.822L117.976 318.792C118.431 318.205 118.951 317.765 119.538 317.472C120.125 317.179 120.741 317.032 121.386 317.032ZM120.308 327.174C121.936 327.174 122.75 325.839 122.75 323.17C122.75 321.747 122.567 320.721 122.2 320.09C121.833 319.459 121.283 319.144 120.55 319.144C120.081 319.144 119.641 319.291 119.23 319.584C118.819 319.863 118.467 320.244 118.174 320.728V325.964C118.717 326.771 119.428 327.174 120.308 327.174ZM133.705 322.774L137.599 329H134.343L131.945 324.38L129.569 329H126.467L130.339 322.862L126.863 317.362H130.075L132.055 321.322L134.013 317.362H137.071L133.705 322.774Z" fill="black"/>
<path d="M49.275 378.635C50.605 378.635 51.635 378.91 52.365 379.46C53.105 380.01 53.475 380.835 53.475 381.935C53.475 383.085 53.105 383.95 52.365 384.53C51.625 385.1 50.64 385.385 49.41 385.385H48.195V389H46.215V378.635H49.275ZM49.26 383.9C49.97 383.9 50.505 383.755 50.865 383.465C51.225 383.165 51.405 382.655 51.405 381.935C51.405 380.705 50.69 380.09 49.26 380.09H48.195V383.9H49.26ZM60.2276 380.33H56.4476V382.835C56.9476 382.585 57.4576 382.46 57.9776 382.46C58.5376 382.46 59.0376 382.59 59.4776 382.85C59.9176 383.11 60.2576 383.485 60.4976 383.975C60.7476 384.465 60.8726 385.045 60.8726 385.715C60.8726 386.405 60.7176 387.015 60.4076 387.545C60.0976 388.075 59.6576 388.49 59.0876 388.79C58.5176 389.08 57.8576 389.225 57.1076 389.225C56.4376 389.225 55.8426 389.105 55.3226 388.865C54.8126 388.615 54.3476 388.26 53.9276 387.8L55.0226 386.78C55.6026 387.42 56.2826 387.74 57.0626 387.74C57.6326 387.74 58.0776 387.565 58.3976 387.215C58.7276 386.865 58.8926 386.365 58.8926 385.715C58.8926 384.465 58.3526 383.84 57.2726 383.84C57.0426 383.84 56.8276 383.87 56.6276 383.93C56.4276 383.98 56.2076 384.065 55.9676 384.185H54.6026V378.905H60.4526L60.2276 380.33ZM66.0105 383.285V381.755H72.0255V383.285H66.0105ZM66.0105 386.315V384.785H72.0255V386.315H66.0105ZM81.907 378.905V389H80.017V380.84L77.767 382.205L76.927 380.915L80.212 378.905H81.907ZM89.92 380.33H86.14V382.835C86.64 382.585 87.15 382.46 87.67 382.46C88.23 382.46 88.73 382.59 89.17 382.85C89.61 383.11 89.95 383.485 90.19 383.975C90.44 384.465 90.565 385.045 90.565 385.715C90.565 386.405 90.41 387.015 90.1 387.545C89.79 388.075 89.35 388.49 88.78 388.79C88.21 389.08 87.55 389.225 86.8 389.225C86.13 389.225 85.535 389.105 85.015 388.865C84.505 388.615 84.04 388.26 83.62 387.8L84.715 386.78C85.295 387.42 85.975 387.74 86.755 387.74C87.325 387.74 87.77 387.565 88.09 387.215C88.42 386.865 88.585 386.365 88.585 385.715C88.585 384.465 88.045 383.84 86.965 383.84C86.735 383.84 86.52 383.87 86.32 383.93C86.12 383.98 85.9 384.065 85.66 384.185H84.295V378.905H90.145L89.92 380.33ZM96.3929 380.84C97.3929 380.84 98.1329 381.205 98.6129 381.935C99.0929 382.665 99.3329 383.69 99.3329 385.01C99.3329 385.83 99.2079 386.56 98.9579 387.2C98.7179 387.83 98.3579 388.325 97.8779 388.685C97.4079 389.045 96.8479 389.225 96.1979 389.225C95.3579 389.225 94.6929 388.935 94.2029 388.355V392.06L92.2829 392.27V381.065H93.9629L94.0679 382.04C94.3779 381.64 94.7329 381.34 95.1329 381.14C95.5329 380.94 95.9529 380.84 96.3929 380.84ZM95.6579 387.755C96.7679 387.755 97.3229 386.845 97.3229 385.025C97.3229 384.055 97.1979 383.355 96.9479 382.925C96.6979 382.495 96.3229 382.28 95.8229 382.28C95.5029 382.28 95.2029 382.38 94.9229 382.58C94.6429 382.77 94.4029 383.03 94.2029 383.36V386.93C94.5729 387.48 95.0579 387.755 95.6579 387.755ZM104.792 384.755L107.447 389H105.227L103.592 385.85L101.972 389H99.8573L102.497 384.815L100.127 381.065H102.317L103.667 383.765L105.002 381.065H107.087L104.792 384.755Z" fill="black"/>
</svg>
