<svg width="190" height="70" viewBox="0 0 190 70" fill="none" xmlns="http://www.w3.org/2000/svg">
<path fill-rule="evenodd" clip-rule="evenodd" d="M137.122 36.229H142.773C143.179 36.229 143.201 36.7622 143.294 37.0951L145.224 44.9924H134.244C134.456 44.55 134.728 43.3045 134.883 42.7481L136.527 37.1283C136.66 36.7772 136.758 36.229 137.122 36.229ZM175.501 42.9618H162.069V36.9771H175.821C176.36 36.9771 177.238 37.6371 177.533 37.9326C179.799 40.1991 177.642 42.9618 175.501 42.9618ZM175.714 32.4886H162.069V26.5038H175.608C176.284 26.5038 177.102 27.0491 177.499 27.3864C179.677 29.2363 177.883 32.4886 175.714 32.4886ZM139.468 21.8015V21.2672C139.468 20.5997 140.294 19.7709 140.96 19.7709H141.493C142.159 19.7709 142.986 20.5997 142.986 21.2672V21.8015C142.986 22.4689 142.159 23.2977 141.493 23.2977H140.96C140.294 23.2977 139.468 22.4689 139.468 21.8015ZM154.819 1.92367C154.819 3.52205 155.533 4.48855 157.271 4.48855C157.325 5.13204 158.708 8.17936 158.963 8.88381L160.717 13.3244C161.066 14.0077 161.283 14.7039 161.58 15.4517C161.934 16.3417 164.153 21.5503 164.201 22.1221H157.698V26.8244L143.833 22.2452C143.839 21.1279 143.881 20.572 143.334 19.956C141.315 17.6832 138.615 19.5156 138.615 21.2672V21.8015C138.615 22.9914 139.85 24.1527 141.067 24.1527C140.629 26.0355 140.446 28.0642 140.152 29.9688C140.09 30.372 140.055 30.6559 140.009 31.0008C139.941 31.5049 139.883 31.5438 139.787 31.9541C138.859 31.9541 136.165 31.7953 135.487 32.0252C134.704 32.2909 133.306 33.2887 132.926 33.9465C132.467 34.7411 129.379 46.007 128.901 47.6516C128.616 48.6284 126.994 53.7679 126.994 54.7176C126.994 55.3513 126.857 55.7648 127.276 56.2525C127.669 56.7108 128.063 57.0268 128.7 57.1756C128.683 57.9454 128.323 59.3532 128.196 60.0904L127.42 64.4422C127.186 65.9132 127.279 65.2306 126.292 65.8757L125.828 66.2662C124.531 67.7364 125.75 70 127.208 70C127.97 70 128.558 69.8938 129.121 69.3532L129.522 68.7935C130.161 67.5991 129.538 65.9385 128.167 65.6184C128.167 64.4264 129.223 59.4045 129.5 57.7638C129.66 56.8185 129.95 57.4085 130.864 56.4593C131.677 55.6158 132.393 50.7904 133.071 49.374H146.397L147.953 55.8299C148.043 56.0946 148.284 56.4301 148.45 56.6136C148.667 56.8535 148.971 57.0105 149.343 57.1081C149.826 57.2347 150.064 57.1232 150.21 57.5214C150.262 57.6638 150.365 58.4929 150.403 58.7175C150.54 59.5429 150.65 60.2061 150.783 61.0079C150.906 61.7468 151.057 62.5433 151.179 63.2822C151.299 64.0022 151.514 64.8739 151.514 65.6184C151.373 65.7133 151.217 65.8105 151.069 65.9201C149.151 67.3359 150.471 70 152.047 70C152.81 70 153.397 69.8938 153.961 69.3532C155.162 68.2007 154.609 66.0906 153.034 65.5915C152.156 65.3135 152.442 65.6487 152.29 64.6274C152.208 64.0807 152.131 63.6676 152.047 63.1603C151.82 61.7852 151.088 58.4694 151.088 57.1756C151.088 56.8685 152.261 56.6497 152.261 55.145C152.261 53.5765 149.282 42.9446 148.826 41.1678L147.508 36.077C147.24 35.1296 147.232 34.1034 146.52 33.4341L146.122 33.0849C145.689 32.7216 145.307 32.3687 144.777 32.1888C143.619 31.7955 141.927 31.9541 140.64 31.9541C140.541 31.4861 140.744 30.6465 140.822 30.1053L141.418 26.2145C141.498 25.7314 141.706 24.684 141.706 24.1527C144.635 23.4687 140.987 22.2192 146.97 24.2192L154.087 26.597C155.243 26.9834 156.513 27.5095 157.698 27.7862V47.3436H175.821C179.665 47.3436 182.964 43.716 182.964 39.9694C182.964 37.9916 181.968 35.4957 180.832 34.7328C181.298 34.0343 181.832 33.4781 182.219 32.7035C183.081 30.977 183.217 28.5766 182.396 26.7527C181.464 24.6825 179.944 22.9003 177.527 22.3358C177.818 21.0853 178.754 19.1532 179.263 17.878C179.911 16.2547 184.296 5.63833 184.563 4.48855C185.655 4.48855 185.921 4.56416 186.609 4.0811C186.875 3.89391 187.007 3.775 187.188 3.4867C188.181 1.90397 186.954 0 185.629 0C184.781 0 184.034 0.167628 183.515 0.872971C182.677 2.01227 183.091 2.97499 183.817 4.06102C183.635 4.84198 183.238 5.56335 182.949 6.29003L178.441 17.5879C177.944 18.8322 176.955 20.9139 176.674 22.1221H165.16C164.89 20.9591 162.16 14.4961 161.657 13.2365C161.058 11.7328 160.499 10.3324 159.891 8.80909C159.577 8.02271 159.319 7.37518 159.008 6.59524C158.727 5.89229 158.287 4.97489 158.124 4.27472C160.398 2.74842 158.968 0 157.378 0C156.345 0 155.558 0.282744 155.063 1.20646C154.935 1.44565 154.819 1.62212 154.819 1.92367Z" fill="#3D32CF"/>
<path fill-rule="evenodd" clip-rule="evenodd" d="M108.871 49.8015V49.2672C108.871 48.5998 109.698 47.771 110.363 47.771H110.896C111.562 47.771 112.389 48.5998 112.389 49.2672V49.8015C112.389 50.4689 111.562 51.2977 110.896 51.2977H110.363C109.698 51.2977 108.871 50.4689 108.871 49.8015ZM92.4531 1.92367C92.4531 2.60743 92.5959 3.36982 93.0824 3.85755C93.8331 4.61011 94.7307 4.45838 95.6513 4.38164C96.3839 5.4784 97.1468 6.44351 97.9351 7.54268C99.6228 9.89601 101.511 12.1282 103.137 14.5109C103.527 15.0813 103.327 17.7065 103.327 18.4885C103.327 21.401 103.063 26.8692 103.511 29.2053C103.796 30.6939 104.502 31.8782 105.518 32.643C106.703 33.5344 108.207 34.3053 109.937 34.3053C109.937 38.5855 110.15 42.5994 110.15 46.916C109.559 47.054 108.613 47.4578 108.444 48.0916C107.785 48.0365 103.196 45.8236 102.184 45.3902C101.105 44.9281 100.144 44.4529 99.0781 44.0151C98.0795 43.6048 96.9172 42.8871 95.8645 42.6412C95.8645 41.2364 95.7162 38.5861 95.9102 37.342C96.0383 36.5214 95.7574 33.2941 95.4714 32.562C94.9199 31.1505 94.2248 30.4324 93.0514 29.6444C92.2951 29.1363 90.2102 28.2137 89.0415 28.2137H71.771C68.8078 28.2137 66.7169 29.8312 65.5496 32.1298C65.2465 32.727 64.7348 33.9171 64.7348 34.7328V51.9389C64.7348 52.7881 65.5228 53.2706 66.2273 53.4352C66.1879 53.9096 65.9801 54.5107 65.847 54.9775L63.8738 62.0834C63.5845 63.1861 63.5433 62.4819 62.6659 62.9031C61.2886 63.5642 60.7974 65.4324 61.9527 66.5906C62.8253 67.4653 64.297 67.3985 65.1556 66.5746C65.9816 65.7819 65.9753 64.5207 65.3595 63.6028C65.121 63.2476 64.8905 63.1422 64.5216 62.9466C64.8483 62.2641 64.9717 61.4198 65.1991 60.6334L67.1868 53.4352C69.8248 53.4352 69.1057 51.2021 69.1057 48.8397C69.1057 45.9565 68.9196 38.0225 69.2389 35.7213C69.4951 33.8765 70.9072 32.3817 72.8371 32.3817C74.7071 32.3817 76.1977 32.4886 78.0608 32.4886V48.7328C78.0608 50.3733 81.8486 50.6402 82.3637 49.3059C82.5607 48.7957 82.4642 35.6398 82.4281 33.4466C82.4203 32.9709 82.3022 32.4886 82.7517 32.4886H88.1887C88.9632 32.4886 89.9005 33.1566 90.2978 33.5804C90.7768 34.0916 91.2595 34.9185 91.4353 35.7531C91.7704 37.3449 91.3425 48.7981 91.4886 51.944C91.5324 52.8885 92.3026 53.4672 93.1993 53.5419C93.225 54.6951 96.2629 64.0374 96.291 65.2978C94.8637 65.6797 94.8352 67.9202 95.7475 68.8348C96.823 69.9128 98.6635 69.545 99.3517 68.2591C99.8121 67.3991 99.623 66.1267 98.8529 65.508C98.3626 65.1143 98.0296 64.9771 97.1438 64.9771C97.0707 64.0961 95.8756 60.1503 95.6134 59.244C95.3173 58.2198 94.4495 54.3721 94.0522 53.5419C96.2813 53.4922 95.8645 51.682 95.8645 49.4809C95.8645 47.5217 95.8645 45.5623 95.8645 43.603C96.6942 43.7968 98.1187 44.5351 98.9205 44.9212C101.414 46.1217 103.948 47.0943 106.455 48.2694C106.989 48.5201 107.538 48.6922 108.018 48.9466C108.018 50.0669 108.005 50.5614 108.574 51.1674C109.261 51.8989 109.801 52.1527 110.896 52.1527C112.022 52.1527 113.242 50.9299 113.242 49.8015V49.2672C113.242 48.1277 112.061 47.0043 111.003 46.916C111.003 42.6032 110.79 38.5555 110.79 34.3053H127.207C128.907 34.3053 128.891 31.3273 127.774 30.318C127.237 29.8336 126.03 30.0305 125.288 30.0305C123.323 30.0305 121.723 29.9237 119.745 29.9237H111.323C109.627 29.926 108.515 29.5646 107.866 27.7243C107.508 26.7066 107.698 15.5774 107.698 13.6793C107.698 12.7515 107.698 11.8241 107.702 10.8963C107.707 9.95054 107.376 9.25769 106.632 9.08388C107 8.53241 108.539 7.62258 109.191 7.16098L113.562 4.06102C113.838 4.06102 116.001 5.43864 117.155 3.28197C117.922 1.84982 116.8 0 115.481 0C114.448 0 113.66 0.282744 113.166 1.20646C112.834 1.82761 112.838 2.69313 113.135 3.31289C112.157 3.96964 111.213 4.66564 110.256 5.34271L105.947 8.39773C105.219 8.93532 104.888 8.76845 104.21 9.1143C103.627 9.41181 103.339 9.84729 103.322 10.6819C103.305 11.5263 103.327 12.4033 103.327 13.2518C102.89 12.9311 100.404 9.34037 99.8548 8.61054L97.2658 5.11437C97.1087 4.90458 96.3975 4.05358 96.3975 3.84733C96.3975 3.6614 97.6987 2.03184 96.3012 0.63087C95.3695 -0.303192 93.6719 -0.180247 92.8974 0.872971C92.6851 1.16177 92.4531 1.53982 92.4531 1.92367Z" fill="#3D32CF"/>
<path fill-rule="evenodd" clip-rule="evenodd" d="M50.9824 66.2596V65.7252C50.9824 65.0578 51.8092 64.229 52.4749 64.229H53.0079C53.6737 64.229 54.5005 65.0578 54.5005 65.7252V66.2596C54.5005 66.9269 53.6737 67.7557 53.0079 67.7557H52.4749C51.8092 67.7557 50.9824 66.9269 50.9824 66.2596ZM59.8309 14.6412C59.8309 15.341 59.928 15.7271 60.2574 16.3512C59.8342 16.9847 59.0589 17.4949 58.4765 17.9858L56.6048 19.6362C55.8271 20.395 53.3428 22.3163 52.9014 22.9771C52.2456 22.824 51.4819 22.5931 50.6431 22.8503C49.9328 23.0682 49.3833 23.5727 49.3833 24.4733V46.7024C49.3833 47.8087 50.5197 48.3054 51.5154 48.3054C51.5154 49.6678 51.6008 50.672 51.6178 52.0501L52.046 61.4528C52.0428 62.207 52.1551 62.5626 52.1551 63.3741C51.7163 63.5852 51.5649 63.5369 51.1704 63.8832L50.8806 64.1269C50.526 64.3612 50.4921 64.1422 50.4493 64.6565C50.1098 64.5657 48.0395 62.6045 47.6487 62.2274L46.2634 60.9443C46.0248 60.7038 45.8657 60.5358 45.6274 60.2994C44.3599 59.0422 40.0951 55.4417 39.4687 54.5038C40.0486 54.1145 40.0017 53.9214 40.0017 53.2214C40.0017 52.3498 39.5627 51.6819 38.8935 51.2329C38.445 50.932 38.2393 50.9699 37.5513 50.9756C37.018 50.98 36.4839 50.9771 35.9506 50.9771C34.2066 48.3663 31.4218 44.8162 29.4629 42.1983C29.0838 41.6919 28.745 41.2395 28.366 40.733C28.0429 40.3013 27.4563 39.7505 27.3152 39.2214C29.981 37.8074 32.4316 36.0379 35.0919 34.6201C36.1973 34.0311 38.5349 34.7606 39.7038 34.3273C41.2571 33.7515 40.8987 29.9237 39.0422 29.9237H34.3515C33.8861 29.9237 20.3864 38.4628 19.4263 38.687C19.4263 36.9771 19.4263 35.2672 19.4263 33.5572C19.4263 32.8006 19.5701 31.6927 19.2935 31.1254C18.7512 30.0124 17.8205 30.0305 16.761 30.0305C14.8399 30.0305 17.209 31.1274 13.0163 29.6166L6.93772 27.3742C6.582 27.2411 5.99385 27.006 5.67378 26.9313C5.67378 25.8145 5.73837 25.7195 5.27349 24.9815C4.55099 23.8346 2.75569 23.7443 1.82555 24.6767C0.56564 25.9397 1.10607 28.5344 3.64818 28.5344C4.27674 28.5344 5.00491 28.0423 5.2473 27.6794C6.09987 28.1316 9.05033 29.1159 10.1377 29.5098C11.6891 30.0716 13.5809 30.6038 15.0554 31.3129V48.626C15.0554 50.2071 14.8591 52.9871 15.1619 54.2901C14.7028 54.3973 14.2888 54.6912 13.8476 54.8962C13.3207 55.141 12.9702 55.2812 12.4611 55.537C11.9596 55.7889 11.5832 55.9317 11.0739 56.1768L8.4113 57.4619C7.73577 57.8008 4.71506 59.3011 4.1813 59.313C3.80028 57.8826 1.56893 57.8499 0.652899 58.7683C-0.607011 60.0313 -0.0665819 62.626 2.47552 62.626C3.79814 62.626 4.50113 61.4178 4.50113 60.2748C5.01536 60.002 5.4713 59.8329 6.03049 59.5638C6.62356 59.2784 6.99274 59.0794 7.62358 58.8096C9.56708 57.978 13.6485 55.8028 15.3766 55.1338C16.0176 54.8858 17.0252 56.0307 18.5582 55.1299C19.7852 54.4089 19.3229 52.2286 19.3195 50.7633C19.3168 49.5996 19.4263 48.699 19.4263 47.4504C19.4263 46.2748 19.4263 45.0993 19.4263 43.9237C20.0968 43.5681 20.7251 43.2135 21.4064 42.8095C22.0735 42.4139 22.7198 42.0247 23.3708 41.6794C23.8924 42.0295 25.5212 44.3716 26.0058 45.0227C26.8802 46.1973 27.6864 47.2704 28.5642 48.4426L33.0567 54.4124C33.2995 54.7379 33.6094 54.974 33.7119 55.3588L37.8745 55.3638C38.5495 55.3591 38.5377 55.2629 39.0422 55.145C39.4549 55.7628 42.9474 58.7976 43.8151 59.6582L47.2511 62.9466C47.7558 63.3327 48.1448 63.7899 48.6088 64.2573C48.8922 64.5428 49.0285 64.5981 49.3021 64.8447C49.6302 65.1404 49.6334 65.3632 50.1295 65.4046C50.1295 66.5249 50.1169 67.0195 50.686 67.6255C51.3729 68.3569 51.9129 68.6107 53.0079 68.6107C54.1335 68.6107 55.3533 67.3879 55.3533 66.2596V65.7252C55.3533 64.5759 54.1413 63.3994 53.0079 63.3741L52.5773 54.0806C52.5523 52.0403 52.3683 50.3452 52.3683 48.3054C53.0847 47.9607 53.6476 47.6725 53.6476 46.7024V24.2595C53.6476 23.9335 53.5452 23.8283 53.4344 23.6183C54.3303 23.0169 55.3445 21.8803 56.222 21.1762L57.1913 20.331C57.3665 20.175 57.4397 20.0644 57.6237 19.9094L58.5258 19.1039C58.7551 18.9009 58.8276 18.8934 59.0589 18.6765C59.2364 18.5098 59.3064 18.4104 59.4952 18.2589C59.7358 18.0659 59.7804 18.0581 60.018 17.8212C60.2812 17.5587 60.7175 17.1845 61.0037 16.9924C61.7345 17.163 61.5377 17.2061 62.3895 17.2061C62.9552 17.2061 63.581 16.7178 63.8641 16.3331C65.0094 14.7755 63.7722 12.7175 62.3895 12.7175C61.6271 12.7175 61.0394 12.8238 60.4761 13.3643C60.17 13.6582 59.8309 14.1891 59.8309 14.6412Z" fill="#3D32CF"/>
<path fill-rule="evenodd" clip-rule="evenodd" d="M185.522 56.9619C185.522 57.7265 185.568 58.311 186.152 58.8958C187.673 60.4211 190 58.9809 190 57.6031C190 56.8385 189.954 56.2539 189.371 55.6691C187.831 54.126 185.522 55.6236 185.522 56.9619Z" fill="#3D32CF"/>
<path fill-rule="evenodd" clip-rule="evenodd" d="M132.858 11.7554C132.858 12.52 132.904 13.1047 133.487 13.6895C134.405 14.6099 136.24 14.6346 137.054 13.1832C138.01 11.4788 136.488 9.83179 135.417 9.83179C134.633 9.83179 133.909 9.8795 133.302 10.7048C133.205 10.8372 133.186 10.8808 133.102 11.0384C132.974 11.2776 132.858 11.4539 132.858 11.7554Z" fill="#3D32CF"/>
<path fill-rule="evenodd" clip-rule="evenodd" d="M26.8887 19.9849C26.8887 20.7495 26.9346 21.334 27.518 21.9188C28.3503 22.7532 29.7793 22.8066 30.721 21.9029C30.831 21.7974 30.7978 21.8452 30.9217 21.6767C31.0191 21.5444 31.0378 21.5008 31.1221 21.3432C31.9934 19.7153 30.5388 18.0613 29.4473 18.0613C28.4354 18.0613 27.6887 18.229 27.1327 19.2677C27.0048 19.5069 26.8887 19.6833 26.8887 19.9849Z" fill="#3D32CF"/>
</svg>
