<svg width="25" height="25" viewBox="0 0 25 25" fill="none" xmlns="http://www.w3.org/2000/svg">
<g clip-path="url(#clip0_36_899)">
<path d="M14.711 12.5003L24.5419 2.66935C25.1527 2.05908 25.1527 1.0689 24.5419 0.458639C23.9311 -0.152147 22.942 -0.152147 22.3312 0.458639L12.5003 10.2896L2.6688 0.458639C2.05801 -0.152147 1.06888 -0.152147 0.458089 0.458639C-0.152696 1.0689 -0.152696 2.05908 0.458089 2.66935L10.2895 12.5003L0.458089 22.3312C-0.152696 22.9415 -0.152696 23.9317 0.458089 24.5419C0.763482 24.8468 1.16372 24.9995 1.56344 24.9995C1.96317 24.9995 2.36341 24.8468 2.6688 24.5414L12.5003 14.7105L22.3312 24.5414C22.6366 24.8468 23.0368 24.9995 23.4366 24.9995C23.8363 24.9995 24.2365 24.8468 24.5419 24.5414C25.1527 23.9312 25.1527 22.941 24.5419 22.3307L14.711 12.5003Z" fill="black"/>
</g>
<defs>
<clipPath id="clip0_36_899">
<rect width="25" height="25" fill="white"/>
</clipPath>
</defs>
</svg>
