<svg width="300" height="320" viewBox="0 0 300 320" fill="none" xmlns="http://www.w3.org/2000/svg">
<g clip-path="url(#clip0_1_2)">
<path d="M15 93L5 125" stroke="#3D32CF"/>
<path d="M99.4682 189.113L83.4863 258.113" stroke="#3D32CF"/>
<path d="M120 21L149 87" stroke="#3D32CF"/>
<path d="M201.486 191.885L218.486 262.885" stroke="#3D32CF"/>
<path d="M248.166 86.8758L247.5 21.0059" stroke="#3D32CF"/>
<path fill-rule="evenodd" clip-rule="evenodd" d="M216.508 141.379H225.43C226.072 141.379 226.106 142.216 226.254 142.74L229.301 155.15H211.963C212.298 154.454 212.728 152.497 212.973 151.623L215.568 142.792C215.778 142.24 215.933 141.379 216.508 141.379ZM277.107 151.959H255.897V142.554H277.612C278.463 142.554 279.848 143.591 280.315 144.056C283.893 147.617 280.487 151.959 277.107 151.959ZM277.443 135.501H255.897V126.096H277.275C278.343 126.096 279.634 126.953 280.261 127.483C283.7 130.39 280.867 135.501 277.443 135.501ZM220.211 118.707V117.867C220.211 116.818 221.517 115.516 222.568 115.516H223.41C224.461 115.516 225.766 116.818 225.766 117.867V118.707C225.766 119.755 224.461 121.058 223.41 121.058H222.568C221.517 121.058 220.211 119.755 220.211 118.707ZM244.451 87.4702C244.451 89.982 245.577 91.5008 248.323 91.5008C248.407 92.512 250.592 97.3006 250.994 98.4076L253.763 105.386C254.314 106.459 254.656 107.553 255.126 108.728C255.685 110.127 259.189 118.312 259.264 119.211H248.996V126.6L227.105 119.404C227.113 117.648 227.181 116.775 226.317 115.807C223.129 112.235 218.865 115.115 218.865 117.867V118.707C218.865 120.577 220.815 122.401 222.736 122.401C222.046 125.36 221.756 128.548 221.292 131.541C221.194 132.175 221.139 132.621 221.066 133.163C220.959 133.955 220.867 134.016 220.716 134.661C219.25 134.661 214.996 134.411 213.927 134.773C212.691 135.19 210.483 136.758 209.883 137.792C209.158 139.04 204.282 156.744 203.527 159.328C203.078 160.863 200.517 168.94 200.517 170.432C200.517 171.428 200.3 172.078 200.961 172.844C201.582 173.564 202.204 174.061 203.21 174.295C203.183 175.504 202.614 177.717 202.415 178.875L201.189 185.714C200.82 188.025 200.967 186.952 199.407 187.966L198.676 188.58C196.628 190.89 198.552 194.447 200.854 194.447C202.058 194.447 202.985 194.28 203.875 193.431L204.508 192.551C205.518 190.674 204.533 188.065 202.369 187.562C202.369 185.689 204.036 177.797 204.473 175.219C204.725 173.733 205.183 174.661 206.627 173.169C207.91 171.844 209.041 164.261 210.112 162.035H231.153L233.609 172.18C233.752 172.596 234.133 173.123 234.395 173.412C234.737 173.788 235.217 174.035 235.804 174.188C236.567 174.387 236.942 174.212 237.173 174.838C237.256 175.062 237.418 176.365 237.477 176.718C237.695 178.015 237.868 179.057 238.078 180.317C238.271 181.478 238.511 182.73 238.704 183.891C238.892 185.022 239.233 186.392 239.233 187.562C239.009 187.711 238.764 187.864 238.53 188.036C235.501 190.261 237.586 194.447 240.074 194.447C241.278 194.447 242.206 194.28 243.096 193.431C244.992 191.62 244.119 188.304 241.632 187.52C240.246 187.083 240.697 187.609 240.457 186.005C240.328 185.145 240.207 184.496 240.074 183.699C239.715 181.538 238.559 176.328 238.559 174.295C238.559 173.812 240.411 173.468 240.411 171.104C240.411 168.639 235.708 151.932 234.988 149.139L232.907 141.14C232.483 139.651 232.471 138.038 231.347 136.987L230.719 136.438C230.034 135.867 229.431 135.312 228.595 135.03C226.767 134.412 224.094 134.661 222.063 134.661C221.907 133.925 222.227 132.606 222.349 131.756L223.291 125.641C223.417 124.882 223.746 123.236 223.746 122.401C228.371 121.327 222.611 119.363 232.058 122.506L243.294 126.243C245.12 126.85 247.125 127.676 248.996 128.111V158.844H277.612C283.68 158.844 288.89 153.144 288.89 147.256C288.89 144.148 287.318 140.226 285.523 139.027C286.26 137.93 287.102 137.056 287.714 135.839C289.075 133.125 289.289 129.353 287.993 126.487C286.522 123.234 284.121 120.433 280.305 119.546C280.764 117.581 282.243 114.545 283.047 112.541C284.07 109.99 290.993 93.3076 291.415 91.5008C293.138 91.5008 293.56 91.6196 294.645 90.8605C295.065 90.5663 295.274 90.3795 295.56 89.9264C297.128 87.4393 295.19 84.4473 293.098 84.4473C291.758 84.4473 290.579 84.7108 289.76 85.8192C288.437 87.6095 289.091 89.1223 290.236 90.829C289.95 92.0562 289.323 93.1898 288.866 94.3317L281.748 112.085C280.964 114.041 279.402 117.312 278.958 119.211H260.779C260.352 117.383 256.041 107.227 255.248 105.248C254.301 102.885 253.418 100.684 252.459 98.2902C251.963 97.0545 251.556 96.0369 251.064 94.8113C250.621 93.7067 249.926 92.265 249.669 91.1648C253.259 88.7663 251.002 84.4473 248.491 84.4473C246.86 84.4473 245.617 84.8917 244.836 86.3432C244.634 86.7191 244.451 86.9964 244.451 87.4702Z" fill="#3D32CF"/>
<path fill-rule="evenodd" clip-rule="evenodd" d="M171.901 162.707V161.867C171.901 160.818 173.207 159.516 174.258 159.516H175.099C176.151 159.516 177.456 160.818 177.456 161.867V162.707C177.456 163.755 176.151 165.058 175.099 165.058H174.258C173.207 165.058 171.901 163.755 171.901 162.707ZM145.979 87.4702C145.979 88.5447 146.204 89.7428 146.972 90.5092C148.158 91.6918 149.575 91.4534 151.028 91.3328C152.185 93.0563 153.39 94.5729 154.634 96.3001C157.299 99.9982 160.28 103.506 162.848 107.25C163.463 108.146 163.148 112.272 163.148 113.501C163.148 118.077 162.731 126.67 163.438 130.341C163.888 132.681 165.004 134.541 166.608 135.743C168.478 137.144 170.854 138.356 173.585 138.356C173.585 145.082 173.921 151.389 173.921 158.172C172.988 158.389 171.494 159.024 171.228 160.02C170.187 159.933 162.941 156.456 161.343 155.775C159.639 155.049 158.122 154.302 156.439 153.614C154.862 152.969 153.027 151.841 151.365 151.455C151.365 149.247 151.131 145.083 151.437 143.128C151.639 141.838 151.196 136.767 150.744 135.616C149.874 133.398 148.776 132.27 146.923 131.031C145.729 130.233 142.437 128.783 140.592 128.783H113.323C108.644 128.783 105.342 131.325 103.499 134.937C103.021 135.875 102.213 137.745 102.213 139.027V166.066C102.213 167.4 103.457 168.158 104.569 168.417C104.507 169.162 104.179 170.107 103.969 170.84L100.853 182.007C100.397 183.74 100.332 182.633 98.9462 183.295C96.7716 184.334 95.996 187.27 97.8201 189.09C99.1979 190.464 101.522 190.359 102.877 189.065C104.182 187.819 104.172 185.837 103.199 184.395C102.823 183.836 102.459 183.671 101.876 183.363C102.392 182.291 102.587 180.964 102.946 179.728L106.084 168.417C110.25 168.417 109.114 164.908 109.114 161.195C109.114 156.665 108.821 144.197 109.325 140.581C109.729 137.682 111.959 135.333 115.006 135.333C117.959 135.333 120.312 135.501 123.254 135.501V161.027C123.254 163.605 129.235 164.025 130.048 161.928C130.359 161.126 130.207 140.453 130.15 137.006C130.137 136.259 129.951 135.501 130.661 135.501H139.245C140.468 135.501 141.948 136.55 142.576 137.216C143.332 138.02 144.094 139.319 144.372 140.631C144.901 143.132 144.225 161.13 144.456 166.073C144.525 167.558 145.741 168.467 147.157 168.585C147.197 170.397 151.994 185.077 152.038 187.058C149.785 187.658 149.74 191.179 151.18 192.616C152.878 194.31 155.785 193.732 156.871 191.712C157.598 190.36 157.299 188.361 156.084 187.388C155.309 186.77 154.784 186.554 153.385 186.554C153.27 185.17 151.383 178.969 150.969 177.545C150.501 175.936 149.131 169.889 148.504 168.585C152.023 168.506 151.365 165.662 151.365 162.203C151.365 159.124 151.365 156.045 151.365 152.966C152.675 153.271 154.924 154.431 156.19 155.038C160.127 156.924 164.128 158.453 168.086 160.299C168.93 160.693 169.798 160.963 170.555 161.363C170.555 163.124 170.535 163.901 171.433 164.853C172.518 166.003 173.371 166.402 175.099 166.402C176.877 166.402 178.803 164.48 178.803 162.707V161.867C178.803 160.076 176.939 158.311 175.268 158.172C175.268 151.395 174.931 145.035 174.931 138.356H200.854C203.537 138.356 203.513 133.676 201.748 132.09C200.901 131.329 198.996 131.638 197.824 131.638C194.721 131.638 192.194 131.47 189.071 131.47H175.773C173.096 131.474 171.34 130.906 170.315 128.014C169.749 126.415 170.05 108.926 170.05 105.943C170.05 104.485 170.049 103.028 170.057 101.57C170.064 100.084 169.541 98.9951 168.366 98.722C168.948 97.8554 171.377 96.4257 172.407 95.7003L179.308 90.829C179.744 90.829 183.16 92.9938 184.982 89.6047C186.193 87.3542 184.422 84.4473 182.338 84.4473C180.707 84.4473 179.464 84.8917 178.683 86.3432C178.158 87.3193 178.166 88.6794 178.634 89.6533C177.09 90.6853 175.6 91.7791 174.088 92.843L167.285 97.6438C166.135 98.4886 165.613 98.2263 164.543 98.7698C163.622 99.2373 163.167 99.9217 163.14 101.233C163.113 102.56 163.148 103.938 163.148 105.272C162.458 104.768 158.532 99.1251 157.665 97.9782L153.578 92.4842C153.33 92.1545 152.207 90.8173 152.207 90.4931C152.207 90.201 154.261 87.6402 152.055 85.4387C150.584 83.9709 147.903 84.1641 146.68 85.8192C146.345 86.273 145.979 86.8671 145.979 87.4702Z" fill="#3D32CF"/>
<path fill-rule="evenodd" clip-rule="evenodd" d="M80.4986 188.571V187.731C80.4986 186.683 81.804 185.38 82.8551 185.38H83.6967C84.748 185.38 86.0534 186.683 86.0534 187.731V188.571C86.0534 189.62 84.748 190.922 83.6967 190.922H82.8551C81.804 190.922 80.4986 189.62 80.4986 188.571ZM94.4698 107.457C94.4698 108.556 94.6231 109.163 95.1432 110.144C94.475 111.139 93.2509 111.941 92.3314 112.712L89.376 115.306C88.1481 116.498 84.2255 119.517 83.5285 120.556C82.4931 120.315 81.2873 119.952 79.9628 120.357C78.8413 120.699 77.9736 121.492 77.9736 122.907V157.838C77.9736 159.577 79.7679 160.358 81.3402 160.358C81.3402 162.498 81.4749 164.076 81.5018 166.242L82.178 181.018C82.1728 182.203 82.3501 182.762 82.3501 184.037C81.6573 184.369 81.4183 184.293 80.7954 184.837L80.3377 185.22C79.7779 185.588 79.7244 185.244 79.6568 186.052C79.1208 185.909 75.8519 182.828 75.2348 182.235L73.0474 180.219C72.6707 179.841 72.4196 179.577 72.0432 179.205C70.042 177.23 63.3081 171.572 62.319 170.098C63.2346 169.486 63.1606 169.183 63.1606 168.083C63.1606 166.713 62.4674 165.664 61.4109 164.958C60.7027 164.485 60.3778 164.545 59.2915 164.554C58.4495 164.56 57.6062 164.556 56.7642 164.556C54.0104 160.453 49.6134 154.874 46.5203 150.761C45.9219 149.965 45.3869 149.254 44.7884 148.458C44.2783 147.78 43.352 146.914 43.1293 146.083C47.3384 143.861 51.2077 141.08 55.4083 138.852C57.1537 137.926 60.8446 139.073 62.6902 138.392C65.1428 137.487 64.577 131.472 61.6457 131.472H54.2392C53.5044 131.472 32.189 144.891 30.673 145.243C30.673 142.556 30.673 139.869 30.673 137.182C30.673 135.993 30.9001 134.252 30.4635 133.36C29.6072 131.611 28.1376 131.64 26.4647 131.64C23.4314 131.64 27.1721 133.364 20.552 130.989L10.9543 127.466C10.3926 127.256 9.46398 126.887 8.9586 126.77C8.9586 125.015 9.06059 124.865 8.32657 123.706C7.18577 121.903 4.35108 121.761 2.88245 123.227C0.893116 125.211 1.74642 129.289 5.76028 129.289C6.75276 129.289 7.9025 128.516 8.28521 127.945C9.63138 128.656 14.29 130.203 16.0069 130.822C18.4565 131.704 21.4435 132.541 23.7716 133.655V160.861C23.7716 163.346 23.4617 167.714 23.9398 169.762C23.2149 169.93 22.5612 170.392 21.8646 170.715C21.0328 171.099 20.4793 171.32 19.6755 171.721C18.8836 172.117 18.2893 172.342 17.4851 172.727L13.281 174.746C12.2144 175.279 7.44483 177.636 6.60205 177.655C6.00044 175.407 2.47726 175.356 1.03089 176.799C-0.958437 178.784 -0.105128 182.861 3.90872 182.861C5.99706 182.861 7.10704 180.963 7.10704 179.167C7.919 178.738 8.6389 178.472 9.52183 178.049C10.4582 177.601 11.0412 177.288 12.0372 176.864C15.1059 175.557 21.5503 172.139 24.2788 171.088C25.291 170.698 26.8819 172.497 29.3024 171.082C31.2399 169.949 30.5098 166.523 30.5045 164.22C30.5003 162.391 30.673 160.976 30.673 159.014C30.673 157.167 30.673 155.319 30.673 153.472C31.7317 152.913 32.7238 152.356 33.7996 151.721C34.8529 151.099 35.8734 150.488 36.9013 149.945C37.7248 150.495 40.2966 154.176 41.0619 155.199C42.4424 157.045 43.7154 158.731 45.1014 160.573L52.1948 169.954C52.5782 170.466 53.0674 170.837 53.2293 171.442L59.8019 171.449C60.8677 171.442 60.849 171.291 61.6457 171.106C62.2972 172.076 67.8117 176.845 69.1817 178.198L74.6069 183.365C75.404 183.972 76.0181 184.69 76.7507 185.425C77.1983 185.873 77.4134 185.96 77.8454 186.348C78.3635 186.812 78.3685 187.163 79.1518 187.228C79.1518 188.988 79.1319 189.765 80.0306 190.718C81.1151 191.867 81.9678 192.266 83.6967 192.266C85.4739 192.266 87.4 190.344 87.4 188.571V187.731C87.4 185.925 85.4862 184.077 83.6967 184.037L83.0167 169.433C82.9774 166.227 82.6867 163.563 82.6867 160.358C83.818 159.816 84.7067 159.363 84.7067 157.838V122.571C84.7067 122.059 84.545 121.894 84.3701 121.563C85.7846 120.619 87.3861 118.832 88.7716 117.726L90.3021 116.398C90.5786 116.153 90.6943 115.979 90.9848 115.735L92.4091 114.469C92.7712 114.15 92.8857 114.139 93.2509 113.798C93.5312 113.536 93.6418 113.38 93.9398 113.142C94.3197 112.838 94.3901 112.826 94.7652 112.454C95.1808 112.041 95.8697 111.453 96.3216 111.151C97.4755 111.42 97.1647 111.487 98.5097 111.487C99.403 111.487 100.391 110.72 100.838 110.115C102.646 107.668 100.693 104.434 98.5097 104.434C97.3059 104.434 96.378 104.601 95.4885 105.45C95.0052 105.912 94.4698 106.746 94.4698 107.457Z" fill="#3D32CF"/>
<path fill-rule="evenodd" clip-rule="evenodd" d="M292.93 173.96C292.93 175.161 293.003 176.08 293.924 176.999C296.326 179.396 300 177.133 300 174.967C300 173.766 299.927 172.847 299.006 171.928C296.576 169.503 292.93 171.857 292.93 173.96Z" fill="#3D32CF"/>
<path fill-rule="evenodd" clip-rule="evenodd" d="M209.775 102.921C209.775 104.122 209.848 105.041 210.769 105.96C212.219 107.407 215.115 107.445 216.4 105.165C217.91 102.486 215.507 99.8984 213.815 99.8984C212.577 99.8984 211.435 99.9734 210.477 101.27C210.323 101.478 210.294 101.547 210.161 101.794C209.959 102.17 209.775 102.447 209.775 102.921Z" fill="#3D32CF"/>
<path fill-rule="evenodd" clip-rule="evenodd" d="M42.457 115.853C42.457 117.054 42.5295 117.973 43.4506 118.892C44.7648 120.203 47.0211 120.287 48.5081 118.867C48.6816 118.701 48.6293 118.776 48.825 118.511C48.9786 118.304 49.0083 118.235 49.1413 117.987C50.5171 115.429 48.2204 112.83 46.4969 112.83C44.8992 112.83 43.7202 113.094 42.8423 114.726C42.6403 115.102 42.457 115.379 42.457 115.853Z" fill="#3D32CF"/>
<path d="M14.024 46L13.4 43.52H9.928L9.304 46H6.856L10.264 34.928H13.128L16.52 46H14.024ZM10.376 41.776H12.952L11.656 36.672L10.376 41.776ZM21.031 37.264C21.5963 37.264 22.103 37.3493 22.551 37.52C23.0097 37.68 23.4417 37.936 23.847 38.288L22.855 39.632C22.5777 39.4187 22.3057 39.264 22.039 39.168C21.783 39.072 21.5003 39.024 21.191 39.024C19.9857 39.024 19.383 39.952 19.383 41.808C19.383 42.7467 19.5377 43.4187 19.847 43.824C20.1563 44.2293 20.599 44.432 21.175 44.432C21.4737 44.432 21.7457 44.3893 21.991 44.304C22.2363 44.208 22.5243 44.0533 22.855 43.84L23.847 45.264C23.0363 45.9253 22.1083 46.256 21.063 46.256C20.231 46.256 19.5057 46.0747 18.887 45.712C18.279 45.3493 17.8097 44.8373 17.479 44.176C17.1483 43.504 16.983 42.72 16.983 41.824C16.983 40.928 17.1483 40.1387 17.479 39.456C17.8097 38.7627 18.279 38.224 18.887 37.84C19.5057 37.456 20.2203 37.264 21.031 37.264ZM28.3591 37.264C28.9245 37.264 29.4311 37.3493 29.8791 37.52C30.3378 37.68 30.7698 37.936 31.1751 38.288L30.1831 39.632C29.9058 39.4187 29.6338 39.264 29.3671 39.168C29.1111 39.072 28.8285 39.024 28.5191 39.024C27.3138 39.024 26.7111 39.952 26.7111 41.808C26.7111 42.7467 26.8658 43.4187 27.1751 43.824C27.4845 44.2293 27.9271 44.432 28.5031 44.432C28.8018 44.432 29.0738 44.3893 29.3191 44.304C29.5645 44.208 29.8525 44.0533 30.1831 43.84L31.1751 45.264C30.3645 45.9253 29.4365 46.256 28.3911 46.256C27.5591 46.256 26.8338 46.0747 26.2151 45.712C25.6071 45.3493 25.1378 44.8373 24.8071 44.176C24.4765 43.504 24.3111 42.72 24.3111 41.824C24.3111 40.928 24.4765 40.1387 24.8071 39.456C25.1378 38.7627 25.6071 38.224 26.2151 37.84C26.8338 37.456 27.5485 37.264 28.3591 37.264ZM35.7193 37.264C36.9886 37.264 37.9806 37.664 38.6953 38.464C39.4099 39.2533 39.7673 40.352 39.7673 41.76C39.7673 42.656 39.6019 43.4453 39.2713 44.128C38.9513 44.8 38.4819 45.3227 37.8633 45.696C37.2553 46.0693 36.5353 46.256 35.7033 46.256C34.4339 46.256 33.4366 45.8613 32.7113 45.072C31.9966 44.272 31.6393 43.168 31.6393 41.76C31.6393 40.864 31.7993 40.08 32.1193 39.408C32.4499 38.7253 32.9193 38.1973 33.5273 37.824C34.1459 37.4507 34.8766 37.264 35.7193 37.264ZM35.7193 38.96C35.1433 38.96 34.7113 39.1893 34.4233 39.648C34.1459 40.096 34.0073 40.8 34.0073 41.76C34.0073 42.72 34.1459 43.4293 34.4233 43.888C34.7113 44.336 35.1379 44.56 35.7033 44.56C36.2686 44.56 36.6899 44.336 36.9673 43.888C37.2553 43.4293 37.3993 42.72 37.3993 41.76C37.3993 40.8 37.2606 40.096 36.9833 39.648C36.7059 39.1893 36.2846 38.96 35.7193 38.96ZM48.439 46H46.471L46.359 44.864C46.0603 45.3333 45.6977 45.6853 45.271 45.92C44.8443 46.144 44.3483 46.256 43.783 46.256C43.015 46.256 42.4283 46.0267 42.023 45.568C41.6177 45.0987 41.415 44.448 41.415 43.616V37.52H43.687V43.328C43.687 43.776 43.7617 44.096 43.911 44.288C44.0603 44.4693 44.295 44.56 44.615 44.56C45.223 44.56 45.7403 44.192 46.167 43.456V37.52H48.439V46ZM55.4185 37.264C56.1652 37.264 56.7465 37.4933 57.1625 37.952C57.5785 38.4 57.7865 39.024 57.7865 39.824V46H55.5145V40.208C55.5145 39.7493 55.4345 39.4293 55.2745 39.248C55.1252 39.056 54.8958 38.96 54.5865 38.96C54.2665 38.96 53.9732 39.0613 53.7065 39.264C53.4505 39.456 53.1998 39.7493 52.9545 40.144V46H50.6825V37.52H52.6505L52.8265 38.592C53.1785 38.1547 53.5625 37.824 53.9785 37.6C54.4052 37.376 54.8852 37.264 55.4185 37.264ZM65.0201 45.6C64.7108 45.8133 64.3588 45.9733 63.9641 46.08C63.5801 46.1973 63.1961 46.256 62.8121 46.256C61.9375 46.2453 61.2761 45.9947 60.8281 45.504C60.3801 45.0133 60.1561 44.2933 60.1561 43.344V39.12H58.8921V37.52H60.1561V35.664L62.4281 35.392V37.52H64.3801L64.1561 39.12H62.4281V43.296C62.4281 43.7013 62.4975 43.9947 62.6361 44.176C62.7748 44.3573 62.9881 44.448 63.2761 44.448C63.5641 44.448 63.8841 44.352 64.2361 44.16L65.0201 45.6ZM68.2983 37.52V46H66.0263V37.52H68.2983ZM67.1463 33.152C67.5516 33.152 67.8823 33.28 68.1383 33.536C68.4049 33.7813 68.5383 34.096 68.5383 34.48C68.5383 34.864 68.4049 35.184 68.1383 35.44C67.8823 35.6853 67.5516 35.808 67.1463 35.808C66.7409 35.808 66.4103 35.6853 66.1543 35.44C65.8983 35.184 65.7703 34.864 65.7703 34.48C65.7703 34.096 65.8983 33.7813 66.1543 33.536C66.4103 33.28 66.7409 33.152 67.1463 33.152ZM75.2779 37.264C76.0245 37.264 76.6059 37.4933 77.0219 37.952C77.4379 38.4 77.6459 39.024 77.6459 39.824V46H75.3739V40.208C75.3739 39.7493 75.2939 39.4293 75.1339 39.248C74.9845 39.056 74.7552 38.96 74.4459 38.96C74.1259 38.96 73.8325 39.0613 73.5659 39.264C73.3099 39.456 73.0592 39.7493 72.8139 40.144V46H70.5419V37.52H72.5099L72.6859 38.592C73.0379 38.1547 73.4219 37.824 73.8379 37.6C74.2645 37.376 74.7445 37.264 75.2779 37.264ZM87.3915 37.984C86.8368 38.1973 86.0208 38.304 84.9435 38.304C85.4768 38.5387 85.8715 38.832 86.1275 39.184C86.3835 39.5253 86.5115 39.9573 86.5115 40.48C86.5115 41.024 86.3675 41.5147 86.0795 41.952C85.8022 42.3787 85.3968 42.7147 84.8635 42.96C84.3408 43.2053 83.7275 43.328 83.0235 43.328C82.6502 43.328 82.3195 43.2907 82.0315 43.216C81.8182 43.3547 81.7115 43.5413 81.7115 43.776C81.7115 43.9467 81.7755 44.0853 81.9035 44.192C82.0422 44.288 82.3035 44.336 82.6875 44.336H83.9835C84.6128 44.336 85.1622 44.4427 85.6315 44.656C86.1115 44.8587 86.4795 45.1467 86.7355 45.52C87.0022 45.8827 87.1355 46.2987 87.1355 46.768C87.1355 47.632 86.7622 48.304 86.0155 48.784C85.2795 49.2747 84.2128 49.52 82.8155 49.52C81.8128 49.52 81.0182 49.4133 80.4315 49.2C79.8555 48.9973 79.4502 48.6987 79.2155 48.304C78.9808 47.9093 78.8635 47.4133 78.8635 46.816H80.8955C80.8955 47.0933 80.9488 47.312 81.0555 47.472C81.1622 47.6427 81.3542 47.7653 81.6315 47.84C81.9195 47.9253 82.3302 47.968 82.8635 47.968C83.5995 47.968 84.1115 47.8773 84.3995 47.696C84.6982 47.5147 84.8475 47.2587 84.8475 46.928C84.8475 46.6293 84.7355 46.4 84.5115 46.24C84.2875 46.08 83.9568 46 83.5195 46H82.2715C81.4288 46 80.7995 45.8453 80.3835 45.536C79.9675 45.216 79.7595 44.816 79.7595 44.336C79.7595 44.0373 79.8448 43.7493 80.0155 43.472C80.1968 43.184 80.4422 42.944 80.7515 42.752C80.2288 42.464 79.8448 42.128 79.5995 41.744C79.3648 41.3493 79.2475 40.88 79.2475 40.336C79.2475 39.7173 79.3968 39.1787 79.6955 38.72C80.0048 38.2507 80.4315 37.8933 80.9755 37.648C81.5302 37.392 82.1595 37.264 82.8635 37.264C83.7382 37.2853 84.4582 37.2107 85.0235 37.04C85.5888 36.8693 86.1915 36.6027 86.8315 36.24L87.3915 37.984ZM82.9115 38.784C82.4848 38.784 82.1435 38.9227 81.8875 39.2C81.6422 39.4667 81.5195 39.8347 81.5195 40.304C81.5195 40.784 81.6422 41.1627 81.8875 41.44C82.1435 41.7173 82.4902 41.856 82.9275 41.856C83.3862 41.856 83.7328 41.7227 83.9675 41.456C84.2022 41.1893 84.3195 40.7947 84.3195 40.272C84.3195 39.28 83.8502 38.784 82.9115 38.784ZM14.024 65L13.4 62.52H9.928L9.304 65H6.856L10.264 53.928H13.128L16.52 65H14.024ZM10.376 60.776H12.952L11.656 55.672L10.376 60.776ZM24.439 65H22.471L22.359 63.864C22.0603 64.3333 21.6977 64.6853 21.271 64.92C20.8443 65.144 20.3483 65.256 19.783 65.256C19.015 65.256 18.4283 65.0267 18.023 64.568C17.6177 64.0987 17.415 63.448 17.415 62.616V56.52H19.687V62.328C19.687 62.776 19.7617 63.096 19.911 63.288C20.0603 63.4693 20.295 63.56 20.615 63.56C21.223 63.56 21.7403 63.192 22.167 62.456V56.52H24.439V65ZM31.7545 64.6C31.4452 64.8133 31.0932 64.9733 30.6985 65.08C30.3145 65.1973 29.9305 65.256 29.5465 65.256C28.6718 65.2453 28.0105 64.9947 27.5625 64.504C27.1145 64.0133 26.8905 63.2933 26.8905 62.344V58.12H25.6265V56.52H26.8905V54.664L29.1625 54.392V56.52H31.1145L30.8905 58.12H29.1625V62.296C29.1625 62.7013 29.2318 62.9947 29.3705 63.176C29.5092 63.3573 29.7225 63.448 30.0105 63.448C30.2985 63.448 30.6185 63.352 30.9705 63.16L31.7545 64.6ZM36.063 56.264C37.3323 56.264 38.3243 56.664 39.039 57.464C39.7537 58.2533 40.111 59.352 40.111 60.76C40.111 61.656 39.9457 62.4453 39.615 63.128C39.295 63.8 38.8257 64.3227 38.207 64.696C37.599 65.0693 36.879 65.256 36.047 65.256C34.7777 65.256 33.7803 64.8613 33.055 64.072C32.3403 63.272 31.983 62.168 31.983 60.76C31.983 59.864 32.143 59.08 32.463 58.408C32.7937 57.7253 33.263 57.1973 33.871 56.824C34.4897 56.4507 35.2203 56.264 36.063 56.264ZM36.063 57.96C35.487 57.96 35.055 58.1893 34.767 58.648C34.4897 59.096 34.351 59.8 34.351 60.76C34.351 61.72 34.4897 62.4293 34.767 62.888C35.055 63.336 35.4817 63.56 36.047 63.56C36.6123 63.56 37.0337 63.336 37.311 62.888C37.599 62.4293 37.743 61.72 37.743 60.76C37.743 59.8 37.6043 59.096 37.327 58.648C37.0497 58.1893 36.6283 57.96 36.063 57.96ZM51.0068 56.264C51.6788 56.264 52.2174 56.4933 52.6228 56.952C53.0388 57.4107 53.2468 58.0347 53.2468 58.824V65H50.9748V59.208C50.9748 58.376 50.6974 57.96 50.1428 57.96C49.8441 57.96 49.5828 58.056 49.3588 58.248C49.1348 58.44 48.9054 58.7387 48.6708 59.144V65H46.3988V59.208C46.3988 58.376 46.1214 57.96 45.5668 57.96C45.2681 57.96 45.0068 58.0613 44.7828 58.264C44.5588 58.456 44.3348 58.7493 44.1108 59.144V65H41.8388V56.52H43.8068L43.9828 57.576C44.3028 57.1493 44.6601 56.824 45.0548 56.6C45.4601 56.376 45.9241 56.264 46.4468 56.264C46.9268 56.264 47.3428 56.3867 47.6948 56.632C48.0468 56.8667 48.3028 57.2027 48.4628 57.64C48.8148 57.1813 49.1934 56.84 49.5988 56.616C50.0148 56.3813 50.4841 56.264 51.0068 56.264ZM61.8813 62.648C61.8813 62.9787 61.9293 63.224 62.0253 63.384C62.1213 63.5333 62.2813 63.6453 62.5052 63.72L62.0253 65.224C61.5239 65.1813 61.1133 65.064 60.7933 64.872C60.4839 64.68 60.2439 64.3813 60.0733 63.976C59.5186 64.8293 58.6706 65.256 57.5293 65.256C56.6866 65.256 56.0146 65.016 55.5133 64.536C55.0226 64.0453 54.7773 63.4107 54.7773 62.632C54.7773 61.704 55.1133 60.9947 55.7853 60.504C56.4573 60.0133 57.4226 59.768 58.6813 59.768H59.6573V59.352C59.6573 58.8293 59.5399 58.4667 59.3053 58.264C59.0706 58.0613 58.6813 57.96 58.1373 57.96C57.5399 57.96 56.7933 58.1093 55.8973 58.408L55.3853 56.888C56.4413 56.472 57.4866 56.264 58.5213 56.264C59.6733 56.264 60.5213 56.5147 61.0653 57.016C61.6093 57.5067 61.8813 58.2427 61.8813 59.224V62.648ZM58.1533 63.624C58.7933 63.624 59.2946 63.3093 59.6573 62.68V61.064H58.9053C57.6786 61.064 57.0653 61.5227 57.0653 62.44C57.0653 62.8133 57.1559 63.1067 57.3373 63.32C57.5293 63.5227 57.8013 63.624 58.1533 63.624ZM69.2233 64.6C68.9139 64.8133 68.5619 64.9733 68.1673 65.08C67.7833 65.1973 67.3993 65.256 67.0153 65.256C66.1406 65.2453 65.4793 64.9947 65.0312 64.504C64.5833 64.0133 64.3593 63.2933 64.3593 62.344V58.12H63.0953V56.52H64.3593V54.664L66.6313 54.392V56.52H68.5833L68.3593 58.12H66.6313V62.296C66.6313 62.7013 66.7006 62.9947 66.8393 63.176C66.9779 63.3573 67.1913 63.448 67.4793 63.448C67.7673 63.448 68.0873 63.352 68.4393 63.16L69.2233 64.6ZM77.1318 60.568C77.1318 60.6747 77.1158 60.968 77.0838 61.448H71.7878C71.8624 62.216 72.0704 62.76 72.4118 63.08C72.7531 63.4 73.2171 63.56 73.8038 63.56C74.1664 63.56 74.5078 63.5013 74.8278 63.384C75.1478 63.2667 75.4944 63.08 75.8678 62.824L76.8118 64.104C75.8624 64.872 74.7904 65.256 73.5958 65.256C72.2624 65.256 71.2384 64.856 70.5238 64.056C69.8091 63.256 69.4518 62.1733 69.4518 60.808C69.4518 59.944 69.6011 59.1707 69.8997 58.488C70.2091 57.7947 70.6518 57.2507 71.2278 56.856C71.8144 56.4613 72.5078 56.264 73.3078 56.264C74.5131 56.264 75.4518 56.6427 76.1238 57.4C76.7958 58.1573 77.1318 59.2133 77.1318 60.568ZM74.8758 59.928C74.8758 58.52 74.3691 57.816 73.3558 57.816C72.8864 57.816 72.5184 57.992 72.2518 58.344C71.9958 58.6853 71.8411 59.2453 71.7878 60.024H74.8758V59.928ZM86.1203 53.144V65H84.1203L83.9923 63.96C83.3949 64.824 82.5843 65.256 81.5603 65.256C80.5149 65.256 79.7149 64.856 79.1603 64.056C78.6163 63.2453 78.3443 62.1467 78.3443 60.76C78.3443 59.8853 78.4829 59.112 78.7603 58.44C79.0483 57.7573 79.4536 57.224 79.9763 56.84C80.4989 56.456 81.1016 56.264 81.7843 56.264C82.5736 56.264 83.2616 56.5467 83.8483 57.112V52.888L86.1203 53.144ZM82.2323 63.56C82.5629 63.56 82.8563 63.48 83.1123 63.32C83.3683 63.1493 83.6136 62.888 83.8483 62.536V58.744C83.6243 58.4773 83.3949 58.28 83.1603 58.152C82.9363 58.0133 82.6749 57.944 82.3763 57.944C81.8536 57.944 81.4429 58.1733 81.1443 58.632C80.8563 59.0907 80.7123 59.8 80.7123 60.76C80.7123 61.7733 80.8403 62.4933 81.0963 62.92C81.3629 63.3467 81.7416 63.56 82.2323 63.56ZM11.544 72.672C12.344 72.672 13.0373 72.7893 13.624 73.024C14.2213 73.248 14.7707 73.5947 15.272 74.064L14.152 75.36C13.7573 75.04 13.3627 74.8053 12.968 74.656C12.5733 74.5067 12.152 74.432 11.704 74.432C11.2133 74.432 10.8187 74.5387 10.52 74.752C10.232 74.9547 10.088 75.248 10.088 75.632C10.088 75.8987 10.1467 76.1173 10.264 76.288C10.392 76.4587 10.6107 76.6187 10.92 76.768C11.2293 76.9173 11.6933 77.088 12.312 77.28C13.4107 77.632 14.232 78.0693 14.776 78.592C15.32 79.104 15.592 79.84 15.592 80.8C15.592 81.4827 15.4213 82.0853 15.08 82.608C14.7387 83.12 14.2427 83.5253 13.592 83.824C12.9413 84.112 12.1787 84.256 11.304 84.256C10.4293 84.256 9.65067 84.1173 8.968 83.84C8.28533 83.5627 7.69867 83.184 7.208 82.704L8.408 81.376C8.83467 81.7387 9.27733 82.016 9.736 82.208C10.1947 82.3893 10.696 82.48 11.24 82.48C11.816 82.48 12.2747 82.3467 12.616 82.08C12.968 81.8133 13.144 81.44 13.144 80.96C13.144 80.6613 13.08 80.416 12.952 80.224C12.8347 80.0213 12.6267 79.84 12.328 79.68C12.0293 79.52 11.5973 79.3547 11.032 79.184C9.82667 78.8107 8.96267 78.3627 8.44 77.84C7.928 77.3173 7.672 76.6347 7.672 75.792C7.672 75.1733 7.83733 74.6293 8.168 74.16C8.49867 73.68 8.95733 73.312 9.544 73.056C10.1307 72.8 10.7973 72.672 11.544 72.672ZM21.3786 84.016C21.0373 85.0933 20.4986 85.9253 19.7626 86.512C19.0373 87.0987 18.0506 87.4347 16.8026 87.52L16.5626 85.888C17.3733 85.7813 17.9653 85.5893 18.3386 85.312C18.7226 85.0347 19.0373 84.5973 19.2826 84H18.4986L15.8586 75.52H18.2746L19.9706 82.528L21.7626 75.52H24.1146L21.3786 84.016ZM27.8891 75.264C29.0838 75.264 30.1078 75.6053 30.9611 76.288L30.0971 77.584C29.3825 77.136 28.6785 76.912 27.9851 76.912C27.6118 76.912 27.3238 76.9813 27.1211 77.12C26.9185 77.2587 26.8171 77.4453 26.8171 77.68C26.8171 77.8507 26.8598 77.9947 26.9451 78.112C27.0411 78.2293 27.2118 78.3413 27.4571 78.448C27.7131 78.5547 28.0918 78.6827 28.5931 78.832C29.4891 79.0773 30.1558 79.408 30.5931 79.824C31.0305 80.2293 31.2491 80.7893 31.2491 81.504C31.2491 82.0693 31.0838 82.56 30.7531 82.976C30.4331 83.392 29.9958 83.712 29.4411 83.936C28.8865 84.1493 28.2678 84.256 27.5851 84.256C26.8705 84.256 26.2198 84.1493 25.6331 83.936C25.0465 83.712 24.5451 83.408 24.1291 83.024L25.2491 81.776C25.9638 82.3307 26.7211 82.608 27.5211 82.608C27.9478 82.608 28.2838 82.528 28.5291 82.368C28.7851 82.1973 28.9131 81.968 28.9131 81.68C28.9131 81.456 28.8651 81.28 28.7691 81.152C28.6731 81.024 28.4971 80.9067 28.2411 80.8C27.9851 80.6827 27.5851 80.5493 27.0411 80.4C26.1878 80.1653 25.5531 79.8347 25.1371 79.408C24.7318 78.9707 24.5291 78.432 24.5291 77.792C24.5291 77.312 24.6678 76.88 24.9451 76.496C25.2225 76.112 25.6118 75.8133 26.1131 75.6C26.6251 75.376 27.2171 75.264 27.8891 75.264ZM37.8014 83.6C37.492 83.8133 37.14 83.9733 36.7454 84.08C36.3614 84.1973 35.9774 84.256 35.5934 84.256C34.7187 84.2453 34.0574 83.9947 33.6094 83.504C33.1614 83.0133 32.9374 82.2933 32.9374 81.344V77.12H31.6734V75.52H32.9374V73.664L35.2094 73.392V75.52H37.1614L36.9374 77.12H35.2094V81.296C35.2094 81.7013 35.2787 81.9947 35.4174 82.176C35.556 82.3573 35.7694 82.448 36.0574 82.448C36.3454 82.448 36.6654 82.352 37.0174 82.16L37.8014 83.6ZM45.7099 79.568C45.7099 79.6747 45.6939 79.968 45.6619 80.448H40.3659C40.4405 81.216 40.6485 81.76 40.9899 82.08C41.3312 82.4 41.7952 82.56 42.3819 82.56C42.7445 82.56 43.0859 82.5013 43.4059 82.384C43.7259 82.2667 44.0725 82.08 44.4459 81.824L45.3899 83.104C44.4405 83.872 43.3685 84.256 42.1739 84.256C40.8405 84.256 39.8165 83.856 39.1019 83.056C38.3872 82.256 38.0299 81.1733 38.0299 79.808C38.0299 78.944 38.1792 78.1707 38.4779 77.488C38.7872 76.7947 39.2299 76.2507 39.8059 75.856C40.3925 75.4613 41.0859 75.264 41.8859 75.264C43.0912 75.264 44.0299 75.6427 44.7019 76.4C45.3739 77.1573 45.7099 78.2133 45.7099 79.568ZM43.4539 78.928C43.4539 77.52 42.9472 76.816 41.9339 76.816C41.4645 76.816 41.0965 76.992 40.8299 77.344C40.5739 77.6853 40.4192 78.2453 40.3659 79.024H43.4539V78.928ZM56.5224 75.264C57.1944 75.264 57.733 75.4933 58.1384 75.952C58.5544 76.4107 58.7624 77.0347 58.7624 77.824V84H56.4904V78.208C56.4904 77.376 56.213 76.96 55.6584 76.96C55.3597 76.96 55.0984 77.056 54.8744 77.248C54.6504 77.44 54.421 77.7387 54.1864 78.144V84H51.9144V78.208C51.9144 77.376 51.637 76.96 51.0824 76.96C50.7837 76.96 50.5224 77.0613 50.2984 77.264C50.0744 77.456 49.8504 77.7493 49.6264 78.144V84H47.3544V75.52H49.3224L49.4984 76.576C49.8184 76.1493 50.1757 75.824 50.5704 75.6C50.9757 75.376 51.4397 75.264 51.9624 75.264C52.4424 75.264 52.8584 75.3867 53.2104 75.632C53.5624 75.8667 53.8184 76.2027 53.9784 76.64C54.3304 76.1813 54.709 75.84 55.1144 75.616C55.5304 75.3813 55.9997 75.264 56.5224 75.264Z" fill="#3D32CF"/>
<path d="M225.512 3.928L225.256 5.768H222.456V15H220.104V5.768H217.16V3.928H225.512ZM232.96 10.568C232.96 10.6747 232.944 10.968 232.912 11.448H227.616C227.691 12.216 227.899 12.76 228.24 13.08C228.581 13.4 229.045 13.56 229.632 13.56C229.995 13.56 230.336 13.5013 230.656 13.384C230.976 13.2667 231.323 13.08 231.696 12.824L232.64 14.104C231.691 14.872 230.619 15.256 229.424 15.256C228.091 15.256 227.067 14.856 226.352 14.056C225.637 13.256 225.28 12.1733 225.28 10.808C225.28 9.944 225.429 9.17067 225.728 8.488C226.037 7.79467 226.48 7.25067 227.056 6.856C227.643 6.46133 228.336 6.264 229.136 6.264C230.341 6.264 231.28 6.64267 231.952 7.4C232.624 8.15733 232.96 9.21333 232.96 10.568ZM230.704 9.928C230.704 8.52 230.197 7.816 229.184 7.816C228.715 7.816 228.347 7.992 228.08 8.344C227.824 8.68533 227.669 9.24533 227.616 10.024H230.704V9.928ZM236.716 15.256C236.023 15.256 235.484 15.0587 235.1 14.664C234.716 14.2587 234.524 13.688 234.524 12.952V3.144L236.796 2.888V12.888C236.796 13.2613 236.951 13.448 237.26 13.448C237.431 13.448 237.58 13.416 237.708 13.352L238.172 14.968C237.735 15.16 237.25 15.256 236.716 15.256ZM246.429 10.568C246.429 10.6747 246.413 10.968 246.381 11.448H241.085C241.159 12.216 241.367 12.76 241.709 13.08C242.05 13.4 242.514 13.56 243.101 13.56C243.463 13.56 243.805 13.5013 244.125 13.384C244.445 13.2667 244.791 13.08 245.165 12.824L246.109 14.104C245.159 14.872 244.087 15.256 242.893 15.256C241.559 15.256 240.535 14.856 239.821 14.056C239.106 13.256 238.749 12.1733 238.749 10.808C238.749 9.944 238.898 9.17067 239.197 8.488C239.506 7.79467 239.949 7.25067 240.525 6.856C241.111 6.46133 241.805 6.264 242.605 6.264C243.81 6.264 244.749 6.64267 245.421 7.4C246.093 8.15733 246.429 9.21333 246.429 10.568ZM244.173 9.928C244.173 8.52 243.666 7.816 242.653 7.816C242.183 7.816 241.815 7.992 241.549 8.344C241.293 8.68533 241.138 9.24533 241.085 10.024H244.173V9.928ZM257.241 6.264C257.913 6.264 258.452 6.49333 258.857 6.952C259.273 7.41067 259.481 8.03467 259.481 8.824V15H257.209V9.208C257.209 8.376 256.932 7.96 256.377 7.96C256.078 7.96 255.817 8.056 255.593 8.248C255.369 8.44 255.14 8.73867 254.905 9.144V15H252.633V9.208C252.633 8.376 252.356 7.96 251.801 7.96C251.502 7.96 251.241 8.06133 251.017 8.264C250.793 8.456 250.569 8.74933 250.345 9.144V15H248.073V6.52H250.041L250.217 7.576C250.537 7.14933 250.894 6.824 251.289 6.6C251.694 6.376 252.158 6.264 252.681 6.264C253.161 6.264 253.577 6.38667 253.929 6.632C254.281 6.86667 254.537 7.20267 254.697 7.64C255.049 7.18133 255.428 6.84 255.833 6.616C256.249 6.38133 256.718 6.264 257.241 6.264ZM268.804 10.568C268.804 10.6747 268.788 10.968 268.756 11.448H263.46C263.534 12.216 263.742 12.76 264.084 13.08C264.425 13.4 264.889 13.56 265.476 13.56C265.838 13.56 266.18 13.5013 266.5 13.384C266.82 13.2667 267.166 13.08 267.54 12.824L268.484 14.104C267.534 14.872 266.462 15.256 265.268 15.256C263.934 15.256 262.91 14.856 262.196 14.056C261.481 13.256 261.124 12.1733 261.124 10.808C261.124 9.944 261.273 9.17067 261.572 8.488C261.881 7.79467 262.324 7.25067 262.9 6.856C263.486 6.46133 264.18 6.264 264.98 6.264C266.185 6.264 267.124 6.64267 267.796 7.4C268.468 8.15733 268.804 9.21333 268.804 10.568ZM266.548 9.928C266.548 8.52 266.041 7.816 265.028 7.816C264.558 7.816 264.19 7.992 263.924 8.344C263.668 8.68533 263.513 9.24533 263.46 10.024H266.548V9.928ZM275.52 14.6C275.211 14.8133 274.859 14.9733 274.464 15.08C274.08 15.1973 273.696 15.256 273.312 15.256C272.437 15.2453 271.776 14.9947 271.328 14.504C270.88 14.0133 270.656 13.2933 270.656 12.344V8.12H269.392V6.52H270.656V4.664L272.928 4.392V6.52H274.88L274.656 8.12H272.928V12.296C272.928 12.7013 272.997 12.9947 273.136 13.176C273.275 13.3573 273.488 13.448 273.776 13.448C274.064 13.448 274.384 13.352 274.736 13.16L275.52 14.6ZM280.91 6.28C281.166 6.28 281.449 6.32267 281.758 6.408L281.374 8.6C281.076 8.52533 280.825 8.488 280.622 8.488C280.121 8.488 279.732 8.664 279.454 9.016C279.177 9.368 278.958 9.90133 278.798 10.616V15H276.526V6.52H278.494L278.702 8.168C278.905 7.57067 279.198 7.10667 279.582 6.776C279.977 6.44533 280.42 6.28 280.91 6.28ZM287.254 15.016C286.912 16.0933 286.374 16.9253 285.638 17.512C284.912 18.0987 283.926 18.4347 282.678 18.52L282.438 16.888C283.248 16.7813 283.84 16.5893 284.214 16.312C284.598 16.0347 284.912 15.5973 285.158 15H284.374L281.734 6.52H284.15L285.846 13.528L287.638 6.52H289.99L287.254 15.016Z" fill="#3D32CF"/>
<path d="M109.024 15L108.4 12.52H104.928L104.304 15H101.856L105.264 3.928H108.128L111.52 15H109.024ZM105.376 10.776H107.952L106.656 5.672L105.376 10.776ZM115.967 3.928C117.407 3.928 118.522 4.22667 119.311 4.824C120.111 5.42133 120.511 6.312 120.511 7.496C120.511 8.73333 120.116 9.66667 119.327 10.296C118.538 10.9147 117.482 11.224 116.159 11.224H114.895V15H112.543V3.928H115.967ZM115.967 9.496C116.65 9.496 117.172 9.34133 117.535 9.032C117.898 8.72267 118.079 8.21067 118.079 7.496C118.079 6.248 117.364 5.624 115.935 5.624H114.895V9.496H115.967ZM126.427 3.672C127.12 3.672 127.723 3.77333 128.235 3.976C128.747 4.168 129.248 4.46667 129.739 4.872L128.571 6.232C127.931 5.70933 127.259 5.448 126.555 5.448C125.765 5.448 125.136 5.77333 124.667 6.424C124.208 7.064 123.979 8.072 123.979 9.448C123.979 10.792 124.208 11.7893 124.667 12.44C125.136 13.08 125.771 13.4 126.571 13.4C126.987 13.4 127.365 13.3253 127.707 13.176C128.048 13.016 128.405 12.792 128.779 12.504L129.867 13.864C129.472 14.2693 128.981 14.6053 128.395 14.872C127.819 15.128 127.179 15.256 126.475 15.256C125.483 15.256 124.613 15.032 123.867 14.584C123.12 14.136 122.539 13.48 122.123 12.616C121.707 11.7413 121.499 10.6853 121.499 9.448C121.499 8.24267 121.712 7.208 122.139 6.344C122.565 5.46933 123.152 4.808 123.899 4.36C124.645 3.90133 125.488 3.672 126.427 3.672ZM134.419 3.672C135.219 3.672 135.912 3.78933 136.499 4.024C137.096 4.248 137.646 4.59467 138.147 5.064L137.027 6.36C136.632 6.04 136.238 5.80533 135.843 5.656C135.448 5.50667 135.027 5.432 134.579 5.432C134.088 5.432 133.694 5.53867 133.395 5.752C133.107 5.95467 132.963 6.248 132.963 6.632C132.963 6.89867 133.022 7.11733 133.139 7.288C133.267 7.45867 133.486 7.61867 133.795 7.768C134.104 7.91733 134.568 8.088 135.187 8.28C136.286 8.632 137.107 9.06933 137.651 9.592C138.195 10.104 138.467 10.84 138.467 11.8C138.467 12.4827 138.296 13.0853 137.955 13.608C137.614 14.12 137.118 14.5253 136.467 14.824C135.816 15.112 135.054 15.256 134.179 15.256C133.304 15.256 132.526 15.1173 131.843 14.84C131.16 14.5627 130.574 14.184 130.083 13.704L131.283 12.376C131.71 12.7387 132.152 13.016 132.611 13.208C133.07 13.3893 133.571 13.48 134.115 13.48C134.691 13.48 135.15 13.3467 135.491 13.08C135.843 12.8133 136.019 12.44 136.019 11.96C136.019 11.6613 135.955 11.416 135.827 11.224C135.71 11.0213 135.502 10.84 135.203 10.68C134.904 10.52 134.472 10.3547 133.907 10.184C132.702 9.81067 131.838 9.36267 131.315 8.84C130.803 8.31733 130.547 7.63467 130.547 6.792C130.547 6.17333 130.712 5.62933 131.043 5.16C131.374 4.68 131.832 4.312 132.419 4.056C133.006 3.8 133.672 3.672 134.419 3.672Z" fill="#3D32CF"/>
<path d="M46.6448 265.928L46.3888 267.768H43.5888V277H41.2368V267.768H38.2928V265.928H46.6448ZM52.5357 268.264C53.2717 268.264 53.8477 268.493 54.2637 268.952C54.6904 269.4 54.9037 270.024 54.9037 270.824V277H52.6317V271.208C52.6317 270.749 52.5517 270.429 52.3917 270.248C52.2317 270.056 52.0024 269.96 51.7037 269.96C51.1064 269.96 50.5624 270.349 50.0717 271.128V277H47.7997V265.144L50.0717 264.904V269.48C50.413 269.075 50.781 268.771 51.1757 268.568C51.581 268.365 52.0344 268.264 52.5357 268.264ZM61.4493 268.28C61.7053 268.28 61.988 268.323 62.2973 268.408L61.9133 270.6C61.6146 270.525 61.364 270.488 61.1613 270.488C60.66 270.488 60.2706 270.664 59.9933 271.016C59.716 271.368 59.4973 271.901 59.3373 272.616V277H57.0653V268.52H59.0333L59.2413 270.168C59.444 269.571 59.7373 269.107 60.1213 268.776C60.516 268.445 60.9586 268.28 61.4493 268.28ZM65.6967 268.52V277H63.4247V268.52H65.6967ZM64.5447 264.152C64.95 264.152 65.2807 264.28 65.5367 264.536C65.8034 264.781 65.9367 265.096 65.9367 265.48C65.9367 265.864 65.8034 266.184 65.5367 266.44C65.2807 266.685 64.95 266.808 64.5447 266.808C64.1394 266.808 63.8087 266.685 63.5527 266.44C63.2967 266.184 63.1687 265.864 63.1687 265.48C63.1687 265.096 63.2967 264.781 63.5527 264.536C63.8087 264.28 64.1394 264.152 64.5447 264.152ZM75.2843 265.144V277H73.2843L73.1563 275.96C72.559 276.824 71.7483 277.256 70.7243 277.256C69.679 277.256 68.879 276.856 68.3243 276.056C67.7803 275.245 67.5083 274.147 67.5083 272.76C67.5083 271.885 67.647 271.112 67.9243 270.44C68.2123 269.757 68.6176 269.224 69.1403 268.84C69.663 268.456 70.2656 268.264 70.9483 268.264C71.7376 268.264 72.4256 268.547 73.0123 269.112V264.888L75.2843 265.144ZM71.3963 275.56C71.727 275.56 72.0203 275.48 72.2763 275.32C72.5323 275.149 72.7776 274.888 73.0123 274.536V270.744C72.7883 270.477 72.559 270.28 72.3243 270.152C72.1003 270.013 71.839 269.944 71.5403 269.944C71.0176 269.944 70.607 270.173 70.3083 270.632C70.0203 271.091 69.8763 271.8 69.8763 272.76C69.8763 273.773 70.0043 274.493 70.2603 274.92C70.527 275.347 70.9056 275.56 71.3963 275.56ZM77.1664 272.888V271.096H82.1264V272.888H77.1664ZM87.4904 265.928C88.9304 265.928 90.0451 266.227 90.8344 266.824C91.6344 267.421 92.0344 268.312 92.0344 269.496C92.0344 270.733 91.6398 271.667 90.8504 272.296C90.0611 272.915 89.0051 273.224 87.6824 273.224H86.4184V277H84.0664V265.928H87.4904ZM87.4904 271.496C88.1731 271.496 88.6958 271.341 89.0584 271.032C89.4211 270.723 89.6024 270.211 89.6024 269.496C89.6024 268.248 88.8878 267.624 87.4584 267.624H86.4184V271.496H87.4904ZM99.1703 274.648C99.1703 274.979 99.2183 275.224 99.3143 275.384C99.4103 275.533 99.5703 275.645 99.7943 275.72L99.3143 277.224C98.813 277.181 98.4023 277.064 98.0823 276.872C97.773 276.68 97.533 276.381 97.3623 275.976C96.8076 276.829 95.9596 277.256 94.8183 277.256C93.9756 277.256 93.3036 277.016 92.8023 276.536C92.3116 276.045 92.0663 275.411 92.0663 274.632C92.0663 273.704 92.4023 272.995 93.0743 272.504C93.7463 272.013 94.7116 271.768 95.9703 271.768H96.9463V271.352C96.9463 270.829 96.829 270.467 96.5943 270.264C96.3596 270.061 95.9703 269.96 95.4263 269.96C94.829 269.96 94.0823 270.109 93.1863 270.408L92.6743 268.888C93.7303 268.472 94.7756 268.264 95.8103 268.264C96.9623 268.264 97.8103 268.515 98.3543 269.016C98.8983 269.507 99.1703 270.243 99.1703 271.224V274.648ZM95.4423 275.624C96.0823 275.624 96.5836 275.309 96.9463 274.68V273.064H96.1943C94.9676 273.064 94.3543 273.523 94.3543 274.44C94.3543 274.813 94.445 275.107 94.6263 275.32C94.8183 275.523 95.0903 275.624 95.4423 275.624ZM105.824 268.28C106.08 268.28 106.363 268.323 106.672 268.408L106.288 270.6C105.99 270.525 105.739 270.488 105.536 270.488C105.035 270.488 104.646 270.664 104.368 271.016C104.091 271.368 103.872 271.901 103.712 272.616V277H101.44V268.52H103.408L103.616 270.168C103.819 269.571 104.112 269.107 104.496 268.776C104.891 268.445 105.334 268.28 105.824 268.28ZM112.872 276.6C112.562 276.813 112.21 276.973 111.816 277.08C111.432 277.197 111.048 277.256 110.664 277.256C109.789 277.245 109.128 276.995 108.68 276.504C108.232 276.013 108.008 275.293 108.008 274.344V270.12H106.744V268.52H108.008V266.664L110.28 266.392V268.52H112.232L112.008 270.12H110.28V274.296C110.28 274.701 110.349 274.995 110.488 275.176C110.626 275.357 110.84 275.448 111.128 275.448C111.416 275.448 111.736 275.352 112.088 275.16L112.872 276.6ZM118.168 277.016C117.826 278.093 117.288 278.925 116.552 279.512C115.826 280.099 114.84 280.435 113.592 280.52L113.352 278.888C114.162 278.781 114.754 278.589 115.128 278.312C115.512 278.035 115.826 277.597 116.072 277H115.288L112.648 268.52H115.064L116.76 275.528L118.552 268.52H120.904L118.168 277.016ZM53.4653 284.928V296H51.1133V284.928H53.4653ZM60.5044 287.264C61.2511 287.264 61.8324 287.493 62.2484 287.952C62.6644 288.4 62.8724 289.024 62.8724 289.824V296H60.6004V290.208C60.6004 289.749 60.5204 289.429 60.3604 289.248C60.2111 289.056 59.9818 288.96 59.6724 288.96C59.3524 288.96 59.0591 289.061 58.7924 289.264C58.5364 289.456 58.2858 289.749 58.0404 290.144V296H55.7684V287.52H57.7364L57.9124 288.592C58.2644 288.155 58.6484 287.824 59.0644 287.6C59.4911 287.376 59.9711 287.264 60.5044 287.264ZM70.1061 295.6C69.7967 295.813 69.4447 295.973 69.0501 296.08C68.6661 296.197 68.2821 296.256 67.8981 296.256C67.0234 296.245 66.3621 295.995 65.9141 295.504C65.4661 295.013 65.2421 294.293 65.2421 293.344V289.12H63.9781V287.52H65.2421V285.664L67.5141 285.392V287.52H69.4661L69.2421 289.12H67.5141V293.296C67.5141 293.701 67.5834 293.995 67.7221 294.176C67.8607 294.357 68.0741 294.448 68.3621 294.448C68.6501 294.448 68.9701 294.352 69.3221 294.16L70.1061 295.6ZM78.0146 291.568C78.0146 291.675 77.9986 291.968 77.9666 292.448H72.6706C72.7452 293.216 72.9532 293.76 73.2946 294.08C73.6359 294.4 74.0999 294.56 74.6866 294.56C75.0492 294.56 75.3906 294.501 75.7106 294.384C76.0306 294.267 76.3772 294.08 76.7506 293.824L77.6946 295.104C76.7452 295.872 75.6732 296.256 74.4786 296.256C73.1452 296.256 72.1212 295.856 71.4066 295.056C70.6919 294.256 70.3346 293.173 70.3346 291.808C70.3346 290.944 70.4839 290.171 70.7826 289.488C71.0919 288.795 71.5346 288.251 72.1106 287.856C72.6972 287.461 73.3906 287.264 74.1906 287.264C75.3959 287.264 76.3346 287.643 77.0066 288.4C77.6786 289.157 78.0146 290.213 78.0146 291.568ZM75.7586 290.928C75.7586 289.52 75.2519 288.816 74.2386 288.816C73.7692 288.816 73.4012 288.992 73.1346 289.344C72.8786 289.685 72.7239 290.245 72.6706 291.024H75.7586V290.928ZM84.0431 287.28C84.2991 287.28 84.5817 287.323 84.8911 287.408L84.5071 289.6C84.2084 289.525 83.9577 289.488 83.7551 289.488C83.2537 289.488 82.8644 289.664 82.5871 290.016C82.3097 290.368 82.0911 290.901 81.9311 291.616V296H79.6591V287.52H81.6271L81.8351 289.168C82.0377 288.571 82.3311 288.107 82.7151 287.776C83.1097 287.445 83.5524 287.28 84.0431 287.28ZM90.7544 287.264C91.5011 287.264 92.0824 287.493 92.4984 287.952C92.9144 288.4 93.1224 289.024 93.1224 289.824V296H90.8504V290.208C90.8504 289.749 90.7704 289.429 90.6104 289.248C90.4611 289.056 90.2318 288.96 89.9224 288.96C89.6024 288.96 89.3091 289.061 89.0424 289.264C88.7864 289.456 88.5358 289.749 88.2904 290.144V296H86.0184V287.52H87.9864L88.1624 288.592C88.5144 288.155 88.8984 287.824 89.3144 287.6C89.7411 287.376 90.2211 287.264 90.7544 287.264ZM102.452 291.568C102.452 291.675 102.436 291.968 102.404 292.448H97.1081C97.1827 293.216 97.3907 293.76 97.7321 294.08C98.0734 294.4 98.5374 294.56 99.1241 294.56C99.4867 294.56 99.8281 294.501 100.148 294.384C100.468 294.267 100.815 294.08 101.188 293.824L102.132 295.104C101.183 295.872 100.111 296.256 98.9161 296.256C97.5827 296.256 96.5587 295.856 95.8441 295.056C95.1294 294.256 94.7721 293.173 94.7721 291.808C94.7721 290.944 94.9214 290.171 95.2201 289.488C95.5294 288.795 95.9721 288.251 96.5481 287.856C97.1347 287.461 97.8281 287.264 98.6281 287.264C99.8334 287.264 100.772 287.643 101.444 288.4C102.116 289.157 102.452 290.213 102.452 291.568ZM100.196 290.928C100.196 289.52 99.6894 288.816 98.6761 288.816C98.2067 288.816 97.8387 288.992 97.5721 289.344C97.3161 289.685 97.1614 290.245 97.1081 291.024H100.196V290.928ZM109.169 295.6C108.859 295.813 108.507 295.973 108.113 296.08C107.729 296.197 107.345 296.256 106.961 296.256C106.086 296.245 105.425 295.995 104.977 295.504C104.529 295.013 104.305 294.293 104.305 293.344V289.12H103.041V287.52H104.305V285.664L106.577 285.392V287.52H108.529L108.305 289.12H106.577V293.296C106.577 293.701 106.646 293.995 106.785 294.176C106.923 294.357 107.137 294.448 107.425 294.448C107.713 294.448 108.033 294.352 108.385 294.16L109.169 295.6ZM53.7159 303.672C54.5159 303.672 55.2092 303.789 55.7959 304.024C56.3932 304.248 56.9425 304.595 57.4439 305.064L56.3239 306.36C55.9292 306.04 55.5345 305.805 55.1399 305.656C54.7452 305.507 54.3239 305.432 53.8759 305.432C53.3852 305.432 52.9905 305.539 52.6919 305.752C52.4039 305.955 52.2599 306.248 52.2599 306.632C52.2599 306.899 52.3185 307.117 52.4359 307.288C52.5639 307.459 52.7825 307.619 53.0919 307.768C53.4012 307.917 53.8652 308.088 54.4839 308.28C55.5825 308.632 56.4039 309.069 56.9479 309.592C57.4919 310.104 57.7639 310.84 57.7639 311.8C57.7639 312.483 57.5932 313.085 57.2519 313.608C56.9105 314.12 56.4145 314.525 55.7639 314.824C55.1132 315.112 54.3505 315.256 53.4759 315.256C52.6012 315.256 51.8225 315.117 51.1399 314.84C50.4572 314.563 49.8705 314.184 49.3799 313.704L50.5799 312.376C51.0065 312.739 51.4492 313.016 51.9079 313.208C52.3665 313.389 52.8679 313.48 53.4119 313.48C53.9879 313.48 54.4465 313.347 54.7879 313.08C55.1399 312.813 55.3159 312.44 55.3159 311.96C55.3159 311.661 55.2519 311.416 55.1239 311.224C55.0065 311.021 54.7985 310.84 54.4999 310.68C54.2012 310.52 53.7692 310.355 53.2039 310.184C51.9985 309.811 51.1345 309.363 50.6119 308.84C50.0999 308.317 49.8439 307.635 49.8439 306.792C49.8439 306.173 50.0092 305.629 50.3399 305.16C50.6705 304.68 51.1292 304.312 51.7159 304.056C52.3025 303.8 52.9692 303.672 53.7159 303.672ZM66.5068 310.568C66.5068 310.675 66.4908 310.968 66.4588 311.448H61.1628C61.2374 312.216 61.4454 312.76 61.7868 313.08C62.1281 313.4 62.5921 313.56 63.1788 313.56C63.5414 313.56 63.8828 313.501 64.2028 313.384C64.5228 313.267 64.8694 313.08 65.2428 312.824L66.1868 314.104C65.2374 314.872 64.1654 315.256 62.9708 315.256C61.6374 315.256 60.6134 314.856 59.8988 314.056C59.1841 313.256 58.8268 312.173 58.8268 310.808C58.8268 309.944 58.9761 309.171 59.2747 308.488C59.5841 307.795 60.0268 307.251 60.6028 306.856C61.1894 306.461 61.8828 306.264 62.6828 306.264C63.8881 306.264 64.8268 306.643 65.4988 307.4C66.1708 308.157 66.5068 309.213 66.5068 310.568ZM64.2508 309.928C64.2508 308.52 63.7441 307.816 62.7308 307.816C62.2614 307.816 61.8934 307.992 61.6268 308.344C61.3708 308.685 61.2161 309.245 61.1628 310.024H64.2508V309.928ZM72.5353 306.28C72.7913 306.28 73.0739 306.323 73.3833 306.408L72.9993 308.6C72.7006 308.525 72.4499 308.488 72.2473 308.488C71.7459 308.488 71.3566 308.664 71.0793 309.016C70.8019 309.368 70.5833 309.901 70.4233 310.616V315H68.1513V306.52H70.1193L70.3273 308.168C70.5299 307.571 70.8233 307.107 71.2073 306.776C71.6019 306.445 72.0446 306.28 72.5353 306.28ZM81.5506 306.52L78.8306 315H76.1266L73.3586 306.52H75.8226L77.5026 313.224L79.2146 306.52H81.5506ZM84.9076 306.52V315H82.6356V306.52H84.9076ZM83.7556 302.152C84.161 302.152 84.4916 302.28 84.7476 302.536C85.0143 302.781 85.1476 303.096 85.1476 303.48C85.1476 303.864 85.0143 304.184 84.7476 304.44C84.4916 304.685 84.161 304.808 83.7556 304.808C83.3503 304.808 83.0196 304.685 82.7636 304.44C82.5076 304.184 82.3796 303.864 82.3796 303.48C82.3796 303.096 82.5076 302.781 82.7636 302.536C83.0196 302.28 83.3503 302.152 83.7556 302.152ZM90.6873 306.264C91.2526 306.264 91.7593 306.349 92.2073 306.52C92.6659 306.68 93.0979 306.936 93.5033 307.288L92.5113 308.632C92.2339 308.419 91.9619 308.264 91.6953 308.168C91.4393 308.072 91.1566 308.024 90.8473 308.024C89.6419 308.024 89.0393 308.952 89.0393 310.808C89.0393 311.747 89.1939 312.419 89.5033 312.824C89.8126 313.229 90.2553 313.432 90.8313 313.432C91.1299 313.432 91.4019 313.389 91.6473 313.304C91.8926 313.208 92.1806 313.053 92.5113 312.84L93.5033 314.264C92.6926 314.925 91.7646 315.256 90.7193 315.256C89.8873 315.256 89.1619 315.075 88.5433 314.712C87.9353 314.349 87.4659 313.837 87.1353 313.176C86.8046 312.504 86.6393 311.72 86.6393 310.824C86.6393 309.928 86.8046 309.139 87.1353 308.456C87.4659 307.763 87.9353 307.224 88.5433 306.84C89.1619 306.456 89.8766 306.264 90.6873 306.264ZM101.647 310.568C101.647 310.675 101.631 310.968 101.599 311.448H96.3034C96.378 312.216 96.586 312.76 96.9274 313.08C97.2687 313.4 97.7327 313.56 98.3194 313.56C98.682 313.56 99.0234 313.501 99.3434 313.384C99.6634 313.267 100.01 313.08 100.383 312.824L101.327 314.104C100.378 314.872 99.306 315.256 98.1114 315.256C96.778 315.256 95.754 314.856 95.0394 314.056C94.3247 313.256 93.9674 312.173 93.9674 310.808C93.9674 309.944 94.1167 309.171 94.4154 308.488C94.7247 307.795 95.1674 307.251 95.7434 306.856C96.33 306.461 97.0234 306.264 97.8234 306.264C99.0287 306.264 99.9674 306.643 100.639 307.4C101.311 308.157 101.647 309.213 101.647 310.568ZM99.3914 309.928C99.3914 308.52 98.8847 307.816 97.8714 307.816C97.402 307.816 97.034 307.992 96.7674 308.344C96.5114 308.685 96.3567 309.245 96.3034 310.024H99.3914V309.928ZM106.108 306.264C107.303 306.264 108.327 306.605 109.18 307.288L108.316 308.584C107.601 308.136 106.897 307.912 106.204 307.912C105.831 307.912 105.543 307.981 105.34 308.12C105.137 308.259 105.036 308.445 105.036 308.68C105.036 308.851 105.079 308.995 105.164 309.112C105.26 309.229 105.431 309.341 105.676 309.448C105.932 309.555 106.311 309.683 106.812 309.832C107.708 310.077 108.375 310.408 108.812 310.824C109.249 311.229 109.468 311.789 109.468 312.504C109.468 313.069 109.303 313.56 108.972 313.976C108.652 314.392 108.215 314.712 107.66 314.936C107.105 315.149 106.487 315.256 105.804 315.256C105.089 315.256 104.439 315.149 103.852 314.936C103.265 314.712 102.764 314.408 102.348 314.024L103.468 312.776C104.183 313.331 104.94 313.608 105.74 313.608C106.167 313.608 106.503 313.528 106.748 313.368C107.004 313.197 107.132 312.968 107.132 312.68C107.132 312.456 107.084 312.28 106.988 312.152C106.892 312.024 106.716 311.907 106.46 311.8C106.204 311.683 105.804 311.549 105.26 311.4C104.407 311.165 103.772 310.835 103.356 310.408C102.951 309.971 102.748 309.432 102.748 308.792C102.748 308.312 102.887 307.88 103.164 307.496C103.441 307.112 103.831 306.813 104.332 306.6C104.844 306.376 105.436 306.264 106.108 306.264Z" fill="#3D32CF"/>
<path d="M186.94 266.928L186.684 268.64H182.684V271.52H186.172V273.216H182.684V276.272H186.972V278H180.332V266.928H186.94ZM195.769 269.52V281.52L193.497 281.264V277.136C192.91 277.883 192.147 278.256 191.209 278.256C190.163 278.256 189.363 277.856 188.809 277.056C188.265 276.245 187.993 275.147 187.993 273.76C187.993 272.885 188.131 272.112 188.409 271.44C188.697 270.757 189.097 270.224 189.609 269.84C190.131 269.456 190.739 269.264 191.433 269.264C192.297 269.264 193.043 269.611 193.673 270.304L193.801 269.52H195.769ZM191.881 276.56C192.211 276.56 192.505 276.48 192.761 276.32C193.017 276.149 193.262 275.888 193.497 275.536V271.744C193.273 271.477 193.049 271.28 192.825 271.152C192.601 271.013 192.339 270.944 192.041 270.944C191.518 270.944 191.107 271.173 190.809 271.632C190.51 272.091 190.361 272.8 190.361 273.76C190.361 274.773 190.489 275.493 190.745 275.92C191.011 276.347 191.39 276.56 191.881 276.56ZM204.947 278H202.979L202.867 276.864C202.568 277.333 202.205 277.685 201.779 277.92C201.352 278.144 200.856 278.256 200.291 278.256C199.523 278.256 198.936 278.027 198.531 277.568C198.125 277.099 197.923 276.448 197.923 275.616V269.52H200.195V275.328C200.195 275.776 200.269 276.096 200.419 276.288C200.568 276.469 200.803 276.56 201.123 276.56C201.731 276.56 202.248 276.192 202.675 275.456V269.52H204.947V278ZM209.462 269.52V278H207.19V269.52H209.462ZM208.31 265.152C208.716 265.152 209.046 265.28 209.302 265.536C209.569 265.781 209.702 266.096 209.702 266.48C209.702 266.864 209.569 267.184 209.302 267.44C209.046 267.685 208.716 267.808 208.31 267.808C207.905 267.808 207.574 267.685 207.318 267.44C207.062 267.184 206.934 266.864 206.934 266.48C206.934 266.096 207.062 265.781 207.318 265.536C207.574 265.28 207.905 265.152 208.31 265.152ZM216.282 269.264C217.349 269.264 218.138 269.659 218.65 270.448C219.173 271.227 219.434 272.325 219.434 273.744C219.434 274.608 219.301 275.381 219.034 276.064C218.767 276.747 218.378 277.285 217.866 277.68C217.365 278.064 216.767 278.256 216.074 278.256C215.21 278.256 214.511 277.952 213.978 277.344V281.264L211.706 281.52V269.52H213.706L213.818 270.512C214.138 270.096 214.511 269.787 214.938 269.584C215.375 269.371 215.823 269.264 216.282 269.264ZM215.402 276.56C216.511 276.56 217.066 275.627 217.066 273.76C217.066 272.736 216.943 272.011 216.698 271.584C216.453 271.157 216.079 270.944 215.578 270.944C215.258 270.944 214.959 271.045 214.682 271.248C214.415 271.44 214.181 271.701 213.978 272.032V275.728C214.341 276.283 214.815 276.56 215.402 276.56ZM230.405 269.264C231.077 269.264 231.616 269.493 232.021 269.952C232.437 270.411 232.645 271.035 232.645 271.824V278H230.373V272.208C230.373 271.376 230.096 270.96 229.541 270.96C229.243 270.96 228.981 271.056 228.757 271.248C228.533 271.44 228.304 271.739 228.069 272.144V278H225.797V272.208C225.797 271.376 225.52 270.96 224.965 270.96C224.667 270.96 224.405 271.061 224.181 271.264C223.957 271.456 223.733 271.749 223.509 272.144V278H221.237V269.52H223.205L223.381 270.576C223.701 270.149 224.059 269.824 224.453 269.6C224.859 269.376 225.323 269.264 225.845 269.264C226.325 269.264 226.741 269.387 227.093 269.632C227.445 269.867 227.701 270.203 227.861 270.64C228.213 270.181 228.592 269.84 228.997 269.616C229.413 269.381 229.883 269.264 230.405 269.264ZM241.968 273.568C241.968 273.675 241.952 273.968 241.92 274.448H236.624C236.698 275.216 236.906 275.76 237.248 276.08C237.589 276.4 238.053 276.56 238.64 276.56C239.002 276.56 239.344 276.501 239.664 276.384C239.984 276.267 240.33 276.08 240.704 275.824L241.648 277.104C240.698 277.872 239.626 278.256 238.432 278.256C237.098 278.256 236.074 277.856 235.36 277.056C234.645 276.256 234.288 275.173 234.288 273.808C234.288 272.944 234.437 272.171 234.736 271.488C235.045 270.795 235.488 270.251 236.064 269.856C236.65 269.461 237.344 269.264 238.144 269.264C239.349 269.264 240.288 269.643 240.96 270.4C241.632 271.157 241.968 272.213 241.968 273.568ZM239.712 272.928C239.712 271.52 239.205 270.816 238.192 270.816C237.722 270.816 237.354 270.992 237.088 271.344C236.832 271.685 236.677 272.245 236.624 273.024H239.712V272.928ZM248.348 269.264C249.095 269.264 249.676 269.493 250.092 269.952C250.508 270.4 250.716 271.024 250.716 271.824V278H248.444V272.208C248.444 271.749 248.364 271.429 248.204 271.248C248.055 271.056 247.826 270.96 247.516 270.96C247.196 270.96 246.903 271.061 246.636 271.264C246.38 271.456 246.13 271.749 245.884 272.144V278H243.612V269.52H245.58L245.756 270.592C246.108 270.155 246.492 269.824 246.908 269.6C247.335 269.376 247.815 269.264 248.348 269.264ZM257.95 277.6C257.64 277.813 257.288 277.973 256.894 278.08C256.51 278.197 256.126 278.256 255.742 278.256C254.867 278.245 254.206 277.995 253.758 277.504C253.31 277.013 253.086 276.293 253.086 275.344V271.12H251.822V269.52H253.086V267.664L255.358 267.392V269.52H257.31L257.086 271.12H255.358V275.296C255.358 275.701 255.427 275.995 255.566 276.176C255.704 276.357 255.918 276.448 256.206 276.448C256.494 276.448 256.814 276.352 257.166 276.16L257.95 277.6ZM190.568 297H188.264L188.024 292.504C187.949 291.16 187.912 290.019 187.912 289.08C187.912 288.579 187.917 288.216 187.928 287.992L186.056 295.816H183.832L181.832 287.976C181.875 288.627 181.896 289.357 181.896 290.168C181.896 291.032 181.875 291.827 181.832 292.552L181.592 297H179.304L180.168 285.928H183.16L184.984 293.56L186.696 285.928H189.72L190.568 297ZM195.899 288.264C197.168 288.264 198.16 288.664 198.875 289.464C199.59 290.253 199.947 291.352 199.947 292.76C199.947 293.656 199.782 294.445 199.451 295.128C199.131 295.8 198.662 296.323 198.043 296.696C197.435 297.069 196.715 297.256 195.883 297.256C194.614 297.256 193.616 296.861 192.891 296.072C192.176 295.272 191.819 294.168 191.819 292.76C191.819 291.864 191.979 291.08 192.299 290.408C192.63 289.725 193.099 289.197 193.707 288.824C194.326 288.451 195.056 288.264 195.899 288.264ZM195.899 289.96C195.323 289.96 194.891 290.189 194.603 290.648C194.326 291.096 194.187 291.8 194.187 292.76C194.187 293.72 194.326 294.429 194.603 294.888C194.891 295.336 195.318 295.56 195.883 295.56C196.448 295.56 196.87 295.336 197.147 294.888C197.435 294.429 197.579 293.72 197.579 292.76C197.579 291.8 197.44 291.096 197.163 290.648C196.886 290.189 196.464 289.96 195.899 289.96ZM206.411 288.264C207.157 288.264 207.739 288.493 208.155 288.952C208.571 289.4 208.779 290.024 208.779 290.824V297H206.507V291.208C206.507 290.749 206.427 290.429 206.267 290.248C206.117 290.056 205.888 289.96 205.579 289.96C205.259 289.96 204.965 290.061 204.699 290.264C204.443 290.456 204.192 290.749 203.947 291.144V297H201.675V288.52H203.643L203.819 289.592C204.171 289.155 204.555 288.824 204.971 288.6C205.397 288.376 205.877 288.264 206.411 288.264ZM213.212 288.52V297H210.94V288.52H213.212ZM212.06 284.152C212.466 284.152 212.796 284.28 213.052 284.536C213.319 284.781 213.452 285.096 213.452 285.48C213.452 285.864 213.319 286.184 213.052 286.44C212.796 286.685 212.466 286.808 212.06 286.808C211.655 286.808 211.324 286.685 211.068 286.44C210.812 286.184 210.684 285.864 210.684 285.48C210.684 285.096 210.812 284.781 211.068 284.536C211.324 284.28 211.655 284.152 212.06 284.152ZM220.528 296.6C220.219 296.813 219.867 296.973 219.472 297.08C219.088 297.197 218.704 297.256 218.32 297.256C217.445 297.245 216.784 296.995 216.336 296.504C215.888 296.013 215.664 295.293 215.664 294.344V290.12H214.4V288.52H215.664V286.664L217.936 286.392V288.52H219.888L219.664 290.12H217.936V294.296C217.936 294.701 218.005 294.995 218.144 295.176C218.283 295.357 218.496 295.448 218.784 295.448C219.072 295.448 219.392 295.352 219.744 295.16L220.528 296.6ZM224.836 288.264C226.106 288.264 227.098 288.664 227.812 289.464C228.527 290.253 228.884 291.352 228.884 292.76C228.884 293.656 228.719 294.445 228.388 295.128C228.068 295.8 227.599 296.323 226.98 296.696C226.372 297.069 225.652 297.256 224.82 297.256C223.551 297.256 222.554 296.861 221.828 296.072C221.114 295.272 220.756 294.168 220.756 292.76C220.756 291.864 220.916 291.08 221.236 290.408C221.567 289.725 222.036 289.197 222.644 288.824C223.263 288.451 223.994 288.264 224.836 288.264ZM224.836 289.96C224.26 289.96 223.828 290.189 223.54 290.648C223.263 291.096 223.124 291.8 223.124 292.76C223.124 293.72 223.263 294.429 223.54 294.888C223.828 295.336 224.255 295.56 224.82 295.56C225.386 295.56 225.807 295.336 226.084 294.888C226.372 294.429 226.516 293.72 226.516 292.76C226.516 291.8 226.378 291.096 226.1 290.648C225.823 290.189 225.402 289.96 224.836 289.96ZM234.996 288.28C235.252 288.28 235.535 288.323 235.844 288.408L235.46 290.6C235.162 290.525 234.911 290.488 234.708 290.488C234.207 290.488 233.818 290.664 233.54 291.016C233.263 291.368 233.044 291.901 232.884 292.616V297H230.612V288.52H232.58L232.788 290.168C232.991 289.571 233.284 289.107 233.668 288.776C234.063 288.445 234.506 288.28 234.996 288.28ZM239.244 288.52V297H236.972V288.52H239.244ZM238.092 284.152C238.497 284.152 238.828 284.28 239.084 284.536C239.35 284.781 239.484 285.096 239.484 285.48C239.484 285.864 239.35 286.184 239.084 286.44C238.828 286.685 238.497 286.808 238.092 286.808C237.686 286.808 237.356 286.685 237.1 286.44C236.844 286.184 236.716 285.864 236.716 285.48C236.716 285.096 236.844 284.781 237.1 284.536C237.356 284.28 237.686 284.152 238.092 284.152ZM246.223 288.264C246.97 288.264 247.551 288.493 247.967 288.952C248.383 289.4 248.591 290.024 248.591 290.824V297H246.319V291.208C246.319 290.749 246.239 290.429 246.079 290.248C245.93 290.056 245.701 289.96 245.391 289.96C245.071 289.96 244.778 290.061 244.511 290.264C244.255 290.456 244.005 290.749 243.759 291.144V297H241.487V288.52H243.455L243.631 289.592C243.983 289.155 244.367 288.824 244.783 288.6C245.21 288.376 245.69 288.264 246.223 288.264ZM258.337 288.984C257.782 289.197 256.966 289.304 255.889 289.304C256.422 289.539 256.817 289.832 257.073 290.184C257.329 290.525 257.457 290.957 257.457 291.48C257.457 292.024 257.313 292.515 257.025 292.952C256.747 293.379 256.342 293.715 255.809 293.96C255.286 294.205 254.673 294.328 253.969 294.328C253.595 294.328 253.265 294.291 252.977 294.216C252.763 294.355 252.657 294.541 252.657 294.776C252.657 294.947 252.721 295.085 252.849 295.192C252.987 295.288 253.249 295.336 253.633 295.336H254.929C255.558 295.336 256.107 295.443 256.577 295.656C257.057 295.859 257.425 296.147 257.681 296.52C257.947 296.883 258.081 297.299 258.081 297.768C258.081 298.632 257.707 299.304 256.961 299.784C256.225 300.275 255.158 300.52 253.761 300.52C252.758 300.52 251.963 300.413 251.377 300.2C250.801 299.997 250.395 299.699 250.161 299.304C249.926 298.909 249.809 298.413 249.809 297.816H251.841C251.841 298.093 251.894 298.312 252.001 298.472C252.107 298.643 252.299 298.765 252.577 298.84C252.865 298.925 253.275 298.968 253.809 298.968C254.545 298.968 255.057 298.877 255.345 298.696C255.643 298.515 255.793 298.259 255.793 297.928C255.793 297.629 255.681 297.4 255.457 297.24C255.233 297.08 254.902 297 254.465 297H253.217C252.374 297 251.745 296.845 251.329 296.536C250.913 296.216 250.705 295.816 250.705 295.336C250.705 295.037 250.79 294.749 250.961 294.472C251.142 294.184 251.387 293.944 251.697 293.752C251.174 293.464 250.79 293.128 250.545 292.744C250.31 292.349 250.193 291.88 250.193 291.336C250.193 290.717 250.342 290.179 250.641 289.72C250.95 289.251 251.377 288.893 251.921 288.648C252.475 288.392 253.105 288.264 253.809 288.264C254.683 288.285 255.403 288.211 255.969 288.04C256.534 287.869 257.137 287.603 257.777 287.24L258.337 288.984ZM253.857 289.784C253.43 289.784 253.089 289.923 252.833 290.2C252.587 290.467 252.465 290.835 252.465 291.304C252.465 291.784 252.587 292.163 252.833 292.44C253.089 292.717 253.435 292.856 253.873 292.856C254.331 292.856 254.678 292.723 254.913 292.456C255.147 292.189 255.265 291.795 255.265 291.272C255.265 290.28 254.795 289.784 253.857 289.784ZM196.646 304.672C197.446 304.672 198.139 304.789 198.726 305.024C199.323 305.248 199.872 305.595 200.374 306.064L199.254 307.36C198.859 307.04 198.464 306.805 198.07 306.656C197.675 306.507 197.254 306.432 196.806 306.432C196.315 306.432 195.92 306.539 195.622 306.752C195.334 306.955 195.19 307.248 195.19 307.632C195.19 307.899 195.248 308.117 195.366 308.288C195.494 308.459 195.712 308.619 196.022 308.768C196.331 308.917 196.795 309.088 197.414 309.28C198.512 309.632 199.334 310.069 199.878 310.592C200.422 311.104 200.694 311.84 200.694 312.8C200.694 313.483 200.523 314.085 200.182 314.608C199.84 315.12 199.344 315.525 198.694 315.824C198.043 316.112 197.28 316.256 196.406 316.256C195.531 316.256 194.752 316.117 194.07 315.84C193.387 315.563 192.8 315.184 192.31 314.704L193.51 313.376C193.936 313.739 194.379 314.016 194.838 314.208C195.296 314.389 195.798 314.48 196.342 314.48C196.918 314.48 197.376 314.347 197.718 314.08C198.07 313.813 198.246 313.44 198.246 312.96C198.246 312.661 198.182 312.416 198.054 312.224C197.936 312.021 197.728 311.84 197.43 311.68C197.131 311.52 196.699 311.355 196.134 311.184C194.928 310.811 194.064 310.363 193.542 309.84C193.03 309.317 192.774 308.635 192.774 307.792C192.774 307.173 192.939 306.629 193.27 306.16C193.6 305.68 194.059 305.312 194.646 305.056C195.232 304.8 195.899 304.672 196.646 304.672ZM206.48 316.016C206.139 317.093 205.6 317.925 204.864 318.512C204.139 319.099 203.152 319.435 201.904 319.52L201.664 317.888C202.475 317.781 203.067 317.589 203.44 317.312C203.824 317.035 204.139 316.597 204.384 316H203.6L200.96 307.52H203.376L205.072 314.528L206.864 307.52H209.216L206.48 316.016ZM212.991 307.264C214.185 307.264 215.209 307.605 216.063 308.288L215.199 309.584C214.484 309.136 213.78 308.912 213.087 308.912C212.713 308.912 212.425 308.981 212.223 309.12C212.02 309.259 211.919 309.445 211.919 309.68C211.919 309.851 211.961 309.995 212.047 310.112C212.143 310.229 212.313 310.341 212.559 310.448C212.815 310.555 213.193 310.683 213.695 310.832C214.591 311.077 215.257 311.408 215.695 311.824C216.132 312.229 216.351 312.789 216.351 313.504C216.351 314.069 216.185 314.56 215.855 314.976C215.535 315.392 215.097 315.712 214.543 315.936C213.988 316.149 213.369 316.256 212.687 316.256C211.972 316.256 211.321 316.149 210.735 315.936C210.148 315.712 209.647 315.408 209.231 315.024L210.351 313.776C211.065 314.331 211.823 314.608 212.623 314.608C213.049 314.608 213.385 314.528 213.631 314.368C213.887 314.197 214.015 313.968 214.015 313.68C214.015 313.456 213.967 313.28 213.871 313.152C213.775 313.024 213.599 312.907 213.343 312.8C213.087 312.683 212.687 312.549 212.143 312.4C211.289 312.165 210.655 311.835 210.239 311.408C209.833 310.971 209.631 310.432 209.631 309.792C209.631 309.312 209.769 308.88 210.047 308.496C210.324 308.112 210.713 307.813 211.215 307.6C211.727 307.376 212.319 307.264 212.991 307.264ZM222.903 315.6C222.594 315.813 222.242 315.973 221.847 316.08C221.463 316.197 221.079 316.256 220.695 316.256C219.82 316.245 219.159 315.995 218.711 315.504C218.263 315.013 218.039 314.293 218.039 313.344V309.12H216.775V307.52H218.039V305.664L220.311 305.392V307.52H222.263L222.039 309.12H220.311V313.296C220.311 313.701 220.38 313.995 220.519 314.176C220.658 314.357 220.871 314.448 221.159 314.448C221.447 314.448 221.767 314.352 222.119 314.16L222.903 315.6ZM230.811 311.568C230.811 311.675 230.795 311.968 230.763 312.448H225.467C225.542 313.216 225.75 313.76 226.091 314.08C226.433 314.4 226.897 314.56 227.483 314.56C227.846 314.56 228.187 314.501 228.507 314.384C228.827 314.267 229.174 314.08 229.547 313.824L230.491 315.104C229.542 315.872 228.47 316.256 227.275 316.256C225.942 316.256 224.918 315.856 224.203 315.056C223.489 314.256 223.131 313.173 223.131 311.808C223.131 310.944 223.281 310.171 223.579 309.488C223.889 308.795 224.331 308.251 224.907 307.856C225.494 307.461 226.187 307.264 226.987 307.264C228.193 307.264 229.131 307.643 229.803 308.4C230.475 309.157 230.811 310.213 230.811 311.568ZM228.555 310.928C228.555 309.52 228.049 308.816 227.035 308.816C226.566 308.816 226.198 308.992 225.931 309.344C225.675 309.685 225.521 310.245 225.467 311.024H228.555V310.928ZM241.624 307.264C242.296 307.264 242.835 307.493 243.24 307.952C243.656 308.411 243.864 309.035 243.864 309.824V316H241.592V310.208C241.592 309.376 241.315 308.96 240.76 308.96C240.461 308.96 240.2 309.056 239.976 309.248C239.752 309.44 239.523 309.739 239.288 310.144V316H237.016V310.208C237.016 309.376 236.739 308.96 236.184 308.96C235.885 308.96 235.624 309.061 235.4 309.264C235.176 309.456 234.952 309.749 234.728 310.144V316H232.456V307.52H234.424L234.6 308.576C234.92 308.149 235.277 307.824 235.672 307.6C236.077 307.376 236.541 307.264 237.064 307.264C237.544 307.264 237.96 307.387 238.312 307.632C238.664 307.867 238.92 308.203 239.08 308.64C239.432 308.181 239.811 307.84 240.216 307.616C240.632 307.381 241.101 307.264 241.624 307.264Z" fill="#3D32CF"/>
</g>
<defs>
<clipPath id="clip0_1_2">
<rect width="300" height="320" fill="white"/>
</clipPath>
</defs>
</svg>
