<svg width="1210" height="387" viewBox="0 0 1210 387" fill="none" xmlns="http://www.w3.org/2000/svg">
<line y1="-1" x2="177.91" y2="-1" transform="matrix(-0.995246 0.0973931 -0.0976123 -0.995225 378.137 186.414)" stroke="#3D32CF" stroke-width="2"/>
<line y1="-1" x2="146.797" y2="-1" transform="matrix(-0.737381 0.675477 -0.676311 -0.736617 562.848 200.483)" stroke="#3D32CF" stroke-width="2"/>
<line x1="669.224" y1="206.345" x2="669.224" y2="352.896" stroke="#3D32CF" stroke-width="2"/>
<line y1="-1" x2="104.895" y2="-1" transform="matrix(0.300946 0.953641 -0.953837 0.300325 839.591 211.035)" stroke="#3D32CF" stroke-width="2"/>
<line y1="-1" x2="146.716" y2="-1" transform="matrix(-0.994844 -0.101416 0.101644 -0.994821 1097.21 190.757)" stroke="#3D32CF" stroke-width="2"/>
<path fill-rule="evenodd" clip-rule="evenodd" d="M792.462 111.65H809.915C811.172 111.65 811.239 113.293 811.527 114.319L817.489 138.656H783.571C784.225 137.293 785.067 133.455 785.547 131.74L790.623 114.421C791.034 113.339 791.337 111.65 792.462 111.65ZM911.008 132.399H869.517V113.955H911.996C913.661 113.955 916.371 115.989 917.284 116.9C924.284 123.885 917.62 132.399 911.008 132.399ZM911.666 100.122H869.517V81.6786H911.337C913.426 81.6786 915.952 83.359 917.179 84.3988C923.907 90.0996 918.363 100.122 911.666 100.122ZM799.707 67.1873V65.5407C799.707 63.4837 802.26 60.9296 804.317 60.9296H805.963C808.02 60.9296 810.573 63.4837 810.573 65.5407V67.1873C810.573 69.2439 808.02 71.7981 805.963 71.7981H804.317C802.26 71.7981 799.707 69.2439 799.707 67.1873ZM847.125 5.92831C847.125 10.8542 849.329 13.8327 854.699 13.8327C854.864 15.8158 859.138 25.2069 859.926 27.3779L865.342 41.0628C866.419 43.1684 867.089 45.3141 868.008 47.6185C869.101 50.3613 875.956 66.4132 876.103 68.1754H856.016V82.6666L813.191 68.5547C813.208 65.1113 813.34 63.3981 811.65 61.4998C805.414 54.4956 797.073 60.1426 797.073 65.5407V67.1873C797.073 70.8544 800.888 74.4331 804.646 74.4331C803.295 80.2354 802.728 86.4873 801.821 92.3569C801.63 93.5997 801.522 94.4746 801.379 95.5373C801.17 97.091 800.989 97.2108 800.695 98.4754C797.825 98.4754 789.504 97.9861 787.413 98.6944C784.994 99.5132 780.676 102.588 779.502 104.615C778.084 107.064 768.546 141.783 767.068 146.851C766.19 149.862 761.18 165.7 761.18 168.627C761.18 170.58 760.755 171.854 762.048 173.357C763.263 174.77 764.48 175.744 766.448 176.202C766.395 178.575 765.282 182.913 764.892 185.185L762.495 198.596C761.772 203.13 762.06 201.026 759.009 203.014L757.578 204.217C753.572 208.748 757.336 215.724 761.838 215.724C764.193 215.724 766.008 215.397 767.748 213.731L768.987 212.006C770.962 208.325 769.035 203.207 764.802 202.221C764.802 198.548 768.064 183.071 768.919 178.015C769.412 175.102 770.308 176.92 773.132 173.995C775.642 171.395 777.855 156.524 779.949 152.16H821.111L825.915 172.055C826.195 172.871 826.94 173.905 827.452 174.47C828.122 175.209 829.06 175.693 830.21 175.994C831.702 176.384 832.435 176.041 832.888 177.268C833.05 177.707 833.367 180.262 833.483 180.954C833.908 183.498 834.248 185.542 834.658 188.012C835.036 190.29 835.504 192.744 835.882 195.021C836.251 197.24 836.917 199.927 836.917 202.221C836.48 202.513 836 202.813 835.541 203.151C829.616 207.514 833.695 215.724 838.563 215.724C840.918 215.724 842.733 215.397 844.474 213.731C848.183 210.179 846.476 203.676 841.61 202.138C838.9 201.281 839.782 202.314 839.312 199.167C839.06 197.482 838.823 196.209 838.563 194.646C837.86 190.408 835.6 180.189 835.6 176.202C835.6 175.256 839.222 174.582 839.222 169.944C839.222 165.111 830.021 132.346 828.614 126.87L824.543 111.181C823.713 108.261 823.689 105.099 821.49 103.036L820.261 101.96C818.923 100.841 817.743 99.7529 816.107 99.1985C812.53 97.9864 807.303 98.4754 803.329 98.4754C803.024 97.033 803.649 94.4454 803.889 92.7778L805.73 80.787C805.978 79.2983 806.622 76.0704 806.622 74.4331C815.668 72.3252 804.4 68.4745 822.881 74.6381L844.862 81.966C848.434 83.1568 852.357 84.7781 856.016 85.6308V145.902H911.996C923.867 145.902 934.058 134.723 934.058 123.177C934.058 117.081 930.983 109.39 927.472 107.039C928.914 104.886 930.562 103.172 931.757 100.785C934.421 95.4642 934.839 88.0667 932.303 82.4457C929.426 76.0658 924.73 70.5735 917.264 68.8339C918.162 64.9802 921.055 59.0258 922.627 55.0958C924.63 50.0933 938.172 17.376 938.998 13.8327C942.369 13.8327 943.194 14.0657 945.316 12.577C946.138 12.0001 946.548 11.6337 947.107 10.7452C950.174 5.86761 946.384 0 942.29 0C939.669 0 937.362 0.516592 935.76 2.6903C933.172 6.20137 934.452 9.16824 936.693 12.5152C936.132 14.9219 934.906 17.145 934.011 19.3844L920.087 54.2019C918.553 58.0366 915.497 64.4519 914.63 68.1754H879.066C878.231 64.5912 869.798 44.6738 868.247 40.792C866.395 36.1579 864.667 31.842 862.79 27.1476C861.821 24.7242 861.024 22.7286 860.062 20.325C859.195 18.1587 857.836 15.3315 857.333 13.1737C864.356 8.47 859.941 0 855.028 0C851.839 0 849.406 0.871353 847.879 3.71802C847.483 4.45517 847.125 4.999 847.125 5.92831Z" fill="#3D32CF"/>
<path fill-rule="evenodd" clip-rule="evenodd" d="M705.2 153.477V151.83C705.2 149.773 707.754 147.219 709.81 147.219H711.456C713.513 147.219 716.066 149.773 716.066 151.83V153.477C716.066 155.534 713.513 158.088 711.456 158.088H709.81C707.754 158.088 705.2 155.534 705.2 153.477ZM654.489 5.92831C654.489 8.0355 654.93 10.385 656.433 11.8881C658.752 14.2073 661.524 13.7397 664.368 13.5032C666.63 16.8832 668.987 19.8574 671.422 23.2448C676.635 30.4973 682.466 37.3763 687.49 44.7193C688.693 46.4772 688.077 54.5675 688.077 56.9774C688.077 65.953 687.26 82.8047 688.643 90.0042C689.524 94.5917 691.707 98.2412 694.845 100.598C698.504 103.345 703.151 105.721 708.493 105.721C708.493 118.912 709.151 131.282 709.151 144.585C707.327 145.01 704.404 146.254 703.883 148.207C701.846 148.038 687.671 141.218 684.546 139.882C681.213 138.458 678.243 136.994 674.952 135.645C671.868 134.38 668.278 132.168 665.026 131.41C665.026 127.081 664.568 118.914 665.167 115.08C665.563 112.551 664.695 102.605 663.812 100.349C662.108 95.9987 659.962 93.7857 656.337 91.3572C654.001 89.7915 647.561 86.9483 643.951 86.9483H590.606C581.453 86.9483 574.995 91.9329 571.389 99.0169C570.453 100.857 568.873 104.525 568.873 107.039V160.064C568.873 162.681 571.307 164.168 573.483 164.675C573.361 166.137 572.719 167.99 572.308 169.428L566.213 191.327C565.319 194.725 565.192 192.555 562.482 193.853C558.228 195.89 556.711 201.648 560.279 205.217C562.975 207.913 567.52 207.707 570.172 205.168C572.724 202.725 572.704 198.838 570.802 196.009C570.065 194.915 569.353 194.59 568.214 193.987C569.223 191.884 569.604 189.282 570.307 186.858L576.446 164.675C584.595 164.675 582.373 157.793 582.373 150.513C582.373 141.627 581.799 117.177 582.785 110.085C583.576 104.4 587.938 99.7929 593.899 99.7929C599.675 99.7929 604.279 100.122 610.034 100.122V150.183C610.034 155.239 621.734 156.062 623.325 151.949C623.933 150.377 623.635 109.834 623.524 103.075C623.499 101.609 623.135 100.122 624.523 100.122H641.317C643.709 100.122 646.605 102.181 647.832 103.487C649.311 105.063 650.802 107.611 651.345 110.183C652.38 115.089 651.059 150.385 651.51 160.079C651.645 162.99 654.024 164.774 656.794 165.004C656.873 168.558 666.257 197.349 666.343 201.233C661.935 202.41 661.847 209.315 664.665 212.133C667.987 215.455 673.672 214.322 675.797 210.359C677.219 207.709 676.635 203.787 674.257 201.881C672.742 200.668 671.714 200.245 668.978 200.245C668.752 197.53 665.06 185.37 664.251 182.577C663.336 179.42 660.655 167.563 659.428 165.004C666.313 164.851 665.026 159.272 665.026 152.489C665.026 146.451 665.026 140.413 665.026 134.375C667.589 134.972 671.989 137.247 674.465 138.437C682.166 142.137 689.993 145.134 697.737 148.755C699.388 149.528 701.084 150.058 702.565 150.842C702.565 154.295 702.527 155.819 704.284 157.686C706.406 159.941 708.074 160.723 711.456 160.723C714.933 160.723 718.701 156.954 718.701 153.477V151.83C718.701 148.319 715.055 144.857 711.786 144.585C711.786 131.293 711.127 118.819 711.127 105.721H761.838C767.087 105.721 767.04 96.5436 763.587 93.4332C761.93 91.9403 758.203 92.5471 755.911 92.5471C749.84 92.5471 744.898 92.218 738.788 92.218H712.773C707.536 92.225 704.102 91.1113 702.098 85.4401C700.989 82.3037 701.578 48.0059 701.578 42.1566C701.578 39.2971 701.577 36.4392 701.591 33.58C701.606 30.6653 700.582 28.5301 698.285 27.9945C699.423 26.2949 704.174 23.4911 706.19 22.0685L719.689 12.5152C720.541 12.5152 727.224 16.7607 730.789 10.1143C733.157 5.70074 729.693 0 725.616 0C722.427 0 719.994 0.871353 718.467 3.71802C717.44 5.63227 717.455 8.29961 718.371 10.2096C715.35 12.2335 712.436 14.3784 709.478 16.465L696.17 25.8799C693.92 27.5366 692.899 27.0224 690.805 28.0882C689.004 29.0051 688.114 30.3471 688.061 32.9191C688.007 35.5215 688.077 38.2243 688.077 40.8391C686.728 39.8507 679.047 28.7849 677.351 26.5357L669.355 15.7613C668.869 15.1148 666.672 12.4922 666.672 11.8566C666.672 11.2836 670.692 6.26166 666.375 1.9442C663.497 -0.934368 658.254 -0.55548 655.861 2.6903C655.206 3.58032 654.489 4.74537 654.489 5.92831Z" fill="#3D32CF"/>
<path fill-rule="evenodd" clip-rule="evenodd" d="M526.394 204.197V202.55C526.394 200.493 528.947 197.939 531.004 197.939H532.65C534.707 197.939 537.26 200.493 537.26 202.55V204.197C537.26 206.253 534.707 208.807 532.65 208.807H531.004C528.947 208.807 526.394 206.253 526.394 204.197ZM553.725 45.1204C553.725 47.277 554.025 48.4669 555.042 50.3901C553.735 52.3425 551.34 53.9148 549.541 55.4276L543.76 60.5137C541.358 62.8523 533.684 68.7732 532.321 70.8096C530.295 70.3378 527.937 69.6263 525.346 70.4191C523.152 71.0905 521.454 72.6453 521.454 75.4208V143.926C521.454 147.335 524.964 148.866 528.04 148.866C528.04 153.064 528.304 156.159 528.356 160.406L529.679 189.383C529.669 191.708 530.016 192.803 530.016 195.304C528.66 195.955 528.193 195.806 526.974 196.873L526.079 197.624C524.984 198.346 524.879 197.671 524.747 199.256C523.698 198.976 517.304 192.932 516.096 191.77L511.817 187.816C511.08 187.075 510.589 186.557 509.853 185.829C505.938 181.954 492.765 170.858 490.83 167.968C492.621 166.768 492.476 166.173 492.476 164.016C492.476 161.33 491.12 159.271 489.053 157.888C487.668 156.96 487.033 157.077 484.907 157.095C483.26 157.108 481.611 157.099 479.963 157.099C474.576 149.053 465.975 138.113 459.924 130.045C458.753 128.484 457.707 127.09 456.536 125.529C455.538 124.199 453.726 122.502 453.29 120.871C461.524 116.514 469.094 111.06 477.311 106.691C480.725 104.876 487.946 107.124 491.556 105.788C496.354 104.014 495.247 92.2176 489.513 92.2176H475.024C473.587 92.2176 431.888 118.533 428.923 119.224C428.923 113.955 428.923 108.685 428.923 103.415C428.923 101.084 429.367 97.6694 428.513 95.9208C426.838 92.4911 423.963 92.5467 420.69 92.5467C414.757 92.5467 422.074 95.9271 409.124 91.2712L390.348 84.3607C389.249 83.9503 387.433 83.226 386.444 82.9957C386.444 79.5539 386.644 79.2613 385.208 76.9869C382.976 73.4525 377.431 73.174 374.558 76.0475C370.666 79.9398 372.335 87.936 380.187 87.936C382.129 87.936 384.378 86.4196 385.127 85.3013C387.76 86.6947 396.874 89.728 400.232 90.9421C405.024 92.6735 410.868 94.3135 415.422 96.4989V149.854C415.422 154.726 414.816 163.294 415.751 167.309C414.333 167.64 413.054 168.546 411.691 169.177C410.064 169.932 408.981 170.364 407.409 171.152C405.86 171.928 404.697 172.368 403.124 173.124L394.9 177.084C392.813 178.128 383.483 182.752 381.834 182.789C380.657 178.381 373.765 178.28 370.936 181.11C367.044 185.002 368.713 192.999 376.565 192.999C380.651 192.999 382.822 189.275 382.822 185.753C384.41 184.912 385.819 184.391 387.546 183.562C389.378 182.682 390.518 182.069 392.467 181.237C398.47 178.675 411.076 171.971 416.414 169.909C418.394 169.145 421.506 172.674 426.242 169.897C430.032 167.675 428.604 160.956 428.593 156.44C428.585 152.854 428.923 150.079 428.923 146.231C428.923 142.608 428.923 138.985 428.923 135.362C430.994 134.266 432.935 133.174 435.039 131.929C437.1 130.71 439.096 129.51 441.107 128.446C442.718 129.525 447.749 136.743 449.246 138.749C451.947 142.369 454.437 145.676 457.148 149.289L471.025 167.686C471.775 168.689 472.732 169.417 473.048 170.603L485.906 170.618C487.991 170.604 487.954 170.307 489.513 169.944C490.787 171.848 501.575 181.2 504.255 183.853L514.868 193.987C516.427 195.177 517.629 196.586 519.062 198.026C519.937 198.906 520.358 199.076 521.203 199.836C522.217 200.747 522.227 201.434 523.759 201.562C523.759 205.014 523.72 206.538 525.478 208.406C527.6 210.66 529.268 211.442 532.65 211.442C536.127 211.442 539.894 207.674 539.894 204.197V202.55C539.894 199.008 536.151 195.382 532.65 195.304L531.32 166.664C531.243 160.376 530.674 155.152 530.674 148.866C532.887 147.804 534.626 146.915 534.626 143.926V74.7618C534.626 73.757 534.309 73.433 533.967 72.7857C536.734 70.9325 539.867 67.4296 542.578 65.2598L545.572 62.6551C546.113 62.1743 546.339 61.8335 546.907 61.3559L549.694 58.8733C550.402 58.2478 550.626 58.2248 551.34 57.5562C551.889 57.0427 552.105 56.7362 552.688 56.2694C553.431 55.6746 553.569 55.6505 554.303 54.9203C555.116 54.1116 556.463 52.9582 557.347 52.3662C559.605 52.8921 558.997 53.0248 561.628 53.0248C563.375 53.0248 565.308 51.5201 566.183 50.3345C569.72 45.5343 565.899 39.1921 561.628 39.1921C559.273 39.1921 557.458 39.5196 555.718 41.1853C554.772 42.0909 553.725 43.727 553.725 45.1204Z" fill="#3D32CF"/>
<path fill-rule="evenodd" clip-rule="evenodd" d="M941.961 175.544C941.961 177.9 942.103 179.701 943.905 181.504C948.605 186.204 955.792 181.766 955.792 177.52C955.792 175.163 955.65 173.362 953.847 171.56C949.093 166.804 941.961 171.419 941.961 175.544Z" fill="#3D32CF"/>
<path fill-rule="evenodd" clip-rule="evenodd" d="M779.291 36.2274C779.291 38.5835 779.433 40.3853 781.234 42.1876C784.07 45.0241 789.736 45.1003 792.251 40.6273C795.204 35.3747 790.502 30.2991 787.194 30.2991C784.772 30.2991 782.538 30.4461 780.663 32.9894C780.362 33.3974 780.305 33.532 780.044 34.0175C779.649 34.7546 779.291 35.2981 779.291 36.2274Z" fill="#3D32CF"/>
<path fill-rule="evenodd" clip-rule="evenodd" d="M451.974 61.5887C451.974 63.9449 452.116 65.7463 453.917 67.5485C456.488 70.1198 460.902 70.2843 463.811 67.4995C464.151 67.1743 464.048 67.3217 464.431 66.8024C464.732 66.3947 464.79 66.2602 465.05 65.7747C467.741 60.7578 463.248 55.6604 459.877 55.6604C456.751 55.6604 454.445 56.1774 452.727 59.3784C452.332 60.1156 451.974 60.659 451.974 61.5887Z" fill="#3D32CF"/>
<path d="M82.7498 198L81.8918 194.59H77.1178L76.2598 198H72.8938L77.5798 182.776H81.5178L86.1818 198H82.7498ZM77.7338 192.192H81.2758L79.4938 185.174L77.7338 192.192ZM92.3844 185.988C93.1618 185.988 93.8584 186.105 94.4744 186.34C95.1051 186.56 95.6991 186.912 96.2564 187.396L94.8924 189.244C94.5111 188.951 94.1371 188.738 93.7704 188.606C93.4184 188.474 93.0298 188.408 92.6044 188.408C90.9471 188.408 90.1184 189.684 90.1184 192.236C90.1184 193.527 90.3311 194.451 90.7564 195.008C91.1818 195.565 91.7904 195.844 92.5824 195.844C92.9931 195.844 93.3671 195.785 93.7044 195.668C94.0418 195.536 94.4378 195.323 94.8924 195.03L96.2564 196.988C95.1418 197.897 93.8658 198.352 92.4284 198.352C91.2844 198.352 90.2871 198.103 89.4364 197.604C88.6004 197.105 87.9551 196.401 87.5004 195.492C87.0458 194.568 86.8184 193.49 86.8184 192.258C86.8184 191.026 87.0458 189.941 87.5004 189.002C87.9551 188.049 88.6004 187.308 89.4364 186.78C90.2871 186.252 91.2698 185.988 92.3844 185.988ZM102.461 185.988C103.238 185.988 103.935 186.105 104.551 186.34C105.181 186.56 105.775 186.912 106.333 187.396L104.969 189.244C104.587 188.951 104.213 188.738 103.847 188.606C103.495 188.474 103.106 188.408 102.681 188.408C101.023 188.408 100.195 189.684 100.195 192.236C100.195 193.527 100.407 194.451 100.833 195.008C101.258 195.565 101.867 195.844 102.659 195.844C103.069 195.844 103.443 195.785 103.781 195.668C104.118 195.536 104.514 195.323 104.969 195.03L106.333 196.988C105.218 197.897 103.942 198.352 102.505 198.352C101.361 198.352 100.363 198.103 99.5126 197.604C98.6766 197.105 98.0313 196.401 97.5766 195.492C97.1219 194.568 96.8946 193.49 96.8946 192.258C96.8946 191.026 97.1219 189.941 97.5766 189.002C98.0313 188.049 98.6766 187.308 99.5126 186.78C100.363 186.252 101.346 185.988 102.461 185.988ZM112.581 185.988C114.326 185.988 115.69 186.538 116.673 187.638C117.655 188.723 118.147 190.234 118.147 192.17C118.147 193.402 117.919 194.487 117.465 195.426C117.025 196.35 116.379 197.069 115.529 197.582C114.693 198.095 113.703 198.352 112.559 198.352C110.813 198.352 109.442 197.809 108.445 196.724C107.462 195.624 106.971 194.106 106.971 192.17C106.971 190.938 107.191 189.86 107.631 188.936C108.085 187.997 108.731 187.271 109.567 186.758C110.417 186.245 111.422 185.988 112.581 185.988ZM112.581 188.32C111.789 188.32 111.195 188.635 110.799 189.266C110.417 189.882 110.227 190.85 110.227 192.17C110.227 193.49 110.417 194.465 110.799 195.096C111.195 195.712 111.781 196.02 112.559 196.02C113.336 196.02 113.915 195.712 114.297 195.096C114.693 194.465 114.891 193.49 114.891 192.17C114.891 190.85 114.7 189.882 114.319 189.266C113.937 188.635 113.358 188.32 112.581 188.32ZM130.07 198H127.364L127.21 196.438C126.8 197.083 126.301 197.567 125.714 197.89C125.128 198.198 124.446 198.352 123.668 198.352C122.612 198.352 121.806 198.037 121.248 197.406C120.691 196.761 120.412 195.866 120.412 194.722V186.34H123.536V194.326C123.536 194.942 123.639 195.382 123.844 195.646C124.05 195.895 124.372 196.02 124.812 196.02C125.648 196.02 126.36 195.514 126.946 194.502V186.34H130.07V198ZM139.667 185.988C140.694 185.988 141.493 186.303 142.065 186.934C142.637 187.55 142.923 188.408 142.923 189.508V198H139.799V190.036C139.799 189.405 139.689 188.965 139.469 188.716C139.264 188.452 138.949 188.32 138.523 188.32C138.083 188.32 137.68 188.459 137.313 188.738C136.961 189.002 136.617 189.405 136.279 189.948V198H133.155V186.34H135.861L136.103 187.814C136.587 187.213 137.115 186.758 137.687 186.45C138.274 186.142 138.934 185.988 139.667 185.988ZM152.869 197.45C152.444 197.743 151.96 197.963 151.417 198.11C150.889 198.271 150.361 198.352 149.833 198.352C148.631 198.337 147.721 197.993 147.105 197.318C146.489 196.643 146.181 195.653 146.181 194.348V188.54H144.443V186.34H146.181V183.788L149.305 183.414V186.34H151.989L151.681 188.54H149.305V194.282C149.305 194.839 149.401 195.243 149.591 195.492C149.782 195.741 150.075 195.866 150.471 195.866C150.867 195.866 151.307 195.734 151.791 195.47L152.869 197.45ZM157.377 186.34V198H154.253V186.34H157.377ZM155.793 180.334C156.35 180.334 156.805 180.51 157.157 180.862C157.524 181.199 157.707 181.632 157.707 182.16C157.707 182.688 157.524 183.128 157.157 183.48C156.805 183.817 156.35 183.986 155.793 183.986C155.236 183.986 154.781 183.817 154.429 183.48C154.077 183.128 153.901 182.688 153.901 182.16C153.901 181.632 154.077 181.199 154.429 180.862C154.781 180.51 155.236 180.334 155.793 180.334ZM166.974 185.988C168.001 185.988 168.8 186.303 169.372 186.934C169.944 187.55 170.23 188.408 170.23 189.508V198H167.106V190.036C167.106 189.405 166.996 188.965 166.776 188.716C166.571 188.452 166.255 188.32 165.83 188.32C165.39 188.32 164.987 188.459 164.62 188.738C164.268 189.002 163.923 189.405 163.586 189.948V198H160.462V186.34H163.168L163.41 187.814C163.894 187.213 164.422 186.758 164.994 186.45C165.581 186.142 166.241 185.988 166.974 185.988ZM183.63 186.978C182.867 187.271 181.745 187.418 180.264 187.418C180.997 187.741 181.54 188.144 181.892 188.628C182.244 189.097 182.42 189.691 182.42 190.41C182.42 191.158 182.222 191.833 181.826 192.434C181.445 193.021 180.887 193.483 180.154 193.82C179.435 194.157 178.592 194.326 177.624 194.326C177.111 194.326 176.656 194.275 176.26 194.172C175.967 194.363 175.82 194.619 175.82 194.942C175.82 195.177 175.908 195.367 176.084 195.514C176.275 195.646 176.634 195.712 177.162 195.712H178.944C179.809 195.712 180.565 195.859 181.21 196.152C181.87 196.431 182.376 196.827 182.728 197.34C183.095 197.839 183.278 198.411 183.278 199.056C183.278 200.244 182.765 201.168 181.738 201.828C180.726 202.503 179.259 202.84 177.338 202.84C175.959 202.84 174.867 202.693 174.06 202.4C173.268 202.121 172.711 201.711 172.388 201.168C172.065 200.625 171.904 199.943 171.904 199.122H174.698C174.698 199.503 174.771 199.804 174.918 200.024C175.065 200.259 175.329 200.427 175.71 200.53C176.106 200.647 176.671 200.706 177.404 200.706C178.416 200.706 179.12 200.581 179.516 200.332C179.927 200.083 180.132 199.731 180.132 199.276C180.132 198.865 179.978 198.55 179.67 198.33C179.362 198.11 178.907 198 178.306 198H176.59C175.431 198 174.566 197.787 173.994 197.362C173.422 196.922 173.136 196.372 173.136 195.712C173.136 195.301 173.253 194.905 173.488 194.524C173.737 194.128 174.075 193.798 174.5 193.534C173.781 193.138 173.253 192.676 172.916 192.148C172.593 191.605 172.432 190.96 172.432 190.212C172.432 189.361 172.637 188.621 173.048 187.99C173.473 187.345 174.06 186.853 174.808 186.516C175.571 186.164 176.436 185.988 177.404 185.988C178.607 186.017 179.597 185.915 180.374 185.68C181.151 185.445 181.98 185.079 182.86 184.58L183.63 186.978ZM177.47 188.078C176.883 188.078 176.414 188.269 176.062 188.65C175.725 189.017 175.556 189.523 175.556 190.168C175.556 190.828 175.725 191.349 176.062 191.73C176.414 192.111 176.891 192.302 177.492 192.302C178.123 192.302 178.599 192.119 178.922 191.752C179.245 191.385 179.406 190.843 179.406 190.124C179.406 188.76 178.761 188.078 177.47 188.078ZM10.3689 224L9.51094 220.59H4.73694L3.87894 224H0.512937L5.19894 208.776H9.13694L13.8009 224H10.3689ZM5.35294 218.192H8.89494L7.11294 211.174L5.35294 218.192ZM24.6896 224H21.9836L21.8296 222.438C21.4189 223.083 20.9202 223.567 20.3336 223.89C19.7469 224.198 19.0649 224.352 18.2876 224.352C17.2316 224.352 16.4249 224.037 15.8676 223.406C15.3102 222.761 15.0316 221.866 15.0316 220.722V212.34H18.1556V220.326C18.1556 220.942 18.2582 221.382 18.4636 221.646C18.6689 221.895 18.9916 222.02 19.4316 222.02C20.2676 222.02 20.9789 221.514 21.5656 220.502V212.34H24.6896V224ZM34.7484 223.45C34.323 223.743 33.839 223.963 33.2964 224.11C32.7684 224.271 32.2404 224.352 31.7124 224.352C30.5097 224.337 29.6004 223.993 28.9844 223.318C28.3684 222.643 28.0604 221.653 28.0604 220.348V214.54H26.3224V212.34H28.0604V209.788L31.1844 209.414V212.34H33.8684L33.5604 214.54H31.1844V220.282C31.1844 220.839 31.2797 221.243 31.4704 221.492C31.661 221.741 31.9544 221.866 32.3504 221.866C32.7464 221.866 33.1864 221.734 33.6704 221.47L34.7484 223.45ZM40.6726 211.988C42.4179 211.988 43.7819 212.538 44.7646 213.638C45.7472 214.723 46.2386 216.234 46.2386 218.17C46.2386 219.402 46.0112 220.487 45.5566 221.426C45.1166 222.35 44.4712 223.069 43.6206 223.582C42.7846 224.095 41.7946 224.352 40.6506 224.352C38.9052 224.352 37.5339 223.809 36.5366 222.724C35.5539 221.624 35.0626 220.106 35.0626 218.17C35.0626 216.938 35.2826 215.86 35.7226 214.936C36.1772 213.997 36.8226 213.271 37.6586 212.758C38.5092 212.245 39.5139 211.988 40.6726 211.988ZM40.6726 214.32C39.8806 214.32 39.2866 214.635 38.8906 215.266C38.5092 215.882 38.3186 216.85 38.3186 218.17C38.3186 219.49 38.5092 220.465 38.8906 221.096C39.2866 221.712 39.8732 222.02 40.6506 222.02C41.4279 222.02 42.0072 221.712 42.3886 221.096C42.7846 220.465 42.9826 219.49 42.9826 218.17C42.9826 216.85 42.7919 215.882 42.4106 215.266C42.0292 214.635 41.4499 214.32 40.6726 214.32ZM61.2202 211.988C62.1442 211.988 62.8849 212.303 63.4422 212.934C64.0142 213.565 64.3002 214.423 64.3002 215.508V224H61.1762V216.036C61.1762 214.892 60.7949 214.32 60.0322 214.32C59.6216 214.32 59.2622 214.452 58.9542 214.716C58.6462 214.98 58.3309 215.391 58.0082 215.948V224H54.8842V216.036C54.8842 214.892 54.5029 214.32 53.7402 214.32C53.3296 214.32 52.9702 214.459 52.6622 214.738C52.3542 215.002 52.0462 215.405 51.7382 215.948V224H48.6142V212.34H51.3202L51.5622 213.792C52.0022 213.205 52.4936 212.758 53.0362 212.45C53.5936 212.142 54.2316 211.988 54.9502 211.988C55.6102 211.988 56.1822 212.157 56.6662 212.494C57.1502 212.817 57.5022 213.279 57.7222 213.88C58.2062 213.249 58.7269 212.78 59.2842 212.472C59.8562 212.149 60.5016 211.988 61.2202 211.988ZM76.1727 220.766C76.1727 221.221 76.2387 221.558 76.3707 221.778C76.5027 221.983 76.7227 222.137 77.0307 222.24L76.3707 224.308C75.6813 224.249 75.1167 224.088 74.6767 223.824C74.2513 223.56 73.9213 223.149 73.6867 222.592C72.924 223.765 71.758 224.352 70.1887 224.352C69.03 224.352 68.106 224.022 67.4167 223.362C66.742 222.687 66.4047 221.815 66.4047 220.744C66.4047 219.468 66.8667 218.493 67.7907 217.818C68.7147 217.143 70.042 216.806 71.7727 216.806H73.1147V216.234C73.1147 215.515 72.9533 215.017 72.6307 214.738C72.308 214.459 71.7727 214.32 71.0247 214.32C70.2033 214.32 69.1767 214.525 67.9447 214.936L67.2407 212.846C68.6927 212.274 70.13 211.988 71.5527 211.988C73.1367 211.988 74.3027 212.333 75.0507 213.022C75.7987 213.697 76.1727 214.709 76.1727 216.058V220.766ZM71.0467 222.108C71.9267 222.108 72.616 221.675 73.1147 220.81V218.588H72.0807C70.394 218.588 69.5507 219.219 69.5507 220.48C69.5507 220.993 69.6753 221.397 69.9247 221.69C70.1887 221.969 70.5627 222.108 71.0467 222.108ZM86.2679 223.45C85.8426 223.743 85.3586 223.963 84.8159 224.11C84.2879 224.271 83.7599 224.352 83.2319 224.352C82.0292 224.337 81.1199 223.993 80.5039 223.318C79.8879 222.643 79.5799 221.653 79.5799 220.348V214.54H77.8419V212.34H79.5799V209.788L82.7039 209.414V212.34H85.3879L85.0799 214.54H82.7039V220.282C82.7039 220.839 82.7992 221.243 82.9899 221.492C83.1806 221.741 83.4739 221.866 83.8699 221.866C84.2659 221.866 84.7059 221.734 85.1899 221.47L86.2679 223.45ZM97.1421 217.906C97.1421 218.053 97.1201 218.456 97.0761 219.116H89.7941C89.8968 220.172 90.1828 220.92 90.6521 221.36C91.1214 221.8 91.7594 222.02 92.5661 222.02C93.0648 222.02 93.5341 221.939 93.9741 221.778C94.4141 221.617 94.8908 221.36 95.4041 221.008L96.7021 222.768C95.3968 223.824 93.9228 224.352 92.2801 224.352C90.4468 224.352 89.0388 223.802 88.0561 222.702C87.0734 221.602 86.5821 220.113 86.5821 218.236C86.5821 217.048 86.7874 215.985 87.1981 215.046C87.6234 214.093 88.2321 213.345 89.0241 212.802C89.8308 212.259 90.7841 211.988 91.8841 211.988C93.5414 211.988 94.8321 212.509 95.7561 213.55C96.6801 214.591 97.1421 216.043 97.1421 217.906ZM94.0401 217.026C94.0401 215.09 93.3434 214.122 91.9501 214.122C91.3048 214.122 90.7988 214.364 90.4321 214.848C90.0801 215.317 89.8674 216.087 89.7941 217.158H94.0401V217.026ZM109.501 207.698V224H106.751L106.575 222.57C105.754 223.758 104.639 224.352 103.231 224.352C101.794 224.352 100.694 223.802 99.9313 222.702C99.1833 221.587 98.8093 220.077 98.8093 218.17C98.8093 216.967 98.9999 215.904 99.3813 214.98C99.7773 214.041 100.335 213.308 101.053 212.78C101.772 212.252 102.601 211.988 103.539 211.988C104.625 211.988 105.571 212.377 106.377 213.154V207.346L109.501 207.698ZM104.155 222.02C104.61 222.02 105.013 221.91 105.365 221.69C105.717 221.455 106.055 221.096 106.377 220.612V215.398C106.069 215.031 105.754 214.76 105.431 214.584C105.123 214.393 104.764 214.298 104.353 214.298C103.635 214.298 103.07 214.613 102.659 215.244C102.263 215.875 102.065 216.85 102.065 218.17C102.065 219.563 102.241 220.553 102.593 221.14C102.96 221.727 103.481 222.02 104.155 222.02ZM122.652 208.424C123.752 208.424 124.706 208.585 125.512 208.908C126.334 209.216 127.089 209.693 127.778 210.338L126.238 212.12C125.696 211.68 125.153 211.357 124.61 211.152C124.068 210.947 123.488 210.844 122.872 210.844C122.198 210.844 121.655 210.991 121.244 211.284C120.848 211.563 120.65 211.966 120.65 212.494C120.65 212.861 120.731 213.161 120.892 213.396C121.068 213.631 121.369 213.851 121.794 214.056C122.22 214.261 122.858 214.496 123.708 214.76C125.219 215.244 126.348 215.845 127.096 216.564C127.844 217.268 128.218 218.28 128.218 219.6C128.218 220.539 127.984 221.367 127.514 222.086C127.045 222.79 126.363 223.347 125.468 223.758C124.574 224.154 123.525 224.352 122.322 224.352C121.12 224.352 120.049 224.161 119.11 223.78C118.172 223.399 117.365 222.878 116.69 222.218L118.34 220.392C118.927 220.891 119.536 221.272 120.166 221.536C120.797 221.785 121.486 221.91 122.234 221.91C123.026 221.91 123.657 221.727 124.126 221.36C124.61 220.993 124.852 220.48 124.852 219.82C124.852 219.409 124.764 219.072 124.588 218.808C124.427 218.529 124.141 218.28 123.73 218.06C123.32 217.84 122.726 217.613 121.948 217.378C120.291 216.865 119.103 216.249 118.384 215.53C117.68 214.811 117.328 213.873 117.328 212.714C117.328 211.863 117.556 211.115 118.01 210.47C118.465 209.81 119.096 209.304 119.902 208.952C120.709 208.6 121.626 208.424 122.652 208.424ZM136.175 224.022C135.706 225.503 134.965 226.647 133.953 227.454C132.956 228.261 131.599 228.723 129.883 228.84L129.553 226.596C130.668 226.449 131.482 226.185 131.995 225.804C132.523 225.423 132.956 224.821 133.293 224H132.215L128.585 212.34H131.907L134.239 221.976L136.703 212.34H139.937L136.175 224.022ZM145.127 211.988C146.77 211.988 148.178 212.457 149.351 213.396L148.163 215.178C147.18 214.562 146.212 214.254 145.259 214.254C144.746 214.254 144.35 214.349 144.071 214.54C143.792 214.731 143.653 214.987 143.653 215.31C143.653 215.545 143.712 215.743 143.829 215.904C143.961 216.065 144.196 216.219 144.533 216.366C144.885 216.513 145.406 216.689 146.095 216.894C147.327 217.231 148.244 217.686 148.845 218.258C149.446 218.815 149.747 219.585 149.747 220.568C149.747 221.345 149.52 222.02 149.065 222.592C148.625 223.164 148.024 223.604 147.261 223.912C146.498 224.205 145.648 224.352 144.709 224.352C143.726 224.352 142.832 224.205 142.025 223.912C141.218 223.604 140.529 223.186 139.957 222.658L141.497 220.942C142.48 221.705 143.521 222.086 144.621 222.086C145.208 222.086 145.67 221.976 146.007 221.756C146.359 221.521 146.535 221.206 146.535 220.81C146.535 220.502 146.469 220.26 146.337 220.084C146.205 219.908 145.963 219.747 145.611 219.6C145.259 219.439 144.709 219.255 143.961 219.05C142.788 218.727 141.915 218.273 141.343 217.686C140.786 217.085 140.507 216.344 140.507 215.464C140.507 214.804 140.698 214.21 141.079 213.682C141.46 213.154 141.996 212.743 142.685 212.45C143.389 212.142 144.203 211.988 145.127 211.988ZM158.756 223.45C158.331 223.743 157.847 223.963 157.304 224.11C156.776 224.271 156.248 224.352 155.72 224.352C154.518 224.337 153.608 223.993 152.992 223.318C152.376 222.643 152.068 221.653 152.068 220.348V214.54H150.33V212.34H152.068V209.788L155.192 209.414V212.34H157.876L157.568 214.54H155.192V220.282C155.192 220.839 155.288 221.243 155.478 221.492C155.669 221.741 155.962 221.866 156.358 221.866C156.754 221.866 157.194 221.734 157.678 221.47L158.756 223.45ZM169.63 217.906C169.63 218.053 169.608 218.456 169.564 219.116H162.282C162.385 220.172 162.671 220.92 163.14 221.36C163.61 221.8 164.248 222.02 165.054 222.02C165.553 222.02 166.022 221.939 166.462 221.778C166.902 221.617 167.379 221.36 167.892 221.008L169.19 222.768C167.885 223.824 166.411 224.352 164.768 224.352C162.935 224.352 161.527 223.802 160.544 222.702C159.562 221.602 159.07 220.113 159.07 218.236C159.07 217.048 159.276 215.985 159.686 215.046C160.112 214.093 160.72 213.345 161.512 212.802C162.319 212.259 163.272 211.988 164.372 211.988C166.03 211.988 167.32 212.509 168.244 213.55C169.168 214.591 169.63 216.043 169.63 217.906ZM166.528 217.026C166.528 215.09 165.832 214.122 164.438 214.122C163.793 214.122 163.287 214.364 162.92 214.848C162.568 215.317 162.356 216.087 162.282 217.158H166.528V217.026ZM184.498 211.988C185.422 211.988 186.162 212.303 186.72 212.934C187.292 213.565 187.578 214.423 187.578 215.508V224H184.454V216.036C184.454 214.892 184.072 214.32 183.31 214.32C182.899 214.32 182.54 214.452 182.232 214.716C181.924 214.98 181.608 215.391 181.286 215.948V224H178.162V216.036C178.162 214.892 177.78 214.32 177.018 214.32C176.607 214.32 176.248 214.459 175.94 214.738C175.632 215.002 175.324 215.405 175.016 215.948V224H171.892V212.34H174.598L174.84 213.792C175.28 213.205 175.771 212.758 176.314 212.45C176.871 212.142 177.509 211.988 178.228 211.988C178.888 211.988 179.46 212.157 179.944 212.494C180.428 212.817 180.78 213.279 181 213.88C181.484 213.249 182.004 212.78 182.562 212.472C183.134 212.149 183.779 211.988 184.498 211.988Z" fill="#3D32CF"/>
<path d="M401.271 311.776L400.919 314.306H397.069V327H393.835V314.306H389.787V311.776H401.271ZM409.371 314.988C410.383 314.988 411.175 315.303 411.747 315.934C412.334 316.55 412.627 317.408 412.627 318.508V327H409.503V319.036C409.503 318.405 409.393 317.965 409.173 317.716C408.953 317.452 408.638 317.32 408.227 317.32C407.406 317.32 406.658 317.855 405.983 318.926V327H402.859V310.698L405.983 310.368V316.66C406.453 316.103 406.959 315.685 407.501 315.406C408.059 315.127 408.682 314.988 409.371 314.988ZM418.724 315.34V327H415.6V315.34H418.724ZM417.14 309.334C417.697 309.334 418.152 309.51 418.504 309.862C418.87 310.199 419.054 310.632 419.054 311.16C419.054 311.688 418.87 312.128 418.504 312.48C418.152 312.817 417.697 312.986 417.14 312.986C416.582 312.986 416.128 312.817 415.776 312.48C415.424 312.128 415.248 311.688 415.248 311.16C415.248 310.632 415.424 310.199 415.776 309.862C416.128 309.51 416.582 309.334 417.14 309.334ZM427.837 315.01C428.189 315.01 428.577 315.069 429.003 315.186L428.475 318.2C428.064 318.097 427.719 318.046 427.441 318.046C426.751 318.046 426.216 318.288 425.835 318.772C425.453 319.256 425.153 319.989 424.933 320.972V327H421.809V315.34H424.515L424.801 317.606C425.079 316.785 425.483 316.147 426.011 315.692C426.553 315.237 427.162 315.01 427.837 315.01ZM439.985 310.698V327H437.235L437.059 325.57C436.237 326.758 435.123 327.352 433.715 327.352C432.277 327.352 431.177 326.802 430.415 325.702C429.667 324.587 429.293 323.077 429.293 321.17C429.293 319.967 429.483 318.904 429.865 317.98C430.261 317.041 430.818 316.308 431.537 315.78C432.255 315.252 433.084 314.988 434.023 314.988C435.108 314.988 436.054 315.377 436.861 316.154V310.346L439.985 310.698ZM434.639 325.02C435.093 325.02 435.497 324.91 435.849 324.69C436.201 324.455 436.538 324.096 436.861 323.612V318.398C436.553 318.031 436.237 317.76 435.915 317.584C435.607 317.393 435.247 317.298 434.837 317.298C434.118 317.298 433.553 317.613 433.143 318.244C432.747 318.875 432.549 319.85 432.549 321.17C432.549 322.563 432.725 323.553 433.077 324.14C433.443 324.727 433.964 325.02 434.639 325.02ZM454.72 314.988C456.186 314.988 457.272 315.531 457.976 316.616C458.694 317.687 459.054 319.197 459.054 321.148C459.054 322.336 458.87 323.399 458.504 324.338C458.137 325.277 457.602 326.017 456.898 326.56C456.208 327.088 455.387 327.352 454.434 327.352C453.246 327.352 452.285 326.934 451.552 326.098V331.488L448.428 331.84V315.34H451.178L451.332 316.704C451.772 316.132 452.285 315.707 452.872 315.428C453.473 315.135 454.089 314.988 454.72 314.988ZM453.51 325.02C455.035 325.02 455.798 323.737 455.798 321.17C455.798 319.762 455.629 318.765 455.292 318.178C454.954 317.591 454.441 317.298 453.752 317.298C453.312 317.298 452.901 317.437 452.52 317.716C452.153 317.98 451.83 318.339 451.552 318.794V323.876C452.05 324.639 452.703 325.02 453.51 325.02ZM470.228 323.766C470.228 324.221 470.294 324.558 470.426 324.778C470.558 324.983 470.778 325.137 471.086 325.24L470.426 327.308C469.737 327.249 469.172 327.088 468.732 326.824C468.307 326.56 467.977 326.149 467.742 325.592C466.98 326.765 465.814 327.352 464.244 327.352C463.086 327.352 462.162 327.022 461.472 326.362C460.798 325.687 460.46 324.815 460.46 323.744C460.46 322.468 460.922 321.493 461.846 320.818C462.77 320.143 464.098 319.806 465.828 319.806H467.17V319.234C467.17 318.515 467.009 318.017 466.686 317.738C466.364 317.459 465.828 317.32 465.08 317.32C464.259 317.32 463.232 317.525 462 317.936L461.296 315.846C462.748 315.274 464.186 314.988 465.608 314.988C467.192 314.988 468.358 315.333 469.106 316.022C469.854 316.697 470.228 317.709 470.228 319.058V323.766ZM465.102 325.108C465.982 325.108 466.672 324.675 467.17 323.81V321.588H466.136C464.45 321.588 463.606 322.219 463.606 323.48C463.606 323.993 463.731 324.397 463.98 324.69C464.244 324.969 464.618 325.108 465.102 325.108ZM479.378 315.01C479.73 315.01 480.118 315.069 480.544 315.186L480.016 318.2C479.605 318.097 479.26 318.046 478.982 318.046C478.292 318.046 477.757 318.288 477.376 318.772C476.994 319.256 476.694 319.989 476.474 320.972V327H473.35V315.34H476.056L476.342 317.606C476.62 316.785 477.024 316.147 477.552 315.692C478.094 315.237 478.703 315.01 479.378 315.01ZM489.068 326.45C488.642 326.743 488.158 326.963 487.616 327.11C487.088 327.271 486.56 327.352 486.032 327.352C484.829 327.337 483.92 326.993 483.304 326.318C482.688 325.643 482.38 324.653 482.38 323.348V317.54H480.642V315.34H482.38V312.788L485.504 312.414V315.34H488.188L487.88 317.54H485.504V323.282C485.504 323.839 485.599 324.243 485.79 324.492C485.98 324.741 486.274 324.866 486.67 324.866C487.066 324.866 487.506 324.734 487.99 324.47L489.068 326.45ZM496.35 327.022C495.88 328.503 495.14 329.647 494.128 330.454C493.13 331.261 491.774 331.723 490.058 331.84L489.728 329.596C490.842 329.449 491.656 329.185 492.17 328.804C492.698 328.423 493.13 327.821 493.468 327H492.39L488.76 315.34H492.082L494.414 324.976L496.878 315.34H500.112L496.35 327.022ZM368.272 337.776V353H365.038V337.776H368.272ZM377.95 340.988C378.977 340.988 379.776 341.303 380.348 341.934C380.92 342.55 381.206 343.408 381.206 344.508V353H378.082V345.036C378.082 344.405 377.972 343.965 377.752 343.716C377.547 343.452 377.232 343.32 376.806 343.32C376.366 343.32 375.963 343.459 375.596 343.738C375.244 344.002 374.9 344.405 374.562 344.948V353H371.438V341.34H374.144L374.386 342.814C374.87 342.213 375.398 341.758 375.97 341.45C376.557 341.142 377.217 340.988 377.95 340.988ZM391.153 352.45C390.727 352.743 390.243 352.963 389.701 353.11C389.173 353.271 388.645 353.352 388.117 353.352C386.914 353.337 386.005 352.993 385.389 352.318C384.773 351.643 384.465 350.653 384.465 349.348V343.54H382.727V341.34H384.465V338.788L387.589 338.414V341.34H390.273L389.965 343.54H387.589V349.282C387.589 349.839 387.684 350.243 387.875 350.492C388.065 350.741 388.359 350.866 388.755 350.866C389.151 350.866 389.591 350.734 390.075 350.47L391.153 352.45ZM402.027 346.906C402.027 347.053 402.005 347.456 401.961 348.116H394.679C394.782 349.172 395.068 349.92 395.537 350.36C396.006 350.8 396.644 351.02 397.451 351.02C397.95 351.02 398.419 350.939 398.859 350.778C399.299 350.617 399.776 350.36 400.289 350.008L401.587 351.768C400.282 352.824 398.808 353.352 397.165 353.352C395.332 353.352 393.924 352.802 392.941 351.702C391.958 350.602 391.467 349.113 391.467 347.236C391.467 346.048 391.672 344.985 392.083 344.046C392.508 343.093 393.117 342.345 393.909 341.802C394.716 341.259 395.669 340.988 396.769 340.988C398.426 340.988 399.717 341.509 400.641 342.55C401.565 343.591 402.027 345.043 402.027 346.906ZM398.925 346.026C398.925 344.09 398.228 343.122 396.835 343.122C396.19 343.122 395.684 343.364 395.317 343.848C394.965 344.317 394.752 345.087 394.679 346.158H398.925V346.026ZM410.316 341.01C410.668 341.01 411.057 341.069 411.482 341.186L410.954 344.2C410.543 344.097 410.199 344.046 409.92 344.046C409.231 344.046 408.695 344.288 408.314 344.772C407.933 345.256 407.632 345.989 407.412 346.972V353H404.288V341.34H406.994L407.28 343.606C407.559 342.785 407.962 342.147 408.49 341.692C409.033 341.237 409.641 341.01 410.316 341.01ZM419.544 340.988C420.571 340.988 421.37 341.303 421.942 341.934C422.514 342.55 422.8 343.408 422.8 344.508V353H419.676V345.036C419.676 344.405 419.566 343.965 419.346 343.716C419.141 343.452 418.826 343.32 418.4 343.32C417.96 343.32 417.557 343.459 417.19 343.738C416.838 344.002 416.494 344.405 416.156 344.948V353H413.032V341.34H415.738L415.98 342.814C416.464 342.213 416.992 341.758 417.564 341.45C418.151 341.142 418.811 340.988 419.544 340.988ZM435.628 346.906C435.628 347.053 435.606 347.456 435.562 348.116H428.28C428.383 349.172 428.669 349.92 429.138 350.36C429.608 350.8 430.246 351.02 431.052 351.02C431.551 351.02 432.02 350.939 432.46 350.778C432.9 350.617 433.377 350.36 433.89 350.008L435.188 351.768C433.883 352.824 432.409 353.352 430.766 353.352C428.933 353.352 427.525 352.802 426.542 351.702C425.56 350.602 425.068 349.113 425.068 347.236C425.068 346.048 425.274 344.985 425.684 344.046C426.11 343.093 426.718 342.345 427.51 341.802C428.317 341.259 429.27 340.988 430.37 340.988C432.028 340.988 433.318 341.509 434.242 342.55C435.166 343.591 435.628 345.043 435.628 346.906ZM432.526 346.026C432.526 344.09 431.83 343.122 430.436 343.122C429.791 343.122 429.285 343.364 428.918 343.848C428.566 344.317 428.354 345.087 428.28 346.158H432.526V346.026ZM444.864 352.45C444.438 352.743 443.954 352.963 443.412 353.11C442.884 353.271 442.356 353.352 441.828 353.352C440.625 353.337 439.716 352.993 439.1 352.318C438.484 351.643 438.176 350.653 438.176 349.348V343.54H436.438V341.34H438.176V338.788L441.3 338.414V341.34H443.984L443.676 343.54H441.3V349.282C441.3 349.839 441.395 350.243 441.586 350.492C441.776 350.741 442.07 350.866 442.466 350.866C442.862 350.866 443.302 350.734 443.786 350.47L444.864 352.45ZM455.49 340.988C457.133 340.988 458.541 341.457 459.714 342.396L458.526 344.178C457.543 343.562 456.575 343.254 455.622 343.254C455.109 343.254 454.713 343.349 454.434 343.54C454.155 343.731 454.016 343.987 454.016 344.31C454.016 344.545 454.075 344.743 454.192 344.904C454.324 345.065 454.559 345.219 454.896 345.366C455.248 345.513 455.769 345.689 456.458 345.894C457.69 346.231 458.607 346.686 459.208 347.258C459.809 347.815 460.11 348.585 460.11 349.568C460.11 350.345 459.883 351.02 459.428 351.592C458.988 352.164 458.387 352.604 457.624 352.912C456.861 353.205 456.011 353.352 455.072 353.352C454.089 353.352 453.195 353.205 452.388 352.912C451.581 352.604 450.892 352.186 450.32 351.658L451.86 349.942C452.843 350.705 453.884 351.086 454.984 351.086C455.571 351.086 456.033 350.976 456.37 350.756C456.722 350.521 456.898 350.206 456.898 349.81C456.898 349.502 456.832 349.26 456.7 349.084C456.568 348.908 456.326 348.747 455.974 348.6C455.622 348.439 455.072 348.255 454.324 348.05C453.151 347.727 452.278 347.273 451.706 346.686C451.149 346.085 450.87 345.344 450.87 344.464C450.87 343.804 451.061 343.21 451.442 342.682C451.823 342.154 452.359 341.743 453.048 341.45C453.752 341.142 454.566 340.988 455.49 340.988ZM472.001 346.906C472.001 347.053 471.979 347.456 471.935 348.116H464.653C464.756 349.172 465.042 349.92 465.511 350.36C465.981 350.8 466.619 351.02 467.425 351.02C467.924 351.02 468.393 350.939 468.833 350.778C469.273 350.617 469.75 350.36 470.263 350.008L471.561 351.768C470.256 352.824 468.782 353.352 467.139 353.352C465.306 353.352 463.898 352.802 462.915 351.702C461.933 350.602 461.441 349.113 461.441 347.236C461.441 346.048 461.647 344.985 462.057 344.046C462.483 343.093 463.091 342.345 463.883 341.802C464.69 341.259 465.643 340.988 466.743 340.988C468.401 340.988 469.691 341.509 470.615 342.55C471.539 343.591 472.001 345.043 472.001 346.906ZM468.899 346.026C468.899 344.09 468.203 343.122 466.809 343.122C466.164 343.122 465.658 343.364 465.291 343.848C464.939 344.317 464.727 345.087 464.653 346.158H468.899V346.026ZM480.291 341.01C480.643 341.01 481.031 341.069 481.457 341.186L480.929 344.2C480.518 344.097 480.173 344.046 479.895 344.046C479.205 344.046 478.67 344.288 478.289 344.772C477.907 345.256 477.607 345.989 477.387 346.972V353H474.263V341.34H476.969L477.255 343.606C477.533 342.785 477.937 342.147 478.465 341.692C479.007 341.237 479.616 341.01 480.291 341.01ZM492.687 341.34L488.947 353H485.229L481.423 341.34H484.811L487.121 350.558L489.475 341.34H492.687ZM497.303 341.34V353H494.179V341.34H497.303ZM495.719 335.334C496.276 335.334 496.731 335.51 497.083 335.862C497.449 336.199 497.633 336.632 497.633 337.16C497.633 337.688 497.449 338.128 497.083 338.48C496.731 338.817 496.276 338.986 495.719 338.986C495.161 338.986 494.707 338.817 494.355 338.48C494.003 338.128 493.827 337.688 493.827 337.16C493.827 336.632 494.003 336.199 494.355 335.862C494.707 335.51 495.161 335.334 495.719 335.334ZM505.25 340.988C506.027 340.988 506.724 341.105 507.34 341.34C507.97 341.56 508.564 341.912 509.122 342.396L507.758 344.244C507.376 343.951 507.002 343.738 506.636 343.606C506.284 343.474 505.895 343.408 505.47 343.408C503.812 343.408 502.984 344.684 502.984 347.236C502.984 348.527 503.196 349.451 503.622 350.008C504.047 350.565 504.656 350.844 505.448 350.844C505.858 350.844 506.232 350.785 506.57 350.668C506.907 350.536 507.303 350.323 507.758 350.03L509.122 351.988C508.007 352.897 506.731 353.352 505.294 353.352C504.15 353.352 503.152 353.103 502.302 352.604C501.466 352.105 500.82 351.401 500.366 350.492C499.911 349.568 499.684 348.49 499.684 347.258C499.684 346.026 499.911 344.941 500.366 344.002C500.82 343.049 501.466 342.308 502.302 341.78C503.152 341.252 504.135 340.988 505.25 340.988ZM520.32 346.906C520.32 347.053 520.298 347.456 520.254 348.116H512.972C513.074 349.172 513.36 349.92 513.83 350.36C514.299 350.8 514.937 351.02 515.744 351.02C516.242 351.02 516.712 350.939 517.152 350.778C517.592 350.617 518.068 350.36 518.582 350.008L519.88 351.768C518.574 352.824 517.1 353.352 515.458 353.352C513.624 353.352 512.216 352.802 511.234 351.702C510.251 350.602 509.76 349.113 509.76 347.236C509.76 346.048 509.965 344.985 510.376 344.046C510.801 343.093 511.41 342.345 512.202 341.802C513.008 341.259 513.962 340.988 515.062 340.988C516.719 340.988 518.01 341.509 518.934 342.55C519.858 343.591 520.32 345.043 520.32 346.906ZM517.218 346.026C517.218 344.09 516.521 343.122 515.128 343.122C514.482 343.122 513.976 343.364 513.61 343.848C513.258 344.317 513.045 345.087 512.972 346.158H517.218V346.026ZM526.453 340.988C528.096 340.988 529.504 341.457 530.677 342.396L529.489 344.178C528.506 343.562 527.538 343.254 526.585 343.254C526.072 343.254 525.676 343.349 525.397 343.54C525.118 343.731 524.979 343.987 524.979 344.31C524.979 344.545 525.038 344.743 525.155 344.904C525.287 345.065 525.522 345.219 525.859 345.366C526.211 345.513 526.732 345.689 527.421 345.894C528.653 346.231 529.57 346.686 530.171 347.258C530.772 347.815 531.073 348.585 531.073 349.568C531.073 350.345 530.846 351.02 530.391 351.592C529.951 352.164 529.35 352.604 528.587 352.912C527.824 353.205 526.974 353.352 526.035 353.352C525.052 353.352 524.158 353.205 523.351 352.912C522.544 352.604 521.855 352.186 521.283 351.658L522.823 349.942C523.806 350.705 524.847 351.086 525.947 351.086C526.534 351.086 526.996 350.976 527.333 350.756C527.685 350.521 527.861 350.206 527.861 349.81C527.861 349.502 527.795 349.26 527.663 349.084C527.531 348.908 527.289 348.747 526.937 348.6C526.585 348.439 526.035 348.255 525.287 348.05C524.114 347.727 523.241 347.273 522.669 346.686C522.112 346.085 521.833 345.344 521.833 344.464C521.833 343.804 522.024 343.21 522.405 342.682C522.786 342.154 523.322 341.743 524.011 341.45C524.715 341.142 525.529 340.988 526.453 340.988Z" fill="#3D32CF"/>
<path d="M651.658 381L650.8 377.59H646.026L645.168 381H641.802L646.488 365.776H650.426L655.09 381H651.658ZM646.642 375.192H650.184L648.402 368.174L646.642 375.192ZM661.205 365.776C663.185 365.776 664.717 366.187 665.803 367.008C666.903 367.829 667.453 369.054 667.453 370.682C667.453 372.383 666.91 373.667 665.825 374.532C664.739 375.383 663.287 375.808 661.469 375.808H659.731V381H656.497V365.776H661.205ZM661.205 373.432C662.143 373.432 662.862 373.219 663.361 372.794C663.859 372.369 664.109 371.665 664.109 370.682C664.109 368.966 663.126 368.108 661.161 368.108H659.731V373.432H661.205ZM675.587 365.424C676.54 365.424 677.369 365.563 678.073 365.842C678.777 366.106 679.466 366.517 680.141 367.074L678.535 368.944C677.655 368.225 676.731 367.866 675.763 367.866C674.677 367.866 673.812 368.313 673.167 369.208C672.536 370.088 672.221 371.474 672.221 373.366C672.221 375.214 672.536 376.585 673.167 377.48C673.812 378.36 674.685 378.8 675.785 378.8C676.357 378.8 676.877 378.697 677.347 378.492C677.816 378.272 678.307 377.964 678.821 377.568L680.317 379.438C679.774 379.995 679.099 380.457 678.293 380.824C677.501 381.176 676.621 381.352 675.653 381.352C674.289 381.352 673.093 381.044 672.067 380.428C671.04 379.812 670.241 378.91 669.669 377.722C669.097 376.519 668.811 375.067 668.811 373.366C668.811 371.709 669.104 370.286 669.691 369.098C670.277 367.895 671.084 366.986 672.111 366.37C673.137 365.739 674.296 365.424 675.587 365.424ZM686.576 365.424C687.676 365.424 688.629 365.585 689.436 365.908C690.257 366.216 691.013 366.693 691.702 367.338L690.162 369.12C689.619 368.68 689.077 368.357 688.534 368.152C687.991 367.947 687.412 367.844 686.796 367.844C686.121 367.844 685.579 367.991 685.168 368.284C684.772 368.563 684.574 368.966 684.574 369.494C684.574 369.861 684.655 370.161 684.816 370.396C684.992 370.631 685.293 370.851 685.718 371.056C686.143 371.261 686.781 371.496 687.632 371.76C689.143 372.244 690.272 372.845 691.02 373.564C691.768 374.268 692.142 375.28 692.142 376.6C692.142 377.539 691.907 378.367 691.438 379.086C690.969 379.79 690.287 380.347 689.392 380.758C688.497 381.154 687.449 381.352 686.246 381.352C685.043 381.352 683.973 381.161 683.034 380.78C682.095 380.399 681.289 379.878 680.614 379.218L682.264 377.392C682.851 377.891 683.459 378.272 684.09 378.536C684.721 378.785 685.41 378.91 686.158 378.91C686.95 378.91 687.581 378.727 688.05 378.36C688.534 377.993 688.776 377.48 688.776 376.82C688.776 376.409 688.688 376.072 688.512 375.808C688.351 375.529 688.065 375.28 687.654 375.06C687.243 374.84 686.649 374.613 685.872 374.378C684.215 373.865 683.027 373.249 682.308 372.53C681.604 371.811 681.252 370.873 681.252 369.714C681.252 368.863 681.479 368.115 681.934 367.47C682.389 366.81 683.019 366.304 683.826 365.952C684.633 365.6 685.549 365.424 686.576 365.424Z" fill="#3D32CF"/>
<path d="M839.42 331.776L839.068 334.13H833.568V338.09H838.364V340.422H833.568V344.624H839.464V347H830.334V331.776H839.42ZM851.559 335.34V351.84L848.435 351.488V345.812C847.628 346.839 846.58 347.352 845.289 347.352C843.852 347.352 842.752 346.802 841.989 345.702C841.241 344.587 840.867 343.077 840.867 341.17C840.867 339.967 841.058 338.904 841.439 337.98C841.835 337.041 842.385 336.308 843.089 335.78C843.808 335.252 844.644 334.988 845.597 334.988C846.785 334.988 847.812 335.465 848.677 336.418L848.853 335.34H851.559ZM846.213 345.02C846.668 345.02 847.071 344.91 847.423 344.69C847.775 344.455 848.112 344.096 848.435 343.612V338.398C848.127 338.031 847.819 337.76 847.511 337.584C847.203 337.393 846.844 337.298 846.433 337.298C845.714 337.298 845.15 337.613 844.739 338.244C844.328 338.875 844.123 339.85 844.123 341.17C844.123 342.563 844.299 343.553 844.651 344.14C845.018 344.727 845.538 345.02 846.213 345.02ZM864.179 347H861.473L861.319 345.438C860.908 346.083 860.409 346.567 859.823 346.89C859.236 347.198 858.554 347.352 857.777 347.352C856.721 347.352 855.914 347.037 855.357 346.406C854.799 345.761 854.521 344.866 854.521 343.722V335.34H857.645V343.326C857.645 343.942 857.747 344.382 857.953 344.646C858.158 344.895 858.481 345.02 858.921 345.02C859.757 345.02 860.468 344.514 861.055 343.502V335.34H864.179V347ZM870.388 335.34V347H867.264V335.34H870.388ZM868.804 329.334C869.361 329.334 869.816 329.51 870.168 329.862C870.534 330.199 870.718 330.632 870.718 331.16C870.718 331.688 870.534 332.128 870.168 332.48C869.816 332.817 869.361 332.986 868.804 332.986C868.246 332.986 867.792 332.817 867.44 332.48C867.088 332.128 866.912 331.688 866.912 331.16C866.912 330.632 867.088 330.199 867.44 329.862C867.792 329.51 868.246 329.334 868.804 329.334ZM879.765 334.988C881.231 334.988 882.317 335.531 883.021 336.616C883.739 337.687 884.099 339.197 884.099 341.148C884.099 342.336 883.915 343.399 883.549 344.338C883.182 345.277 882.647 346.017 881.943 346.56C881.253 347.088 880.432 347.352 879.479 347.352C878.291 347.352 877.33 346.934 876.597 346.098V351.488L873.473 351.84V335.34H876.223L876.377 336.704C876.817 336.132 877.33 335.707 877.917 335.428C878.518 335.135 879.134 334.988 879.765 334.988ZM878.555 345.02C880.08 345.02 880.843 343.737 880.843 341.17C880.843 339.762 880.674 338.765 880.337 338.178C879.999 337.591 879.486 337.298 878.797 337.298C878.357 337.298 877.946 337.437 877.565 337.716C877.198 337.98 876.875 338.339 876.597 338.794V343.876C877.095 344.639 877.748 345.02 878.555 345.02ZM899.184 334.988C900.108 334.988 900.849 335.303 901.406 335.934C901.978 336.565 902.264 337.423 902.264 338.508V347H899.14V339.036C899.14 337.892 898.759 337.32 897.996 337.32C897.585 337.32 897.226 337.452 896.918 337.716C896.61 337.98 896.295 338.391 895.972 338.948V347H892.848V339.036C892.848 337.892 892.467 337.32 891.704 337.32C891.293 337.32 890.934 337.459 890.626 337.738C890.318 338.002 890.01 338.405 889.702 338.948V347H886.578V335.34H889.284L889.526 336.792C889.966 336.205 890.457 335.758 891 335.45C891.557 335.142 892.195 334.988 892.914 334.988C893.574 334.988 894.146 335.157 894.63 335.494C895.114 335.817 895.466 336.279 895.686 336.88C896.17 336.249 896.691 335.78 897.248 335.472C897.82 335.149 898.465 334.988 899.184 334.988ZM915.083 340.906C915.083 341.053 915.061 341.456 915.017 342.116H907.735C907.837 343.172 908.123 343.92 908.593 344.36C909.062 344.8 909.7 345.02 910.507 345.02C911.005 345.02 911.475 344.939 911.915 344.778C912.355 344.617 912.831 344.36 913.345 344.008L914.643 345.768C913.337 346.824 911.863 347.352 910.221 347.352C908.387 347.352 906.979 346.802 905.997 345.702C905.014 344.602 904.523 343.113 904.523 341.236C904.523 340.048 904.728 338.985 905.139 338.046C905.564 337.093 906.173 336.345 906.965 335.802C907.771 335.259 908.725 334.988 909.825 334.988C911.482 334.988 912.773 335.509 913.697 336.55C914.621 337.591 915.083 339.043 915.083 340.906ZM911.981 340.026C911.981 338.09 911.284 337.122 909.891 337.122C909.245 337.122 908.739 337.364 908.373 337.848C908.021 338.317 907.808 339.087 907.735 340.158H911.981V340.026ZM923.856 334.988C924.882 334.988 925.682 335.303 926.254 335.934C926.826 336.55 927.112 337.408 927.112 338.508V347H923.988V339.036C923.988 338.405 923.878 337.965 923.658 337.716C923.452 337.452 923.137 337.32 922.712 337.32C922.272 337.32 921.868 337.459 921.502 337.738C921.15 338.002 920.805 338.405 920.468 338.948V347H917.344V335.34H920.05L920.292 336.814C920.776 336.213 921.304 335.758 921.876 335.45C922.462 335.142 923.122 334.988 923.856 334.988ZM937.058 346.45C936.633 346.743 936.149 346.963 935.606 347.11C935.078 347.271 934.55 347.352 934.022 347.352C932.819 347.337 931.91 346.993 931.294 346.318C930.678 345.643 930.37 344.653 930.37 343.348V337.54H928.632V335.34H930.37V332.788L933.494 332.414V335.34H936.178L935.87 337.54H933.494V343.282C933.494 343.839 933.589 344.243 933.78 344.492C933.971 344.741 934.264 344.866 934.66 344.866C935.056 344.866 935.496 344.734 935.98 344.47L937.058 346.45ZM802.847 373H799.679L799.349 366.818C799.246 364.97 799.195 363.401 799.195 362.11C799.195 361.421 799.202 360.922 799.217 360.614L796.643 371.372H793.585L790.835 360.592C790.893 361.487 790.923 362.491 790.923 363.606C790.923 364.794 790.893 365.887 790.835 366.884L790.505 373H787.359L788.547 357.776H792.661L795.169 368.27L797.523 357.776H801.681L802.847 373ZM810.176 360.988C811.922 360.988 813.286 361.538 814.268 362.638C815.251 363.723 815.742 365.234 815.742 367.17C815.742 368.402 815.515 369.487 815.06 370.426C814.62 371.35 813.975 372.069 813.124 372.582C812.288 373.095 811.298 373.352 810.154 373.352C808.409 373.352 807.038 372.809 806.04 371.724C805.058 370.624 804.566 369.106 804.566 367.17C804.566 365.938 804.786 364.86 805.226 363.936C805.681 362.997 806.326 362.271 807.162 361.758C808.013 361.245 809.018 360.988 810.176 360.988ZM810.176 363.32C809.384 363.32 808.79 363.635 808.394 364.266C808.013 364.882 807.822 365.85 807.822 367.17C807.822 368.49 808.013 369.465 808.394 370.096C808.79 370.712 809.377 371.02 810.154 371.02C810.932 371.02 811.511 370.712 811.892 370.096C812.288 369.465 812.486 368.49 812.486 367.17C812.486 365.85 812.296 364.882 811.914 364.266C811.533 363.635 810.954 363.32 810.176 363.32ZM824.63 360.988C825.657 360.988 826.456 361.303 827.028 361.934C827.6 362.55 827.886 363.408 827.886 364.508V373H824.762V365.036C824.762 364.405 824.652 363.965 824.432 363.716C824.227 363.452 823.911 363.32 823.486 363.32C823.046 363.32 822.643 363.459 822.276 363.738C821.924 364.002 821.579 364.405 821.242 364.948V373H818.118V361.34H820.824L821.066 362.814C821.55 362.213 822.078 361.758 822.65 361.45C823.237 361.142 823.897 360.988 824.63 360.988ZM833.982 361.34V373H830.858V361.34H833.982ZM832.398 355.334C832.956 355.334 833.41 355.51 833.762 355.862C834.129 356.199 834.312 356.632 834.312 357.16C834.312 357.688 834.129 358.128 833.762 358.48C833.41 358.817 832.956 358.986 832.398 358.986C831.841 358.986 831.386 358.817 831.034 358.48C830.682 358.128 830.506 357.688 830.506 357.16C830.506 356.632 830.682 356.199 831.034 355.862C831.386 355.51 831.841 355.334 832.398 355.334ZM844.041 372.45C843.616 372.743 843.132 372.963 842.589 373.11C842.061 373.271 841.533 373.352 841.005 373.352C839.803 373.337 838.893 372.993 838.277 372.318C837.661 371.643 837.353 370.653 837.353 369.348V363.54H835.615V361.34H837.353V358.788L840.477 358.414V361.34H843.161L842.853 363.54H840.477V369.282C840.477 369.839 840.573 370.243 840.763 370.492C840.954 370.741 841.247 370.866 841.643 370.866C842.039 370.866 842.479 370.734 842.963 370.47L844.041 372.45ZM849.966 360.988C851.711 360.988 853.075 361.538 854.058 362.638C855.04 363.723 855.532 365.234 855.532 367.17C855.532 368.402 855.304 369.487 854.85 370.426C854.41 371.35 853.764 372.069 852.914 372.582C852.078 373.095 851.088 373.352 849.944 373.352C848.198 373.352 846.827 372.809 845.83 371.724C844.847 370.624 844.356 369.106 844.356 367.17C844.356 365.938 844.576 364.86 845.016 363.936C845.47 362.997 846.116 362.271 846.952 361.758C847.802 361.245 848.807 360.988 849.966 360.988ZM849.966 363.32C849.174 363.32 848.58 363.635 848.184 364.266C847.802 364.882 847.612 365.85 847.612 367.17C847.612 368.49 847.802 369.465 848.184 370.096C848.58 370.712 849.166 371.02 849.944 371.02C850.721 371.02 851.3 370.712 851.682 370.096C852.078 369.465 852.276 368.49 852.276 367.17C852.276 365.85 852.085 364.882 851.704 364.266C851.322 363.635 850.743 363.32 849.966 363.32ZM863.935 361.01C864.287 361.01 864.676 361.069 865.101 361.186L864.573 364.2C864.163 364.097 863.818 364.046 863.539 364.046C862.85 364.046 862.315 364.288 861.933 364.772C861.552 365.256 861.251 365.989 861.031 366.972V373H857.907V361.34H860.613L860.899 363.606C861.178 362.785 861.581 362.147 862.109 361.692C862.652 361.237 863.261 361.01 863.935 361.01ZM869.775 361.34V373H866.651V361.34H869.775ZM868.191 355.334C868.749 355.334 869.203 355.51 869.555 355.862C869.922 356.199 870.105 356.632 870.105 357.16C870.105 357.688 869.922 358.128 869.555 358.48C869.203 358.817 868.749 358.986 868.191 358.986C867.634 358.986 867.179 358.817 866.827 358.48C866.475 358.128 866.299 357.688 866.299 357.16C866.299 356.632 866.475 356.199 866.827 355.862C867.179 355.51 867.634 355.334 868.191 355.334ZM879.372 360.988C880.399 360.988 881.198 361.303 881.77 361.934C882.342 362.55 882.628 363.408 882.628 364.508V373H879.504V365.036C879.504 364.405 879.394 363.965 879.174 363.716C878.969 363.452 878.654 363.32 878.228 363.32C877.788 363.32 877.385 363.459 877.018 363.738C876.666 364.002 876.322 364.405 875.984 364.948V373H872.86V361.34H875.566L875.808 362.814C876.292 362.213 876.82 361.758 877.392 361.45C877.979 361.142 878.639 360.988 879.372 360.988ZM896.029 361.978C895.266 362.271 894.144 362.418 892.663 362.418C893.396 362.741 893.939 363.144 894.291 363.628C894.643 364.097 894.819 364.691 894.819 365.41C894.819 366.158 894.621 366.833 894.225 367.434C893.843 368.021 893.286 368.483 892.553 368.82C891.834 369.157 890.991 369.326 890.023 369.326C889.509 369.326 889.055 369.275 888.659 369.172C888.365 369.363 888.219 369.619 888.219 369.942C888.219 370.177 888.307 370.367 888.483 370.514C888.673 370.646 889.033 370.712 889.561 370.712H891.343C892.208 370.712 892.963 370.859 893.609 371.152C894.269 371.431 894.775 371.827 895.127 372.34C895.493 372.839 895.677 373.411 895.677 374.056C895.677 375.244 895.163 376.168 894.137 376.828C893.125 377.503 891.658 377.84 889.737 377.84C888.358 377.84 887.265 377.693 886.459 377.4C885.667 377.121 885.109 376.711 884.787 376.168C884.464 375.625 884.303 374.943 884.303 374.122H887.097C887.097 374.503 887.17 374.804 887.317 375.024C887.463 375.259 887.727 375.427 888.109 375.53C888.505 375.647 889.069 375.706 889.803 375.706C890.815 375.706 891.519 375.581 891.915 375.332C892.325 375.083 892.531 374.731 892.531 374.276C892.531 373.865 892.377 373.55 892.069 373.33C891.761 373.11 891.306 373 890.705 373H888.989C887.83 373 886.965 372.787 886.393 372.362C885.821 371.922 885.535 371.372 885.535 370.712C885.535 370.301 885.652 369.905 885.887 369.524C886.136 369.128 886.473 368.798 886.899 368.534C886.18 368.138 885.652 367.676 885.315 367.148C884.992 366.605 884.831 365.96 884.831 365.212C884.831 364.361 885.036 363.621 885.447 362.99C885.872 362.345 886.459 361.853 887.207 361.516C887.969 361.164 888.835 360.988 889.803 360.988C891.005 361.017 891.995 360.915 892.773 360.68C893.55 360.445 894.379 360.079 895.259 359.58L896.029 361.978ZM889.869 363.078C889.282 363.078 888.813 363.269 888.461 363.65C888.123 364.017 887.955 364.523 887.955 365.168C887.955 365.828 888.123 366.349 888.461 366.73C888.813 367.111 889.289 367.302 889.891 367.302C890.521 367.302 890.998 367.119 891.321 366.752C891.643 366.385 891.805 365.843 891.805 365.124C891.805 363.76 891.159 363.078 889.869 363.078ZM907.646 357.424C908.746 357.424 909.7 357.585 910.506 357.908C911.328 358.216 912.083 358.693 912.772 359.338L911.232 361.12C910.69 360.68 910.147 360.357 909.604 360.152C909.062 359.947 908.482 359.844 907.866 359.844C907.192 359.844 906.649 359.991 906.238 360.284C905.842 360.563 905.644 360.966 905.644 361.494C905.644 361.861 905.725 362.161 905.886 362.396C906.062 362.631 906.363 362.851 906.788 363.056C907.214 363.261 907.852 363.496 908.702 363.76C910.213 364.244 911.342 364.845 912.09 365.564C912.838 366.268 913.212 367.28 913.212 368.6C913.212 369.539 912.978 370.367 912.508 371.086C912.039 371.79 911.357 372.347 910.462 372.758C909.568 373.154 908.519 373.352 907.316 373.352C906.114 373.352 905.043 373.161 904.104 372.78C903.166 372.399 902.359 371.878 901.684 371.218L903.334 369.392C903.921 369.891 904.53 370.272 905.16 370.536C905.791 370.785 906.48 370.91 907.228 370.91C908.02 370.91 908.651 370.727 909.12 370.36C909.604 369.993 909.846 369.48 909.846 368.82C909.846 368.409 909.758 368.072 909.582 367.808C909.421 367.529 909.135 367.28 908.724 367.06C908.314 366.84 907.72 366.613 906.942 366.378C905.285 365.865 904.097 365.249 903.378 364.53C902.674 363.811 902.322 362.873 902.322 361.714C902.322 360.863 902.55 360.115 903.004 359.47C903.459 358.81 904.09 358.304 904.896 357.952C905.703 357.6 906.62 357.424 907.646 357.424ZM921.169 373.022C920.7 374.503 919.959 375.647 918.947 376.454C917.95 377.261 916.593 377.723 914.877 377.84L914.547 375.596C915.662 375.449 916.476 375.185 916.989 374.804C917.517 374.423 917.95 373.821 918.287 373H917.209L913.579 361.34H916.901L919.233 370.976L921.697 361.34H924.931L921.169 373.022ZM930.121 360.988C931.764 360.988 933.172 361.457 934.345 362.396L933.157 364.178C932.174 363.562 931.206 363.254 930.253 363.254C929.74 363.254 929.344 363.349 929.065 363.54C928.786 363.731 928.647 363.987 928.647 364.31C928.647 364.545 928.706 364.743 928.823 364.904C928.955 365.065 929.19 365.219 929.527 365.366C929.879 365.513 930.4 365.689 931.089 365.894C932.321 366.231 933.238 366.686 933.839 367.258C934.44 367.815 934.741 368.585 934.741 369.568C934.741 370.345 934.514 371.02 934.059 371.592C933.619 372.164 933.018 372.604 932.255 372.912C931.492 373.205 930.642 373.352 929.703 373.352C928.72 373.352 927.826 373.205 927.019 372.912C926.212 372.604 925.523 372.186 924.951 371.658L926.491 369.942C927.474 370.705 928.515 371.086 929.615 371.086C930.202 371.086 930.664 370.976 931.001 370.756C931.353 370.521 931.529 370.206 931.529 369.81C931.529 369.502 931.463 369.26 931.331 369.084C931.199 368.908 930.957 368.747 930.605 368.6C930.253 368.439 929.703 368.255 928.955 368.05C927.782 367.727 926.909 367.273 926.337 366.686C925.78 366.085 925.501 365.344 925.501 364.464C925.501 363.804 925.692 363.21 926.073 362.682C926.454 362.154 926.99 361.743 927.679 361.45C928.383 361.142 929.197 360.988 930.121 360.988ZM943.75 372.45C943.325 372.743 942.841 372.963 942.298 373.11C941.77 373.271 941.242 373.352 940.714 373.352C939.512 373.337 938.602 372.993 937.986 372.318C937.37 371.643 937.062 370.653 937.062 369.348V363.54H935.324V361.34H937.062V358.788L940.186 358.414V361.34H942.87L942.562 363.54H940.186V369.282C940.186 369.839 940.282 370.243 940.472 370.492C940.663 370.741 940.956 370.866 941.352 370.866C941.748 370.866 942.188 370.734 942.672 370.47L943.75 372.45ZM954.625 366.906C954.625 367.053 954.603 367.456 954.559 368.116H947.277C947.379 369.172 947.665 369.92 948.135 370.36C948.604 370.8 949.242 371.02 950.049 371.02C950.547 371.02 951.017 370.939 951.457 370.778C951.897 370.617 952.373 370.36 952.887 370.008L954.185 371.768C952.879 372.824 951.405 373.352 949.763 373.352C947.929 373.352 946.521 372.802 945.539 371.702C944.556 370.602 944.065 369.113 944.065 367.236C944.065 366.048 944.27 364.985 944.681 364.046C945.106 363.093 945.715 362.345 946.507 361.802C947.313 361.259 948.267 360.988 949.367 360.988C951.024 360.988 952.315 361.509 953.239 362.55C954.163 363.591 954.625 365.043 954.625 366.906ZM951.523 366.026C951.523 364.09 950.826 363.122 949.433 363.122C948.787 363.122 948.281 363.364 947.915 363.848C947.563 364.317 947.35 365.087 947.277 366.158H951.523V366.026ZM969.492 360.988C970.416 360.988 971.156 361.303 971.714 361.934C972.286 362.565 972.572 363.423 972.572 364.508V373H969.448V365.036C969.448 363.892 969.066 363.32 968.304 363.32C967.893 363.32 967.534 363.452 967.226 363.716C966.918 363.98 966.602 364.391 966.28 364.948V373H963.156V365.036C963.156 363.892 962.774 363.32 962.012 363.32C961.601 363.32 961.242 363.459 960.934 363.738C960.626 364.002 960.318 364.405 960.01 364.948V373H956.886V361.34H959.592L959.834 362.792C960.274 362.205 960.765 361.758 961.308 361.45C961.865 361.142 962.503 360.988 963.222 360.988C963.882 360.988 964.454 361.157 964.938 361.494C965.422 361.817 965.774 362.279 965.994 362.88C966.478 362.249 966.998 361.78 967.556 361.472C968.128 361.149 968.773 360.988 969.492 360.988ZM979.406 360.988C981.049 360.988 982.457 361.457 983.63 362.396L982.442 364.178C981.459 363.562 980.491 363.254 979.538 363.254C979.025 363.254 978.629 363.349 978.35 363.54C978.071 363.731 977.932 363.987 977.932 364.31C977.932 364.545 977.991 364.743 978.108 364.904C978.24 365.065 978.475 365.219 978.812 365.366C979.164 365.513 979.685 365.689 980.374 365.894C981.606 366.231 982.523 366.686 983.124 367.258C983.725 367.815 984.026 368.585 984.026 369.568C984.026 370.345 983.799 371.02 983.344 371.592C982.904 372.164 982.303 372.604 981.54 372.912C980.777 373.205 979.927 373.352 978.988 373.352C978.005 373.352 977.111 373.205 976.304 372.912C975.497 372.604 974.808 372.186 974.236 371.658L975.776 369.942C976.759 370.705 977.8 371.086 978.9 371.086C979.487 371.086 979.949 370.976 980.286 370.756C980.638 370.521 980.814 370.206 980.814 369.81C980.814 369.502 980.748 369.26 980.616 369.084C980.484 368.908 980.242 368.747 979.89 368.6C979.538 368.439 978.988 368.255 978.24 368.05C977.067 367.727 976.194 367.273 975.622 366.686C975.065 366.085 974.786 365.344 974.786 364.464C974.786 363.804 974.977 363.21 975.358 362.682C975.739 362.154 976.275 361.743 976.964 361.45C977.668 361.142 978.482 360.988 979.406 360.988Z" fill="#3D32CF"/>
<path d="M1120.7 183.776L1120.35 186.306H1116.5V199H1113.27V186.306H1109.22V183.776H1120.7ZM1130.94 192.906C1130.94 193.053 1130.92 193.456 1130.88 194.116H1123.6C1123.7 195.172 1123.99 195.92 1124.45 196.36C1124.92 196.8 1125.56 197.02 1126.37 197.02C1126.87 197.02 1127.34 196.939 1127.78 196.778C1128.22 196.617 1128.69 196.36 1129.21 196.008L1130.5 197.768C1129.2 198.824 1127.73 199.352 1126.08 199.352C1124.25 199.352 1122.84 198.802 1121.86 197.702C1120.88 196.602 1120.38 195.113 1120.38 193.236C1120.38 192.048 1120.59 190.985 1121 190.046C1121.43 189.093 1122.03 188.345 1122.83 187.802C1123.63 187.259 1124.59 186.988 1125.69 186.988C1127.34 186.988 1128.63 187.509 1129.56 188.55C1130.48 189.591 1130.94 191.043 1130.94 192.906ZM1127.84 192.026C1127.84 190.09 1127.15 189.122 1125.75 189.122C1125.11 189.122 1124.6 189.364 1124.23 189.848C1123.88 190.317 1123.67 191.087 1123.6 192.158H1127.84V192.026ZM1136.11 199.352C1135.16 199.352 1134.42 199.081 1133.89 198.538C1133.36 197.981 1133.1 197.196 1133.1 196.184V182.698L1136.22 182.346V196.096C1136.22 196.609 1136.43 196.866 1136.86 196.866C1137.09 196.866 1137.3 196.822 1137.47 196.734L1138.11 198.956C1137.51 199.22 1136.84 199.352 1136.11 199.352ZM1149.46 192.906C1149.46 193.053 1149.44 193.456 1149.4 194.116H1142.12C1142.22 195.172 1142.51 195.92 1142.97 196.36C1143.44 196.8 1144.08 197.02 1144.89 197.02C1145.39 197.02 1145.86 196.939 1146.3 196.778C1146.74 196.617 1147.21 196.36 1147.73 196.008L1149.02 197.768C1147.72 198.824 1146.25 199.352 1144.6 199.352C1142.77 199.352 1141.36 198.802 1140.38 197.702C1139.4 196.602 1138.9 195.113 1138.9 193.236C1138.9 192.048 1139.11 190.985 1139.52 190.046C1139.95 189.093 1140.55 188.345 1141.35 187.802C1142.15 187.259 1143.11 186.988 1144.21 186.988C1145.86 186.988 1147.15 187.509 1148.08 188.55C1149 189.591 1149.46 191.043 1149.46 192.906ZM1146.36 192.026C1146.36 190.09 1145.67 189.122 1144.27 189.122C1143.63 189.122 1143.12 189.364 1142.75 189.848C1142.4 190.317 1142.19 191.087 1142.12 192.158H1146.36V192.026ZM1164.33 186.988C1165.26 186.988 1166 187.303 1166.55 187.934C1167.13 188.565 1167.41 189.423 1167.41 190.508V199H1164.29V191.036C1164.29 189.892 1163.91 189.32 1163.14 189.32C1162.73 189.32 1162.37 189.452 1162.07 189.716C1161.76 189.98 1161.44 190.391 1161.12 190.948V199H1158V191.036C1158 189.892 1157.61 189.32 1156.85 189.32C1156.44 189.32 1156.08 189.459 1155.77 189.738C1155.47 190.002 1155.16 190.405 1154.85 190.948V199H1151.73V187.34H1154.43L1154.67 188.792C1155.11 188.205 1155.6 187.758 1156.15 187.45C1156.7 187.142 1157.34 186.988 1158.06 186.988C1158.72 186.988 1159.29 187.157 1159.78 187.494C1160.26 187.817 1160.61 188.279 1160.83 188.88C1161.32 188.249 1161.84 187.78 1162.4 187.472C1162.97 187.149 1163.61 186.988 1164.33 186.988ZM1180.23 192.906C1180.23 193.053 1180.21 193.456 1180.16 194.116H1172.88C1172.98 195.172 1173.27 195.92 1173.74 196.36C1174.21 196.8 1174.85 197.02 1175.65 197.02C1176.15 197.02 1176.62 196.939 1177.06 196.778C1177.5 196.617 1177.98 196.36 1178.49 196.008L1179.79 197.768C1178.48 198.824 1177.01 199.352 1175.37 199.352C1173.53 199.352 1172.13 198.802 1171.14 197.702C1170.16 196.602 1169.67 195.113 1169.67 193.236C1169.67 192.048 1169.88 190.985 1170.29 190.046C1170.71 189.093 1171.32 188.345 1172.11 187.802C1172.92 187.259 1173.87 186.988 1174.97 186.988C1176.63 186.988 1177.92 187.509 1178.84 188.55C1179.77 189.591 1180.23 191.043 1180.23 192.906ZM1177.13 192.026C1177.13 190.09 1176.43 189.122 1175.04 189.122C1174.39 189.122 1173.89 189.364 1173.52 189.848C1173.17 190.317 1172.96 191.087 1172.88 192.158H1177.13V192.026ZM1189.47 198.45C1189.04 198.743 1188.56 198.963 1188.01 199.11C1187.49 199.271 1186.96 199.352 1186.43 199.352C1185.23 199.337 1184.32 198.993 1183.7 198.318C1183.09 197.643 1182.78 196.653 1182.78 195.348V189.54H1181.04V187.34H1182.78V184.788L1185.9 184.414V187.34H1188.59L1188.28 189.54H1185.9V195.282C1185.9 195.839 1186 196.243 1186.19 196.492C1186.38 196.741 1186.67 196.866 1187.07 196.866C1187.46 196.866 1187.9 196.734 1188.39 196.47L1189.47 198.45ZM1196.88 187.01C1197.23 187.01 1197.62 187.069 1198.04 187.186L1197.51 190.2C1197.1 190.097 1196.76 190.046 1196.48 190.046C1195.79 190.046 1195.26 190.288 1194.87 190.772C1194.49 191.256 1194.19 191.989 1193.97 192.972V199H1190.85V187.34H1193.55L1193.84 189.606C1194.12 188.785 1194.52 188.147 1195.05 187.692C1195.59 187.237 1196.2 187.01 1196.88 187.01ZM1205.6 199.022C1205.13 200.503 1204.39 201.647 1203.38 202.454C1202.38 203.261 1201.02 203.723 1199.31 203.84L1198.98 201.596C1200.09 201.449 1200.91 201.185 1201.42 200.804C1201.95 200.423 1202.38 199.821 1202.72 199H1201.64L1198.01 187.34H1201.33L1203.66 196.976L1206.13 187.34H1209.36L1205.6 199.022Z" fill="#3D32CF"/>
<path d="M1109 201.2H1209.32V202.3H1109V201.2Z" fill="#3D32CF"/>
</svg>
