<svg width="1068" height="394" viewBox="0 0 1068 394" fill="none" xmlns="http://www.w3.org/2000/svg">
<line x1="229.551" y1="187.324" x2="164.414" y2="216.91" stroke="#3D32CF" stroke-width="2"/>
<line y1="-1" x2="146.797" y2="-1" transform="matrix(-0.737381 0.675477 -0.676311 -0.736617 413.848 200.483)" stroke="#3D32CF" stroke-width="2"/>
<line x1="520.224" y1="206.345" x2="520.224" y2="352.896" stroke="#3D32CF" stroke-width="2"/>
<line y1="-1" x2="104.895" y2="-1" transform="matrix(0.300946 0.953641 -0.953837 0.300325 690.591 211.034)" stroke="#3D32CF" stroke-width="2"/>
<line y1="-1" x2="146.716" y2="-1" transform="matrix(-0.994844 -0.101416 0.101644 -0.994821 948.21 190.757)" stroke="#3D32CF" stroke-width="2"/>
<path fill-rule="evenodd" clip-rule="evenodd" d="M643.462 111.65H660.915C662.172 111.65 662.239 113.293 662.527 114.319L668.489 138.656H634.571C635.225 137.293 636.067 133.455 636.547 131.74L641.623 114.421C642.034 113.339 642.337 111.65 643.462 111.65ZM762.008 132.399H720.517V113.955H762.996C764.661 113.955 767.371 115.989 768.284 116.9C775.284 123.885 768.62 132.399 762.008 132.399ZM762.666 100.122H720.517V81.6786H762.337C764.426 81.6786 766.952 83.359 768.179 84.3988C774.907 90.0996 769.363 100.122 762.666 100.122ZM650.707 67.1873V65.5407C650.707 63.4837 653.26 60.9296 655.317 60.9296H656.963C659.02 60.9296 661.573 63.4837 661.573 65.5407V67.1873C661.573 69.2439 659.02 71.7981 656.963 71.7981H655.317C653.26 71.7981 650.707 69.2439 650.707 67.1873ZM698.125 5.92831C698.125 10.8542 700.329 13.8327 705.699 13.8327C705.864 15.8158 710.138 25.2069 710.926 27.3779L716.342 41.0628C717.419 43.1684 718.089 45.3141 719.008 47.6185C720.101 50.3613 726.956 66.4132 727.103 68.1754H707.016V82.6666L664.191 68.5547C664.208 65.1113 664.34 63.3981 662.65 61.4998C656.414 54.4956 648.073 60.1426 648.073 65.5407V67.1873C648.073 70.8544 651.888 74.4331 655.646 74.4331C654.295 80.2354 653.728 86.4873 652.821 92.3569C652.63 93.5997 652.522 94.4746 652.379 95.5373C652.17 97.091 651.989 97.2108 651.695 98.4754C648.825 98.4754 640.504 97.9861 638.413 98.6944C635.994 99.5132 631.676 102.588 630.502 104.615C629.084 107.064 619.546 141.783 618.068 146.851C617.19 149.862 612.18 165.7 612.18 168.627C612.18 170.58 611.755 171.854 613.048 173.357C614.263 174.77 615.48 175.744 617.448 176.202C617.395 178.575 616.282 182.913 615.892 185.185L613.495 198.596C612.772 203.13 613.06 201.026 610.009 203.014L608.578 204.217C604.572 208.748 608.336 215.724 612.838 215.724C615.193 215.724 617.008 215.397 618.748 213.731L619.987 212.006C621.962 208.325 620.035 203.207 615.802 202.221C615.802 198.548 619.064 183.071 619.919 178.015C620.412 175.102 621.308 176.92 624.132 173.995C626.642 171.395 628.855 156.524 630.949 152.16H672.111L676.915 172.055C677.195 172.871 677.94 173.905 678.452 174.47C679.122 175.209 680.06 175.693 681.21 175.994C682.702 176.384 683.435 176.041 683.888 177.268C684.05 177.707 684.367 180.262 684.483 180.954C684.908 183.498 685.248 185.542 685.658 188.012C686.036 190.29 686.504 192.744 686.882 195.021C687.251 197.24 687.917 199.927 687.917 202.221C687.48 202.513 687 202.813 686.541 203.151C680.616 207.514 684.695 215.724 689.563 215.724C691.918 215.724 693.733 215.397 695.474 213.731C699.183 210.179 697.476 203.676 692.61 202.138C689.9 201.281 690.782 202.314 690.312 199.167C690.06 197.482 689.823 196.209 689.563 194.646C688.86 190.408 686.6 180.189 686.6 176.202C686.6 175.256 690.222 174.582 690.222 169.944C690.222 165.111 681.021 132.346 679.614 126.87L675.543 111.181C674.713 108.261 674.689 105.099 672.49 103.036L671.261 101.96C669.923 100.841 668.743 99.7529 667.107 99.1985C663.53 97.9864 658.303 98.4754 654.329 98.4754C654.024 97.033 654.649 94.4454 654.889 92.7778L656.73 80.787C656.978 79.2983 657.622 76.0704 657.622 74.4331C666.668 72.3252 655.4 68.4745 673.881 74.6381L695.862 81.966C699.434 83.1568 703.357 84.7781 707.016 85.6308V145.902H762.996C774.867 145.902 785.058 134.723 785.058 123.177C785.058 117.081 781.983 109.39 778.472 107.039C779.914 104.886 781.562 103.172 782.757 100.785C785.421 95.4642 785.839 88.0667 783.303 82.4457C780.426 76.0658 775.73 70.5735 768.264 68.8339C769.162 64.9802 772.055 59.0258 773.627 55.0958C775.63 50.0933 789.172 17.376 789.998 13.8327C793.369 13.8327 794.194 14.0657 796.316 12.577C797.138 12.0001 797.548 11.6337 798.107 10.7452C801.174 5.86761 797.384 0 793.29 0C790.669 0 788.362 0.516592 786.76 2.6903C784.172 6.20137 785.452 9.16824 787.693 12.5152C787.132 14.9219 785.906 17.145 785.011 19.3844L771.087 54.2019C769.553 58.0366 766.497 64.4519 765.63 68.1754H730.066C729.231 64.5912 720.798 44.6738 719.247 40.792C717.395 36.1579 715.667 31.842 713.79 27.1476C712.821 24.7242 712.024 22.7286 711.062 20.325C710.195 18.1587 708.836 15.3315 708.333 13.1737C715.356 8.47 710.941 0 706.028 0C702.839 0 700.406 0.871353 698.879 3.71802C698.483 4.45517 698.125 4.999 698.125 5.92831Z" fill="#3D32CF"/>
<path fill-rule="evenodd" clip-rule="evenodd" d="M556.2 153.477V151.83C556.2 149.773 558.754 147.219 560.81 147.219H562.456C564.513 147.219 567.066 149.773 567.066 151.83V153.477C567.066 155.534 564.513 158.088 562.456 158.088H560.81C558.754 158.088 556.2 155.534 556.2 153.477ZM505.489 5.92831C505.489 8.0355 505.93 10.385 507.433 11.8881C509.752 14.2073 512.524 13.7397 515.368 13.5032C517.63 16.8832 519.987 19.8574 522.422 23.2448C527.635 30.4973 533.466 37.3763 538.49 44.7193C539.693 46.4772 539.077 54.5675 539.077 56.9774C539.077 65.953 538.26 82.8047 539.643 90.0042C540.524 94.5917 542.707 98.2412 545.845 100.598C549.504 103.345 554.151 105.721 559.493 105.721C559.493 118.912 560.151 131.282 560.151 144.585C558.327 145.01 555.404 146.254 554.883 148.207C552.846 148.038 538.671 141.218 535.546 139.882C532.213 138.458 529.243 136.994 525.952 135.645C522.868 134.38 519.278 132.168 516.026 131.41C516.026 127.081 515.568 118.914 516.167 115.08C516.563 112.551 515.695 102.605 514.812 100.349C513.108 95.9987 510.962 93.7857 507.337 91.3572C505.001 89.7915 498.561 86.9483 494.951 86.9483H441.606C432.453 86.9483 425.995 91.9329 422.389 99.0169C421.453 100.857 419.873 104.525 419.873 107.039V160.064C419.873 162.681 422.307 164.168 424.483 164.675C424.361 166.137 423.719 167.99 423.308 169.428L417.213 191.327C416.319 194.725 416.192 192.555 413.482 193.853C409.228 195.89 407.711 201.648 411.279 205.217C413.975 207.913 418.52 207.707 421.172 205.168C423.724 202.725 423.704 198.838 421.802 196.009C421.065 194.915 420.353 194.59 419.214 193.987C420.223 191.884 420.604 189.282 421.307 186.858L427.446 164.675C435.595 164.675 433.373 157.793 433.373 150.513C433.373 141.627 432.799 117.177 433.785 110.085C434.576 104.4 438.938 99.7929 444.899 99.7929C450.675 99.7929 455.279 100.122 461.034 100.122V150.183C461.034 155.239 472.734 156.062 474.325 151.949C474.933 150.377 474.635 109.834 474.524 103.075C474.499 101.609 474.135 100.122 475.523 100.122H492.317C494.709 100.122 497.605 102.181 498.832 103.487C500.311 105.063 501.802 107.611 502.345 110.183C503.38 115.089 502.059 150.385 502.51 160.079C502.645 162.99 505.024 164.774 507.794 165.004C507.873 168.558 517.257 197.349 517.343 201.233C512.935 202.41 512.847 209.315 515.665 212.133C518.987 215.455 524.672 214.322 526.797 210.359C528.219 207.709 527.635 203.787 525.257 201.881C523.742 200.668 522.714 200.245 519.978 200.245C519.752 197.53 516.06 185.37 515.251 182.577C514.336 179.42 511.655 167.563 510.428 165.004C517.313 164.851 516.026 159.272 516.026 152.489C516.026 146.451 516.026 140.413 516.026 134.375C518.589 134.972 522.989 137.247 525.465 138.437C533.166 142.137 540.993 145.134 548.737 148.755C550.388 149.528 552.084 150.058 553.565 150.842C553.565 154.295 553.527 155.819 555.284 157.686C557.406 159.941 559.074 160.723 562.456 160.723C565.933 160.723 569.701 156.954 569.701 153.477V151.83C569.701 148.319 566.055 144.857 562.786 144.585C562.786 131.293 562.127 118.819 562.127 105.721H612.838C618.087 105.721 618.04 96.5436 614.587 93.4332C612.93 91.9403 609.203 92.5471 606.911 92.5471C600.84 92.5471 595.898 92.218 589.788 92.218H563.773C558.536 92.225 555.102 91.1113 553.098 85.4401C551.989 82.3037 552.578 48.0059 552.578 42.1566C552.578 39.2971 552.577 36.4392 552.591 33.58C552.606 30.6653 551.582 28.5301 549.285 27.9945C550.423 26.2949 555.174 23.4911 557.19 22.0685L570.689 12.5152C571.541 12.5152 578.224 16.7607 581.789 10.1143C584.157 5.70074 580.693 0 576.616 0C573.427 0 570.994 0.871353 569.467 3.71802C568.44 5.63227 568.455 8.29961 569.371 10.2096C566.35 12.2335 563.436 14.3784 560.478 16.465L547.17 25.8799C544.92 27.5366 543.899 27.0224 541.805 28.0882C540.004 29.0051 539.114 30.3471 539.061 32.9191C539.007 35.5215 539.077 38.2243 539.077 40.8391C537.728 39.8507 530.047 28.7849 528.351 26.5357L520.355 15.7613C519.869 15.1148 517.672 12.4922 517.672 11.8566C517.672 11.2836 521.692 6.26166 517.375 1.9442C514.497 -0.934368 509.254 -0.55548 506.861 2.6903C506.206 3.58032 505.489 4.74537 505.489 5.92831Z" fill="#3D32CF"/>
<path fill-rule="evenodd" clip-rule="evenodd" d="M377.394 204.197V202.55C377.394 200.493 379.947 197.939 382.004 197.939H383.65C385.707 197.939 388.26 200.493 388.26 202.55V204.197C388.26 206.253 385.707 208.807 383.65 208.807H382.004C379.947 208.807 377.394 206.253 377.394 204.197ZM404.725 45.1204C404.725 47.277 405.025 48.4669 406.042 50.3901C404.735 52.3425 402.34 53.9148 400.541 55.4276L394.76 60.5137C392.358 62.8523 384.684 68.7732 383.321 70.8096C381.295 70.3378 378.937 69.6263 376.346 70.4191C374.152 71.0905 372.454 72.6453 372.454 75.4208V143.926C372.454 147.335 375.964 148.866 379.04 148.866C379.04 153.064 379.304 156.159 379.356 160.406L380.679 189.383C380.669 191.708 381.016 192.803 381.016 195.304C379.66 195.955 379.193 195.806 377.974 196.873L377.079 197.624C375.984 198.346 375.879 197.671 375.747 199.256C374.698 198.976 368.304 192.932 367.096 191.77L362.817 187.816C362.08 187.075 361.589 186.557 360.853 185.829C356.938 181.954 343.765 170.858 341.83 167.968C343.621 166.768 343.476 166.173 343.476 164.016C343.476 161.33 342.12 159.271 340.053 157.888C338.668 156.96 338.033 157.077 335.907 157.095C334.26 157.108 332.611 157.099 330.963 157.099C325.576 149.053 316.975 138.113 310.924 130.045C309.753 128.484 308.707 127.09 307.536 125.529C306.538 124.199 304.726 122.502 304.29 120.871C312.524 116.514 320.094 111.06 328.311 106.691C331.725 104.876 338.946 107.124 342.556 105.788C347.354 104.014 346.247 92.2176 340.513 92.2176H326.024C324.587 92.2176 282.888 118.533 279.923 119.224C279.923 113.955 279.923 108.685 279.923 103.415C279.923 101.084 280.367 97.6694 279.513 95.9208C277.838 92.4911 274.963 92.5467 271.69 92.5467C265.757 92.5467 273.074 95.9271 260.124 91.2712L241.348 84.3607C240.249 83.9503 238.433 83.226 237.444 82.9957C237.444 79.5539 237.644 79.2613 236.208 76.9869C233.976 73.4525 228.431 73.174 225.558 76.0475C221.666 79.9398 223.335 87.936 231.187 87.936C233.129 87.936 235.378 86.4196 236.127 85.3013C238.76 86.6947 247.874 89.728 251.232 90.9421C256.024 92.6735 261.868 94.3135 266.422 96.4989V149.854C266.422 154.726 265.816 163.294 266.751 167.309C265.333 167.64 264.054 168.546 262.691 169.177C261.064 169.932 259.981 170.364 258.409 171.152C256.86 171.928 255.697 172.368 254.124 173.124L245.9 177.084C243.813 178.128 234.483 182.752 232.834 182.789C231.657 178.381 224.765 178.28 221.936 181.11C218.044 185.002 219.713 192.999 227.565 192.999C231.651 192.999 233.822 189.275 233.822 185.753C235.41 184.912 236.819 184.391 238.546 183.562C240.378 182.682 241.518 182.069 243.467 181.237C249.47 178.675 262.076 171.971 267.414 169.909C269.394 169.145 272.506 172.674 277.242 169.897C281.032 167.675 279.604 160.956 279.593 156.44C279.585 152.854 279.923 150.079 279.923 146.231C279.923 142.608 279.923 138.985 279.923 135.362C281.994 134.266 283.935 133.174 286.039 131.929C288.1 130.71 290.096 129.51 292.107 128.446C293.718 129.525 298.749 136.743 300.246 138.749C302.947 142.369 305.437 145.676 308.148 149.289L322.025 167.686C322.775 168.689 323.732 169.417 324.048 170.603L336.906 170.618C338.991 170.604 338.954 170.307 340.513 169.944C341.787 171.848 352.575 181.2 355.255 183.853L365.868 193.987C367.427 195.177 368.629 196.586 370.062 198.026C370.937 198.906 371.358 199.076 372.203 199.836C373.217 200.747 373.227 201.434 374.759 201.562C374.759 205.014 374.72 206.538 376.478 208.406C378.6 210.66 380.268 211.442 383.65 211.442C387.127 211.442 390.894 207.674 390.894 204.197V202.55C390.894 199.008 387.151 195.382 383.65 195.304L382.32 166.664C382.243 160.376 381.674 155.152 381.674 148.866C383.887 147.804 385.626 146.915 385.626 143.926V74.7618C385.626 73.757 385.309 73.433 384.967 72.7857C387.734 70.9325 390.867 67.4296 393.578 65.2598L396.572 62.6551C397.113 62.1743 397.339 61.8335 397.907 61.3559L400.694 58.8733C401.402 58.2478 401.626 58.2248 402.34 57.5562C402.889 57.0427 403.105 56.7362 403.688 56.2694C404.431 55.6746 404.569 55.6505 405.303 54.9203C406.116 54.1116 407.463 52.9582 408.347 52.3662C410.605 52.8921 409.997 53.0248 412.628 53.0248C414.375 53.0248 416.308 51.5201 417.183 50.3345C420.72 45.5343 416.899 39.1921 412.628 39.1921C410.273 39.1921 408.458 39.5196 406.718 41.1853C405.772 42.0909 404.725 43.727 404.725 45.1204Z" fill="#3D32CF"/>
<path fill-rule="evenodd" clip-rule="evenodd" d="M792.961 175.544C792.961 177.9 793.103 179.701 794.905 181.504C799.605 186.204 806.792 181.766 806.792 177.52C806.792 175.163 806.65 173.362 804.847 171.56C800.093 166.804 792.961 171.419 792.961 175.544Z" fill="#3D32CF"/>
<path fill-rule="evenodd" clip-rule="evenodd" d="M630.291 36.2274C630.291 38.5835 630.433 40.3853 632.234 42.1876C635.07 45.0241 640.736 45.1003 643.251 40.6273C646.204 35.3747 641.502 30.2991 638.194 30.2991C635.772 30.2991 633.538 30.4461 631.663 32.9894C631.362 33.3974 631.305 33.532 631.044 34.0175C630.649 34.7546 630.291 35.2981 630.291 36.2274Z" fill="#3D32CF"/>
<path fill-rule="evenodd" clip-rule="evenodd" d="M302.974 61.5887C302.974 63.9449 303.116 65.7463 304.917 67.5485C307.488 70.1198 311.902 70.2843 314.811 67.4995C315.151 67.1743 315.048 67.3217 315.431 66.8024C315.732 66.3947 315.79 66.2601 316.05 65.7747C318.741 60.7578 314.248 55.6604 310.877 55.6604C307.751 55.6604 305.445 56.1774 303.727 59.3784C303.332 60.1156 302.974 60.659 302.974 61.5887Z" fill="#3D32CF"/>
<path d="M10.658 236L9.8 232.59H5.026L4.168 236H0.802L5.488 220.776H9.426L14.09 236H10.658ZM5.642 230.192H9.184L7.402 223.174L5.642 230.192ZM24.9786 236H22.2726L22.1186 234.438C21.708 235.083 21.2093 235.567 20.6226 235.89C20.036 236.198 19.354 236.352 18.5766 236.352C17.5206 236.352 16.714 236.037 16.1566 235.406C15.5993 234.761 15.3206 233.866 15.3206 232.722V224.34H18.4446V232.326C18.4446 232.942 18.5473 233.382 18.7526 233.646C18.958 233.895 19.2806 234.02 19.7206 234.02C20.5566 234.02 21.268 233.514 21.8546 232.502V224.34H24.9786V236ZM35.0374 235.45C34.6121 235.743 34.1281 235.963 33.5854 236.11C33.0574 236.271 32.5294 236.352 32.0014 236.352C30.7988 236.337 29.8894 235.993 29.2734 235.318C28.6574 234.643 28.3494 233.653 28.3494 232.348V226.54H26.6114V224.34H28.3494V221.788L31.4734 221.414V224.34H34.1574L33.8494 226.54H31.4734V232.282C31.4734 232.839 31.5688 233.243 31.7594 233.492C31.9501 233.741 32.2434 233.866 32.6394 233.866C33.0354 233.866 33.4754 233.734 33.9594 233.47L35.0374 235.45ZM40.9616 223.988C42.707 223.988 44.071 224.538 45.0536 225.638C46.0363 226.723 46.5276 228.234 46.5276 230.17C46.5276 231.402 46.3003 232.487 45.8456 233.426C45.4056 234.35 44.7603 235.069 43.9096 235.582C43.0736 236.095 42.0836 236.352 40.9396 236.352C39.1943 236.352 37.823 235.809 36.8256 234.724C35.843 233.624 35.3516 232.106 35.3516 230.17C35.3516 228.938 35.5716 227.86 36.0116 226.936C36.4663 225.997 37.1116 225.271 37.9476 224.758C38.7983 224.245 39.803 223.988 40.9616 223.988ZM40.9616 226.32C40.1696 226.32 39.5756 226.635 39.1796 227.266C38.7983 227.882 38.6076 228.85 38.6076 230.17C38.6076 231.49 38.7983 232.465 39.1796 233.096C39.5756 233.712 40.1623 234.02 40.9396 234.02C41.717 234.02 42.2963 233.712 42.6776 233.096C43.0736 232.465 43.2716 231.49 43.2716 230.17C43.2716 228.85 43.081 227.882 42.6996 227.266C42.3183 226.635 41.739 226.32 40.9616 226.32ZM61.5093 223.988C62.4333 223.988 63.1739 224.303 63.7313 224.934C64.3033 225.565 64.5893 226.423 64.5893 227.508V236H61.4653V228.036C61.4653 226.892 61.0839 226.32 60.3213 226.32C59.9106 226.32 59.5513 226.452 59.2433 226.716C58.9353 226.98 58.6199 227.391 58.2973 227.948V236H55.1733V228.036C55.1733 226.892 54.7919 226.32 54.0293 226.32C53.6186 226.32 53.2593 226.459 52.9513 226.738C52.6433 227.002 52.3353 227.405 52.0273 227.948V236H48.9033V224.34H51.6093L51.8513 225.792C52.2913 225.205 52.7826 224.758 53.3253 224.45C53.8826 224.142 54.5206 223.988 55.2393 223.988C55.8993 223.988 56.4713 224.157 56.9553 224.494C57.4393 224.817 57.7913 225.279 58.0113 225.88C58.4953 225.249 59.0159 224.78 59.5733 224.472C60.1453 224.149 60.7906 223.988 61.5093 223.988ZM76.4617 232.766C76.4617 233.221 76.5277 233.558 76.6597 233.778C76.7917 233.983 77.0117 234.137 77.3197 234.24L76.6597 236.308C75.9704 236.249 75.4057 236.088 74.9657 235.824C74.5404 235.56 74.2104 235.149 73.9757 234.592C73.2131 235.765 72.0471 236.352 70.4777 236.352C69.3191 236.352 68.3951 236.022 67.7057 235.362C67.0311 234.687 66.6937 233.815 66.6937 232.744C66.6937 231.468 67.1557 230.493 68.0797 229.818C69.0037 229.143 70.3311 228.806 72.0617 228.806H73.4037V228.234C73.4037 227.515 73.2424 227.017 72.9197 226.738C72.5971 226.459 72.0617 226.32 71.3137 226.32C70.4924 226.32 69.4657 226.525 68.2337 226.936L67.5297 224.846C68.9817 224.274 70.4191 223.988 71.8417 223.988C73.4257 223.988 74.5917 224.333 75.3397 225.022C76.0877 225.697 76.4617 226.709 76.4617 228.058V232.766ZM71.3357 234.108C72.2157 234.108 72.9051 233.675 73.4037 232.81V230.588H72.3697C70.6831 230.588 69.8397 231.219 69.8397 232.48C69.8397 232.993 69.9644 233.397 70.2137 233.69C70.4777 233.969 70.8517 234.108 71.3357 234.108ZM86.557 235.45C86.1316 235.743 85.6476 235.963 85.105 236.11C84.577 236.271 84.049 236.352 83.521 236.352C82.3183 236.337 81.409 235.993 80.793 235.318C80.177 234.643 79.869 233.653 79.869 232.348V226.54H78.131V224.34H79.869V221.788L82.993 221.414V224.34H85.677L85.369 226.54H82.993V232.282C82.993 232.839 83.0883 233.243 83.279 233.492C83.4696 233.741 83.763 233.866 84.159 233.866C84.555 233.866 84.995 233.734 85.479 233.47L86.557 235.45ZM91.0644 224.34V236H87.9404V224.34H91.0644ZM89.4804 218.334C90.0377 218.334 90.4924 218.51 90.8444 218.862C91.2111 219.199 91.3944 219.632 91.3944 220.16C91.3944 220.688 91.2111 221.128 90.8444 221.48C90.4924 221.817 90.0377 221.986 89.4804 221.986C88.9231 221.986 88.4684 221.817 88.1164 221.48C87.7644 221.128 87.5884 220.688 87.5884 220.16C87.5884 219.632 87.7644 219.199 88.1164 218.862C88.4684 218.51 88.9231 218.334 89.4804 218.334ZM98.0214 223.988C99.664 223.988 101.072 224.457 102.245 225.396L101.057 227.178C100.075 226.562 99.1067 226.254 98.1534 226.254C97.64 226.254 97.244 226.349 96.9654 226.54C96.6867 226.731 96.5474 226.987 96.5474 227.31C96.5474 227.545 96.606 227.743 96.7234 227.904C96.8554 228.065 97.09 228.219 97.4274 228.366C97.7794 228.513 98.3 228.689 98.9894 228.894C100.221 229.231 101.138 229.686 101.739 230.258C102.341 230.815 102.641 231.585 102.641 232.568C102.641 233.345 102.414 234.02 101.959 234.592C101.519 235.164 100.918 235.604 100.155 235.912C99.3927 236.205 98.542 236.352 97.6034 236.352C96.6207 236.352 95.726 236.205 94.9194 235.912C94.1127 235.604 93.4234 235.186 92.8514 234.658L94.3914 232.942C95.374 233.705 96.4154 234.086 97.5154 234.086C98.102 234.086 98.564 233.976 98.9014 233.756C99.2534 233.521 99.4294 233.206 99.4294 232.81C99.4294 232.502 99.3634 232.26 99.2314 232.084C99.0994 231.908 98.8574 231.747 98.5054 231.6C98.1534 231.439 97.6034 231.255 96.8554 231.05C95.682 230.727 94.8094 230.273 94.2374 229.686C93.68 229.085 93.4014 228.344 93.4014 227.464C93.4014 226.804 93.592 226.21 93.9734 225.682C94.3547 225.154 94.89 224.743 95.5794 224.45C96.2834 224.142 97.0974 223.988 98.0214 223.988ZM107.801 224.34V236H104.677V224.34H107.801ZM106.217 218.334C106.774 218.334 107.229 218.51 107.581 218.862C107.947 219.199 108.131 219.632 108.131 220.16C108.131 220.688 107.947 221.128 107.581 221.48C107.229 221.817 106.774 221.986 106.217 221.986C105.659 221.986 105.205 221.817 104.853 221.48C104.501 221.128 104.325 220.688 104.325 220.16C104.325 219.632 104.501 219.199 104.853 218.862C105.205 218.51 105.659 218.334 106.217 218.334ZM120.742 229.906C120.742 230.053 120.72 230.456 120.676 231.116H113.394C113.496 232.172 113.782 232.92 114.252 233.36C114.721 233.8 115.359 234.02 116.166 234.02C116.664 234.02 117.134 233.939 117.574 233.778C118.014 233.617 118.49 233.36 119.004 233.008L120.302 234.768C118.996 235.824 117.522 236.352 115.88 236.352C114.046 236.352 112.638 235.802 111.656 234.702C110.673 233.602 110.182 232.113 110.182 230.236C110.182 229.048 110.387 227.985 110.798 227.046C111.223 226.093 111.832 225.345 112.624 224.802C113.43 224.259 114.384 223.988 115.484 223.988C117.141 223.988 118.432 224.509 119.356 225.55C120.28 226.591 120.742 228.043 120.742 229.906ZM117.64 229.026C117.64 227.09 116.943 226.122 115.55 226.122C114.904 226.122 114.398 226.364 114.032 226.848C113.68 227.317 113.467 228.087 113.394 229.158H117.64V229.026ZM129.031 224.01C129.383 224.01 129.772 224.069 130.197 224.186L129.669 227.2C129.258 227.097 128.914 227.046 128.635 227.046C127.946 227.046 127.41 227.288 127.029 227.772C126.648 228.256 126.347 228.989 126.127 229.972V236H123.003V224.34H125.709L125.995 226.606C126.274 225.785 126.677 225.147 127.205 224.692C127.748 224.237 128.356 224.01 129.031 224.01ZM138.721 235.45C138.296 235.743 137.812 235.963 137.269 236.11C136.741 236.271 136.213 236.352 135.685 236.352C134.482 236.337 133.573 235.993 132.957 235.318C132.341 234.643 132.033 233.653 132.033 232.348V226.54H130.295V224.34H132.033V221.788L135.157 221.414V224.34H137.841L137.533 226.54H135.157V232.282C135.157 232.839 135.252 233.243 135.443 233.492C135.634 233.741 135.927 233.866 136.323 233.866C136.719 233.866 137.159 233.734 137.643 233.47L138.721 235.45ZM149.595 229.906C149.595 230.053 149.573 230.456 149.529 231.116H142.247C142.35 232.172 142.636 232.92 143.105 233.36C143.575 233.8 144.213 234.02 145.019 234.02C145.518 234.02 145.987 233.939 146.427 233.778C146.867 233.617 147.344 233.36 147.857 233.008L149.155 234.768C147.85 235.824 146.376 236.352 144.733 236.352C142.9 236.352 141.492 235.802 140.509 234.702C139.527 233.602 139.035 232.113 139.035 230.236C139.035 229.048 139.241 227.985 139.651 227.046C140.077 226.093 140.685 225.345 141.477 224.802C142.284 224.259 143.237 223.988 144.337 223.988C145.995 223.988 147.285 224.509 148.209 225.55C149.133 226.591 149.595 228.043 149.595 229.906ZM146.493 229.026C146.493 227.09 145.797 226.122 144.403 226.122C143.758 226.122 143.252 226.364 142.885 226.848C142.533 227.317 142.321 228.087 142.247 229.158H146.493V229.026ZM155.728 223.988C157.371 223.988 158.779 224.457 159.952 225.396L158.764 227.178C157.782 226.562 156.814 226.254 155.86 226.254C155.347 226.254 154.951 226.349 154.672 226.54C154.394 226.731 154.254 226.987 154.254 227.31C154.254 227.545 154.313 227.743 154.43 227.904C154.562 228.065 154.797 228.219 155.134 228.366C155.486 228.513 156.007 228.689 156.696 228.894C157.928 229.231 158.845 229.686 159.446 230.258C160.048 230.815 160.348 231.585 160.348 232.568C160.348 233.345 160.121 234.02 159.666 234.592C159.226 235.164 158.625 235.604 157.862 235.912C157.1 236.205 156.249 236.352 155.31 236.352C154.328 236.352 153.433 236.205 152.626 235.912C151.82 235.604 151.13 235.186 150.558 234.658L152.098 232.942C153.081 233.705 154.122 234.086 155.222 234.086C155.809 234.086 156.271 233.976 156.608 233.756C156.96 233.521 157.136 233.206 157.136 232.81C157.136 232.502 157.07 232.26 156.938 232.084C156.806 231.908 156.564 231.747 156.212 231.6C155.86 231.439 155.31 231.255 154.562 231.05C153.389 230.727 152.516 230.273 151.944 229.686C151.387 229.085 151.108 228.344 151.108 227.464C151.108 226.804 151.299 226.21 151.68 225.682C152.062 225.154 152.597 224.743 153.286 224.45C153.99 224.142 154.804 223.988 155.728 223.988ZM10.394 253.948C11.4207 254.139 12.2493 254.513 12.88 255.07C13.5253 255.613 13.848 256.449 13.848 257.578C13.848 259.177 13.276 260.313 12.132 260.988C10.988 261.663 9.39667 262 7.358 262H2.606V246.776H6.764C8.84667 246.776 10.438 247.084 11.538 247.7C12.638 248.316 13.188 249.306 13.188 250.67C13.188 251.565 12.9167 252.291 12.374 252.848C11.846 253.391 11.186 253.757 10.394 253.948ZM5.84 249.108V252.958H7.424C8.216 252.958 8.82467 252.797 9.25 252.474C9.67533 252.137 9.888 251.631 9.888 250.956C9.888 250.281 9.66067 249.805 9.206 249.526C8.75133 249.247 8.04 249.108 7.072 249.108H5.84ZM7.38 259.602C8.392 259.602 9.162 259.455 9.69 259.162C10.218 258.854 10.482 258.282 10.482 257.446C10.482 255.921 9.54333 255.158 7.666 255.158H5.84V259.602H7.38ZM25.6232 262H22.9172L22.7632 260.438C22.3525 261.083 21.8538 261.567 21.2672 261.89C20.6805 262.198 19.9985 262.352 19.2212 262.352C18.1652 262.352 17.3585 262.037 16.8012 261.406C16.2438 260.761 15.9652 259.866 15.9652 258.722V250.34H19.0892V258.326C19.0892 258.942 19.1918 259.382 19.3972 259.646C19.6025 259.895 19.9252 260.02 20.3652 260.02C21.2012 260.02 21.9125 259.514 22.4992 258.502V250.34H25.6232V262ZM33.57 249.988C34.3473 249.988 35.044 250.105 35.66 250.34C36.2906 250.56 36.8846 250.912 37.442 251.396L36.078 253.244C35.6966 252.951 35.3226 252.738 34.956 252.606C34.604 252.474 34.2153 252.408 33.79 252.408C32.1326 252.408 31.304 253.684 31.304 256.236C31.304 257.527 31.5166 258.451 31.942 259.008C32.3673 259.565 32.976 259.844 33.768 259.844C34.1786 259.844 34.5526 259.785 34.89 259.668C35.2273 259.536 35.6233 259.323 36.078 259.03L37.442 260.988C36.3273 261.897 35.0513 262.352 33.614 262.352C32.47 262.352 31.4726 262.103 30.622 261.604C29.786 261.105 29.1406 260.401 28.686 259.492C28.2313 258.568 28.004 257.49 28.004 256.258C28.004 255.026 28.2313 253.941 28.686 253.002C29.1406 252.049 29.786 251.308 30.622 250.78C31.4726 250.252 32.4553 249.988 33.57 249.988ZM45.7258 249.988C46.7378 249.988 47.5298 250.303 48.1018 250.934C48.6885 251.55 48.9818 252.408 48.9818 253.508V262H45.8578V254.036C45.8578 253.405 45.7478 252.965 45.5278 252.716C45.3078 252.452 44.9925 252.32 44.5818 252.32C43.7605 252.32 43.0125 252.855 42.3378 253.926V262H39.2138V245.698L42.3378 245.368V251.66C42.8072 251.103 43.3132 250.685 43.8558 250.406C44.4132 250.127 45.0365 249.988 45.7258 249.988ZM58.4661 249.988C59.4781 249.988 60.2701 250.303 60.8421 250.934C61.4287 251.55 61.7221 252.408 61.7221 253.508V262H58.5981V254.036C58.5981 253.405 58.4881 252.965 58.2681 252.716C58.0481 252.452 57.7327 252.32 57.3221 252.32C56.5007 252.32 55.7527 252.855 55.0781 253.926V262H51.9541V245.698L55.0781 245.368V251.66C55.5474 251.103 56.0534 250.685 56.5961 250.406C57.1534 250.127 57.7767 249.988 58.4661 249.988ZM73.6043 258.766C73.6043 259.221 73.6703 259.558 73.8023 259.778C73.9343 259.983 74.1543 260.137 74.4623 260.24L73.8023 262.308C73.113 262.249 72.5483 262.088 72.1083 261.824C71.683 261.56 71.353 261.149 71.1183 260.592C70.3556 261.765 69.1896 262.352 67.6203 262.352C66.4616 262.352 65.5376 262.022 64.8483 261.362C64.1736 260.687 63.8363 259.815 63.8363 258.744C63.8363 257.468 64.2983 256.493 65.2223 255.818C66.1463 255.143 67.4736 254.806 69.2043 254.806H70.5463V254.234C70.5463 253.515 70.385 253.017 70.0623 252.738C69.7396 252.459 69.2043 252.32 68.4563 252.32C67.635 252.32 66.6083 252.525 65.3763 252.936L64.6723 250.846C66.1243 250.274 67.5616 249.988 68.9843 249.988C70.5683 249.988 71.7343 250.333 72.4823 251.022C73.2303 251.697 73.6043 252.709 73.6043 254.058V258.766ZM68.4783 260.108C69.3583 260.108 70.0476 259.675 70.5463 258.81V256.588H69.5123C67.8256 256.588 66.9823 257.219 66.9823 258.48C66.9823 258.993 67.107 259.397 67.3563 259.69C67.6203 259.969 67.9943 260.108 68.4783 260.108ZM79.4147 262.352C78.4614 262.352 77.7207 262.081 77.1927 261.538C76.6647 260.981 76.4007 260.196 76.4007 259.184V245.698L79.5247 245.346V259.096C79.5247 259.609 79.7374 259.866 80.1627 259.866C80.3974 259.866 80.6027 259.822 80.7787 259.734L81.4167 261.956C80.8154 262.22 80.148 262.352 79.4147 262.352ZM89.9945 261.45C89.5691 261.743 89.0851 261.963 88.5425 262.11C88.0145 262.271 87.4865 262.352 86.9585 262.352C85.7558 262.337 84.8465 261.993 84.2305 261.318C83.6145 260.643 83.3065 259.653 83.3065 258.348V252.54H81.5685V250.34H83.3065V247.788L86.4305 247.414V250.34H89.1145L88.8065 252.54H86.4305V258.282C86.4305 258.839 86.5258 259.243 86.7165 259.492C86.9071 259.741 87.2005 259.866 87.5965 259.866C87.9925 259.866 88.4325 259.734 88.9165 259.47L89.9945 261.45ZM100.926 262H98.2199L98.0659 260.438C97.6552 261.083 97.1566 261.567 96.5699 261.89C95.9832 262.198 95.3012 262.352 94.5239 262.352C93.4679 262.352 92.6612 262.037 92.1039 261.406C91.5466 260.761 91.2679 259.866 91.2679 258.722V250.34H94.3919V258.326C94.3919 258.942 94.4946 259.382 94.6999 259.646C94.9052 259.895 95.2279 260.02 95.6679 260.02C96.5039 260.02 97.2152 259.514 97.8019 258.502V250.34H100.926V262ZM110.523 249.988C111.549 249.988 112.349 250.303 112.921 250.934C113.493 251.55 113.779 252.408 113.779 253.508V262H110.655V254.036C110.655 253.405 110.545 252.965 110.325 252.716C110.119 252.452 109.804 252.32 109.379 252.32C108.939 252.32 108.535 252.459 108.169 252.738C107.817 253.002 107.472 253.405 107.135 253.948V262H104.011V250.34H106.717L106.959 251.814C107.443 251.213 107.971 250.758 108.543 250.45C109.129 250.142 109.789 249.988 110.523 249.988ZM127.179 250.978C126.416 251.271 125.294 251.418 123.813 251.418C124.546 251.741 125.089 252.144 125.441 252.628C125.793 253.097 125.969 253.691 125.969 254.41C125.969 255.158 125.771 255.833 125.375 256.434C124.994 257.021 124.436 257.483 123.703 257.82C122.984 258.157 122.141 258.326 121.173 258.326C120.66 258.326 120.205 258.275 119.809 258.172C119.516 258.363 119.369 258.619 119.369 258.942C119.369 259.177 119.457 259.367 119.633 259.514C119.824 259.646 120.183 259.712 120.711 259.712H122.493C123.358 259.712 124.114 259.859 124.759 260.152C125.419 260.431 125.925 260.827 126.277 261.34C126.644 261.839 126.827 262.411 126.827 263.056C126.827 264.244 126.314 265.168 125.287 265.828C124.275 266.503 122.808 266.84 120.887 266.84C119.508 266.84 118.416 266.693 117.609 266.4C116.817 266.121 116.26 265.711 115.937 265.168C115.614 264.625 115.453 263.943 115.453 263.122H118.247C118.247 263.503 118.32 263.804 118.467 264.024C118.614 264.259 118.878 264.427 119.259 264.53C119.655 264.647 120.22 264.706 120.953 264.706C121.965 264.706 122.669 264.581 123.065 264.332C123.476 264.083 123.681 263.731 123.681 263.276C123.681 262.865 123.527 262.55 123.219 262.33C122.911 262.11 122.456 262 121.855 262H120.139C118.98 262 118.115 261.787 117.543 261.362C116.971 260.922 116.685 260.372 116.685 259.712C116.685 259.301 116.802 258.905 117.037 258.524C117.286 258.128 117.624 257.798 118.049 257.534C117.33 257.138 116.802 256.676 116.465 256.148C116.142 255.605 115.981 254.96 115.981 254.212C115.981 253.361 116.186 252.621 116.597 251.99C117.022 251.345 117.609 250.853 118.357 250.516C119.12 250.164 119.985 249.988 120.953 249.988C122.156 250.017 123.146 249.915 123.923 249.68C124.7 249.445 125.529 249.079 126.409 248.58L127.179 250.978ZM121.019 252.078C120.432 252.078 119.963 252.269 119.611 252.65C119.274 253.017 119.105 253.523 119.105 254.168C119.105 254.828 119.274 255.349 119.611 255.73C119.963 256.111 120.44 256.302 121.041 256.302C121.672 256.302 122.148 256.119 122.471 255.752C122.794 255.385 122.955 254.843 122.955 254.124C122.955 252.76 122.31 252.078 121.019 252.078ZM132.418 249.988C134.061 249.988 135.469 250.457 136.642 251.396L135.454 253.178C134.471 252.562 133.503 252.254 132.55 252.254C132.037 252.254 131.641 252.349 131.362 252.54C131.083 252.731 130.944 252.987 130.944 253.31C130.944 253.545 131.003 253.743 131.12 253.904C131.252 254.065 131.487 254.219 131.824 254.366C132.176 254.513 132.697 254.689 133.386 254.894C134.618 255.231 135.535 255.686 136.136 256.258C136.737 256.815 137.038 257.585 137.038 258.568C137.038 259.345 136.811 260.02 136.356 260.592C135.916 261.164 135.315 261.604 134.552 261.912C133.789 262.205 132.939 262.352 132 262.352C131.017 262.352 130.123 262.205 129.316 261.912C128.509 261.604 127.82 261.186 127.248 260.658L128.788 258.942C129.771 259.705 130.812 260.086 131.912 260.086C132.499 260.086 132.961 259.976 133.298 259.756C133.65 259.521 133.826 259.206 133.826 258.81C133.826 258.502 133.76 258.26 133.628 258.084C133.496 257.908 133.254 257.747 132.902 257.6C132.55 257.439 132 257.255 131.252 257.05C130.079 256.727 129.206 256.273 128.634 255.686C128.077 255.085 127.798 254.344 127.798 253.464C127.798 252.804 127.989 252.21 128.37 251.682C128.751 251.154 129.287 250.743 129.976 250.45C130.68 250.142 131.494 249.988 132.418 249.988ZM142.773 249.988C144.416 249.988 145.824 250.457 146.997 251.396L145.809 253.178C144.827 252.562 143.859 252.254 142.905 252.254C142.392 252.254 141.996 252.349 141.717 252.54C141.439 252.731 141.299 252.987 141.299 253.31C141.299 253.545 141.358 253.743 141.475 253.904C141.607 254.065 141.842 254.219 142.179 254.366C142.531 254.513 143.052 254.689 143.741 254.894C144.973 255.231 145.89 255.686 146.491 256.258C147.093 256.815 147.393 257.585 147.393 258.568C147.393 259.345 147.166 260.02 146.711 260.592C146.271 261.164 145.67 261.604 144.907 261.912C144.145 262.205 143.294 262.352 142.355 262.352C141.373 262.352 140.478 262.205 139.671 261.912C138.865 261.604 138.175 261.186 137.603 260.658L139.143 258.942C140.126 259.705 141.167 260.086 142.267 260.086C142.854 260.086 143.316 259.976 143.653 259.756C144.005 259.521 144.181 259.206 144.181 258.81C144.181 258.502 144.115 258.26 143.983 258.084C143.851 257.908 143.609 257.747 143.257 257.6C142.905 257.439 142.355 257.255 141.607 257.05C140.434 256.727 139.561 256.273 138.989 255.686C138.432 255.085 138.153 254.344 138.153 253.464C138.153 252.804 138.344 252.21 138.725 251.682C139.107 251.154 139.642 250.743 140.331 250.45C141.035 250.142 141.849 249.988 142.773 249.988ZM155.048 262.022C154.579 263.503 153.838 264.647 152.826 265.454C151.829 266.261 150.472 266.723 148.756 266.84L148.426 264.596C149.541 264.449 150.355 264.185 150.868 263.804C151.396 263.423 151.829 262.821 152.166 262H151.088L147.458 250.34H150.78L153.112 259.976L155.576 250.34H158.81L155.048 262.022ZM164 249.988C165.643 249.988 167.051 250.457 168.224 251.396L167.036 253.178C166.053 252.562 165.085 252.254 164.132 252.254C163.619 252.254 163.223 252.349 162.944 252.54C162.665 252.731 162.526 252.987 162.526 253.31C162.526 253.545 162.585 253.743 162.702 253.904C162.834 254.065 163.069 254.219 163.406 254.366C163.758 254.513 164.279 254.689 164.968 254.894C166.2 255.231 167.117 255.686 167.718 256.258C168.319 256.815 168.62 257.585 168.62 258.568C168.62 259.345 168.393 260.02 167.938 260.592C167.498 261.164 166.897 261.604 166.134 261.912C165.371 262.205 164.521 262.352 163.582 262.352C162.599 262.352 161.705 262.205 160.898 261.912C160.091 261.604 159.402 261.186 158.83 260.658L160.37 258.942C161.353 259.705 162.394 260.086 163.494 260.086C164.081 260.086 164.543 259.976 164.88 259.756C165.232 259.521 165.408 259.206 165.408 258.81C165.408 258.502 165.342 258.26 165.21 258.084C165.078 257.908 164.836 257.747 164.484 257.6C164.132 257.439 163.582 257.255 162.834 257.05C161.661 256.727 160.788 256.273 160.216 255.686C159.659 255.085 159.38 254.344 159.38 253.464C159.38 252.804 159.571 252.21 159.952 251.682C160.333 251.154 160.869 250.743 161.558 250.45C162.262 250.142 163.076 249.988 164 249.988ZM177.629 261.45C177.204 261.743 176.72 261.963 176.177 262.11C175.649 262.271 175.121 262.352 174.593 262.352C173.391 262.337 172.481 261.993 171.865 261.318C171.249 260.643 170.941 259.653 170.941 258.348V252.54H169.203V250.34H170.941V247.788L174.065 247.414V250.34H176.749L176.441 252.54H174.065V258.282C174.065 258.839 174.161 259.243 174.351 259.492C174.542 259.741 174.835 259.866 175.231 259.866C175.627 259.866 176.067 259.734 176.551 259.47L177.629 261.45ZM188.503 255.906C188.503 256.053 188.481 256.456 188.437 257.116H181.155C181.258 258.172 181.544 258.92 182.013 259.36C182.483 259.8 183.121 260.02 183.927 260.02C184.426 260.02 184.895 259.939 185.335 259.778C185.775 259.617 186.252 259.36 186.765 259.008L188.063 260.768C186.758 261.824 185.284 262.352 183.641 262.352C181.808 262.352 180.4 261.802 179.417 260.702C178.435 259.602 177.943 258.113 177.943 256.236C177.943 255.048 178.149 253.985 178.559 253.046C178.985 252.093 179.593 251.345 180.385 250.802C181.192 250.259 182.145 249.988 183.245 249.988C184.903 249.988 186.193 250.509 187.117 251.55C188.041 252.591 188.503 254.043 188.503 255.906ZM185.401 255.026C185.401 253.09 184.705 252.122 183.311 252.122C182.666 252.122 182.16 252.364 181.793 252.848C181.441 253.317 181.229 254.087 181.155 255.158H185.401V255.026ZM203.371 249.988C204.295 249.988 205.035 250.303 205.593 250.934C206.165 251.565 206.451 252.423 206.451 253.508V262H203.327V254.036C203.327 252.892 202.945 252.32 202.183 252.32C201.772 252.32 201.413 252.452 201.105 252.716C200.797 252.98 200.481 253.391 200.159 253.948V262H197.035V254.036C197.035 252.892 196.653 252.32 195.891 252.32C195.48 252.32 195.121 252.459 194.813 252.738C194.505 253.002 194.197 253.405 193.889 253.948V262H190.765V250.34H193.471L193.713 251.792C194.153 251.205 194.644 250.758 195.187 250.45C195.744 250.142 196.382 249.988 197.101 249.988C197.761 249.988 198.333 250.157 198.817 250.494C199.301 250.817 199.653 251.279 199.873 251.88C200.357 251.249 200.877 250.78 201.435 250.472C202.007 250.149 202.652 249.988 203.371 249.988Z" fill="#3D32CF"/>
<path d="M198.84 313.776V329H195.606V313.776H198.84ZM208.519 316.988C209.545 316.988 210.345 317.303 210.917 317.934C211.489 318.55 211.775 319.408 211.775 320.508V329H208.651V321.036C208.651 320.405 208.541 319.965 208.321 319.716C208.115 319.452 207.8 319.32 207.375 319.32C206.935 319.32 206.531 319.459 206.165 319.738C205.813 320.002 205.468 320.405 205.131 320.948V329H202.007V317.34H204.713L204.955 318.814C205.439 318.213 205.967 317.758 206.539 317.45C207.125 317.142 207.785 316.988 208.519 316.988ZM221.721 328.45C221.296 328.743 220.812 328.963 220.269 329.11C219.741 329.271 219.213 329.352 218.685 329.352C217.482 329.337 216.573 328.993 215.957 328.318C215.341 327.643 215.033 326.653 215.033 325.348V319.54H213.295V317.34H215.033V314.788L218.157 314.414V317.34H220.841L220.533 319.54H218.157V325.282C218.157 325.839 218.252 326.243 218.443 326.492C218.634 326.741 218.927 326.866 219.323 326.866C219.719 326.866 220.159 326.734 220.643 326.47L221.721 328.45ZM232.595 322.906C232.595 323.053 232.573 323.456 232.529 324.116H225.247C225.35 325.172 225.636 325.92 226.105 326.36C226.575 326.8 227.213 327.02 228.019 327.02C228.518 327.02 228.987 326.939 229.427 326.778C229.867 326.617 230.344 326.36 230.857 326.008L232.155 327.768C230.85 328.824 229.376 329.352 227.733 329.352C225.9 329.352 224.492 328.802 223.509 327.702C222.527 326.602 222.035 325.113 222.035 323.236C222.035 322.048 222.241 320.985 222.651 320.046C223.077 319.093 223.685 318.345 224.477 317.802C225.284 317.259 226.237 316.988 227.337 316.988C228.995 316.988 230.285 317.509 231.209 318.55C232.133 319.591 232.595 321.043 232.595 322.906ZM229.493 322.026C229.493 320.09 228.797 319.122 227.403 319.122C226.758 319.122 226.252 319.364 225.885 319.848C225.533 320.317 225.321 321.087 225.247 322.158H229.493V322.026ZM240.884 317.01C241.236 317.01 241.625 317.069 242.05 317.186L241.522 320.2C241.112 320.097 240.767 320.046 240.488 320.046C239.799 320.046 239.264 320.288 238.882 320.772C238.501 321.256 238.2 321.989 237.98 322.972V329H234.856V317.34H237.562L237.848 319.606C238.127 318.785 238.53 318.147 239.058 317.692C239.601 317.237 240.21 317.01 240.884 317.01ZM250.113 316.988C251.139 316.988 251.939 317.303 252.511 317.934C253.083 318.55 253.369 319.408 253.369 320.508V329H250.245V321.036C250.245 320.405 250.135 319.965 249.915 319.716C249.709 319.452 249.394 319.32 248.969 319.32C248.529 319.32 248.125 319.459 247.759 319.738C247.407 320.002 247.062 320.405 246.725 320.948V329H243.601V317.34H246.307L246.549 318.814C247.033 318.213 247.561 317.758 248.133 317.45C248.719 317.142 249.379 316.988 250.113 316.988ZM266.197 322.906C266.197 323.053 266.175 323.456 266.131 324.116H258.849C258.951 325.172 259.237 325.92 259.707 326.36C260.176 326.8 260.814 327.02 261.621 327.02C262.119 327.02 262.589 326.939 263.029 326.778C263.469 326.617 263.945 326.36 264.459 326.008L265.757 327.768C264.451 328.824 262.977 329.352 261.335 329.352C259.501 329.352 258.093 328.802 257.111 327.702C256.128 326.602 255.637 325.113 255.637 323.236C255.637 322.048 255.842 320.985 256.253 320.046C256.678 319.093 257.287 318.345 258.079 317.802C258.885 317.259 259.839 316.988 260.939 316.988C262.596 316.988 263.887 317.509 264.811 318.55C265.735 319.591 266.197 321.043 266.197 322.906ZM263.095 322.026C263.095 320.09 262.398 319.122 261.005 319.122C260.359 319.122 259.853 319.364 259.487 319.848C259.135 320.317 258.922 321.087 258.849 322.158H263.095V322.026ZM275.432 328.45C275.007 328.743 274.523 328.963 273.98 329.11C273.452 329.271 272.924 329.352 272.396 329.352C271.193 329.337 270.284 328.993 269.668 328.318C269.052 327.643 268.744 326.653 268.744 325.348V319.54H267.006V317.34H268.744V314.788L271.868 314.414V317.34H274.552L274.244 319.54H271.868V325.282C271.868 325.839 271.963 326.243 272.154 326.492C272.345 326.741 272.638 326.866 273.034 326.866C273.43 326.866 273.87 326.734 274.354 326.47L275.432 328.45ZM275.451 323.346V320.882H282.271V323.346H275.451ZM288.92 313.776C291.296 313.776 293.195 314.319 294.618 315.404C296.055 316.475 296.774 318.447 296.774 321.322C296.774 324.138 296.07 326.125 294.662 327.284C293.269 328.428 291.479 329 289.294 329H284.938V313.776H288.92ZM288.172 316.152V326.624H289.492C290.739 326.624 291.699 326.243 292.374 325.48C293.063 324.703 293.408 323.317 293.408 321.322C293.408 319.943 293.232 318.873 292.88 318.11C292.543 317.347 292.088 316.834 291.516 316.57C290.944 316.291 290.247 316.152 289.426 316.152H288.172ZM302.305 317.34V329H299.181V317.34H302.305ZM300.721 311.334C301.278 311.334 301.733 311.51 302.085 311.862C302.451 312.199 302.635 312.632 302.635 313.16C302.635 313.688 302.451 314.128 302.085 314.48C301.733 314.817 301.278 314.986 300.721 314.986C300.163 314.986 299.709 314.817 299.357 314.48C299.005 314.128 298.829 313.688 298.829 313.16C298.829 312.632 299.005 312.199 299.357 311.862C299.709 311.51 300.163 311.334 300.721 311.334ZM315.246 322.906C315.246 323.053 315.224 323.456 315.18 324.116H307.898C308 325.172 308.286 325.92 308.756 326.36C309.225 326.8 309.863 327.02 310.67 327.02C311.168 327.02 311.638 326.939 312.078 326.778C312.518 326.617 312.994 326.36 313.508 326.008L314.806 327.768C313.5 328.824 312.026 329.352 310.384 329.352C308.55 329.352 307.142 328.802 306.16 327.702C305.177 326.602 304.686 325.113 304.686 323.236C304.686 322.048 304.891 320.985 305.302 320.046C305.727 319.093 306.336 318.345 307.128 317.802C307.934 317.259 308.888 316.988 309.988 316.988C311.645 316.988 312.936 317.509 313.86 318.55C314.784 319.591 315.246 321.043 315.246 322.906ZM312.144 322.026C312.144 320.09 311.447 319.122 310.054 319.122C309.408 319.122 308.902 319.364 308.536 319.848C308.184 320.317 307.971 321.087 307.898 322.158H312.144V322.026ZM324.019 316.988C325.045 316.988 325.845 317.303 326.417 317.934C326.989 318.55 327.275 319.408 327.275 320.508V329H324.151V321.036C324.151 320.405 324.041 319.965 323.821 319.716C323.615 319.452 323.3 319.32 322.875 319.32C322.435 319.32 322.031 319.459 321.665 319.738C321.313 320.002 320.968 320.405 320.631 320.948V329H317.507V317.34H320.213L320.455 318.814C320.939 318.213 321.467 317.758 322.039 317.45C322.625 317.142 323.285 316.988 324.019 316.988ZM334.119 316.988C335.762 316.988 337.17 317.457 338.343 318.396L337.155 320.178C336.172 319.562 335.204 319.254 334.251 319.254C333.738 319.254 333.342 319.349 333.063 319.54C332.784 319.731 332.645 319.987 332.645 320.31C332.645 320.545 332.704 320.743 332.821 320.904C332.953 321.065 333.188 321.219 333.525 321.366C333.877 321.513 334.398 321.689 335.087 321.894C336.319 322.231 337.236 322.686 337.837 323.258C338.438 323.815 338.739 324.585 338.739 325.568C338.739 326.345 338.512 327.02 338.057 327.592C337.617 328.164 337.016 328.604 336.253 328.912C335.49 329.205 334.64 329.352 333.701 329.352C332.718 329.352 331.824 329.205 331.017 328.912C330.21 328.604 329.521 328.186 328.949 327.658L330.489 325.942C331.472 326.705 332.513 327.086 333.613 327.086C334.2 327.086 334.662 326.976 334.999 326.756C335.351 326.521 335.527 326.206 335.527 325.81C335.527 325.502 335.461 325.26 335.329 325.084C335.197 324.908 334.955 324.747 334.603 324.6C334.251 324.439 333.701 324.255 332.953 324.05C331.78 323.727 330.907 323.273 330.335 322.686C329.778 322.085 329.499 321.344 329.499 320.464C329.499 319.804 329.69 319.21 330.071 318.682C330.452 318.154 330.988 317.743 331.677 317.45C332.381 317.142 333.195 316.988 334.119 316.988ZM347.748 328.45C347.323 328.743 346.839 328.963 346.296 329.11C345.768 329.271 345.24 329.352 344.712 329.352C343.51 329.337 342.6 328.993 341.984 328.318C341.368 327.643 341.06 326.653 341.06 325.348V319.54H339.322V317.34H341.06V314.788L344.184 314.414V317.34H346.868L346.56 319.54H344.184V325.282C344.184 325.839 344.28 326.243 344.47 326.492C344.661 326.741 344.954 326.866 345.35 326.866C345.746 326.866 346.186 326.734 346.67 326.47L347.748 328.45ZM358.623 322.906C358.623 323.053 358.601 323.456 358.557 324.116H351.275C351.377 325.172 351.663 325.92 352.133 326.36C352.602 326.8 353.24 327.02 354.047 327.02C354.545 327.02 355.015 326.939 355.455 326.778C355.895 326.617 356.371 326.36 356.885 326.008L358.183 327.768C356.877 328.824 355.403 329.352 353.761 329.352C351.927 329.352 350.519 328.802 349.537 327.702C348.554 326.602 348.063 325.113 348.063 323.236C348.063 322.048 348.268 320.985 348.679 320.046C349.104 319.093 349.713 318.345 350.505 317.802C351.311 317.259 352.265 316.988 353.365 316.988C355.022 316.988 356.313 317.509 357.237 318.55C358.161 319.591 358.623 321.043 358.623 322.906ZM355.521 322.026C355.521 320.09 354.824 319.122 353.431 319.122C352.785 319.122 352.279 319.364 351.913 319.848C351.561 320.317 351.348 321.087 351.275 322.158H355.521V322.026Z" fill="#3D32CF"/>
<path d="M502.658 388L501.8 384.59H497.026L496.168 388H492.802L497.488 372.776H501.426L506.09 388H502.658ZM497.642 382.192H501.184L499.402 375.174L497.642 382.192ZM512.205 372.776C514.185 372.776 515.717 373.187 516.803 374.008C517.903 374.829 518.453 376.054 518.453 377.682C518.453 379.383 517.91 380.667 516.825 381.532C515.739 382.383 514.287 382.808 512.469 382.808H510.731V388H507.497V372.776H512.205ZM512.205 380.432C513.143 380.432 513.862 380.219 514.361 379.794C514.859 379.369 515.109 378.665 515.109 377.682C515.109 375.966 514.126 375.108 512.161 375.108H510.731V380.432H512.205ZM526.587 372.424C527.54 372.424 528.369 372.563 529.073 372.842C529.777 373.106 530.466 373.517 531.141 374.074L529.535 375.944C528.655 375.225 527.731 374.866 526.763 374.866C525.677 374.866 524.812 375.313 524.167 376.208C523.536 377.088 523.221 378.474 523.221 380.366C523.221 382.214 523.536 383.585 524.167 384.48C524.812 385.36 525.685 385.8 526.785 385.8C527.357 385.8 527.877 385.697 528.347 385.492C528.816 385.272 529.307 384.964 529.821 384.568L531.317 386.438C530.774 386.995 530.099 387.457 529.293 387.824C528.501 388.176 527.621 388.352 526.653 388.352C525.289 388.352 524.093 388.044 523.067 387.428C522.04 386.812 521.241 385.91 520.669 384.722C520.097 383.519 519.811 382.067 519.811 380.366C519.811 378.709 520.104 377.286 520.691 376.098C521.277 374.895 522.084 373.986 523.111 373.37C524.137 372.739 525.296 372.424 526.587 372.424ZM537.576 372.424C538.676 372.424 539.629 372.585 540.436 372.908C541.257 373.216 542.013 373.693 542.702 374.338L541.162 376.12C540.619 375.68 540.077 375.357 539.534 375.152C538.991 374.947 538.412 374.844 537.796 374.844C537.121 374.844 536.579 374.991 536.168 375.284C535.772 375.563 535.574 375.966 535.574 376.494C535.574 376.861 535.655 377.161 535.816 377.396C535.992 377.631 536.293 377.851 536.718 378.056C537.143 378.261 537.781 378.496 538.632 378.76C540.143 379.244 541.272 379.845 542.02 380.564C542.768 381.268 543.142 382.28 543.142 383.6C543.142 384.539 542.907 385.367 542.438 386.086C541.969 386.79 541.287 387.347 540.392 387.758C539.497 388.154 538.449 388.352 537.246 388.352C536.043 388.352 534.973 388.161 534.034 387.78C533.095 387.399 532.289 386.878 531.614 386.218L533.264 384.392C533.851 384.891 534.459 385.272 535.09 385.536C535.721 385.785 536.41 385.91 537.158 385.91C537.95 385.91 538.581 385.727 539.05 385.36C539.534 384.993 539.776 384.48 539.776 383.82C539.776 383.409 539.688 383.072 539.512 382.808C539.351 382.529 539.065 382.28 538.654 382.06C538.243 381.84 537.649 381.613 536.872 381.378C535.215 380.865 534.027 380.249 533.308 379.53C532.604 378.811 532.252 377.873 532.252 376.714C532.252 375.863 532.479 375.115 532.934 374.47C533.389 373.81 534.019 373.304 534.826 372.952C535.633 372.6 536.549 372.424 537.576 372.424Z" fill="#3D32CF"/>
<path d="M650.98 341.984C650.98 343.025 650.76 343.949 650.32 344.756C649.88 345.563 649.22 346.201 648.34 346.67C647.475 347.125 646.419 347.352 645.172 347.352C643.295 347.352 641.857 346.868 640.86 345.9C639.877 344.917 639.386 343.612 639.386 341.984V331.776H642.62V341.83C642.62 342.857 642.825 343.627 643.236 344.14C643.647 344.639 644.292 344.888 645.172 344.888C646.052 344.888 646.697 344.639 647.108 344.14C647.533 343.627 647.746 342.857 647.746 341.83V331.776H650.98V341.984ZM642.664 326.804C643.133 326.804 643.522 326.965 643.83 327.288C644.153 327.596 644.314 327.977 644.314 328.432C644.314 328.887 644.153 329.275 643.83 329.598C643.522 329.906 643.133 330.06 642.664 330.06C642.209 330.06 641.821 329.906 641.498 329.598C641.175 329.275 641.014 328.887 641.014 328.432C641.014 327.977 641.175 327.596 641.498 327.288C641.821 326.965 642.209 326.804 642.664 326.804ZM647.636 326.804C648.105 326.804 648.501 326.965 648.824 327.288C649.147 327.596 649.308 327.977 649.308 328.432C649.308 328.887 649.147 329.275 648.824 329.598C648.501 329.906 648.105 330.06 647.636 330.06C647.181 330.06 646.793 329.906 646.47 329.598C646.162 329.275 646.008 328.887 646.008 328.432C646.008 327.977 646.162 327.596 646.47 327.288C646.793 326.965 647.181 326.804 647.636 326.804ZM660.249 334.988C661.613 334.988 662.669 335.531 663.417 336.616C664.179 337.701 664.561 339.219 664.561 341.17C664.561 342.373 664.37 343.443 663.989 344.382C663.622 345.306 663.087 346.032 662.383 346.56C661.693 347.088 660.879 347.352 659.941 347.352C658.665 347.352 657.645 346.853 656.883 345.856L656.707 347H653.935V330.698L657.059 330.346V336.594C657.425 336.095 657.887 335.707 658.445 335.428C659.002 335.135 659.603 334.988 660.249 334.988ZM659.061 345.042C660.557 345.042 661.305 343.751 661.305 341.17C661.305 339.747 661.121 338.75 660.755 338.178C660.403 337.591 659.889 337.298 659.215 337.298C658.379 337.298 657.66 337.797 657.059 338.794V343.788C657.572 344.624 658.239 345.042 659.061 345.042ZM676.896 340.906C676.896 341.053 676.874 341.456 676.83 342.116H669.548C669.651 343.172 669.937 343.92 670.406 344.36C670.875 344.8 671.513 345.02 672.32 345.02C672.819 345.02 673.288 344.939 673.728 344.778C674.168 344.617 674.645 344.36 675.158 344.008L676.456 345.768C675.151 346.824 673.677 347.352 672.034 347.352C670.201 347.352 668.793 346.802 667.81 345.702C666.827 344.602 666.336 343.113 666.336 341.236C666.336 340.048 666.541 338.985 666.952 338.046C667.377 337.093 667.986 336.345 668.778 335.802C669.585 335.259 670.538 334.988 671.638 334.988C673.295 334.988 674.586 335.509 675.51 336.55C676.434 337.591 676.896 339.043 676.896 340.906ZM673.794 340.026C673.794 338.09 673.097 337.122 671.704 337.122C671.059 337.122 670.553 337.364 670.186 337.848C669.834 338.317 669.621 339.087 669.548 340.158H673.794V340.026ZM685.185 335.01C685.537 335.01 685.926 335.069 686.351 335.186L685.823 338.2C685.413 338.097 685.068 338.046 684.789 338.046C684.1 338.046 683.565 338.288 683.183 338.772C682.802 339.256 682.501 339.989 682.281 340.972V347H679.157V335.34H681.863L682.149 337.606C682.428 336.785 682.831 336.147 683.359 335.692C683.902 335.237 684.511 335.01 685.185 335.01ZM702.487 335.34L700.001 347H696.195L694.523 338.134L692.851 347H689.089L686.537 335.34H689.683L691.113 344.69L693.049 335.34H696.173L697.911 344.69L699.495 335.34H702.487ZM712.839 343.766C712.839 344.221 712.905 344.558 713.037 344.778C713.169 344.983 713.389 345.137 713.697 345.24L713.037 347.308C712.347 347.249 711.783 347.088 711.343 346.824C710.917 346.56 710.587 346.149 710.353 345.592C709.59 346.765 708.424 347.352 706.855 347.352C705.696 347.352 704.772 347.022 704.083 346.362C703.408 345.687 703.071 344.815 703.071 343.744C703.071 342.468 703.533 341.493 704.457 340.818C705.381 340.143 706.708 339.806 708.439 339.806H709.781V339.234C709.781 338.515 709.619 338.017 709.297 337.738C708.974 337.459 708.439 337.32 707.691 337.32C706.869 337.32 705.843 337.525 704.611 337.936L703.907 335.846C705.359 335.274 706.796 334.988 708.219 334.988C709.803 334.988 710.969 335.333 711.717 336.022C712.465 336.697 712.839 337.709 712.839 339.058V343.766ZM707.713 345.108C708.593 345.108 709.282 344.675 709.781 343.81V341.588H708.747C707.06 341.588 706.217 342.219 706.217 343.48C706.217 343.993 706.341 344.397 706.591 344.69C706.855 344.969 707.229 345.108 707.713 345.108ZM720.822 334.988C721.599 334.988 722.296 335.105 722.912 335.34C723.543 335.56 724.137 335.912 724.694 336.396L723.33 338.244C722.949 337.951 722.575 337.738 722.208 337.606C721.856 337.474 721.467 337.408 721.042 337.408C719.385 337.408 718.556 338.684 718.556 341.236C718.556 342.527 718.769 343.451 719.194 344.008C719.619 344.565 720.228 344.844 721.02 344.844C721.431 344.844 721.805 344.785 722.142 344.668C722.479 344.536 722.875 344.323 723.33 344.03L724.694 345.988C723.579 346.897 722.303 347.352 720.866 347.352C719.722 347.352 718.725 347.103 717.874 346.604C717.038 346.105 716.393 345.401 715.938 344.492C715.483 343.568 715.256 342.49 715.256 341.258C715.256 340.026 715.483 338.941 715.938 338.002C716.393 337.049 717.038 336.308 717.874 335.78C718.725 335.252 719.707 334.988 720.822 334.988ZM732.978 334.988C733.99 334.988 734.782 335.303 735.354 335.934C735.94 336.55 736.234 337.408 736.234 338.508V347H733.11V339.036C733.11 338.405 733 337.965 732.78 337.716C732.56 337.452 732.244 337.32 731.834 337.32C731.012 337.32 730.264 337.855 729.59 338.926V347H726.466V330.698L729.59 330.368V336.66C730.059 336.103 730.565 335.685 731.108 335.406C731.665 335.127 732.288 334.988 732.978 334.988ZM748.754 347H746.048L745.894 345.438C745.483 346.083 744.985 346.567 744.398 346.89C743.811 347.198 743.129 347.352 742.352 347.352C741.296 347.352 740.489 347.037 739.932 346.406C739.375 345.761 739.096 344.866 739.096 343.722V335.34H742.22V343.326C742.22 343.942 742.323 344.382 742.528 344.646C742.733 344.895 743.056 345.02 743.496 345.02C744.332 345.02 745.043 344.514 745.63 343.502V335.34H748.754V347ZM758.351 334.988C759.377 334.988 760.177 335.303 760.749 335.934C761.321 336.55 761.607 337.408 761.607 338.508V347H758.483V339.036C758.483 338.405 758.373 337.965 758.153 337.716C757.947 337.452 757.632 337.32 757.207 337.32C756.767 337.32 756.363 337.459 755.997 337.738C755.645 338.002 755.3 338.405 754.963 338.948V347H751.839V335.34H754.545L754.787 336.814C755.271 336.213 755.799 335.758 756.371 335.45C756.957 335.142 757.617 334.988 758.351 334.988ZM775.007 335.978C774.244 336.271 773.122 336.418 771.641 336.418C772.374 336.741 772.917 337.144 773.269 337.628C773.621 338.097 773.797 338.691 773.797 339.41C773.797 340.158 773.599 340.833 773.203 341.434C772.822 342.021 772.264 342.483 771.531 342.82C770.812 343.157 769.969 343.326 769.001 343.326C768.488 343.326 768.033 343.275 767.637 343.172C767.344 343.363 767.197 343.619 767.197 343.942C767.197 344.177 767.285 344.367 767.461 344.514C767.652 344.646 768.011 344.712 768.539 344.712H770.321C771.186 344.712 771.942 344.859 772.587 345.152C773.247 345.431 773.753 345.827 774.105 346.34C774.472 346.839 774.655 347.411 774.655 348.056C774.655 349.244 774.142 350.168 773.115 350.828C772.103 351.503 770.636 351.84 768.715 351.84C767.336 351.84 766.244 351.693 765.437 351.4C764.645 351.121 764.088 350.711 763.765 350.168C763.442 349.625 763.281 348.943 763.281 348.122H766.075C766.075 348.503 766.148 348.804 766.295 349.024C766.442 349.259 766.706 349.427 767.087 349.53C767.483 349.647 768.048 349.706 768.781 349.706C769.793 349.706 770.497 349.581 770.893 349.332C771.304 349.083 771.509 348.731 771.509 348.276C771.509 347.865 771.355 347.55 771.047 347.33C770.739 347.11 770.284 347 769.683 347H767.967C766.808 347 765.943 346.787 765.371 346.362C764.799 345.922 764.513 345.372 764.513 344.712C764.513 344.301 764.63 343.905 764.865 343.524C765.114 343.128 765.452 342.798 765.877 342.534C765.158 342.138 764.63 341.676 764.293 341.148C763.97 340.605 763.809 339.96 763.809 339.212C763.809 338.361 764.014 337.621 764.425 336.99C764.85 336.345 765.437 335.853 766.185 335.516C766.948 335.164 767.813 334.988 768.781 334.988C769.984 335.017 770.974 334.915 771.751 334.68C772.528 334.445 773.357 334.079 774.237 333.58L775.007 335.978ZM768.847 337.078C768.26 337.078 767.791 337.269 767.439 337.65C767.102 338.017 766.933 338.523 766.933 339.168C766.933 339.828 767.102 340.349 767.439 340.73C767.791 341.111 768.268 341.302 768.869 341.302C769.5 341.302 769.976 341.119 770.299 340.752C770.622 340.385 770.783 339.843 770.783 339.124C770.783 337.76 770.138 337.078 768.847 337.078ZM780.246 334.988C781.889 334.988 783.297 335.457 784.47 336.396L783.282 338.178C782.299 337.562 781.331 337.254 780.378 337.254C779.865 337.254 779.469 337.349 779.19 337.54C778.911 337.731 778.772 337.987 778.772 338.31C778.772 338.545 778.831 338.743 778.948 338.904C779.08 339.065 779.315 339.219 779.652 339.366C780.004 339.513 780.525 339.689 781.214 339.894C782.446 340.231 783.363 340.686 783.964 341.258C784.565 341.815 784.866 342.585 784.866 343.568C784.866 344.345 784.639 345.02 784.184 345.592C783.744 346.164 783.143 346.604 782.38 346.912C781.617 347.205 780.767 347.352 779.828 347.352C778.845 347.352 777.951 347.205 777.144 346.912C776.337 346.604 775.648 346.186 775.076 345.658L776.616 343.942C777.599 344.705 778.64 345.086 779.74 345.086C780.327 345.086 780.789 344.976 781.126 344.756C781.478 344.521 781.654 344.206 781.654 343.81C781.654 343.502 781.588 343.26 781.456 343.084C781.324 342.908 781.082 342.747 780.73 342.6C780.378 342.439 779.828 342.255 779.08 342.05C777.907 341.727 777.034 341.273 776.462 340.686C775.905 340.085 775.626 339.344 775.626 338.464C775.626 337.804 775.817 337.21 776.198 336.682C776.579 336.154 777.115 335.743 777.804 335.45C778.508 335.142 779.322 334.988 780.246 334.988ZM790.601 334.988C792.244 334.988 793.652 335.457 794.825 336.396L793.637 338.178C792.655 337.562 791.687 337.254 790.733 337.254C790.22 337.254 789.824 337.349 789.545 337.54C789.267 337.731 789.127 337.987 789.127 338.31C789.127 338.545 789.186 338.743 789.303 338.904C789.435 339.065 789.67 339.219 790.007 339.366C790.359 339.513 790.88 339.689 791.569 339.894C792.801 340.231 793.718 340.686 794.319 341.258C794.921 341.815 795.221 342.585 795.221 343.568C795.221 344.345 794.994 345.02 794.539 345.592C794.099 346.164 793.498 346.604 792.735 346.912C791.973 347.205 791.122 347.352 790.183 347.352C789.201 347.352 788.306 347.205 787.499 346.912C786.693 346.604 786.003 346.186 785.431 345.658L786.971 343.942C787.954 344.705 788.995 345.086 790.095 345.086C790.682 345.086 791.144 344.976 791.481 344.756C791.833 344.521 792.009 344.206 792.009 343.81C792.009 343.502 791.943 343.26 791.811 343.084C791.679 342.908 791.437 342.747 791.085 342.6C790.733 342.439 790.183 342.255 789.435 342.05C788.262 341.727 787.389 341.273 786.817 340.686C786.26 340.085 785.981 339.344 785.981 338.464C785.981 337.804 786.172 337.21 786.553 336.682C786.935 336.154 787.47 335.743 788.159 335.45C788.863 335.142 789.677 334.988 790.601 334.988ZM802.876 347.022C802.407 348.503 801.666 349.647 800.654 350.454C799.657 351.261 798.3 351.723 796.584 351.84L796.254 349.596C797.369 349.449 798.183 349.185 798.696 348.804C799.224 348.423 799.657 347.821 799.994 347H798.916L795.286 335.34H798.608L800.94 344.976L803.404 335.34H806.638L802.876 347.022ZM811.828 334.988C813.471 334.988 814.879 335.457 816.052 336.396L814.864 338.178C813.881 337.562 812.913 337.254 811.96 337.254C811.447 337.254 811.051 337.349 810.772 337.54C810.493 337.731 810.354 337.987 810.354 338.31C810.354 338.545 810.413 338.743 810.53 338.904C810.662 339.065 810.897 339.219 811.234 339.366C811.586 339.513 812.107 339.689 812.796 339.894C814.028 340.231 814.945 340.686 815.546 341.258C816.147 341.815 816.448 342.585 816.448 343.568C816.448 344.345 816.221 345.02 815.766 345.592C815.326 346.164 814.725 346.604 813.962 346.912C813.199 347.205 812.349 347.352 811.41 347.352C810.427 347.352 809.533 347.205 808.726 346.912C807.919 346.604 807.23 346.186 806.658 345.658L808.198 343.942C809.181 344.705 810.222 345.086 811.322 345.086C811.909 345.086 812.371 344.976 812.708 344.756C813.06 344.521 813.236 344.206 813.236 343.81C813.236 343.502 813.17 343.26 813.038 343.084C812.906 342.908 812.664 342.747 812.312 342.6C811.96 342.439 811.41 342.255 810.662 342.05C809.489 341.727 808.616 341.273 808.044 340.686C807.487 340.085 807.208 339.344 807.208 338.464C807.208 337.804 807.399 337.21 807.78 336.682C808.161 336.154 808.697 335.743 809.386 335.45C810.09 335.142 810.904 334.988 811.828 334.988ZM825.457 346.45C825.032 346.743 824.548 346.963 824.005 347.11C823.477 347.271 822.949 347.352 822.421 347.352C821.219 347.337 820.309 346.993 819.693 346.318C819.077 345.643 818.769 344.653 818.769 343.348V337.54H817.031V335.34H818.769V332.788L821.893 332.414V335.34H824.577L824.269 337.54H821.893V343.282C821.893 343.839 821.989 344.243 822.179 344.492C822.37 344.741 822.663 344.866 823.059 344.866C823.455 344.866 823.895 344.734 824.379 344.47L825.457 346.45ZM836.332 340.906C836.332 341.053 836.31 341.456 836.266 342.116H828.984C829.086 343.172 829.372 343.92 829.842 344.36C830.311 344.8 830.949 345.02 831.756 345.02C832.254 345.02 832.724 344.939 833.164 344.778C833.604 344.617 834.08 344.36 834.594 344.008L835.892 345.768C834.586 346.824 833.112 347.352 831.47 347.352C829.636 347.352 828.228 346.802 827.246 345.702C826.263 344.602 825.772 343.113 825.772 341.236C825.772 340.048 825.977 338.985 826.388 338.046C826.813 337.093 827.422 336.345 828.214 335.802C829.02 335.259 829.974 334.988 831.074 334.988C832.731 334.988 834.022 335.509 834.946 336.55C835.87 337.591 836.332 339.043 836.332 340.906ZM833.23 340.026C833.23 338.09 832.533 337.122 831.14 337.122C830.494 337.122 829.988 337.364 829.622 337.848C829.27 338.317 829.057 339.087 828.984 340.158H833.23V340.026ZM851.199 334.988C852.123 334.988 852.863 335.303 853.421 335.934C853.993 336.565 854.279 337.423 854.279 338.508V347H851.155V339.036C851.155 337.892 850.773 337.32 850.011 337.32C849.6 337.32 849.241 337.452 848.933 337.716C848.625 337.98 848.309 338.391 847.987 338.948V347H844.863V339.036C844.863 337.892 844.481 337.32 843.719 337.32C843.308 337.32 842.949 337.459 842.641 337.738C842.333 338.002 842.025 338.405 841.717 338.948V347H838.593V335.34H841.299L841.541 336.792C841.981 336.205 842.472 335.758 843.015 335.45C843.572 335.142 844.21 334.988 844.929 334.988C845.589 334.988 846.161 335.157 846.645 335.494C847.129 335.817 847.481 336.279 847.701 336.88C848.185 336.249 848.705 335.78 849.263 335.472C849.835 335.149 850.48 334.988 851.199 334.988ZM867.097 340.906C867.097 341.053 867.075 341.456 867.031 342.116H859.749C859.852 343.172 860.138 343.92 860.607 344.36C861.077 344.8 861.715 345.02 862.521 345.02C863.02 345.02 863.489 344.939 863.929 344.778C864.369 344.617 864.846 344.36 865.359 344.008L866.657 345.768C865.352 346.824 863.878 347.352 862.235 347.352C860.402 347.352 858.994 346.802 858.011 345.702C857.029 344.602 856.537 343.113 856.537 341.236C856.537 340.048 856.743 338.985 857.153 338.046C857.579 337.093 858.187 336.345 858.979 335.802C859.786 335.259 860.739 334.988 861.839 334.988C863.497 334.988 864.787 335.509 865.711 336.55C866.635 337.591 867.097 339.043 867.097 340.906ZM863.995 340.026C863.995 338.09 863.299 337.122 861.905 337.122C861.26 337.122 860.754 337.364 860.387 337.848C860.035 338.317 859.823 339.087 859.749 340.158H863.995V340.026ZM644.534 358.678C644.006 358.678 643.625 358.803 643.39 359.052C643.17 359.301 643.06 359.705 643.06 360.262V361.34H645.832L645.48 363.54H643.06V373H639.936V363.54H638.088V361.34H639.936V360.174C639.936 359.045 640.303 358.128 641.036 357.424C641.784 356.705 642.84 356.346 644.204 356.346C645.289 356.346 646.316 356.581 647.284 357.05L646.426 359.118C645.795 358.825 645.165 358.678 644.534 358.678ZM656.801 373H654.095L653.941 371.438C653.53 372.083 653.032 372.567 652.445 372.89C651.858 373.198 651.176 373.352 650.399 373.352C649.343 373.352 648.536 373.037 647.979 372.406C647.422 371.761 647.143 370.866 647.143 369.722V361.34H650.267V369.326C650.267 369.942 650.37 370.382 650.575 370.646C650.78 370.895 651.103 371.02 651.543 371.02C652.379 371.02 653.09 370.514 653.677 369.502V361.34H656.801V373ZM649.475 355.576C649.944 355.576 650.333 355.737 650.641 356.06C650.964 356.368 651.125 356.749 651.125 357.204C651.125 357.659 650.964 358.047 650.641 358.37C650.333 358.678 649.944 358.832 649.475 358.832C649.02 358.832 648.632 358.678 648.309 358.37C647.986 358.047 647.825 357.659 647.825 357.204C647.825 356.749 647.986 356.368 648.309 356.06C648.632 355.737 649.02 355.576 649.475 355.576ZM654.447 355.576C654.916 355.576 655.312 355.737 655.635 356.06C655.958 356.368 656.119 356.749 656.119 357.204C656.119 357.659 655.958 358.047 655.635 358.37C655.312 358.678 654.916 358.832 654.447 358.832C653.992 358.832 653.604 358.678 653.281 358.37C652.973 358.047 652.819 357.659 652.819 357.204C652.819 356.749 652.973 356.368 653.281 356.06C653.604 355.737 653.992 355.576 654.447 355.576ZM665.914 361.01C666.266 361.01 666.654 361.069 667.08 361.186L666.552 364.2C666.141 364.097 665.796 364.046 665.518 364.046C664.828 364.046 664.293 364.288 663.912 364.772C663.53 365.256 663.23 365.989 663.01 366.972V373H659.886V361.34H662.592L662.878 363.606C663.156 362.785 663.56 362.147 664.088 361.692C664.63 361.237 665.239 361.01 665.914 361.01ZM680.425 357.424C681.452 357.424 682.361 357.585 683.153 357.908C683.96 358.216 684.708 358.663 685.397 359.25L683.703 361.01C683.16 360.599 682.647 360.299 682.163 360.108C681.694 359.917 681.158 359.822 680.557 359.822C679.398 359.822 678.46 360.284 677.741 361.208C677.037 362.117 676.685 363.511 676.685 365.388C676.685 367.368 676.956 368.791 677.499 369.656C678.056 370.507 678.914 370.932 680.073 370.932C680.909 370.932 681.664 370.749 682.339 370.382V366.664H680.205L679.875 364.31H685.485V371.812C684.693 372.296 683.835 372.677 682.911 372.956C682.002 373.22 681.078 373.352 680.139 373.352C677.895 373.352 676.194 372.677 675.035 371.328C673.876 369.979 673.297 367.991 673.297 365.366C673.297 363.709 673.612 362.279 674.243 361.076C674.874 359.873 675.724 358.964 676.795 358.348C677.88 357.732 679.09 357.424 680.425 357.424ZM697.951 366.906C697.951 367.053 697.929 367.456 697.885 368.116H690.603C690.705 369.172 690.991 369.92 691.461 370.36C691.93 370.8 692.568 371.02 693.375 371.02C693.873 371.02 694.343 370.939 694.783 370.778C695.223 370.617 695.699 370.36 696.213 370.008L697.511 371.768C696.205 372.824 694.731 373.352 693.089 373.352C691.255 373.352 689.847 372.802 688.865 371.702C687.882 370.602 687.391 369.113 687.391 367.236C687.391 366.048 687.596 364.985 688.007 364.046C688.432 363.093 689.041 362.345 689.833 361.802C690.639 361.259 691.593 360.988 692.693 360.988C694.35 360.988 695.641 361.509 696.565 362.55C697.489 363.591 697.951 365.043 697.951 366.906ZM694.849 366.026C694.849 364.09 694.152 363.122 692.759 363.122C692.113 363.122 691.607 363.364 691.241 363.848C690.889 364.317 690.676 365.087 690.603 366.158H694.849V366.026ZM706.24 361.01C706.592 361.01 706.981 361.069 707.406 361.186L706.878 364.2C706.467 364.097 706.123 364.046 705.844 364.046C705.155 364.046 704.619 364.288 704.238 364.772C703.857 365.256 703.556 365.989 703.336 366.972V373H700.212V361.34H702.918L703.204 363.606C703.483 362.785 703.886 362.147 704.414 361.692C704.957 361.237 705.565 361.01 706.24 361.01ZM717.093 369.766C717.093 370.221 717.159 370.558 717.291 370.778C717.423 370.983 717.643 371.137 717.951 371.24L717.291 373.308C716.601 373.249 716.037 373.088 715.597 372.824C715.171 372.56 714.841 372.149 714.607 371.592C713.844 372.765 712.678 373.352 711.109 373.352C709.95 373.352 709.026 373.022 708.337 372.362C707.662 371.687 707.325 370.815 707.325 369.744C707.325 368.468 707.787 367.493 708.711 366.818C709.635 366.143 710.962 365.806 712.693 365.806H714.035V365.234C714.035 364.515 713.873 364.017 713.551 363.738C713.228 363.459 712.693 363.32 711.945 363.32C711.123 363.32 710.097 363.525 708.865 363.936L708.161 361.846C709.613 361.274 711.05 360.988 712.473 360.988C714.057 360.988 715.223 361.333 715.971 362.022C716.719 362.697 717.093 363.709 717.093 365.058V369.766ZM711.967 371.108C712.847 371.108 713.536 370.675 714.035 369.81V367.588H713.001C711.314 367.588 710.471 368.219 710.471 369.48C710.471 369.993 710.595 370.397 710.845 370.69C711.109 370.969 711.483 371.108 711.967 371.108ZM710.053 355.576C710.522 355.576 710.911 355.737 711.219 356.06C711.541 356.368 711.703 356.749 711.703 357.204C711.703 357.659 711.541 358.047 711.219 358.37C710.911 358.678 710.522 358.832 710.053 358.832C709.598 358.832 709.209 358.678 708.887 358.37C708.564 358.047 708.403 357.659 708.403 357.204C708.403 356.749 708.564 356.368 708.887 356.06C709.209 355.737 709.598 355.576 710.053 355.576ZM715.025 355.576C715.494 355.576 715.89 355.737 716.213 356.06C716.535 356.368 716.697 356.749 716.697 357.204C716.697 357.659 716.535 358.047 716.213 358.37C715.89 358.678 715.494 358.832 715.025 358.832C714.57 358.832 714.181 358.678 713.859 358.37C713.551 358.047 713.397 357.659 713.397 357.204C713.397 356.749 713.551 356.368 713.859 356.06C714.181 355.737 714.57 355.576 715.025 355.576ZM727.188 372.45C726.762 372.743 726.278 372.963 725.736 373.11C725.208 373.271 724.68 373.352 724.152 373.352C722.949 373.337 722.04 372.993 721.424 372.318C720.808 371.643 720.5 370.653 720.5 369.348V363.54H718.762V361.34H720.5V358.788L723.624 358.414V361.34H726.308L726 363.54H723.624V369.282C723.624 369.839 723.719 370.243 723.91 370.492C724.1 370.741 724.394 370.866 724.79 370.866C725.186 370.866 725.626 370.734 726.11 370.47L727.188 372.45ZM738.062 366.906C738.062 367.053 738.04 367.456 737.996 368.116H730.714C730.817 369.172 731.103 369.92 731.572 370.36C732.041 370.8 732.679 371.02 733.486 371.02C733.985 371.02 734.454 370.939 734.894 370.778C735.334 370.617 735.811 370.36 736.324 370.008L737.622 371.768C736.317 372.824 734.843 373.352 733.2 373.352C731.367 373.352 729.959 372.802 728.976 371.702C727.993 370.602 727.502 369.113 727.502 367.236C727.502 366.048 727.707 364.985 728.118 364.046C728.543 363.093 729.152 362.345 729.944 361.802C730.751 361.259 731.704 360.988 732.804 360.988C734.461 360.988 735.752 361.509 736.676 362.55C737.6 363.591 738.062 365.043 738.062 366.906ZM734.96 366.026C734.96 364.09 734.263 363.122 732.87 363.122C732.225 363.122 731.719 363.364 731.352 363.848C731 364.317 730.787 365.087 730.714 366.158H734.96V366.026Z" fill="#3D32CF"/>
<path d="M971.704 183.776L971.352 186.306H967.502V199H964.268V186.306H960.22V183.776H971.704ZM981.945 192.906C981.945 193.053 981.923 193.456 981.879 194.116H974.597C974.699 195.172 974.985 195.92 975.455 196.36C975.924 196.8 976.562 197.02 977.369 197.02C977.867 197.02 978.337 196.939 978.777 196.778C979.217 196.617 979.693 196.36 980.207 196.008L981.505 197.768C980.199 198.824 978.725 199.352 977.083 199.352C975.249 199.352 973.841 198.802 972.859 197.702C971.876 196.602 971.385 195.113 971.385 193.236C971.385 192.048 971.59 190.985 972.001 190.046C972.426 189.093 973.035 188.345 973.827 187.802C974.633 187.259 975.587 186.988 976.687 186.988C978.344 186.988 979.635 187.509 980.559 188.55C981.483 189.591 981.945 191.043 981.945 192.906ZM978.843 192.026C978.843 190.09 978.146 189.122 976.753 189.122C976.107 189.122 975.601 189.364 975.235 189.848C974.883 190.317 974.67 191.087 974.597 192.158H978.843V192.026ZM987.11 199.352C986.157 199.352 985.416 199.081 984.888 198.538C984.36 197.981 984.096 197.196 984.096 196.184V182.698L987.22 182.346V196.096C987.22 196.609 987.433 196.866 987.858 196.866C988.093 196.866 988.298 196.822 988.474 196.734L989.112 198.956C988.511 199.22 987.843 199.352 987.11 199.352ZM1000.46 192.906C1000.46 193.053 1000.44 193.456 1000.4 194.116H993.116C993.219 195.172 993.505 195.92 993.974 196.36C994.444 196.8 995.082 197.02 995.888 197.02C996.387 197.02 996.856 196.939 997.296 196.778C997.736 196.617 998.213 196.36 998.726 196.008L1000.02 197.768C998.719 198.824 997.245 199.352 995.602 199.352C993.769 199.352 992.361 198.802 991.378 197.702C990.396 196.602 989.904 195.113 989.904 193.236C989.904 192.048 990.11 190.985 990.52 190.046C990.946 189.093 991.554 188.345 992.346 187.802C993.153 187.259 994.106 186.988 995.206 186.988C996.864 186.988 998.154 187.509 999.078 188.55C1000 189.591 1000.46 191.043 1000.46 192.906ZM997.362 192.026C997.362 190.09 996.666 189.122 995.272 189.122C994.627 189.122 994.121 189.364 993.754 189.848C993.402 190.317 993.19 191.087 993.116 192.158H997.362V192.026ZM1015.33 186.988C1016.26 186.988 1017 187.303 1017.55 187.934C1018.13 188.565 1018.41 189.423 1018.41 190.508V199H1015.29V191.036C1015.29 189.892 1014.91 189.32 1014.14 189.32C1013.73 189.32 1013.37 189.452 1013.07 189.716C1012.76 189.98 1012.44 190.391 1012.12 190.948V199H1009V191.036C1009 189.892 1008.61 189.32 1007.85 189.32C1007.44 189.32 1007.08 189.459 1006.77 189.738C1006.47 190.002 1006.16 190.405 1005.85 190.948V199H1002.73V187.34H1005.43L1005.67 188.792C1006.11 188.205 1006.6 187.758 1007.15 187.45C1007.7 187.142 1008.34 186.988 1009.06 186.988C1009.72 186.988 1010.29 187.157 1010.78 187.494C1011.26 187.817 1011.61 188.279 1011.83 188.88C1012.32 188.249 1012.84 187.78 1013.4 187.472C1013.97 187.149 1014.61 186.988 1015.33 186.988ZM1031.23 192.906C1031.23 193.053 1031.21 193.456 1031.16 194.116H1023.88C1023.98 195.172 1024.27 195.92 1024.74 196.36C1025.21 196.8 1025.85 197.02 1026.65 197.02C1027.15 197.02 1027.62 196.939 1028.06 196.778C1028.5 196.617 1028.98 196.36 1029.49 196.008L1030.79 197.768C1029.48 198.824 1028.01 199.352 1026.37 199.352C1024.53 199.352 1023.13 198.802 1022.14 197.702C1021.16 196.602 1020.67 195.113 1020.67 193.236C1020.67 192.048 1020.88 190.985 1021.29 190.046C1021.71 189.093 1022.32 188.345 1023.11 187.802C1023.92 187.259 1024.87 186.988 1025.97 186.988C1027.63 186.988 1028.92 187.509 1029.84 188.55C1030.77 189.591 1031.23 191.043 1031.23 192.906ZM1028.13 192.026C1028.13 190.09 1027.43 189.122 1026.04 189.122C1025.39 189.122 1024.89 189.364 1024.52 189.848C1024.17 190.317 1023.96 191.087 1023.88 192.158H1028.13V192.026ZM1040.47 198.45C1040.04 198.743 1039.56 198.963 1039.01 199.11C1038.49 199.271 1037.96 199.352 1037.43 199.352C1036.23 199.337 1035.32 198.993 1034.7 198.318C1034.09 197.643 1033.78 196.653 1033.78 195.348V189.54H1032.04V187.34H1033.78V184.788L1036.9 184.414V187.34H1039.59L1039.28 189.54H1036.9V195.282C1036.9 195.839 1037 196.243 1037.19 196.492C1037.38 196.741 1037.67 196.866 1038.07 196.866C1038.46 196.866 1038.9 196.734 1039.39 196.47L1040.47 198.45ZM1047.88 187.01C1048.23 187.01 1048.62 187.069 1049.04 187.186L1048.51 190.2C1048.1 190.097 1047.76 190.046 1047.48 190.046C1046.79 190.046 1046.26 190.288 1045.87 190.772C1045.49 191.256 1045.19 191.989 1044.97 192.972V199H1041.85V187.34H1044.55L1044.84 189.606C1045.12 188.785 1045.52 188.147 1046.05 187.692C1046.59 187.237 1047.2 187.01 1047.88 187.01ZM1053.72 187.34V199H1050.59V187.34H1053.72ZM1052.13 181.334C1052.69 181.334 1053.14 181.51 1053.5 181.862C1053.86 182.199 1054.05 182.632 1054.05 183.16C1054.05 183.688 1053.86 184.128 1053.5 184.48C1053.14 184.817 1052.69 184.986 1052.13 184.986C1051.58 184.986 1051.12 184.817 1050.77 184.48C1050.42 184.128 1050.24 183.688 1050.24 183.16C1050.24 182.632 1050.42 182.199 1050.77 181.862C1051.12 181.51 1051.58 181.334 1052.13 181.334ZM1066.66 192.906C1066.66 193.053 1066.64 193.456 1066.59 194.116H1059.31C1059.41 195.172 1059.7 195.92 1060.17 196.36C1060.64 196.8 1061.28 197.02 1062.08 197.02C1062.58 197.02 1063.05 196.939 1063.49 196.778C1063.93 196.617 1064.41 196.36 1064.92 196.008L1066.22 197.768C1064.91 198.824 1063.44 199.352 1061.8 199.352C1059.96 199.352 1058.55 198.802 1057.57 197.702C1056.59 196.602 1056.1 195.113 1056.1 193.236C1056.1 192.048 1056.3 190.985 1056.71 190.046C1057.14 189.093 1057.75 188.345 1058.54 187.802C1059.35 187.259 1060.3 186.988 1061.4 186.988C1063.06 186.988 1064.35 187.509 1065.27 188.55C1066.2 189.591 1066.66 191.043 1066.66 192.906ZM1063.56 192.026C1063.56 190.09 1062.86 189.122 1061.47 189.122C1060.82 189.122 1060.31 189.364 1059.95 189.848C1059.6 190.317 1059.38 191.087 1059.31 192.158H1063.56V192.026Z" fill="#3D32CF"/>
</svg>
