<svg width="1050" height="394" viewBox="0 0 1050 394" fill="none" xmlns="http://www.w3.org/2000/svg">
<line y1="-1" x2="177.91" y2="-1" transform="matrix(-0.995246 0.0973931 -0.0976123 -0.995225 211.137 186.414)" stroke="#3D32CF" stroke-width="2"/>
<line y1="-1" x2="146.797" y2="-1" transform="matrix(-0.737381 0.675477 -0.676311 -0.736617 395.848 200.483)" stroke="#3D32CF" stroke-width="2"/>
<line x1="502.224" y1="206.345" x2="502.224" y2="352.896" stroke="#3D32CF" stroke-width="2"/>
<line y1="-1" x2="104.895" y2="-1" transform="matrix(0.300946 0.953641 -0.953837 0.300325 672.591 211.034)" stroke="#3D32CF" stroke-width="2"/>
<line y1="-1" x2="146.716" y2="-1" transform="matrix(-0.994844 -0.101416 0.101644 -0.994821 930.21 190.757)" stroke="#3D32CF" stroke-width="2"/>
<path fill-rule="evenodd" clip-rule="evenodd" d="M625.462 111.65H642.915C644.172 111.65 644.239 113.293 644.527 114.319L650.489 138.656H616.571C617.225 137.293 618.067 133.455 618.547 131.74L623.623 114.421C624.034 113.339 624.337 111.65 625.462 111.65ZM744.008 132.399H702.517V113.955H744.996C746.661 113.955 749.371 115.989 750.284 116.9C757.284 123.885 750.62 132.399 744.008 132.399ZM744.666 100.122H702.517V81.6786H744.337C746.426 81.6786 748.952 83.359 750.179 84.3988C756.907 90.0996 751.363 100.122 744.666 100.122ZM632.707 67.1873V65.5407C632.707 63.4837 635.26 60.9296 637.317 60.9296H638.963C641.02 60.9296 643.573 63.4837 643.573 65.5407V67.1873C643.573 69.2439 641.02 71.7981 638.963 71.7981H637.317C635.26 71.7981 632.707 69.2439 632.707 67.1873ZM680.125 5.92831C680.125 10.8542 682.329 13.8327 687.699 13.8327C687.864 15.8158 692.138 25.2069 692.926 27.3779L698.342 41.0628C699.419 43.1684 700.089 45.3141 701.008 47.6185C702.101 50.3613 708.956 66.4132 709.103 68.1754H689.016V82.6666L646.191 68.5547C646.208 65.1113 646.34 63.3981 644.65 61.4998C638.414 54.4956 630.073 60.1426 630.073 65.5407V67.1873C630.073 70.8544 633.888 74.4331 637.646 74.4331C636.295 80.2354 635.728 86.4873 634.821 92.3569C634.63 93.5997 634.522 94.4746 634.379 95.5373C634.17 97.091 633.989 97.2108 633.695 98.4754C630.825 98.4754 622.504 97.9861 620.413 98.6944C617.994 99.5132 613.676 102.588 612.502 104.615C611.084 107.064 601.546 141.783 600.068 146.851C599.19 149.862 594.18 165.7 594.18 168.627C594.18 170.58 593.755 171.854 595.048 173.357C596.263 174.77 597.48 175.744 599.448 176.202C599.395 178.575 598.282 182.913 597.892 185.185L595.495 198.596C594.772 203.13 595.06 201.026 592.009 203.014L590.578 204.217C586.572 208.748 590.336 215.724 594.838 215.724C597.193 215.724 599.008 215.397 600.748 213.731L601.987 212.006C603.962 208.325 602.035 203.207 597.802 202.221C597.802 198.548 601.064 183.071 601.919 178.015C602.412 175.102 603.308 176.92 606.132 173.995C608.642 171.395 610.855 156.524 612.949 152.16H654.111L658.915 172.055C659.195 172.871 659.94 173.905 660.452 174.47C661.122 175.209 662.06 175.693 663.21 175.994C664.702 176.384 665.435 176.041 665.888 177.268C666.05 177.707 666.367 180.262 666.483 180.954C666.908 183.498 667.248 185.542 667.658 188.012C668.036 190.29 668.504 192.744 668.882 195.021C669.251 197.24 669.917 199.927 669.917 202.221C669.48 202.513 669 202.813 668.541 203.151C662.616 207.514 666.695 215.724 671.563 215.724C673.918 215.724 675.733 215.397 677.474 213.731C681.183 210.179 679.476 203.676 674.61 202.138C671.9 201.281 672.782 202.314 672.312 199.167C672.06 197.482 671.823 196.209 671.563 194.646C670.86 190.408 668.6 180.189 668.6 176.202C668.6 175.256 672.222 174.582 672.222 169.944C672.222 165.111 663.021 132.346 661.614 126.87L657.543 111.181C656.713 108.261 656.689 105.099 654.49 103.036L653.261 101.96C651.923 100.841 650.743 99.7529 649.107 99.1985C645.53 97.9864 640.303 98.4754 636.329 98.4754C636.024 97.033 636.649 94.4454 636.889 92.7778L638.73 80.787C638.978 79.2983 639.622 76.0704 639.622 74.4331C648.668 72.3252 637.4 68.4745 655.881 74.6381L677.862 81.966C681.434 83.1568 685.357 84.7781 689.016 85.6308V145.902H744.996C756.867 145.902 767.058 134.723 767.058 123.177C767.058 117.081 763.983 109.39 760.472 107.039C761.914 104.886 763.562 103.172 764.757 100.785C767.421 95.4642 767.839 88.0667 765.303 82.4457C762.426 76.0658 757.73 70.5735 750.264 68.8339C751.162 64.9802 754.055 59.0258 755.627 55.0958C757.63 50.0933 771.172 17.376 771.998 13.8327C775.369 13.8327 776.194 14.0657 778.316 12.577C779.138 12.0001 779.548 11.6337 780.107 10.7452C783.174 5.86761 779.384 0 775.29 0C772.669 0 770.362 0.516592 768.76 2.6903C766.172 6.20137 767.452 9.16824 769.693 12.5152C769.132 14.9219 767.906 17.145 767.011 19.3844L753.087 54.2019C751.553 58.0366 748.497 64.4519 747.63 68.1754H712.066C711.231 64.5912 702.798 44.6738 701.247 40.792C699.395 36.1579 697.667 31.842 695.79 27.1476C694.821 24.7242 694.024 22.7286 693.062 20.325C692.195 18.1587 690.836 15.3315 690.333 13.1737C697.356 8.47 692.941 0 688.028 0C684.839 0 682.406 0.871353 680.879 3.71802C680.483 4.45517 680.125 4.999 680.125 5.92831Z" fill="#3D32CF"/>
<path fill-rule="evenodd" clip-rule="evenodd" d="M538.2 153.477V151.83C538.2 149.773 540.754 147.219 542.81 147.219H544.456C546.513 147.219 549.066 149.773 549.066 151.83V153.477C549.066 155.534 546.513 158.088 544.456 158.088H542.81C540.754 158.088 538.2 155.534 538.2 153.477ZM487.489 5.92831C487.489 8.0355 487.93 10.385 489.433 11.8881C491.752 14.2073 494.524 13.7397 497.368 13.5032C499.63 16.8832 501.987 19.8574 504.422 23.2448C509.635 30.4973 515.466 37.3763 520.49 44.7193C521.693 46.4772 521.077 54.5675 521.077 56.9774C521.077 65.953 520.26 82.8047 521.643 90.0042C522.524 94.5917 524.707 98.2412 527.845 100.598C531.504 103.345 536.151 105.721 541.493 105.721C541.493 118.912 542.151 131.282 542.151 144.585C540.327 145.01 537.404 146.254 536.883 148.207C534.846 148.038 520.671 141.218 517.546 139.882C514.213 138.458 511.243 136.994 507.952 135.645C504.868 134.38 501.278 132.168 498.026 131.41C498.026 127.081 497.568 118.914 498.167 115.08C498.563 112.551 497.695 102.605 496.812 100.349C495.108 95.9987 492.962 93.7857 489.337 91.3572C487.001 89.7915 480.561 86.9483 476.951 86.9483H423.606C414.453 86.9483 407.995 91.9329 404.389 99.0169C403.453 100.857 401.873 104.525 401.873 107.039V160.064C401.873 162.681 404.307 164.168 406.483 164.675C406.361 166.137 405.719 167.99 405.308 169.428L399.213 191.327C398.319 194.725 398.192 192.555 395.482 193.853C391.228 195.89 389.711 201.648 393.279 205.217C395.975 207.913 400.52 207.707 403.172 205.168C405.724 202.725 405.704 198.838 403.802 196.009C403.065 194.915 402.353 194.59 401.214 193.987C402.223 191.884 402.604 189.282 403.307 186.858L409.446 164.675C417.595 164.675 415.373 157.793 415.373 150.513C415.373 141.627 414.799 117.177 415.785 110.085C416.576 104.4 420.938 99.7929 426.899 99.7929C432.675 99.7929 437.279 100.122 443.034 100.122V150.183C443.034 155.239 454.734 156.062 456.325 151.949C456.933 150.377 456.635 109.834 456.524 103.075C456.499 101.609 456.135 100.122 457.523 100.122H474.317C476.709 100.122 479.605 102.181 480.832 103.487C482.311 105.063 483.802 107.611 484.345 110.183C485.38 115.089 484.059 150.385 484.51 160.079C484.645 162.99 487.024 164.774 489.794 165.004C489.873 168.558 499.257 197.349 499.343 201.233C494.935 202.41 494.847 209.315 497.665 212.133C500.987 215.455 506.672 214.322 508.797 210.359C510.219 207.709 509.635 203.787 507.257 201.881C505.742 200.668 504.714 200.245 501.978 200.245C501.752 197.53 498.06 185.37 497.251 182.577C496.336 179.42 493.655 167.563 492.428 165.004C499.313 164.851 498.026 159.272 498.026 152.489C498.026 146.451 498.026 140.413 498.026 134.375C500.589 134.972 504.989 137.247 507.465 138.437C515.166 142.137 522.993 145.134 530.737 148.755C532.388 149.528 534.084 150.058 535.565 150.842C535.565 154.295 535.527 155.819 537.284 157.686C539.406 159.941 541.074 160.723 544.456 160.723C547.933 160.723 551.701 156.954 551.701 153.477V151.83C551.701 148.319 548.055 144.857 544.786 144.585C544.786 131.293 544.127 118.819 544.127 105.721H594.838C600.087 105.721 600.04 96.5436 596.587 93.4332C594.93 91.9403 591.203 92.5471 588.911 92.5471C582.84 92.5471 577.898 92.218 571.788 92.218H545.773C540.536 92.225 537.102 91.1113 535.098 85.4401C533.989 82.3037 534.578 48.0059 534.578 42.1566C534.578 39.2971 534.577 36.4392 534.591 33.58C534.606 30.6653 533.582 28.5301 531.285 27.9945C532.423 26.2949 537.174 23.4911 539.19 22.0685L552.689 12.5152C553.541 12.5152 560.224 16.7607 563.789 10.1143C566.157 5.70074 562.693 0 558.616 0C555.427 0 552.994 0.871353 551.467 3.71802C550.44 5.63227 550.455 8.29961 551.371 10.2096C548.35 12.2335 545.436 14.3784 542.478 16.465L529.17 25.8799C526.92 27.5366 525.899 27.0224 523.805 28.0882C522.004 29.0051 521.114 30.3471 521.061 32.9191C521.007 35.5215 521.077 38.2243 521.077 40.8391C519.728 39.8507 512.047 28.7849 510.351 26.5357L502.355 15.7613C501.869 15.1148 499.672 12.4922 499.672 11.8566C499.672 11.2836 503.692 6.26166 499.375 1.9442C496.497 -0.934368 491.254 -0.55548 488.861 2.6903C488.206 3.58032 487.489 4.74537 487.489 5.92831Z" fill="#3D32CF"/>
<path fill-rule="evenodd" clip-rule="evenodd" d="M359.394 204.197V202.55C359.394 200.493 361.947 197.939 364.004 197.939H365.65C367.707 197.939 370.26 200.493 370.26 202.55V204.197C370.26 206.253 367.707 208.807 365.65 208.807H364.004C361.947 208.807 359.394 206.253 359.394 204.197ZM386.725 45.1204C386.725 47.277 387.025 48.4669 388.042 50.3901C386.735 52.3425 384.34 53.9148 382.541 55.4276L376.76 60.5137C374.358 62.8523 366.684 68.7732 365.321 70.8096C363.295 70.3378 360.937 69.6263 358.346 70.4191C356.152 71.0905 354.454 72.6453 354.454 75.4208V143.926C354.454 147.335 357.964 148.866 361.04 148.866C361.04 153.064 361.304 156.159 361.356 160.406L362.679 189.383C362.669 191.708 363.016 192.803 363.016 195.304C361.66 195.955 361.193 195.806 359.974 196.873L359.079 197.624C357.984 198.346 357.879 197.671 357.747 199.256C356.698 198.976 350.304 192.932 349.096 191.77L344.817 187.816C344.08 187.075 343.589 186.557 342.853 185.829C338.938 181.954 325.765 170.858 323.83 167.968C325.621 166.768 325.476 166.173 325.476 164.016C325.476 161.33 324.12 159.271 322.053 157.888C320.668 156.96 320.033 157.077 317.907 157.095C316.26 157.108 314.611 157.099 312.963 157.099C307.576 149.053 298.975 138.113 292.924 130.045C291.753 128.484 290.707 127.09 289.536 125.529C288.538 124.199 286.726 122.502 286.29 120.871C294.524 116.514 302.094 111.06 310.311 106.691C313.725 104.876 320.946 107.124 324.556 105.788C329.354 104.014 328.247 92.2176 322.513 92.2176H308.024C306.587 92.2176 264.888 118.533 261.923 119.224C261.923 113.955 261.923 108.685 261.923 103.415C261.923 101.084 262.367 97.6694 261.513 95.9208C259.838 92.4911 256.963 92.5467 253.69 92.5467C247.757 92.5467 255.074 95.9271 242.124 91.2712L223.348 84.3607C222.249 83.9503 220.433 83.226 219.444 82.9957C219.444 79.5539 219.644 79.2613 218.208 76.9869C215.976 73.4525 210.431 73.174 207.558 76.0475C203.666 79.9398 205.335 87.936 213.187 87.936C215.129 87.936 217.378 86.4196 218.127 85.3013C220.76 86.6947 229.874 89.728 233.232 90.9421C238.024 92.6735 243.868 94.3135 248.422 96.4989V149.854C248.422 154.726 247.816 163.294 248.751 167.309C247.333 167.64 246.054 168.546 244.691 169.177C243.064 169.932 241.981 170.364 240.409 171.152C238.86 171.928 237.697 172.368 236.124 173.124L227.9 177.084C225.813 178.128 216.483 182.752 214.834 182.789C213.657 178.381 206.765 178.28 203.936 181.11C200.044 185.002 201.713 192.999 209.565 192.999C213.651 192.999 215.822 189.275 215.822 185.753C217.41 184.912 218.819 184.391 220.546 183.562C222.378 182.682 223.518 182.069 225.467 181.237C231.47 178.675 244.076 171.971 249.414 169.909C251.394 169.145 254.506 172.674 259.242 169.897C263.032 167.675 261.604 160.956 261.593 156.44C261.585 152.854 261.923 150.079 261.923 146.231C261.923 142.608 261.923 138.985 261.923 135.362C263.994 134.266 265.935 133.174 268.039 131.929C270.1 130.71 272.096 129.51 274.107 128.446C275.718 129.525 280.749 136.743 282.246 138.749C284.947 142.369 287.437 145.676 290.148 149.289L304.025 167.686C304.775 168.689 305.732 169.417 306.048 170.603L318.906 170.618C320.991 170.604 320.954 170.307 322.513 169.944C323.787 171.848 334.575 181.2 337.255 183.853L347.868 193.987C349.427 195.177 350.629 196.586 352.062 198.026C352.937 198.906 353.358 199.076 354.203 199.836C355.217 200.747 355.227 201.434 356.759 201.562C356.759 205.014 356.72 206.538 358.478 208.406C360.6 210.66 362.268 211.442 365.65 211.442C369.127 211.442 372.894 207.674 372.894 204.197V202.55C372.894 199.008 369.151 195.382 365.65 195.304L364.32 166.664C364.243 160.376 363.674 155.152 363.674 148.866C365.887 147.804 367.626 146.915 367.626 143.926V74.7618C367.626 73.757 367.309 73.433 366.967 72.7857C369.734 70.9325 372.867 67.4296 375.578 65.2598L378.572 62.6551C379.113 62.1743 379.339 61.8335 379.907 61.3559L382.694 58.8733C383.402 58.2478 383.626 58.2248 384.34 57.5562C384.889 57.0427 385.105 56.7362 385.688 56.2694C386.431 55.6746 386.569 55.6505 387.303 54.9203C388.116 54.1116 389.463 52.9582 390.347 52.3662C392.605 52.8921 391.997 53.0248 394.628 53.0248C396.375 53.0248 398.308 51.5201 399.183 50.3345C402.72 45.5343 398.899 39.1921 394.628 39.1921C392.273 39.1921 390.458 39.5196 388.718 41.1853C387.772 42.0909 386.725 43.727 386.725 45.1204Z" fill="#3D32CF"/>
<path fill-rule="evenodd" clip-rule="evenodd" d="M774.961 175.544C774.961 177.9 775.103 179.701 776.905 181.504C781.605 186.204 788.792 181.766 788.792 177.52C788.792 175.163 788.65 173.362 786.847 171.56C782.093 166.804 774.961 171.419 774.961 175.544Z" fill="#3D32CF"/>
<path fill-rule="evenodd" clip-rule="evenodd" d="M612.291 36.2274C612.291 38.5835 612.433 40.3853 614.234 42.1876C617.07 45.0241 622.736 45.1003 625.251 40.6273C628.204 35.3747 623.502 30.2991 620.194 30.2991C617.772 30.2991 615.538 30.4461 613.663 32.9894C613.362 33.3974 613.305 33.532 613.044 34.0175C612.649 34.7546 612.291 35.2981 612.291 36.2274Z" fill="#3D32CF"/>
<path fill-rule="evenodd" clip-rule="evenodd" d="M284.974 61.5887C284.974 63.9449 285.116 65.7463 286.917 67.5485C289.488 70.1198 293.902 70.2843 296.811 67.4995C297.151 67.1743 297.048 67.3217 297.431 66.8024C297.732 66.3947 297.79 66.2601 298.05 65.7747C300.741 60.7578 296.248 55.6604 292.877 55.6604C289.751 55.6604 287.445 56.1774 285.727 59.3784C285.332 60.1156 284.974 60.659 284.974 61.5887Z" fill="#3D32CF"/>
<path d="M7.07417 215.424C8.17417 215.424 9.12751 215.585 9.93417 215.908C10.7555 216.216 11.5108 216.693 12.2002 217.338L10.6602 219.12C10.1175 218.68 9.57484 218.357 9.03217 218.152C8.48951 217.947 7.91017 217.844 7.29417 217.844C6.61951 217.844 6.07684 217.991 5.66617 218.284C5.27017 218.563 5.07217 218.966 5.07217 219.494C5.07217 219.861 5.15284 220.161 5.31417 220.396C5.49017 220.631 5.79084 220.851 6.21617 221.056C6.64151 221.261 7.27951 221.496 8.13017 221.76C9.64084 222.244 10.7702 222.845 11.5182 223.564C12.2662 224.268 12.6402 225.28 12.6402 226.6C12.6402 227.539 12.4055 228.367 11.9362 229.086C11.4668 229.79 10.7848 230.347 9.89017 230.758C8.99551 231.154 7.94684 231.352 6.74417 231.352C5.54151 231.352 4.47084 231.161 3.53217 230.78C2.59351 230.399 1.78684 229.878 1.11217 229.218L2.76217 227.392C3.34884 227.891 3.95751 228.272 4.58817 228.536C5.21884 228.785 5.90817 228.91 6.65617 228.91C7.44817 228.91 8.07884 228.727 8.54817 228.36C9.03217 227.993 9.27417 227.48 9.27417 226.82C9.27417 226.409 9.18617 226.072 9.01017 225.808C8.84884 225.529 8.56284 225.28 8.15217 225.06C7.74151 224.84 7.14751 224.613 6.37017 224.378C4.71284 223.865 3.52484 223.249 2.80617 222.53C2.10217 221.811 1.75017 220.873 1.75017 219.714C1.75017 218.863 1.97751 218.115 2.43217 217.47C2.88684 216.81 3.51751 216.304 4.32417 215.952C5.13084 215.6 6.04751 215.424 7.07417 215.424ZM17.9296 219.34V231H14.8056V219.34H17.9296ZM16.3456 213.334C16.903 213.334 17.3576 213.51 17.7096 213.862C18.0763 214.199 18.2596 214.632 18.2596 215.16C18.2596 215.688 18.0763 216.128 17.7096 216.48C17.3576 216.817 16.903 216.986 16.3456 216.986C15.7883 216.986 15.3336 216.817 14.9816 216.48C14.6296 216.128 14.4536 215.688 14.4536 215.16C14.4536 214.632 14.6296 214.199 14.9816 213.862C15.3336 213.51 15.7883 213.334 16.3456 213.334ZM24.8866 218.988C26.5293 218.988 27.9373 219.457 29.1106 220.396L27.9226 222.178C26.9399 221.562 25.9719 221.254 25.0186 221.254C24.5053 221.254 24.1093 221.349 23.8306 221.54C23.5519 221.731 23.4126 221.987 23.4126 222.31C23.4126 222.545 23.4713 222.743 23.5886 222.904C23.7206 223.065 23.9553 223.219 24.2926 223.366C24.6446 223.513 25.1653 223.689 25.8546 223.894C27.0866 224.231 28.0033 224.686 28.6046 225.258C29.2059 225.815 29.5066 226.585 29.5066 227.568C29.5066 228.345 29.2793 229.02 28.8246 229.592C28.3846 230.164 27.7833 230.604 27.0206 230.912C26.2579 231.205 25.4073 231.352 24.4686 231.352C23.4859 231.352 22.5913 231.205 21.7846 230.912C20.9779 230.604 20.2886 230.186 19.7166 229.658L21.2566 227.942C22.2393 228.705 23.2806 229.086 24.3806 229.086C24.9673 229.086 25.4293 228.976 25.7666 228.756C26.1186 228.521 26.2946 228.206 26.2946 227.81C26.2946 227.502 26.2286 227.26 26.0966 227.084C25.9646 226.908 25.7226 226.747 25.3706 226.6C25.0186 226.439 24.4686 226.255 23.7206 226.05C22.5473 225.727 21.6746 225.273 21.1026 224.686C20.5453 224.085 20.2666 223.344 20.2666 222.464C20.2666 221.804 20.4573 221.21 20.8386 220.682C21.2199 220.154 21.7553 219.743 22.4446 219.45C23.1486 219.142 23.9626 218.988 24.8866 218.988ZM38.516 230.45C38.0906 230.743 37.6066 230.963 37.064 231.11C36.536 231.271 36.008 231.352 35.48 231.352C34.2773 231.337 33.368 230.993 32.752 230.318C32.136 229.643 31.828 228.653 31.828 227.348V221.54H30.09V219.34H31.828V216.788L34.952 216.414V219.34H37.636L37.328 221.54H34.952V227.282C34.952 227.839 35.0473 228.243 35.238 228.492C35.4286 228.741 35.722 228.866 36.118 228.866C36.514 228.866 36.954 228.734 37.438 228.47L38.516 230.45ZM49.3901 224.906C49.3901 225.053 49.3681 225.456 49.3241 226.116H42.0421C42.1448 227.172 42.4308 227.92 42.9001 228.36C43.3695 228.8 44.0075 229.02 44.8141 229.02C45.3128 229.02 45.7821 228.939 46.2221 228.778C46.6621 228.617 47.1388 228.36 47.6521 228.008L48.9501 229.768C47.6448 230.824 46.1708 231.352 44.5281 231.352C42.6948 231.352 41.2868 230.802 40.3041 229.702C39.3215 228.602 38.8301 227.113 38.8301 225.236C38.8301 224.048 39.0355 222.985 39.4461 222.046C39.8715 221.093 40.4801 220.345 41.2721 219.802C42.0788 219.259 43.0321 218.988 44.1321 218.988C45.7895 218.988 47.0801 219.509 48.0041 220.55C48.9281 221.591 49.3901 223.043 49.3901 224.906ZM46.2881 224.026C46.2881 222.09 45.5915 221.122 44.1981 221.122C43.5528 221.122 43.0468 221.364 42.6801 221.848C42.3281 222.317 42.1155 223.087 42.0421 224.158H46.2881V224.026ZM64.2573 218.988C65.1813 218.988 65.922 219.303 66.4793 219.934C67.0513 220.565 67.3373 221.423 67.3373 222.508V231H64.2133V223.036C64.2133 221.892 63.832 221.32 63.0693 221.32C62.6587 221.32 62.2993 221.452 61.9913 221.716C61.6833 221.98 61.368 222.391 61.0453 222.948V231H57.9213V223.036C57.9213 221.892 57.54 221.32 56.7773 221.32C56.3667 221.32 56.0073 221.459 55.6993 221.738C55.3913 222.002 55.0833 222.405 54.7753 222.948V231H51.6513V219.34H54.3573L54.5993 220.792C55.0393 220.205 55.5307 219.758 56.0733 219.45C56.6307 219.142 57.2687 218.988 57.9873 218.988C58.6473 218.988 59.2193 219.157 59.7033 219.494C60.1873 219.817 60.5393 220.279 60.7593 220.88C61.2433 220.249 61.764 219.78 62.3213 219.472C62.8933 219.149 63.5387 218.988 64.2573 218.988ZM79.2098 227.766C79.2098 228.221 79.2758 228.558 79.4078 228.778C79.5398 228.983 79.7598 229.137 80.0678 229.24L79.4078 231.308C78.7184 231.249 78.1538 231.088 77.7138 230.824C77.2884 230.56 76.9584 230.149 76.7238 229.592C75.9611 230.765 74.7951 231.352 73.2258 231.352C72.0671 231.352 71.1431 231.022 70.4538 230.362C69.7791 229.687 69.4418 228.815 69.4418 227.744C69.4418 226.468 69.9038 225.493 70.8278 224.818C71.7518 224.143 73.0791 223.806 74.8098 223.806H76.1518V223.234C76.1518 222.515 75.9904 222.017 75.6678 221.738C75.3451 221.459 74.8098 221.32 74.0618 221.32C73.2404 221.32 72.2138 221.525 70.9818 221.936L70.2778 219.846C71.7298 219.274 73.1671 218.988 74.5898 218.988C76.1738 218.988 77.3398 219.333 78.0878 220.022C78.8358 220.697 79.2098 221.709 79.2098 223.058V227.766ZM74.0838 229.108C74.9638 229.108 75.6531 228.675 76.1518 227.81V225.588H75.1178C73.4311 225.588 72.5878 226.219 72.5878 227.48C72.5878 227.993 72.7124 228.397 72.9618 228.69C73.2258 228.969 73.5998 229.108 74.0838 229.108ZM96.6121 227.766C96.6121 228.221 96.6781 228.558 96.8101 228.778C96.9421 228.983 97.1621 229.137 97.4701 229.24L96.8101 231.308C96.1208 231.249 95.5561 231.088 95.1161 230.824C94.6908 230.56 94.3608 230.149 94.1261 229.592C93.3634 230.765 92.1974 231.352 90.6281 231.352C89.4694 231.352 88.5454 231.022 87.8561 230.362C87.1814 229.687 86.8441 228.815 86.8441 227.744C86.8441 226.468 87.3061 225.493 88.2301 224.818C89.1541 224.143 90.4814 223.806 92.2121 223.806H93.5541V223.234C93.5541 222.515 93.3928 222.017 93.0701 221.738C92.7474 221.459 92.2121 221.32 91.4641 221.32C90.6428 221.32 89.6161 221.525 88.3841 221.936L87.6801 219.846C89.1321 219.274 90.5694 218.988 91.9921 218.988C93.5761 218.988 94.7421 219.333 95.4901 220.022C96.2381 220.697 96.6121 221.709 96.6121 223.058V227.766ZM91.4861 229.108C92.3661 229.108 93.0554 228.675 93.5541 227.81V225.588H92.5201C90.8334 225.588 89.9901 226.219 89.9901 227.48C89.9901 227.993 90.1148 228.397 90.3641 228.69C90.6281 228.969 91.0021 229.108 91.4861 229.108ZM109.281 231H106.575L106.421 229.438C106.011 230.083 105.512 230.567 104.925 230.89C104.339 231.198 103.657 231.352 102.879 231.352C101.823 231.352 101.017 231.037 100.459 230.406C99.902 229.761 99.6234 228.866 99.6234 227.722V219.34H102.747V227.326C102.747 227.942 102.85 228.382 103.055 228.646C103.261 228.895 103.583 229.02 104.023 229.02C104.859 229.02 105.571 228.514 106.157 227.502V219.34H109.281V231ZM119.34 230.45C118.915 230.743 118.431 230.963 117.888 231.11C117.36 231.271 116.832 231.352 116.304 231.352C115.102 231.337 114.192 230.993 113.576 230.318C112.96 229.643 112.652 228.653 112.652 227.348V221.54H110.914V219.34H112.652V216.788L115.776 216.414V219.34H118.46L118.152 221.54H115.776V227.282C115.776 227.839 115.872 228.243 116.062 228.492C116.253 228.741 116.546 228.866 116.942 228.866C117.338 228.866 117.778 228.734 118.262 228.47L119.34 230.45ZM125.264 218.988C127.01 218.988 128.374 219.538 129.356 220.638C130.339 221.723 130.83 223.234 130.83 225.17C130.83 226.402 130.603 227.487 130.148 228.426C129.708 229.35 129.063 230.069 128.212 230.582C127.376 231.095 126.386 231.352 125.242 231.352C123.497 231.352 122.126 230.809 121.128 229.724C120.146 228.624 119.654 227.106 119.654 225.17C119.654 223.938 119.874 222.86 120.314 221.936C120.769 220.997 121.414 220.271 122.25 219.758C123.101 219.245 124.106 218.988 125.264 218.988ZM125.264 221.32C124.472 221.32 123.878 221.635 123.482 222.266C123.101 222.882 122.91 223.85 122.91 225.17C122.91 226.49 123.101 227.465 123.482 228.096C123.878 228.712 124.465 229.02 125.242 229.02C126.02 229.02 126.599 228.712 126.98 228.096C127.376 227.465 127.574 226.49 127.574 225.17C127.574 223.85 127.384 222.882 127.002 222.266C126.621 221.635 126.042 221.32 125.264 221.32ZM145.812 218.988C146.736 218.988 147.477 219.303 148.034 219.934C148.606 220.565 148.892 221.423 148.892 222.508V231H145.768V223.036C145.768 221.892 145.387 221.32 144.624 221.32C144.213 221.32 143.854 221.452 143.546 221.716C143.238 221.98 142.923 222.391 142.6 222.948V231H139.476V223.036C139.476 221.892 139.095 221.32 138.332 221.32C137.921 221.32 137.562 221.459 137.254 221.738C136.946 222.002 136.638 222.405 136.33 222.948V231H133.206V219.34H135.912L136.154 220.792C136.594 220.205 137.085 219.758 137.628 219.45C138.185 219.142 138.823 218.988 139.542 218.988C140.202 218.988 140.774 219.157 141.258 219.494C141.742 219.817 142.094 220.279 142.314 220.88C142.798 220.249 143.319 219.78 143.876 219.472C144.448 219.149 145.093 218.988 145.812 218.988ZM160.764 227.766C160.764 228.221 160.83 228.558 160.962 228.778C161.094 228.983 161.314 229.137 161.622 229.24L160.962 231.308C160.273 231.249 159.708 231.088 159.268 230.824C158.843 230.56 158.513 230.149 158.278 229.592C157.516 230.765 156.35 231.352 154.78 231.352C153.622 231.352 152.698 231.022 152.008 230.362C151.334 229.687 150.996 228.815 150.996 227.744C150.996 226.468 151.458 225.493 152.382 224.818C153.306 224.143 154.634 223.806 156.364 223.806H157.706V223.234C157.706 222.515 157.545 222.017 157.222 221.738C156.9 221.459 156.364 221.32 155.616 221.32C154.795 221.32 153.768 221.525 152.536 221.936L151.832 219.846C153.284 219.274 154.722 218.988 156.144 218.988C157.728 218.988 158.894 219.333 159.642 220.022C160.39 220.697 160.764 221.709 160.764 223.058V227.766ZM155.638 229.108C156.518 229.108 157.208 228.675 157.706 227.81V225.588H156.672C154.986 225.588 154.142 226.219 154.142 227.48C154.142 227.993 154.267 228.397 154.516 228.69C154.78 228.969 155.154 229.108 155.638 229.108ZM170.86 230.45C170.434 230.743 169.95 230.963 169.408 231.11C168.88 231.271 168.352 231.352 167.824 231.352C166.621 231.337 165.712 230.993 165.096 230.318C164.48 229.643 164.172 228.653 164.172 227.348V221.54H162.434V219.34H164.172V216.788L167.296 216.414V219.34H169.98L169.672 221.54H167.296V227.282C167.296 227.839 167.391 228.243 167.582 228.492C167.772 228.741 168.066 228.866 168.462 228.866C168.858 228.866 169.298 228.734 169.782 228.47L170.86 230.45ZM175.367 219.34V231H172.243V219.34H175.367ZM173.783 213.334C174.34 213.334 174.795 213.51 175.147 213.862C175.514 214.199 175.697 214.632 175.697 215.16C175.697 215.688 175.514 216.128 175.147 216.48C174.795 216.817 174.34 216.986 173.783 216.986C173.226 216.986 172.771 216.817 172.419 216.48C172.067 216.128 171.891 215.688 171.891 215.16C171.891 214.632 172.067 214.199 172.419 213.862C172.771 213.51 173.226 213.334 173.783 213.334ZM186.328 219.34V221.562L180.85 228.58H186.438L186.13 231H177.264V228.756L182.742 221.738H177.726V219.34H186.328ZM197.03 227.766C197.03 228.221 197.096 228.558 197.228 228.778C197.36 228.983 197.58 229.137 197.888 229.24L197.228 231.308C196.539 231.249 195.974 231.088 195.534 230.824C195.109 230.56 194.779 230.149 194.544 229.592C193.781 230.765 192.615 231.352 191.046 231.352C189.887 231.352 188.963 231.022 188.274 230.362C187.599 229.687 187.262 228.815 187.262 227.744C187.262 226.468 187.724 225.493 188.648 224.818C189.572 224.143 190.899 223.806 192.63 223.806H193.972V223.234C193.972 222.515 193.811 222.017 193.488 221.738C193.165 221.459 192.63 221.32 191.882 221.32C191.061 221.32 190.034 221.525 188.802 221.936L188.098 219.846C189.55 219.274 190.987 218.988 192.41 218.988C193.994 218.988 195.16 219.333 195.908 220.022C196.656 220.697 197.03 221.709 197.03 223.058V227.766ZM191.904 229.108C192.784 229.108 193.473 228.675 193.972 227.81V225.588H192.938C191.251 225.588 190.408 226.219 190.408 227.48C190.408 227.993 190.533 228.397 190.782 228.69C191.046 228.969 191.42 229.108 191.904 229.108ZM210.249 214.698V231H207.499L207.323 229.57C206.502 230.758 205.387 231.352 203.979 231.352C202.542 231.352 201.442 230.802 200.679 229.702C199.931 228.587 199.557 227.077 199.557 225.17C199.557 223.967 199.748 222.904 200.129 221.98C200.525 221.041 201.083 220.308 201.801 219.78C202.52 219.252 203.349 218.988 204.287 218.988C205.373 218.988 206.319 219.377 207.125 220.154V214.346L210.249 214.698ZM204.903 229.02C205.358 229.02 205.761 228.91 206.113 228.69C206.465 228.455 206.803 228.096 207.125 227.612V222.398C206.817 222.031 206.502 221.76 206.179 221.584C205.871 221.393 205.512 221.298 205.101 221.298C204.383 221.298 203.818 221.613 203.407 222.244C203.011 222.875 202.813 223.85 202.813 225.17C202.813 226.563 202.989 227.553 203.341 228.14C203.708 228.727 204.229 229.02 204.903 229.02ZM218.227 218.988C219.973 218.988 221.337 219.538 222.319 220.638C223.302 221.723 223.793 223.234 223.793 225.17C223.793 226.402 223.566 227.487 223.111 228.426C222.671 229.35 222.026 230.069 221.175 230.582C220.339 231.095 219.349 231.352 218.205 231.352C216.46 231.352 215.089 230.809 214.091 229.724C213.109 228.624 212.617 227.106 212.617 225.17C212.617 223.938 212.837 222.86 213.277 221.936C213.732 220.997 214.377 220.271 215.213 219.758C216.064 219.245 217.069 218.988 218.227 218.988ZM218.227 221.32C217.435 221.32 216.841 221.635 216.445 222.266C216.064 222.882 215.873 223.85 215.873 225.17C215.873 226.49 216.064 227.465 216.445 228.096C216.841 228.712 217.428 229.02 218.205 229.02C218.983 229.02 219.562 228.712 219.943 228.096C220.339 227.465 220.537 226.49 220.537 225.17C220.537 223.85 220.347 222.882 219.965 222.266C219.584 221.635 219.005 221.32 218.227 221.32ZM84.7591 240.698V257H82.0091L81.8331 255.57C81.0118 256.758 79.8971 257.352 78.4891 257.352C77.0518 257.352 75.9518 256.802 75.1891 255.702C74.4411 254.587 74.0671 253.077 74.0671 251.17C74.0671 249.967 74.2578 248.904 74.6391 247.98C75.0351 247.041 75.5924 246.308 76.3111 245.78C77.0298 245.252 77.8584 244.988 78.7971 244.988C79.8824 244.988 80.8284 245.377 81.6351 246.154V240.346L84.7591 240.698ZM79.4131 255.02C79.8678 255.02 80.2711 254.91 80.6231 254.69C80.9751 254.455 81.3124 254.096 81.6351 253.612V248.398C81.3271 248.031 81.0118 247.76 80.6891 247.584C80.3811 247.393 80.0218 247.298 79.6111 247.298C78.8924 247.298 78.3278 247.613 77.9171 248.244C77.5211 248.875 77.3231 249.85 77.3231 251.17C77.3231 252.563 77.4991 253.553 77.8511 254.14C78.2178 254.727 78.7384 255.02 79.4131 255.02ZM97.687 250.906C97.687 251.053 97.665 251.456 97.621 252.116H90.339C90.4417 253.172 90.7277 253.92 91.197 254.36C91.6663 254.8 92.3043 255.02 93.111 255.02C93.6097 255.02 94.079 254.939 94.519 254.778C94.959 254.617 95.4357 254.36 95.949 254.008L97.247 255.768C95.9417 256.824 94.4677 257.352 92.825 257.352C90.9917 257.352 89.5837 256.802 88.601 255.702C87.6183 254.602 87.127 253.113 87.127 251.236C87.127 250.048 87.3323 248.985 87.743 248.046C88.1683 247.093 88.777 246.345 89.569 245.802C90.3757 245.259 91.329 244.988 92.429 244.988C94.0863 244.988 95.377 245.509 96.301 246.55C97.225 247.591 97.687 249.043 97.687 250.906ZM94.585 250.026C94.585 248.09 93.8883 247.122 92.495 247.122C91.8497 247.122 91.3437 247.364 90.977 247.848C90.625 248.317 90.4123 249.087 90.339 250.158H94.585V250.026ZM110.181 244.988C110.959 244.988 111.655 245.105 112.271 245.34C112.902 245.56 113.496 245.912 114.053 246.396L112.689 248.244C112.308 247.951 111.934 247.738 111.567 247.606C111.215 247.474 110.827 247.408 110.401 247.408C108.744 247.408 107.915 248.684 107.915 251.236C107.915 252.527 108.128 253.451 108.553 254.008C108.979 254.565 109.587 254.844 110.379 254.844C110.79 254.844 111.164 254.785 111.501 254.668C111.839 254.536 112.235 254.323 112.689 254.03L114.053 255.988C112.939 256.897 111.663 257.352 110.225 257.352C109.081 257.352 108.084 257.103 107.233 256.604C106.397 256.105 105.752 255.401 105.297 254.492C104.843 253.568 104.615 252.49 104.615 251.258C104.615 250.026 104.843 248.941 105.297 248.002C105.752 247.049 106.397 246.308 107.233 245.78C108.084 245.252 109.067 244.988 110.181 244.988ZM120.301 244.988C122.047 244.988 123.411 245.538 124.393 246.638C125.376 247.723 125.867 249.234 125.867 251.17C125.867 252.402 125.64 253.487 125.185 254.426C124.745 255.35 124.1 256.069 123.249 256.582C122.413 257.095 121.423 257.352 120.279 257.352C118.534 257.352 117.163 256.809 116.165 255.724C115.183 254.624 114.691 253.106 114.691 251.17C114.691 249.938 114.911 248.86 115.351 247.936C115.806 246.997 116.451 246.271 117.287 245.758C118.138 245.245 119.143 244.988 120.301 244.988ZM120.301 247.32C119.509 247.32 118.915 247.635 118.519 248.266C118.138 248.882 117.947 249.85 117.947 251.17C117.947 252.49 118.138 253.465 118.519 254.096C118.915 254.712 119.502 255.02 120.279 255.02C121.057 255.02 121.636 254.712 122.017 254.096C122.413 253.465 122.611 252.49 122.611 251.17C122.611 249.85 122.421 248.882 122.039 248.266C121.658 247.635 121.079 247.32 120.301 247.32ZM134.755 244.988C135.782 244.988 136.581 245.303 137.153 245.934C137.725 246.55 138.011 247.408 138.011 248.508V257H134.887V249.036C134.887 248.405 134.777 247.965 134.557 247.716C134.352 247.452 134.036 247.32 133.611 247.32C133.171 247.32 132.768 247.459 132.401 247.738C132.049 248.002 131.704 248.405 131.367 248.948V257H128.243V245.34H130.949L131.191 246.814C131.675 246.213 132.203 245.758 132.775 245.45C133.362 245.142 134.022 244.988 134.755 244.988ZM147.957 256.45C147.532 256.743 147.048 256.963 146.505 257.11C145.977 257.271 145.449 257.352 144.921 257.352C143.719 257.337 142.809 256.993 142.193 256.318C141.577 255.643 141.269 254.653 141.269 253.348V247.54H139.531V245.34H141.269V242.788L144.393 242.414V245.34H147.077L146.769 247.54H144.393V253.282C144.393 253.839 144.489 254.243 144.679 254.492C144.87 254.741 145.163 254.866 145.559 254.866C145.955 254.866 146.395 254.734 146.879 254.47L147.957 256.45ZM158.014 253.766C158.014 254.221 158.08 254.558 158.212 254.778C158.344 254.983 158.564 255.137 158.872 255.24L158.212 257.308C157.523 257.249 156.958 257.088 156.518 256.824C156.093 256.56 155.763 256.149 155.528 255.592C154.766 256.765 153.6 257.352 152.03 257.352C150.872 257.352 149.948 257.022 149.258 256.362C148.584 255.687 148.246 254.815 148.246 253.744C148.246 252.468 148.708 251.493 149.632 250.818C150.556 250.143 151.884 249.806 153.614 249.806H154.956V249.234C154.956 248.515 154.795 248.017 154.472 247.738C154.15 247.459 153.614 247.32 152.866 247.32C152.045 247.32 151.018 247.525 149.786 247.936L149.082 245.846C150.534 245.274 151.972 244.988 153.394 244.988C154.978 244.988 156.144 245.333 156.892 246.022C157.64 246.697 158.014 247.709 158.014 249.058V253.766ZM152.888 255.108C153.768 255.108 154.458 254.675 154.956 253.81V251.588H153.922C152.236 251.588 151.392 252.219 151.392 253.48C151.392 253.993 151.517 254.397 151.766 254.69C152.03 254.969 152.404 255.108 152.888 255.108ZM167.45 244.988C168.814 244.988 169.87 245.531 170.618 246.616C171.38 247.701 171.762 249.219 171.762 251.17C171.762 252.373 171.571 253.443 171.19 254.382C170.823 255.306 170.288 256.032 169.584 256.56C168.894 257.088 168.08 257.352 167.142 257.352C165.866 257.352 164.846 256.853 164.084 255.856L163.908 257H161.136V240.698L164.26 240.346V246.594C164.626 246.095 165.088 245.707 165.646 245.428C166.203 245.135 166.804 244.988 167.45 244.988ZM166.262 255.042C167.758 255.042 168.506 253.751 168.506 251.17C168.506 249.747 168.322 248.75 167.956 248.178C167.604 247.591 167.09 247.298 166.416 247.298C165.58 247.298 164.861 247.797 164.26 248.794V253.788C164.773 254.624 165.44 255.042 166.262 255.042ZM177.365 245.34V257H174.241V245.34H177.365ZM175.781 239.334C176.339 239.334 176.793 239.51 177.145 239.862C177.512 240.199 177.695 240.632 177.695 241.16C177.695 241.688 177.512 242.128 177.145 242.48C176.793 242.817 176.339 242.986 175.781 242.986C175.224 242.986 174.769 242.817 174.417 242.48C174.065 242.128 173.889 241.688 173.889 241.16C173.889 240.632 174.065 240.199 174.417 239.862C174.769 239.51 175.224 239.334 175.781 239.334ZM183.354 257.352C182.401 257.352 181.66 257.081 181.132 256.538C180.604 255.981 180.34 255.196 180.34 254.184V240.698L183.464 240.346V254.096C183.464 254.609 183.677 254.866 184.102 254.866C184.337 254.866 184.542 254.822 184.718 254.734L185.356 256.956C184.755 257.22 184.087 257.352 183.354 257.352ZM190.084 245.34V257H186.96V245.34H190.084ZM188.5 239.334C189.057 239.334 189.512 239.51 189.864 239.862C190.231 240.199 190.414 240.632 190.414 241.16C190.414 241.688 190.231 242.128 189.864 242.48C189.512 242.817 189.057 242.986 188.5 242.986C187.943 242.986 187.488 242.817 187.136 242.48C186.784 242.128 186.608 241.688 186.608 241.16C186.608 240.632 186.784 240.199 187.136 239.862C187.488 239.51 187.943 239.334 188.5 239.334ZM203.267 240.698V257H200.517L200.341 255.57C199.52 256.758 198.405 257.352 196.997 257.352C195.56 257.352 194.46 256.802 193.697 255.702C192.949 254.587 192.575 253.077 192.575 251.17C192.575 249.967 192.766 248.904 193.147 247.98C193.543 247.041 194.1 246.308 194.819 245.78C195.538 245.252 196.366 244.988 197.305 244.988C198.39 244.988 199.336 245.377 200.143 246.154V240.346L203.267 240.698ZM197.921 255.02C198.376 255.02 198.779 254.91 199.131 254.69C199.483 254.455 199.82 254.096 200.143 253.612V248.398C199.835 248.031 199.52 247.76 199.197 247.584C198.889 247.393 198.53 247.298 198.119 247.298C197.4 247.298 196.836 247.613 196.425 248.244C196.029 248.875 195.831 249.85 195.831 251.17C195.831 252.563 196.007 253.553 196.359 254.14C196.726 254.727 197.246 255.02 197.921 255.02ZM215.249 253.766C215.249 254.221 215.315 254.558 215.447 254.778C215.579 254.983 215.799 255.137 216.107 255.24L215.447 257.308C214.757 257.249 214.193 257.088 213.753 256.824C213.327 256.56 212.997 256.149 212.763 255.592C212 256.765 210.834 257.352 209.265 257.352C208.106 257.352 207.182 257.022 206.493 256.362C205.818 255.687 205.481 254.815 205.481 253.744C205.481 252.468 205.943 251.493 206.867 250.818C207.791 250.143 209.118 249.806 210.849 249.806H212.191V249.234C212.191 248.515 212.029 248.017 211.707 247.738C211.384 247.459 210.849 247.32 210.101 247.32C209.279 247.32 208.253 247.525 207.021 247.936L206.317 245.846C207.769 245.274 209.206 244.988 210.629 244.988C212.213 244.988 213.379 245.333 214.127 246.022C214.875 246.697 215.249 247.709 215.249 249.058V253.766ZM210.123 255.108C211.003 255.108 211.692 254.675 212.191 253.81V251.588H211.157C209.47 251.588 208.627 252.219 208.627 253.48C208.627 253.993 208.751 254.397 209.001 254.69C209.265 254.969 209.639 255.108 210.123 255.108ZM228.468 240.698V257H225.718L225.542 255.57C224.721 256.758 223.606 257.352 222.198 257.352C220.761 257.352 219.661 256.802 218.898 255.702C218.15 254.587 217.776 253.077 217.776 251.17C217.776 249.967 217.967 248.904 218.348 247.98C218.744 247.041 219.301 246.308 220.02 245.78C220.739 245.252 221.567 244.988 222.506 244.988C223.591 244.988 224.537 245.377 225.344 246.154V240.346L228.468 240.698ZM223.122 255.02C223.577 255.02 223.98 254.91 224.332 254.69C224.684 254.455 225.021 254.096 225.344 253.612V248.398C225.036 248.031 224.721 247.76 224.398 247.584C224.09 247.393 223.731 247.298 223.32 247.298C222.601 247.298 222.037 247.613 221.626 248.244C221.23 248.875 221.032 249.85 221.032 251.17C221.032 252.563 221.208 253.553 221.56 254.14C221.927 254.727 222.447 255.02 223.122 255.02Z" fill="#3D32CF"/>
<path d="M189.248 315.424C190.348 315.424 191.301 315.585 192.108 315.908C192.929 316.216 193.685 316.693 194.374 317.338L192.834 319.12C192.291 318.68 191.749 318.357 191.206 318.152C190.663 317.947 190.084 317.844 189.468 317.844C188.793 317.844 188.251 317.991 187.84 318.284C187.444 318.563 187.246 318.966 187.246 319.494C187.246 319.861 187.327 320.161 187.488 320.396C187.664 320.631 187.965 320.851 188.39 321.056C188.815 321.261 189.453 321.496 190.304 321.76C191.815 322.244 192.944 322.845 193.692 323.564C194.44 324.268 194.814 325.28 194.814 326.6C194.814 327.539 194.579 328.367 194.11 329.086C193.641 329.79 192.959 330.347 192.064 330.758C191.169 331.154 190.121 331.352 188.918 331.352C187.715 331.352 186.645 331.161 185.706 330.78C184.767 330.399 183.961 329.878 183.286 329.218L184.936 327.392C185.523 327.891 186.131 328.272 186.762 328.536C187.393 328.785 188.082 328.91 188.83 328.91C189.622 328.91 190.253 328.727 190.722 328.36C191.206 327.993 191.448 327.48 191.448 326.82C191.448 326.409 191.36 326.072 191.184 325.808C191.023 325.529 190.737 325.28 190.326 325.06C189.915 324.84 189.321 324.613 188.544 324.378C186.887 323.865 185.699 323.249 184.98 322.53C184.276 321.811 183.924 320.873 183.924 319.714C183.924 318.863 184.151 318.115 184.606 317.47C185.061 316.81 185.691 316.304 186.498 315.952C187.305 315.6 188.221 315.424 189.248 315.424ZM206.835 324.906C206.835 325.053 206.813 325.456 206.769 326.116H199.487C199.59 327.172 199.876 327.92 200.345 328.36C200.815 328.8 201.453 329.02 202.259 329.02C202.758 329.02 203.227 328.939 203.667 328.778C204.107 328.617 204.584 328.36 205.097 328.008L206.395 329.768C205.09 330.824 203.616 331.352 201.973 331.352C200.14 331.352 198.732 330.802 197.749 329.702C196.767 328.602 196.275 327.113 196.275 325.236C196.275 324.048 196.481 322.985 196.891 322.046C197.317 321.093 197.925 320.345 198.717 319.802C199.524 319.259 200.477 318.988 201.577 318.988C203.235 318.988 204.525 319.509 205.449 320.55C206.373 321.591 206.835 323.043 206.835 324.906ZM203.733 324.026C203.733 322.09 203.037 321.122 201.643 321.122C200.998 321.122 200.492 321.364 200.125 321.848C199.773 322.317 199.561 323.087 199.487 324.158H203.733V324.026ZM215.125 319.01C215.477 319.01 215.865 319.069 216.291 319.186L215.763 322.2C215.352 322.097 215.007 322.046 214.729 322.046C214.039 322.046 213.504 322.288 213.123 322.772C212.741 323.256 212.441 323.989 212.221 324.972V331H209.097V319.34H211.803L212.089 321.606C212.367 320.785 212.771 320.147 213.299 319.692C213.841 319.237 214.45 319.01 215.125 319.01ZM227.521 319.34L223.781 331H220.063L216.257 319.34H219.645L221.955 328.558L224.309 319.34H227.521ZM232.137 319.34V331H229.013V319.34H232.137ZM230.553 313.334C231.11 313.334 231.565 313.51 231.917 313.862C232.283 314.199 232.467 314.632 232.467 315.16C232.467 315.688 232.283 316.128 231.917 316.48C231.565 316.817 231.11 316.986 230.553 316.986C229.995 316.986 229.541 316.817 229.189 316.48C228.837 316.128 228.661 315.688 228.661 315.16C228.661 314.632 228.837 314.199 229.189 313.862C229.541 313.51 229.995 313.334 230.553 313.334ZM240.084 318.988C240.861 318.988 241.558 319.105 242.174 319.34C242.804 319.56 243.398 319.912 243.956 320.396L242.592 322.244C242.21 321.951 241.836 321.738 241.47 321.606C241.118 321.474 240.729 321.408 240.304 321.408C238.646 321.408 237.818 322.684 237.818 325.236C237.818 326.527 238.03 327.451 238.456 328.008C238.881 328.565 239.49 328.844 240.282 328.844C240.692 328.844 241.066 328.785 241.404 328.668C241.741 328.536 242.137 328.323 242.592 328.03L243.956 329.988C242.841 330.897 241.565 331.352 240.128 331.352C238.984 331.352 237.986 331.103 237.136 330.604C236.3 330.105 235.654 329.401 235.2 328.492C234.745 327.568 234.518 326.49 234.518 325.258C234.518 324.026 234.745 322.941 235.2 322.002C235.654 321.049 236.3 320.308 237.136 319.78C237.986 319.252 238.969 318.988 240.084 318.988ZM248.852 319.34V331H245.728V319.34H248.852ZM247.268 313.334C247.825 313.334 248.28 313.51 248.632 313.862C248.998 314.199 249.182 314.632 249.182 315.16C249.182 315.688 248.998 316.128 248.632 316.48C248.28 316.817 247.825 316.986 247.268 316.986C246.71 316.986 246.256 316.817 245.904 316.48C245.552 316.128 245.376 315.688 245.376 315.16C245.376 314.632 245.552 314.199 245.904 313.862C246.256 313.51 246.71 313.334 247.268 313.334ZM256.842 318.988C258.588 318.988 259.952 319.538 260.934 320.638C261.917 321.723 262.408 323.234 262.408 325.17C262.408 326.402 262.181 327.487 261.726 328.426C261.286 329.35 260.641 330.069 259.79 330.582C258.954 331.095 257.964 331.352 256.82 331.352C255.075 331.352 253.704 330.809 252.706 329.724C251.724 328.624 251.232 327.106 251.232 325.17C251.232 323.938 251.452 322.86 251.892 321.936C252.347 320.997 252.992 320.271 253.828 319.758C254.679 319.245 255.684 318.988 256.842 318.988ZM256.842 321.32C256.05 321.32 255.456 321.635 255.06 322.266C254.679 322.882 254.488 323.85 254.488 325.17C254.488 326.49 254.679 327.465 255.06 328.096C255.456 328.712 256.043 329.02 256.82 329.02C257.598 329.02 258.177 328.712 258.558 328.096C258.954 327.465 259.152 326.49 259.152 325.17C259.152 323.85 258.962 322.882 258.58 322.266C258.199 321.635 257.62 321.32 256.842 321.32ZM268.656 318.988C270.299 318.988 271.707 319.457 272.88 320.396L271.692 322.178C270.709 321.562 269.741 321.254 268.788 321.254C268.275 321.254 267.879 321.349 267.6 321.54C267.321 321.731 267.182 321.987 267.182 322.31C267.182 322.545 267.241 322.743 267.358 322.904C267.49 323.065 267.725 323.219 268.062 323.366C268.414 323.513 268.935 323.689 269.624 323.894C270.856 324.231 271.773 324.686 272.374 325.258C272.975 325.815 273.276 326.585 273.276 327.568C273.276 328.345 273.049 329.02 272.594 329.592C272.154 330.164 271.553 330.604 270.79 330.912C270.027 331.205 269.177 331.352 268.238 331.352C267.255 331.352 266.361 331.205 265.554 330.912C264.747 330.604 264.058 330.186 263.486 329.658L265.026 327.942C266.009 328.705 267.05 329.086 268.15 329.086C268.737 329.086 269.199 328.976 269.536 328.756C269.888 328.521 270.064 328.206 270.064 327.81C270.064 327.502 269.998 327.26 269.866 327.084C269.734 326.908 269.492 326.747 269.14 326.6C268.788 326.439 268.238 326.255 267.49 326.05C266.317 325.727 265.444 325.273 264.872 324.686C264.315 324.085 264.036 323.344 264.036 322.464C264.036 321.804 264.227 321.21 264.608 320.682C264.989 320.154 265.525 319.743 266.214 319.45C266.918 319.142 267.732 318.988 268.656 318.988ZM290.781 314.698V331H288.031L287.855 329.57C287.033 330.758 285.919 331.352 284.511 331.352C283.073 331.352 281.973 330.802 281.211 329.702C280.463 328.587 280.089 327.077 280.089 325.17C280.089 323.967 280.279 322.904 280.661 321.98C281.057 321.041 281.614 320.308 282.333 319.78C283.051 319.252 283.88 318.988 284.819 318.988C285.904 318.988 286.85 319.377 287.657 320.154V314.346L290.781 314.698ZM285.435 329.02C285.889 329.02 286.293 328.91 286.645 328.69C286.997 328.455 287.334 328.096 287.657 327.612V322.398C287.349 322.031 287.033 321.76 286.711 321.584C286.403 321.393 286.043 321.298 285.633 321.298C284.914 321.298 284.349 321.613 283.939 322.244C283.543 322.875 283.345 323.85 283.345 325.17C283.345 326.563 283.521 327.553 283.873 328.14C284.239 328.727 284.76 329.02 285.435 329.02ZM303.709 324.906C303.709 325.053 303.687 325.456 303.643 326.116H296.361C296.463 327.172 296.749 327.92 297.219 328.36C297.688 328.8 298.326 329.02 299.133 329.02C299.631 329.02 300.101 328.939 300.541 328.778C300.981 328.617 301.457 328.36 301.971 328.008L303.269 329.768C301.963 330.824 300.489 331.352 298.847 331.352C297.013 331.352 295.605 330.802 294.623 329.702C293.64 328.602 293.149 327.113 293.149 325.236C293.149 324.048 293.354 322.985 293.764 322.046C294.19 321.093 294.799 320.345 295.591 319.802C296.397 319.259 297.351 318.988 298.451 318.988C300.108 318.988 301.399 319.509 302.323 320.55C303.247 321.591 303.709 323.043 303.709 324.906ZM300.607 324.026C300.607 322.09 299.91 321.122 298.517 321.122C297.871 321.122 297.365 321.364 296.999 321.848C296.647 322.317 296.434 323.087 296.361 324.158H300.607V324.026ZM314.641 315.776V331H311.407V315.776H314.641ZM324.32 318.988C325.346 318.988 326.146 319.303 326.718 319.934C327.29 320.55 327.576 321.408 327.576 322.508V331H324.452V323.036C324.452 322.405 324.342 321.965 324.122 321.716C323.916 321.452 323.601 321.32 323.176 321.32C322.736 321.32 322.332 321.459 321.966 321.738C321.614 322.002 321.269 322.405 320.932 322.948V331H317.808V319.34H320.514L320.756 320.814C321.24 320.213 321.768 319.758 322.34 319.45C322.926 319.142 323.586 318.988 324.32 318.988ZM337.522 330.45C337.096 330.743 336.612 330.963 336.07 331.11C335.542 331.271 335.014 331.352 334.486 331.352C333.283 331.337 332.374 330.993 331.758 330.318C331.142 329.643 330.834 328.653 330.834 327.348V321.54H329.096V319.34H330.834V316.788L333.958 316.414V319.34H336.642L336.334 321.54H333.958V327.282C333.958 327.839 334.053 328.243 334.244 328.492C334.434 328.741 334.728 328.866 335.124 328.866C335.52 328.866 335.96 328.734 336.444 328.47L337.522 330.45ZM348.396 324.906C348.396 325.053 348.374 325.456 348.33 326.116H341.048C341.151 327.172 341.437 327.92 341.906 328.36C342.375 328.8 343.013 329.02 343.82 329.02C344.319 329.02 344.788 328.939 345.228 328.778C345.668 328.617 346.145 328.36 346.658 328.008L347.956 329.768C346.651 330.824 345.177 331.352 343.534 331.352C341.701 331.352 340.293 330.802 339.31 329.702C338.327 328.602 337.836 327.113 337.836 325.236C337.836 324.048 338.041 322.985 338.452 322.046C338.877 321.093 339.486 320.345 340.278 319.802C341.085 319.259 342.038 318.988 343.138 318.988C344.795 318.988 346.086 319.509 347.01 320.55C347.934 321.591 348.396 323.043 348.396 324.906ZM345.294 324.026C345.294 322.09 344.597 321.122 343.204 321.122C342.559 321.122 342.053 321.364 341.686 321.848C341.334 322.317 341.121 323.087 341.048 324.158H345.294V324.026ZM356.685 319.01C357.037 319.01 357.426 319.069 357.851 319.186L357.323 322.2C356.913 322.097 356.568 322.046 356.289 322.046C355.6 322.046 355.065 322.288 354.683 322.772C354.302 323.256 354.001 323.989 353.781 324.972V331H350.657V319.34H353.363L353.649 321.606C353.928 320.785 354.331 320.147 354.859 319.692C355.402 319.237 356.011 319.01 356.685 319.01ZM365.913 318.988C366.94 318.988 367.739 319.303 368.311 319.934C368.883 320.55 369.169 321.408 369.169 322.508V331H366.045V323.036C366.045 322.405 365.935 321.965 365.715 321.716C365.51 321.452 365.195 321.32 364.769 321.32C364.329 321.32 363.926 321.459 363.559 321.738C363.207 322.002 362.863 322.405 362.525 322.948V331H359.401V319.34H362.107L362.349 320.814C362.833 320.213 363.361 319.758 363.933 319.45C364.52 319.142 365.18 318.988 365.913 318.988ZM381.998 324.906C381.998 325.053 381.976 325.456 381.932 326.116H374.65C374.752 327.172 375.038 327.92 375.508 328.36C375.977 328.8 376.615 329.02 377.422 329.02C377.92 329.02 378.39 328.939 378.83 328.778C379.27 328.617 379.746 328.36 380.26 328.008L381.558 329.768C380.252 330.824 378.778 331.352 377.136 331.352C375.302 331.352 373.894 330.802 372.912 329.702C371.929 328.602 371.438 327.113 371.438 325.236C371.438 324.048 371.643 322.985 372.054 322.046C372.479 321.093 373.088 320.345 373.88 319.802C374.686 319.259 375.64 318.988 376.74 318.988C378.397 318.988 379.688 319.509 380.612 320.55C381.536 321.591 381.998 323.043 381.998 324.906ZM378.896 324.026C378.896 322.09 378.199 321.122 376.806 321.122C376.16 321.122 375.654 321.364 375.288 321.848C374.936 322.317 374.723 323.087 374.65 324.158H378.896V324.026ZM391.233 330.45C390.807 330.743 390.323 330.963 389.781 331.11C389.253 331.271 388.725 331.352 388.197 331.352C386.994 331.337 386.085 330.993 385.469 330.318C384.853 329.643 384.545 328.653 384.545 327.348V321.54H382.807V319.34H384.545V316.788L387.669 316.414V319.34H390.353L390.045 321.54H387.669V327.282C387.669 327.839 387.764 328.243 387.955 328.492C388.145 328.741 388.439 328.866 388.835 328.866C389.231 328.866 389.671 328.734 390.155 328.47L391.233 330.45ZM194.638 340.698V357H191.888L191.712 355.57C190.891 356.758 189.776 357.352 188.368 357.352C186.931 357.352 185.831 356.802 185.068 355.702C184.32 354.587 183.946 353.077 183.946 351.17C183.946 349.967 184.137 348.904 184.518 347.98C184.914 347.041 185.471 346.308 186.19 345.78C186.909 345.252 187.737 344.988 188.676 344.988C189.761 344.988 190.707 345.377 191.514 346.154V340.346L194.638 340.698ZM189.292 355.02C189.747 355.02 190.15 354.91 190.502 354.69C190.854 354.455 191.191 354.096 191.514 353.612V348.398C191.206 348.031 190.891 347.76 190.568 347.584C190.26 347.393 189.901 347.298 189.49 347.298C188.771 347.298 188.207 347.613 187.796 348.244C187.4 348.875 187.202 349.85 187.202 351.17C187.202 352.563 187.378 353.553 187.73 354.14C188.097 354.727 188.617 355.02 189.292 355.02ZM207.566 350.906C207.566 351.053 207.544 351.456 207.5 352.116H200.218C200.321 353.172 200.607 353.92 201.076 354.36C201.545 354.8 202.183 355.02 202.99 355.02C203.489 355.02 203.958 354.939 204.398 354.778C204.838 354.617 205.315 354.36 205.828 354.008L207.126 355.768C205.821 356.824 204.347 357.352 202.704 357.352C200.871 357.352 199.463 356.802 198.48 355.702C197.497 354.602 197.006 353.113 197.006 351.236C197.006 350.048 197.211 348.985 197.622 348.046C198.047 347.093 198.656 346.345 199.448 345.802C200.255 345.259 201.208 344.988 202.308 344.988C203.965 344.988 205.256 345.509 206.18 346.55C207.104 347.591 207.566 349.043 207.566 350.906ZM204.464 350.026C204.464 348.09 203.767 347.122 202.374 347.122C201.729 347.122 201.223 347.364 200.856 347.848C200.504 348.317 200.291 349.087 200.218 350.158H204.464V350.026ZM222.172 356.45C221.747 356.743 221.263 356.963 220.72 357.11C220.192 357.271 219.664 357.352 219.136 357.352C217.934 357.337 217.024 356.993 216.408 356.318C215.792 355.643 215.484 354.653 215.484 353.348V347.54H213.746V345.34H215.484V342.788L218.608 342.414V345.34H221.292L220.984 347.54H218.608V353.282C218.608 353.839 218.704 354.243 218.894 354.492C219.085 354.741 219.378 354.866 219.774 354.866C220.17 354.866 220.61 354.734 221.094 354.47L222.172 356.45ZM233.046 350.906C233.046 351.053 233.024 351.456 232.98 352.116H225.698C225.801 353.172 226.087 353.92 226.556 354.36C227.026 354.8 227.664 355.02 228.47 355.02C228.969 355.02 229.438 354.939 229.878 354.778C230.318 354.617 230.795 354.36 231.308 354.008L232.606 355.768C231.301 356.824 229.827 357.352 228.184 357.352C226.351 357.352 224.943 356.802 223.96 355.702C222.978 354.602 222.486 353.113 222.486 351.236C222.486 350.048 222.692 348.985 223.102 348.046C223.528 347.093 224.136 346.345 224.928 345.802C225.735 345.259 226.688 344.988 227.788 344.988C229.446 344.988 230.736 345.509 231.66 346.55C232.584 347.591 233.046 349.043 233.046 350.906ZM229.944 350.026C229.944 348.09 229.248 347.122 227.854 347.122C227.209 347.122 226.703 347.364 226.336 347.848C225.984 348.317 225.772 349.087 225.698 350.158H229.944V350.026ZM241.336 345.01C241.688 345.01 242.076 345.069 242.502 345.186L241.974 348.2C241.563 348.097 241.218 348.046 240.94 348.046C240.25 348.046 239.715 348.288 239.334 348.772C238.952 349.256 238.652 349.989 238.432 350.972V357H235.308V345.34H238.014L238.3 347.606C238.578 346.785 238.982 346.147 239.51 345.692C240.052 345.237 240.661 345.01 241.336 345.01ZM248.248 344.988C249.025 344.988 249.722 345.105 250.338 345.34C250.968 345.56 251.562 345.912 252.12 346.396L250.756 348.244C250.374 347.951 250 347.738 249.634 347.606C249.282 347.474 248.893 347.408 248.468 347.408C246.81 347.408 245.982 348.684 245.982 351.236C245.982 352.527 246.194 353.451 246.62 354.008C247.045 354.565 247.654 354.844 248.446 354.844C248.856 354.844 249.23 354.785 249.568 354.668C249.905 354.536 250.301 354.323 250.756 354.03L252.12 355.988C251.005 356.897 249.729 357.352 248.292 357.352C247.148 357.352 246.15 357.103 245.3 356.604C244.464 356.105 243.818 355.401 243.364 354.492C242.909 353.568 242.682 352.49 242.682 351.258C242.682 350.026 242.909 348.941 243.364 348.002C243.818 347.049 244.464 346.308 245.3 345.78C246.15 345.252 247.133 344.988 248.248 344.988ZM263.318 350.906C263.318 351.053 263.296 351.456 263.252 352.116H255.97C256.073 353.172 256.359 353.92 256.828 354.36C257.297 354.8 257.935 355.02 258.742 355.02C259.241 355.02 259.71 354.939 260.15 354.778C260.59 354.617 261.067 354.36 261.58 354.008L262.878 355.768C261.573 356.824 260.099 357.352 258.456 357.352C256.623 357.352 255.215 356.802 254.232 355.702C253.249 354.602 252.758 353.113 252.758 351.236C252.758 350.048 252.963 348.985 253.374 348.046C253.799 347.093 254.408 346.345 255.2 345.802C256.007 345.259 256.96 344.988 258.06 344.988C259.717 344.988 261.008 345.509 261.932 346.55C262.856 347.591 263.318 349.043 263.318 350.906ZM260.216 350.026C260.216 348.09 259.519 347.122 258.126 347.122C257.481 347.122 256.975 347.364 256.608 347.848C256.256 348.317 256.043 349.087 255.97 350.158H260.216V350.026ZM271.607 345.01C271.959 345.01 272.348 345.069 272.773 345.186L272.245 348.2C271.834 348.097 271.49 348.046 271.211 348.046C270.522 348.046 269.986 348.288 269.605 348.772C269.224 349.256 268.923 349.989 268.703 350.972V357H265.579V345.34H268.285L268.571 347.606C268.85 346.785 269.253 346.147 269.781 345.692C270.324 345.237 270.932 345.01 271.607 345.01ZM278.563 344.988C280.309 344.988 281.673 345.538 282.655 346.638C283.638 347.723 284.129 349.234 284.129 351.17C284.129 352.402 283.902 353.487 283.447 354.426C283.007 355.35 282.362 356.069 281.511 356.582C280.675 357.095 279.685 357.352 278.541 357.352C276.796 357.352 275.425 356.809 274.427 355.724C273.445 354.624 272.953 353.106 272.953 351.17C272.953 349.938 273.173 348.86 273.613 347.936C274.068 346.997 274.713 346.271 275.549 345.758C276.4 345.245 277.405 344.988 278.563 344.988ZM278.563 347.32C277.771 347.32 277.177 347.635 276.781 348.266C276.4 348.882 276.209 349.85 276.209 351.17C276.209 352.49 276.4 353.465 276.781 354.096C277.177 354.712 277.764 355.02 278.541 355.02C279.319 355.02 279.898 354.712 280.279 354.096C280.675 353.465 280.873 352.49 280.873 351.17C280.873 349.85 280.683 348.882 280.301 348.266C279.92 347.635 279.341 347.32 278.563 347.32ZM290.377 344.988C292.02 344.988 293.428 345.457 294.601 346.396L293.413 348.178C292.43 347.562 291.462 347.254 290.509 347.254C289.996 347.254 289.6 347.349 289.321 347.54C289.042 347.731 288.903 347.987 288.903 348.31C288.903 348.545 288.962 348.743 289.079 348.904C289.211 349.065 289.446 349.219 289.783 349.366C290.135 349.513 290.656 349.689 291.345 349.894C292.577 350.231 293.494 350.686 294.095 351.258C294.696 351.815 294.997 352.585 294.997 353.568C294.997 354.345 294.77 355.02 294.315 355.592C293.875 356.164 293.274 356.604 292.511 356.912C291.748 357.205 290.898 357.352 289.959 357.352C288.976 357.352 288.082 357.205 287.275 356.912C286.468 356.604 285.779 356.186 285.207 355.658L286.747 353.942C287.73 354.705 288.771 355.086 289.871 355.086C290.458 355.086 290.92 354.976 291.257 354.756C291.609 354.521 291.785 354.206 291.785 353.81C291.785 353.502 291.719 353.26 291.587 353.084C291.455 352.908 291.213 352.747 290.861 352.6C290.509 352.439 289.959 352.255 289.211 352.05C288.038 351.727 287.165 351.273 286.593 350.686C286.036 350.085 285.757 349.344 285.757 348.464C285.757 347.804 285.948 347.21 286.329 346.682C286.71 346.154 287.246 345.743 287.935 345.45C288.639 345.142 289.453 344.988 290.377 344.988Z" fill="#3D32CF"/>
<path d="M484.658 388L483.8 384.59H479.026L478.168 388H474.802L479.488 372.776H483.426L488.09 388H484.658ZM479.642 382.192H483.184L481.402 375.174L479.642 382.192ZM494.205 372.776C496.185 372.776 497.717 373.187 498.803 374.008C499.903 374.829 500.453 376.054 500.453 377.682C500.453 379.383 499.91 380.667 498.825 381.532C497.739 382.383 496.287 382.808 494.469 382.808H492.731V388H489.497V372.776H494.205ZM494.205 380.432C495.143 380.432 495.862 380.219 496.361 379.794C496.859 379.369 497.109 378.665 497.109 377.682C497.109 375.966 496.126 375.108 494.161 375.108H492.731V380.432H494.205ZM508.587 372.424C509.54 372.424 510.369 372.563 511.073 372.842C511.777 373.106 512.466 373.517 513.141 374.074L511.535 375.944C510.655 375.225 509.731 374.866 508.763 374.866C507.677 374.866 506.812 375.313 506.167 376.208C505.536 377.088 505.221 378.474 505.221 380.366C505.221 382.214 505.536 383.585 506.167 384.48C506.812 385.36 507.685 385.8 508.785 385.8C509.357 385.8 509.877 385.697 510.347 385.492C510.816 385.272 511.307 384.964 511.821 384.568L513.317 386.438C512.774 386.995 512.099 387.457 511.293 387.824C510.501 388.176 509.621 388.352 508.653 388.352C507.289 388.352 506.093 388.044 505.067 387.428C504.04 386.812 503.241 385.91 502.669 384.722C502.097 383.519 501.811 382.067 501.811 380.366C501.811 378.709 502.104 377.286 502.691 376.098C503.277 374.895 504.084 373.986 505.111 373.37C506.137 372.739 507.296 372.424 508.587 372.424ZM519.576 372.424C520.676 372.424 521.629 372.585 522.436 372.908C523.257 373.216 524.013 373.693 524.702 374.338L523.162 376.12C522.619 375.68 522.077 375.357 521.534 375.152C520.991 374.947 520.412 374.844 519.796 374.844C519.121 374.844 518.579 374.991 518.168 375.284C517.772 375.563 517.574 375.966 517.574 376.494C517.574 376.861 517.655 377.161 517.816 377.396C517.992 377.631 518.293 377.851 518.718 378.056C519.143 378.261 519.781 378.496 520.632 378.76C522.143 379.244 523.272 379.845 524.02 380.564C524.768 381.268 525.142 382.28 525.142 383.6C525.142 384.539 524.907 385.367 524.438 386.086C523.969 386.79 523.287 387.347 522.392 387.758C521.497 388.154 520.449 388.352 519.246 388.352C518.043 388.352 516.973 388.161 516.034 387.78C515.095 387.399 514.289 386.878 513.614 386.218L515.264 384.392C515.851 384.891 516.459 385.272 517.09 385.536C517.721 385.785 518.41 385.91 519.158 385.91C519.95 385.91 520.581 385.727 521.05 385.36C521.534 384.993 521.776 384.48 521.776 383.82C521.776 383.409 521.688 383.072 521.512 382.808C521.351 382.529 521.065 382.28 520.654 382.06C520.243 381.84 519.649 381.613 518.872 381.378C517.215 380.865 516.027 380.249 515.308 379.53C514.604 378.811 514.252 377.873 514.252 376.714C514.252 375.863 514.479 375.115 514.934 374.47C515.389 373.81 516.019 373.304 516.826 372.952C517.633 372.6 518.549 372.424 519.576 372.424Z" fill="#3D32CF"/>
<path d="M707.248 326.424C708.348 326.424 709.301 326.585 710.108 326.908C710.929 327.216 711.685 327.693 712.374 328.338L710.834 330.12C710.291 329.68 709.749 329.357 709.206 329.152C708.663 328.947 708.084 328.844 707.468 328.844C706.793 328.844 706.251 328.991 705.84 329.284C705.444 329.563 705.246 329.966 705.246 330.494C705.246 330.861 705.327 331.161 705.488 331.396C705.664 331.631 705.965 331.851 706.39 332.056C706.815 332.261 707.453 332.496 708.304 332.76C709.815 333.244 710.944 333.845 711.692 334.564C712.44 335.268 712.814 336.28 712.814 337.6C712.814 338.539 712.579 339.367 712.11 340.086C711.641 340.79 710.959 341.347 710.064 341.758C709.169 342.154 708.121 342.352 706.918 342.352C705.715 342.352 704.645 342.161 703.706 341.78C702.767 341.399 701.961 340.878 701.286 340.218L702.936 338.392C703.523 338.891 704.131 339.272 704.762 339.536C705.393 339.785 706.082 339.91 706.83 339.91C707.622 339.91 708.253 339.727 708.722 339.36C709.206 338.993 709.448 338.48 709.448 337.82C709.448 337.409 709.36 337.072 709.184 336.808C709.023 336.529 708.737 336.28 708.326 336.06C707.915 335.84 707.321 335.613 706.544 335.378C704.887 334.865 703.699 334.249 702.98 333.53C702.276 332.811 701.924 331.873 701.924 330.714C701.924 329.863 702.151 329.115 702.606 328.47C703.061 327.81 703.691 327.304 704.498 326.952C705.305 326.6 706.221 326.424 707.248 326.424ZM718.103 330.34V342H714.979V330.34H718.103ZM716.519 324.334C717.077 324.334 717.531 324.51 717.883 324.862C718.25 325.199 718.433 325.632 718.433 326.16C718.433 326.688 718.25 327.128 717.883 327.48C717.531 327.817 717.077 327.986 716.519 327.986C715.962 327.986 715.507 327.817 715.155 327.48C714.803 327.128 714.627 326.688 714.627 326.16C714.627 325.632 714.803 325.199 715.155 324.862C715.507 324.51 715.962 324.334 716.519 324.334ZM725.06 329.988C726.703 329.988 728.111 330.457 729.284 331.396L728.096 333.178C727.114 332.562 726.146 332.254 725.192 332.254C724.679 332.254 724.283 332.349 724.004 332.54C723.726 332.731 723.586 332.987 723.586 333.31C723.586 333.545 723.645 333.743 723.762 333.904C723.894 334.065 724.129 334.219 724.466 334.366C724.818 334.513 725.339 334.689 726.028 334.894C727.26 335.231 728.177 335.686 728.778 336.258C729.38 336.815 729.68 337.585 729.68 338.568C729.68 339.345 729.453 340.02 728.998 340.592C728.558 341.164 727.957 341.604 727.194 341.912C726.432 342.205 725.581 342.352 724.642 342.352C723.66 342.352 722.765 342.205 721.958 341.912C721.152 341.604 720.462 341.186 719.89 340.658L721.43 338.942C722.413 339.705 723.454 340.086 724.554 340.086C725.141 340.086 725.603 339.976 725.94 339.756C726.292 339.521 726.468 339.206 726.468 338.81C726.468 338.502 726.402 338.26 726.27 338.084C726.138 337.908 725.896 337.747 725.544 337.6C725.192 337.439 724.642 337.255 723.894 337.05C722.721 336.727 721.848 336.273 721.276 335.686C720.719 335.085 720.44 334.344 720.44 333.464C720.44 332.804 720.631 332.21 721.012 331.682C721.394 331.154 721.929 330.743 722.618 330.45C723.322 330.142 724.136 329.988 725.06 329.988ZM738.69 341.45C738.264 341.743 737.78 341.963 737.238 342.11C736.71 342.271 736.182 342.352 735.654 342.352C734.451 342.337 733.542 341.993 732.926 341.318C732.31 340.643 732.002 339.653 732.002 338.348V332.54H730.264V330.34H732.002V327.788L735.126 327.414V330.34H737.81L737.502 332.54H735.126V338.282C735.126 338.839 735.221 339.243 735.412 339.492C735.602 339.741 735.896 339.866 736.292 339.866C736.688 339.866 737.128 339.734 737.612 339.47L738.69 341.45ZM749.564 335.906C749.564 336.053 749.542 336.456 749.498 337.116H742.216C742.319 338.172 742.605 338.92 743.074 339.36C743.543 339.8 744.181 340.02 744.988 340.02C745.487 340.02 745.956 339.939 746.396 339.778C746.836 339.617 747.313 339.36 747.826 339.008L749.124 340.768C747.819 341.824 746.345 342.352 744.702 342.352C742.869 342.352 741.461 341.802 740.478 340.702C739.495 339.602 739.004 338.113 739.004 336.236C739.004 335.048 739.209 333.985 739.62 333.046C740.045 332.093 740.654 331.345 741.446 330.802C742.253 330.259 743.206 329.988 744.306 329.988C745.963 329.988 747.254 330.509 748.178 331.55C749.102 332.591 749.564 334.043 749.564 335.906ZM746.462 335.026C746.462 333.09 745.765 332.122 744.372 332.122C743.727 332.122 743.221 332.364 742.854 332.848C742.502 333.317 742.289 334.087 742.216 335.158H746.462V335.026ZM764.431 329.988C765.355 329.988 766.096 330.303 766.653 330.934C767.225 331.565 767.511 332.423 767.511 333.508V342H764.387V334.036C764.387 332.892 764.006 332.32 763.243 332.32C762.832 332.32 762.473 332.452 762.165 332.716C761.857 332.98 761.542 333.391 761.219 333.948V342H758.095V334.036C758.095 332.892 757.714 332.32 756.951 332.32C756.54 332.32 756.181 332.459 755.873 332.738C755.565 333.002 755.257 333.405 754.949 333.948V342H751.825V330.34H754.531L754.773 331.792C755.213 331.205 755.704 330.758 756.247 330.45C756.804 330.142 757.442 329.988 758.161 329.988C758.821 329.988 759.393 330.157 759.877 330.494C760.361 330.817 760.713 331.279 760.933 331.88C761.417 331.249 761.938 330.78 762.495 330.472C763.067 330.149 763.712 329.988 764.431 329.988ZM779.384 338.766C779.384 339.221 779.45 339.558 779.582 339.778C779.714 339.983 779.934 340.137 780.242 340.24L779.582 342.308C778.892 342.249 778.328 342.088 777.888 341.824C777.462 341.56 777.132 341.149 776.898 340.592C776.135 341.765 774.969 342.352 773.4 342.352C772.241 342.352 771.317 342.022 770.628 341.362C769.953 340.687 769.616 339.815 769.616 338.744C769.616 337.468 770.078 336.493 771.002 335.818C771.926 335.143 773.253 334.806 774.984 334.806H776.326V334.234C776.326 333.515 776.164 333.017 775.842 332.738C775.519 332.459 774.984 332.32 774.236 332.32C773.414 332.32 772.388 332.525 771.156 332.936L770.452 330.846C771.904 330.274 773.341 329.988 774.764 329.988C776.348 329.988 777.514 330.333 778.262 331.022C779.01 331.697 779.384 332.709 779.384 334.058V338.766ZM774.258 340.108C775.138 340.108 775.827 339.675 776.326 338.81V336.588H775.292C773.605 336.588 772.762 337.219 772.762 338.48C772.762 338.993 772.886 339.397 773.136 339.69C773.4 339.969 773.774 340.108 774.258 340.108ZM786.162 329.988C787.805 329.988 789.213 330.457 790.386 331.396L789.198 333.178C788.215 332.562 787.247 332.254 786.294 332.254C785.781 332.254 785.385 332.349 785.106 332.54C784.827 332.731 784.688 332.987 784.688 333.31C784.688 333.545 784.747 333.743 784.864 333.904C784.996 334.065 785.231 334.219 785.568 334.366C785.92 334.513 786.441 334.689 787.13 334.894C788.362 335.231 789.279 335.686 789.88 336.258C790.481 336.815 790.782 337.585 790.782 338.568C790.782 339.345 790.555 340.02 790.1 340.592C789.66 341.164 789.059 341.604 788.296 341.912C787.533 342.205 786.683 342.352 785.744 342.352C784.761 342.352 783.867 342.205 783.06 341.912C782.253 341.604 781.564 341.186 780.992 340.658L782.532 338.942C783.515 339.705 784.556 340.086 785.656 340.086C786.243 340.086 786.705 339.976 787.042 339.756C787.394 339.521 787.57 339.206 787.57 338.81C787.57 338.502 787.504 338.26 787.372 338.084C787.24 337.908 786.998 337.747 786.646 337.6C786.294 337.439 785.744 337.255 784.996 337.05C783.823 336.727 782.95 336.273 782.378 335.686C781.821 335.085 781.542 334.344 781.542 333.464C781.542 332.804 781.733 332.21 782.114 331.682C782.495 331.154 783.031 330.743 783.72 330.45C784.424 330.142 785.238 329.988 786.162 329.988ZM808.286 325.698V342H805.536L805.36 340.57C804.539 341.758 803.424 342.352 802.016 342.352C800.579 342.352 799.479 341.802 798.716 340.702C797.968 339.587 797.594 338.077 797.594 336.17C797.594 334.967 797.785 333.904 798.166 332.98C798.562 332.041 799.12 331.308 799.838 330.78C800.557 330.252 801.386 329.988 802.324 329.988C803.41 329.988 804.356 330.377 805.162 331.154V325.346L808.286 325.698ZM802.94 340.02C803.395 340.02 803.798 339.91 804.15 339.69C804.502 339.455 804.84 339.096 805.162 338.612V333.398C804.854 333.031 804.539 332.76 804.216 332.584C803.908 332.393 803.549 332.298 803.138 332.298C802.42 332.298 801.855 332.613 801.444 333.244C801.048 333.875 800.85 334.85 800.85 336.17C800.85 337.563 801.026 338.553 801.378 339.14C801.745 339.727 802.266 340.02 802.94 340.02ZM821.214 335.906C821.214 336.053 821.192 336.456 821.148 337.116H813.866C813.969 338.172 814.255 338.92 814.724 339.36C815.194 339.8 815.832 340.02 816.638 340.02C817.137 340.02 817.606 339.939 818.046 339.778C818.486 339.617 818.963 339.36 819.476 339.008L820.774 340.768C819.469 341.824 817.995 342.352 816.352 342.352C814.519 342.352 813.111 341.802 812.128 340.702C811.146 339.602 810.654 338.113 810.654 336.236C810.654 335.048 810.86 333.985 811.27 333.046C811.696 332.093 812.304 331.345 813.096 330.802C813.903 330.259 814.856 329.988 815.956 329.988C817.614 329.988 818.904 330.509 819.828 331.55C820.752 332.591 821.214 334.043 821.214 335.906ZM818.112 335.026C818.112 333.09 817.416 332.122 816.022 332.122C815.377 332.122 814.871 332.364 814.504 332.848C814.152 333.317 813.94 334.087 813.866 335.158H818.112V335.026ZM841.453 329.988C842.377 329.988 843.117 330.303 843.675 330.934C844.247 331.565 844.533 332.423 844.533 333.508V342H841.409V334.036C841.409 332.892 841.027 332.32 840.265 332.32C839.854 332.32 839.495 332.452 839.187 332.716C838.879 332.98 838.563 333.391 838.241 333.948V342H835.117V334.036C835.117 332.892 834.735 332.32 833.973 332.32C833.562 332.32 833.203 332.459 832.895 332.738C832.587 333.002 832.279 333.405 831.971 333.948V342H828.847V330.34H831.553L831.795 331.792C832.235 331.205 832.726 330.758 833.269 330.45C833.826 330.142 834.464 329.988 835.183 329.988C835.843 329.988 836.415 330.157 836.899 330.494C837.383 330.817 837.735 331.279 837.955 331.88C838.439 331.249 838.959 330.78 839.517 330.472C840.089 330.149 840.734 329.988 841.453 329.988ZM852.401 329.988C854.146 329.988 855.51 330.538 856.493 331.638C857.476 332.723 857.967 334.234 857.967 336.17C857.967 337.402 857.74 338.487 857.285 339.426C856.845 340.35 856.2 341.069 855.349 341.582C854.513 342.095 853.523 342.352 852.379 342.352C850.634 342.352 849.262 341.809 848.265 340.724C847.282 339.624 846.791 338.106 846.791 336.17C846.791 334.938 847.011 333.86 847.451 332.936C847.906 331.997 848.551 331.271 849.387 330.758C850.238 330.245 851.242 329.988 852.401 329.988ZM852.401 332.32C851.609 332.32 851.015 332.635 850.619 333.266C850.238 333.882 850.047 334.85 850.047 336.17C850.047 337.49 850.238 338.465 850.619 339.096C851.015 339.712 851.602 340.02 852.379 340.02C853.156 340.02 853.736 339.712 854.117 339.096C854.513 338.465 854.711 337.49 854.711 336.17C854.711 334.85 854.52 333.882 854.139 333.266C853.758 332.635 853.178 332.32 852.401 332.32ZM866.855 329.988C867.881 329.988 868.681 330.303 869.253 330.934C869.825 331.55 870.111 332.408 870.111 333.508V342H866.987V334.036C866.987 333.405 866.877 332.965 866.657 332.716C866.451 332.452 866.136 332.32 865.711 332.32C865.271 332.32 864.867 332.459 864.501 332.738C864.149 333.002 863.804 333.405 863.467 333.948V342H860.343V330.34H863.049L863.291 331.814C863.775 331.213 864.303 330.758 864.875 330.45C865.461 330.142 866.121 329.988 866.855 329.988ZM876.207 330.34V342H873.083V330.34H876.207ZM874.623 324.334C875.18 324.334 875.635 324.51 875.987 324.862C876.354 325.199 876.537 325.632 876.537 326.16C876.537 326.688 876.354 327.128 875.987 327.48C875.635 327.817 875.18 327.986 874.623 327.986C874.066 327.986 873.611 327.817 873.259 327.48C872.907 327.128 872.731 326.688 872.731 326.16C872.731 325.632 872.907 325.199 873.259 324.862C873.611 324.51 874.066 324.334 874.623 324.334ZM886.266 341.45C885.841 341.743 885.357 341.963 884.814 342.11C884.286 342.271 883.758 342.352 883.23 342.352C882.027 342.337 881.118 341.993 880.502 341.318C879.886 340.643 879.578 339.653 879.578 338.348V332.54H877.84V330.34H879.578V327.788L882.702 327.414V330.34H885.386L885.078 332.54H882.702V338.282C882.702 338.839 882.797 339.243 882.988 339.492C883.179 339.741 883.472 339.866 883.868 339.866C884.264 339.866 884.704 339.734 885.188 339.47L886.266 341.45ZM892.19 329.988C893.935 329.988 895.299 330.538 896.282 331.638C897.265 332.723 897.756 334.234 897.756 336.17C897.756 337.402 897.529 338.487 897.074 339.426C896.634 340.35 895.989 341.069 895.138 341.582C894.302 342.095 893.312 342.352 892.168 342.352C890.423 342.352 889.051 341.809 888.054 340.724C887.071 339.624 886.58 338.106 886.58 336.17C886.58 334.938 886.8 333.86 887.24 332.936C887.695 331.997 888.34 331.271 889.176 330.758C890.027 330.245 891.031 329.988 892.19 329.988ZM892.19 332.32C891.398 332.32 890.804 332.635 890.408 333.266C890.027 333.882 889.836 334.85 889.836 336.17C889.836 337.49 890.027 338.465 890.408 339.096C890.804 339.712 891.391 340.02 892.168 340.02C892.945 340.02 893.525 339.712 893.906 339.096C894.302 338.465 894.5 337.49 894.5 336.17C894.5 334.85 894.309 333.882 893.928 333.266C893.547 332.635 892.967 332.32 892.19 332.32ZM906.16 330.01C906.512 330.01 906.9 330.069 907.326 330.186L906.798 333.2C906.387 333.097 906.042 333.046 905.764 333.046C905.074 333.046 904.539 333.288 904.158 333.772C903.776 334.256 903.476 334.989 903.256 335.972V342H900.132V330.34H902.838L903.124 332.606C903.402 331.785 903.806 331.147 904.334 330.692C904.876 330.237 905.485 330.01 906.16 330.01ZM918.066 335.906C918.066 336.053 918.044 336.456 918 337.116H910.718C910.821 338.172 911.107 338.92 911.576 339.36C912.045 339.8 912.683 340.02 913.49 340.02C913.989 340.02 914.458 339.939 914.898 339.778C915.338 339.617 915.815 339.36 916.328 339.008L917.626 340.768C916.321 341.824 914.847 342.352 913.204 342.352C911.371 342.352 909.963 341.802 908.98 340.702C907.997 339.602 907.506 338.113 907.506 336.236C907.506 335.048 907.711 333.985 908.122 333.046C908.547 332.093 909.156 331.345 909.948 330.802C910.755 330.259 911.708 329.988 912.808 329.988C914.465 329.988 915.756 330.509 916.68 331.55C917.604 332.591 918.066 334.043 918.066 335.906ZM914.964 335.026C914.964 333.09 914.267 332.122 912.874 332.122C912.229 332.122 911.723 332.364 911.356 332.848C911.004 333.317 910.791 334.087 910.718 335.158H914.964V335.026ZM925.233 329.988C926.978 329.988 928.342 330.538 929.325 331.638C930.308 332.723 930.799 334.234 930.799 336.17C930.799 337.402 930.572 338.487 930.117 339.426C929.677 340.35 929.032 341.069 928.181 341.582C927.345 342.095 926.355 342.352 925.211 342.352C923.466 342.352 922.094 341.809 921.097 340.724C920.114 339.624 919.623 338.106 919.623 336.17C919.623 334.938 919.843 333.86 920.283 332.936C920.738 331.997 921.383 331.271 922.219 330.758C923.07 330.245 924.074 329.988 925.233 329.988ZM925.233 332.32C924.441 332.32 923.847 332.635 923.451 333.266C923.07 333.882 922.879 334.85 922.879 336.17C922.879 337.49 923.07 338.465 923.451 339.096C923.847 339.712 924.434 340.02 925.211 340.02C925.988 340.02 926.568 339.712 926.949 339.096C927.345 338.465 927.543 337.49 927.543 336.17C927.543 334.85 927.352 333.882 926.971 333.266C926.59 332.635 926.01 332.32 925.233 332.32ZM712.638 351.698V368H709.888L709.712 366.57C708.891 367.758 707.776 368.352 706.368 368.352C704.931 368.352 703.831 367.802 703.068 366.702C702.32 365.587 701.946 364.077 701.946 362.17C701.946 360.967 702.137 359.904 702.518 358.98C702.914 358.041 703.471 357.308 704.19 356.78C704.909 356.252 705.737 355.988 706.676 355.988C707.761 355.988 708.707 356.377 709.514 357.154V351.346L712.638 351.698ZM707.292 366.02C707.747 366.02 708.15 365.91 708.502 365.69C708.854 365.455 709.191 365.096 709.514 364.612V359.398C709.206 359.031 708.891 358.76 708.568 358.584C708.26 358.393 707.901 358.298 707.49 358.298C706.771 358.298 706.207 358.613 705.796 359.244C705.4 359.875 705.202 360.85 705.202 362.17C705.202 363.563 705.378 364.553 705.73 365.14C706.097 365.727 706.617 366.02 707.292 366.02ZM725.566 361.906C725.566 362.053 725.544 362.456 725.5 363.116H718.218C718.321 364.172 718.607 364.92 719.076 365.36C719.545 365.8 720.183 366.02 720.99 366.02C721.489 366.02 721.958 365.939 722.398 365.778C722.838 365.617 723.315 365.36 723.828 365.008L725.126 366.768C723.821 367.824 722.347 368.352 720.704 368.352C718.871 368.352 717.463 367.802 716.48 366.702C715.497 365.602 715.006 364.113 715.006 362.236C715.006 361.048 715.211 359.985 715.622 359.046C716.047 358.093 716.656 357.345 717.448 356.802C718.255 356.259 719.208 355.988 720.308 355.988C721.965 355.988 723.256 356.509 724.18 357.55C725.104 358.591 725.566 360.043 725.566 361.906ZM722.464 361.026C722.464 359.09 721.767 358.122 720.374 358.122C719.729 358.122 719.223 358.364 718.856 358.848C718.504 359.317 718.291 360.087 718.218 361.158H722.464V361.026ZM743.054 361.906C743.054 362.053 743.032 362.456 742.988 363.116H735.706C735.809 364.172 736.095 364.92 736.564 365.36C737.034 365.8 737.672 366.02 738.478 366.02C738.977 366.02 739.446 365.939 739.886 365.778C740.326 365.617 740.803 365.36 741.316 365.008L742.614 366.768C741.309 367.824 739.835 368.352 738.192 368.352C736.359 368.352 734.951 367.802 733.968 366.702C732.986 365.602 732.494 364.113 732.494 362.236C732.494 361.048 732.7 359.985 733.11 359.046C733.536 358.093 734.144 357.345 734.936 356.802C735.743 356.259 736.696 355.988 737.796 355.988C739.454 355.988 740.744 356.509 741.668 357.55C742.592 358.591 743.054 360.043 743.054 361.906ZM739.952 361.026C739.952 359.09 739.256 358.122 737.862 358.122C737.217 358.122 736.711 358.364 736.344 358.848C735.992 359.317 735.78 360.087 735.706 361.158H739.952V361.026ZM755.413 356.34V372.84L752.289 372.488V366.812C751.483 367.839 750.434 368.352 749.143 368.352C747.706 368.352 746.606 367.802 745.843 366.702C745.095 365.587 744.721 364.077 744.721 362.17C744.721 360.967 744.912 359.904 745.293 358.98C745.689 358.041 746.239 357.308 746.943 356.78C747.662 356.252 748.498 355.988 749.451 355.988C750.639 355.988 751.666 356.465 752.531 357.418L752.707 356.34H755.413ZM750.067 366.02C750.522 366.02 750.925 365.91 751.277 365.69C751.629 365.455 751.967 365.096 752.289 364.612V359.398C751.981 359.031 751.673 358.76 751.365 358.584C751.057 358.393 750.698 358.298 750.287 358.298C749.569 358.298 749.004 358.613 748.593 359.244C748.183 359.875 747.977 360.85 747.977 362.17C747.977 363.563 748.153 364.553 748.505 365.14C748.872 365.727 749.393 366.02 750.067 366.02ZM768.033 368H765.327L765.173 366.438C764.763 367.083 764.264 367.567 763.677 367.89C763.091 368.198 762.409 368.352 761.631 368.352C760.575 368.352 759.769 368.037 759.211 367.406C758.654 366.761 758.375 365.866 758.375 364.722V356.34H761.499V364.326C761.499 364.942 761.602 365.382 761.807 365.646C762.013 365.895 762.335 366.02 762.775 366.02C763.611 366.02 764.323 365.514 764.909 364.502V356.34H768.033V368ZM774.242 356.34V368H771.118V356.34H774.242ZM772.658 350.334C773.215 350.334 773.67 350.51 774.022 350.862C774.389 351.199 774.572 351.632 774.572 352.16C774.572 352.688 774.389 353.128 774.022 353.48C773.67 353.817 773.215 353.986 772.658 353.986C772.101 353.986 771.646 353.817 771.294 353.48C770.942 353.128 770.766 352.688 770.766 352.16C770.766 351.632 770.942 351.199 771.294 350.862C771.646 350.51 772.101 350.334 772.658 350.334ZM783.619 355.988C785.086 355.988 786.171 356.531 786.875 357.616C787.594 358.687 787.953 360.197 787.953 362.148C787.953 363.336 787.77 364.399 787.403 365.338C787.036 366.277 786.501 367.017 785.797 367.56C785.108 368.088 784.286 368.352 783.333 368.352C782.145 368.352 781.184 367.934 780.451 367.098V372.488L777.327 372.84V356.34H780.077L780.231 357.704C780.671 357.132 781.184 356.707 781.771 356.428C782.372 356.135 782.988 355.988 783.619 355.988ZM782.409 366.02C783.934 366.02 784.697 364.737 784.697 362.17C784.697 360.762 784.528 359.765 784.191 359.178C783.854 358.591 783.34 358.298 782.651 358.298C782.211 358.298 781.8 358.437 781.419 358.716C781.052 358.98 780.73 359.339 780.451 359.794V364.876C780.95 365.639 781.602 366.02 782.409 366.02ZM795.339 355.988C797.084 355.988 798.448 356.538 799.431 357.638C800.413 358.723 800.905 360.234 800.905 362.17C800.905 363.402 800.677 364.487 800.223 365.426C799.783 366.35 799.137 367.069 798.287 367.582C797.451 368.095 796.461 368.352 795.317 368.352C793.571 368.352 792.2 367.809 791.203 366.724C790.22 365.624 789.729 364.106 789.729 362.17C789.729 360.938 789.949 359.86 790.389 358.936C790.843 357.997 791.489 357.271 792.325 356.758C793.175 356.245 794.18 355.988 795.339 355.988ZM795.339 358.32C794.547 358.32 793.953 358.635 793.557 359.266C793.175 359.882 792.985 360.85 792.985 362.17C792.985 363.49 793.175 364.465 793.557 365.096C793.953 365.712 794.539 366.02 795.317 366.02C796.094 366.02 796.673 365.712 797.055 365.096C797.451 364.465 797.649 363.49 797.649 362.17C797.649 360.85 797.458 359.882 797.077 359.266C796.695 358.635 796.116 358.32 795.339 358.32ZM807.152 355.988C808.795 355.988 810.203 356.457 811.376 357.396L810.188 359.178C809.206 358.562 808.238 358.254 807.284 358.254C806.771 358.254 806.375 358.349 806.096 358.54C805.818 358.731 805.678 358.987 805.678 359.31C805.678 359.545 805.737 359.743 805.854 359.904C805.986 360.065 806.221 360.219 806.558 360.366C806.91 360.513 807.431 360.689 808.12 360.894C809.352 361.231 810.269 361.686 810.87 362.258C811.472 362.815 811.772 363.585 811.772 364.568C811.772 365.345 811.545 366.02 811.09 366.592C810.65 367.164 810.049 367.604 809.286 367.912C808.524 368.205 807.673 368.352 806.734 368.352C805.752 368.352 804.857 368.205 804.05 367.912C803.244 367.604 802.554 367.186 801.982 366.658L803.522 364.942C804.505 365.705 805.546 366.086 806.646 366.086C807.233 366.086 807.695 365.976 808.032 365.756C808.384 365.521 808.56 365.206 808.56 364.81C808.56 364.502 808.494 364.26 808.362 364.084C808.23 363.908 807.988 363.747 807.636 363.6C807.284 363.439 806.734 363.255 805.986 363.05C804.813 362.727 803.94 362.273 803.368 361.686C802.811 361.085 802.532 360.344 802.532 359.464C802.532 358.804 802.723 358.21 803.104 357.682C803.486 357.154 804.021 356.743 804.71 356.45C805.414 356.142 806.228 355.988 807.152 355.988Z" fill="#3D32CF"/>
<path d="M953.704 183.776L953.352 186.306H949.502V199H946.268V186.306H942.22V183.776H953.704ZM963.945 192.906C963.945 193.053 963.923 193.456 963.879 194.116H956.597C956.699 195.172 956.985 195.92 957.455 196.36C957.924 196.8 958.562 197.02 959.369 197.02C959.867 197.02 960.337 196.939 960.777 196.778C961.217 196.617 961.693 196.36 962.207 196.008L963.505 197.768C962.199 198.824 960.725 199.352 959.083 199.352C957.249 199.352 955.841 198.802 954.859 197.702C953.876 196.602 953.385 195.113 953.385 193.236C953.385 192.048 953.59 190.985 954.001 190.046C954.426 189.093 955.035 188.345 955.827 187.802C956.633 187.259 957.587 186.988 958.687 186.988C960.344 186.988 961.635 187.509 962.559 188.55C963.483 189.591 963.945 191.043 963.945 192.906ZM960.843 192.026C960.843 190.09 960.146 189.122 958.753 189.122C958.107 189.122 957.601 189.364 957.235 189.848C956.883 190.317 956.67 191.087 956.597 192.158H960.843V192.026ZM969.11 199.352C968.157 199.352 967.416 199.081 966.888 198.538C966.36 197.981 966.096 197.196 966.096 196.184V182.698L969.22 182.346V196.096C969.22 196.609 969.433 196.866 969.858 196.866C970.093 196.866 970.298 196.822 970.474 196.734L971.112 198.956C970.511 199.22 969.843 199.352 969.11 199.352ZM982.464 192.906C982.464 193.053 982.442 193.456 982.398 194.116H975.116C975.219 195.172 975.505 195.92 975.974 196.36C976.444 196.8 977.082 197.02 977.888 197.02C978.387 197.02 978.856 196.939 979.296 196.778C979.736 196.617 980.213 196.36 980.726 196.008L982.024 197.768C980.719 198.824 979.245 199.352 977.602 199.352C975.769 199.352 974.361 198.802 973.378 197.702C972.396 196.602 971.904 195.113 971.904 193.236C971.904 192.048 972.11 190.985 972.52 190.046C972.946 189.093 973.554 188.345 974.346 187.802C975.153 187.259 976.106 186.988 977.206 186.988C978.864 186.988 980.154 187.509 981.078 188.55C982.002 189.591 982.464 191.043 982.464 192.906ZM979.362 192.026C979.362 190.09 978.666 189.122 977.272 189.122C976.627 189.122 976.121 189.364 975.754 189.848C975.402 190.317 975.19 191.087 975.116 192.158H979.362V192.026ZM997.332 186.988C998.256 186.988 998.996 187.303 999.554 187.934C1000.13 188.565 1000.41 189.423 1000.41 190.508V199H997.288V191.036C997.288 189.892 996.906 189.32 996.144 189.32C995.733 189.32 995.374 189.452 995.066 189.716C994.758 189.98 994.442 190.391 994.12 190.948V199H990.996V191.036C990.996 189.892 990.614 189.32 989.852 189.32C989.441 189.32 989.082 189.459 988.774 189.738C988.466 190.002 988.158 190.405 987.85 190.948V199H984.726V187.34H987.432L987.674 188.792C988.114 188.205 988.605 187.758 989.148 187.45C989.705 187.142 990.343 186.988 991.062 186.988C991.722 186.988 992.294 187.157 992.778 187.494C993.262 187.817 993.614 188.279 993.834 188.88C994.318 188.249 994.838 187.78 995.396 187.472C995.968 187.149 996.613 186.988 997.332 186.988ZM1013.23 192.906C1013.23 193.053 1013.21 193.456 1013.16 194.116H1005.88C1005.98 195.172 1006.27 195.92 1006.74 196.36C1007.21 196.8 1007.85 197.02 1008.65 197.02C1009.15 197.02 1009.62 196.939 1010.06 196.778C1010.5 196.617 1010.98 196.36 1011.49 196.008L1012.79 197.768C1011.48 198.824 1010.01 199.352 1008.37 199.352C1006.53 199.352 1005.13 198.802 1004.14 197.702C1003.16 196.602 1002.67 195.113 1002.67 193.236C1002.67 192.048 1002.88 190.985 1003.29 190.046C1003.71 189.093 1004.32 188.345 1005.11 187.802C1005.92 187.259 1006.87 186.988 1007.97 186.988C1009.63 186.988 1010.92 187.509 1011.84 188.55C1012.77 189.591 1013.23 191.043 1013.23 192.906ZM1010.13 192.026C1010.13 190.09 1009.43 189.122 1008.04 189.122C1007.39 189.122 1006.89 189.364 1006.52 189.848C1006.17 190.317 1005.96 191.087 1005.88 192.158H1010.13V192.026ZM1022.47 198.45C1022.04 198.743 1021.56 198.963 1021.01 199.11C1020.49 199.271 1019.96 199.352 1019.43 199.352C1018.23 199.337 1017.32 198.993 1016.7 198.318C1016.09 197.643 1015.78 196.653 1015.78 195.348V189.54H1014.04V187.34H1015.78V184.788L1018.9 184.414V187.34H1021.59L1021.28 189.54H1018.9V195.282C1018.9 195.839 1019 196.243 1019.19 196.492C1019.38 196.741 1019.67 196.866 1020.07 196.866C1020.46 196.866 1020.9 196.734 1021.39 196.47L1022.47 198.45ZM1029.88 187.01C1030.23 187.01 1030.62 187.069 1031.04 187.186L1030.51 190.2C1030.1 190.097 1029.76 190.046 1029.48 190.046C1028.79 190.046 1028.26 190.288 1027.87 190.772C1027.49 191.256 1027.19 191.989 1026.97 192.972V199H1023.85V187.34H1026.55L1026.84 189.606C1027.12 188.785 1027.52 188.147 1028.05 187.692C1028.59 187.237 1029.2 187.01 1029.88 187.01ZM1035.72 187.34V199H1032.59V187.34H1035.72ZM1035.78 180.806L1037.01 183.204L1031.95 185.228L1031.07 183.622L1035.78 180.806ZM1047.71 195.766C1047.71 196.221 1047.78 196.558 1047.91 196.778C1048.04 196.983 1048.26 197.137 1048.57 197.24L1047.91 199.308C1047.22 199.249 1046.66 199.088 1046.22 198.824C1045.79 198.56 1045.46 198.149 1045.23 197.592C1044.46 198.765 1043.3 199.352 1041.73 199.352C1040.57 199.352 1039.65 199.022 1038.96 198.362C1038.28 197.687 1037.94 196.815 1037.94 195.744C1037.94 194.468 1038.41 193.493 1039.33 192.818C1040.25 192.143 1041.58 191.806 1043.31 191.806H1044.65V191.234C1044.65 190.515 1044.49 190.017 1044.17 189.738C1043.85 189.459 1043.31 189.32 1042.56 189.32C1041.74 189.32 1040.72 189.525 1039.48 189.936L1038.78 187.846C1040.23 187.274 1041.67 186.988 1043.09 186.988C1044.68 186.988 1045.84 187.333 1046.59 188.022C1047.34 188.697 1047.71 189.709 1047.71 191.058V195.766ZM1042.59 197.108C1043.47 197.108 1044.16 196.675 1044.65 195.81V193.588H1043.62C1041.93 193.588 1041.09 194.219 1041.09 195.48C1041.09 195.993 1041.21 196.397 1041.46 196.69C1041.73 196.969 1042.1 197.108 1042.59 197.108Z" fill="#3D32CF"/>
</svg>
