<svg width="302" height="306" viewBox="0 0 302 306" fill="none" xmlns="http://www.w3.org/2000/svg">
<line x1="18.4821" y1="85.1326" x2="7.48186" y2="125.133" stroke="#3D32CF"/>
<line x1="101.469" y1="189.113" x2="85.4866" y2="258.113" stroke="#3D32CF"/>
<line x1="144.496" y1="31.9378" x2="151.419" y2="87.1143" stroke="#3D32CF"/>
<line x1="203.489" y1="191.898" x2="212.489" y2="234.898" stroke="#3D32CF"/>
<line x1="250.166" y1="86.875" x2="249.5" y2="21.005" stroke="#3D32CF"/>
<path fill-rule="evenodd" clip-rule="evenodd" d="M218.508 141.38H227.43C228.072 141.38 228.106 142.217 228.254 142.741L231.301 155.151H213.963C214.298 154.455 214.728 152.498 214.973 151.624L217.568 142.793C217.778 142.241 217.933 141.38 218.508 141.38ZM279.107 151.96H257.897V142.555H279.612C280.463 142.555 281.848 143.592 282.315 144.057C285.893 147.618 282.487 151.96 279.107 151.96ZM279.443 135.502H257.897V126.097H279.275C280.343 126.097 281.634 126.954 282.261 127.484C285.7 130.391 282.867 135.502 279.443 135.502ZM222.211 118.708V117.868C222.211 116.819 223.517 115.517 224.568 115.517H225.41C226.461 115.517 227.766 116.819 227.766 117.868V118.708C227.766 119.756 226.461 121.059 225.41 121.059H224.568C223.517 121.059 222.211 119.756 222.211 118.708ZM246.451 87.4711C246.451 89.9829 247.577 91.5017 250.323 91.5017C250.407 92.5129 252.592 97.3015 252.994 98.4085L255.763 105.387C256.314 106.46 256.656 107.554 257.126 108.729C257.685 110.128 261.189 118.313 261.264 119.212H250.996V126.601L229.105 119.405C229.113 117.649 229.181 116.776 228.317 115.808C225.129 112.236 220.865 115.116 220.865 117.868V118.708C220.865 120.578 222.815 122.402 224.736 122.402C224.046 125.361 223.756 128.549 223.292 131.542C223.194 132.176 223.139 132.622 223.066 133.164C222.959 133.956 222.867 134.017 222.716 134.662C221.25 134.662 216.996 134.412 215.927 134.774C214.691 135.191 212.483 136.759 211.883 137.793C211.158 139.041 206.282 156.745 205.527 159.329C205.078 160.864 202.517 168.941 202.517 170.433C202.517 171.429 202.3 172.079 202.961 172.845C203.582 173.565 204.204 174.062 205.21 174.296C205.183 175.505 204.614 177.718 204.415 178.876L203.189 185.715C202.82 188.026 202.967 186.953 201.407 187.967L200.676 188.581C198.628 190.891 200.552 194.448 202.854 194.448C204.058 194.448 204.985 194.281 205.875 193.432L206.508 192.552C207.518 190.675 206.533 188.066 204.369 187.563C204.369 185.69 206.036 177.798 206.473 175.22C206.725 173.734 207.183 174.662 208.627 173.17C209.91 171.845 211.041 164.262 212.112 162.036H233.153L235.609 172.181C235.752 172.597 236.133 173.124 236.395 173.413C236.737 173.789 237.217 174.036 237.804 174.189C238.567 174.388 238.942 174.213 239.173 174.839C239.256 175.063 239.418 176.366 239.477 176.719C239.695 178.016 239.868 179.058 240.078 180.318C240.271 181.479 240.511 182.731 240.704 183.892C240.892 185.023 241.233 186.393 241.233 187.563C241.009 187.712 240.764 187.865 240.53 188.037C237.501 190.262 239.586 194.448 242.074 194.448C243.278 194.448 244.206 194.281 245.096 193.432C246.992 191.621 246.119 188.305 243.632 187.521C242.246 187.084 242.697 187.61 242.457 186.006C242.328 185.146 242.207 184.497 242.074 183.7C241.715 181.539 240.559 176.329 240.559 174.296C240.559 173.813 242.411 173.469 242.411 171.105C242.411 168.64 237.708 151.933 236.988 149.14L234.907 141.141C234.483 139.652 234.471 138.039 233.347 136.988L232.719 136.439C232.034 135.868 231.431 135.313 230.595 135.031C228.767 134.413 226.094 134.662 224.063 134.662C223.907 133.926 224.227 132.607 224.349 131.757L225.291 125.642C225.417 124.883 225.746 123.237 225.746 122.402C230.371 121.328 224.611 119.364 234.058 122.507L245.294 126.244C247.12 126.851 249.125 127.677 250.996 128.112V158.845H279.612C285.68 158.845 290.89 153.145 290.89 147.257C290.89 144.149 289.318 140.227 287.523 139.028C288.26 137.931 289.102 137.057 289.714 135.84C291.075 133.126 291.289 129.354 289.993 126.488C288.522 123.235 286.121 120.434 282.305 119.547C282.764 117.582 284.243 114.546 285.047 112.542C286.07 109.991 292.993 93.3085 293.415 91.5017C295.138 91.5017 295.56 91.6205 296.645 90.8614C297.065 90.5672 297.274 90.3804 297.56 89.9273C299.128 87.4402 297.19 84.4482 295.098 84.4482C293.758 84.4482 292.579 84.7117 291.76 85.8201C290.437 87.6104 291.091 89.1232 292.236 90.8299C291.95 92.0571 291.323 93.1907 290.866 94.3326L283.748 112.086C282.964 114.042 281.402 117.313 280.958 119.212H262.779C262.352 117.384 258.041 107.228 257.248 105.249C256.301 102.886 255.418 100.685 254.459 98.2911C253.963 97.0554 253.556 96.0378 253.064 94.8122C252.621 93.7076 251.926 92.2659 251.669 91.1657C255.259 88.7672 253.002 84.4482 250.491 84.4482C248.86 84.4482 247.617 84.8926 246.836 86.3441C246.634 86.72 246.451 86.9973 246.451 87.4711Z" fill="#3D32CF"/>
<path fill-rule="evenodd" clip-rule="evenodd" d="M173.901 162.708V161.868C173.901 160.819 175.207 159.517 176.258 159.517H177.099C178.151 159.517 179.456 160.819 179.456 161.868V162.708C179.456 163.756 178.151 165.059 177.099 165.059H176.258C175.207 165.059 173.901 163.756 173.901 162.708ZM147.979 87.4711C147.979 88.5456 148.204 89.7437 148.972 90.5101C150.158 91.6927 151.575 91.4543 153.028 91.3337C154.185 93.0572 155.39 94.5738 156.634 96.301C159.299 99.9991 162.28 103.507 164.848 107.251C165.463 108.147 165.148 112.273 165.148 113.502C165.148 118.078 164.731 126.671 165.438 130.342C165.888 132.682 167.004 134.542 168.608 135.744C170.478 137.145 172.854 138.357 175.585 138.357C175.585 145.083 175.921 151.39 175.921 158.173C174.988 158.39 173.494 159.025 173.228 160.021C172.187 159.934 164.941 156.457 163.343 155.776C161.639 155.05 160.122 154.303 158.439 153.615C156.862 152.97 155.027 151.842 153.365 151.456C153.365 149.248 153.131 145.084 153.437 143.129C153.639 141.839 153.196 136.768 152.744 135.617C151.874 133.399 150.776 132.271 148.923 131.032C147.729 130.234 144.437 128.784 142.592 128.784H115.323C110.644 128.784 107.342 131.326 105.499 134.938C105.021 135.876 104.213 137.746 104.213 139.028V166.067C104.213 167.401 105.457 168.159 106.569 168.418C106.507 169.163 106.179 170.108 105.969 170.841L102.853 182.008C102.397 183.741 102.332 182.634 100.946 183.296C98.7716 184.335 97.996 187.271 99.8201 189.091C101.198 190.465 103.522 190.36 104.877 189.066C106.182 187.82 106.172 185.838 105.199 184.396C104.823 183.837 104.459 183.672 103.876 183.364C104.392 182.292 104.587 180.965 104.946 179.729L108.084 168.418C112.25 168.418 111.114 164.909 111.114 161.196C111.114 156.666 110.821 144.198 111.325 140.582C111.729 137.683 113.959 135.334 117.006 135.334C119.959 135.334 122.312 135.502 125.254 135.502V161.028C125.254 163.606 131.235 164.026 132.048 161.929C132.359 161.127 132.207 140.454 132.15 137.007C132.137 136.26 131.951 135.502 132.661 135.502H141.245C142.468 135.502 143.948 136.551 144.576 137.217C145.332 138.021 146.094 139.32 146.372 140.632C146.901 143.133 146.225 161.131 146.456 166.074C146.525 167.559 147.741 168.468 149.157 168.586C149.197 170.398 153.994 185.078 154.038 187.059C151.785 187.659 151.74 191.18 153.18 192.617C154.878 194.311 157.785 193.733 158.871 191.713C159.598 190.361 159.299 188.362 158.084 187.389C157.309 186.771 156.784 186.555 155.385 186.555C155.27 185.171 153.383 178.97 152.969 177.546C152.501 175.937 151.131 169.89 150.504 168.586C154.023 168.507 153.365 165.663 153.365 162.204C153.365 159.125 153.365 156.046 153.365 152.967C154.675 153.272 156.924 154.432 158.19 155.039C162.127 156.925 166.128 158.454 170.086 160.3C170.93 160.694 171.798 160.964 172.555 161.364C172.555 163.125 172.535 163.902 173.433 164.854C174.518 166.004 175.371 166.403 177.099 166.403C178.877 166.403 180.803 164.481 180.803 162.708V161.868C180.803 160.077 178.939 158.312 177.268 158.173C177.268 151.396 176.931 145.036 176.931 138.357H202.854C205.537 138.357 205.513 133.677 203.748 132.091C202.901 131.33 200.996 131.639 199.824 131.639C196.721 131.639 194.194 131.471 191.071 131.471H177.773C175.096 131.475 173.34 130.907 172.315 128.015C171.749 126.416 172.05 108.927 172.05 105.944C172.05 104.486 172.049 103.029 172.057 101.571C172.064 100.085 171.541 98.996 170.366 98.7229C170.948 97.8563 173.377 96.4266 174.407 95.7012L181.308 90.8299C181.744 90.8299 185.16 92.9947 186.982 89.6056C188.193 87.3551 186.422 84.4482 184.338 84.4482C182.707 84.4482 181.464 84.8926 180.683 86.3441C180.158 87.3202 180.166 88.6803 180.634 89.6542C179.09 90.6862 177.6 91.78 176.088 92.8439L169.285 97.6447C168.135 98.4895 167.613 98.2272 166.543 98.7707C165.622 99.2382 165.167 99.9226 165.14 101.234C165.113 102.561 165.148 103.939 165.148 105.273C164.458 104.769 160.532 99.126 159.665 97.9791L155.578 92.4851C155.33 92.1554 154.207 90.8182 154.207 90.494C154.207 90.2019 156.261 87.6411 154.055 85.4396C152.584 83.9718 149.903 84.165 148.68 85.8201C148.345 86.2739 147.979 86.868 147.979 87.4711Z" fill="#3D32CF"/>
<path fill-rule="evenodd" clip-rule="evenodd" d="M82.4986 188.57V187.73C82.4986 186.682 83.804 185.379 84.8551 185.379H85.6967C86.748 185.379 88.0534 186.682 88.0534 187.73V188.57C88.0534 189.619 86.748 190.921 85.6967 190.921H84.8551C83.804 190.921 82.4986 189.619 82.4986 188.57ZM96.4698 107.456C96.4698 108.555 96.6231 109.162 97.1432 110.143C96.475 111.138 95.2509 111.94 94.3314 112.711L91.376 115.305C90.1481 116.497 86.2255 119.516 85.5285 120.555C84.4931 120.314 83.2873 119.951 81.9628 120.356C80.8413 120.698 79.9736 121.491 79.9736 122.906V157.837C79.9736 159.576 81.7679 160.357 83.3402 160.357C83.3402 162.497 83.4749 164.075 83.5018 166.241L84.178 181.017C84.1728 182.202 84.3501 182.761 84.3501 184.036C83.6573 184.368 83.4183 184.292 82.7954 184.836L82.3377 185.219C81.7779 185.587 81.7244 185.243 81.6568 186.051C81.1208 185.908 77.8519 182.827 77.2348 182.234L75.0474 180.218C74.6707 179.84 74.4196 179.576 74.0432 179.204C72.042 177.229 65.3081 171.571 64.319 170.097C65.2346 169.485 65.1606 169.182 65.1606 168.082C65.1606 166.712 64.4674 165.663 63.4109 164.957C62.7027 164.484 62.3778 164.544 61.2915 164.553C60.4495 164.559 59.6062 164.555 58.7642 164.555C56.0104 160.452 51.6134 154.873 48.5203 150.76C47.9219 149.964 47.3869 149.253 46.7884 148.457C46.2783 147.779 45.352 146.913 45.1293 146.082C49.3384 143.86 53.2077 141.079 57.4083 138.851C59.1537 137.925 62.8446 139.072 64.6902 138.391C67.1428 137.486 66.577 131.471 63.6457 131.471H56.2392C55.5044 131.471 34.189 144.89 32.673 145.242C32.673 142.555 32.673 139.868 32.673 137.181C32.673 135.992 32.9001 134.251 32.4635 133.359C31.6072 131.61 30.1376 131.639 28.4647 131.639C25.4314 131.639 29.1721 133.363 22.552 130.988L12.9543 127.465C12.3926 127.255 11.464 126.886 10.9586 126.769C10.9586 125.014 11.0606 124.864 10.3266 123.705C9.18577 121.902 6.35108 121.76 4.88245 123.226C2.89312 125.21 3.74642 129.288 7.76028 129.288C8.75276 129.288 9.9025 128.515 10.2852 127.944C11.6314 128.655 16.29 130.202 18.0069 130.821C20.4565 131.703 23.4435 132.54 25.7716 133.654V160.86C25.7716 163.345 25.4617 167.713 25.9398 169.761C25.2149 169.929 24.5612 170.391 23.8646 170.714C23.0328 171.098 22.4793 171.319 21.6755 171.72C20.8836 172.116 20.2893 172.341 19.4851 172.726L15.281 174.745C14.2144 175.278 9.44483 177.635 8.60205 177.654C8.00044 175.406 4.47726 175.355 3.03089 176.798C1.04156 178.783 1.89487 182.86 5.90872 182.86C7.99706 182.86 9.10704 180.962 9.10704 179.166C9.919 178.737 10.6389 178.471 11.5218 178.048C12.4582 177.6 13.0412 177.287 14.0372 176.863C17.1059 175.556 23.5503 172.138 26.2788 171.087C27.291 170.697 28.8819 172.496 31.3024 171.081C33.2399 169.948 32.5098 166.522 32.5045 164.219C32.5003 162.39 32.673 160.975 32.673 159.013C32.673 157.166 32.673 155.318 32.673 153.471C33.7317 152.912 34.7238 152.355 35.7996 151.72C36.8529 151.098 37.8734 150.487 38.9013 149.944C39.7248 150.494 42.2966 154.175 43.0619 155.198C44.4424 157.044 45.7154 158.73 47.1014 160.572L54.1948 169.953C54.5782 170.465 55.0674 170.836 55.2293 171.441L61.8019 171.448C62.8677 171.441 62.849 171.29 63.6457 171.105C64.2972 172.075 69.8117 176.844 71.1817 178.197L76.6069 183.364C77.404 183.971 78.0181 184.689 78.7507 185.424C79.1983 185.872 79.4134 185.959 79.8454 186.347C80.3635 186.811 80.3685 187.162 81.1518 187.227C81.1518 188.987 81.1319 189.764 82.0306 190.717C83.1151 191.866 83.9678 192.265 85.6967 192.265C87.4739 192.265 89.4 190.343 89.4 188.57V187.73C89.4 185.924 87.4862 184.076 85.6967 184.036L85.0167 169.432C84.9774 166.226 84.6867 163.562 84.6867 160.357C85.818 159.815 86.7067 159.362 86.7067 157.837V122.57C86.7067 122.058 86.545 121.893 86.3701 121.562C87.7846 120.618 89.3861 118.831 90.7716 117.725L92.3021 116.397C92.5786 116.152 92.6943 115.978 92.9848 115.734L94.4091 114.468C94.7712 114.149 94.8857 114.138 95.2509 113.797C95.5312 113.535 95.6418 113.379 95.9398 113.141C96.3197 112.837 96.3901 112.825 96.7652 112.453C97.1808 112.04 97.8697 111.452 98.3216 111.15C99.4755 111.419 99.1647 111.486 100.51 111.486C101.403 111.486 102.391 110.719 102.838 110.114C104.646 107.667 102.693 104.433 100.51 104.433C99.3059 104.433 98.378 104.6 97.4885 105.449C97.0052 105.911 96.4698 106.745 96.4698 107.456Z" fill="#3D32CF"/>
<path fill-rule="evenodd" clip-rule="evenodd" d="M294.93 173.96C294.93 175.161 295.003 176.08 295.924 176.999C298.326 179.396 302 177.133 302 174.967C302 173.766 301.927 172.847 301.006 171.928C298.576 169.503 294.93 171.857 294.93 173.96Z" fill="#3D32CF"/>
<path fill-rule="evenodd" clip-rule="evenodd" d="M211.775 102.921C211.775 104.122 211.848 105.041 212.769 105.96C214.219 107.407 217.115 107.445 218.4 105.165C219.91 102.486 217.507 99.8981 215.815 99.8981C214.577 99.8981 213.435 99.9731 212.477 101.27C212.323 101.478 212.294 101.547 212.161 101.794C211.959 102.17 211.775 102.447 211.775 102.921Z" fill="#3D32CF"/>
<path fill-rule="evenodd" clip-rule="evenodd" d="M44.4561 115.853C44.4561 117.054 44.5286 117.973 45.4497 118.892C46.7639 120.203 49.0202 120.287 50.5072 118.867C50.6807 118.701 50.6284 118.776 50.8241 118.511C50.9777 118.304 51.0074 118.235 51.1404 117.987C52.5162 115.429 50.2195 112.83 48.496 112.83C46.8983 112.83 45.7193 113.094 44.8414 114.726C44.6394 115.102 44.4561 115.379 44.4561 115.853Z" fill="#3D32CF"/>
<path d="M15.544 31.672C16.344 31.672 17.0373 31.7893 17.624 32.024C18.2213 32.248 18.7707 32.5947 19.272 33.064L18.152 34.36C17.7573 34.04 17.3627 33.8053 16.968 33.656C16.5733 33.5067 16.152 33.432 15.704 33.432C15.2133 33.432 14.8187 33.5387 14.52 33.752C14.232 33.9547 14.088 34.248 14.088 34.632C14.088 34.8987 14.1467 35.1173 14.264 35.288C14.392 35.4587 14.6107 35.6187 14.92 35.768C15.2293 35.9173 15.6933 36.088 16.312 36.28C17.4107 36.632 18.232 37.0693 18.776 37.592C19.32 38.104 19.592 38.84 19.592 39.8C19.592 40.4827 19.4213 41.0853 19.08 41.608C18.7387 42.12 18.2427 42.5253 17.592 42.824C16.9413 43.112 16.1787 43.256 15.304 43.256C14.4293 43.256 13.6507 43.1173 12.968 42.84C12.2853 42.5627 11.6987 42.184 11.208 41.704L12.408 40.376C12.8347 40.7387 13.2773 41.016 13.736 41.208C14.1947 41.3893 14.696 41.48 15.24 41.48C15.816 41.48 16.2747 41.3467 16.616 41.08C16.968 40.8133 17.144 40.44 17.144 39.96C17.144 39.6613 17.08 39.416 16.952 39.224C16.8347 39.0213 16.6267 38.84 16.328 38.68C16.0293 38.52 15.5973 38.3547 15.032 38.184C13.8267 37.8107 12.9627 37.3627 12.44 36.84C11.928 36.3173 11.672 35.6347 11.672 34.792C11.672 34.1733 11.8373 33.6293 12.168 33.16C12.4987 32.68 12.9573 32.312 13.544 32.056C14.1307 31.8 14.7973 31.672 15.544 31.672ZM23.4389 34.52V43H21.1669V34.52H23.4389ZM22.2869 30.152C22.6922 30.152 23.0229 30.28 23.2789 30.536C23.5455 30.7813 23.6789 31.096 23.6789 31.48C23.6789 31.864 23.5455 32.184 23.2789 32.44C23.0229 32.6853 22.6922 32.808 22.2869 32.808C21.8815 32.808 21.5509 32.6853 21.2949 32.44C21.0389 32.184 20.9109 31.864 20.9109 31.48C20.9109 31.096 21.0389 30.7813 21.2949 30.536C21.5509 30.28 21.8815 30.152 22.2869 30.152ZM28.4985 34.264C29.6932 34.264 30.7172 34.6053 31.5705 35.288L30.7065 36.584C29.9918 36.136 29.2878 35.912 28.5945 35.912C28.2212 35.912 27.9332 35.9813 27.7305 36.12C27.5278 36.2587 27.4265 36.4453 27.4265 36.68C27.4265 36.8507 27.4692 36.9947 27.5545 37.112C27.6505 37.2293 27.8212 37.3413 28.0665 37.448C28.3225 37.5547 28.7012 37.6827 29.2025 37.832C30.0985 38.0773 30.7652 38.408 31.2025 38.824C31.6398 39.2293 31.8585 39.7893 31.8585 40.504C31.8585 41.0693 31.6932 41.56 31.3625 41.976C31.0425 42.392 30.6052 42.712 30.0505 42.936C29.4958 43.1493 28.8772 43.256 28.1945 43.256C27.4798 43.256 26.8292 43.1493 26.2425 42.936C25.6558 42.712 25.1545 42.408 24.7385 42.024L25.8585 40.776C26.5732 41.3307 27.3305 41.608 28.1305 41.608C28.5572 41.608 28.8932 41.528 29.1385 41.368C29.3945 41.1973 29.5225 40.968 29.5225 40.68C29.5225 40.456 29.4745 40.28 29.3785 40.152C29.2825 40.024 29.1065 39.9067 28.8505 39.8C28.5945 39.6827 28.1945 39.5493 27.6505 39.4C26.7972 39.1653 26.1625 38.8347 25.7465 38.408C25.3412 37.9707 25.1385 37.432 25.1385 36.792C25.1385 36.312 25.2772 35.88 25.5545 35.496C25.8318 35.112 26.2212 34.8133 26.7225 34.6C27.2345 34.376 27.8265 34.264 28.4985 34.264ZM38.4108 42.6C38.1014 42.8133 37.7494 42.9733 37.3548 43.08C36.9708 43.1973 36.5868 43.256 36.2028 43.256C35.3281 43.2453 34.6668 42.9947 34.2188 42.504C33.7708 42.0133 33.5468 41.2933 33.5468 40.344V36.12H32.2828V34.52H33.5468V32.664L35.8188 32.392V34.52H37.7708L37.5468 36.12H35.8188V40.296C35.8188 40.7013 35.8881 40.9947 36.0268 41.176C36.1654 41.3573 36.3788 41.448 36.6668 41.448C36.9548 41.448 37.2748 41.352 37.6268 41.16L38.4108 42.6ZM46.3193 38.568C46.3193 38.6747 46.3033 38.968 46.2713 39.448H40.9753C41.0499 40.216 41.2579 40.76 41.5993 41.08C41.9406 41.4 42.4046 41.56 42.9913 41.56C43.3539 41.56 43.6953 41.5013 44.0153 41.384C44.3353 41.2667 44.6819 41.08 45.0553 40.824L45.9993 42.104C45.0499 42.872 43.9779 43.256 42.7833 43.256C41.4499 43.256 40.4259 42.856 39.7113 42.056C38.9966 41.256 38.6393 40.1733 38.6393 38.808C38.6393 37.944 38.7886 37.1707 39.0872 36.488C39.3966 35.7947 39.8393 35.2507 40.4153 34.856C41.0019 34.4613 41.6953 34.264 42.4953 34.264C43.7006 34.264 44.6393 34.6427 45.3113 35.4C45.9833 36.1573 46.3193 37.2133 46.3193 38.568ZM44.0633 37.928C44.0633 36.52 43.5566 35.816 42.5433 35.816C42.0739 35.816 41.7059 35.992 41.4393 36.344C41.1833 36.6853 41.0286 37.2453 40.9753 38.024H44.0633V37.928ZM57.1318 34.264C57.8038 34.264 58.3424 34.4933 58.7478 34.952C59.1638 35.4107 59.3718 36.0347 59.3718 36.824V43H57.0998V37.208C57.0998 36.376 56.8224 35.96 56.2678 35.96C55.9691 35.96 55.7078 36.056 55.4838 36.248C55.2598 36.44 55.0304 36.7387 54.7958 37.144V43H52.5238V37.208C52.5238 36.376 52.2464 35.96 51.6918 35.96C51.3931 35.96 51.1318 36.0613 50.9078 36.264C50.6838 36.456 50.4598 36.7493 50.2358 37.144V43H47.9638V34.52H49.9318L50.1078 35.576C50.4278 35.1493 50.7851 34.824 51.1798 34.6C51.5851 34.376 52.0491 34.264 52.5718 34.264C53.0518 34.264 53.4678 34.3867 53.8198 34.632C54.1718 34.8667 54.4278 35.2027 54.5878 35.64C54.9398 35.1813 55.3184 34.84 55.7238 34.616C56.1398 34.3813 56.6091 34.264 57.1318 34.264ZM68.0063 40.648C68.0063 40.9787 68.0543 41.224 68.1503 41.384C68.2463 41.5333 68.4063 41.6453 68.6302 41.72L68.1503 43.224C67.6489 43.1813 67.2383 43.064 66.9183 42.872C66.6089 42.68 66.3689 42.3813 66.1983 41.976C65.6436 42.8293 64.7956 43.256 63.6543 43.256C62.8116 43.256 62.1396 43.016 61.6383 42.536C61.1476 42.0453 60.9023 41.4107 60.9023 40.632C60.9023 39.704 61.2383 38.9947 61.9103 38.504C62.5823 38.0133 63.5476 37.768 64.8063 37.768H65.7823V37.352C65.7823 36.8293 65.6649 36.4667 65.4303 36.264C65.1956 36.0613 64.8063 35.96 64.2623 35.96C63.6649 35.96 62.9183 36.1093 62.0223 36.408L61.5103 34.888C62.5663 34.472 63.6116 34.264 64.6463 34.264C65.7983 34.264 66.6463 34.5147 67.1903 35.016C67.7343 35.5067 68.0063 36.2427 68.0063 37.224V40.648ZM64.2783 41.624C64.9183 41.624 65.4196 41.3093 65.7823 40.68V39.064H65.0303C63.8036 39.064 63.1903 39.5227 63.1903 40.44C63.1903 40.8133 63.2809 41.1067 63.4623 41.32C63.6543 41.5227 63.9263 41.624 64.2783 41.624ZM18.6 59.648C18.6 59.9787 18.648 60.224 18.744 60.384C18.84 60.5333 19 60.6453 19.224 60.72L18.744 62.224C18.2427 62.1813 17.832 62.064 17.512 61.872C17.2027 61.68 16.9627 61.3813 16.792 60.976C16.2373 61.8293 15.3893 62.256 14.248 62.256C13.4053 62.256 12.7333 62.016 12.232 61.536C11.7413 61.0453 11.496 60.4107 11.496 59.632C11.496 58.704 11.832 57.9947 12.504 57.504C13.176 57.0133 14.1413 56.768 15.4 56.768H16.376V56.352C16.376 55.8293 16.2587 55.4667 16.024 55.264C15.7893 55.0613 15.4 54.96 14.856 54.96C14.2587 54.96 13.512 55.1093 12.616 55.408L12.104 53.888C13.16 53.472 14.2053 53.264 15.24 53.264C16.392 53.264 17.24 53.5147 17.784 54.016C18.328 54.5067 18.6 55.2427 18.6 56.224V59.648ZM14.872 60.624C15.512 60.624 16.0133 60.3093 16.376 59.68V58.064H15.624C14.3973 58.064 13.784 58.5227 13.784 59.44C13.784 59.8133 13.8747 60.1067 14.056 60.32C14.248 60.5227 14.52 60.624 14.872 60.624ZM27.814 62H25.846L25.734 60.864C25.4353 61.3333 25.0727 61.6853 24.646 61.92C24.2193 62.144 23.7233 62.256 23.158 62.256C22.39 62.256 21.8033 62.0267 21.398 61.568C20.9927 61.0987 20.79 60.448 20.79 59.616V53.52H23.062V59.328C23.062 59.776 23.1367 60.096 23.286 60.288C23.4353 60.4693 23.67 60.56 23.99 60.56C24.598 60.56 25.1153 60.192 25.542 59.456V53.52H27.814V62ZM35.1295 61.6C34.8202 61.8133 34.4682 61.9733 34.0735 62.08C33.6895 62.1973 33.3055 62.256 32.9215 62.256C32.0468 62.2453 31.3855 61.9947 30.9375 61.504C30.4895 61.0133 30.2655 60.2933 30.2655 59.344V55.12H29.0015V53.52H30.2655V51.664L32.5375 51.392V53.52H34.4895L34.2655 55.12H32.5375V59.296C32.5375 59.7013 32.6068 59.9947 32.7455 60.176C32.8842 60.3573 33.0975 60.448 33.3855 60.448C33.6735 60.448 33.9935 60.352 34.3455 60.16L35.1295 61.6ZM39.438 53.264C40.7073 53.264 41.6993 53.664 42.414 54.464C43.1287 55.2533 43.486 56.352 43.486 57.76C43.486 58.656 43.3207 59.4453 42.99 60.128C42.67 60.8 42.2007 61.3227 41.582 61.696C40.974 62.0693 40.254 62.256 39.422 62.256C38.1527 62.256 37.1553 61.8613 36.43 61.072C35.7153 60.272 35.358 59.168 35.358 57.76C35.358 56.864 35.518 56.08 35.838 55.408C36.1687 54.7253 36.638 54.1973 37.246 53.824C37.8647 53.4507 38.5953 53.264 39.438 53.264ZM39.438 54.96C38.862 54.96 38.43 55.1893 38.142 55.648C37.8647 56.096 37.726 56.8 37.726 57.76C37.726 58.72 37.8647 59.4293 38.142 59.888C38.43 60.336 38.8567 60.56 39.422 60.56C39.9873 60.56 40.4087 60.336 40.686 59.888C40.974 59.4293 41.118 58.72 41.118 57.76C41.118 56.8 40.9793 56.096 40.702 55.648C40.4247 55.1893 40.0033 54.96 39.438 54.96ZM54.3818 53.264C55.0538 53.264 55.5924 53.4933 55.9978 53.952C56.4138 54.4107 56.6218 55.0347 56.6218 55.824V62H54.3498V56.208C54.3498 55.376 54.0724 54.96 53.5178 54.96C53.2191 54.96 52.9578 55.056 52.7338 55.248C52.5098 55.44 52.2804 55.7387 52.0458 56.144V62H49.7738V56.208C49.7738 55.376 49.4964 54.96 48.9418 54.96C48.6431 54.96 48.3818 55.0613 48.1578 55.264C47.9338 55.456 47.7098 55.7493 47.4858 56.144V62H45.2138V53.52H47.1818L47.3578 54.576C47.6778 54.1493 48.0351 53.824 48.4298 53.6C48.8351 53.376 49.2991 53.264 49.8218 53.264C50.3018 53.264 50.7178 53.3867 51.0698 53.632C51.4218 53.8667 51.6778 54.2027 51.8378 54.64C52.1898 54.1813 52.5684 53.84 52.9738 53.616C53.3898 53.3813 53.8591 53.264 54.3818 53.264ZM65.2563 59.648C65.2563 59.9787 65.3043 60.224 65.4003 60.384C65.4963 60.5333 65.6563 60.6453 65.8802 60.72L65.4003 62.224C64.8989 62.1813 64.4883 62.064 64.1683 61.872C63.8589 61.68 63.6189 61.3813 63.4483 60.976C62.8936 61.8293 62.0456 62.256 60.9043 62.256C60.0616 62.256 59.3896 62.016 58.8883 61.536C58.3976 61.0453 58.1523 60.4107 58.1523 59.632C58.1523 58.704 58.4883 57.9947 59.1603 57.504C59.8323 57.0133 60.7976 56.768 62.0563 56.768H63.0323V56.352C63.0323 55.8293 62.9149 55.4667 62.6803 55.264C62.4456 55.0613 62.0563 54.96 61.5123 54.96C60.9149 54.96 60.1683 55.1093 59.2723 55.408L58.7603 53.888C59.8163 53.472 60.8616 53.264 61.8963 53.264C63.0483 53.264 63.8963 53.5147 64.4403 54.016C64.9843 54.5067 65.2563 55.2427 65.2563 56.224V59.648ZM61.5283 60.624C62.1683 60.624 62.6696 60.3093 63.0323 59.68V58.064H62.2803C61.0536 58.064 60.4403 58.5227 60.4403 59.44C60.4403 59.8133 60.5309 60.1067 60.7123 60.32C60.9043 60.5227 61.1763 60.624 61.5283 60.624ZM72.5983 61.6C72.2889 61.8133 71.9369 61.9733 71.5423 62.08C71.1583 62.1973 70.7743 62.256 70.3903 62.256C69.5156 62.2453 68.8543 61.9947 68.4062 61.504C67.9583 61.0133 67.7343 60.2933 67.7343 59.344V55.12H66.4703V53.52H67.7343V51.664L70.0063 51.392V53.52H71.9583L71.7343 55.12H70.0063V59.296C70.0063 59.7013 70.0756 59.9947 70.2143 60.176C70.3529 60.3573 70.5663 60.448 70.8543 60.448C71.1423 60.448 71.4623 60.352 71.8143 60.16L72.5983 61.6ZM75.8764 53.52V62H73.6044V53.52H75.8764ZM74.7244 49.152C75.1297 49.152 75.4604 49.28 75.7164 49.536C75.983 49.7813 76.1164 50.096 76.1164 50.48C76.1164 50.864 75.983 51.184 75.7164 51.44C75.4604 51.6853 75.1297 51.808 74.7244 51.808C74.319 51.808 73.9884 51.6853 73.7324 51.44C73.4764 51.184 73.3484 50.864 73.3484 50.48C73.3484 50.096 73.4764 49.7813 73.7324 49.536C73.9884 49.28 74.319 49.152 74.7244 49.152ZM83.848 53.52V55.136L79.864 60.24H83.928L83.704 62H77.256V60.368L81.24 55.264H77.592V53.52H83.848ZM91.6313 59.648C91.6313 59.9787 91.6793 60.224 91.7753 60.384C91.8713 60.5333 92.0313 60.6453 92.2552 60.72L91.7753 62.224C91.2739 62.1813 90.8633 62.064 90.5433 61.872C90.2339 61.68 89.9939 61.3813 89.8233 60.976C89.2686 61.8293 88.4206 62.256 87.2793 62.256C86.4366 62.256 85.7646 62.016 85.2633 61.536C84.7726 61.0453 84.5273 60.4107 84.5273 59.632C84.5273 58.704 84.8633 57.9947 85.5353 57.504C86.2073 57.0133 87.1726 56.768 88.4313 56.768H89.4073V56.352C89.4073 55.8293 89.2899 55.4667 89.0553 55.264C88.8206 55.0613 88.4313 54.96 87.8873 54.96C87.2899 54.96 86.5433 55.1093 85.6473 55.408L85.1353 53.888C86.1913 53.472 87.2366 53.264 88.2713 53.264C89.4233 53.264 90.2713 53.5147 90.8153 54.016C91.3593 54.5067 91.6313 55.2427 91.6313 56.224V59.648ZM87.9033 60.624C88.5433 60.624 89.0446 60.3093 89.4073 59.68V58.064H88.6553C87.4286 58.064 86.8153 58.5227 86.8153 59.44C86.8153 59.8133 86.9059 60.1067 87.0873 60.32C87.2793 60.5227 87.5513 60.624 87.9033 60.624ZM101.245 50.144V62H99.2453L99.1173 60.96C98.5199 61.824 97.7093 62.256 96.6853 62.256C95.6399 62.256 94.8399 61.856 94.2853 61.056C93.7413 60.2453 93.4693 59.1467 93.4693 57.76C93.4693 56.8853 93.6079 56.112 93.8853 55.44C94.1733 54.7573 94.5786 54.224 95.1013 53.84C95.6239 53.456 96.2266 53.264 96.9093 53.264C97.6986 53.264 98.3866 53.5467 98.9733 54.112V49.888L101.245 50.144ZM97.3573 60.56C97.6879 60.56 97.9813 60.48 98.2373 60.32C98.4933 60.1493 98.7386 59.888 98.9733 59.536V55.744C98.7493 55.4773 98.5199 55.28 98.2853 55.152C98.0613 55.0133 97.7999 54.944 97.5013 54.944C96.9786 54.944 96.5679 55.1733 96.2693 55.632C95.9813 56.0907 95.8373 56.8 95.8373 57.76C95.8373 58.7733 95.9653 59.4933 96.2213 59.92C96.4879 60.3467 96.8666 60.56 97.3573 60.56ZM107.047 53.264C108.317 53.264 109.309 53.664 110.023 54.464C110.738 55.2533 111.095 56.352 111.095 57.76C111.095 58.656 110.93 59.4453 110.599 60.128C110.279 60.8 109.81 61.3227 109.191 61.696C108.583 62.0693 107.863 62.256 107.031 62.256C105.762 62.256 104.765 61.8613 104.039 61.072C103.325 60.272 102.967 59.168 102.967 57.76C102.967 56.864 103.127 56.08 103.447 55.408C103.778 54.7253 104.247 54.1973 104.855 53.824C105.474 53.4507 106.205 53.264 107.047 53.264ZM107.047 54.96C106.471 54.96 106.039 55.1893 105.751 55.648C105.474 56.096 105.335 56.8 105.335 57.76C105.335 58.72 105.474 59.4293 105.751 59.888C106.039 60.336 106.466 60.56 107.031 60.56C107.597 60.56 108.018 60.336 108.295 59.888C108.583 59.4293 108.727 58.72 108.727 57.76C108.727 56.8 108.589 56.096 108.311 55.648C108.034 55.1893 107.613 54.96 107.047 54.96ZM19.464 69.144V81H17.464L17.336 79.96C16.7387 80.824 15.928 81.256 14.904 81.256C13.8587 81.256 13.0587 80.856 12.504 80.056C11.96 79.2453 11.688 78.1467 11.688 76.76C11.688 75.8853 11.8267 75.112 12.104 74.44C12.392 73.7573 12.7973 73.224 13.32 72.84C13.8427 72.456 14.4453 72.264 15.128 72.264C15.9173 72.264 16.6053 72.5467 17.192 73.112V68.888L19.464 69.144ZM15.576 79.56C15.9067 79.56 16.2 79.48 16.456 79.32C16.712 79.1493 16.9573 78.888 17.192 78.536V74.744C16.968 74.4773 16.7387 74.28 16.504 74.152C16.28 74.0133 16.0187 73.944 15.72 73.944C15.1973 73.944 14.7867 74.1733 14.488 74.632C14.2 75.0907 14.056 75.8 14.056 76.76C14.056 77.7733 14.184 78.4933 14.44 78.92C14.7067 79.3467 15.0853 79.56 15.576 79.56ZM28.8661 76.568C28.8661 76.6747 28.8501 76.968 28.8181 77.448H23.5221C23.5968 78.216 23.8048 78.76 24.1461 79.08C24.4875 79.4 24.9515 79.56 25.5381 79.56C25.9008 79.56 26.2421 79.5013 26.5621 79.384C26.8821 79.2667 27.2288 79.08 27.6021 78.824L28.5461 80.104C27.5968 80.872 26.5248 81.256 25.3301 81.256C23.9968 81.256 22.9728 80.856 22.2581 80.056C21.5435 79.256 21.1861 78.1733 21.1861 76.808C21.1861 75.944 21.3355 75.1707 21.6341 74.488C21.9435 73.7947 22.3861 73.2507 22.9621 72.856C23.5488 72.4613 24.2421 72.264 25.0421 72.264C26.2475 72.264 27.1861 72.6427 27.8581 73.4C28.5301 74.1573 28.8661 75.2133 28.8661 76.568ZM26.6101 75.928C26.6101 74.52 26.1035 73.816 25.0901 73.816C24.6208 73.816 24.2528 73.992 23.9861 74.344C23.7301 74.6853 23.5755 75.2453 23.5221 76.024H26.6101V75.928ZM37.9529 72.264C38.5182 72.264 39.0249 72.3493 39.4729 72.52C39.9315 72.68 40.3635 72.936 40.7689 73.288L39.7769 74.632C39.4995 74.4187 39.2275 74.264 38.9609 74.168C38.7049 74.072 38.4222 74.024 38.1129 74.024C36.9075 74.024 36.3049 74.952 36.3049 76.808C36.3049 77.7467 36.4595 78.4187 36.7689 78.824C37.0782 79.2293 37.5209 79.432 38.0969 79.432C38.3955 79.432 38.6675 79.3893 38.9129 79.304C39.1582 79.208 39.4462 79.0533 39.7769 78.84L40.7689 80.264C39.9582 80.9253 39.0302 81.256 37.9849 81.256C37.1529 81.256 36.4275 81.0747 35.8089 80.712C35.2009 80.3493 34.7315 79.8373 34.4009 79.176C34.0702 78.504 33.9049 77.72 33.9049 76.824C33.9049 75.928 34.0702 75.1387 34.4009 74.456C34.7315 73.7627 35.2009 73.224 35.8089 72.84C36.4275 72.456 37.1422 72.264 37.9529 72.264ZM45.313 72.264C46.5823 72.264 47.5743 72.664 48.289 73.464C49.0037 74.2533 49.361 75.352 49.361 76.76C49.361 77.656 49.1957 78.4453 48.865 79.128C48.545 79.8 48.0757 80.3227 47.457 80.696C46.849 81.0693 46.129 81.256 45.297 81.256C44.0277 81.256 43.0303 80.8613 42.305 80.072C41.5903 79.272 41.233 78.168 41.233 76.76C41.233 75.864 41.393 75.08 41.713 74.408C42.0437 73.7253 42.513 73.1973 43.121 72.824C43.7397 72.4507 44.4703 72.264 45.313 72.264ZM45.313 73.96C44.737 73.96 44.305 74.1893 44.017 74.648C43.7397 75.096 43.601 75.8 43.601 76.76C43.601 77.72 43.7397 78.4293 44.017 78.888C44.305 79.336 44.7317 79.56 45.297 79.56C45.8623 79.56 46.2837 79.336 46.561 78.888C46.849 78.4293 46.993 77.72 46.993 76.76C46.993 75.8 46.8543 75.096 46.577 74.648C46.2997 74.1893 45.8783 73.96 45.313 73.96ZM55.8248 72.264C56.5714 72.264 57.1528 72.4933 57.5688 72.952C57.9848 73.4 58.1927 74.024 58.1927 74.824V81H55.9208V75.208C55.9208 74.7493 55.8408 74.4293 55.6808 74.248C55.5314 74.056 55.3021 73.96 54.9928 73.96C54.6728 73.96 54.3794 74.0613 54.1128 74.264C53.8568 74.456 53.6061 74.7493 53.3608 75.144V81H51.0888V72.52H53.0568L53.2328 73.592C53.5848 73.1547 53.9688 72.824 54.3848 72.6C54.8114 72.376 55.2914 72.264 55.8248 72.264ZM65.4264 80.6C65.117 80.8133 64.765 80.9733 64.3704 81.08C63.9864 81.1973 63.6024 81.256 63.2184 81.256C62.3437 81.2453 61.6824 80.9947 61.2344 80.504C60.7864 80.0133 60.5624 79.2933 60.5624 78.344V74.12H59.2984V72.52H60.5624V70.664L62.8344 70.392V72.52H64.7864L64.5624 74.12H62.8344V78.296C62.8344 78.7013 62.9037 78.9947 63.0424 79.176C63.181 79.3573 63.3944 79.448 63.6824 79.448C63.9704 79.448 64.2904 79.352 64.6424 79.16L65.4264 80.6ZM72.7406 78.648C72.7406 78.9787 72.7886 79.224 72.8846 79.384C72.9806 79.5333 73.1406 79.6453 73.3646 79.72L72.8846 81.224C72.3833 81.1813 71.9726 81.064 71.6526 80.872C71.3433 80.68 71.1033 80.3813 70.9326 79.976C70.378 80.8293 69.53 81.256 68.3886 81.256C67.546 81.256 66.874 81.016 66.3726 80.536C65.882 80.0453 65.6366 79.4107 65.6366 78.632C65.6366 77.704 65.9726 76.9947 66.6446 76.504C67.3166 76.0133 68.282 75.768 69.5406 75.768H70.5166V75.352C70.5166 74.8293 70.3993 74.4667 70.1646 74.264C69.93 74.0613 69.5406 73.96 68.9966 73.96C68.3993 73.96 67.6526 74.1093 66.7566 74.408L66.2446 72.888C67.3006 72.472 68.346 72.264 69.3806 72.264C70.5326 72.264 71.3806 72.5147 71.9246 73.016C72.4686 73.5067 72.7406 74.2427 72.7406 75.224V78.648ZM69.0126 79.624C69.6526 79.624 70.154 79.3093 70.5166 78.68V77.064H69.7646C68.538 77.064 67.9246 77.5227 67.9246 78.44C67.9246 78.8133 68.0153 79.1067 68.1966 79.32C68.3886 79.5227 68.6606 79.624 69.0126 79.624ZM79.6026 72.264C80.5946 72.264 81.3626 72.6587 81.9066 73.448C82.4613 74.2373 82.7386 75.3413 82.7386 76.76C82.7386 77.6347 82.6 78.4133 82.3226 79.096C82.056 79.768 81.6666 80.296 81.1546 80.68C80.6533 81.064 80.0613 81.256 79.3786 81.256C78.4506 81.256 77.7093 80.8933 77.1546 80.168L77.0266 81H75.0106V69.144L77.2826 68.888V73.432C77.5493 73.0693 77.8853 72.7867 78.2906 72.584C78.696 72.3707 79.1333 72.264 79.6026 72.264ZM78.7386 79.576C79.8266 79.576 80.3706 78.6373 80.3706 76.76C80.3706 75.7253 80.2373 75 79.9706 74.584C79.7146 74.1573 79.3413 73.944 78.8506 73.944C78.2426 73.944 77.72 74.3067 77.2826 75.032V78.664C77.656 79.272 78.1413 79.576 78.7386 79.576ZM86.8139 72.52V81H84.5419V72.52H86.8139ZM85.6619 68.152C86.0672 68.152 86.3979 68.28 86.6539 68.536C86.9205 68.7813 87.0539 69.096 87.0539 69.48C87.0539 69.864 86.9205 70.184 86.6539 70.44C86.3979 70.6853 86.0672 70.808 85.6619 70.808C85.2565 70.808 84.9259 70.6853 84.6699 70.44C84.4139 70.184 84.2859 69.864 84.2859 69.48C84.2859 69.096 84.4139 68.7813 84.6699 68.536C84.9259 68.28 85.2565 68.152 85.6619 68.152ZM91.1695 81.256C90.4762 81.256 89.9375 81.0587 89.5535 80.664C89.1695 80.2587 88.9775 79.688 88.9775 78.952V69.144L91.2495 68.888V78.888C91.2495 79.2613 91.4042 79.448 91.7135 79.448C91.8842 79.448 92.0335 79.416 92.1615 79.352L92.6255 80.968C92.1882 81.16 91.7028 81.256 91.1695 81.256ZM96.0639 72.52V81H93.7919V72.52H96.0639ZM94.9119 68.152C95.3172 68.152 95.6479 68.28 95.9039 68.536C96.1705 68.7813 96.3039 69.096 96.3039 69.48C96.3039 69.864 96.1705 70.184 95.9039 70.44C95.6479 70.6853 95.3172 70.808 94.9119 70.808C94.5065 70.808 94.1759 70.6853 93.9199 70.44C93.6639 70.184 93.5359 69.864 93.5359 69.48C93.5359 69.096 93.6639 68.7813 93.9199 68.536C94.1759 68.28 94.5065 68.152 94.9119 68.152ZM105.652 69.144V81H103.652L103.524 79.96C102.926 80.824 102.116 81.256 101.092 81.256C100.046 81.256 99.2462 80.856 98.6915 80.056C98.1475 79.2453 97.8755 78.1467 97.8755 76.76C97.8755 75.8853 98.0142 75.112 98.2915 74.44C98.5795 73.7573 98.9848 73.224 99.5075 72.84C100.03 72.456 100.633 72.264 101.316 72.264C102.105 72.264 102.793 72.5467 103.38 73.112V68.888L105.652 69.144ZM101.764 79.56C102.094 79.56 102.388 79.48 102.644 79.32C102.9 79.1493 103.145 78.888 103.38 78.536V74.744C103.156 74.4773 102.926 74.28 102.692 74.152C102.468 74.0133 102.206 73.944 101.908 73.944C101.385 73.944 100.974 74.1733 100.676 74.632C100.388 75.0907 100.244 75.8 100.244 76.76C100.244 77.7733 100.372 78.4933 100.628 78.92C100.894 79.3467 101.273 79.56 101.764 79.56ZM114.366 78.648C114.366 78.9787 114.414 79.224 114.51 79.384C114.606 79.5333 114.766 79.6453 114.99 79.72L114.51 81.224C114.008 81.1813 113.598 81.064 113.278 80.872C112.968 80.68 112.728 80.3813 112.558 79.976C112.003 80.8293 111.155 81.256 110.014 81.256C109.171 81.256 108.499 81.016 107.998 80.536C107.507 80.0453 107.262 79.4107 107.262 78.632C107.262 77.704 107.598 76.9947 108.27 76.504C108.942 76.0133 109.907 75.768 111.166 75.768H112.142V75.352C112.142 74.8293 112.024 74.4667 111.79 74.264C111.555 74.0613 111.166 73.96 110.622 73.96C110.024 73.96 109.278 74.1093 108.382 74.408L107.87 72.888C108.926 72.472 109.971 72.264 111.006 72.264C112.158 72.264 113.006 72.5147 113.55 73.016C114.094 73.5067 114.366 74.2427 114.366 75.224V78.648ZM110.638 79.624C111.278 79.624 111.779 79.3093 112.142 78.68V77.064H111.39C110.163 77.064 109.55 77.5227 109.55 78.44C109.55 78.8133 109.64 79.1067 109.822 79.32C110.014 79.5227 110.286 79.624 110.638 79.624ZM123.98 69.144V81H121.98L121.852 79.96C121.254 80.824 120.444 81.256 119.42 81.256C118.374 81.256 117.574 80.856 117.02 80.056C116.476 79.2453 116.204 78.1467 116.204 76.76C116.204 75.8853 116.342 75.112 116.62 74.44C116.908 73.7573 117.313 73.224 117.836 72.84C118.358 72.456 118.961 72.264 119.644 72.264C120.433 72.264 121.121 72.5467 121.708 73.112V68.888L123.98 69.144ZM120.092 79.56C120.422 79.56 120.716 79.48 120.972 79.32C121.228 79.1493 121.473 78.888 121.708 78.536V74.744C121.484 74.4773 121.254 74.28 121.02 74.152C120.796 74.0133 120.534 73.944 120.236 73.944C119.713 73.944 119.302 74.1733 119.004 74.632C118.716 75.0907 118.572 75.8 118.572 76.76C118.572 77.7733 118.7 78.4933 118.956 78.92C119.222 79.3467 119.601 79.56 120.092 79.56Z" fill="#3D32CF"/>
<path d="M4.92681 265.672C5.72681 265.672 6.42015 265.789 7.00681 266.024C7.60415 266.248 8.15348 266.595 8.65481 267.064L7.53481 268.36C7.14015 268.04 6.74548 267.805 6.35081 267.656C5.95615 267.507 5.53481 267.432 5.08681 267.432C4.59615 267.432 4.20148 267.539 3.90281 267.752C3.61481 267.955 3.47081 268.248 3.47081 268.632C3.47081 268.899 3.52948 269.117 3.64681 269.288C3.77481 269.459 3.99348 269.619 4.30281 269.768C4.61215 269.917 5.07615 270.088 5.69481 270.28C6.79348 270.632 7.61481 271.069 8.15881 271.592C8.70281 272.104 8.97481 272.84 8.97481 273.8C8.97481 274.483 8.80415 275.085 8.46281 275.608C8.12148 276.12 7.62548 276.525 6.97481 276.824C6.32415 277.112 5.56148 277.256 4.68681 277.256C3.81215 277.256 3.03348 277.117 2.35081 276.84C1.66815 276.563 1.08148 276.184 0.590813 275.704L1.79081 274.376C2.21748 274.739 2.66015 275.016 3.11881 275.208C3.57748 275.389 4.07881 275.48 4.62281 275.48C5.19881 275.48 5.65748 275.347 5.99881 275.08C6.35081 274.813 6.52681 274.44 6.52681 273.96C6.52681 273.661 6.46281 273.416 6.33481 273.224C6.21748 273.021 6.00948 272.84 5.71081 272.68C5.41215 272.52 4.98015 272.355 4.41481 272.184C3.20948 271.811 2.34548 271.363 1.82281 270.84C1.31081 270.317 1.05481 269.635 1.05481 268.792C1.05481 268.173 1.22015 267.629 1.55081 267.16C1.88148 266.68 2.34015 266.312 2.92681 266.056C3.51348 265.8 4.18015 265.672 4.92681 265.672ZM17.7177 272.568C17.7177 272.675 17.7017 272.968 17.6697 273.448H12.3737C12.4484 274.216 12.6564 274.76 12.9977 275.08C13.339 275.4 13.803 275.56 14.3897 275.56C14.7524 275.56 15.0937 275.501 15.4137 275.384C15.7337 275.267 16.0804 275.08 16.4537 274.824L17.3977 276.104C16.4484 276.872 15.3764 277.256 14.1817 277.256C12.8484 277.256 11.8244 276.856 11.1097 276.056C10.395 275.256 10.0377 274.173 10.0377 272.808C10.0377 271.944 10.187 271.171 10.4857 270.488C10.795 269.795 11.2377 269.251 11.8137 268.856C12.4004 268.461 13.0937 268.264 13.8937 268.264C15.099 268.264 16.0377 268.643 16.7097 269.4C17.3817 270.157 17.7177 271.213 17.7177 272.568ZM15.4617 271.928C15.4617 270.52 14.955 269.816 13.9417 269.816C13.4724 269.816 13.1044 269.992 12.8377 270.344C12.5817 270.685 12.427 271.245 12.3737 272.024H15.4617V271.928ZM23.7462 268.28C24.0022 268.28 24.2849 268.323 24.5942 268.408L24.2102 270.6C23.9115 270.525 23.6609 270.488 23.4582 270.488C22.9569 270.488 22.5675 270.664 22.2902 271.016C22.0129 271.368 21.7942 271.901 21.6342 272.616V277H19.3622V268.52H21.3302L21.5382 270.168C21.7409 269.571 22.0342 269.107 22.4182 268.776C22.8129 268.445 23.2555 268.28 23.7462 268.28ZM32.7616 268.52L30.0416 277H27.3376L24.5696 268.52H27.0336L28.7136 275.224L30.4256 268.52H32.7616ZM36.1186 268.52V277H33.8466V268.52H36.1186ZM34.9666 264.152C35.3719 264.152 35.7026 264.28 35.9586 264.536C36.2252 264.781 36.3586 265.096 36.3586 265.48C36.3586 265.864 36.2252 266.184 35.9586 266.44C35.7026 266.685 35.3719 266.808 34.9666 266.808C34.5612 266.808 34.2306 266.685 33.9746 266.44C33.7186 266.184 33.5906 265.864 33.5906 265.48C33.5906 265.096 33.7186 264.781 33.9746 264.536C34.2306 264.28 34.5612 264.152 34.9666 264.152ZM41.8982 268.264C42.4635 268.264 42.9702 268.349 43.4182 268.52C43.8769 268.68 44.3089 268.936 44.7142 269.288L43.7222 270.632C43.4449 270.419 43.1729 270.264 42.9062 270.168C42.6502 270.072 42.3675 270.024 42.0582 270.024C40.8529 270.024 40.2502 270.952 40.2502 272.808C40.2502 273.747 40.4049 274.419 40.7142 274.824C41.0235 275.229 41.4662 275.432 42.0422 275.432C42.3409 275.432 42.6129 275.389 42.8582 275.304C43.1035 275.208 43.3915 275.053 43.7222 274.84L44.7142 276.264C43.9035 276.925 42.9755 277.256 41.9302 277.256C41.0982 277.256 40.3729 277.075 39.7542 276.712C39.1462 276.349 38.6769 275.837 38.3462 275.176C38.0155 274.504 37.8502 273.72 37.8502 272.824C37.8502 271.928 38.0155 271.139 38.3462 270.456C38.6769 269.763 39.1462 269.224 39.7542 268.84C40.3729 268.456 41.0875 268.264 41.8982 268.264ZM48.2748 268.52V277H46.0028V268.52H48.2748ZM47.1228 264.152C47.5281 264.152 47.8588 264.28 48.1148 264.536C48.3815 264.781 48.5148 265.096 48.5148 265.48C48.5148 265.864 48.3815 266.184 48.1148 266.44C47.8588 266.685 47.5281 266.808 47.1228 266.808C46.7175 266.808 46.3868 266.685 46.1308 266.44C45.8748 266.184 45.7468 265.864 45.7468 265.48C45.7468 265.096 45.8748 264.781 46.1308 264.536C46.3868 264.28 46.7175 264.152 47.1228 264.152ZM54.0864 268.264C55.3558 268.264 56.3478 268.664 57.0624 269.464C57.7771 270.253 58.1344 271.352 58.1344 272.76C58.1344 273.656 57.9691 274.445 57.6384 275.128C57.3184 275.8 56.8491 276.323 56.2304 276.696C55.6224 277.069 54.9024 277.256 54.0704 277.256C52.8011 277.256 51.8038 276.861 51.0784 276.072C50.3638 275.272 50.0064 274.168 50.0064 272.76C50.0064 271.864 50.1664 271.08 50.4864 270.408C50.8171 269.725 51.2864 269.197 51.8944 268.824C52.5131 268.451 53.2438 268.264 54.0864 268.264ZM54.0864 269.96C53.5104 269.96 53.0784 270.189 52.7904 270.648C52.5131 271.096 52.3744 271.8 52.3744 272.76C52.3744 273.72 52.5131 274.429 52.7904 274.888C53.0784 275.336 53.5051 275.56 54.0704 275.56C54.6358 275.56 55.0571 275.336 55.3344 274.888C55.6224 274.429 55.7664 273.72 55.7664 272.76C55.7664 271.8 55.6278 271.096 55.3504 270.648C55.0731 270.189 54.6518 269.96 54.0864 269.96ZM62.6782 268.264C63.8729 268.264 64.8969 268.605 65.7502 269.288L64.8862 270.584C64.1715 270.136 63.4675 269.912 62.7742 269.912C62.4009 269.912 62.1129 269.981 61.9102 270.12C61.7075 270.259 61.6062 270.445 61.6062 270.68C61.6062 270.851 61.6489 270.995 61.7342 271.112C61.8302 271.229 62.0009 271.341 62.2462 271.448C62.5022 271.555 62.8809 271.683 63.3822 271.832C64.2782 272.077 64.9449 272.408 65.3822 272.824C65.8195 273.229 66.0382 273.789 66.0382 274.504C66.0382 275.069 65.8729 275.56 65.5422 275.976C65.2222 276.392 64.7849 276.712 64.2302 276.936C63.6755 277.149 63.0569 277.256 62.3742 277.256C61.6595 277.256 61.0089 277.149 60.4222 276.936C59.8355 276.712 59.3342 276.408 58.9182 276.024L60.0382 274.776C60.7529 275.331 61.5102 275.608 62.3102 275.608C62.7369 275.608 63.0729 275.528 63.3182 275.368C63.5742 275.197 63.7022 274.968 63.7022 274.68C63.7022 274.456 63.6542 274.28 63.5582 274.152C63.4622 274.024 63.2862 273.907 63.0302 273.8C62.7742 273.683 62.3742 273.549 61.8302 273.4C60.9769 273.165 60.3422 272.835 59.9262 272.408C59.5209 271.971 59.3182 271.432 59.3182 270.792C59.3182 270.312 59.4569 269.88 59.7342 269.496C60.0115 269.112 60.4009 268.813 60.9022 268.6C61.4142 268.376 62.0062 268.264 62.6782 268.264ZM78.7687 265.144V277H76.7687L76.6407 275.96C76.0434 276.824 75.2327 277.256 74.2087 277.256C73.1634 277.256 72.3634 276.856 71.8087 276.056C71.2647 275.245 70.9927 274.147 70.9927 272.76C70.9927 271.885 71.1314 271.112 71.4087 270.44C71.6967 269.757 72.102 269.224 72.6247 268.84C73.1474 268.456 73.75 268.264 74.4327 268.264C75.222 268.264 75.91 268.547 76.4967 269.112V264.888L78.7687 265.144ZM74.8807 275.56C75.2114 275.56 75.5047 275.48 75.7607 275.32C76.0167 275.149 76.262 274.888 76.4967 274.536V270.744C76.2727 270.477 76.0434 270.28 75.8087 270.152C75.5847 270.013 75.3234 269.944 75.0247 269.944C74.502 269.944 74.0914 270.173 73.7927 270.632C73.5047 271.091 73.3607 271.8 73.3607 272.76C73.3607 273.773 73.4887 274.493 73.7447 274.92C74.0114 275.347 74.39 275.56 74.8807 275.56ZM88.1708 272.568C88.1708 272.675 88.1548 272.968 88.1228 273.448H82.8268C82.9015 274.216 83.1095 274.76 83.4508 275.08C83.7921 275.4 84.2561 275.56 84.8428 275.56C85.2055 275.56 85.5468 275.501 85.8668 275.384C86.1868 275.267 86.5335 275.08 86.9068 274.824L87.8508 276.104C86.9015 276.872 85.8295 277.256 84.6348 277.256C83.3015 277.256 82.2775 276.856 81.5628 276.056C80.8481 275.256 80.4908 274.173 80.4908 272.808C80.4908 271.944 80.6401 271.171 80.9388 270.488C81.2481 269.795 81.6908 269.251 82.2668 268.856C82.8535 268.461 83.5468 268.264 84.3468 268.264C85.5521 268.264 86.4908 268.643 87.1628 269.4C87.8348 270.157 88.1708 271.213 88.1708 272.568ZM85.9148 271.928C85.9148 270.52 85.4081 269.816 84.3948 269.816C83.9255 269.816 83.5575 269.992 83.2908 270.344C83.0348 270.685 82.8801 271.245 82.8268 272.024H85.9148V271.928ZM96.1216 265.928V277H93.7696V265.928H96.1216ZM103.161 268.264C103.907 268.264 104.489 268.493 104.905 268.952C105.321 269.4 105.529 270.024 105.529 270.824V277H103.257V271.208C103.257 270.749 103.177 270.429 103.017 270.248C102.867 270.056 102.638 269.96 102.329 269.96C102.009 269.96 101.715 270.061 101.449 270.264C101.193 270.456 100.942 270.749 100.697 271.144V277H98.4247V268.52H100.393L100.569 269.592C100.921 269.155 101.305 268.824 101.721 268.6C102.147 268.376 102.627 268.264 103.161 268.264ZM112.762 276.6C112.453 276.813 112.101 276.973 111.706 277.08C111.322 277.197 110.938 277.256 110.554 277.256C109.68 277.245 109.018 276.995 108.57 276.504C108.122 276.013 107.898 275.293 107.898 274.344V270.12H106.634V268.52H107.898V266.664L110.17 266.392V268.52H112.122L111.898 270.12H110.17V274.296C110.17 274.701 110.24 274.995 110.378 275.176C110.517 275.357 110.73 275.448 111.018 275.448C111.306 275.448 111.626 275.352 111.978 275.16L112.762 276.6ZM120.671 272.568C120.671 272.675 120.655 272.968 120.623 273.448H115.327C115.401 274.216 115.609 274.76 115.951 275.08C116.292 275.4 116.756 275.56 117.343 275.56C117.705 275.56 118.047 275.501 118.367 275.384C118.687 275.267 119.033 275.08 119.407 274.824L120.351 276.104C119.401 276.872 118.329 277.256 117.135 277.256C115.801 277.256 114.777 276.856 114.063 276.056C113.348 275.256 112.991 274.173 112.991 272.808C112.991 271.944 113.14 271.171 113.439 270.488C113.748 269.795 114.191 269.251 114.767 268.856C115.353 268.461 116.047 268.264 116.847 268.264C118.052 268.264 118.991 268.643 119.663 269.4C120.335 270.157 120.671 271.213 120.671 272.568ZM118.415 271.928C118.415 270.52 117.908 269.816 116.895 269.816C116.425 269.816 116.057 269.992 115.791 270.344C115.535 270.685 115.38 271.245 115.327 272.024H118.415V271.928ZM126.699 268.28C126.955 268.28 127.238 268.323 127.547 268.408L127.163 270.6C126.865 270.525 126.614 270.488 126.411 270.488C125.91 270.488 125.521 270.664 125.243 271.016C124.966 271.368 124.747 271.901 124.587 272.616V277H122.315V268.52H124.283L124.491 270.168C124.694 269.571 124.987 269.107 125.371 268.776C125.766 268.445 126.209 268.28 126.699 268.28ZM133.411 268.264C134.157 268.264 134.739 268.493 135.155 268.952C135.571 269.4 135.779 270.024 135.779 270.824V277H133.507V271.208C133.507 270.749 133.427 270.429 133.267 270.248C133.117 270.056 132.888 269.96 132.579 269.96C132.259 269.96 131.965 270.061 131.699 270.264C131.443 270.456 131.192 270.749 130.947 271.144V277H128.675V268.52H130.643L130.819 269.592C131.171 269.155 131.555 268.824 131.971 268.6C132.397 268.376 132.877 268.264 133.411 268.264ZM145.108 272.568C145.108 272.675 145.092 272.968 145.06 273.448H139.764C139.839 274.216 140.047 274.76 140.388 275.08C140.73 275.4 141.194 275.56 141.78 275.56C142.143 275.56 142.484 275.501 142.804 275.384C143.124 275.267 143.471 275.08 143.844 274.824L144.788 276.104C143.839 276.872 142.767 277.256 141.572 277.256C140.239 277.256 139.215 276.856 138.5 276.056C137.786 275.256 137.428 274.173 137.428 272.808C137.428 271.944 137.578 271.171 137.876 270.488C138.186 269.795 138.628 269.251 139.204 268.856C139.791 268.461 140.484 268.264 141.284 268.264C142.49 268.264 143.428 268.643 144.1 269.4C144.772 270.157 145.108 271.213 145.108 272.568ZM142.852 271.928C142.852 270.52 142.346 269.816 141.332 269.816C140.863 269.816 140.495 269.992 140.228 270.344C139.972 270.685 139.818 271.245 139.764 272.024H142.852V271.928ZM151.825 276.6C151.515 276.813 151.163 276.973 150.769 277.08C150.385 277.197 150.001 277.256 149.617 277.256C148.742 277.245 148.081 276.995 147.633 276.504C147.185 276.013 146.961 275.293 146.961 274.344V270.12H145.697V268.52H146.961V266.664L149.233 266.392V268.52H151.185L150.961 270.12H149.233V274.296C149.233 274.701 149.302 274.995 149.441 275.176C149.579 275.357 149.793 275.448 150.081 275.448C150.369 275.448 150.689 275.352 151.041 275.16L151.825 276.6ZM45.5578 284.144V296H43.5578L43.4298 294.96C42.8324 295.824 42.0218 296.256 40.9978 296.256C39.9524 296.256 39.1524 295.856 38.5978 295.056C38.0538 294.245 37.7818 293.147 37.7818 291.76C37.7818 290.885 37.9204 290.112 38.1978 289.44C38.4858 288.757 38.8911 288.224 39.4138 287.84C39.9364 287.456 40.5391 287.264 41.2218 287.264C42.0111 287.264 42.6991 287.547 43.2858 288.112V283.888L45.5578 284.144ZM41.6698 294.56C42.0004 294.56 42.2938 294.48 42.5498 294.32C42.8058 294.149 43.0511 293.888 43.2858 293.536V289.744C43.0618 289.477 42.8324 289.28 42.5978 289.152C42.3738 289.013 42.1124 288.944 41.8138 288.944C41.2911 288.944 40.8804 289.173 40.5818 289.632C40.2938 290.091 40.1498 290.8 40.1498 291.76C40.1498 292.773 40.2778 293.493 40.5338 293.92C40.8004 294.347 41.1791 294.56 41.6698 294.56ZM54.9599 291.568C54.9599 291.675 54.9439 291.968 54.9119 292.448H49.6159C49.6905 293.216 49.8985 293.76 50.2399 294.08C50.5812 294.4 51.0452 294.56 51.6319 294.56C51.9945 294.56 52.3359 294.501 52.6559 294.384C52.9759 294.267 53.3225 294.08 53.6959 293.824L54.6399 295.104C53.6905 295.872 52.6185 296.256 51.4239 296.256C50.0905 296.256 49.0665 295.856 48.3519 295.056C47.6372 294.256 47.2799 293.173 47.2799 291.808C47.2799 290.944 47.4292 290.171 47.7279 289.488C48.0372 288.795 48.4799 288.251 49.0559 287.856C49.6425 287.461 50.3359 287.264 51.1359 287.264C52.3412 287.264 53.2799 287.643 53.9519 288.4C54.6239 289.157 54.9599 290.213 54.9599 291.568ZM52.7039 290.928C52.7039 289.52 52.1972 288.816 51.1839 288.816C50.7145 288.816 50.3465 288.992 50.0799 289.344C49.8239 289.685 49.6692 290.245 49.6159 291.024H52.7039V290.928ZM65.5826 295.6C65.2733 295.813 64.9213 295.973 64.5266 296.08C64.1426 296.197 63.7586 296.256 63.3746 296.256C62.5 296.245 61.8386 295.995 61.3906 295.504C60.9426 295.013 60.7186 294.293 60.7186 293.344V289.12H59.4546V287.52H60.7186V285.664L62.9906 285.392V287.52H64.9426L64.7186 289.12H62.9906V293.296C62.9906 293.701 63.06 293.995 63.1986 294.176C63.3373 294.357 63.5506 294.448 63.8386 294.448C64.1266 294.448 64.4466 294.352 64.7986 294.16L65.5826 295.6ZM73.4911 291.568C73.4911 291.675 73.4751 291.968 73.4431 292.448H68.1471C68.2218 293.216 68.4298 293.76 68.7711 294.08C69.1125 294.4 69.5765 294.56 70.1631 294.56C70.5258 294.56 70.8671 294.501 71.1871 294.384C71.5071 294.267 71.8538 294.08 72.2271 293.824L73.1711 295.104C72.2218 295.872 71.1498 296.256 69.9551 296.256C68.6218 296.256 67.5978 295.856 66.8831 295.056C66.1685 294.256 65.8111 293.173 65.8111 291.808C65.8111 290.944 65.9605 290.171 66.2591 289.488C66.5685 288.795 67.0111 288.251 67.5871 287.856C68.1738 287.461 68.8671 287.264 69.6671 287.264C70.8725 287.264 71.8111 287.643 72.4831 288.4C73.1551 289.157 73.4911 290.213 73.4911 291.568ZM71.2351 290.928C71.2351 289.52 70.7285 288.816 69.7151 288.816C69.2458 288.816 68.8778 288.992 68.6111 289.344C68.3551 289.685 68.2005 290.245 68.1471 291.024H71.2351V290.928ZM79.5196 287.28C79.7756 287.28 80.0583 287.323 80.3676 287.408L79.9836 289.6C79.685 289.525 79.4343 289.488 79.2316 289.488C78.7303 289.488 78.341 289.664 78.0636 290.016C77.7863 290.368 77.5676 290.901 77.4076 291.616V296H75.1356V287.52H77.1036L77.3116 289.168C77.5143 288.571 77.8076 288.107 78.1916 287.776C78.5863 287.445 79.029 287.28 79.5196 287.28ZM84.5466 287.264C85.112 287.264 85.6186 287.349 86.0666 287.52C86.5253 287.68 86.9573 287.936 87.3626 288.288L86.3706 289.632C86.0933 289.419 85.8213 289.264 85.5546 289.168C85.2986 289.072 85.016 289.024 84.7066 289.024C83.5013 289.024 82.8986 289.952 82.8986 291.808C82.8986 292.747 83.0533 293.419 83.3626 293.824C83.672 294.229 84.1146 294.432 84.6906 294.432C84.9893 294.432 85.2613 294.389 85.5066 294.304C85.752 294.208 86.04 294.053 86.3706 293.84L87.3626 295.264C86.552 295.925 85.624 296.256 84.5786 296.256C83.7466 296.256 83.0213 296.075 82.4026 295.712C81.7946 295.349 81.3253 294.837 80.9946 294.176C80.664 293.504 80.4986 292.72 80.4986 291.824C80.4986 290.928 80.664 290.139 80.9946 289.456C81.3253 288.763 81.7946 288.224 82.4026 287.84C83.0213 287.456 83.736 287.264 84.5466 287.264ZM95.5068 291.568C95.5068 291.675 95.4908 291.968 95.4588 292.448H90.1628C90.2374 293.216 90.4454 293.76 90.7868 294.08C91.1281 294.4 91.5921 294.56 92.1788 294.56C92.5414 294.56 92.8828 294.501 93.2028 294.384C93.5228 294.267 93.8694 294.08 94.2428 293.824L95.1868 295.104C94.2374 295.872 93.1654 296.256 91.9708 296.256C90.6374 296.256 89.6134 295.856 88.8988 295.056C88.1841 294.256 87.8268 293.173 87.8268 291.808C87.8268 290.944 87.9761 290.171 88.2747 289.488C88.5841 288.795 89.0268 288.251 89.6028 287.856C90.1894 287.461 90.8828 287.264 91.6828 287.264C92.8881 287.264 93.8268 287.643 94.4988 288.4C95.1708 289.157 95.5068 290.213 95.5068 291.568ZM93.2508 290.928C93.2508 289.52 92.7441 288.816 91.7308 288.816C91.2614 288.816 90.8934 288.992 90.6268 289.344C90.3708 289.685 90.2161 290.245 90.1628 291.024H93.2508V290.928ZM101.535 287.28C101.791 287.28 102.074 287.323 102.383 287.408L101.999 289.6C101.701 289.525 101.45 289.488 101.247 289.488C100.746 289.488 100.357 289.664 100.079 290.016C99.8019 290.368 99.5833 290.901 99.4233 291.616V296H97.1513V287.52H99.1193L99.3273 289.168C99.5299 288.571 99.8233 288.107 100.207 287.776C100.602 287.445 101.045 287.28 101.535 287.28ZM106.594 287.264C107.864 287.264 108.856 287.664 109.57 288.464C110.285 289.253 110.642 290.352 110.642 291.76C110.642 292.656 110.477 293.445 110.146 294.128C109.826 294.8 109.357 295.323 108.738 295.696C108.13 296.069 107.41 296.256 106.578 296.256C105.309 296.256 104.312 295.861 103.586 295.072C102.872 294.272 102.514 293.168 102.514 291.76C102.514 290.864 102.674 290.08 102.994 289.408C103.325 288.725 103.794 288.197 104.402 287.824C105.021 287.451 105.752 287.264 106.594 287.264ZM106.594 288.96C106.018 288.96 105.586 289.189 105.298 289.648C105.021 290.096 104.882 290.8 104.882 291.76C104.882 292.72 105.021 293.429 105.298 293.888C105.586 294.336 106.013 294.56 106.578 294.56C107.144 294.56 107.565 294.336 107.842 293.888C108.13 293.429 108.274 292.72 108.274 291.76C108.274 290.8 108.136 290.096 107.858 289.648C107.581 289.189 107.16 288.96 106.594 288.96ZM115.186 287.264C116.381 287.264 117.405 287.605 118.258 288.288L117.394 289.584C116.679 289.136 115.975 288.912 115.282 288.912C114.909 288.912 114.621 288.981 114.418 289.12C114.215 289.259 114.114 289.445 114.114 289.68C114.114 289.851 114.157 289.995 114.242 290.112C114.338 290.229 114.509 290.341 114.754 290.448C115.01 290.555 115.389 290.683 115.89 290.832C116.786 291.077 117.453 291.408 117.89 291.824C118.327 292.229 118.546 292.789 118.546 293.504C118.546 294.069 118.381 294.56 118.05 294.976C117.73 295.392 117.293 295.712 116.738 295.936C116.183 296.149 115.565 296.256 114.882 296.256C114.167 296.256 113.517 296.149 112.93 295.936C112.343 295.712 111.842 295.408 111.426 295.024L112.546 293.776C113.261 294.331 114.018 294.608 114.818 294.608C115.245 294.608 115.581 294.528 115.826 294.368C116.082 294.197 116.21 293.968 116.21 293.68C116.21 293.456 116.162 293.28 116.066 293.152C115.97 293.024 115.794 292.907 115.538 292.8C115.282 292.683 114.882 292.549 114.338 292.4C113.485 292.165 112.85 291.835 112.434 291.408C112.029 290.971 111.826 290.432 111.826 289.792C111.826 289.312 111.965 288.88 112.242 288.496C112.519 288.112 112.909 287.813 113.41 287.6C113.922 287.376 114.514 287.264 115.186 287.264Z" fill="#3D32CF"/>
<path d="M132.024 24L131.4 21.52H127.928L127.304 24H124.856L128.264 12.928H131.128L134.52 24H132.024ZM128.376 19.776H130.952L129.656 14.672L128.376 19.776ZM138.967 12.928C140.407 12.928 141.522 13.2267 142.311 13.824C143.111 14.4213 143.511 15.312 143.511 16.496C143.511 17.7333 143.116 18.6667 142.327 19.296C141.538 19.9147 140.482 20.224 139.159 20.224H137.895V24H135.543V12.928H138.967ZM138.967 18.496C139.65 18.496 140.172 18.3413 140.535 18.032C140.898 17.7227 141.079 17.2107 141.079 16.496C141.079 15.248 140.364 14.624 138.935 14.624H137.895V18.496H138.967ZM149.427 12.672C150.12 12.672 150.723 12.7733 151.235 12.976C151.747 13.168 152.248 13.4667 152.739 13.872L151.571 15.232C150.931 14.7093 150.259 14.448 149.555 14.448C148.765 14.448 148.136 14.7733 147.667 15.424C147.208 16.064 146.979 17.072 146.979 18.448C146.979 19.792 147.208 20.7893 147.667 21.44C148.136 22.08 148.771 22.4 149.571 22.4C149.987 22.4 150.365 22.3253 150.707 22.176C151.048 22.016 151.405 21.792 151.779 21.504L152.867 22.864C152.472 23.2693 151.981 23.6053 151.395 23.872C150.819 24.128 150.179 24.256 149.475 24.256C148.483 24.256 147.613 24.032 146.867 23.584C146.12 23.136 145.539 22.48 145.123 21.616C144.707 20.7413 144.499 19.6853 144.499 18.448C144.499 17.2427 144.712 16.208 145.139 15.344C145.565 14.4693 146.152 13.808 146.899 13.36C147.645 12.9013 148.488 12.672 149.427 12.672ZM157.419 12.672C158.219 12.672 158.912 12.7893 159.499 13.024C160.096 13.248 160.646 13.5947 161.147 14.064L160.027 15.36C159.632 15.04 159.238 14.8053 158.843 14.656C158.448 14.5067 158.027 14.432 157.579 14.432C157.088 14.432 156.694 14.5387 156.395 14.752C156.107 14.9547 155.963 15.248 155.963 15.632C155.963 15.8987 156.022 16.1173 156.139 16.288C156.267 16.4587 156.486 16.6187 156.795 16.768C157.104 16.9173 157.568 17.088 158.187 17.28C159.286 17.632 160.107 18.0693 160.651 18.592C161.195 19.104 161.467 19.84 161.467 20.8C161.467 21.4827 161.296 22.0853 160.955 22.608C160.614 23.12 160.118 23.5253 159.467 23.824C158.816 24.112 158.054 24.256 157.179 24.256C156.304 24.256 155.526 24.1173 154.843 23.84C154.16 23.5627 153.574 23.184 153.083 22.704L154.283 21.376C154.71 21.7387 155.152 22.016 155.611 22.208C156.07 22.3893 156.571 22.48 157.115 22.48C157.691 22.48 158.15 22.3467 158.491 22.08C158.843 21.8133 159.019 21.44 159.019 20.96C159.019 20.6613 158.955 20.416 158.827 20.224C158.71 20.0213 158.502 19.84 158.203 19.68C157.904 19.52 157.472 19.3547 156.907 19.184C155.702 18.8107 154.838 18.3627 154.315 17.84C153.803 17.3173 153.547 16.6347 153.547 15.792C153.547 15.1733 153.712 14.6293 154.043 14.16C154.374 13.68 154.832 13.312 155.419 13.056C156.006 12.8 156.672 12.672 157.419 12.672Z" fill="#3D32CF"/>
<path d="M197.567 247.672C198.367 247.672 199.061 247.789 199.647 248.024C200.245 248.248 200.794 248.595 201.295 249.064L200.175 250.36C199.781 250.04 199.386 249.805 198.991 249.656C198.597 249.507 198.175 249.432 197.727 249.432C197.237 249.432 196.842 249.539 196.543 249.752C196.255 249.955 196.111 250.248 196.111 250.632C196.111 250.899 196.17 251.117 196.287 251.288C196.415 251.459 196.634 251.619 196.943 251.768C197.253 251.917 197.717 252.088 198.335 252.28C199.434 252.632 200.255 253.069 200.799 253.592C201.343 254.104 201.615 254.84 201.615 255.8C201.615 256.483 201.445 257.085 201.103 257.608C200.762 258.12 200.266 258.525 199.615 258.824C198.965 259.112 198.202 259.256 197.327 259.256C196.453 259.256 195.674 259.117 194.991 258.84C194.309 258.563 193.722 258.184 193.231 257.704L194.431 256.376C194.858 256.739 195.301 257.016 195.759 257.208C196.218 257.389 196.719 257.48 197.263 257.48C197.839 257.48 198.298 257.347 198.639 257.08C198.991 256.813 199.167 256.44 199.167 255.96C199.167 255.661 199.103 255.416 198.975 255.224C198.858 255.021 198.65 254.84 198.351 254.68C198.053 254.52 197.621 254.355 197.055 254.184C195.85 253.811 194.986 253.363 194.463 252.84C193.951 252.317 193.695 251.635 193.695 250.792C193.695 250.173 193.861 249.629 194.191 249.16C194.522 248.68 194.981 248.312 195.567 248.056C196.154 247.8 196.821 247.672 197.567 247.672ZM205.462 250.52V259H203.19V250.52H205.462ZM204.31 246.152C204.716 246.152 205.046 246.28 205.302 246.536C205.569 246.781 205.702 247.096 205.702 247.48C205.702 247.864 205.569 248.184 205.302 248.44C205.046 248.685 204.716 248.808 204.31 248.808C203.905 248.808 203.574 248.685 203.318 248.44C203.062 248.184 202.934 247.864 202.934 247.48C202.934 247.096 203.062 246.781 203.318 246.536C203.574 246.28 203.905 246.152 204.31 246.152ZM210.522 250.264C211.717 250.264 212.741 250.605 213.594 251.288L212.73 252.584C212.015 252.136 211.311 251.912 210.618 251.912C210.245 251.912 209.957 251.981 209.754 252.12C209.551 252.259 209.45 252.445 209.45 252.68C209.45 252.851 209.493 252.995 209.578 253.112C209.674 253.229 209.845 253.341 210.09 253.448C210.346 253.555 210.725 253.683 211.226 253.832C212.122 254.077 212.789 254.408 213.226 254.824C213.663 255.229 213.882 255.789 213.882 256.504C213.882 257.069 213.717 257.56 213.386 257.976C213.066 258.392 212.629 258.712 212.074 258.936C211.519 259.149 210.901 259.256 210.218 259.256C209.503 259.256 208.853 259.149 208.266 258.936C207.679 258.712 207.178 258.408 206.762 258.024L207.882 256.776C208.597 257.331 209.354 257.608 210.154 257.608C210.581 257.608 210.917 257.528 211.162 257.368C211.418 257.197 211.546 256.968 211.546 256.68C211.546 256.456 211.498 256.28 211.402 256.152C211.306 256.024 211.13 255.907 210.874 255.8C210.618 255.683 210.218 255.549 209.674 255.4C208.821 255.165 208.186 254.835 207.77 254.408C207.365 253.971 207.162 253.432 207.162 252.792C207.162 252.312 207.301 251.88 207.578 251.496C207.855 251.112 208.245 250.813 208.746 250.6C209.258 250.376 209.85 250.264 210.522 250.264ZM220.434 258.6C220.125 258.813 219.773 258.973 219.378 259.08C218.994 259.197 218.61 259.256 218.226 259.256C217.352 259.245 216.69 258.995 216.242 258.504C215.794 258.013 215.57 257.293 215.57 256.344V252.12H214.306V250.52H215.57V248.664L217.842 248.392V250.52H219.794L219.57 252.12H217.842V256.296C217.842 256.701 217.912 256.995 218.05 257.176C218.189 257.357 218.402 257.448 218.69 257.448C218.978 257.448 219.298 257.352 219.65 257.16L220.434 258.6ZM228.343 254.568C228.343 254.675 228.327 254.968 228.295 255.448H222.999C223.073 256.216 223.281 256.76 223.623 257.08C223.964 257.4 224.428 257.56 225.015 257.56C225.377 257.56 225.719 257.501 226.039 257.384C226.359 257.267 226.705 257.08 227.079 256.824L228.023 258.104C227.073 258.872 226.001 259.256 224.807 259.256C223.473 259.256 222.449 258.856 221.735 258.056C221.02 257.256 220.663 256.173 220.663 254.808C220.663 253.944 220.812 253.171 221.111 252.488C221.42 251.795 221.863 251.251 222.439 250.856C223.025 250.461 223.719 250.264 224.519 250.264C225.724 250.264 226.663 250.643 227.335 251.4C228.007 252.157 228.343 253.213 228.343 254.568ZM226.087 253.928C226.087 252.52 225.58 251.816 224.567 251.816C224.097 251.816 223.729 251.992 223.463 252.344C223.207 252.685 223.052 253.245 222.999 254.024H226.087V253.928ZM239.155 250.264C239.827 250.264 240.366 250.493 240.771 250.952C241.187 251.411 241.395 252.035 241.395 252.824V259H239.123V253.208C239.123 252.376 238.846 251.96 238.291 251.96C237.993 251.96 237.731 252.056 237.507 252.248C237.283 252.44 237.054 252.739 236.819 253.144V259H234.547V253.208C234.547 252.376 234.27 251.96 233.715 251.96C233.417 251.96 233.155 252.061 232.931 252.264C232.707 252.456 232.483 252.749 232.259 253.144V259H229.987V250.52H231.955L232.131 251.576C232.451 251.149 232.809 250.824 233.203 250.6C233.609 250.376 234.073 250.264 234.595 250.264C235.075 250.264 235.491 250.387 235.843 250.632C236.195 250.867 236.451 251.203 236.611 251.64C236.963 251.181 237.342 250.84 237.747 250.616C238.163 250.381 238.633 250.264 239.155 250.264ZM250.03 256.648C250.03 256.979 250.078 257.224 250.174 257.384C250.27 257.533 250.43 257.645 250.654 257.72L250.174 259.224C249.672 259.181 249.262 259.064 248.942 258.872C248.632 258.68 248.392 258.381 248.222 257.976C247.667 258.829 246.819 259.256 245.678 259.256C244.835 259.256 244.163 259.016 243.662 258.536C243.171 258.045 242.926 257.411 242.926 256.632C242.926 255.704 243.262 254.995 243.934 254.504C244.606 254.013 245.571 253.768 246.83 253.768H247.806V253.352C247.806 252.829 247.688 252.467 247.454 252.264C247.219 252.061 246.83 251.96 246.286 251.96C245.688 251.96 244.942 252.109 244.046 252.408L243.534 250.888C244.59 250.472 245.635 250.264 246.67 250.264C247.822 250.264 248.67 250.515 249.214 251.016C249.758 251.507 250.03 252.243 250.03 253.224V256.648ZM246.302 257.624C246.942 257.624 247.443 257.309 247.806 256.68V255.064H247.054C245.827 255.064 245.214 255.523 245.214 256.44C245.214 256.813 245.304 257.107 245.486 257.32C245.678 257.523 245.95 257.624 246.302 257.624ZM254.959 250.264C256.154 250.264 257.178 250.605 258.031 251.288L257.167 252.584C256.453 252.136 255.749 251.912 255.055 251.912C254.682 251.912 254.394 251.981 254.191 252.12C253.989 252.259 253.887 252.445 253.887 252.68C253.887 252.851 253.93 252.995 254.015 253.112C254.111 253.229 254.282 253.341 254.527 253.448C254.783 253.555 255.162 253.683 255.663 253.832C256.559 254.077 257.226 254.408 257.663 254.824C258.101 255.229 258.319 255.789 258.319 256.504C258.319 257.069 258.154 257.56 257.823 257.976C257.503 258.392 257.066 258.712 256.511 258.936C255.957 259.149 255.338 259.256 254.655 259.256C253.941 259.256 253.29 259.149 252.703 258.936C252.117 258.712 251.615 258.408 251.199 258.024L252.319 256.776C253.034 257.331 253.791 257.608 254.591 257.608C255.018 257.608 255.354 257.528 255.599 257.368C255.855 257.197 255.983 256.968 255.983 256.68C255.983 256.456 255.935 256.28 255.839 256.152C255.743 256.024 255.567 255.907 255.311 255.8C255.055 255.683 254.655 255.549 254.111 255.4C253.258 255.165 252.623 254.835 252.207 254.408C251.802 253.971 251.599 253.432 251.599 252.792C251.599 252.312 251.738 251.88 252.015 251.496C252.293 251.112 252.682 250.813 253.183 250.6C253.695 250.376 254.287 250.264 254.959 250.264ZM271.05 247.144V259H269.05L268.922 257.96C268.325 258.824 267.514 259.256 266.49 259.256C265.445 259.256 264.645 258.856 264.09 258.056C263.546 257.245 263.274 256.147 263.274 254.76C263.274 253.885 263.413 253.112 263.69 252.44C263.978 251.757 264.383 251.224 264.906 250.84C265.429 250.456 266.031 250.264 266.714 250.264C267.503 250.264 268.191 250.547 268.778 251.112V246.888L271.05 247.144ZM267.162 257.56C267.493 257.56 267.786 257.48 268.042 257.32C268.298 257.149 268.543 256.888 268.778 256.536V252.744C268.554 252.477 268.325 252.28 268.09 252.152C267.866 252.013 267.605 251.944 267.306 251.944C266.783 251.944 266.373 252.173 266.074 252.632C265.786 253.091 265.642 253.8 265.642 254.76C265.642 255.773 265.77 256.493 266.026 256.92C266.293 257.347 266.671 257.56 267.162 257.56ZM280.452 254.568C280.452 254.675 280.436 254.968 280.404 255.448H275.108C275.183 256.216 275.391 256.76 275.732 257.08C276.073 257.4 276.537 257.56 277.124 257.56C277.487 257.56 277.828 257.501 278.148 257.384C278.468 257.267 278.815 257.08 279.188 256.824L280.132 258.104C279.183 258.872 278.111 259.256 276.916 259.256C275.583 259.256 274.559 258.856 273.844 258.056C273.129 257.256 272.772 256.173 272.772 254.808C272.772 253.944 272.921 253.171 273.22 252.488C273.529 251.795 273.972 251.251 274.548 250.856C275.135 250.461 275.828 250.264 276.628 250.264C277.833 250.264 278.772 250.643 279.444 251.4C280.116 252.157 280.452 253.213 280.452 254.568ZM278.196 253.928C278.196 252.52 277.689 251.816 276.676 251.816C276.207 251.816 275.839 251.992 275.572 252.344C275.316 252.685 275.161 253.245 275.108 254.024H278.196V253.928ZM207.397 269.264C208.069 269.264 208.608 269.493 209.013 269.952C209.429 270.411 209.637 271.035 209.637 271.824V278H207.365V272.208C207.365 271.376 207.088 270.96 206.533 270.96C206.235 270.96 205.973 271.056 205.749 271.248C205.525 271.44 205.296 271.739 205.061 272.144V278H202.789V272.208C202.789 271.376 202.512 270.96 201.957 270.96C201.659 270.96 201.397 271.061 201.173 271.264C200.949 271.456 200.725 271.749 200.501 272.144V278H198.229V269.52H200.197L200.373 270.576C200.693 270.149 201.051 269.824 201.445 269.6C201.851 269.376 202.315 269.264 202.837 269.264C203.317 269.264 203.733 269.387 204.085 269.632C204.437 269.867 204.693 270.203 204.853 270.64C205.205 270.181 205.584 269.84 205.989 269.616C206.405 269.381 206.875 269.264 207.397 269.264ZM215.36 269.264C216.629 269.264 217.621 269.664 218.336 270.464C219.051 271.253 219.408 272.352 219.408 273.76C219.408 274.656 219.243 275.445 218.912 276.128C218.592 276.8 218.123 277.323 217.504 277.696C216.896 278.069 216.176 278.256 215.344 278.256C214.075 278.256 213.077 277.861 212.352 277.072C211.637 276.272 211.28 275.168 211.28 273.76C211.28 272.864 211.44 272.08 211.76 271.408C212.091 270.725 212.56 270.197 213.168 269.824C213.787 269.451 214.517 269.264 215.36 269.264ZM215.36 270.96C214.784 270.96 214.352 271.189 214.064 271.648C213.787 272.096 213.648 272.8 213.648 273.76C213.648 274.72 213.787 275.429 214.064 275.888C214.352 276.336 214.779 276.56 215.344 276.56C215.909 276.56 216.331 276.336 216.608 275.888C216.896 275.429 217.04 274.72 217.04 273.76C217.04 272.8 216.901 272.096 216.624 271.648C216.347 271.189 215.925 270.96 215.36 270.96ZM225.872 269.264C226.618 269.264 227.2 269.493 227.616 269.952C228.032 270.4 228.24 271.024 228.24 271.824V278H225.968V272.208C225.968 271.749 225.888 271.429 225.728 271.248C225.578 271.056 225.349 270.96 225.04 270.96C224.72 270.96 224.426 271.061 224.16 271.264C223.904 271.456 223.653 271.749 223.408 272.144V278H221.136V269.52H223.104L223.28 270.592C223.632 270.155 224.016 269.824 224.432 269.6C224.858 269.376 225.338 269.264 225.872 269.264ZM232.673 269.52V278H230.401V269.52H232.673ZM231.521 265.152C231.927 265.152 232.257 265.28 232.513 265.536C232.78 265.781 232.913 266.096 232.913 266.48C232.913 266.864 232.78 267.184 232.513 267.44C232.257 267.685 231.927 267.808 231.521 267.808C231.116 267.808 230.785 267.685 230.529 267.44C230.273 267.184 230.145 266.864 230.145 266.48C230.145 266.096 230.273 265.781 230.529 265.536C230.785 265.28 231.116 265.152 231.521 265.152ZM239.989 277.6C239.68 277.813 239.328 277.973 238.933 278.08C238.549 278.197 238.165 278.256 237.781 278.256C236.906 278.245 236.245 277.995 235.797 277.504C235.349 277.013 235.125 276.293 235.125 275.344V271.12H233.861V269.52H235.125V267.664L237.397 267.392V269.52H239.349L239.125 271.12H237.397V275.296C237.397 275.701 237.466 275.995 237.605 276.176C237.744 276.357 237.957 276.448 238.245 276.448C238.533 276.448 238.853 276.352 239.205 276.16L239.989 277.6ZM244.297 269.264C245.567 269.264 246.559 269.664 247.273 270.464C247.988 271.253 248.345 272.352 248.345 273.76C248.345 274.656 248.18 275.445 247.849 276.128C247.529 276.8 247.06 277.323 246.441 277.696C245.833 278.069 245.113 278.256 244.281 278.256C243.012 278.256 242.015 277.861 241.289 277.072C240.575 276.272 240.217 275.168 240.217 273.76C240.217 272.864 240.377 272.08 240.697 271.408C241.028 270.725 241.497 270.197 242.105 269.824C242.724 269.451 243.455 269.264 244.297 269.264ZM244.297 270.96C243.721 270.96 243.289 271.189 243.001 271.648C242.724 272.096 242.585 272.8 242.585 273.76C242.585 274.72 242.724 275.429 243.001 275.888C243.289 276.336 243.716 276.56 244.281 276.56C244.847 276.56 245.268 276.336 245.545 275.888C245.833 275.429 245.977 274.72 245.977 273.76C245.977 272.8 245.839 272.096 245.561 271.648C245.284 271.189 244.863 270.96 244.297 270.96ZM254.457 269.28C254.713 269.28 254.996 269.323 255.305 269.408L254.921 271.6C254.622 271.525 254.372 271.488 254.169 271.488C253.668 271.488 253.278 271.664 253.001 272.016C252.724 272.368 252.505 272.901 252.345 273.616V278H250.073V269.52H252.041L252.249 271.168C252.452 270.571 252.745 270.107 253.129 269.776C253.524 269.445 253.966 269.28 254.457 269.28ZM263.116 273.568C263.116 273.675 263.1 273.968 263.068 274.448H257.772C257.847 275.216 258.055 275.76 258.396 276.08C258.737 276.4 259.201 276.56 259.788 276.56C260.151 276.56 260.492 276.501 260.812 276.384C261.132 276.267 261.479 276.08 261.852 275.824L262.796 277.104C261.847 277.872 260.775 278.256 259.58 278.256C258.247 278.256 257.223 277.856 256.508 277.056C255.793 276.256 255.436 275.173 255.436 273.808C255.436 272.944 255.585 272.171 255.884 271.488C256.193 270.795 256.636 270.251 257.212 269.856C257.799 269.461 258.492 269.264 259.292 269.264C260.497 269.264 261.436 269.643 262.108 270.4C262.78 271.157 263.116 272.213 263.116 273.568ZM260.86 272.928C260.86 271.52 260.353 270.816 259.34 270.816C258.871 270.816 258.503 270.992 258.236 271.344C257.98 271.685 257.825 272.245 257.772 273.024H260.86V272.928ZM268.329 269.264C269.598 269.264 270.59 269.664 271.305 270.464C272.019 271.253 272.377 272.352 272.377 273.76C272.377 274.656 272.211 275.445 271.881 276.128C271.561 276.8 271.091 277.323 270.473 277.696C269.865 278.069 269.145 278.256 268.313 278.256C267.043 278.256 266.046 277.861 265.321 277.072C264.606 276.272 264.249 275.168 264.249 273.76C264.249 272.864 264.409 272.08 264.729 271.408C265.059 270.725 265.529 270.197 266.137 269.824C266.755 269.451 267.486 269.264 268.329 269.264ZM268.329 270.96C267.753 270.96 267.321 271.189 267.033 271.648C266.755 272.096 266.617 272.8 266.617 273.76C266.617 274.72 266.755 275.429 267.033 275.888C267.321 276.336 267.747 276.56 268.313 276.56C268.878 276.56 269.299 276.336 269.577 275.888C269.865 275.429 270.009 274.72 270.009 273.76C270.009 272.8 269.87 272.096 269.593 271.648C269.315 271.189 268.894 270.96 268.329 270.96ZM205.003 285.144V297H203.003L202.875 295.96C202.278 296.824 201.467 297.256 200.443 297.256C199.398 297.256 198.598 296.856 198.043 296.056C197.499 295.245 197.227 294.147 197.227 292.76C197.227 291.885 197.366 291.112 197.643 290.44C197.931 289.757 198.336 289.224 198.859 288.84C199.382 288.456 199.984 288.264 200.667 288.264C201.456 288.264 202.144 288.547 202.731 289.112V284.888L205.003 285.144ZM201.115 295.56C201.446 295.56 201.739 295.48 201.995 295.32C202.251 295.149 202.496 294.888 202.731 294.536V290.744C202.507 290.477 202.278 290.28 202.043 290.152C201.819 290.013 201.558 289.944 201.259 289.944C200.736 289.944 200.326 290.173 200.027 290.632C199.739 291.091 199.595 291.8 199.595 292.76C199.595 293.773 199.723 294.493 199.979 294.92C200.246 295.347 200.624 295.56 201.115 295.56ZM214.405 292.568C214.405 292.675 214.389 292.968 214.357 293.448H209.061C209.136 294.216 209.344 294.76 209.685 295.08C210.027 295.4 210.491 295.56 211.077 295.56C211.44 295.56 211.781 295.501 212.101 295.384C212.421 295.267 212.768 295.08 213.141 294.824L214.085 296.104C213.136 296.872 212.064 297.256 210.869 297.256C209.536 297.256 208.512 296.856 207.797 296.056C207.083 295.256 206.725 294.173 206.725 292.808C206.725 291.944 206.875 291.171 207.173 290.488C207.483 289.795 207.925 289.251 208.501 288.856C209.088 288.461 209.781 288.264 210.581 288.264C211.787 288.264 212.725 288.643 213.397 289.4C214.069 290.157 214.405 291.213 214.405 292.568ZM212.149 291.928C212.149 290.52 211.643 289.816 210.629 289.816C210.16 289.816 209.792 289.992 209.525 290.344C209.269 290.685 209.115 291.245 209.061 292.024H212.149V291.928ZM227.124 292.568C227.124 292.675 227.108 292.968 227.076 293.448H221.78C221.855 294.216 222.063 294.76 222.404 295.08C222.745 295.4 223.209 295.56 223.796 295.56C224.159 295.56 224.5 295.501 224.82 295.384C225.14 295.267 225.487 295.08 225.86 294.824L226.804 296.104C225.855 296.872 224.783 297.256 223.588 297.256C222.255 297.256 221.231 296.856 220.516 296.056C219.801 295.256 219.444 294.173 219.444 292.808C219.444 291.944 219.593 291.171 219.892 290.488C220.201 289.795 220.644 289.251 221.22 288.856C221.807 288.461 222.5 288.264 223.3 288.264C224.505 288.264 225.444 288.643 226.116 289.4C226.788 290.157 227.124 291.213 227.124 292.568ZM224.868 291.928C224.868 290.52 224.361 289.816 223.348 289.816C222.879 289.816 222.511 289.992 222.244 290.344C221.988 290.685 221.833 291.245 221.78 292.024H224.868V291.928ZM236.112 288.52V300.52L233.84 300.264V296.136C233.254 296.883 232.491 297.256 231.552 297.256C230.507 297.256 229.707 296.856 229.152 296.056C228.608 295.245 228.336 294.147 228.336 292.76C228.336 291.885 228.475 291.112 228.752 290.44C229.04 289.757 229.44 289.224 229.952 288.84C230.475 288.456 231.083 288.264 231.776 288.264C232.64 288.264 233.387 288.611 234.016 289.304L234.144 288.52H236.112ZM232.224 295.56C232.555 295.56 232.848 295.48 233.104 295.32C233.36 295.149 233.606 294.888 233.84 294.536V290.744C233.616 290.477 233.392 290.28 233.168 290.152C232.944 290.013 232.683 289.944 232.384 289.944C231.862 289.944 231.451 290.173 231.152 290.632C230.854 291.091 230.704 291.8 230.704 292.76C230.704 293.773 230.832 294.493 231.088 294.92C231.355 295.347 231.734 295.56 232.224 295.56ZM245.291 297H243.323L243.211 295.864C242.912 296.333 242.549 296.685 242.123 296.92C241.696 297.144 241.2 297.256 240.635 297.256C239.867 297.256 239.28 297.027 238.875 296.568C238.469 296.099 238.267 295.448 238.267 294.616V288.52H240.539V294.328C240.539 294.776 240.613 295.096 240.763 295.288C240.912 295.469 241.147 295.56 241.467 295.56C242.075 295.56 242.592 295.192 243.019 294.456V288.52H245.291V297ZM249.806 288.52V297H247.534V288.52H249.806ZM248.654 284.152C249.059 284.152 249.39 284.28 249.646 284.536C249.913 284.781 250.046 285.096 250.046 285.48C250.046 285.864 249.913 286.184 249.646 286.44C249.39 286.685 249.059 286.808 248.654 286.808C248.249 286.808 247.918 286.685 247.662 286.44C247.406 286.184 247.278 285.864 247.278 285.48C247.278 285.096 247.406 284.781 247.662 284.536C247.918 284.28 248.249 284.152 248.654 284.152ZM256.626 288.264C257.692 288.264 258.482 288.659 258.994 289.448C259.516 290.227 259.778 291.325 259.778 292.744C259.778 293.608 259.644 294.381 259.378 295.064C259.111 295.747 258.722 296.285 258.21 296.68C257.708 297.064 257.111 297.256 256.418 297.256C255.554 297.256 254.855 296.952 254.322 296.344V300.264L252.05 300.52V288.52H254.05L254.162 289.512C254.482 289.096 254.855 288.787 255.282 288.584C255.719 288.371 256.167 288.264 256.626 288.264ZM255.746 295.56C256.855 295.56 257.41 294.627 257.41 292.76C257.41 291.736 257.287 291.011 257.042 290.584C256.796 290.157 256.423 289.944 255.922 289.944C255.602 289.944 255.303 290.045 255.026 290.248C254.759 290.44 254.524 290.701 254.322 291.032V294.728C254.684 295.283 255.159 295.56 255.746 295.56ZM265.149 288.264C266.418 288.264 267.41 288.664 268.125 289.464C268.84 290.253 269.197 291.352 269.197 292.76C269.197 293.656 269.032 294.445 268.701 295.128C268.381 295.8 267.912 296.323 267.293 296.696C266.685 297.069 265.965 297.256 265.133 297.256C263.864 297.256 262.866 296.861 262.141 296.072C261.426 295.272 261.069 294.168 261.069 292.76C261.069 291.864 261.229 291.08 261.549 290.408C261.88 289.725 262.349 289.197 262.957 288.824C263.576 288.451 264.306 288.264 265.149 288.264ZM265.149 289.96C264.573 289.96 264.141 290.189 263.853 290.648C263.576 291.096 263.437 291.8 263.437 292.76C263.437 293.72 263.576 294.429 263.853 294.888C264.141 295.336 264.568 295.56 265.133 295.56C265.698 295.56 266.12 295.336 266.397 294.888C266.685 294.429 266.829 293.72 266.829 292.76C266.829 291.8 266.69 291.096 266.413 290.648C266.136 290.189 265.714 289.96 265.149 289.96ZM273.741 288.264C274.935 288.264 275.959 288.605 276.813 289.288L275.949 290.584C275.234 290.136 274.53 289.912 273.837 289.912C273.463 289.912 273.175 289.981 272.973 290.12C272.77 290.259 272.669 290.445 272.669 290.68C272.669 290.851 272.711 290.995 272.797 291.112C272.893 291.229 273.063 291.341 273.309 291.448C273.565 291.555 273.943 291.683 274.445 291.832C275.341 292.077 276.007 292.408 276.445 292.824C276.882 293.229 277.101 293.789 277.101 294.504C277.101 295.069 276.935 295.56 276.605 295.976C276.285 296.392 275.847 296.712 275.293 296.936C274.738 297.149 274.119 297.256 273.437 297.256C272.722 297.256 272.071 297.149 271.485 296.936C270.898 296.712 270.397 296.408 269.981 296.024L271.101 294.776C271.815 295.331 272.573 295.608 273.373 295.608C273.799 295.608 274.135 295.528 274.381 295.368C274.637 295.197 274.765 294.968 274.765 294.68C274.765 294.456 274.717 294.28 274.621 294.152C274.525 294.024 274.349 293.907 274.093 293.8C273.837 293.683 273.437 293.549 272.893 293.4C272.039 293.165 271.405 292.835 270.989 292.408C270.583 291.971 270.381 291.432 270.381 290.792C270.381 290.312 270.519 289.88 270.797 289.496C271.074 289.112 271.463 288.813 271.965 288.6C272.477 288.376 273.069 288.264 273.741 288.264Z" fill="#3D32CF"/>
<path d="M214.512 3.928L214.256 5.768H211.456V15H209.104V5.768H206.16V3.928H214.512ZM221.96 10.568C221.96 10.6747 221.944 10.968 221.912 11.448H216.616C216.691 12.216 216.899 12.76 217.24 13.08C217.581 13.4 218.045 13.56 218.632 13.56C218.995 13.56 219.336 13.5013 219.656 13.384C219.976 13.2667 220.323 13.08 220.696 12.824L221.64 14.104C220.691 14.872 219.619 15.256 218.424 15.256C217.091 15.256 216.067 14.856 215.352 14.056C214.637 13.256 214.28 12.1733 214.28 10.808C214.28 9.944 214.429 9.17067 214.728 8.488C215.037 7.79467 215.48 7.25067 216.056 6.856C216.643 6.46133 217.336 6.264 218.136 6.264C219.341 6.264 220.28 6.64267 220.952 7.4C221.624 8.15733 221.96 9.21333 221.96 10.568ZM219.704 9.928C219.704 8.52 219.197 7.816 218.184 7.816C217.715 7.816 217.347 7.992 217.08 8.344C216.824 8.68533 216.669 9.24533 216.616 10.024H219.704V9.928ZM225.716 15.256C225.023 15.256 224.484 15.0587 224.1 14.664C223.716 14.2587 223.524 13.688 223.524 12.952V3.144L225.796 2.888V12.888C225.796 13.2613 225.951 13.448 226.26 13.448C226.431 13.448 226.58 13.416 226.708 13.352L227.172 14.968C226.735 15.16 226.25 15.256 225.716 15.256ZM235.429 10.568C235.429 10.6747 235.413 10.968 235.381 11.448H230.085C230.159 12.216 230.367 12.76 230.709 13.08C231.05 13.4 231.514 13.56 232.101 13.56C232.463 13.56 232.805 13.5013 233.125 13.384C233.445 13.2667 233.791 13.08 234.165 12.824L235.109 14.104C234.159 14.872 233.087 15.256 231.893 15.256C230.559 15.256 229.535 14.856 228.821 14.056C228.106 13.256 227.749 12.1733 227.749 10.808C227.749 9.944 227.898 9.17067 228.197 8.488C228.506 7.79467 228.949 7.25067 229.525 6.856C230.111 6.46133 230.805 6.264 231.605 6.264C232.81 6.264 233.749 6.64267 234.421 7.4C235.093 8.15733 235.429 9.21333 235.429 10.568ZM233.173 9.928C233.173 8.52 232.666 7.816 231.653 7.816C231.183 7.816 230.815 7.992 230.549 8.344C230.293 8.68533 230.138 9.24533 230.085 10.024H233.173V9.928ZM246.241 6.264C246.913 6.264 247.452 6.49333 247.857 6.952C248.273 7.41067 248.481 8.03467 248.481 8.824V15H246.209V9.208C246.209 8.376 245.932 7.96 245.377 7.96C245.078 7.96 244.817 8.056 244.593 8.248C244.369 8.44 244.14 8.73867 243.905 9.144V15H241.633V9.208C241.633 8.376 241.356 7.96 240.801 7.96C240.502 7.96 240.241 8.06133 240.017 8.264C239.793 8.456 239.569 8.74933 239.345 9.144V15H237.073V6.52H239.041L239.217 7.576C239.537 7.14933 239.894 6.824 240.289 6.6C240.694 6.376 241.158 6.264 241.681 6.264C242.161 6.264 242.577 6.38667 242.929 6.632C243.281 6.86667 243.537 7.20267 243.697 7.64C244.049 7.18133 244.428 6.84 244.833 6.616C245.249 6.38133 245.718 6.264 246.241 6.264ZM257.804 10.568C257.804 10.6747 257.788 10.968 257.756 11.448H252.46C252.534 12.216 252.742 12.76 253.084 13.08C253.425 13.4 253.889 13.56 254.476 13.56C254.838 13.56 255.18 13.5013 255.5 13.384C255.82 13.2667 256.166 13.08 256.54 12.824L257.484 14.104C256.534 14.872 255.462 15.256 254.268 15.256C252.934 15.256 251.91 14.856 251.196 14.056C250.481 13.256 250.124 12.1733 250.124 10.808C250.124 9.944 250.273 9.17067 250.572 8.488C250.881 7.79467 251.324 7.25067 251.9 6.856C252.486 6.46133 253.18 6.264 253.98 6.264C255.185 6.264 256.124 6.64267 256.796 7.4C257.468 8.15733 257.804 9.21333 257.804 10.568ZM255.548 9.928C255.548 8.52 255.041 7.816 254.028 7.816C253.558 7.816 253.19 7.992 252.924 8.344C252.668 8.68533 252.513 9.24533 252.46 10.024H255.548V9.928ZM264.52 14.6C264.211 14.8133 263.859 14.9733 263.464 15.08C263.08 15.1973 262.696 15.256 262.312 15.256C261.437 15.2453 260.776 14.9947 260.328 14.504C259.88 14.0133 259.656 13.2933 259.656 12.344V8.12H258.392V6.52H259.656V4.664L261.928 4.392V6.52H263.88L263.656 8.12H261.928V12.296C261.928 12.7013 261.997 12.9947 262.136 13.176C262.275 13.3573 262.488 13.448 262.776 13.448C263.064 13.448 263.384 13.352 263.736 13.16L264.52 14.6ZM269.91 6.28C270.166 6.28 270.449 6.32267 270.758 6.408L270.374 8.6C270.076 8.52533 269.825 8.488 269.622 8.488C269.121 8.488 268.732 8.664 268.454 9.016C268.177 9.368 267.958 9.90133 267.798 10.616V15H265.526V6.52H267.494L267.702 8.168C267.905 7.57067 268.198 7.10667 268.582 6.776C268.977 6.44533 269.42 6.28 269.91 6.28ZM274.158 6.52V15H271.886V6.52H274.158ZM274.206 1.768L275.102 3.512L271.422 4.984L270.782 3.816L274.206 1.768ZM282.881 12.648C282.881 12.9787 282.929 13.224 283.025 13.384C283.121 13.5333 283.281 13.6453 283.505 13.72L283.025 15.224C282.524 15.1813 282.113 15.064 281.793 14.872C281.484 14.68 281.244 14.3813 281.073 13.976C280.519 14.8293 279.671 15.256 278.529 15.256C277.687 15.256 277.015 15.016 276.513 14.536C276.023 14.0453 275.777 13.4107 275.777 12.632C275.777 11.704 276.113 10.9947 276.785 10.504C277.457 10.0133 278.423 9.768 279.681 9.768H280.657V9.352C280.657 8.82933 280.54 8.46667 280.305 8.264C280.071 8.06133 279.681 7.96 279.137 7.96C278.54 7.96 277.793 8.10933 276.897 8.408L276.385 6.888C277.441 6.472 278.487 6.264 279.521 6.264C280.673 6.264 281.521 6.51467 282.065 7.016C282.609 7.50667 282.881 8.24267 282.881 9.224V12.648ZM279.153 13.624C279.793 13.624 280.295 13.3093 280.657 12.68V11.064H279.905C278.679 11.064 278.065 11.5227 278.065 12.44C278.065 12.8133 278.156 13.1067 278.337 13.32C278.529 13.5227 278.801 13.624 279.153 13.624Z" fill="#3D32CF"/>
</svg>
