<svg width="1069" height="394" viewBox="0 0 1069 394" fill="none" xmlns="http://www.w3.org/2000/svg">
<line y1="-1" x2="177.91" y2="-1" transform="matrix(-0.995246 0.0973931 -0.0976123 -0.995225 215.137 186.414)" stroke="#3D32CF" stroke-width="2"/>
<line y1="-1" x2="146.797" y2="-1" transform="matrix(-0.737381 0.675477 -0.676311 -0.736617 399.848 200.483)" stroke="#3D32CF" stroke-width="2"/>
<line x1="506.224" y1="206.345" x2="506.224" y2="352.897" stroke="#3D32CF" stroke-width="2"/>
<line y1="-1" x2="104.895" y2="-1" transform="matrix(0.300946 0.953641 -0.953837 0.300325 676.591 211.035)" stroke="#3D32CF" stroke-width="2"/>
<line y1="-1" x2="146.716" y2="-1" transform="matrix(-0.994844 -0.101416 0.101644 -0.994821 934.21 190.757)" stroke="#3D32CF" stroke-width="2"/>
<path fill-rule="evenodd" clip-rule="evenodd" d="M629.462 111.65H646.915C648.172 111.65 648.239 113.293 648.527 114.319L654.489 138.657H620.571C621.225 137.293 622.067 133.455 622.547 131.74L627.623 114.422C628.034 113.339 628.337 111.65 629.462 111.65ZM748.008 132.399H706.517V113.956H748.996C750.661 113.956 753.371 115.99 754.284 116.9C761.284 123.885 754.62 132.399 748.008 132.399ZM748.666 100.123H706.517V81.6791H748.337C750.426 81.6791 752.952 83.3595 754.179 84.3993C760.907 90.1 755.363 100.123 748.666 100.123ZM636.707 67.1878V65.5412C636.707 63.4842 639.26 60.93 641.317 60.93H642.963C645.02 60.93 647.573 63.4842 647.573 65.5412V67.1878C647.573 69.2444 645.02 71.7986 642.963 71.7986H641.317C639.26 71.7986 636.707 69.2444 636.707 67.1878ZM684.125 5.9288C684.125 10.8546 686.329 13.8332 691.699 13.8332C691.864 15.8163 696.138 25.2074 696.926 27.3784L702.342 41.0633C703.419 43.1689 704.089 45.3146 705.008 47.619C706.101 50.3618 712.956 66.4137 713.103 68.1759H693.016V82.6671L650.191 68.5552C650.208 65.1118 650.34 63.3986 648.65 61.5003C642.414 54.4961 634.073 60.1431 634.073 65.5412V67.1878C634.073 70.8549 637.888 74.4336 641.646 74.4336C640.295 80.2359 639.728 86.4878 638.821 92.3574C638.63 93.6002 638.522 94.4751 638.379 95.5378C638.17 97.0915 637.989 97.2113 637.695 98.4759C634.825 98.4759 626.504 97.9865 624.413 98.6949C621.994 99.5137 617.676 102.589 616.502 104.616C615.084 107.065 605.546 141.784 604.068 146.852C603.19 149.862 598.18 165.701 598.18 168.628C598.18 170.581 597.755 171.855 599.048 173.358C600.263 174.77 601.48 175.744 603.448 176.203C603.395 178.575 602.282 182.914 601.892 185.185L599.495 198.597C598.772 203.13 599.06 201.026 596.009 203.015L594.578 204.218C590.572 208.749 594.336 215.725 598.838 215.725C601.193 215.725 603.008 215.397 604.748 213.731L605.987 212.007C607.962 208.326 606.035 203.208 601.802 202.221C601.802 198.548 605.064 183.072 605.919 178.015C606.412 175.102 607.308 176.92 610.132 173.995C612.642 171.396 614.855 156.525 616.949 152.16H658.111L662.915 172.056C663.195 172.871 663.94 173.905 664.452 174.471C665.122 175.21 666.06 175.694 667.21 175.995C668.702 176.385 669.435 176.041 669.888 177.269C670.05 177.707 670.367 180.262 670.483 180.955C670.908 183.498 671.248 185.542 671.658 188.013C672.036 190.29 672.504 192.745 672.882 195.022C673.251 197.241 673.917 199.927 673.917 202.221C673.48 202.514 673 202.813 672.541 203.151C666.616 207.514 670.695 215.725 675.563 215.725C677.918 215.725 679.733 215.397 681.474 213.731C685.183 210.179 683.476 203.677 678.61 202.139C675.9 201.282 676.782 202.315 676.312 199.167C676.06 197.483 675.823 196.209 675.563 194.646C674.86 190.408 672.6 180.19 672.6 176.203C672.6 175.256 676.222 174.582 676.222 169.945C676.222 165.111 667.021 132.346 665.614 126.87L661.543 111.182C660.713 108.262 660.689 105.099 658.49 103.037L657.261 101.961C655.923 100.841 654.743 99.7534 653.107 99.199C649.53 97.9869 644.303 98.4759 640.329 98.4759C640.024 97.0335 640.649 94.4459 640.889 92.7783L642.73 80.7875C642.978 79.2988 643.622 76.0709 643.622 74.4336C652.668 72.3257 641.4 68.475 659.881 74.6386L681.862 81.9665C685.434 83.1572 689.357 84.7786 693.016 85.6313V145.903H748.996C760.867 145.903 771.058 134.723 771.058 123.177C771.058 117.082 767.983 109.39 764.472 107.039C765.914 104.887 767.562 103.172 768.757 100.785C771.421 95.4647 771.839 88.0672 769.303 82.4462C766.426 76.0663 761.73 70.574 754.264 68.8344C755.162 64.9807 758.055 59.0263 759.627 55.0963C761.63 50.0938 775.172 17.3765 775.998 13.8332C779.369 13.8332 780.194 14.0662 782.316 12.5775C783.138 12.0006 783.548 11.6342 784.107 10.7457C787.174 5.8681 783.384 0.000488281 779.29 0.000488281C776.669 0.000488281 774.362 0.51708 772.76 2.69079C770.172 6.20186 771.452 9.16873 773.693 12.5156C773.132 14.9224 771.906 17.1455 771.011 19.3849L757.087 54.2024C755.553 58.0371 752.497 64.4524 751.63 68.1759H716.066C715.231 64.5917 706.798 44.6743 705.247 40.7925C703.395 36.1584 701.667 31.8425 699.79 27.1481C698.821 24.7247 698.024 22.7291 697.062 20.3255C696.195 18.1592 694.836 15.332 694.333 13.1742C701.356 8.47048 696.941 0.000488281 692.028 0.000488281C688.839 0.000488281 686.406 0.871841 684.879 3.71851C684.483 4.45566 684.125 4.99949 684.125 5.9288Z" fill="#3D32CF"/>
<path fill-rule="evenodd" clip-rule="evenodd" d="M542.2 153.478V151.831C542.2 149.774 544.754 147.22 546.81 147.22H548.456C550.513 147.22 553.066 149.774 553.066 151.831V153.478C553.066 155.534 550.513 158.088 548.456 158.088H546.81C544.754 158.088 542.2 155.534 542.2 153.478ZM491.489 5.9288C491.489 8.03598 491.93 10.3855 493.433 11.8886C495.752 14.2078 498.524 13.7402 501.368 13.5037C503.63 16.8837 505.987 19.8579 508.422 23.2453C513.635 30.4977 519.466 37.3768 524.49 44.7198C525.693 46.4777 525.077 54.568 525.077 56.9779C525.077 65.9535 524.26 82.8052 525.643 90.0047C526.524 94.5921 528.707 98.2417 531.845 100.599C535.504 103.346 540.151 105.722 545.493 105.722C545.493 118.912 546.151 131.282 546.151 144.585C544.327 145.01 541.404 146.255 540.883 148.208C538.846 148.038 524.671 141.218 521.546 139.883C518.213 138.459 515.243 136.994 511.952 135.645C508.868 134.381 505.278 132.169 502.026 131.411C502.026 127.082 501.568 118.914 502.167 115.08C502.563 112.551 501.695 102.605 500.812 100.349C499.108 95.9992 496.962 93.7862 493.337 91.3577C491.001 89.7919 484.561 86.9488 480.951 86.9488H427.606C418.453 86.9488 411.995 91.9334 408.389 99.0174C407.453 100.858 405.873 104.525 405.873 107.039V160.064C405.873 162.682 408.307 164.168 410.483 164.676C410.361 166.138 409.719 167.99 409.308 169.429L403.213 191.328C402.319 194.726 402.192 192.556 399.482 193.854C395.228 195.891 393.711 201.648 397.279 205.217C399.975 207.913 404.52 207.707 407.172 205.168C409.724 202.726 409.704 198.839 407.802 196.01C407.065 194.915 406.353 194.59 405.214 193.988C406.223 191.884 406.604 189.282 407.307 186.859L413.446 164.676C421.595 164.676 419.373 157.794 419.373 150.513C419.373 141.628 418.799 117.177 419.785 110.085C420.576 104.4 424.938 99.7934 430.899 99.7934C436.675 99.7934 441.279 100.123 447.034 100.123V150.184C447.034 155.24 458.734 156.062 460.325 151.95C460.933 150.378 460.635 109.834 460.524 103.075C460.499 101.609 460.135 100.123 461.523 100.123H478.317C480.709 100.123 483.605 102.181 484.832 103.488C486.311 105.063 487.802 107.611 488.345 110.183C489.38 115.089 488.059 150.385 488.51 160.08C488.645 162.991 491.024 164.774 493.794 165.005C493.873 168.558 503.257 197.349 503.343 201.233C498.935 202.41 498.847 209.315 501.665 212.134C504.987 215.456 510.672 214.322 512.797 210.36C514.219 207.709 513.635 203.788 511.257 201.881C509.742 200.668 508.714 200.245 505.978 200.245C505.752 197.53 502.06 185.37 501.251 182.577C500.336 179.421 497.655 167.563 496.428 165.005C503.313 164.851 502.026 159.273 502.026 152.489C502.026 146.451 502.026 140.413 502.026 134.375C504.589 134.972 508.989 137.247 511.465 138.437C519.166 142.137 526.993 145.134 534.737 148.756C536.388 149.528 538.084 150.059 539.565 150.843C539.565 154.295 539.527 155.819 541.284 157.687C543.406 159.941 545.074 160.723 548.456 160.723C551.933 160.723 555.701 156.955 555.701 153.478V151.831C555.701 148.319 552.055 144.857 548.786 144.585C548.786 131.294 548.127 118.82 548.127 105.722H598.838C604.087 105.722 604.04 96.5441 600.587 93.4337C598.93 91.9408 595.203 92.5476 592.911 92.5476C586.84 92.5476 581.898 92.2185 575.788 92.2185H549.773C544.536 92.2255 541.102 91.1118 539.098 85.4406C537.989 82.3042 538.578 48.0064 538.578 42.1571C538.578 39.2976 538.577 36.4396 538.591 33.5805C538.606 30.6658 537.582 28.5306 535.285 27.9949C536.423 26.2954 541.174 23.4916 543.19 22.069L556.689 12.5156C557.541 12.5156 564.224 16.7612 567.789 10.1148C570.157 5.70123 566.693 0.000488281 562.616 0.000488281C559.427 0.000488281 556.994 0.871841 555.467 3.71851C554.44 5.63276 554.455 8.3001 555.371 10.2101C552.35 12.234 549.436 14.3789 546.478 16.4655L533.17 25.8804C530.92 27.5371 529.899 27.0229 527.805 28.0887C526.004 29.0056 525.114 30.3476 525.061 32.9196C525.007 35.522 525.077 38.2248 525.077 40.8396C523.728 39.8512 516.047 28.7854 514.351 26.5362L506.355 15.7618C505.869 15.1153 503.672 12.4927 503.672 11.8571C503.672 11.2841 507.692 6.26215 503.375 1.94469C500.497 -0.93388 495.254 -0.554992 492.861 2.69079C492.206 3.58081 491.489 4.74586 491.489 5.9288Z" fill="#3D32CF"/>
<path fill-rule="evenodd" clip-rule="evenodd" d="M363.394 204.197V202.55C363.394 200.493 365.947 197.939 368.004 197.939H369.65C371.707 197.939 374.26 200.493 374.26 202.55V204.197C374.26 206.254 371.707 208.808 369.65 208.808H368.004C365.947 208.808 363.394 206.254 363.394 204.197ZM390.725 45.1209C390.725 47.2774 391.025 48.4674 392.042 50.3906C390.735 52.343 388.34 53.9153 386.541 55.4281L380.76 60.5142C378.358 62.8528 370.684 68.7737 369.321 70.8101C367.295 70.3383 364.937 69.6268 362.346 70.4196C360.152 71.091 358.454 72.6458 358.454 75.4213V143.926C358.454 147.336 361.964 148.866 365.04 148.866C365.04 153.065 365.304 156.16 365.356 160.407L366.679 189.384C366.669 191.708 367.016 192.804 367.016 195.305C365.66 195.955 365.193 195.806 363.974 196.873L363.079 197.625C361.984 198.347 361.879 197.672 361.747 199.257C360.698 198.977 354.304 192.933 353.096 191.771L348.817 187.816C348.08 187.075 347.589 186.558 346.853 185.829C342.938 181.955 329.765 170.859 327.83 167.968C329.621 166.769 329.476 166.174 329.476 164.016C329.476 161.33 328.12 159.272 326.053 157.888C324.668 156.961 324.033 157.078 321.907 157.095C320.26 157.109 318.611 157.1 316.963 157.1C311.576 149.054 302.975 138.113 296.924 130.046C295.753 128.485 294.707 127.091 293.536 125.53C292.538 124.199 290.726 122.502 290.29 120.872C298.524 116.514 306.094 111.061 314.311 106.691C317.725 104.876 324.946 107.124 328.556 105.789C333.354 104.014 332.247 92.2181 326.513 92.2181H312.024C310.587 92.2181 268.888 118.534 265.923 119.224C265.923 113.955 265.923 108.685 265.923 103.416C265.923 101.084 266.367 97.6699 265.513 95.9213C263.838 92.4916 260.963 92.5472 257.69 92.5472C251.757 92.5472 259.074 95.9276 246.124 91.2717L227.348 84.3612C226.249 83.9508 224.433 83.2265 223.444 82.9962C223.444 79.5544 223.644 79.2618 222.208 76.9874C219.976 73.4529 214.431 73.1744 211.558 76.048C207.666 79.9402 209.335 87.9364 217.187 87.9364C219.129 87.9364 221.378 86.4201 222.127 85.3018C224.76 86.6951 233.874 89.7285 237.232 90.9426C242.024 92.674 247.868 94.314 252.422 96.4994V149.854C252.422 154.727 251.816 163.294 252.751 167.31C251.333 167.64 250.054 168.546 248.691 169.178C247.064 169.932 245.981 170.364 244.409 171.152C242.86 171.929 241.697 172.369 240.124 173.124L231.9 177.085C229.813 178.129 220.483 182.753 218.834 182.789C217.657 178.381 210.765 178.28 207.936 181.111C204.044 185.003 205.713 192.999 213.565 192.999C217.651 192.999 219.822 189.276 219.822 185.753C221.41 184.913 222.819 184.391 224.546 183.562C226.378 182.683 227.518 182.069 229.467 181.238C235.47 178.675 248.076 171.972 253.414 169.91C255.394 169.145 258.506 172.674 263.242 169.898C267.032 167.676 265.604 160.957 265.593 156.441C265.585 152.855 265.923 150.079 265.923 146.231C265.923 142.609 265.923 138.986 265.923 135.363C267.994 134.267 269.935 133.174 272.039 131.929C274.1 130.71 276.096 129.511 278.107 128.446C279.718 129.525 284.749 136.743 286.246 138.75C288.947 142.37 291.437 145.677 294.148 149.289L308.025 167.687C308.775 168.69 309.732 169.417 310.048 170.603L322.906 170.619C324.991 170.604 324.954 170.308 326.513 169.944C327.787 171.848 338.575 181.201 341.255 183.853L351.868 193.987C353.427 195.177 354.629 196.586 356.062 198.026C356.937 198.906 357.358 199.077 358.203 199.837C359.217 200.748 359.227 201.434 360.759 201.562C360.759 205.015 360.72 206.539 362.478 208.406C364.6 210.661 366.268 211.443 369.65 211.443C373.127 211.443 376.895 207.674 376.895 204.197V202.55C376.895 199.008 373.151 195.382 369.65 195.305L368.32 166.664C368.243 160.376 367.674 155.153 367.674 148.866C369.887 147.804 371.626 146.916 371.626 143.926V74.7623C371.626 73.7575 371.309 73.4335 370.967 72.7862C373.734 70.933 376.867 67.4301 379.578 65.2603L382.572 62.6556C383.113 62.1748 383.339 61.834 383.907 61.3563L386.694 58.8738C387.402 58.2483 387.626 58.2253 388.34 57.5567C388.889 57.0432 389.105 56.7366 389.688 56.2699C390.431 55.6751 390.569 55.651 391.303 54.9208C392.116 54.1121 393.463 52.9587 394.347 52.3667C396.605 52.8926 395.997 53.0253 398.628 53.0253C400.375 53.0253 402.308 51.5206 403.183 50.335C406.72 45.5347 402.899 39.1926 398.628 39.1926C396.273 39.1926 394.458 39.5201 392.718 41.1858C391.772 42.0914 390.725 43.7275 390.725 45.1209Z" fill="#3D32CF"/>
<path fill-rule="evenodd" clip-rule="evenodd" d="M778.961 175.544C778.961 177.9 779.103 179.702 780.905 181.504C785.605 186.205 792.792 181.766 792.792 177.52C792.792 175.164 792.65 173.362 790.847 171.56C786.093 166.805 778.961 171.42 778.961 175.544Z" fill="#3D32CF"/>
<path fill-rule="evenodd" clip-rule="evenodd" d="M616.291 36.2278C616.291 38.584 616.433 40.3858 618.234 42.188C621.07 45.0246 626.736 45.1008 629.251 40.6278C632.204 35.3752 627.502 30.2996 624.194 30.2996C621.772 30.2996 619.538 30.4466 617.663 32.9899C617.362 33.3979 617.305 33.5325 617.044 34.018C616.649 34.7551 616.291 35.2985 616.291 36.2278Z" fill="#3D32CF"/>
<path fill-rule="evenodd" clip-rule="evenodd" d="M288.974 61.5892C288.974 63.9454 289.116 65.7468 290.917 67.549C293.488 70.1203 297.902 70.2848 300.811 67.5C301.151 67.1748 301.048 67.3222 301.431 66.8029C301.732 66.3952 301.79 66.2606 302.05 65.7752C304.741 60.7583 300.248 55.6609 296.877 55.6609C293.751 55.6609 291.445 56.1779 289.727 59.3789C289.332 60.1161 288.974 60.6595 288.974 61.5892Z" fill="#3D32CF"/>
<path d="M8.074 197.172V212H5.016V200.252L1.76 202.254L0.396 200.142L5.324 197.172H8.074ZM17.6452 196.424C18.5985 196.424 19.4272 196.564 20.1312 196.842C20.8352 197.106 21.5245 197.517 22.1992 198.074L20.5932 199.944C19.7132 199.226 18.7892 198.866 17.8212 198.866C16.7359 198.866 15.8705 199.314 15.2252 200.208C14.5945 201.088 14.2792 202.474 14.2792 204.366C14.2792 206.214 14.5945 207.586 15.2252 208.48C15.8705 209.36 16.7432 209.8 17.8432 209.8C18.4152 209.8 18.9359 209.698 19.4052 209.492C19.8745 209.272 20.3659 208.964 20.8792 208.568L22.3752 210.438C21.8325 210.996 21.1579 211.458 20.3512 211.824C19.5592 212.176 18.6792 212.352 17.7112 212.352C16.3472 212.352 15.1519 212.044 14.1252 211.428C13.0985 210.812 12.2992 209.91 11.7272 208.722C11.1552 207.52 10.8692 206.068 10.8692 204.366C10.8692 202.709 11.1625 201.286 11.7492 200.098C12.3359 198.896 13.1425 197.986 14.1692 197.37C15.1959 196.74 16.3545 196.424 17.6452 196.424Z" fill="#3D32CF"/>
<path d="M98.09 312H94.9V305.884C94.9 303.802 95.054 301.851 95.362 300.032L90.566 312H86.606V296.776H89.796V302.958C89.796 304.19 89.752 305.217 89.664 306.038C89.5907 306.845 89.4807 307.74 89.334 308.722L94.218 296.776H98.09V312ZM107.967 312V307.248H104.359V312H101.235V300.34H104.359V304.894H107.967V300.34H111.091V312H107.967ZM123.013 300.34L122.617 302.694H119.317V312H116.193V302.694H112.695V300.34H123.013ZM133.736 305.906C133.736 306.053 133.714 306.456 133.67 307.116H126.388C126.491 308.172 126.777 308.92 127.246 309.36C127.715 309.8 128.353 310.02 129.16 310.02C129.659 310.02 130.128 309.94 130.568 309.778C131.008 309.617 131.485 309.36 131.998 309.008L133.296 310.768C131.991 311.824 130.517 312.352 128.874 312.352C127.041 312.352 125.633 311.802 124.65 310.702C123.667 309.602 123.176 308.114 123.176 306.236C123.176 305.048 123.381 303.985 123.792 303.046C124.217 302.093 124.826 301.345 125.618 300.802C126.425 300.26 127.378 299.988 128.478 299.988C130.135 299.988 131.426 300.509 132.35 301.55C133.274 302.592 133.736 304.044 133.736 305.906ZM130.634 305.026C130.634 303.09 129.937 302.122 128.544 302.122C127.899 302.122 127.393 302.364 127.026 302.848C126.674 303.318 126.461 304.088 126.388 305.158H130.634V305.026ZM142.289 299.988C143.756 299.988 144.841 300.531 145.545 301.616C146.264 302.687 146.623 304.198 146.623 306.148C146.623 307.336 146.44 308.4 146.073 309.338C145.706 310.277 145.171 311.018 144.467 311.56C143.778 312.088 142.956 312.352 142.003 312.352C140.815 312.352 139.854 311.934 139.121 311.098V316.488L135.997 316.84V300.34H138.747L138.901 301.704C139.341 301.132 139.854 300.707 140.441 300.428C141.042 300.135 141.658 299.988 142.289 299.988ZM141.079 310.02C142.604 310.02 143.367 308.737 143.367 306.17C143.367 304.762 143.198 303.765 142.861 303.178C142.524 302.592 142.01 302.298 141.321 302.298C140.881 302.298 140.47 302.438 140.089 302.716C139.722 302.98 139.4 303.34 139.121 303.794V308.876C139.62 309.639 140.272 310.02 141.079 310.02ZM155.835 312V307.248H152.227V312H149.103V300.34H152.227V304.894H155.835V300.34H158.959V312H155.835ZM171.892 305.906C171.892 306.053 171.87 306.456 171.826 307.116H164.544C164.647 308.172 164.933 308.92 165.402 309.36C165.871 309.8 166.509 310.02 167.316 310.02C167.815 310.02 168.284 309.94 168.724 309.778C169.164 309.617 169.641 309.36 170.154 309.008L171.452 310.768C170.147 311.824 168.673 312.352 167.03 312.352C165.197 312.352 163.789 311.802 162.806 310.702C161.823 309.602 161.332 308.114 161.332 306.236C161.332 305.048 161.537 303.985 161.948 303.046C162.373 302.093 162.982 301.345 163.774 300.802C164.581 300.26 165.534 299.988 166.634 299.988C168.291 299.988 169.582 300.509 170.506 301.55C171.43 302.592 171.892 304.044 171.892 305.906ZM168.79 305.026C168.79 303.09 168.093 302.122 166.7 302.122C166.055 302.122 165.549 302.364 165.182 302.848C164.83 303.318 164.617 304.088 164.544 305.158H168.79V305.026ZM182.439 300.34L182.043 302.694H178.743V312H175.619V302.694H172.121V300.34H182.439ZM182.951 306.346V303.882H189.771V306.346H182.951ZM197.234 299.988C198.011 299.988 198.708 300.106 199.324 300.34C199.955 300.56 200.549 300.912 201.106 301.396L199.742 303.244C199.361 302.951 198.987 302.738 198.62 302.606C198.268 302.474 197.879 302.408 197.454 302.408C195.797 302.408 194.968 303.684 194.968 306.236C194.968 307.527 195.181 308.451 195.606 309.008C196.031 309.566 196.64 309.844 197.432 309.844C197.843 309.844 198.217 309.786 198.554 309.668C198.891 309.536 199.287 309.324 199.742 309.03L201.106 310.988C199.991 311.898 198.715 312.352 197.278 312.352C196.134 312.352 195.137 312.103 194.286 311.604C193.45 311.106 192.805 310.402 192.35 309.492C191.895 308.568 191.668 307.49 191.668 306.258C191.668 305.026 191.895 303.941 192.35 303.002C192.805 302.049 193.45 301.308 194.286 300.78C195.137 300.252 196.119 299.988 197.234 299.988ZM212.304 305.906C212.304 306.053 212.282 306.456 212.238 307.116H204.956C205.059 308.172 205.345 308.92 205.814 309.36C206.284 309.8 206.922 310.02 207.728 310.02C208.227 310.02 208.696 309.94 209.136 309.778C209.576 309.617 210.053 309.36 210.566 309.008L211.864 310.768C210.559 311.824 209.085 312.352 207.442 312.352C205.609 312.352 204.201 311.802 203.218 310.702C202.236 309.602 201.744 308.114 201.744 306.236C201.744 305.048 201.95 303.985 202.36 303.046C202.786 302.093 203.394 301.345 204.186 300.802C204.993 300.26 205.946 299.988 207.046 299.988C208.704 299.988 209.994 300.509 210.918 301.55C211.842 302.592 212.304 304.044 212.304 305.906ZM209.202 305.026C209.202 303.09 208.506 302.122 207.112 302.122C206.467 302.122 205.961 302.364 205.594 302.848C205.242 303.318 205.03 304.088 204.956 305.158H209.202V305.026ZM220.857 299.988C222.324 299.988 223.409 300.531 224.113 301.616C224.832 302.687 225.191 304.198 225.191 306.148C225.191 307.336 225.008 308.4 224.641 309.338C224.275 310.277 223.739 311.018 223.035 311.56C222.346 312.088 221.525 312.352 220.571 312.352C219.383 312.352 218.423 311.934 217.689 311.098V316.488L214.565 316.84V300.34H217.315L217.469 301.704C217.909 301.132 218.423 300.707 219.009 300.428C219.611 300.135 220.227 299.988 220.857 299.988ZM219.647 310.02C221.173 310.02 221.935 308.737 221.935 306.17C221.935 304.762 221.767 303.765 221.429 303.178C221.092 302.592 220.579 302.298 219.889 302.298C219.449 302.298 219.039 302.438 218.657 302.716C218.291 302.98 217.968 303.34 217.689 303.794V308.876C218.188 309.639 218.841 310.02 219.647 310.02ZM234.601 305.62C236.581 305.84 237.571 306.779 237.571 308.436C237.571 309.639 237.109 310.534 236.185 311.12C235.261 311.707 234.007 312 232.423 312H227.671V300.472C229.314 300.15 230.788 299.988 232.093 299.988C233.633 299.988 234.843 300.26 235.723 300.802C236.603 301.33 237.043 302.115 237.043 303.156C237.043 303.816 236.83 304.359 236.405 304.784C235.994 305.195 235.393 305.474 234.601 305.62ZM232.049 302.056C231.653 302.056 231.235 302.078 230.795 302.122V304.938H232.247C232.775 304.938 233.186 304.821 233.479 304.586C233.787 304.352 233.941 303.985 233.941 303.486C233.941 303.002 233.78 302.643 233.457 302.408C233.149 302.174 232.68 302.056 232.049 302.056ZM232.357 309.888C233.692 309.888 234.359 309.331 234.359 308.216C234.359 307.703 234.198 307.322 233.875 307.072C233.567 306.823 233.068 306.698 232.379 306.698H230.795V309.888H232.357ZM249.904 312H246.912V307.578C246.912 306.742 246.956 305.95 247.044 305.202C247.132 304.454 247.228 303.86 247.33 303.42L243.194 312H239.938V300.34H242.93V304.806C242.93 305.598 242.886 306.383 242.798 307.16C242.725 307.923 242.637 308.51 242.534 308.92L246.604 300.34H249.904V312ZM257.841 299.988C258.619 299.988 259.315 300.106 259.931 300.34C260.562 300.56 261.156 300.912 261.713 301.396L260.349 303.244C259.968 302.951 259.594 302.738 259.227 302.606C258.875 302.474 258.487 302.408 258.061 302.408C256.404 302.408 255.575 303.684 255.575 306.236C255.575 307.527 255.788 308.451 256.213 309.008C256.639 309.566 257.247 309.844 258.039 309.844C258.45 309.844 258.824 309.786 259.161 309.668C259.499 309.536 259.895 309.324 260.349 309.03L261.713 310.988C260.599 311.898 259.323 312.352 257.885 312.352C256.741 312.352 255.744 312.103 254.893 311.604C254.057 311.106 253.412 310.402 252.957 309.492C252.503 308.568 252.275 307.49 252.275 306.258C252.275 305.026 252.503 303.941 252.957 303.002C253.412 302.049 254.057 301.308 254.893 300.78C255.744 300.252 256.727 299.988 257.841 299.988ZM267.379 303.992C269.227 303.992 270.577 304.337 271.427 305.026C272.293 305.701 272.725 306.691 272.725 307.996C272.725 309.302 272.271 310.299 271.361 310.988C270.467 311.663 269.301 312 267.863 312H263.485V300.34H266.609V303.992H267.379ZM273.891 300.34H277.015V312H273.891V300.34ZM267.555 309.888C268.861 309.888 269.513 309.243 269.513 307.952C269.513 307.307 269.352 306.83 269.029 306.522C268.707 306.214 268.149 306.06 267.357 306.06H266.609V309.888H267.555Z" fill="#3D32CF"/>
<path d="M457.658 388L456.8 384.59H452.026L451.168 388H447.802L452.488 372.776H456.426L461.09 388H457.658ZM452.642 382.192H456.184L454.402 375.174L452.642 382.192ZM468.288 372.424C469.241 372.424 470.07 372.564 470.774 372.842C471.478 373.106 472.167 373.517 472.842 374.074L471.236 375.944C470.356 375.226 469.432 374.866 468.464 374.866C467.378 374.866 466.513 375.314 465.868 376.208C465.237 377.088 464.922 378.474 464.922 380.366C464.922 382.214 465.237 383.586 465.868 384.48C466.513 385.36 467.386 385.8 468.486 385.8C469.058 385.8 469.578 385.698 470.048 385.492C470.517 385.272 471.008 384.964 471.522 384.568L473.018 386.438C472.475 386.996 471.8 387.458 470.994 387.824C470.202 388.176 469.322 388.352 468.354 388.352C466.99 388.352 465.794 388.044 464.768 387.428C463.741 386.812 462.942 385.91 462.37 384.722C461.798 383.52 461.512 382.068 461.512 380.366C461.512 378.709 461.805 377.286 462.392 376.098C462.978 374.896 463.785 373.986 464.812 373.37C465.838 372.74 466.997 372.424 468.288 372.424ZM481.74 383.556C481.3 384.7 480.809 385.602 480.266 386.262C479.738 386.908 479.1 387.392 478.352 387.714C477.619 388.022 476.688 388.235 475.558 388.352L475.118 386.152C476.101 386.006 476.849 385.778 477.362 385.47C477.876 385.148 478.301 384.634 478.638 383.93H477.582L472.874 372.776H476.196L479.606 382.082L482.598 372.776H485.876L481.74 383.556ZM502.651 372.776L502.299 375.306H498.449V388H495.215V375.306H491.167V372.776H502.651ZM515.745 372.776V388H512.511V375.306H507.539V388H504.305V372.776H515.745Z" fill="#3D32CF"/>
<path d="M712.612 326.424C713.565 326.424 714.394 326.564 715.098 326.842C715.802 327.106 716.491 327.517 717.166 328.074L715.56 329.944C714.68 329.226 713.756 328.866 712.788 328.866C711.703 328.866 710.837 329.314 710.192 330.208C709.561 331.088 709.246 332.474 709.246 334.366C709.246 336.214 709.561 337.586 710.192 338.48C710.837 339.36 711.71 339.8 712.81 339.8C713.382 339.8 713.903 339.698 714.372 339.492C714.841 339.272 715.333 338.964 715.846 338.568L717.342 340.438C716.799 340.996 716.125 341.458 715.318 341.824C714.526 342.176 713.646 342.352 712.678 342.352C711.314 342.352 710.119 342.044 709.092 341.428C708.065 340.812 707.266 339.91 706.694 338.722C706.122 337.52 705.836 336.068 705.836 334.366C705.836 332.709 706.129 331.286 706.716 330.098C707.303 328.896 708.109 327.986 709.136 327.37C710.163 326.74 711.321 326.424 712.612 326.424ZM728.795 342H725.803V337.578C725.803 336.742 725.847 335.95 725.935 335.202C726.023 334.454 726.118 333.86 726.221 333.42L722.085 342H718.829V330.34H721.821V334.806C721.821 335.598 721.777 336.383 721.689 337.16C721.616 337.923 721.528 338.51 721.425 338.92L725.495 330.34H728.795V342ZM736.732 329.988C737.509 329.988 738.206 330.106 738.822 330.34C739.453 330.56 740.047 330.912 740.604 331.396L739.24 333.244C738.859 332.951 738.485 332.738 738.118 332.606C737.766 332.474 737.377 332.408 736.952 332.408C735.295 332.408 734.466 333.684 734.466 336.236C734.466 337.527 734.679 338.451 735.104 339.008C735.529 339.566 736.138 339.844 736.93 339.844C737.341 339.844 737.715 339.786 738.052 339.668C738.389 339.536 738.785 339.324 739.24 339.03L740.604 340.988C739.489 341.898 738.213 342.352 736.776 342.352C735.632 342.352 734.635 342.103 733.784 341.604C732.948 341.106 732.303 340.402 731.848 339.492C731.393 338.568 731.166 337.49 731.166 336.258C731.166 335.026 731.393 333.941 731.848 333.002C732.303 332.049 732.948 331.308 733.784 330.78C734.635 330.252 735.617 329.988 736.732 329.988ZM751.22 330.34L750.824 332.694H747.524V342H744.4V332.694H740.902V330.34H751.22ZM761.943 335.906C761.943 336.053 761.921 336.456 761.877 337.116H754.595C754.698 338.172 754.984 338.92 755.453 339.36C755.922 339.8 756.56 340.02 757.367 340.02C757.866 340.02 758.335 339.94 758.775 339.778C759.215 339.617 759.692 339.36 760.205 339.008L761.503 340.768C760.198 341.824 758.724 342.352 757.081 342.352C755.248 342.352 753.84 341.802 752.857 340.702C751.874 339.602 751.383 338.114 751.383 336.236C751.383 335.048 751.588 333.985 751.999 333.046C752.424 332.093 753.033 331.345 753.825 330.802C754.632 330.26 755.585 329.988 756.685 329.988C758.342 329.988 759.633 330.509 760.557 331.55C761.481 332.592 761.943 334.044 761.943 335.906ZM758.841 335.026C758.841 333.09 758.144 332.122 756.751 332.122C756.106 332.122 755.6 332.364 755.233 332.848C754.881 333.318 754.668 334.088 754.595 335.158H758.841V335.026ZM776.634 342H773.664L773.334 337.512C773.29 336.867 773.268 336.251 773.268 335.664C773.268 335.254 773.297 334.403 773.356 333.112L771.288 340.79H768.626L766.646 333.134C766.705 333.897 766.734 334.726 766.734 335.62C766.734 336.046 766.719 336.669 766.69 337.49L766.426 342H763.456L764.468 330.34H768.208L769.968 338.062L771.838 330.34H775.6L776.634 342ZM782.858 333.992C784.706 333.992 786.055 334.337 786.906 335.026C787.771 335.701 788.204 336.691 788.204 337.996C788.204 339.302 787.749 340.299 786.84 340.988C785.945 341.663 784.779 342 783.342 342H778.964V330.34H782.088V333.992H782.858ZM789.37 330.34H792.494V342H789.37V330.34ZM783.034 339.888C784.339 339.888 784.992 339.243 784.992 337.952C784.992 337.307 784.83 336.83 784.508 336.522C784.185 336.214 783.628 336.06 782.836 336.06H782.088V339.888H783.034ZM813.372 342H810.402L810.072 337.512C810.028 336.867 810.006 336.251 810.006 335.664C810.006 335.254 810.036 334.403 810.094 333.112L808.026 340.79H805.364L803.384 333.134C803.443 333.897 803.472 334.726 803.472 335.62C803.472 336.046 803.458 336.669 803.428 337.49L803.164 342H800.194L801.206 330.34H804.946L806.706 338.062L808.576 330.34H812.338L813.372 342ZM820.608 329.988C822.353 329.988 823.717 330.538 824.7 331.638C825.683 332.724 826.174 334.234 826.174 336.17C826.174 337.402 825.947 338.488 825.492 339.426C825.052 340.35 824.407 341.069 823.556 341.582C822.72 342.096 821.73 342.352 820.586 342.352C818.841 342.352 817.469 341.81 816.472 340.724C815.489 339.624 814.998 338.106 814.998 336.17C814.998 334.938 815.218 333.86 815.658 332.936C816.113 331.998 816.758 331.272 817.594 330.758C818.445 330.245 819.449 329.988 820.608 329.988ZM820.608 332.32C819.816 332.32 819.222 332.636 818.826 333.266C818.445 333.882 818.254 334.85 818.254 336.17C818.254 337.49 818.445 338.466 818.826 339.096C819.222 339.712 819.809 340.02 820.586 340.02C821.363 340.02 821.943 339.712 822.324 339.096C822.72 338.466 822.918 337.49 822.918 336.17C822.918 334.85 822.727 333.882 822.346 333.266C821.965 332.636 821.385 332.32 820.608 332.32ZM835.282 342V337.248H831.674V342H828.55V330.34H831.674V334.894H835.282V330.34H838.406V342H835.282ZM851.449 342H848.457V337.578C848.457 336.742 848.501 335.95 848.589 335.202C848.677 334.454 848.773 333.86 848.875 333.42L844.739 342H841.483V330.34H844.475V334.806C844.475 335.598 844.431 336.383 844.343 337.16C844.27 337.923 844.182 338.51 844.079 338.92L848.149 330.34H851.449V342ZM863.368 330.34L862.972 332.694H859.672V342H856.548V332.694H853.05V330.34H863.368ZM869.141 329.988C870.887 329.988 872.251 330.538 873.233 331.638C874.216 332.724 874.707 334.234 874.707 336.17C874.707 337.402 874.48 338.488 874.025 339.426C873.585 340.35 872.94 341.069 872.089 341.582C871.253 342.096 870.263 342.352 869.119 342.352C867.374 342.352 866.003 341.81 865.005 340.724C864.023 339.624 863.531 338.106 863.531 336.17C863.531 334.938 863.751 333.86 864.191 332.936C864.646 331.998 865.291 331.272 866.127 330.758C866.978 330.245 867.983 329.988 869.141 329.988ZM869.141 332.32C868.349 332.32 867.755 332.636 867.359 333.266C866.978 333.882 866.787 334.85 866.787 336.17C866.787 337.49 866.978 338.466 867.359 339.096C867.755 339.712 868.342 340.02 869.119 340.02C869.897 340.02 870.476 339.712 870.857 339.096C871.253 338.466 871.451 337.49 871.451 336.17C871.451 334.85 871.261 333.882 870.879 333.266C870.498 332.636 869.919 332.32 869.141 332.32ZM883.375 329.988C884.842 329.988 885.927 330.531 886.631 331.616C887.35 332.687 887.709 334.198 887.709 336.148C887.709 337.336 887.526 338.4 887.159 339.338C886.792 340.277 886.257 341.018 885.553 341.56C884.864 342.088 884.042 342.352 883.089 342.352C881.901 342.352 880.94 341.934 880.207 341.098V346.488L877.083 346.84V330.34H879.833L879.987 331.704C880.427 331.132 880.94 330.707 881.527 330.428C882.128 330.135 882.744 329.988 883.375 329.988ZM882.165 340.02C883.69 340.02 884.453 338.737 884.453 336.17C884.453 334.762 884.284 333.765 883.947 333.178C883.61 332.592 883.096 332.298 882.407 332.298C881.967 332.298 881.556 332.438 881.175 332.716C880.808 332.98 880.486 333.34 880.207 333.794V338.876C880.706 339.639 881.358 340.02 882.165 340.02ZM900.154 342H897.162V337.578C897.162 336.742 897.206 335.95 897.294 335.202C897.382 334.454 897.478 333.86 897.58 333.42L893.444 342H890.188V330.34H893.18V334.806C893.18 335.598 893.136 336.383 893.048 337.16C892.975 337.923 892.887 338.51 892.784 338.92L896.854 330.34H900.154V342ZM909.961 342V337.248H906.353V342H903.229V330.34H906.353V334.894H909.961V330.34H913.085V342H909.961ZM919.287 342H916.163V330.34H924.171L923.797 332.738H919.287V342ZM933.688 338.766C933.688 339.221 933.754 339.558 933.886 339.778C934.018 339.984 934.238 340.138 934.546 340.24L933.886 342.308C933.197 342.25 932.632 342.088 932.192 341.824C931.767 341.56 931.437 341.15 931.202 340.592C930.44 341.766 929.274 342.352 927.704 342.352C926.546 342.352 925.622 342.022 924.932 341.362C924.258 340.688 923.92 339.815 923.92 338.744C923.92 337.468 924.382 336.493 925.306 335.818C926.23 335.144 927.558 334.806 929.288 334.806H930.63V334.234C930.63 333.516 930.469 333.017 930.146 332.738C929.824 332.46 929.288 332.32 928.54 332.32C927.719 332.32 926.692 332.526 925.46 332.936L924.756 330.846C926.208 330.274 927.646 329.988 929.068 329.988C930.652 329.988 931.818 330.333 932.566 331.022C933.314 331.697 933.688 332.709 933.688 334.058V338.766ZM928.562 340.108C929.442 340.108 930.132 339.676 930.63 338.81V336.588H929.596C927.91 336.588 927.066 337.219 927.066 338.48C927.066 338.994 927.191 339.397 927.44 339.69C927.704 339.969 928.078 340.108 928.562 340.108ZM711.446 355.988C713.191 355.988 714.555 356.538 715.538 357.638C716.521 358.724 717.012 360.234 717.012 362.17C717.012 363.402 716.785 364.488 716.33 365.426C715.89 366.35 715.245 367.069 714.394 367.582C713.558 368.096 712.568 368.352 711.424 368.352C709.679 368.352 708.307 367.81 707.31 366.724C706.327 365.624 705.836 364.106 705.836 362.17C705.836 360.938 706.056 359.86 706.496 358.936C706.951 357.998 707.596 357.272 708.432 356.758C709.283 356.245 710.287 355.988 711.446 355.988ZM711.446 358.32C710.654 358.32 710.06 358.636 709.664 359.266C709.283 359.882 709.092 360.85 709.092 362.17C709.092 363.49 709.283 364.466 709.664 365.096C710.06 365.712 710.647 366.02 711.424 366.02C712.201 366.02 712.781 365.712 713.162 365.096C713.558 364.466 713.756 363.49 713.756 362.17C713.756 360.85 713.565 359.882 713.184 359.266C712.803 358.636 712.223 358.32 711.446 358.32ZM725.284 357.132C726.12 357.132 726.868 357.345 727.528 357.77C728.188 358.196 728.708 358.819 729.09 359.64C729.471 360.447 729.662 361.408 729.662 362.522C729.662 363.725 729.434 364.766 728.98 365.646C728.525 366.512 727.887 367.179 727.066 367.648C726.244 368.118 725.291 368.352 724.206 368.352C722.504 368.352 721.155 367.788 720.158 366.658C719.175 365.514 718.684 363.791 718.684 361.488C718.684 359.802 718.823 358.416 719.102 357.33C719.38 356.245 719.857 355.358 720.532 354.668C721.221 353.964 722.182 353.414 723.414 353.018C724.308 352.74 725.012 352.49 725.526 352.27C726.054 352.036 726.626 351.728 727.242 351.346L728.408 353.392C727.894 353.715 727.352 354.008 726.78 354.272C726.208 354.536 725.511 354.793 724.69 355.042C724.03 355.262 723.502 355.519 723.106 355.812C722.724 356.091 722.416 356.487 722.182 357C721.962 357.499 721.808 358.181 721.72 359.046C722.57 357.77 723.758 357.132 725.284 357.132ZM724.184 366.02C724.873 366.02 725.416 365.771 725.812 365.272C726.208 364.759 726.406 363.879 726.406 362.632C726.406 361.474 726.237 360.66 725.9 360.19C725.577 359.706 725.093 359.464 724.448 359.464C723.949 359.464 723.48 359.604 723.04 359.882C722.6 360.146 722.233 360.55 721.94 361.092V362.566C721.94 363.71 722.138 364.576 722.534 365.162C722.93 365.734 723.48 366.02 724.184 366.02ZM736.948 355.988C738.693 355.988 740.057 356.538 741.04 357.638C742.023 358.724 742.514 360.234 742.514 362.17C742.514 363.402 742.287 364.488 741.832 365.426C741.392 366.35 740.747 367.069 739.896 367.582C739.06 368.096 738.07 368.352 736.926 368.352C735.181 368.352 733.809 367.81 732.812 366.724C731.829 365.624 731.338 364.106 731.338 362.17C731.338 360.938 731.558 359.86 731.998 358.936C732.453 357.998 733.098 357.272 733.934 356.758C734.785 356.245 735.789 355.988 736.948 355.988ZM736.948 358.32C736.156 358.32 735.562 358.636 735.166 359.266C734.785 359.882 734.594 360.85 734.594 362.17C734.594 363.49 734.785 364.466 735.166 365.096C735.562 365.712 736.149 366.02 736.926 366.02C737.703 366.02 738.283 365.712 738.664 365.096C739.06 364.466 739.258 363.49 739.258 362.17C739.258 360.85 739.067 359.882 738.686 359.266C738.305 358.636 737.725 358.32 736.948 358.32ZM751.182 355.988C752.648 355.988 753.734 356.531 754.438 357.616C755.156 358.687 755.516 360.198 755.516 362.148C755.516 363.336 755.332 364.4 754.966 365.338C754.599 366.277 754.064 367.018 753.36 367.56C752.67 368.088 751.849 368.352 750.896 368.352C749.708 368.352 748.747 367.934 748.014 367.098V372.488L744.89 372.84V356.34H747.64L747.794 357.704C748.234 357.132 748.747 356.707 749.334 356.428C749.935 356.135 750.551 355.988 751.182 355.988ZM749.972 366.02C751.497 366.02 752.26 364.737 752.26 362.17C752.26 360.762 752.091 359.765 751.754 359.178C751.416 358.592 750.903 358.298 750.214 358.298C749.774 358.298 749.363 358.438 748.982 358.716C748.615 358.98 748.292 359.34 748.014 359.794V364.876C748.512 365.639 749.165 366.02 749.972 366.02ZM763.851 368.022C763.381 369.504 762.641 370.648 761.629 371.454C760.631 372.261 759.275 372.723 757.559 372.84L757.229 370.596C758.343 370.45 759.157 370.186 759.671 369.804C760.199 369.423 760.631 368.822 760.969 368H759.891L756.261 356.34H759.583L761.915 365.976L764.379 356.34H767.613L763.851 368.022ZM779.098 365.668V371.564H776.876L776.502 368H769.836L769.462 371.564H767.24V365.668H767.988C768.267 365.463 768.494 365.214 768.67 364.92C768.861 364.627 769.03 364.128 769.176 363.424C769.323 362.72 769.448 361.708 769.55 360.388L769.858 356.34H777.866V365.668H779.098ZM774.918 358.474H772.564L772.432 360.08C772.33 361.312 772.198 362.288 772.036 363.006C771.89 363.71 771.684 364.268 771.42 364.678C771.171 365.074 770.826 365.404 770.386 365.668H774.918V358.474ZM785.846 355.988C787.592 355.988 788.956 356.538 789.938 357.638C790.921 358.724 791.412 360.234 791.412 362.17C791.412 363.402 791.185 364.488 790.73 365.426C790.29 366.35 789.645 367.069 788.794 367.582C787.958 368.096 786.968 368.352 785.824 368.352C784.079 368.352 782.708 367.81 781.71 366.724C780.728 365.624 780.236 364.106 780.236 362.17C780.236 360.938 780.456 359.86 780.896 358.936C781.351 357.998 781.996 357.272 782.832 356.758C783.683 356.245 784.688 355.988 785.846 355.988ZM785.846 358.32C785.054 358.32 784.46 358.636 784.064 359.266C783.683 359.882 783.492 360.85 783.492 362.17C783.492 363.49 783.683 364.466 784.064 365.096C784.46 365.712 785.047 366.02 785.824 366.02C786.602 366.02 787.181 365.712 787.562 365.096C787.958 364.466 788.156 363.49 788.156 362.17C788.156 360.85 787.966 359.882 787.584 359.266C787.203 358.636 786.624 358.32 785.846 358.32ZM800.718 361.62C802.698 361.84 803.688 362.779 803.688 364.436C803.688 365.639 803.226 366.534 802.302 367.12C801.378 367.707 800.124 368 798.54 368H793.788V356.472C795.431 356.15 796.905 355.988 798.21 355.988C799.75 355.988 800.96 356.26 801.84 356.802C802.72 357.33 803.16 358.115 803.16 359.156C803.16 359.816 802.947 360.359 802.522 360.784C802.111 361.195 801.51 361.474 800.718 361.62ZM798.166 358.056C797.77 358.056 797.352 358.078 796.912 358.122V360.938H798.364C798.892 360.938 799.303 360.821 799.596 360.586C799.904 360.352 800.058 359.985 800.058 359.486C800.058 359.002 799.897 358.643 799.574 358.408C799.266 358.174 798.797 358.056 798.166 358.056ZM798.474 365.888C799.809 365.888 800.476 365.331 800.476 364.216C800.476 363.703 800.315 363.322 799.992 363.072C799.684 362.823 799.185 362.698 798.496 362.698H796.912V365.888H798.474ZM814.751 364.766C814.751 365.221 814.817 365.558 814.949 365.778C815.081 365.984 815.301 366.138 815.609 366.24L814.949 368.308C814.259 368.25 813.695 368.088 813.255 367.824C812.829 367.56 812.499 367.15 812.265 366.592C811.502 367.766 810.336 368.352 808.767 368.352C807.608 368.352 806.684 368.022 805.995 367.362C805.32 366.688 804.983 365.815 804.983 364.744C804.983 363.468 805.445 362.493 806.369 361.818C807.293 361.144 808.62 360.806 810.351 360.806H811.693V360.234C811.693 359.516 811.531 359.017 811.209 358.738C810.886 358.46 810.351 358.32 809.603 358.32C808.781 358.32 807.755 358.526 806.523 358.936L805.819 356.846C807.271 356.274 808.708 355.988 810.131 355.988C811.715 355.988 812.881 356.333 813.629 357.022C814.377 357.697 814.751 358.709 814.751 360.058V364.766ZM809.625 366.108C810.505 366.108 811.194 365.676 811.693 364.81V362.588H810.659C808.972 362.588 808.129 363.219 808.129 364.48C808.129 364.994 808.253 365.397 808.503 365.69C808.767 365.969 809.141 366.108 809.625 366.108ZM824.604 368V363.248H820.996V368H817.872V356.34H820.996V360.894H824.604V356.34H827.728V368H824.604ZM840.772 368H837.78V363.578C837.78 362.742 837.824 361.95 837.912 361.202C838 360.454 838.095 359.86 838.198 359.42L834.062 368H830.806V356.34H833.798V360.806C833.798 361.598 833.754 362.383 833.666 363.16C833.592 363.923 833.504 364.51 833.402 364.92L837.472 356.34H840.772V368ZM852.977 356.34V368H849.853V363.842H848.137L845.915 368H842.549L845.277 363.116C844.03 362.486 843.407 361.474 843.407 360.08C843.407 358.848 843.854 357.917 844.749 357.286C845.658 356.656 846.963 356.34 848.665 356.34H852.977ZM849.853 361.906V358.408H848.643C847.293 358.408 846.619 358.973 846.619 360.102C846.619 361.305 847.271 361.906 848.577 361.906H849.853Z" fill="#3D32CF"/>
<path d="M957.704 183.776L957.352 186.306H953.502V199H950.268V186.306H946.22V183.776H957.704ZM967.945 192.906C967.945 193.053 967.923 193.456 967.879 194.116H960.597C960.699 195.172 960.985 195.92 961.455 196.36C961.924 196.8 962.562 197.02 963.369 197.02C963.867 197.02 964.337 196.94 964.777 196.778C965.217 196.617 965.693 196.36 966.207 196.008L967.505 197.768C966.199 198.824 964.725 199.352 963.083 199.352C961.249 199.352 959.841 198.802 958.859 197.702C957.876 196.602 957.385 195.114 957.385 193.236C957.385 192.048 957.59 190.985 958.001 190.046C958.426 189.093 959.035 188.345 959.827 187.802C960.633 187.26 961.587 186.988 962.687 186.988C964.344 186.988 965.635 187.509 966.559 188.55C967.483 189.592 967.945 191.044 967.945 192.906ZM964.843 192.026C964.843 190.09 964.146 189.122 962.753 189.122C962.107 189.122 961.601 189.364 961.235 189.848C960.883 190.318 960.67 191.088 960.597 192.158H964.843V192.026ZM979.495 187.34V199H976.371V189.672H973.797L973.555 192.51C973.409 194.182 973.225 195.436 973.005 196.272C972.8 197.094 972.441 197.739 971.927 198.208C971.429 198.663 970.666 199.015 969.639 199.264L968.891 196.976C969.375 196.771 969.72 196.544 969.925 196.294C970.131 196.03 970.277 195.627 970.365 195.084C970.468 194.542 970.563 193.618 970.651 192.312L971.025 187.34H979.495ZM992.437 192.906C992.437 193.053 992.415 193.456 992.371 194.116H985.089C985.192 195.172 985.478 195.92 985.947 196.36C986.416 196.8 987.054 197.02 987.861 197.02C988.36 197.02 988.829 196.94 989.269 196.778C989.709 196.617 990.186 196.36 990.699 196.008L991.997 197.768C990.692 198.824 989.218 199.352 987.575 199.352C985.742 199.352 984.334 198.802 983.351 197.702C982.368 196.602 981.877 195.114 981.877 193.236C981.877 192.048 982.082 190.985 982.493 190.046C982.918 189.093 983.527 188.345 984.319 187.802C985.126 187.26 986.079 186.988 987.179 186.988C988.836 186.988 990.127 187.509 991.051 188.55C991.975 189.592 992.437 191.044 992.437 192.906ZM989.335 192.026C989.335 190.09 988.638 189.122 987.245 189.122C986.6 189.122 986.094 189.364 985.727 189.848C985.375 190.318 985.162 191.088 985.089 192.158H989.335V192.026ZM1007.13 199H1004.16L1003.83 194.512C1003.78 193.867 1003.76 193.251 1003.76 192.664C1003.76 192.254 1003.79 191.403 1003.85 190.112L1001.78 197.79H999.12L997.14 190.134C997.199 190.897 997.228 191.726 997.228 192.62C997.228 193.046 997.214 193.669 997.184 194.49L996.92 199H993.95L994.962 187.34H998.702L1000.46 195.062L1002.33 187.34H1006.09L1007.13 199ZM1019.31 192.906C1019.31 193.053 1019.29 193.456 1019.25 194.116H1011.97C1012.07 195.172 1012.35 195.92 1012.82 196.36C1013.29 196.8 1013.93 197.02 1014.74 197.02C1015.24 197.02 1015.71 196.94 1016.15 196.778C1016.59 196.617 1017.06 196.36 1017.58 196.008L1018.87 197.768C1017.57 198.824 1016.09 199.352 1014.45 199.352C1012.62 199.352 1011.21 198.802 1010.23 197.702C1009.25 196.602 1008.75 195.114 1008.75 193.236C1008.75 192.048 1008.96 190.985 1009.37 190.046C1009.8 189.093 1010.4 188.345 1011.2 187.802C1012 187.26 1012.96 186.988 1014.06 186.988C1015.71 186.988 1017 187.509 1017.93 188.55C1018.85 189.592 1019.31 191.044 1019.31 192.906ZM1016.21 192.026C1016.21 190.09 1015.52 189.122 1014.12 189.122C1013.48 189.122 1012.97 189.364 1012.6 189.848C1012.25 190.318 1012.04 191.088 1011.97 192.158H1016.21V192.026ZM1029.86 187.34L1029.46 189.694H1026.16V199H1023.04V189.694H1019.54V187.34H1029.86ZM1037.58 186.988C1039.04 186.988 1040.13 187.531 1040.83 188.616C1041.55 189.687 1041.91 191.198 1041.91 193.148C1041.91 194.336 1041.73 195.4 1041.36 196.338C1041 197.277 1040.46 198.018 1039.76 198.56C1039.07 199.088 1038.25 199.352 1037.29 199.352C1036.1 199.352 1035.14 198.934 1034.41 198.098V203.488L1031.29 203.84V187.34H1034.04L1034.19 188.704C1034.63 188.132 1035.14 187.707 1035.73 187.428C1036.33 187.135 1036.95 186.988 1037.58 186.988ZM1036.37 197.02C1037.89 197.02 1038.66 195.737 1038.66 193.17C1038.66 191.762 1038.49 190.765 1038.15 190.178C1037.81 189.592 1037.3 189.298 1036.61 189.298C1036.17 189.298 1035.76 189.438 1035.38 189.716C1035.01 189.98 1034.69 190.34 1034.41 190.794V195.876C1034.91 196.639 1035.56 197.02 1036.37 197.02ZM1054.36 199H1051.37V194.578C1051.37 193.742 1051.41 192.95 1051.5 192.202C1051.59 191.454 1051.68 190.86 1051.78 190.42L1047.65 199H1044.39V187.34H1047.38V191.806C1047.38 192.598 1047.34 193.383 1047.25 194.16C1047.18 194.923 1047.09 195.51 1046.99 195.92L1051.06 187.34H1054.36V199ZM1066.56 187.34V199H1063.44V194.842H1061.72L1059.5 199H1056.13L1058.86 194.116C1057.62 193.486 1056.99 192.474 1056.99 191.08C1056.99 189.848 1057.44 188.917 1058.33 188.286C1059.24 187.656 1060.55 187.34 1062.25 187.34H1066.56ZM1063.44 192.906V189.408H1062.23C1060.88 189.408 1060.2 189.973 1060.2 191.102C1060.2 192.305 1060.86 192.906 1062.16 192.906H1063.44Z" fill="#3D32CF"/>
</svg>
