<svg width="306" height="301" viewBox="0 0 306 301" fill="none" xmlns="http://www.w3.org/2000/svg">
<line x1="29.378" y1="72.16" x2="11.4735" y2="125.16" stroke="#3D32CF"/>
<line x1="105.469" y1="189.113" x2="89.4866" y2="258.113" stroke="#3D32CF"/>
<line x1="182.404" y1="50.2944" x2="155.327" y2="87.4709" stroke="#3D32CF"/>
<line x1="207.486" y1="191.884" x2="224.486" y2="262.884" stroke="#3D32CF"/>
<line x1="254.166" y1="86.8749" x2="253.5" y2="21.005" stroke="#3D32CF"/>
<path fill-rule="evenodd" clip-rule="evenodd" d="M222.508 141.38H231.43C232.072 141.38 232.106 142.217 232.254 142.741L235.301 155.151H217.963C218.298 154.455 218.728 152.498 218.973 151.624L221.568 142.793C221.778 142.241 221.933 141.38 222.508 141.38ZM283.107 151.96H261.897V142.555H283.612C284.463 142.555 285.848 143.592 286.315 144.057C289.893 147.618 286.487 151.96 283.107 151.96ZM283.443 135.502H261.897V126.097H283.275C284.343 126.097 285.634 126.954 286.261 127.484C289.7 130.391 286.867 135.502 283.443 135.502ZM226.211 118.708V117.868C226.211 116.819 227.517 115.517 228.568 115.517H229.41C230.461 115.517 231.766 116.819 231.766 117.868V118.708C231.766 119.756 230.461 121.059 229.41 121.059H228.568C227.517 121.059 226.211 119.756 226.211 118.708ZM250.451 87.4711C250.451 89.9829 251.577 91.5017 254.323 91.5017C254.407 92.5129 256.592 97.3015 256.994 98.4085L259.763 105.387C260.314 106.46 260.656 107.554 261.126 108.729C261.685 110.128 265.189 118.313 265.264 119.212H254.996V126.601L233.105 119.405C233.113 117.649 233.181 116.776 232.317 115.808C229.129 112.236 224.865 115.116 224.865 117.868V118.708C224.865 120.578 226.815 122.402 228.736 122.402C228.046 125.361 227.756 128.549 227.292 131.542C227.194 132.176 227.139 132.622 227.066 133.164C226.959 133.956 226.867 134.017 226.716 134.662C225.25 134.662 220.996 134.412 219.927 134.774C218.691 135.191 216.483 136.759 215.883 137.793C215.158 139.041 210.282 156.745 209.527 159.329C209.078 160.864 206.517 168.941 206.517 170.433C206.517 171.429 206.3 172.079 206.961 172.845C207.582 173.565 208.204 174.062 209.21 174.296C209.183 175.505 208.614 177.718 208.415 178.876L207.189 185.715C206.82 188.026 206.967 186.953 205.407 187.967L204.676 188.581C202.628 190.891 204.552 194.448 206.854 194.448C208.058 194.448 208.985 194.281 209.875 193.432L210.508 192.552C211.518 190.675 210.533 188.066 208.369 187.563C208.369 185.69 210.036 177.798 210.473 175.22C210.725 173.734 211.183 174.662 212.627 173.17C213.91 171.845 215.041 164.262 216.112 162.036H237.153L239.609 172.181C239.752 172.597 240.133 173.124 240.395 173.413C240.737 173.789 241.217 174.036 241.804 174.189C242.567 174.388 242.942 174.213 243.173 174.839C243.256 175.063 243.418 176.366 243.477 176.719C243.695 178.016 243.868 179.058 244.078 180.318C244.271 181.479 244.511 182.731 244.704 183.892C244.892 185.023 245.233 186.393 245.233 187.563C245.009 187.712 244.764 187.865 244.53 188.037C241.501 190.262 243.586 194.448 246.074 194.448C247.278 194.448 248.206 194.281 249.096 193.432C250.992 191.621 250.119 188.305 247.632 187.521C246.246 187.084 246.697 187.61 246.457 186.006C246.328 185.146 246.207 184.497 246.074 183.7C245.715 181.539 244.559 176.329 244.559 174.296C244.559 173.813 246.411 173.469 246.411 171.105C246.411 168.64 241.708 151.933 240.988 149.14L238.907 141.141C238.483 139.652 238.471 138.039 237.347 136.988L236.719 136.439C236.034 135.868 235.431 135.313 234.595 135.031C232.767 134.413 230.094 134.662 228.063 134.662C227.907 133.926 228.227 132.607 228.349 131.757L229.291 125.642C229.417 124.883 229.746 123.237 229.746 122.402C234.371 121.328 228.611 119.364 238.058 122.507L249.294 126.244C251.12 126.851 253.125 127.677 254.996 128.112V158.845H283.612C289.68 158.845 294.89 153.145 294.89 147.257C294.89 144.149 293.318 140.227 291.523 139.028C292.26 137.931 293.102 137.057 293.714 135.84C295.075 133.126 295.289 129.354 293.993 126.488C292.522 123.235 290.121 120.434 286.305 119.547C286.764 117.582 288.243 114.546 289.047 112.542C290.07 109.991 296.993 93.3085 297.415 91.5017C299.138 91.5017 299.56 91.6205 300.645 90.8614C301.065 90.5672 301.274 90.3804 301.56 89.9273C303.128 87.4402 301.19 84.4482 299.098 84.4482C297.758 84.4482 296.579 84.7117 295.76 85.8201C294.437 87.6104 295.091 89.1232 296.236 90.8299C295.95 92.0571 295.323 93.1907 294.866 94.3326L287.748 112.086C286.964 114.042 285.402 117.313 284.958 119.212H266.779C266.352 117.384 262.041 107.228 261.248 105.249C260.301 102.886 259.418 100.685 258.459 98.2911C257.963 97.0554 257.556 96.0378 257.064 94.8122C256.621 93.7076 255.926 92.2659 255.669 91.1657C259.259 88.7672 257.002 84.4482 254.491 84.4482C252.86 84.4482 251.617 84.8926 250.836 86.3441C250.634 86.72 250.451 86.9973 250.451 87.4711Z" fill="#3D32CF"/>
<path fill-rule="evenodd" clip-rule="evenodd" d="M177.901 162.708V161.868C177.901 160.819 179.207 159.517 180.258 159.517H181.099C182.151 159.517 183.456 160.819 183.456 161.868V162.708C183.456 163.756 182.151 165.059 181.099 165.059H180.258C179.207 165.059 177.901 163.756 177.901 162.708ZM151.979 87.4711C151.979 88.5456 152.204 89.7437 152.972 90.5101C154.158 91.6927 155.575 91.4543 157.028 91.3337C158.185 93.0572 159.39 94.5738 160.634 96.301C163.299 99.9991 166.28 103.507 168.848 107.251C169.463 108.147 169.148 112.273 169.148 113.502C169.148 118.078 168.731 126.671 169.438 130.342C169.888 132.682 171.004 134.542 172.608 135.744C174.478 137.145 176.854 138.357 179.585 138.357C179.585 145.083 179.921 151.39 179.921 158.173C178.988 158.39 177.494 159.025 177.228 160.021C176.187 159.934 168.941 156.457 167.343 155.776C165.639 155.05 164.122 154.303 162.439 153.615C160.862 152.97 159.027 151.842 157.365 151.456C157.365 149.248 157.131 145.084 157.437 143.129C157.639 141.839 157.196 136.768 156.744 135.617C155.874 133.399 154.776 132.271 152.923 131.032C151.729 130.234 148.437 128.784 146.592 128.784H119.323C114.644 128.784 111.342 131.326 109.499 134.938C109.021 135.876 108.213 137.746 108.213 139.028V166.067C108.213 167.401 109.457 168.159 110.569 168.418C110.507 169.163 110.179 170.108 109.969 170.841L106.853 182.008C106.397 183.741 106.332 182.634 104.946 183.296C102.772 184.335 101.996 187.271 103.82 189.091C105.198 190.465 107.522 190.36 108.877 189.066C110.182 187.82 110.172 185.838 109.199 184.396C108.823 183.837 108.459 183.672 107.876 183.364C108.392 182.292 108.587 180.965 108.946 179.729L112.084 168.418C116.25 168.418 115.114 164.909 115.114 161.196C115.114 156.666 114.821 144.198 115.325 140.582C115.729 137.683 117.959 135.334 121.006 135.334C123.959 135.334 126.312 135.502 129.254 135.502V161.028C129.254 163.606 135.235 164.026 136.048 161.929C136.359 161.127 136.207 140.454 136.15 137.007C136.137 136.26 135.951 135.502 136.661 135.502H145.245C146.468 135.502 147.948 136.551 148.576 137.217C149.332 138.021 150.094 139.32 150.372 140.632C150.901 143.133 150.225 161.131 150.456 166.074C150.525 167.559 151.741 168.468 153.157 168.586C153.197 170.398 157.994 185.078 158.038 187.059C155.785 187.659 155.74 191.18 157.18 192.617C158.878 194.311 161.785 193.733 162.871 191.713C163.598 190.361 163.299 188.362 162.084 187.389C161.309 186.771 160.784 186.555 159.385 186.555C159.27 185.171 157.383 178.97 156.969 177.546C156.501 175.937 155.131 169.89 154.504 168.586C158.023 168.507 157.365 165.663 157.365 162.204C157.365 159.125 157.365 156.046 157.365 152.967C158.675 153.272 160.924 154.432 162.19 155.039C166.127 156.925 170.128 158.454 174.086 160.3C174.93 160.694 175.798 160.964 176.555 161.364C176.555 163.125 176.535 163.902 177.433 164.854C178.518 166.004 179.371 166.403 181.099 166.403C182.877 166.403 184.803 164.481 184.803 162.708V161.868C184.803 160.077 182.939 158.312 181.268 158.173C181.268 151.396 180.931 145.036 180.931 138.357H206.854C209.537 138.357 209.513 133.677 207.748 132.091C206.901 131.33 204.996 131.639 203.824 131.639C200.721 131.639 198.194 131.471 195.071 131.471H181.773C179.096 131.475 177.34 130.907 176.315 128.015C175.749 126.416 176.05 108.927 176.05 105.944C176.05 104.486 176.049 103.029 176.057 101.571C176.064 100.085 175.541 98.996 174.366 98.7229C174.948 97.8563 177.377 96.4266 178.407 95.7012L185.308 90.8299C185.744 90.8299 189.16 92.9947 190.982 89.6056C192.193 87.3551 190.422 84.4482 188.338 84.4482C186.707 84.4482 185.464 84.8926 184.683 86.3441C184.158 87.3202 184.166 88.6803 184.634 89.6542C183.09 90.6862 181.6 91.78 180.088 92.8439L173.285 97.6447C172.135 98.4895 171.613 98.2272 170.543 98.7707C169.622 99.2382 169.167 99.9226 169.14 101.234C169.113 102.561 169.148 103.939 169.148 105.273C168.458 104.769 164.532 99.126 163.665 97.9791L159.578 92.4851C159.33 92.1554 158.207 90.8182 158.207 90.494C158.207 90.2019 160.261 87.6411 158.055 85.4396C156.584 83.9718 153.903 84.165 152.68 85.8201C152.345 86.2739 151.979 86.868 151.979 87.4711Z" fill="#3D32CF"/>
<path fill-rule="evenodd" clip-rule="evenodd" d="M86.4986 188.57V187.73C86.4986 186.682 87.804 185.379 88.8551 185.379H89.6967C90.748 185.379 92.0534 186.682 92.0534 187.73V188.57C92.0534 189.619 90.748 190.921 89.6967 190.921H88.8551C87.804 190.921 86.4986 189.619 86.4986 188.57ZM100.47 107.456C100.47 108.555 100.623 109.162 101.143 110.143C100.475 111.138 99.2509 111.94 98.3314 112.711L95.376 115.305C94.1481 116.497 90.2255 119.516 89.5285 120.555C88.4931 120.314 87.2873 119.951 85.9628 120.356C84.8413 120.698 83.9736 121.491 83.9736 122.906V157.837C83.9736 159.576 85.7679 160.357 87.3402 160.357C87.3402 162.497 87.4749 164.075 87.5018 166.241L88.178 181.017C88.1728 182.202 88.3501 182.761 88.3501 184.036C87.6573 184.368 87.4183 184.292 86.7954 184.836L86.3377 185.219C85.7779 185.587 85.7244 185.243 85.6568 186.051C85.1208 185.908 81.8519 182.827 81.2348 182.234L79.0474 180.218C78.6707 179.84 78.4196 179.576 78.0432 179.204C76.042 177.229 69.3081 171.571 68.319 170.097C69.2346 169.485 69.1606 169.182 69.1606 168.082C69.1606 166.712 68.4674 165.663 67.4109 164.957C66.7027 164.484 66.3778 164.544 65.2915 164.553C64.4495 164.559 63.6062 164.555 62.7642 164.555C60.0104 160.452 55.6134 154.873 52.5203 150.76C51.9219 149.964 51.3869 149.253 50.7884 148.457C50.2783 147.779 49.352 146.913 49.1293 146.082C53.3384 143.86 57.2077 141.079 61.4083 138.851C63.1537 137.925 66.8446 139.072 68.6902 138.391C71.1428 137.486 70.577 131.471 67.6457 131.471H60.2392C59.5044 131.471 38.189 144.89 36.673 145.242C36.673 142.555 36.673 139.868 36.673 137.181C36.673 135.992 36.9001 134.251 36.4635 133.359C35.6072 131.61 34.1376 131.639 32.4647 131.639C29.4314 131.639 33.1721 133.363 26.552 130.988L16.9543 127.465C16.3926 127.255 15.464 126.886 14.9586 126.769C14.9586 125.014 15.0606 124.864 14.3266 123.705C13.1858 121.902 10.3511 121.76 8.88245 123.226C6.89312 125.21 7.74642 129.288 11.7603 129.288C12.7528 129.288 13.9025 128.515 14.2852 127.944C15.6314 128.655 20.29 130.202 22.0069 130.821C24.4565 131.703 27.4435 132.54 29.7716 133.654V160.86C29.7716 163.345 29.4617 167.713 29.9398 169.761C29.2149 169.929 28.5612 170.391 27.8646 170.714C27.0328 171.098 26.4793 171.319 25.6755 171.72C24.8836 172.116 24.2893 172.341 23.4851 172.726L19.281 174.745C18.2144 175.278 13.4448 177.635 12.6021 177.654C12.0004 175.406 8.47726 175.355 7.03089 176.798C5.04156 178.783 5.89487 182.86 9.90872 182.86C11.9971 182.86 13.107 180.962 13.107 179.166C13.919 178.737 14.6389 178.471 15.5218 178.048C16.4582 177.6 17.0412 177.287 18.0372 176.863C21.1059 175.556 27.5503 172.138 30.2788 171.087C31.291 170.697 32.8819 172.496 35.3024 171.081C37.2399 169.948 36.5098 166.522 36.5045 164.219C36.5003 162.39 36.673 160.975 36.673 159.013C36.673 157.166 36.673 155.318 36.673 153.471C37.7317 152.912 38.7238 152.355 39.7996 151.72C40.8529 151.098 41.8734 150.487 42.9013 149.944C43.7248 150.494 46.2966 154.175 47.0619 155.198C48.4424 157.044 49.7154 158.73 51.1014 160.572L58.1948 169.953C58.5782 170.465 59.0674 170.836 59.2293 171.441L65.8019 171.448C66.8677 171.441 66.849 171.29 67.6457 171.105C68.2972 172.075 73.8117 176.844 75.1817 178.197L80.6069 183.364C81.404 183.971 82.0181 184.689 82.7507 185.424C83.1983 185.872 83.4134 185.959 83.8454 186.347C84.3635 186.811 84.3685 187.162 85.1518 187.227C85.1518 188.987 85.1319 189.764 86.0306 190.717C87.1151 191.866 87.9678 192.265 89.6967 192.265C91.4739 192.265 93.4 190.343 93.4 188.57V187.73C93.4 185.924 91.4862 184.076 89.6967 184.036L89.0167 169.432C88.9774 166.226 88.6867 163.562 88.6867 160.357C89.818 159.815 90.7067 159.362 90.7067 157.837V122.57C90.7067 122.058 90.545 121.893 90.3701 121.562C91.7846 120.618 93.3861 118.831 94.7716 117.725L96.3021 116.397C96.5786 116.152 96.6943 115.978 96.9848 115.734L98.4091 114.468C98.7712 114.149 98.8857 114.138 99.2509 113.797C99.5312 113.535 99.6418 113.379 99.9398 113.141C100.32 112.837 100.39 112.825 100.765 112.453C101.181 112.04 101.87 111.452 102.322 111.15C103.475 111.419 103.165 111.486 104.51 111.486C105.403 111.486 106.391 110.719 106.838 110.114C108.646 107.667 106.693 104.433 104.51 104.433C103.306 104.433 102.378 104.6 101.489 105.449C101.005 105.911 100.47 106.745 100.47 107.456Z" fill="#3D32CF"/>
<path fill-rule="evenodd" clip-rule="evenodd" d="M298.93 173.96C298.93 175.161 299.003 176.08 299.924 176.999C302.326 179.396 306 177.133 306 174.967C306 173.766 305.927 172.847 305.006 171.928C302.576 169.503 298.93 171.857 298.93 173.96Z" fill="#3D32CF"/>
<path fill-rule="evenodd" clip-rule="evenodd" d="M215.775 102.921C215.775 104.122 215.848 105.041 216.769 105.96C218.219 107.407 221.115 107.445 222.4 105.165C223.91 102.486 221.507 99.8981 219.815 99.8981C218.577 99.8981 217.435 99.9731 216.477 101.27C216.323 101.478 216.294 101.547 216.161 101.794C215.959 102.17 215.775 102.447 215.775 102.921Z" fill="#3D32CF"/>
<path fill-rule="evenodd" clip-rule="evenodd" d="M48.4561 115.853C48.4561 117.054 48.5286 117.973 49.4497 118.892C50.7639 120.203 53.0202 120.287 54.5072 118.867C54.6807 118.701 54.6284 118.776 54.8241 118.511C54.9777 118.304 55.0074 118.235 55.1404 117.987C56.5162 115.429 54.2195 112.83 52.496 112.83C50.8983 112.83 49.7193 113.094 48.8414 114.726C48.6394 115.102 48.4561 115.379 48.4561 115.853Z" fill="#3D32CF"/>
<path d="M18.024 46L17.4 43.52H13.928L13.304 46H10.856L14.264 34.928H17.128L20.52 46H18.024ZM14.376 41.776H16.952L15.656 36.672L14.376 41.776ZM28.439 46H26.471L26.359 44.864C26.0603 45.3333 25.6977 45.6853 25.271 45.92C24.8443 46.144 24.3483 46.256 23.783 46.256C23.015 46.256 22.4283 46.0267 22.023 45.568C21.6177 45.0987 21.415 44.448 21.415 43.616V37.52H23.687V43.328C23.687 43.776 23.7617 44.096 23.911 44.288C24.0603 44.4693 24.295 44.56 24.615 44.56C25.223 44.56 25.7403 44.192 26.167 43.456V37.52H28.439V46ZM35.7545 45.6C35.4452 45.8133 35.0932 45.9733 34.6985 46.08C34.3145 46.1973 33.9305 46.256 33.5465 46.256C32.6718 46.2453 32.0105 45.9947 31.5625 45.504C31.1145 45.0133 30.8905 44.2933 30.8905 43.344V39.12H29.6265V37.52H30.8905V35.664L33.1625 35.392V37.52H35.1145L34.8905 39.12H33.1625V43.296C33.1625 43.7013 33.2318 43.9947 33.3705 44.176C33.5092 44.3573 33.7225 44.448 34.0105 44.448C34.2985 44.448 34.6185 44.352 34.9705 44.16L35.7545 45.6ZM40.063 37.264C41.3323 37.264 42.3243 37.664 43.039 38.464C43.7537 39.2533 44.111 40.352 44.111 41.76C44.111 42.656 43.9457 43.4453 43.615 44.128C43.295 44.8 42.8257 45.3227 42.207 45.696C41.599 46.0693 40.879 46.256 40.047 46.256C38.7777 46.256 37.7803 45.8613 37.055 45.072C36.3403 44.272 35.983 43.168 35.983 41.76C35.983 40.864 36.143 40.08 36.463 39.408C36.7937 38.7253 37.263 38.1973 37.871 37.824C38.4897 37.4507 39.2203 37.264 40.063 37.264ZM40.063 38.96C39.487 38.96 39.055 39.1893 38.767 39.648C38.4897 40.096 38.351 40.8 38.351 41.76C38.351 42.72 38.4897 43.4293 38.767 43.888C39.055 44.336 39.4817 44.56 40.047 44.56C40.6123 44.56 41.0337 44.336 41.311 43.888C41.599 43.4293 41.743 42.72 41.743 41.76C41.743 40.8 41.6043 40.096 41.327 39.648C41.0497 39.1893 40.6283 38.96 40.063 38.96ZM55.0068 37.264C55.6788 37.264 56.2174 37.4933 56.6228 37.952C57.0388 38.4107 57.2468 39.0347 57.2468 39.824V46H54.9748V40.208C54.9748 39.376 54.6974 38.96 54.1428 38.96C53.8441 38.96 53.5828 39.056 53.3588 39.248C53.1348 39.44 52.9054 39.7387 52.6708 40.144V46H50.3988V40.208C50.3988 39.376 50.1214 38.96 49.5668 38.96C49.2681 38.96 49.0068 39.0613 48.7828 39.264C48.5588 39.456 48.3348 39.7493 48.1108 40.144V46H45.8388V37.52H47.8068L47.9828 38.576C48.3028 38.1493 48.6601 37.824 49.0548 37.6C49.4601 37.376 49.9241 37.264 50.4468 37.264C50.9268 37.264 51.3428 37.3867 51.6948 37.632C52.0468 37.8667 52.3028 38.2027 52.4628 38.64C52.8148 38.1813 53.1934 37.84 53.5988 37.616C54.0148 37.3813 54.4841 37.264 55.0068 37.264ZM65.8813 43.648C65.8813 43.9787 65.9293 44.224 66.0253 44.384C66.1213 44.5333 66.2813 44.6453 66.5052 44.72L66.0253 46.224C65.5239 46.1813 65.1133 46.064 64.7933 45.872C64.4839 45.68 64.2439 45.3813 64.0733 44.976C63.5186 45.8293 62.6706 46.256 61.5293 46.256C60.6866 46.256 60.0146 46.016 59.5133 45.536C59.0226 45.0453 58.7773 44.4107 58.7773 43.632C58.7773 42.704 59.1133 41.9947 59.7853 41.504C60.4573 41.0133 61.4226 40.768 62.6813 40.768H63.6573V40.352C63.6573 39.8293 63.5399 39.4667 63.3053 39.264C63.0706 39.0613 62.6813 38.96 62.1373 38.96C61.5399 38.96 60.7933 39.1093 59.8973 39.408L59.3853 37.888C60.4413 37.472 61.4866 37.264 62.5213 37.264C63.6733 37.264 64.5213 37.5147 65.0653 38.016C65.6093 38.5067 65.8813 39.2427 65.8813 40.224V43.648ZM62.1533 44.624C62.7933 44.624 63.2946 44.3093 63.6573 43.68V42.064H62.9053C61.6786 42.064 61.0653 42.5227 61.0653 43.44C61.0653 43.8133 61.1559 44.1067 61.3373 44.32C61.5293 44.5227 61.8013 44.624 62.1533 44.624ZM73.2233 45.6C72.9139 45.8133 72.5619 45.9733 72.1673 46.08C71.7833 46.1973 71.3993 46.256 71.0153 46.256C70.1406 46.2453 69.4793 45.9947 69.0312 45.504C68.5833 45.0133 68.3593 44.2933 68.3593 43.344V39.12H67.0953V37.52H68.3593V35.664L70.6313 35.392V37.52H72.5833L72.3593 39.12H70.6313V43.296C70.6313 43.7013 70.7006 43.9947 70.8393 44.176C70.9779 44.3573 71.1913 44.448 71.4793 44.448C71.7673 44.448 72.0873 44.352 72.4393 44.16L73.2233 45.6ZM76.5014 37.52V46H74.2294V37.52H76.5014ZM75.3494 33.152C75.7547 33.152 76.0854 33.28 76.3414 33.536C76.608 33.7813 76.7414 34.096 76.7414 34.48C76.7414 34.864 76.608 35.184 76.3414 35.44C76.0854 35.6853 75.7547 35.808 75.3494 35.808C74.944 35.808 74.6134 35.6853 74.3574 35.44C74.1014 35.184 73.9734 34.864 73.9734 34.48C73.9734 34.096 74.1014 33.7813 74.3574 33.536C74.6134 33.28 74.944 33.152 75.3494 33.152ZM81.561 37.264C82.7557 37.264 83.7797 37.6053 84.633 38.288L83.769 39.584C83.0543 39.136 82.3503 38.912 81.657 38.912C81.2837 38.912 80.9957 38.9813 80.793 39.12C80.5903 39.2587 80.489 39.4453 80.489 39.68C80.489 39.8507 80.5317 39.9947 80.617 40.112C80.713 40.2293 80.8837 40.3413 81.129 40.448C81.385 40.5547 81.7637 40.6827 82.265 40.832C83.161 41.0773 83.8277 41.408 84.265 41.824C84.7023 42.2293 84.921 42.7893 84.921 43.504C84.921 44.0693 84.7557 44.56 84.425 44.976C84.105 45.392 83.6677 45.712 83.113 45.936C82.5583 46.1493 81.9397 46.256 81.257 46.256C80.5423 46.256 79.8917 46.1493 79.305 45.936C78.7183 45.712 78.217 45.408 77.801 45.024L78.921 43.776C79.6357 44.3307 80.393 44.608 81.193 44.608C81.6197 44.608 81.9557 44.528 82.201 44.368C82.457 44.1973 82.585 43.968 82.585 43.68C82.585 43.456 82.537 43.28 82.441 43.152C82.345 43.024 82.169 42.9067 81.913 42.8C81.657 42.6827 81.257 42.5493 80.713 42.4C79.8597 42.1653 79.225 41.8347 78.809 41.408C78.4037 40.9707 78.201 40.432 78.201 39.792C78.201 39.312 78.3397 38.88 78.617 38.496C78.8943 38.112 79.2837 37.8133 79.785 37.6C80.297 37.376 80.889 37.264 81.561 37.264ZM88.6733 37.52V46H86.4013V37.52H88.6733ZM87.5213 33.152C87.9266 33.152 88.2573 33.28 88.5133 33.536C88.7799 33.7813 88.9133 34.096 88.9133 34.48C88.9133 34.864 88.7799 35.184 88.5133 35.44C88.2573 35.6853 87.9266 35.808 87.5213 35.808C87.1159 35.808 86.7853 35.6853 86.5293 35.44C86.2733 35.184 86.1453 34.864 86.1453 34.48C86.1453 34.096 86.2733 33.7813 86.5293 33.536C86.7853 33.28 87.1159 33.152 87.5213 33.152ZM98.0849 41.568C98.0849 41.6747 98.0689 41.968 98.0369 42.448H92.7409C92.8155 43.216 93.0235 43.76 93.3649 44.08C93.7062 44.4 94.1702 44.56 94.7569 44.56C95.1195 44.56 95.4609 44.5013 95.7809 44.384C96.1009 44.2667 96.4475 44.08 96.8209 43.824L97.7649 45.104C96.8155 45.872 95.7435 46.256 94.5489 46.256C93.2155 46.256 92.1915 45.856 91.4769 45.056C90.7622 44.256 90.4049 43.1733 90.4049 41.808C90.4049 40.944 90.5542 40.1707 90.8529 39.488C91.1622 38.7947 91.6049 38.2507 92.1809 37.856C92.7675 37.4613 93.4609 37.264 94.2609 37.264C95.4662 37.264 96.4049 37.6427 97.0769 38.4C97.7489 39.1573 98.0849 40.2133 98.0849 41.568ZM95.8289 40.928C95.8289 39.52 95.3222 38.816 94.3089 38.816C93.8395 38.816 93.4715 38.992 93.2049 39.344C92.9489 39.6853 92.7942 40.2453 92.7409 41.024H95.8289V40.928ZM104.113 37.28C104.369 37.28 104.652 37.3227 104.961 37.408L104.577 39.6C104.279 39.5253 104.028 39.488 103.825 39.488C103.324 39.488 102.935 39.664 102.657 40.016C102.38 40.368 102.161 40.9013 102.001 41.616V46H99.7294V37.52H101.697L101.905 39.168C102.108 38.5707 102.401 38.1067 102.785 37.776C103.18 37.4453 103.623 37.28 104.113 37.28ZM111.161 45.6C110.851 45.8133 110.499 45.9733 110.105 46.08C109.721 46.1973 109.337 46.256 108.953 46.256C108.078 46.2453 107.417 45.9947 106.969 45.504C106.521 45.0133 106.297 44.2933 106.297 43.344V39.12H105.033V37.52H106.297V35.664L108.569 35.392V37.52H110.521L110.297 39.12H108.569V43.296C108.569 43.7013 108.638 43.9947 108.777 44.176C108.915 44.3573 109.129 44.448 109.417 44.448C109.705 44.448 110.025 44.352 110.377 44.16L111.161 45.6ZM119.069 41.568C119.069 41.6747 119.053 41.968 119.021 42.448H113.725C113.8 43.216 114.008 43.76 114.349 44.08C114.691 44.4 115.155 44.56 115.741 44.56C116.104 44.56 116.445 44.5013 116.765 44.384C117.085 44.2667 117.432 44.08 117.805 43.824L118.749 45.104C117.8 45.872 116.728 46.256 115.533 46.256C114.2 46.256 113.176 45.856 112.461 45.056C111.747 44.256 111.389 43.1733 111.389 41.808C111.389 40.944 111.539 40.1707 111.837 39.488C112.147 38.7947 112.589 38.2507 113.165 37.856C113.752 37.4613 114.445 37.264 115.245 37.264C116.451 37.264 117.389 37.6427 118.061 38.4C118.733 39.1573 119.069 40.2133 119.069 41.568ZM116.813 40.928C116.813 39.52 116.307 38.816 115.293 38.816C114.824 38.816 114.456 38.992 114.189 39.344C113.933 39.6853 113.779 40.2453 113.725 41.024H116.813V40.928ZM123.53 37.264C124.724 37.264 125.748 37.6053 126.602 38.288L125.738 39.584C125.023 39.136 124.319 38.912 123.626 38.912C123.252 38.912 122.964 38.9813 122.762 39.12C122.559 39.2587 122.458 39.4453 122.458 39.68C122.458 39.8507 122.5 39.9947 122.586 40.112C122.682 40.2293 122.852 40.3413 123.098 40.448C123.354 40.5547 123.732 40.6827 124.234 40.832C125.13 41.0773 125.796 41.408 126.234 41.824C126.671 42.2293 126.89 42.7893 126.89 43.504C126.89 44.0693 126.724 44.56 126.394 44.976C126.074 45.392 125.636 45.712 125.082 45.936C124.527 46.1493 123.908 46.256 123.226 46.256C122.511 46.256 121.86 46.1493 121.274 45.936C120.687 45.712 120.186 45.408 119.77 45.024L120.89 43.776C121.604 44.3307 122.362 44.608 123.162 44.608C123.588 44.608 123.924 44.528 124.17 44.368C124.426 44.1973 124.554 43.968 124.554 43.68C124.554 43.456 124.506 43.28 124.41 43.152C124.314 43.024 124.138 42.9067 123.882 42.8C123.626 42.6827 123.226 42.5493 122.682 42.4C121.828 42.1653 121.194 41.8347 120.778 41.408C120.372 40.9707 120.17 40.432 120.17 39.792C120.17 39.312 120.308 38.88 120.586 38.496C120.863 38.112 121.252 37.8133 121.754 37.6C122.266 37.376 122.858 37.264 123.53 37.264ZM17.832 59.144C18.5787 59.2827 19.1813 59.5547 19.64 59.96C20.1093 60.3547 20.344 60.9627 20.344 61.784C20.344 62.9467 19.928 63.7733 19.096 64.264C18.264 64.7547 17.1067 65 15.624 65H12.168V53.928H15.192C16.7067 53.928 17.864 54.152 18.664 54.6C19.464 55.048 19.864 55.768 19.864 56.76C19.864 57.4107 19.6667 57.9387 19.272 58.344C18.888 58.7387 18.408 59.0053 17.832 59.144ZM14.52 55.624V58.424H15.672C16.248 58.424 16.6907 58.3067 17 58.072C17.3093 57.8267 17.464 57.4587 17.464 56.968C17.464 56.4773 17.2987 56.1307 16.968 55.928C16.6373 55.7253 16.12 55.624 15.416 55.624H14.52ZM15.64 63.256C16.376 63.256 16.936 63.1493 17.32 62.936C17.704 62.712 17.896 62.296 17.896 61.688C17.896 60.5787 17.2133 60.024 15.848 60.024H14.52V63.256H15.64ZM28.9078 65H26.9398L26.8278 63.864C26.5291 64.3333 26.1664 64.6853 25.7398 64.92C25.3131 65.144 24.8171 65.256 24.2518 65.256C23.4838 65.256 22.8971 65.0267 22.4918 64.568C22.0864 64.0987 21.8838 63.448 21.8838 62.616V56.52H24.1558V62.328C24.1558 62.776 24.2304 63.096 24.3798 63.288C24.5291 63.4693 24.7638 63.56 25.0838 63.56C25.6918 63.56 26.2091 63.192 26.6358 62.456V56.52H28.9078V65ZM34.6873 56.264C35.2526 56.264 35.7593 56.3493 36.2073 56.52C36.6659 56.68 37.0979 56.936 37.5033 57.288L36.5113 58.632C36.2339 58.4187 35.9619 58.264 35.6953 58.168C35.4393 58.072 35.1566 58.024 34.8473 58.024C33.6419 58.024 33.0393 58.952 33.0393 60.808C33.0393 61.7467 33.1939 62.4187 33.5033 62.824C33.8126 63.2293 34.2553 63.432 34.8313 63.432C35.1299 63.432 35.4019 63.3893 35.6473 63.304C35.8926 63.208 36.1806 63.0533 36.5113 62.84L37.5033 64.264C36.6926 64.9253 35.7646 65.256 34.7193 65.256C33.8873 65.256 33.1619 65.0747 32.5433 64.712C31.9353 64.3493 31.4659 63.8373 31.1353 63.176C30.8046 62.504 30.6393 61.72 30.6393 60.824C30.6393 59.928 30.8046 59.1387 31.1353 58.456C31.4659 57.7627 31.9353 57.224 32.5433 56.84C33.1619 56.456 33.8766 56.264 34.6873 56.264ZM43.5279 56.264C44.2639 56.264 44.8399 56.4933 45.2559 56.952C45.6825 57.4 45.8959 58.024 45.8959 58.824V65H43.6239V59.208C43.6239 58.7493 43.5439 58.4293 43.3839 58.248C43.2239 58.056 42.9945 57.96 42.6959 57.96C42.0985 57.96 41.5545 58.3493 41.0639 59.128V65H38.7919V53.144L41.0639 52.904V57.48C41.4052 57.0747 41.7732 56.7707 42.1679 56.568C42.5732 56.3653 43.0265 56.264 43.5279 56.264ZM52.7935 56.264C53.5295 56.264 54.1055 56.4933 54.5215 56.952C54.9482 57.4 55.1615 58.024 55.1615 58.824V65H52.8895V59.208C52.8895 58.7493 52.8095 58.4293 52.6495 58.248C52.4895 58.056 52.2602 57.96 51.9615 57.96C51.3642 57.96 50.8202 58.3493 50.3295 59.128V65H48.0575V53.144L50.3295 52.904V57.48C50.6708 57.0747 51.0388 56.7707 51.4335 56.568C51.8388 56.3653 52.2922 56.264 52.7935 56.264ZM63.8031 62.648C63.8031 62.9787 63.8511 63.224 63.9471 63.384C64.0431 63.5333 64.2031 63.6453 64.4271 63.72L63.9471 65.224C63.4458 65.1813 63.0351 65.064 62.7151 64.872C62.4058 64.68 62.1658 64.3813 61.9951 63.976C61.4405 64.8293 60.5925 65.256 59.4511 65.256C58.6085 65.256 57.9365 65.016 57.4351 64.536C56.9445 64.0453 56.6991 63.4107 56.6991 62.632C56.6991 61.704 57.0351 60.9947 57.7071 60.504C58.3791 60.0133 59.3445 59.768 60.6031 59.768H61.5791V59.352C61.5791 58.8293 61.4618 58.4667 61.2271 58.264C60.9925 58.0613 60.6031 57.96 60.0591 57.96C59.4618 57.96 58.7151 58.1093 57.8191 58.408L57.3071 56.888C58.3631 56.472 59.4085 56.264 60.4431 56.264C61.5951 56.264 62.4431 56.5147 62.9871 57.016C63.5311 57.5067 63.8031 58.2427 63.8031 59.224V62.648ZM60.0751 63.624C60.7151 63.624 61.2165 63.3093 61.5791 62.68V61.064H60.8271C59.6005 61.064 58.9871 61.5227 58.9871 62.44C58.9871 62.8133 59.0778 63.1067 59.2591 63.32C59.4511 63.5227 59.7231 63.624 60.0751 63.624ZM68.0289 65.256C67.3355 65.256 66.7969 65.0587 66.4129 64.664C66.0289 64.2587 65.8369 63.688 65.8369 62.952V53.144L68.1089 52.888V62.888C68.1089 63.2613 68.2635 63.448 68.5729 63.448C68.7435 63.448 68.8929 63.416 69.0209 63.352L69.4849 64.968C69.0475 65.16 68.5622 65.256 68.0289 65.256ZM75.7233 64.6C75.4139 64.8133 75.0619 64.9733 74.6673 65.08C74.2833 65.1973 73.8993 65.256 73.5153 65.256C72.6406 65.2453 71.9793 64.9947 71.5312 64.504C71.0833 64.0133 70.8593 63.2933 70.8593 62.344V58.12H69.5953V56.52H70.8593V54.664L73.1313 54.392V56.52H75.0833L74.8593 58.12H73.1313V62.296C73.1313 62.7013 73.2006 62.9947 73.3393 63.176C73.4779 63.3573 73.6913 63.448 73.9793 63.448C74.2673 63.448 74.5873 63.352 74.9393 63.16L75.7233 64.6ZM83.6734 65H81.7054L81.5934 63.864C81.2947 64.3333 80.932 64.6853 80.5054 64.92C80.0787 65.144 79.5827 65.256 79.0174 65.256C78.2494 65.256 77.6627 65.0267 77.2574 64.568C76.852 64.0987 76.6494 63.448 76.6494 62.616V56.52H78.9214V62.328C78.9214 62.776 78.996 63.096 79.1454 63.288C79.2947 63.4693 79.5294 63.56 79.8494 63.56C80.4574 63.56 80.9747 63.192 81.4014 62.456V56.52H83.6734V65ZM90.6529 56.264C91.3995 56.264 91.9809 56.4933 92.3969 56.952C92.8129 57.4 93.0209 58.024 93.0209 58.824V65H90.7489V59.208C90.7489 58.7493 90.6689 58.4293 90.5089 58.248C90.3595 58.056 90.1302 57.96 89.8209 57.96C89.5009 57.96 89.2075 58.0613 88.9409 58.264C88.6849 58.456 88.4342 58.7493 88.1889 59.144V65H85.9169V56.52H87.8849L88.0609 57.592C88.4129 57.1547 88.7969 56.824 89.2129 56.6C89.6395 56.376 90.1195 56.264 90.6529 56.264ZM102.767 56.984C102.212 57.1973 101.396 57.304 100.319 57.304C100.852 57.5387 101.247 57.832 101.503 58.184C101.759 58.5253 101.887 58.9573 101.887 59.48C101.887 60.024 101.743 60.5147 101.455 60.952C101.177 61.3787 100.772 61.7147 100.239 61.96C99.7158 62.2053 99.1025 62.328 98.3985 62.328C98.0252 62.328 97.6945 62.2907 97.4065 62.216C97.1932 62.3547 97.0865 62.5413 97.0865 62.776C97.0865 62.9467 97.1505 63.0853 97.2785 63.192C97.4172 63.288 97.6785 63.336 98.0625 63.336H99.3585C99.9878 63.336 100.537 63.4427 101.007 63.656C101.487 63.8587 101.855 64.1467 102.111 64.52C102.377 64.8827 102.51 65.2987 102.51 65.768C102.51 66.632 102.137 67.304 101.391 67.784C100.655 68.2747 99.5878 68.52 98.1905 68.52C97.1878 68.52 96.3932 68.4133 95.8065 68.2C95.2305 67.9973 94.8252 67.6987 94.5905 67.304C94.3558 66.9093 94.2385 66.4133 94.2385 65.816H96.2705C96.2705 66.0933 96.3238 66.312 96.4305 66.472C96.5372 66.6427 96.7292 66.7653 97.0065 66.84C97.2945 66.9253 97.7052 66.968 98.2385 66.968C98.9745 66.968 99.4865 66.8773 99.7745 66.696C100.073 66.5147 100.223 66.2587 100.223 65.928C100.223 65.6293 100.111 65.4 99.8865 65.24C99.6625 65.08 99.3318 65 98.8945 65H97.6465C96.8038 65 96.1745 64.8453 95.7585 64.536C95.3425 64.216 95.1345 63.816 95.1345 63.336C95.1345 63.0373 95.2198 62.7493 95.3905 62.472C95.5718 62.184 95.8172 61.944 96.1265 61.752C95.6038 61.464 95.2198 61.128 94.9745 60.744C94.7398 60.3493 94.6225 59.88 94.6225 59.336C94.6225 58.7173 94.7718 58.1787 95.0705 57.72C95.3798 57.2507 95.8065 56.8933 96.3505 56.648C96.9052 56.392 97.5345 56.264 98.2385 56.264C99.1132 56.2853 99.8332 56.2107 100.399 56.04C100.964 55.8693 101.567 55.6027 102.207 55.24L102.767 56.984ZM98.2865 57.784C97.8598 57.784 97.5185 57.9227 97.2625 58.2C97.0172 58.4667 96.8945 58.8347 96.8945 59.304C96.8945 59.784 97.0172 60.1627 97.2625 60.44C97.5185 60.7173 97.8652 60.856 98.3025 60.856C98.7612 60.856 99.1078 60.7227 99.3425 60.456C99.5772 60.1893 99.6945 59.7947 99.6945 59.272C99.6945 58.28 99.2252 57.784 98.2865 57.784ZM106.577 56.264C107.771 56.264 108.795 56.6053 109.649 57.288L108.785 58.584C108.07 58.136 107.366 57.912 106.673 57.912C106.299 57.912 106.011 57.9813 105.809 58.12C105.606 58.2587 105.505 58.4453 105.505 58.68C105.505 58.8507 105.547 58.9947 105.633 59.112C105.729 59.2293 105.899 59.3413 106.145 59.448C106.401 59.5547 106.779 59.6827 107.281 59.832C108.177 60.0773 108.843 60.408 109.281 60.824C109.718 61.2293 109.937 61.7893 109.937 62.504C109.937 63.0693 109.771 63.56 109.441 63.976C109.121 64.392 108.683 64.712 108.129 64.936C107.574 65.1493 106.955 65.256 106.273 65.256C105.558 65.256 104.907 65.1493 104.321 64.936C103.734 64.712 103.233 64.408 102.817 64.024L103.937 62.776C104.651 63.3307 105.409 63.608 106.209 63.608C106.635 63.608 106.971 63.528 107.217 63.368C107.473 63.1973 107.601 62.968 107.601 62.68C107.601 62.456 107.553 62.28 107.457 62.152C107.361 62.024 107.185 61.9067 106.929 61.8C106.673 61.6827 106.273 61.5493 105.729 61.4C104.875 61.1653 104.241 60.8347 103.825 60.408C103.419 59.9707 103.217 59.432 103.217 58.792C103.217 58.312 103.355 57.88 103.633 57.496C103.91 57.112 104.299 56.8133 104.801 56.6C105.313 56.376 105.905 56.264 106.577 56.264ZM114.108 56.264C115.303 56.264 116.327 56.6053 117.18 57.288L116.316 58.584C115.601 58.136 114.897 57.912 114.204 57.912C113.831 57.912 113.543 57.9813 113.34 58.12C113.137 58.2587 113.036 58.4453 113.036 58.68C113.036 58.8507 113.079 58.9947 113.164 59.112C113.26 59.2293 113.431 59.3413 113.676 59.448C113.932 59.5547 114.311 59.6827 114.812 59.832C115.708 60.0773 116.375 60.408 116.812 60.824C117.249 61.2293 117.468 61.7893 117.468 62.504C117.468 63.0693 117.303 63.56 116.972 63.976C116.652 64.392 116.215 64.712 115.66 64.936C115.105 65.1493 114.487 65.256 113.804 65.256C113.089 65.256 112.439 65.1493 111.852 64.936C111.265 64.712 110.764 64.408 110.348 64.024L111.468 62.776C112.183 63.3307 112.94 63.608 113.74 63.608C114.167 63.608 114.503 63.528 114.748 63.368C115.004 63.1973 115.132 62.968 115.132 62.68C115.132 62.456 115.084 62.28 114.988 62.152C114.892 62.024 114.716 61.9067 114.46 61.8C114.204 61.6827 113.804 61.5493 113.26 61.4C112.407 61.1653 111.772 60.8347 111.356 60.408C110.951 59.9707 110.748 59.432 110.748 58.792C110.748 58.312 110.887 57.88 111.164 57.496C111.441 57.112 111.831 56.8133 112.332 56.6C112.844 56.376 113.436 56.264 114.108 56.264ZM123.035 65.016C122.694 66.0933 122.155 66.9253 121.419 67.512C120.694 68.0987 119.707 68.4347 118.459 68.52L118.219 66.888C119.03 66.7813 119.622 66.5893 119.995 66.312C120.379 66.0347 120.694 65.5973 120.939 65H120.155L117.515 56.52H119.931L121.627 63.528L123.419 56.52H125.771L123.035 65.016ZM129.545 56.264C130.74 56.264 131.764 56.6053 132.617 57.288L131.753 58.584C131.039 58.136 130.335 57.912 129.641 57.912C129.268 57.912 128.98 57.9813 128.777 58.12C128.575 58.2587 128.473 58.4453 128.473 58.68C128.473 58.8507 128.516 58.9947 128.601 59.112C128.697 59.2293 128.868 59.3413 129.113 59.448C129.369 59.5547 129.748 59.6827 130.249 59.832C131.145 60.0773 131.812 60.408 132.249 60.824C132.687 61.2293 132.905 61.7893 132.905 62.504C132.905 63.0693 132.74 63.56 132.409 63.976C132.089 64.392 131.652 64.712 131.097 64.936C130.543 65.1493 129.924 65.256 129.241 65.256C128.527 65.256 127.876 65.1493 127.289 64.936C126.703 64.712 126.201 64.408 125.785 64.024L126.905 62.776C127.62 63.3307 128.377 63.608 129.177 63.608C129.604 63.608 129.94 63.528 130.185 63.368C130.441 63.1973 130.569 62.968 130.569 62.68C130.569 62.456 130.521 62.28 130.425 62.152C130.329 62.024 130.153 61.9067 129.897 61.8C129.641 61.6827 129.241 61.5493 128.697 61.4C127.844 61.1653 127.209 60.8347 126.793 60.408C126.388 59.9707 126.185 59.432 126.185 58.792C126.185 58.312 126.324 57.88 126.601 57.496C126.879 57.112 127.268 56.8133 127.769 56.6C128.281 56.376 128.873 56.264 129.545 56.264ZM139.458 64.6C139.148 64.8133 138.796 64.9733 138.402 65.08C138.018 65.1973 137.634 65.256 137.25 65.256C136.375 65.2453 135.714 64.9947 135.266 64.504C134.818 64.0133 134.594 63.2933 134.594 62.344V58.12H133.33V56.52H134.594V54.664L136.866 54.392V56.52H138.818L138.594 58.12H136.866V62.296C136.866 62.7013 136.935 62.9947 137.074 63.176C137.212 63.3573 137.426 63.448 137.714 63.448C138.002 63.448 138.322 63.352 138.674 63.16L139.458 64.6ZM147.366 60.568C147.366 60.6747 147.35 60.968 147.318 61.448H142.022C142.097 62.216 142.305 62.76 142.646 63.08C142.987 63.4 143.451 63.56 144.038 63.56C144.401 63.56 144.742 63.5013 145.062 63.384C145.382 63.2667 145.729 63.08 146.102 62.824L147.046 64.104C146.097 64.872 145.025 65.256 143.83 65.256C142.497 65.256 141.473 64.856 140.758 64.056C140.043 63.256 139.686 62.1733 139.686 60.808C139.686 59.944 139.835 59.1707 140.134 58.488C140.443 57.7947 140.886 57.2507 141.462 56.856C142.049 56.4613 142.742 56.264 143.542 56.264C144.747 56.264 145.686 56.6427 146.358 57.4C147.03 58.1573 147.366 59.2133 147.366 60.568ZM145.11 59.928C145.11 58.52 144.603 57.816 143.59 57.816C143.121 57.816 142.753 57.992 142.486 58.344C142.23 58.6853 142.075 59.2453 142.022 60.024H145.11V59.928ZM158.179 56.264C158.851 56.264 159.389 56.4933 159.795 56.952C160.211 57.4107 160.419 58.0347 160.419 58.824V65H158.147V59.208C158.147 58.376 157.869 57.96 157.315 57.96C157.016 57.96 156.755 58.056 156.531 58.248C156.307 58.44 156.077 58.7387 155.843 59.144V65H153.571V59.208C153.571 58.376 153.293 57.96 152.739 57.96C152.44 57.96 152.179 58.0613 151.955 58.264C151.731 58.456 151.507 58.7493 151.283 59.144V65H149.011V56.52H150.979L151.155 57.576C151.475 57.1493 151.832 56.824 152.227 56.6C152.632 56.376 153.096 56.264 153.619 56.264C154.099 56.264 154.515 56.3867 154.867 56.632C155.219 56.8667 155.475 57.2027 155.635 57.64C155.987 57.1813 156.365 56.84 156.771 56.616C157.187 56.3813 157.656 56.264 158.179 56.264Z" fill="#3D32CF"/>
<path d="M14.895 266.928V278H12.543V266.928H14.895ZM21.9341 269.264C22.6808 269.264 23.2621 269.493 23.6781 269.952C24.0941 270.4 24.3021 271.024 24.3021 271.824V278H22.0301V272.208C22.0301 271.749 21.9501 271.429 21.7901 271.248C21.6408 271.056 21.4115 270.96 21.1021 270.96C20.7821 270.96 20.4888 271.061 20.2221 271.264C19.9661 271.456 19.7155 271.749 19.4701 272.144V278H17.1981V269.52H19.1661L19.3421 270.592C19.6941 270.155 20.0781 269.824 20.4941 269.6C20.9208 269.376 21.4008 269.264 21.9341 269.264ZM31.5358 277.6C31.2264 277.813 30.8744 277.973 30.4798 278.08C30.0958 278.197 29.7118 278.256 29.3278 278.256C28.4531 278.245 27.7918 277.995 27.3438 277.504C26.8958 277.013 26.6718 276.293 26.6718 275.344V271.12H25.4078V269.52H26.6718V267.664L28.9438 267.392V269.52H30.8958L30.6718 271.12H28.9438V275.296C28.9438 275.701 29.0131 275.995 29.1518 276.176C29.2904 276.357 29.5038 276.448 29.7918 276.448C30.0798 276.448 30.3998 276.352 30.7518 276.16L31.5358 277.6ZM39.4443 273.568C39.4443 273.675 39.4283 273.968 39.3963 274.448H34.1003C34.1749 275.216 34.3829 275.76 34.7243 276.08C35.0656 276.4 35.5296 276.56 36.1163 276.56C36.4789 276.56 36.8203 276.501 37.1403 276.384C37.4603 276.267 37.8069 276.08 38.1803 275.824L39.1243 277.104C38.1749 277.872 37.1029 278.256 35.9083 278.256C34.5749 278.256 33.5509 277.856 32.8363 277.056C32.1216 276.256 31.7643 275.173 31.7643 273.808C31.7643 272.944 31.9136 272.171 32.2122 271.488C32.5216 270.795 32.9643 270.251 33.5403 269.856C34.1269 269.461 34.8203 269.264 35.6203 269.264C36.8256 269.264 37.7643 269.643 38.4363 270.4C39.1083 271.157 39.4443 272.213 39.4443 273.568ZM37.1883 272.928C37.1883 271.52 36.6816 270.816 35.6683 270.816C35.1989 270.816 34.8309 270.992 34.5643 271.344C34.3083 271.685 34.1536 272.245 34.1003 273.024H37.1883V272.928ZM45.4728 269.28C45.7288 269.28 46.0114 269.323 46.3208 269.408L45.9368 271.6C45.6381 271.525 45.3874 271.488 45.1848 271.488C44.6834 271.488 44.2941 271.664 44.0168 272.016C43.7394 272.368 43.5208 272.901 43.3608 273.616V278H41.0888V269.52H43.0568L43.2648 271.168C43.4674 270.571 43.7608 270.107 44.1448 269.776C44.5394 269.445 44.9821 269.28 45.4728 269.28ZM52.1841 269.264C52.9308 269.264 53.5121 269.493 53.9281 269.952C54.3441 270.4 54.5521 271.024 54.5521 271.824V278H52.2801V272.208C52.2801 271.749 52.2001 271.429 52.0401 271.248C51.8908 271.056 51.6615 270.96 51.3521 270.96C51.0321 270.96 50.7388 271.061 50.4721 271.264C50.2161 271.456 49.9655 271.749 49.7201 272.144V278H47.4481V269.52H49.4161L49.5921 270.592C49.9441 270.155 50.3281 269.824 50.7441 269.6C51.1708 269.376 51.6508 269.264 52.1841 269.264ZM63.8818 273.568C63.8818 273.675 63.8658 273.968 63.8338 274.448H58.5378C58.6124 275.216 58.8204 275.76 59.1618 276.08C59.5031 276.4 59.9671 276.56 60.5538 276.56C60.9164 276.56 61.2578 276.501 61.5778 276.384C61.8978 276.267 62.2444 276.08 62.6178 275.824L63.5618 277.104C62.6124 277.872 61.5404 278.256 60.3458 278.256C59.0124 278.256 57.9884 277.856 57.2738 277.056C56.5591 276.256 56.2018 275.173 56.2018 273.808C56.2018 272.944 56.3511 272.171 56.6497 271.488C56.9591 270.795 57.4018 270.251 57.9778 269.856C58.5644 269.461 59.2578 269.264 60.0578 269.264C61.2631 269.264 62.2018 269.643 62.8738 270.4C63.5458 271.157 63.8818 272.213 63.8818 273.568ZM61.6258 272.928C61.6258 271.52 61.1191 270.816 60.1058 270.816C59.6364 270.816 59.2684 270.992 59.0018 271.344C58.7458 271.685 58.5911 272.245 58.5378 273.024H61.6258V272.928ZM70.5983 277.6C70.2889 277.813 69.9369 277.973 69.5423 278.08C69.1583 278.197 68.7743 278.256 68.3903 278.256C67.5156 278.245 66.8543 277.995 66.4062 277.504C65.9583 277.013 65.7343 276.293 65.7343 275.344V271.12H64.4703V269.52H65.7343V267.664L68.0063 267.392V269.52H69.9583L69.7343 271.12H68.0063V275.296C68.0063 275.701 68.0756 275.995 68.2143 276.176C68.3529 276.357 68.5663 276.448 68.8543 276.448C69.1423 276.448 69.4623 276.352 69.8143 276.16L70.5983 277.6ZM70.6118 273.888V272.096H75.5718V273.888H70.6118ZM80.4078 266.928C82.1358 266.928 83.5171 267.323 84.5518 268.112C85.5971 268.891 86.1198 270.325 86.1198 272.416C86.1198 274.464 85.6078 275.909 84.5838 276.752C83.5704 277.584 82.2691 278 80.6798 278H77.5118V266.928H80.4078ZM79.8638 268.656V276.272H80.8238C81.7304 276.272 82.4291 275.995 82.9198 275.44C83.4211 274.875 83.6718 273.867 83.6718 272.416C83.6718 271.413 83.5438 270.635 83.2878 270.08C83.0424 269.525 82.7118 269.152 82.2958 268.96C81.8798 268.757 81.3731 268.656 80.7758 268.656H79.8638ZM90.142 269.52V278H87.87V269.52H90.142ZM88.99 265.152C89.3953 265.152 89.726 265.28 89.982 265.536C90.2487 265.781 90.382 266.096 90.382 266.48C90.382 266.864 90.2487 267.184 89.982 267.44C89.726 267.685 89.3953 267.808 88.99 267.808C88.5847 267.808 88.254 267.685 87.998 267.44C87.742 267.184 87.614 266.864 87.614 266.48C87.614 266.096 87.742 265.781 87.998 265.536C88.254 265.28 88.5847 265.152 88.99 265.152ZM99.5536 273.568C99.5536 273.675 99.5376 273.968 99.5056 274.448H94.2096C94.2843 275.216 94.4923 275.76 94.8336 276.08C95.175 276.4 95.639 276.56 96.2256 276.56C96.5883 276.56 96.9296 276.501 97.2496 276.384C97.5696 276.267 97.9163 276.08 98.2896 275.824L99.2336 277.104C98.2843 277.872 97.2123 278.256 96.0176 278.256C94.6843 278.256 93.6603 277.856 92.9456 277.056C92.231 276.256 91.8736 275.173 91.8736 273.808C91.8736 272.944 92.023 272.171 92.3216 271.488C92.631 270.795 93.0736 270.251 93.6496 269.856C94.2363 269.461 94.9296 269.264 95.7296 269.264C96.935 269.264 97.8736 269.643 98.5456 270.4C99.2176 271.157 99.5536 272.213 99.5536 273.568ZM97.2976 272.928C97.2976 271.52 96.791 270.816 95.7776 270.816C95.3083 270.816 94.9403 270.992 94.6736 271.344C94.4176 271.685 94.263 272.245 94.2096 273.024H97.2976V272.928ZM105.934 269.264C106.681 269.264 107.262 269.493 107.678 269.952C108.094 270.4 108.302 271.024 108.302 271.824V278H106.03V272.208C106.03 271.749 105.95 271.429 105.79 271.248C105.641 271.056 105.411 270.96 105.102 270.96C104.782 270.96 104.489 271.061 104.222 271.264C103.966 271.456 103.715 271.749 103.47 272.144V278H101.198V269.52H103.166L103.342 270.592C103.694 270.155 104.078 269.824 104.494 269.6C104.921 269.376 105.401 269.264 105.934 269.264ZM113.28 269.264C114.474 269.264 115.498 269.605 116.352 270.288L115.488 271.584C114.773 271.136 114.069 270.912 113.376 270.912C113.002 270.912 112.714 270.981 112.512 271.12C112.309 271.259 112.208 271.445 112.208 271.68C112.208 271.851 112.25 271.995 112.336 272.112C112.432 272.229 112.602 272.341 112.848 272.448C113.104 272.555 113.482 272.683 113.984 272.832C114.88 273.077 115.546 273.408 115.984 273.824C116.421 274.229 116.64 274.789 116.64 275.504C116.64 276.069 116.474 276.56 116.144 276.976C115.824 277.392 115.386 277.712 114.832 277.936C114.277 278.149 113.658 278.256 112.976 278.256C112.261 278.256 111.61 278.149 111.024 277.936C110.437 277.712 109.936 277.408 109.52 277.024L110.64 275.776C111.354 276.331 112.112 276.608 112.912 276.608C113.338 276.608 113.674 276.528 113.92 276.368C114.176 276.197 114.304 275.968 114.304 275.68C114.304 275.456 114.256 275.28 114.16 275.152C114.064 275.024 113.888 274.907 113.632 274.8C113.376 274.683 112.976 274.549 112.432 274.4C111.578 274.165 110.944 273.835 110.528 273.408C110.122 272.971 109.92 272.432 109.92 271.792C109.92 271.312 110.058 270.88 110.336 270.496C110.613 270.112 111.002 269.813 111.504 269.6C112.016 269.376 112.608 269.264 113.28 269.264ZM123.192 277.6C122.883 277.813 122.531 277.973 122.136 278.08C121.752 278.197 121.368 278.256 120.984 278.256C120.109 278.245 119.448 277.995 119 277.504C118.552 277.013 118.328 276.293 118.328 275.344V271.12H117.064V269.52H118.328V267.664L120.6 267.392V269.52H122.552L122.328 271.12H120.6V275.296C120.6 275.701 120.669 275.995 120.808 276.176C120.947 276.357 121.16 276.448 121.448 276.448C121.736 276.448 122.056 276.352 122.408 276.16L123.192 277.6ZM131.101 273.568C131.101 273.675 131.085 273.968 131.053 274.448H125.757C125.831 275.216 126.039 275.76 126.381 276.08C126.722 276.4 127.186 276.56 127.773 276.56C128.135 276.56 128.477 276.501 128.797 276.384C129.117 276.267 129.463 276.08 129.837 275.824L130.781 277.104C129.831 277.872 128.759 278.256 127.565 278.256C126.231 278.256 125.207 277.856 124.493 277.056C123.778 276.256 123.421 275.173 123.421 273.808C123.421 272.944 123.57 272.171 123.868 271.488C124.178 270.795 124.621 270.251 125.197 269.856C125.783 269.461 126.477 269.264 127.277 269.264C128.482 269.264 129.421 269.643 130.093 270.4C130.765 271.157 131.101 272.213 131.101 273.568ZM128.845 272.928C128.845 271.52 128.338 270.816 127.325 270.816C126.855 270.816 126.487 270.992 126.221 271.344C125.965 271.685 125.81 272.245 125.757 273.024H128.845V272.928Z" fill="#3D32CF"/>
<path d="M183.024 42L182.4 39.52H178.928L178.304 42H175.856L179.264 30.928H182.128L185.52 42H183.024ZM179.376 37.776H181.952L180.656 32.672L179.376 37.776ZM189.967 30.928C191.407 30.928 192.522 31.2267 193.311 31.824C194.111 32.4213 194.511 33.312 194.511 34.496C194.511 35.7333 194.116 36.6667 193.327 37.296C192.538 37.9147 191.482 38.224 190.159 38.224H188.895V42H186.543V30.928H189.967ZM189.967 36.496C190.65 36.496 191.172 36.3413 191.535 36.032C191.898 35.7227 192.079 35.2107 192.079 34.496C192.079 33.248 191.364 32.624 189.935 32.624H188.895V36.496H189.967ZM200.427 30.672C201.12 30.672 201.723 30.7733 202.235 30.976C202.747 31.168 203.248 31.4667 203.739 31.872L202.571 33.232C201.931 32.7093 201.259 32.448 200.555 32.448C199.765 32.448 199.136 32.7733 198.667 33.424C198.208 34.064 197.979 35.072 197.979 36.448C197.979 37.792 198.208 38.7893 198.667 39.44C199.136 40.08 199.771 40.4 200.571 40.4C200.987 40.4 201.365 40.3253 201.707 40.176C202.048 40.016 202.405 39.792 202.779 39.504L203.867 40.864C203.472 41.2693 202.981 41.6053 202.395 41.872C201.819 42.128 201.179 42.256 200.475 42.256C199.483 42.256 198.613 42.032 197.867 41.584C197.12 41.136 196.539 40.48 196.123 39.616C195.707 38.7413 195.499 37.6853 195.499 36.448C195.499 35.2427 195.712 34.208 196.139 33.344C196.565 32.4693 197.152 31.808 197.899 31.36C198.645 30.9013 199.488 30.672 200.427 30.672ZM208.419 30.672C209.219 30.672 209.912 30.7893 210.499 31.024C211.096 31.248 211.646 31.5947 212.147 32.064L211.027 33.36C210.632 33.04 210.238 32.8053 209.843 32.656C209.448 32.5067 209.027 32.432 208.579 32.432C208.088 32.432 207.694 32.5387 207.395 32.752C207.107 32.9547 206.963 33.248 206.963 33.632C206.963 33.8987 207.022 34.1173 207.139 34.288C207.267 34.4587 207.486 34.6187 207.795 34.768C208.104 34.9173 208.568 35.088 209.187 35.28C210.286 35.632 211.107 36.0693 211.651 36.592C212.195 37.104 212.467 37.84 212.467 38.8C212.467 39.4827 212.296 40.0853 211.955 40.608C211.614 41.12 211.118 41.5253 210.467 41.824C209.816 42.112 209.054 42.256 208.179 42.256C207.304 42.256 206.526 42.1173 205.843 41.84C205.16 41.5627 204.574 41.184 204.083 40.704L205.283 39.376C205.71 39.7387 206.152 40.016 206.611 40.208C207.07 40.3893 207.571 40.48 208.115 40.48C208.691 40.48 209.15 40.3467 209.491 40.08C209.843 39.8133 210.019 39.44 210.019 38.96C210.019 38.6613 209.955 38.416 209.827 38.224C209.71 38.0213 209.502 37.84 209.203 37.68C208.904 37.52 208.472 37.3547 207.907 37.184C206.702 36.8107 205.838 36.3627 205.315 35.84C204.803 35.3173 204.547 34.6347 204.547 33.792C204.547 33.1733 204.712 32.6293 205.043 32.16C205.374 31.68 205.832 31.312 206.419 31.056C207.006 30.8 207.672 30.672 208.419 30.672Z" fill="#3D32CF"/>
<path d="M172.463 274.352C172.463 275.109 172.303 275.781 171.983 276.368C171.663 276.955 171.183 277.419 170.543 277.76C169.914 278.091 169.146 278.256 168.239 278.256C166.874 278.256 165.829 277.904 165.103 277.2C164.389 276.485 164.031 275.536 164.031 274.352V266.928H166.383V274.24C166.383 274.987 166.533 275.547 166.831 275.92C167.13 276.283 167.599 276.464 168.239 276.464C168.879 276.464 169.349 276.283 169.647 275.92C169.957 275.547 170.111 274.987 170.111 274.24V266.928H172.463V274.352ZM166.415 263.312C166.757 263.312 167.039 263.429 167.263 263.664C167.498 263.888 167.615 264.165 167.615 264.496C167.615 264.827 167.498 265.109 167.263 265.344C167.039 265.568 166.757 265.68 166.415 265.68C166.085 265.68 165.802 265.568 165.567 265.344C165.333 265.109 165.215 264.827 165.215 264.496C165.215 264.165 165.333 263.888 165.567 263.664C165.802 263.429 166.085 263.312 166.415 263.312ZM170.031 263.312C170.373 263.312 170.661 263.429 170.895 263.664C171.13 263.888 171.247 264.165 171.247 264.496C171.247 264.827 171.13 265.109 170.895 265.344C170.661 265.568 170.373 265.68 170.031 265.68C169.701 265.68 169.418 265.568 169.183 265.344C168.959 265.109 168.847 264.827 168.847 264.496C168.847 264.165 168.959 263.888 169.183 263.664C169.418 263.429 169.701 263.312 170.031 263.312ZM179.204 269.264C180.196 269.264 180.964 269.659 181.508 270.448C182.063 271.237 182.34 272.341 182.34 273.76C182.34 274.635 182.202 275.413 181.924 276.096C181.658 276.768 181.268 277.296 180.756 277.68C180.255 278.064 179.663 278.256 178.98 278.256C178.052 278.256 177.311 277.893 176.756 277.168L176.628 278H174.612V266.144L176.884 265.888V270.432C177.151 270.069 177.487 269.787 177.892 269.584C178.298 269.371 178.735 269.264 179.204 269.264ZM178.34 276.576C179.428 276.576 179.972 275.637 179.972 273.76C179.972 272.725 179.839 272 179.572 271.584C179.316 271.157 178.943 270.944 178.452 270.944C177.844 270.944 177.322 271.307 176.884 272.032V275.664C177.258 276.272 177.743 276.576 178.34 276.576ZM191.311 273.568C191.311 273.675 191.295 273.968 191.263 274.448H185.967C186.042 275.216 186.25 275.76 186.591 276.08C186.933 276.4 187.397 276.56 187.983 276.56C188.346 276.56 188.687 276.501 189.007 276.384C189.327 276.267 189.674 276.08 190.047 275.824L190.991 277.104C190.042 277.872 188.97 278.256 187.775 278.256C186.442 278.256 185.418 277.856 184.703 277.056C183.989 276.256 183.631 275.173 183.631 273.808C183.631 272.944 183.781 272.171 184.079 271.488C184.389 270.795 184.831 270.251 185.407 269.856C185.994 269.461 186.687 269.264 187.487 269.264C188.693 269.264 189.631 269.643 190.303 270.4C190.975 271.157 191.311 272.213 191.311 273.568ZM189.055 272.928C189.055 271.52 188.549 270.816 187.535 270.816C187.066 270.816 186.698 270.992 186.431 271.344C186.175 271.685 186.021 272.245 185.967 273.024H189.055V272.928ZM197.34 269.28C197.596 269.28 197.879 269.323 198.188 269.408L197.804 271.6C197.505 271.525 197.255 271.488 197.052 271.488C196.551 271.488 196.161 271.664 195.884 272.016C195.607 272.368 195.388 272.901 195.228 273.616V278H192.956V269.52H194.924L195.132 271.168C195.335 270.571 195.628 270.107 196.012 269.776C196.407 269.445 196.849 269.28 197.34 269.28ZM209.923 269.52L208.115 278H205.347L204.131 271.552L202.915 278H200.179L198.323 269.52H200.611L201.651 276.32L203.059 269.52H205.331L206.595 276.32L207.747 269.52H209.923ZM217.452 275.648C217.452 275.979 217.5 276.224 217.596 276.384C217.692 276.533 217.852 276.645 218.076 276.72L217.596 278.224C217.094 278.181 216.684 278.064 216.364 277.872C216.054 277.68 215.814 277.381 215.644 276.976C215.089 277.829 214.241 278.256 213.1 278.256C212.257 278.256 211.585 278.016 211.084 277.536C210.593 277.045 210.348 276.411 210.348 275.632C210.348 274.704 210.684 273.995 211.356 273.504C212.028 273.013 212.993 272.768 214.252 272.768H215.228V272.352C215.228 271.829 215.11 271.467 214.876 271.264C214.641 271.061 214.252 270.96 213.708 270.96C213.11 270.96 212.364 271.109 211.468 271.408L210.956 269.888C212.012 269.472 213.057 269.264 214.092 269.264C215.244 269.264 216.092 269.515 216.636 270.016C217.18 270.507 217.452 271.243 217.452 272.224V275.648ZM213.724 276.624C214.364 276.624 214.865 276.309 215.228 275.68V274.064H214.476C213.249 274.064 212.636 274.523 212.636 275.44C212.636 275.813 212.726 276.107 212.908 276.32C213.1 276.523 213.372 276.624 213.724 276.624ZM223.258 269.264C223.823 269.264 224.33 269.349 224.778 269.52C225.236 269.68 225.668 269.936 226.074 270.288L225.082 271.632C224.804 271.419 224.532 271.264 224.266 271.168C224.01 271.072 223.727 271.024 223.418 271.024C222.212 271.024 221.61 271.952 221.61 273.808C221.61 274.747 221.764 275.419 222.074 275.824C222.383 276.229 222.826 276.432 223.402 276.432C223.7 276.432 223.972 276.389 224.218 276.304C224.463 276.208 224.751 276.053 225.082 275.84L226.074 277.264C225.263 277.925 224.335 278.256 223.29 278.256C222.458 278.256 221.732 278.075 221.114 277.712C220.506 277.349 220.036 276.837 219.706 276.176C219.375 275.504 219.21 274.72 219.21 273.824C219.21 272.928 219.375 272.139 219.706 271.456C220.036 270.763 220.506 270.224 221.114 269.84C221.732 269.456 222.447 269.264 223.258 269.264ZM232.098 269.264C232.834 269.264 233.41 269.493 233.826 269.952C234.253 270.4 234.466 271.024 234.466 271.824V278H232.194V272.208C232.194 271.749 232.114 271.429 231.954 271.248C231.794 271.056 231.565 270.96 231.266 270.96C230.669 270.96 230.125 271.349 229.634 272.128V278H227.362V266.144L229.634 265.904V270.48C229.976 270.075 230.344 269.771 230.738 269.568C231.144 269.365 231.597 269.264 232.098 269.264ZM243.572 278H241.604L241.492 276.864C241.193 277.333 240.83 277.685 240.404 277.92C239.977 278.144 239.481 278.256 238.916 278.256C238.148 278.256 237.561 278.027 237.156 277.568C236.75 277.099 236.548 276.448 236.548 275.616V269.52H238.82V275.328C238.82 275.776 238.894 276.096 239.044 276.288C239.193 276.469 239.428 276.56 239.748 276.56C240.356 276.56 240.873 276.192 241.3 275.456V269.52H243.572V278ZM250.551 269.264C251.298 269.264 251.879 269.493 252.295 269.952C252.711 270.4 252.919 271.024 252.919 271.824V278H250.647V272.208C250.647 271.749 250.567 271.429 250.407 271.248C250.258 271.056 250.029 270.96 249.719 270.96C249.399 270.96 249.106 271.061 248.839 271.264C248.583 271.456 248.333 271.749 248.087 272.144V278H245.815V269.52H247.783L247.959 270.592C248.311 270.155 248.695 269.824 249.111 269.6C249.538 269.376 250.018 269.264 250.551 269.264ZM262.665 269.984C262.11 270.197 261.294 270.304 260.217 270.304C260.75 270.539 261.145 270.832 261.401 271.184C261.657 271.525 261.785 271.957 261.785 272.48C261.785 273.024 261.641 273.515 261.353 273.952C261.076 274.379 260.67 274.715 260.137 274.96C259.614 275.205 259.001 275.328 258.297 275.328C257.924 275.328 257.593 275.291 257.305 275.216C257.092 275.355 256.985 275.541 256.985 275.776C256.985 275.947 257.049 276.085 257.177 276.192C257.316 276.288 257.577 276.336 257.961 276.336H259.257C259.886 276.336 260.436 276.443 260.905 276.656C261.385 276.859 261.753 277.147 262.009 277.52C262.276 277.883 262.409 278.299 262.409 278.768C262.409 279.632 262.036 280.304 261.289 280.784C260.553 281.275 259.486 281.52 258.089 281.52C257.086 281.52 256.292 281.413 255.705 281.2C255.129 280.997 254.724 280.699 254.489 280.304C254.254 279.909 254.137 279.413 254.137 278.816H256.169C256.169 279.093 256.222 279.312 256.329 279.472C256.436 279.643 256.628 279.765 256.905 279.84C257.193 279.925 257.604 279.968 258.137 279.968C258.873 279.968 259.385 279.877 259.673 279.696C259.972 279.515 260.121 279.259 260.121 278.928C260.121 278.629 260.009 278.4 259.785 278.24C259.561 278.08 259.23 278 258.793 278H257.545C256.702 278 256.073 277.845 255.657 277.536C255.241 277.216 255.033 276.816 255.033 276.336C255.033 276.037 255.118 275.749 255.289 275.472C255.47 275.184 255.716 274.944 256.025 274.752C255.502 274.464 255.118 274.128 254.873 273.744C254.638 273.349 254.521 272.88 254.521 272.336C254.521 271.717 254.67 271.179 254.969 270.72C255.278 270.251 255.705 269.893 256.249 269.648C256.804 269.392 257.433 269.264 258.137 269.264C259.012 269.285 259.732 269.211 260.297 269.04C260.862 268.869 261.465 268.603 262.105 268.24L262.665 269.984ZM258.185 270.784C257.758 270.784 257.417 270.923 257.161 271.2C256.916 271.467 256.793 271.835 256.793 272.304C256.793 272.784 256.916 273.163 257.161 273.44C257.417 273.717 257.764 273.856 258.201 273.856C258.66 273.856 259.006 273.723 259.241 273.456C259.476 273.189 259.593 272.795 259.593 272.272C259.593 271.28 259.124 270.784 258.185 270.784ZM266.475 269.264C267.67 269.264 268.694 269.605 269.547 270.288L268.683 271.584C267.968 271.136 267.264 270.912 266.571 270.912C266.198 270.912 265.91 270.981 265.707 271.12C265.504 271.259 265.403 271.445 265.403 271.68C265.403 271.851 265.446 271.995 265.531 272.112C265.627 272.229 265.798 272.341 266.043 272.448C266.299 272.555 266.678 272.683 267.179 272.832C268.075 273.077 268.742 273.408 269.179 273.824C269.616 274.229 269.835 274.789 269.835 275.504C269.835 276.069 269.67 276.56 269.339 276.976C269.019 277.392 268.582 277.712 268.027 277.936C267.472 278.149 266.854 278.256 266.171 278.256C265.456 278.256 264.806 278.149 264.219 277.936C263.632 277.712 263.131 277.408 262.715 277.024L263.835 275.776C264.55 276.331 265.307 276.608 266.107 276.608C266.534 276.608 266.87 276.528 267.115 276.368C267.371 276.197 267.499 275.968 267.499 275.68C267.499 275.456 267.451 275.28 267.355 275.152C267.259 275.024 267.083 274.907 266.827 274.8C266.571 274.683 266.171 274.549 265.627 274.4C264.774 274.165 264.139 273.835 263.723 273.408C263.318 272.971 263.115 272.432 263.115 271.792C263.115 271.312 263.254 270.88 263.531 270.496C263.808 270.112 264.198 269.813 264.699 269.6C265.211 269.376 265.803 269.264 266.475 269.264ZM274.006 269.264C275.201 269.264 276.225 269.605 277.078 270.288L276.214 271.584C275.5 271.136 274.796 270.912 274.102 270.912C273.729 270.912 273.441 270.981 273.238 271.12C273.036 271.259 272.934 271.445 272.934 271.68C272.934 271.851 272.977 271.995 273.062 272.112C273.158 272.229 273.329 272.341 273.574 272.448C273.83 272.555 274.209 272.683 274.71 272.832C275.606 273.077 276.273 273.408 276.71 273.824C277.148 274.229 277.366 274.789 277.366 275.504C277.366 276.069 277.201 276.56 276.87 276.976C276.55 277.392 276.113 277.712 275.558 277.936C275.004 278.149 274.385 278.256 273.702 278.256C272.988 278.256 272.337 278.149 271.75 277.936C271.164 277.712 270.662 277.408 270.246 277.024L271.366 275.776C272.081 276.331 272.838 276.608 273.638 276.608C274.065 276.608 274.401 276.528 274.646 276.368C274.902 276.197 275.03 275.968 275.03 275.68C275.03 275.456 274.982 275.28 274.886 275.152C274.79 275.024 274.614 274.907 274.358 274.8C274.102 274.683 273.702 274.549 273.158 274.4C272.305 274.165 271.67 273.835 271.254 273.408C270.849 272.971 270.646 272.432 270.646 271.792C270.646 271.312 270.785 270.88 271.062 270.496C271.34 270.112 271.729 269.813 272.23 269.6C272.742 269.376 273.334 269.264 274.006 269.264ZM282.933 278.016C282.592 279.093 282.053 279.925 281.317 280.512C280.592 281.099 279.605 281.435 278.357 281.52L278.117 279.888C278.928 279.781 279.52 279.589 279.893 279.312C280.277 279.035 280.592 278.597 280.837 278H280.053L277.413 269.52H279.829L281.525 276.528L283.317 269.52H285.669L282.933 278.016ZM289.444 269.264C290.638 269.264 291.662 269.605 292.516 270.288L291.652 271.584C290.937 271.136 290.233 270.912 289.54 270.912C289.166 270.912 288.878 270.981 288.676 271.12C288.473 271.259 288.372 271.445 288.372 271.68C288.372 271.851 288.414 271.995 288.5 272.112C288.596 272.229 288.766 272.341 289.012 272.448C289.268 272.555 289.646 272.683 290.148 272.832C291.044 273.077 291.71 273.408 292.148 273.824C292.585 274.229 292.804 274.789 292.804 275.504C292.804 276.069 292.638 276.56 292.308 276.976C291.988 277.392 291.55 277.712 290.996 277.936C290.441 278.149 289.822 278.256 289.14 278.256C288.425 278.256 287.774 278.149 287.188 277.936C286.601 277.712 286.1 277.408 285.684 277.024L286.804 275.776C287.518 276.331 288.276 276.608 289.076 276.608C289.502 276.608 289.838 276.528 290.084 276.368C290.34 276.197 290.468 275.968 290.468 275.68C290.468 275.456 290.42 275.28 290.324 275.152C290.228 275.024 290.052 274.907 289.796 274.8C289.54 274.683 289.14 274.549 288.596 274.4C287.742 274.165 287.108 273.835 286.692 273.408C286.286 272.971 286.084 272.432 286.084 271.792C286.084 271.312 286.222 270.88 286.5 270.496C286.777 270.112 287.166 269.813 287.668 269.6C288.18 269.376 288.772 269.264 289.444 269.264ZM299.356 277.6C299.047 277.813 298.695 277.973 298.3 278.08C297.916 278.197 297.532 278.256 297.148 278.256C296.273 278.245 295.612 277.995 295.164 277.504C294.716 277.013 294.492 276.293 294.492 275.344V271.12H293.228V269.52H294.492V267.664L296.764 267.392V269.52H298.716L298.492 271.12H296.764V275.296C296.764 275.701 296.833 275.995 296.972 276.176C297.111 276.357 297.324 276.448 297.612 276.448C297.9 276.448 298.22 276.352 298.572 276.16L299.356 277.6ZM185.093 292.568C185.093 292.675 185.077 292.968 185.045 293.448H179.749C179.823 294.216 180.031 294.76 180.373 295.08C180.714 295.4 181.178 295.56 181.765 295.56C182.127 295.56 182.469 295.501 182.789 295.384C183.109 295.267 183.455 295.08 183.829 294.824L184.773 296.104C183.823 296.872 182.751 297.256 181.557 297.256C180.223 297.256 179.199 296.856 178.485 296.056C177.77 295.256 177.413 294.173 177.413 292.808C177.413 291.944 177.562 291.171 177.861 290.488C178.17 289.795 178.613 289.251 179.189 288.856C179.775 288.461 180.469 288.264 181.269 288.264C182.474 288.264 183.413 288.643 184.085 289.4C184.757 290.157 185.093 291.213 185.093 292.568ZM182.837 291.928C182.837 290.52 182.33 289.816 181.317 289.816C180.847 289.816 180.479 289.992 180.213 290.344C179.957 290.685 179.802 291.245 179.749 292.024H182.837V291.928ZM195.905 288.264C196.577 288.264 197.116 288.493 197.521 288.952C197.937 289.411 198.145 290.035 198.145 290.824V297H195.873V291.208C195.873 290.376 195.596 289.96 195.041 289.96C194.743 289.96 194.481 290.056 194.257 290.248C194.033 290.44 193.804 290.739 193.569 291.144V297H191.297V291.208C191.297 290.376 191.02 289.96 190.465 289.96C190.167 289.96 189.905 290.061 189.681 290.264C189.457 290.456 189.233 290.749 189.009 291.144V297H186.737V288.52H188.705L188.881 289.576C189.201 289.149 189.559 288.824 189.953 288.6C190.359 288.376 190.823 288.264 191.345 288.264C191.825 288.264 192.241 288.387 192.593 288.632C192.945 288.867 193.201 289.203 193.361 289.64C193.713 289.181 194.092 288.84 194.497 288.616C194.913 288.381 195.383 288.264 195.905 288.264ZM207.468 292.568C207.468 292.675 207.452 292.968 207.42 293.448H202.124C202.198 294.216 202.406 294.76 202.748 295.08C203.089 295.4 203.553 295.56 204.14 295.56C204.502 295.56 204.844 295.501 205.164 295.384C205.484 295.267 205.83 295.08 206.204 294.824L207.148 296.104C206.198 296.872 205.126 297.256 203.932 297.256C202.598 297.256 201.574 296.856 200.86 296.056C200.145 295.256 199.788 294.173 199.788 292.808C199.788 291.944 199.937 291.171 200.236 290.488C200.545 289.795 200.988 289.251 201.564 288.856C202.15 288.461 202.844 288.264 203.644 288.264C204.849 288.264 205.788 288.643 206.46 289.4C207.132 290.157 207.468 291.213 207.468 292.568ZM205.212 291.928C205.212 290.52 204.705 289.816 203.692 289.816C203.222 289.816 202.854 289.992 202.588 290.344C202.332 290.685 202.177 291.245 202.124 292.024H205.212V291.928ZM216.65 286.584C216.266 286.584 215.989 286.675 215.818 286.856C215.658 287.037 215.578 287.331 215.578 287.736V288.52H217.594L217.338 290.12H215.578V297H213.306V290.12H211.962V288.52H213.306V287.672C213.306 286.851 213.573 286.184 214.106 285.672C214.65 285.149 215.418 284.888 216.41 284.888C217.2 284.888 217.946 285.059 218.65 285.4L218.026 286.904C217.568 286.691 217.109 286.584 216.65 286.584ZM225.572 297H223.604L223.492 295.864C223.193 296.333 222.83 296.685 222.404 296.92C221.977 297.144 221.481 297.256 220.916 297.256C220.148 297.256 219.561 297.027 219.156 296.568C218.75 296.099 218.548 295.448 218.548 294.616V288.52H220.82V294.328C220.82 294.776 220.894 295.096 221.044 295.288C221.193 295.469 221.428 295.56 221.748 295.56C222.356 295.56 222.873 295.192 223.3 294.456V288.52H225.572V297ZM220.244 284.328C220.585 284.328 220.868 284.445 221.092 284.68C221.326 284.904 221.444 285.181 221.444 285.512C221.444 285.843 221.326 286.125 221.092 286.36C220.868 286.584 220.585 286.696 220.244 286.696C219.913 286.696 219.63 286.584 219.396 286.36C219.161 286.125 219.044 285.843 219.044 285.512C219.044 285.181 219.161 284.904 219.396 284.68C219.63 284.445 219.913 284.328 220.244 284.328ZM223.86 284.328C224.201 284.328 224.489 284.445 224.724 284.68C224.958 284.904 225.076 285.181 225.076 285.512C225.076 285.843 224.958 286.125 224.724 286.36C224.489 286.584 224.201 286.696 223.86 286.696C223.529 286.696 223.246 286.584 223.012 286.36C222.788 286.125 222.676 285.843 222.676 285.512C222.676 285.181 222.788 284.904 223.012 284.68C223.246 284.445 223.529 284.328 223.86 284.328ZM232.199 288.28C232.455 288.28 232.738 288.323 233.047 288.408L232.663 290.6C232.365 290.525 232.114 290.488 231.911 290.488C231.41 290.488 231.021 290.664 230.743 291.016C230.466 291.368 230.247 291.901 230.087 292.616V297H227.815V288.52H229.783L229.991 290.168C230.194 289.571 230.487 289.107 230.871 288.776C231.266 288.445 231.709 288.28 232.199 288.28ZM242.753 285.672C243.5 285.672 244.161 285.789 244.737 286.024C245.324 286.248 245.868 286.573 246.369 287L245.137 288.28C244.742 287.981 244.369 287.763 244.017 287.624C243.676 287.485 243.286 287.416 242.849 287.416C242.006 287.416 241.324 287.752 240.801 288.424C240.289 289.085 240.033 290.099 240.033 291.464C240.033 292.904 240.23 293.939 240.625 294.568C241.03 295.187 241.654 295.496 242.497 295.496C243.105 295.496 243.654 295.363 244.145 295.096V292.392H242.593L242.353 290.68H246.433V296.136C245.857 296.488 245.233 296.765 244.561 296.968C243.9 297.16 243.228 297.256 242.545 297.256C240.913 297.256 239.676 296.765 238.833 295.784C237.99 294.803 237.569 293.357 237.569 291.448C237.569 290.243 237.798 289.203 238.257 288.328C238.716 287.453 239.334 286.792 240.113 286.344C240.902 285.896 241.782 285.672 242.753 285.672ZM255.499 292.568C255.499 292.675 255.483 292.968 255.451 293.448H250.155C250.23 294.216 250.438 294.76 250.779 295.08C251.12 295.4 251.584 295.56 252.171 295.56C252.534 295.56 252.875 295.501 253.195 295.384C253.515 295.267 253.862 295.08 254.235 294.824L255.179 296.104C254.23 296.872 253.158 297.256 251.963 297.256C250.63 297.256 249.606 296.856 248.891 296.056C248.176 295.256 247.819 294.173 247.819 292.808C247.819 291.944 247.968 291.171 248.267 290.488C248.576 289.795 249.019 289.251 249.595 288.856C250.182 288.461 250.875 288.264 251.675 288.264C252.88 288.264 253.819 288.643 254.491 289.4C255.163 290.157 255.499 291.213 255.499 292.568ZM253.243 291.928C253.243 290.52 252.736 289.816 251.723 289.816C251.254 289.816 250.886 289.992 250.619 290.344C250.363 290.685 250.208 291.245 250.155 292.024H253.243V291.928ZM261.527 288.28C261.783 288.28 262.066 288.323 262.375 288.408L261.991 290.6C261.693 290.525 261.442 290.488 261.239 290.488C260.738 290.488 260.349 290.664 260.071 291.016C259.794 291.368 259.575 291.901 259.415 292.616V297H257.143V288.52H259.111L259.319 290.168C259.522 289.571 259.815 289.107 260.199 288.776C260.594 288.445 261.037 288.28 261.527 288.28ZM269.42 294.648C269.42 294.979 269.468 295.224 269.564 295.384C269.66 295.533 269.82 295.645 270.044 295.72L269.564 297.224C269.063 297.181 268.652 297.064 268.332 296.872C268.023 296.68 267.783 296.381 267.612 295.976C267.058 296.829 266.21 297.256 265.068 297.256C264.226 297.256 263.554 297.016 263.052 296.536C262.562 296.045 262.316 295.411 262.316 294.632C262.316 293.704 262.652 292.995 263.324 292.504C263.996 292.013 264.962 291.768 266.22 291.768H267.196V291.352C267.196 290.829 267.079 290.467 266.844 290.264C266.61 290.061 266.22 289.96 265.676 289.96C265.079 289.96 264.332 290.109 263.436 290.408L262.924 288.888C263.98 288.472 265.026 288.264 266.06 288.264C267.212 288.264 268.06 288.515 268.604 289.016C269.148 289.507 269.42 290.243 269.42 291.224V294.648ZM265.692 295.624C266.332 295.624 266.834 295.309 267.196 294.68V293.064H266.444C265.218 293.064 264.604 293.523 264.604 294.44C264.604 294.813 264.695 295.107 264.876 295.32C265.068 295.523 265.34 295.624 265.692 295.624ZM264.3 284.328C264.642 284.328 264.924 284.445 265.148 284.68C265.383 284.904 265.5 285.181 265.5 285.512C265.5 285.843 265.383 286.125 265.148 286.36C264.924 286.584 264.642 286.696 264.3 286.696C263.97 286.696 263.687 286.584 263.452 286.36C263.218 286.125 263.1 285.843 263.1 285.512C263.1 285.181 263.218 284.904 263.452 284.68C263.687 284.445 263.97 284.328 264.3 284.328ZM267.916 284.328C268.258 284.328 268.546 284.445 268.78 284.68C269.015 284.904 269.132 285.181 269.132 285.512C269.132 285.843 269.015 286.125 268.78 286.36C268.546 286.584 268.258 286.696 267.916 286.696C267.586 286.696 267.303 286.584 267.068 286.36C266.844 286.125 266.732 285.843 266.732 285.512C266.732 285.181 266.844 284.904 267.068 284.68C267.303 284.445 267.586 284.328 267.916 284.328ZM276.762 296.6C276.453 296.813 276.101 296.973 275.706 297.08C275.322 297.197 274.938 297.256 274.554 297.256C273.68 297.245 273.018 296.995 272.57 296.504C272.122 296.013 271.898 295.293 271.898 294.344V290.12H270.634V288.52H271.898V286.664L274.17 286.392V288.52H276.122L275.898 290.12H274.17V294.296C274.17 294.701 274.24 294.995 274.378 295.176C274.517 295.357 274.73 295.448 275.018 295.448C275.306 295.448 275.626 295.352 275.978 295.16L276.762 296.6ZM284.671 292.568C284.671 292.675 284.655 292.968 284.623 293.448H279.327C279.401 294.216 279.609 294.76 279.951 295.08C280.292 295.4 280.756 295.56 281.343 295.56C281.705 295.56 282.047 295.501 282.367 295.384C282.687 295.267 283.033 295.08 283.407 294.824L284.351 296.104C283.401 296.872 282.329 297.256 281.135 297.256C279.801 297.256 278.777 296.856 278.063 296.056C277.348 295.256 276.991 294.173 276.991 292.808C276.991 291.944 277.14 291.171 277.439 290.488C277.748 289.795 278.191 289.251 278.767 288.856C279.353 288.461 280.047 288.264 280.847 288.264C282.052 288.264 282.991 288.643 283.663 289.4C284.335 290.157 284.671 291.213 284.671 292.568ZM282.415 291.928C282.415 290.52 281.908 289.816 280.895 289.816C280.425 289.816 280.057 289.992 279.791 290.344C279.535 290.685 279.38 291.245 279.327 292.024H282.415V291.928Z" fill="#3D32CF"/>
<path d="M218.512 3.928L218.256 5.768H215.456V15H213.104V5.768H210.16V3.928H218.512ZM225.96 10.568C225.96 10.6747 225.944 10.968 225.912 11.448H220.616C220.691 12.216 220.899 12.76 221.24 13.08C221.581 13.4 222.045 13.56 222.632 13.56C222.995 13.56 223.336 13.5013 223.656 13.384C223.976 13.2667 224.323 13.08 224.696 12.824L225.64 14.104C224.691 14.872 223.619 15.256 222.424 15.256C221.091 15.256 220.067 14.856 219.352 14.056C218.637 13.256 218.28 12.1733 218.28 10.808C218.28 9.944 218.429 9.17067 218.728 8.488C219.037 7.79467 219.48 7.25067 220.056 6.856C220.643 6.46133 221.336 6.264 222.136 6.264C223.341 6.264 224.28 6.64267 224.952 7.4C225.624 8.15733 225.96 9.21333 225.96 10.568ZM223.704 9.928C223.704 8.52 223.197 7.816 222.184 7.816C221.715 7.816 221.347 7.992 221.08 8.344C220.824 8.68533 220.669 9.24533 220.616 10.024H223.704V9.928ZM229.716 15.256C229.023 15.256 228.484 15.0587 228.1 14.664C227.716 14.2587 227.524 13.688 227.524 12.952V3.144L229.796 2.888V12.888C229.796 13.2613 229.951 13.448 230.26 13.448C230.431 13.448 230.58 13.416 230.708 13.352L231.172 14.968C230.735 15.16 230.25 15.256 229.716 15.256ZM239.429 10.568C239.429 10.6747 239.413 10.968 239.381 11.448H234.085C234.159 12.216 234.367 12.76 234.709 13.08C235.05 13.4 235.514 13.56 236.101 13.56C236.463 13.56 236.805 13.5013 237.125 13.384C237.445 13.2667 237.791 13.08 238.165 12.824L239.109 14.104C238.159 14.872 237.087 15.256 235.893 15.256C234.559 15.256 233.535 14.856 232.821 14.056C232.106 13.256 231.749 12.1733 231.749 10.808C231.749 9.944 231.898 9.17067 232.197 8.488C232.506 7.79467 232.949 7.25067 233.525 6.856C234.111 6.46133 234.805 6.264 235.605 6.264C236.81 6.264 237.749 6.64267 238.421 7.4C239.093 8.15733 239.429 9.21333 239.429 10.568ZM237.173 9.928C237.173 8.52 236.666 7.816 235.653 7.816C235.183 7.816 234.815 7.992 234.549 8.344C234.293 8.68533 234.138 9.24533 234.085 10.024H237.173V9.928ZM250.241 6.264C250.913 6.264 251.452 6.49333 251.857 6.952C252.273 7.41067 252.481 8.03467 252.481 8.824V15H250.209V9.208C250.209 8.376 249.932 7.96 249.377 7.96C249.078 7.96 248.817 8.056 248.593 8.248C248.369 8.44 248.14 8.73867 247.905 9.144V15H245.633V9.208C245.633 8.376 245.356 7.96 244.801 7.96C244.502 7.96 244.241 8.06133 244.017 8.264C243.793 8.456 243.569 8.74933 243.345 9.144V15H241.073V6.52H243.041L243.217 7.576C243.537 7.14933 243.894 6.824 244.289 6.6C244.694 6.376 245.158 6.264 245.681 6.264C246.161 6.264 246.577 6.38667 246.929 6.632C247.281 6.86667 247.537 7.20267 247.697 7.64C248.049 7.18133 248.428 6.84 248.833 6.616C249.249 6.38133 249.718 6.264 250.241 6.264ZM261.804 10.568C261.804 10.6747 261.788 10.968 261.756 11.448H256.46C256.534 12.216 256.742 12.76 257.084 13.08C257.425 13.4 257.889 13.56 258.476 13.56C258.838 13.56 259.18 13.5013 259.5 13.384C259.82 13.2667 260.166 13.08 260.54 12.824L261.484 14.104C260.534 14.872 259.462 15.256 258.268 15.256C256.934 15.256 255.91 14.856 255.196 14.056C254.481 13.256 254.124 12.1733 254.124 10.808C254.124 9.944 254.273 9.17067 254.572 8.488C254.881 7.79467 255.324 7.25067 255.9 6.856C256.486 6.46133 257.18 6.264 257.98 6.264C259.185 6.264 260.124 6.64267 260.796 7.4C261.468 8.15733 261.804 9.21333 261.804 10.568ZM259.548 9.928C259.548 8.52 259.041 7.816 258.028 7.816C257.558 7.816 257.19 7.992 256.924 8.344C256.668 8.68533 256.513 9.24533 256.46 10.024H259.548V9.928ZM268.52 14.6C268.211 14.8133 267.859 14.9733 267.464 15.08C267.08 15.1973 266.696 15.256 266.312 15.256C265.437 15.2453 264.776 14.9947 264.328 14.504C263.88 14.0133 263.656 13.2933 263.656 12.344V8.12H262.392V6.52H263.656V4.664L265.928 4.392V6.52H267.88L267.656 8.12H265.928V12.296C265.928 12.7013 265.997 12.9947 266.136 13.176C266.275 13.3573 266.488 13.448 266.776 13.448C267.064 13.448 267.384 13.352 267.736 13.16L268.52 14.6ZM273.91 6.28C274.166 6.28 274.449 6.32267 274.758 6.408L274.374 8.6C274.076 8.52533 273.825 8.488 273.622 8.488C273.121 8.488 272.732 8.664 272.454 9.016C272.177 9.368 271.958 9.90133 271.798 10.616V15H269.526V6.52H271.494L271.702 8.168C271.905 7.57067 272.198 7.10667 272.582 6.776C272.977 6.44533 273.42 6.28 273.91 6.28ZM278.158 6.52V15H275.886V6.52H278.158ZM277.006 2.152C277.411 2.152 277.742 2.28 277.998 2.536C278.264 2.78133 278.398 3.096 278.398 3.48C278.398 3.864 278.264 4.184 277.998 4.44C277.742 4.68533 277.411 4.808 277.006 4.808C276.6 4.808 276.27 4.68533 276.014 4.44C275.758 4.184 275.63 3.864 275.63 3.48C275.63 3.096 275.758 2.78133 276.014 2.536C276.27 2.28 276.6 2.152 277.006 2.152ZM287.569 10.568C287.569 10.6747 287.553 10.968 287.521 11.448H282.225C282.3 12.216 282.508 12.76 282.849 13.08C283.191 13.4 283.655 13.56 284.241 13.56C284.604 13.56 284.945 13.5013 285.265 13.384C285.585 13.2667 285.932 13.08 286.305 12.824L287.249 14.104C286.3 14.872 285.228 15.256 284.033 15.256C282.7 15.256 281.676 14.856 280.961 14.056C280.247 13.256 279.889 12.1733 279.889 10.808C279.889 9.944 280.039 9.17067 280.337 8.488C280.647 7.79467 281.089 7.25067 281.665 6.856C282.252 6.46133 282.945 6.264 283.745 6.264C284.951 6.264 285.889 6.64267 286.561 7.4C287.233 8.15733 287.569 9.21333 287.569 10.568ZM285.313 9.928C285.313 8.52 284.807 7.816 283.793 7.816C283.324 7.816 282.956 7.992 282.689 8.344C282.433 8.68533 282.279 9.24533 282.225 10.024H285.313V9.928Z" fill="#3D32CF"/>
</svg>
