<svg width="30" height="31" viewBox="0 0 30 31" fill="none" xmlns="http://www.w3.org/2000/svg">
<path fill-rule="evenodd" clip-rule="evenodd" d="M25.6288 4.38046C22.8091 1.55708 19.0588 0.00143246 15.063 0C6.82925 0 0.128205 6.70033 0.12534 14.9363C0.123908 17.5691 0.812205 20.1389 2.11933 22.4037L0 30.1447L7.91863 28.0676C10.1003 29.258 12.5569 29.8847 15.0566 29.8854H15.063C23.2953 29.8854 29.9972 23.1843 30 14.9484C30.0014 10.9569 28.4493 7.20456 25.6288 4.38118V4.38046ZM15.063 27.3628H15.058C12.8305 27.3622 10.6453 26.7633 8.73875 25.6324L8.28535 25.3632L3.58617 26.5957L4.84028 22.014L4.54519 21.5442C3.30253 19.5674 2.64575 17.2826 2.64718 14.937C2.65005 8.09197 8.21945 2.52256 15.0681 2.52256C18.3842 2.52399 21.5012 3.81679 23.8454 6.16388C26.1897 8.51025 27.4796 11.6302 27.4782 14.947C27.4753 21.7928 21.9059 27.3622 15.063 27.3622V27.3628ZM21.8729 18.0647C21.4998 17.8778 19.6648 16.9753 19.3224 16.8508C18.9801 16.7261 18.7316 16.6638 18.483 17.0377C18.2345 17.4116 17.519 18.2524 17.3013 18.5009C17.0835 18.7502 16.8658 18.781 16.4926 18.594C16.1195 18.4071 14.9169 18.0132 13.4909 16.7418C12.3815 15.752 11.6323 14.5302 11.4146 14.1563C11.1968 13.7824 11.3917 13.5804 11.5778 13.3949C11.7454 13.2273 11.951 12.9588 12.1379 12.741C12.3249 12.5233 12.3865 12.3672 12.5111 12.1186C12.6358 11.8693 12.5734 11.6517 12.4803 11.4647C12.3872 11.2778 11.6409 9.44058 11.3293 8.69358C11.0263 7.96591 10.7184 8.06475 10.4899 8.05258C10.2722 8.04183 10.0237 8.03968 9.77442 8.03968C9.52517 8.03968 9.12117 8.13279 8.77883 8.50667C8.4365 8.8805 7.47243 9.78367 7.47243 11.6201C7.47243 13.4565 8.80967 15.2321 8.99658 15.4813C9.1835 15.7306 11.6287 19.5001 15.3724 21.1173C16.2627 21.5019 16.9582 21.7318 17.5003 21.9038C18.3943 22.1881 19.2078 22.148 19.851 22.052C20.568 21.9446 22.0592 21.1488 22.37 20.2772C22.6808 19.4055 22.6808 18.6578 22.5878 18.5023C22.4947 18.3469 22.2454 18.2531 21.8723 18.0662L21.8729 18.0647Z" fill="#25D366"/>
</svg>
